<svg xmlns="http://www.w3.org/2000/svg" width="28" height="32" viewBox="0 0 28 32" fill="none">
    <path
        d="M21.7601 22.7418C20.1602 24.2035 18.0799 25.0155 15.8401 25.0155C10.72 25.0155 7.03986 21.2796 7.03986 15.9197C7.03986 10.5598 10.72 6.98633 15.8401 6.98633C18.0799 6.98633 20.1602 7.63595 21.7601 9.26L22.88 10.2344L27.68 5.36173L26.5601 4.22489C23.5199 1.62751 19.8402 0.00290674 15.8401 0.00290674C6.71989 -0.159498 0 6.49966 0 15.9203C0 25.016 6.87988 32 15.8401 32C20.0002 32 23.8399 30.5384 26.8801 27.7769L28 26.6401L22.88 21.4426L21.7601 22.7418Z"
        fill="black"
    />
    <path d="M15.5 22C18.5376 22 21 19.5376 21 16.5C21 13.4624 18.5376 11 15.5 11C12.4624 11 10 13.4624 10 16.5C10 19.5376 12.4624 22 15.5 22Z" fill="black" />
</svg>
