<svg xmlns="http://www.w3.org/2000/svg" width="202" height="202" viewBox="0 0 202 202" fill="none">
    <circle cx="101" cy="101" r="100" fill="#F1EFED" stroke="#8F8E93" stroke-width="2" />
    <circle cx="100.5" cy="100.5" r="93.5" fill="#F1EFED" stroke="#8F8E93" stroke-width="1.8" stroke-dasharray="2.83 2.83" />
    <path d="M101 10C50.7421 10 10 50.7421 10 101H192C192 50.7421 151.258 10 101 10Z" fill="#8F8E93" />
    <path
        d="M27.2175 84.32C27.1855 84.9813 27.3775 85.5307 27.7935 85.968C28.2095 86.4053 28.7482 86.624 29.4095 86.624C30.0602 86.624 30.5882 86.4213 30.9935 86.016C31.4095 85.6107 31.6175 85.0933 31.6175 84.464V76.8H33.2175V84.464C33.2175 85.1573 33.0522 85.7867 32.7215 86.352C32.3908 86.9173 31.9322 87.36 31.3455 87.68C30.7695 88 30.1242 88.16 29.4095 88.16C28.6842 88.16 28.0282 87.9947 27.4415 87.664C26.8548 87.3227 26.3962 86.8587 26.0655 86.272C25.7455 85.6853 25.5962 85.0347 25.6175 84.32H27.2175ZM39.6385 88.16C38.8492 88.16 38.1292 87.9787 37.4785 87.616C36.8278 87.2427 36.3158 86.7413 35.9425 86.112C35.5692 85.472 35.3825 84.768 35.3825 84C35.3825 83.232 35.5692 82.5333 35.9425 81.904C36.3158 81.264 36.8278 80.7627 37.4785 80.4C38.1292 80.0267 38.8492 79.84 39.6385 79.84C40.4172 79.84 41.1265 80.0267 41.7665 80.4C42.4172 80.7627 42.9292 81.264 43.3025 81.904C43.6758 82.5333 43.8625 83.232 43.8625 84C43.8625 84.768 43.6758 85.472 43.3025 86.112C42.9292 86.7413 42.4172 87.2427 41.7665 87.616C41.1265 87.9787 40.4172 88.16 39.6385 88.16ZM39.6385 86.752C40.1292 86.752 40.5772 86.6347 40.9825 86.4C41.3878 86.1547 41.7078 85.824 41.9425 85.408C42.1772 84.9813 42.2945 84.512 42.2945 84C42.2945 83.488 42.1772 83.024 41.9425 82.608C41.7078 82.1813 41.3878 81.8507 40.9825 81.616C40.5772 81.3707 40.1292 81.248 39.6385 81.248C39.1372 81.248 38.6785 81.3707 38.2625 81.616C37.8572 81.8507 37.5372 82.1813 37.3025 82.608C37.0678 83.024 36.9505 83.488 36.9505 84C36.9505 84.512 37.0678 84.9813 37.3025 85.408C37.5372 85.824 37.8572 86.1547 38.2625 86.4C38.6785 86.6347 39.1372 86.752 39.6385 86.752ZM50.2403 79.84C50.9443 79.84 51.5843 80.0213 52.1603 80.384C52.7363 80.736 53.1896 81.2267 53.5203 81.856C53.8509 82.4853 54.0163 83.2 54.0163 84C54.0163 84.8 53.8509 85.5147 53.5203 86.144C53.1896 86.7733 52.7363 87.2693 52.1603 87.632C51.5843 87.984 50.9443 88.16 50.2403 88.16C49.7069 88.16 49.2056 88.0427 48.7363 87.808C48.2669 87.5627 47.8669 87.2267 47.5363 86.8V88H46.0163V76.72H47.4563V81.296C47.7976 80.8373 48.2083 80.48 48.6883 80.224C49.1683 79.968 49.6856 79.84 50.2403 79.84ZM49.9843 86.752C50.4536 86.752 50.8749 86.6347 51.2483 86.4C51.6216 86.1653 51.9149 85.84 52.1283 85.424C52.3416 84.9973 52.4483 84.5227 52.4483 84C52.4483 83.4773 52.3416 83.008 52.1283 82.592C51.9149 82.1653 51.6216 81.8347 51.2483 81.6C50.8749 81.3653 50.4536 81.248 49.9843 81.248C49.5149 81.248 49.0883 81.3653 48.7043 81.6C48.3203 81.8347 48.0216 82.1653 47.8083 82.592C47.5949 83.008 47.4883 83.4773 47.4883 84C47.4883 84.5227 47.5949 84.9973 47.8083 85.424C48.0216 85.84 48.3203 86.1653 48.7043 86.4C49.0883 86.6347 49.5149 86.752 49.9843 86.752ZM65.0644 88.16C63.763 88.16 62.6644 87.84 61.7684 87.2C60.883 86.5493 60.3444 85.648 60.1524 84.496H61.7524C62.019 85.232 62.419 85.7707 62.9524 86.112C63.4964 86.4533 64.2164 86.624 65.1124 86.624C65.9764 86.624 66.675 86.4693 67.2084 86.16C67.7417 85.84 68.0084 85.4293 68.0084 84.928C68.0084 84.4907 67.811 84.1387 67.4164 83.872C67.0217 83.5947 66.371 83.3653 65.4644 83.184L64.2484 82.96C62.979 82.736 62.0297 82.352 61.4004 81.808C60.771 81.2533 60.4564 80.5707 60.4564 79.76C60.4564 79.1413 60.643 78.5973 61.0164 78.128C61.3897 77.6587 61.9124 77.296 62.5844 77.04C63.2564 76.7733 64.0297 76.64 64.9044 76.64C66.0457 76.64 67.0377 76.9227 67.8804 77.488C68.723 78.0427 69.2777 78.8267 69.5444 79.84H67.8644C67.651 79.296 67.267 78.8853 66.7124 78.608C66.1684 78.32 65.539 78.176 64.8244 78.176C63.9817 78.176 63.315 78.3253 62.8244 78.624C62.3444 78.912 62.1044 79.312 62.1044 79.824C62.1044 80.24 62.2964 80.576 62.6804 80.832C63.075 81.088 63.6937 81.2907 64.5364 81.44L65.7524 81.648C67.0964 81.872 68.083 82.256 68.7124 82.8C69.3417 83.344 69.6564 84.0427 69.6564 84.896C69.6564 85.536 69.459 86.1013 69.0644 86.592C68.6804 87.0827 68.1417 87.4667 67.4484 87.744C66.755 88.0213 65.9604 88.16 65.0644 88.16ZM79.1019 80V88H77.6619V86.72C77.3632 87.1573 76.9792 87.5093 76.5099 87.776C76.0512 88.032 75.5552 88.16 75.0219 88.16C74.3712 88.16 73.7845 88.0213 73.2619 87.744C72.7499 87.4667 72.3392 87.0507 72.0299 86.496C71.7312 85.9307 71.5819 85.2427 71.5819 84.432V80H73.1019V84.4C73.1019 85.104 73.3099 85.664 73.7259 86.08C74.1419 86.496 74.6645 86.704 75.2939 86.704C75.7525 86.704 76.1525 86.5973 76.4939 86.384C76.8459 86.16 77.1125 85.8613 77.2939 85.488C77.4859 85.1147 77.5819 84.7093 77.5819 84.272V80H79.1019ZM81.2638 84C81.2638 83.232 81.4504 82.5333 81.8238 81.904C82.1971 81.264 82.7091 80.7627 83.3598 80.4C84.0104 80.0267 84.7304 79.84 85.5198 79.84C86.4051 79.84 87.1998 80.1013 87.9038 80.624C88.6184 81.136 89.0878 81.808 89.3118 82.64H87.6478C87.4664 82.2133 87.1731 81.8773 86.7678 81.632C86.3731 81.376 85.9304 81.248 85.4398 81.248C84.9384 81.248 84.4904 81.3707 84.0958 81.616C83.7011 81.8507 83.3918 82.1813 83.1678 82.608C82.9438 83.024 82.8318 83.488 82.8318 84C82.8318 84.512 82.9438 84.9813 83.1678 85.408C83.3918 85.824 83.7011 86.1547 84.0958 86.4C84.4904 86.6347 84.9384 86.752 85.4398 86.752C85.9304 86.752 86.3731 86.6293 86.7678 86.384C87.1731 86.128 87.4664 85.7867 87.6478 85.36H89.3118C89.0878 86.192 88.6184 86.8693 87.9038 87.392C87.1998 87.904 86.4051 88.16 85.5198 88.16C84.7304 88.16 84.0104 87.9787 83.3598 87.616C82.7091 87.2427 82.1971 86.7413 81.8238 86.112C81.4504 85.472 81.2638 84.768 81.2638 84ZM90.6775 84C90.6775 83.232 90.8642 82.5333 91.2375 81.904C91.6108 81.264 92.1228 80.7627 92.7735 80.4C93.4242 80.0267 94.1442 79.84 94.9335 79.84C95.8188 79.84 96.6135 80.1013 97.3175 80.624C98.0322 81.136 98.5015 81.808 98.7255 82.64H97.0615C96.8802 82.2133 96.5868 81.8773 96.1815 81.632C95.7868 81.376 95.3442 81.248 94.8535 81.248C94.3522 81.248 93.9042 81.3707 93.5095 81.616C93.1148 81.8507 92.8055 82.1813 92.5815 82.608C92.3575 83.024 92.2455 83.488 92.2455 84C92.2455 84.512 92.3575 84.9813 92.5815 85.408C92.8055 85.824 93.1148 86.1547 93.5095 86.4C93.9042 86.6347 94.3522 86.752 94.8535 86.752C95.3442 86.752 95.7868 86.6293 96.1815 86.384C96.5868 86.128 96.8802 85.7867 97.0615 85.36H98.7255C98.5015 86.192 98.0322 86.8693 97.3175 87.392C96.6135 87.904 95.8188 88.16 94.9335 88.16C94.1442 88.16 93.4242 87.9787 92.7735 87.616C92.1228 87.2427 91.6108 86.7413 91.2375 86.112C90.8642 85.472 90.6775 84.768 90.6775 84ZM104.187 79.84C105.009 79.84 105.723 80.016 106.331 80.368C106.95 80.72 107.425 81.2213 107.755 81.872C108.086 82.512 108.251 83.264 108.251 84.128C108.251 84.352 108.246 84.5173 108.235 84.624H101.675C101.782 85.2427 102.07 85.7547 102.539 86.16C103.019 86.5547 103.574 86.752 104.203 86.752C105.238 86.752 105.974 86.3733 106.411 85.616H107.979C107.723 86.3627 107.249 86.976 106.555 87.456C105.862 87.9253 105.078 88.16 104.203 88.16C103.425 88.16 102.721 87.984 102.091 87.632C101.462 87.2693 100.971 86.7733 100.619 86.144C100.267 85.504 100.091 84.7893 100.091 84C100.091 83.2107 100.267 82.5013 100.619 81.872C100.971 81.232 101.457 80.736 102.075 80.384C102.705 80.0213 103.409 79.84 104.187 79.84ZM104.155 81.184C103.526 81.184 102.982 81.3813 102.523 81.776C102.075 82.1707 101.798 82.6773 101.691 83.296H106.603C106.539 82.656 106.278 82.144 105.819 81.76C105.371 81.376 104.817 81.184 104.155 81.184ZM113.307 88.16C112.304 88.16 111.456 87.9253 110.763 87.456C110.08 86.976 109.685 86.3147 109.579 85.472H111.099C111.237 85.9307 111.493 86.272 111.867 86.496C112.251 86.7093 112.752 86.816 113.371 86.816C113.947 86.816 114.411 86.7253 114.763 86.544C115.115 86.352 115.291 86.1067 115.291 85.808C115.291 85.5093 115.168 85.2747 114.923 85.104C114.688 84.9227 114.245 84.7787 113.595 84.672L112.683 84.512C110.763 84.1707 109.803 83.3973 109.803 82.192C109.803 81.488 110.112 80.9227 110.731 80.496C111.349 80.0587 112.16 79.84 113.163 79.84C114.069 79.84 114.843 80.0533 115.483 80.48C116.123 80.896 116.528 81.4773 116.699 82.224H115.083C114.955 81.904 114.709 81.6587 114.347 81.488C113.984 81.3067 113.584 81.216 113.147 81.216C112.592 81.216 112.149 81.3013 111.819 81.472C111.499 81.632 111.339 81.856 111.339 82.144C111.339 82.4 111.461 82.6133 111.707 82.784C111.952 82.944 112.347 83.0667 112.891 83.152L113.819 83.312C114.907 83.4933 115.675 83.792 116.123 84.208C116.571 84.6133 116.795 85.1467 116.795 85.808C116.795 86.512 116.48 87.0827 115.851 87.52C115.232 87.9467 114.384 88.16 113.307 88.16ZM121.845 88.16C120.843 88.16 119.995 87.9253 119.301 87.456C118.619 86.976 118.224 86.3147 118.117 85.472H119.637C119.776 85.9307 120.032 86.272 120.405 86.496C120.789 86.7093 121.291 86.816 121.909 86.816C122.485 86.816 122.949 86.7253 123.301 86.544C123.653 86.352 123.829 86.1067 123.829 85.808C123.829 85.5093 123.707 85.2747 123.461 85.104C123.227 84.9227 122.784 84.7787 122.133 84.672L121.221 84.512C119.301 84.1707 118.341 83.3973 118.341 82.192C118.341 81.488 118.651 80.9227 119.269 80.496C119.888 80.0587 120.699 79.84 121.701 79.84C122.608 79.84 123.381 80.0533 124.021 80.48C124.661 80.896 125.067 81.4773 125.237 82.224H123.621C123.493 81.904 123.248 81.6587 122.885 81.488C122.523 81.3067 122.123 81.216 121.685 81.216C121.131 81.216 120.688 81.3013 120.357 81.472C120.037 81.632 119.877 81.856 119.877 82.144C119.877 82.4 120 82.6133 120.245 82.784C120.491 82.944 120.885 83.0667 121.429 83.152L122.357 83.312C123.445 83.4933 124.213 83.792 124.661 84.208C125.109 84.6133 125.333 85.1467 125.333 85.808C125.333 86.512 125.019 87.0827 124.389 87.52C123.771 87.9467 122.923 88.16 121.845 88.16ZM136.374 88.16C135.073 88.16 133.974 87.84 133.078 87.2C132.193 86.5493 131.654 85.648 131.462 84.496H133.062C133.329 85.232 133.729 85.7707 134.262 86.112C134.806 86.4533 135.526 86.624 136.422 86.624C137.286 86.624 137.985 86.4693 138.518 86.16C139.052 85.84 139.318 85.4293 139.318 84.928C139.318 84.4907 139.121 84.1387 138.726 83.872C138.332 83.5947 137.681 83.3653 136.774 83.184L135.558 82.96C134.289 82.736 133.34 82.352 132.71 81.808C132.081 81.2533 131.766 80.5707 131.766 79.76C131.766 79.1413 131.953 78.5973 132.326 78.128C132.7 77.6587 133.222 77.296 133.894 77.04C134.566 76.7733 135.34 76.64 136.214 76.64C137.356 76.64 138.348 76.9227 139.19 77.488C140.033 78.0427 140.588 78.8267 140.854 79.84H139.174C138.961 79.296 138.577 78.8853 138.022 78.608C137.478 78.32 136.849 78.176 136.134 78.176C135.292 78.176 134.625 78.3253 134.134 78.624C133.654 78.912 133.414 79.312 133.414 79.824C133.414 80.24 133.606 80.576 133.99 80.832C134.385 81.088 135.004 81.2907 135.846 81.44L137.062 81.648C138.406 81.872 139.393 82.256 140.022 82.8C140.652 83.344 140.966 84.0427 140.966 84.896C140.966 85.536 140.769 86.1013 140.374 86.592C139.99 87.0827 139.452 87.4667 138.758 87.744C138.065 88.0213 137.27 88.16 136.374 88.16ZM142.332 84C142.332 83.232 142.519 82.5333 142.892 81.904C143.265 81.264 143.777 80.7627 144.428 80.4C145.079 80.0267 145.799 79.84 146.588 79.84C147.473 79.84 148.268 80.1013 148.972 80.624C149.687 81.136 150.156 81.808 150.38 82.64H148.716C148.535 82.2133 148.241 81.8773 147.836 81.632C147.441 81.376 146.999 81.248 146.508 81.248C146.007 81.248 145.559 81.3707 145.164 81.616C144.769 81.8507 144.46 82.1813 144.236 82.608C144.012 83.024 143.9 83.488 143.9 84C143.9 84.512 144.012 84.9813 144.236 85.408C144.46 85.824 144.769 86.1547 145.164 86.4C145.559 86.6347 146.007 86.752 146.508 86.752C146.999 86.752 147.441 86.6293 147.836 86.384C148.241 86.128 148.535 85.7867 148.716 85.36H150.38C150.156 86.192 149.687 86.8693 148.972 87.392C148.268 87.904 147.473 88.16 146.588 88.16C145.799 88.16 145.079 87.9787 144.428 87.616C143.777 87.2427 143.265 86.7413 142.892 86.112C142.519 85.472 142.332 84.768 142.332 84ZM156.002 88.16C155.212 88.16 154.492 87.9787 153.842 87.616C153.191 87.2427 152.679 86.7413 152.306 86.112C151.932 85.472 151.746 84.768 151.746 84C151.746 83.232 151.932 82.5333 152.306 81.904C152.679 81.264 153.191 80.7627 153.842 80.4C154.492 80.0267 155.212 79.84 156.002 79.84C156.78 79.84 157.49 80.0267 158.13 80.4C158.78 80.7627 159.292 81.264 159.666 81.904C160.039 82.5333 160.226 83.232 160.226 84C160.226 84.768 160.039 85.472 159.666 86.112C159.292 86.7413 158.78 87.2427 158.13 87.616C157.49 87.9787 156.78 88.16 156.002 88.16ZM156.002 86.752C156.492 86.752 156.94 86.6347 157.346 86.4C157.751 86.1547 158.071 85.824 158.306 85.408C158.54 84.9813 158.658 84.512 158.658 84C158.658 83.488 158.54 83.024 158.306 82.608C158.071 82.1813 157.751 81.8507 157.346 81.616C156.94 81.3707 156.492 81.248 156.002 81.248C155.5 81.248 155.042 81.3707 154.626 81.616C154.22 81.8507 153.9 82.1813 153.666 82.608C153.431 83.024 153.314 83.488 153.314 84C153.314 84.512 153.431 84.9813 153.666 85.408C153.9 85.824 154.22 86.1547 154.626 86.4C155.042 86.6347 155.5 86.752 156.002 86.752ZM166.459 79.84C166.715 79.84 166.955 79.856 167.179 79.888V81.376C166.987 81.3333 166.683 81.312 166.267 81.312C165.798 81.312 165.382 81.4187 165.019 81.632C164.667 81.8453 164.39 82.1333 164.187 82.496C163.995 82.848 163.899 83.2373 163.899 83.664V88H162.379V80H163.819V81.232C164.118 80.8053 164.497 80.4693 164.955 80.224C165.425 79.968 165.926 79.84 166.459 79.84ZM171.997 79.84C172.819 79.84 173.533 80.016 174.141 80.368C174.76 80.72 175.235 81.2213 175.565 81.872C175.896 82.512 176.061 83.264 176.061 84.128C176.061 84.352 176.056 84.5173 176.045 84.624H169.485C169.592 85.2427 169.88 85.7547 170.349 86.16C170.829 86.5547 171.384 86.752 172.013 86.752C173.048 86.752 173.784 86.3733 174.221 85.616H175.789C175.533 86.3627 175.059 86.976 174.365 87.456C173.672 87.9253 172.888 88.16 172.013 88.16C171.235 88.16 170.531 87.984 169.901 87.632C169.272 87.2693 168.781 86.7733 168.429 86.144C168.077 85.504 167.901 84.7893 167.901 84C167.901 83.2107 168.077 82.5013 168.429 81.872C168.781 81.232 169.267 80.736 169.885 80.384C170.515 80.0213 171.219 79.84 171.997 79.84ZM171.965 81.184C171.336 81.184 170.792 81.3813 170.333 81.776C169.885 82.1707 169.608 82.6773 169.501 83.296H174.413C174.349 82.656 174.088 82.144 173.629 81.76C173.181 81.376 172.627 81.184 171.965 81.184Z"
        fill="#F1EFED"
    />
    <path
        d="M66.78 48.206L71.33 44.8H73.28V63H70.68V48.206L66.78 51.092V48.206ZM86.023 63.26C84.463 63.26 83.0937 62.8787 81.915 62.116C80.7364 61.336 79.8264 60.244 79.185 58.84C78.5437 57.4187 78.223 55.772 78.223 53.9C78.223 52.028 78.5437 50.39 79.185 48.986C79.8264 47.5647 80.7364 46.4727 81.915 45.71C83.0937 44.93 84.463 44.54 86.023 44.54C87.583 44.54 88.9524 44.93 90.131 45.71C91.3097 46.4727 92.2197 47.5647 92.861 48.986C93.5024 50.39 93.823 52.028 93.823 53.9C93.823 55.772 93.5024 57.4187 92.861 58.84C92.2197 60.244 91.3097 61.336 90.131 62.116C88.9524 62.8787 87.583 63.26 86.023 63.26ZM86.023 60.842C87.635 60.842 88.9004 60.2267 89.819 58.996C90.755 57.7653 91.223 56.0667 91.223 53.9C91.223 51.7333 90.755 50.0347 89.819 48.804C88.9004 47.5733 87.635 46.958 86.023 46.958C84.411 46.958 83.137 47.5733 82.201 48.804C81.2824 50.0347 80.823 51.7333 80.823 53.9C80.823 56.0667 81.2824 57.7653 82.201 58.996C83.137 60.2267 84.411 60.842 86.023 60.842ZM105.528 63.26C103.968 63.26 102.599 62.8787 101.42 62.116C100.241 61.336 99.3315 60.244 98.6901 58.84C98.0488 57.4187 97.7281 55.772 97.7281 53.9C97.7281 52.028 98.0488 50.39 98.6901 48.986C99.3315 47.5647 100.241 46.4727 101.42 45.71C102.599 44.93 103.968 44.54 105.528 44.54C107.088 44.54 108.457 44.93 109.636 45.71C110.815 46.4727 111.725 47.5647 112.366 48.986C113.007 50.39 113.328 52.028 113.328 53.9C113.328 55.772 113.007 57.4187 112.366 58.84C111.725 60.244 110.815 61.336 109.636 62.116C108.457 62.8787 107.088 63.26 105.528 63.26ZM105.528 60.842C107.14 60.842 108.405 60.2267 109.324 58.996C110.26 57.7653 110.728 56.0667 110.728 53.9C110.728 51.7333 110.26 50.0347 109.324 48.804C108.405 47.5733 107.14 46.958 105.528 46.958C103.916 46.958 102.642 47.5733 101.706 48.804C100.787 50.0347 100.328 51.7333 100.328 53.9C100.328 56.0667 100.787 57.7653 101.706 58.996C102.642 60.2267 103.916 60.842 105.528 60.842ZM121.003 53.12C120.189 53.12 119.452 52.938 118.793 52.574C118.152 52.1927 117.641 51.6727 117.259 51.014C116.895 50.3553 116.713 49.6187 116.713 48.804C116.713 47.9893 116.895 47.2613 117.259 46.62C117.641 45.9613 118.152 45.45 118.793 45.086C119.452 44.722 120.189 44.54 121.003 44.54C121.818 44.54 122.546 44.722 123.187 45.086C123.846 45.45 124.357 45.9613 124.721 46.62C125.103 47.2613 125.293 47.9893 125.293 48.804C125.293 49.6187 125.103 50.3553 124.721 51.014C124.357 51.6727 123.846 52.1927 123.187 52.574C122.546 52.938 121.818 53.12 121.003 53.12ZM120.145 63H117.753L131.481 44.8H133.873L120.145 63ZM121.003 51.17C121.645 51.17 122.173 50.9533 122.589 50.52C123.005 50.0693 123.213 49.4973 123.213 48.804C123.213 48.1453 123.005 47.5993 122.589 47.166C122.173 46.7153 121.645 46.49 121.003 46.49C120.362 46.49 119.833 46.7153 119.417 47.166C119.001 47.5993 118.793 48.1453 118.793 48.804C118.793 49.4973 119.001 50.0693 119.417 50.52C119.833 50.9533 120.362 51.17 121.003 51.17ZM130.623 63.26C129.809 63.26 129.072 63.078 128.413 62.714C127.772 62.3327 127.261 61.8127 126.879 61.154C126.515 60.4953 126.333 59.7587 126.333 58.944C126.333 58.1293 126.515 57.4013 126.879 56.76C127.261 56.1013 127.772 55.59 128.413 55.226C129.072 54.862 129.809 54.68 130.623 54.68C131.438 54.68 132.166 54.862 132.807 55.226C133.466 55.59 133.977 56.1013 134.341 56.76C134.723 57.4013 134.913 58.1293 134.913 58.944C134.913 59.7587 134.723 60.4953 134.341 61.154C133.977 61.8127 133.466 62.3327 132.807 62.714C132.166 63.078 131.438 63.26 130.623 63.26ZM130.623 61.31C131.265 61.31 131.793 61.0933 132.209 60.66C132.625 60.2093 132.833 59.6373 132.833 58.944C132.833 58.2853 132.625 57.7393 132.209 57.306C131.793 56.8553 131.265 56.63 130.623 56.63C129.982 56.63 129.453 56.8553 129.037 57.306C128.621 57.7393 128.413 58.2853 128.413 58.944C128.413 59.6373 128.621 60.2093 129.037 60.66C129.453 61.0933 129.982 61.31 130.623 61.31Z"
        fill="#F1EFED"
    />
    <path
        d="M64.49 114V121H63.16V119.95C62.8707 120.323 62.5207 120.617 62.11 120.832C61.6993 121.037 61.2607 121.14 60.794 121.14C60.178 121.14 59.618 120.986 59.114 120.678C58.61 120.361 58.2133 119.927 57.924 119.376C57.6347 118.825 57.49 118.2 57.49 117.5C57.49 116.8 57.6347 116.175 57.924 115.624C58.2133 115.073 58.61 114.644 59.114 114.336C59.618 114.019 60.178 113.86 60.794 113.86C61.2793 113.86 61.732 113.972 62.152 114.196C62.572 114.42 62.9313 114.733 63.23 115.134V114H64.49ZM61.018 119.908C61.4287 119.908 61.802 119.805 62.138 119.6C62.474 119.395 62.7353 119.11 62.922 118.746C63.1087 118.373 63.202 117.957 63.202 117.5C63.202 117.043 63.1087 116.632 62.922 116.268C62.7353 115.895 62.474 115.605 62.138 115.4C61.802 115.195 61.4287 115.092 61.018 115.092C60.6073 115.092 60.2387 115.195 59.912 115.4C59.5853 115.605 59.3287 115.895 59.142 116.268C58.9553 116.632 58.862 117.043 58.862 117.5C58.862 117.957 58.9553 118.373 59.142 118.746C59.3287 119.11 59.5853 119.395 59.912 119.6C60.2387 119.805 60.6073 119.908 61.018 119.908ZM66.2433 117.5C66.2433 116.828 66.4066 116.217 66.7333 115.666C67.0599 115.106 67.5079 114.667 68.0773 114.35C68.6466 114.023 69.2766 113.86 69.9673 113.86C70.7419 113.86 71.4373 114.089 72.0533 114.546C72.6786 114.994 73.0893 115.582 73.2853 116.31H71.8293C71.6706 115.937 71.4139 115.643 71.0593 115.428C70.7139 115.204 70.3266 115.092 69.8973 115.092C69.4586 115.092 69.0666 115.199 68.7213 115.414C68.3759 115.619 68.1053 115.909 67.9093 116.282C67.7133 116.646 67.6153 117.052 67.6153 117.5C67.6153 117.948 67.7133 118.359 67.9093 118.732C68.1053 119.096 68.3759 119.385 68.7213 119.6C69.0666 119.805 69.4586 119.908 69.8973 119.908C70.3266 119.908 70.7139 119.801 71.0593 119.586C71.4139 119.362 71.6706 119.063 71.8293 118.69H73.2853C73.0893 119.418 72.6786 120.011 72.0533 120.468C71.4373 120.916 70.7419 121.14 69.9673 121.14C69.2766 121.14 68.6466 120.981 68.0773 120.664C67.5079 120.337 67.0599 119.899 66.7333 119.348C66.4066 118.788 66.2433 118.172 66.2433 117.5ZM74.3403 117.5C74.3403 116.828 74.5036 116.217 74.8303 115.666C75.157 115.106 75.605 114.667 76.1743 114.35C76.7436 114.023 77.3736 113.86 78.0643 113.86C78.839 113.86 79.5343 114.089 80.1503 114.546C80.7756 114.994 81.1863 115.582 81.3823 116.31H79.9263C79.7676 115.937 79.511 115.643 79.1563 115.428C78.811 115.204 78.4236 115.092 77.9943 115.092C77.5556 115.092 77.1636 115.199 76.8183 115.414C76.473 115.619 76.2023 115.909 76.0063 116.282C75.8103 116.646 75.7123 117.052 75.7123 117.5C75.7123 117.948 75.8103 118.359 76.0063 118.732C76.2023 119.096 76.473 119.385 76.8183 119.6C77.1636 119.805 77.5556 119.908 77.9943 119.908C78.4236 119.908 78.811 119.801 79.1563 119.586C79.511 119.362 79.7676 119.063 79.9263 118.69H81.3823C81.1863 119.418 80.7756 120.011 80.1503 120.468C79.5343 120.916 78.839 121.14 78.0643 121.14C77.3736 121.14 76.7436 120.981 76.1743 120.664C75.605 120.337 75.157 119.899 74.8303 119.348C74.5036 118.788 74.3403 118.172 74.3403 117.5ZM86.1613 121.14C85.4707 121.14 84.8407 120.981 84.2713 120.664C83.702 120.337 83.254 119.899 82.9273 119.348C82.6007 118.788 82.4373 118.172 82.4373 117.5C82.4373 116.828 82.6007 116.217 82.9273 115.666C83.254 115.106 83.702 114.667 84.2713 114.35C84.8407 114.023 85.4707 113.86 86.1613 113.86C86.8427 113.86 87.4633 114.023 88.0233 114.35C88.5927 114.667 89.0407 115.106 89.3673 115.666C89.694 116.217 89.8573 116.828 89.8573 117.5C89.8573 118.172 89.694 118.788 89.3673 119.348C89.0407 119.899 88.5927 120.337 88.0233 120.664C87.4633 120.981 86.8427 121.14 86.1613 121.14ZM86.1613 119.908C86.5907 119.908 86.9827 119.805 87.3373 119.6C87.692 119.385 87.972 119.096 88.1773 118.732C88.3827 118.359 88.4853 117.948 88.4853 117.5C88.4853 117.052 88.3827 116.646 88.1773 116.282C87.972 115.909 87.692 115.619 87.3373 115.414C86.9827 115.199 86.5907 115.092 86.1613 115.092C85.7227 115.092 85.3213 115.199 84.9573 115.414C84.6027 115.619 84.3227 115.909 84.1173 116.282C83.912 116.646 83.8093 117.052 83.8093 117.5C83.8093 117.948 83.912 118.359 84.1173 118.732C84.3227 119.096 84.6027 119.385 84.9573 119.6C85.3213 119.805 85.7227 119.908 86.1613 119.908ZM95.1719 113.86C95.3959 113.86 95.6059 113.874 95.8019 113.902V115.204C95.6339 115.167 95.3679 115.148 95.0039 115.148C94.5932 115.148 94.2292 115.241 93.9119 115.428C93.6039 115.615 93.3612 115.867 93.1839 116.184C93.0159 116.492 92.9319 116.833 92.9319 117.206V121H91.6019V114H92.8619V115.078C93.1232 114.705 93.4545 114.411 93.8559 114.196C94.2665 113.972 94.7052 113.86 95.1719 113.86ZM103.294 111.13V121H101.964V119.95C101.674 120.323 101.324 120.617 100.914 120.832C100.503 121.037 100.064 121.14 99.5975 121.14C98.9815 121.14 98.4215 120.986 97.9175 120.678C97.4135 120.361 97.0168 119.927 96.7275 119.376C96.4382 118.825 96.2935 118.2 96.2935 117.5C96.2935 116.8 96.4382 116.175 96.7275 115.624C97.0168 115.073 97.4135 114.644 97.9175 114.336C98.4215 114.019 98.9815 113.86 99.5975 113.86C100.083 113.86 100.536 113.972 100.956 114.196C101.376 114.42 101.735 114.733 102.034 115.134V111.13H103.294ZM99.8215 119.908C100.232 119.908 100.606 119.805 100.942 119.6C101.278 119.395 101.539 119.11 101.726 118.746C101.912 118.373 102.006 117.957 102.006 117.5C102.006 117.043 101.912 116.632 101.726 116.268C101.539 115.895 101.278 115.605 100.942 115.4C100.606 115.195 100.232 115.092 99.8215 115.092C99.4108 115.092 99.0422 115.195 98.7155 115.4C98.3888 115.605 98.1322 115.895 97.9455 116.268C97.7588 116.632 97.6655 117.043 97.6655 117.5C97.6655 117.957 97.7588 118.373 97.9455 118.746C98.1322 119.11 98.3888 119.395 98.7155 119.6C99.0422 119.805 99.4108 119.908 99.8215 119.908ZM107.007 114V121H105.677V114H107.007ZM107.091 111.2V112.74H105.607V111.2H107.091ZM112.955 113.86C113.524 113.86 114.033 113.981 114.481 114.224C114.938 114.467 115.298 114.835 115.559 115.33C115.83 115.815 115.965 116.413 115.965 117.122V121H114.635V117.15C114.635 116.534 114.453 116.044 114.089 115.68C113.725 115.316 113.268 115.134 112.717 115.134C112.316 115.134 111.961 115.232 111.653 115.428C111.354 115.615 111.121 115.871 110.953 116.198C110.794 116.525 110.715 116.879 110.715 117.262V121H109.385V114H110.645V115.12C110.906 114.737 111.238 114.434 111.639 114.21C112.05 113.977 112.488 113.86 112.955 113.86ZM124.577 117.192C124.577 117.789 124.437 118.331 124.157 118.816C123.877 119.301 123.457 119.679 122.897 119.95C123.345 120.081 123.671 120.277 123.877 120.538C124.091 120.799 124.199 121.107 124.199 121.462C124.199 122.022 123.993 122.479 123.583 122.834C123.181 123.198 122.659 123.38 122.015 123.38H120.153C119.518 123.38 118.995 123.207 118.585 122.862C118.174 122.517 117.969 122.073 117.969 121.532C117.969 120.785 118.398 120.263 119.257 119.964C118.725 119.731 118.309 119.357 118.011 118.844C117.721 118.331 117.577 117.78 117.577 117.192C117.577 116.585 117.726 116.035 118.025 115.54C118.333 115.036 118.753 114.639 119.285 114.35C119.817 114.061 120.4 113.916 121.035 113.916C121.931 113.916 122.691 114.261 123.317 114.952V113.986H124.577V117.192ZM121.077 119.432C121.497 119.432 121.875 119.334 122.211 119.138C122.547 118.942 122.808 118.676 122.995 118.34C123.191 118.004 123.289 117.626 123.289 117.206C123.289 116.795 123.191 116.427 122.995 116.1C122.808 115.773 122.547 115.517 122.211 115.33C121.875 115.143 121.497 115.05 121.077 115.05C120.451 115.05 119.933 115.255 119.523 115.666C119.121 116.067 118.921 116.581 118.921 117.206C118.921 117.841 119.121 118.368 119.523 118.788C119.933 119.208 120.451 119.423 121.077 119.432ZM121.903 122.316C122.201 122.316 122.449 122.237 122.645 122.078C122.85 121.919 122.953 121.723 122.953 121.49C122.953 121.238 122.855 121.028 122.659 120.86C122.463 120.692 122.211 120.608 121.903 120.608H120.251C119.943 120.608 119.691 120.692 119.495 120.86C119.299 121.028 119.201 121.238 119.201 121.49C119.201 121.723 119.299 121.919 119.495 122.078C119.7 122.237 119.952 122.316 120.251 122.316H121.903ZM132.487 115.26V118.956C132.487 119.255 132.557 119.483 132.697 119.642C132.846 119.801 133.098 119.88 133.453 119.88C133.789 119.88 134.073 119.852 134.307 119.796V121.014C134.055 121.098 133.747 121.14 133.383 121.14C131.899 121.14 131.157 120.412 131.157 118.956V115.26H129.757V114H131.157V112.18H132.487V114H134.447V115.26H132.487ZM139.084 121.14C138.393 121.14 137.763 120.981 137.194 120.664C136.625 120.337 136.177 119.899 135.85 119.348C135.523 118.788 135.36 118.172 135.36 117.5C135.36 116.828 135.523 116.217 135.85 115.666C136.177 115.106 136.625 114.667 137.194 114.35C137.763 114.023 138.393 113.86 139.084 113.86C139.765 113.86 140.386 114.023 140.946 114.35C141.515 114.667 141.963 115.106 142.29 115.666C142.617 116.217 142.78 116.828 142.78 117.5C142.78 118.172 142.617 118.788 142.29 119.348C141.963 119.899 141.515 120.337 140.946 120.664C140.386 120.981 139.765 121.14 139.084 121.14ZM139.084 119.908C139.513 119.908 139.905 119.805 140.26 119.6C140.615 119.385 140.895 119.096 141.1 118.732C141.305 118.359 141.408 117.948 141.408 117.5C141.408 117.052 141.305 116.646 141.1 116.282C140.895 115.909 140.615 115.619 140.26 115.414C139.905 115.199 139.513 115.092 139.084 115.092C138.645 115.092 138.244 115.199 137.88 115.414C137.525 115.619 137.245 115.909 137.04 116.282C136.835 116.646 136.732 117.052 136.732 117.5C136.732 117.948 136.835 118.359 137.04 118.732C137.245 119.096 137.525 119.385 137.88 119.6C138.244 119.805 138.645 119.908 139.084 119.908Z"
        fill="#8F8E93"
    />
    <path opacity="0.5" d="M38 126L163 126" stroke="#8F8E93" stroke-width="0.5" />
    <path
        d="M152.974 147.061C154.438 146.217 155.654 145.005 156.503 143.546C157.351 142.088 157.803 140.433 157.813 138.747H153.645C153.66 140.206 153.098 141.612 152.079 142.66C151.06 143.707 149.668 144.311 148.205 144.339H147.614L147.545 130H143.387L143.515 156.909H147.673V148.369H148.146C148.364 148.351 148.581 148.398 148.772 148.503C148.963 148.607 149.119 148.766 149.22 148.958L155.132 156.87H160L152.974 147.061ZM139.18 142.865C138.533 142.875 137.894 143.012 137.3 143.269C136.706 143.525 136.169 143.896 135.719 144.36C135.269 144.823 134.914 145.371 134.676 145.971C134.438 146.571 134.321 147.212 134.332 147.857V152.428V156.988H130.164V147.916V138.855H134.322V141.695C134.917 140.828 135.711 140.115 136.638 139.616C137.566 139.117 138.599 138.846 139.653 138.826H140.845V142.855L139.18 142.865ZM118.083 153.676C116.607 153.681 115.19 153.101 114.142 152.064C113.094 151.021 112.5 149.609 112.487 148.133C112.483 147.403 112.623 146.681 112.901 146.006C113.178 145.331 113.586 144.718 114.103 144.201C115.148 143.156 116.564 142.563 118.044 142.55C119.52 142.545 120.938 143.125 121.985 144.162C123.033 145.205 123.628 146.617 123.641 148.093C123.637 148.826 123.488 149.55 123.202 150.225C122.916 150.9 122.499 151.511 121.976 152.025C121.462 152.551 120.85 152.971 120.174 153.261C119.497 153.551 118.77 153.706 118.034 153.715L118.083 153.676ZM118.005 138.383C116.755 138.391 115.519 138.646 114.369 139.133C113.219 139.621 112.177 140.331 111.304 141.224C109.517 143.04 108.525 145.489 108.545 148.034C108.546 149.295 108.797 150.542 109.282 151.706C109.767 152.87 110.478 153.926 111.373 154.816C112.255 155.7 113.303 156.4 114.459 156.876C115.614 157.352 116.853 157.594 118.103 157.587C119.354 157.575 120.59 157.314 121.739 156.82C122.888 156.325 123.926 155.607 124.794 154.708C126.572 152.897 127.563 150.461 127.553 147.926C127.544 145.379 126.528 142.939 124.725 141.135C123.842 140.253 122.793 139.555 121.638 139.081C120.482 138.607 119.244 138.366 117.995 138.373L118.005 138.383ZM97.6868 139.071L100.84 151.504L104.111 139.042H108.269L103.116 157.145H99.0762L95.8048 144.477L92.6616 157.174H88.6118L83.1826 139.081H87.2225L90.8485 151.514L93.8046 139.052L97.6868 139.071ZM73.6346 152.939C71.6552 152.881 69.7587 152.133 68.2743 150.826L68.7473 148.929V148.821C69.0921 146.855 70.1465 143.366 73.674 143.346C74.9287 143.336 76.1371 143.819 77.0372 144.691C77.9373 145.563 78.4566 146.754 78.4825 148.005C78.4487 149.284 77.9294 150.503 77.0296 151.415C76.1298 152.327 74.9164 152.865 73.6346 152.919V152.939ZM73.5656 138.6C69.0527 138.6 65.6237 141.597 64.3329 146.344C62.2768 143.145 60.6628 139.684 59.5343 136.054H54.785L54.8441 148.624C54.8467 149.215 54.7325 149.801 54.5081 150.348C54.2837 150.895 53.9534 151.393 53.5362 151.813C53.119 152.233 52.6229 152.566 52.0764 152.795C51.5299 153.023 50.9435 153.142 50.3509 153.145C49.1531 153.15 48.0021 152.681 47.1505 151.841C46.2989 151.001 45.8163 149.858 45.8085 148.663L45.7494 136.103H41L41.0591 148.663C41.0526 149.886 41.2888 151.098 41.754 152.23C42.2193 153.361 42.9045 154.389 43.7701 155.255C44.6356 156.122 45.6645 156.808 46.7973 157.276C47.9302 157.744 49.1445 157.983 50.3706 157.98C51.5963 157.97 52.8079 157.718 53.9358 157.239C55.0636 156.761 56.0854 156.064 56.9425 155.19C57.7996 154.316 58.475 153.282 58.9299 152.146C59.3849 151.011 59.6104 149.797 59.5934 148.575V146.442C60.5898 148.425 61.7499 150.322 63.0618 152.113L60.1058 166H65.0325L67.1214 155.916C69.0767 157.154 71.3485 157.802 73.6641 157.784C74.9295 157.768 76.1793 157.503 77.3413 157.003C78.5032 156.503 79.5544 155.779 80.434 154.871C81.3135 153.964 82.0041 152.892 82.4657 151.716C82.9273 150.541 83.1509 149.286 83.1235 148.025C83.1052 145.513 82.0906 143.11 80.3014 141.342C78.5122 139.574 76.094 138.584 73.5755 138.59L73.5656 138.6Z"
        fill="#8F8E93"
    />
</svg>
