<svg xmlns="http://www.w3.org/2000/svg" width="505" height="338" viewBox="0 0 505 338" fill="none">
    <g clip-path="url(#clip0_26749_40435)">
        <path
            d="M344.654 277.242L330.554 282.351C330.543 282.358 330.531 282.362 330.519 282.362C330.506 282.362 330.494 282.358 330.484 282.351C330.474 282.341 330.469 282.329 330.469 282.316C330.469 282.303 330.474 282.29 330.484 282.281L344.654 277.242Z"
            fill="black"
        />
        <path
            d="M316.44 287.445L302.31 292.444C302.289 292.454 302.266 292.458 302.243 292.458C302.22 292.458 302.198 292.454 302.177 292.444C302.156 292.435 302.138 292.421 302.122 292.404C302.107 292.386 302.096 292.366 302.09 292.344C302.082 292.323 302.078 292.301 302.079 292.278C302.079 292.256 302.085 292.234 302.094 292.213C302.103 292.193 302.116 292.174 302.133 292.159C302.149 292.144 302.169 292.132 302.19 292.124L316.36 287.186C316.374 287.181 316.388 287.179 316.403 287.18C316.417 287.181 316.431 287.185 316.444 287.191C316.457 287.198 316.469 287.207 316.479 287.218C316.488 287.229 316.495 287.242 316.5 287.256C316.512 287.271 316.52 287.289 316.524 287.308C316.528 287.328 316.526 287.348 316.52 287.366C316.514 287.385 316.504 287.402 316.49 287.416C316.476 287.43 316.459 287.44 316.44 287.445Z"
            fill="black"
        />
        <path
            d="M288.147 297.442L273.947 302.291C273.874 302.313 273.795 302.307 273.726 302.274C273.657 302.24 273.604 302.182 273.577 302.111C273.554 302.038 273.56 301.959 273.593 301.89C273.627 301.821 273.685 301.768 273.757 301.741L287.987 297.012C288.044 296.993 288.106 296.997 288.16 297.023C288.214 297.049 288.256 297.095 288.277 297.152C288.296 297.208 288.294 297.269 288.27 297.323C288.246 297.377 288.201 297.42 288.147 297.442Z"
            fill="black"
        />
        <path
            d="M259.704 306.98L245.394 311.498C245.343 311.514 245.29 311.519 245.237 311.514C245.185 311.508 245.134 311.493 245.087 311.467C245.041 311.442 245 311.408 244.967 311.367C244.933 311.326 244.909 311.279 244.894 311.228C244.862 311.128 244.872 311.018 244.921 310.925C244.969 310.831 245.053 310.761 245.154 310.728L259.484 306.33C259.571 306.301 259.666 306.308 259.749 306.349C259.831 306.391 259.894 306.463 259.924 306.55C259.949 306.636 259.941 306.729 259.9 306.809C259.859 306.889 259.789 306.95 259.704 306.98Z"
            fill="black"
        />
        <path
            d="M231.021 315.791L223.801 317.79C221.391 318.48 218.981 319.13 216.561 319.79C216.431 319.823 216.293 319.804 216.177 319.737C216.061 319.67 215.976 319.559 215.941 319.43C215.923 319.365 215.918 319.297 215.926 319.23C215.935 319.163 215.956 319.098 215.99 319.04C216.023 318.981 216.068 318.93 216.121 318.889C216.175 318.848 216.236 318.817 216.301 318.8C221.131 317.53 225.941 316.181 230.761 314.861C230.819 314.845 230.879 314.84 230.939 314.847C230.999 314.854 231.057 314.873 231.109 314.903C231.161 314.933 231.207 314.973 231.243 315.021C231.28 315.068 231.306 315.123 231.321 315.181C231.346 315.241 231.358 315.305 231.356 315.369C231.354 315.433 231.339 315.497 231.31 315.554C231.282 315.612 231.241 315.663 231.191 315.704C231.142 315.745 231.083 315.775 231.021 315.791Z"
            fill="black"
        />
        <path
            d="M202.018 323.569L187.378 326.898C187.23 326.931 187.074 326.905 186.945 326.825C186.816 326.744 186.724 326.616 186.688 326.469C186.671 326.395 186.668 326.319 186.68 326.244C186.692 326.169 186.719 326.098 186.759 326.034C186.799 325.969 186.851 325.914 186.913 325.87C186.975 325.826 187.044 325.795 187.118 325.779L201.748 322.53C201.818 322.513 201.89 322.511 201.961 322.523C202.031 322.535 202.098 322.561 202.159 322.599C202.219 322.637 202.272 322.687 202.313 322.745C202.354 322.804 202.383 322.87 202.398 322.94C202.426 323.073 202.403 323.212 202.332 323.329C202.262 323.446 202.149 323.532 202.018 323.569Z"
            fill="black"
        />
        <path
            d="M172.606 329.699L157.736 331.789C157.653 331.801 157.568 331.797 157.486 331.777C157.404 331.757 157.327 331.721 157.259 331.671C157.191 331.62 157.134 331.557 157.091 331.485C157.047 331.412 157.019 331.332 157.006 331.249C156.984 331.082 157.027 330.912 157.128 330.778C157.23 330.643 157.38 330.553 157.546 330.529L172.376 328.469C172.455 328.456 172.536 328.459 172.614 328.478C172.691 328.497 172.764 328.531 172.829 328.578C172.893 328.626 172.947 328.686 172.988 328.755C173.029 328.823 173.055 328.899 173.066 328.979C173.097 329.135 173.066 329.297 172.98 329.431C172.895 329.565 172.761 329.66 172.606 329.699Z"
            fill="black"
        />
        <path
            d="M142.756 333.165L135.236 333.435L131.476 333.565H127.726C127.633 333.566 127.541 333.549 127.455 333.514C127.369 333.48 127.291 333.428 127.225 333.363C127.159 333.298 127.106 333.221 127.07 333.135C127.035 333.049 127.016 332.958 127.016 332.865C127.016 332.678 127.09 332.499 127.221 332.366C127.352 332.233 127.53 332.157 127.716 332.155H131.496L135.236 332.035L142.706 331.805C142.884 331.802 143.056 331.868 143.187 331.989C143.317 332.11 143.396 332.277 143.406 332.455C143.412 332.544 143.399 332.634 143.369 332.719C143.339 332.803 143.292 332.881 143.232 332.947C143.171 333.014 143.098 333.067 143.016 333.104C142.934 333.142 142.846 333.162 142.756 333.165Z"
            fill="black"
        />
        <path
            d="M112.677 333.032C107.636 332.614 102.65 331.687 97.7967 330.263C97.694 330.236 97.5981 330.188 97.5154 330.122C97.4327 330.055 97.365 329.972 97.3167 329.878C97.2685 329.783 97.2409 329.679 97.2358 329.574C97.2306 329.468 97.248 329.362 97.2867 329.263C97.3143 329.166 97.3608 329.076 97.4237 328.997C97.4865 328.918 97.5644 328.853 97.6528 328.804C97.7412 328.756 97.8384 328.726 97.9386 328.715C98.0389 328.705 98.1402 328.714 98.2367 328.743C102.985 330.15 107.863 331.074 112.797 331.502C112.991 331.52 113.171 331.614 113.297 331.764C113.422 331.914 113.483 332.107 113.467 332.302C113.464 332.402 113.442 332.501 113.4 332.592C113.359 332.684 113.3 332.766 113.226 332.834C113.152 332.902 113.066 332.954 112.971 332.988C112.877 333.023 112.777 333.037 112.677 333.032Z"
            fill="black"
        />
        <path
            d="M84.1536 323.587L81.1536 321.148C80.2236 320.298 79.3136 319.408 78.4336 318.488C76.6697 316.656 75.0546 314.687 73.6036 312.599C73.5408 312.509 73.4963 312.408 73.4729 312.301C73.4494 312.194 73.4474 312.083 73.4669 311.975C73.4864 311.867 73.5271 311.764 73.5866 311.672C73.6461 311.58 73.7233 311.501 73.8136 311.439C73.9034 311.376 74.0048 311.332 74.1118 311.308C74.2189 311.285 74.3295 311.283 74.4373 311.302C74.5452 311.322 74.6481 311.363 74.7401 311.422C74.8322 311.482 74.9115 311.559 74.9736 311.649C76.3712 313.672 77.9225 315.584 79.6136 317.368C80.4636 318.258 81.3436 319.118 82.2536 319.958L85.0736 322.307L85.1336 322.357C85.2155 322.423 85.2832 322.505 85.3328 322.597C85.3823 322.69 85.4127 322.791 85.422 322.896C85.4313 323.001 85.4195 323.106 85.3871 323.206C85.3547 323.306 85.3025 323.398 85.2336 323.477C85.1017 323.63 84.9163 323.727 84.7155 323.747C84.5146 323.768 84.3136 323.71 84.1536 323.587Z"
            fill="black"
        />
        <path
            d="M67.4993 298.644C66.4627 293.604 66.5755 288.396 67.8293 283.406C67.8817 283.191 68.0149 283.005 68.2011 282.886C68.3873 282.767 68.6123 282.724 68.8293 282.766C69.0409 282.823 69.2234 282.957 69.3402 283.142C69.4569 283.328 69.4995 283.55 69.4593 283.766C68.2606 288.509 68.1478 293.461 69.1293 298.254C69.1709 298.473 69.1253 298.701 69.0021 298.887C68.8789 299.074 68.6877 299.205 68.4693 299.253C68.2611 299.287 68.0481 299.243 67.8697 299.131C67.6913 299.019 67.5596 298.845 67.4993 298.644Z"
            fill="black"
        />
        <path
            d="M73.7261 269.391C76.2481 265.021 79.0891 260.844 82.2261 256.893C82.2966 256.8 82.3848 256.723 82.4855 256.665C82.5862 256.607 82.6974 256.569 82.8127 256.554C82.928 256.539 83.0451 256.547 83.1572 256.578C83.2694 256.609 83.3743 256.661 83.4661 256.733C83.6488 256.878 83.767 257.09 83.7951 257.322C83.8232 257.554 83.7589 257.787 83.616 257.972C80.5298 261.857 77.7292 265.961 75.236 270.251C75.179 270.35 75.103 270.437 75.0123 270.507C74.9216 270.577 74.818 270.628 74.7075 270.658C74.5969 270.687 74.4816 270.695 74.3681 270.68C74.2546 270.665 74.1451 270.628 74.046 270.571C73.9471 270.515 73.8603 270.439 73.7905 270.35C73.7208 270.26 73.6696 270.157 73.6399 270.047C73.6101 269.938 73.6024 269.823 73.6172 269.71C73.632 269.598 73.669 269.489 73.7261 269.391Z"
            fill="black"
        />
        <path
            d="M91.9547 245.398L94.4647 242.608C95.2847 241.668 96.1947 240.788 97.0447 239.868L102.255 234.419C102.425 234.251 102.655 234.156 102.895 234.156C103.134 234.156 103.364 234.251 103.535 234.419C103.703 234.59 103.798 234.82 103.798 235.059C103.798 235.299 103.703 235.529 103.535 235.699L98.3747 241.088C97.5247 241.998 96.6347 242.858 95.8047 243.798L93.2947 246.587C93.2167 246.675 93.1222 246.746 93.0166 246.797C92.911 246.848 92.7963 246.878 92.6792 246.884C92.5621 246.891 92.4449 246.874 92.3343 246.835C92.2237 246.796 92.1219 246.736 92.0347 246.657C91.8587 246.5 91.7516 246.28 91.7367 246.044C91.7217 245.808 91.8 245.576 91.9547 245.398Z"
            fill="black"
        />
        <path
            d="M113.422 224.294C117.295 221.081 121.295 218.031 125.422 215.145C125.623 215.004 125.871 214.949 126.112 214.99C126.354 215.031 126.569 215.166 126.712 215.365C126.852 215.567 126.906 215.816 126.863 216.057C126.82 216.299 126.683 216.514 126.482 216.655C122.402 219.501 118.445 222.501 114.612 225.653C114.426 225.807 114.187 225.881 113.947 225.858C113.707 225.836 113.486 225.719 113.332 225.534C113.189 225.353 113.119 225.126 113.136 224.896C113.152 224.667 113.254 224.452 113.422 224.294Z"
            fill="black"
        />
        <path
            d="M138.068 206.991C142.394 204.438 146.814 202.052 151.328 199.832C151.555 199.734 151.811 199.723 152.045 199.803C152.28 199.882 152.477 200.046 152.598 200.262C152.696 200.489 152.706 200.745 152.627 200.98C152.548 201.214 152.384 201.411 152.168 201.532C147.694 203.732 143.311 206.088 139.018 208.601C138.804 208.725 138.549 208.761 138.31 208.699C138.07 208.637 137.865 208.483 137.738 208.271C137.613 208.057 137.578 207.803 137.64 207.563C137.701 207.324 137.855 207.118 138.068 206.991Z"
            fill="black"
        />
        <path
            d="M165 193.538L178.94 187.889C179.179 187.801 179.443 187.809 179.677 187.909C179.911 188.009 180.098 188.195 180.2 188.429C180.288 188.667 180.282 188.929 180.184 189.163C180.086 189.397 179.902 189.585 179.67 189.689L165.8 195.288C165.563 195.391 165.296 195.399 165.053 195.309C164.811 195.22 164.613 195.04 164.5 194.808C164.407 194.572 164.407 194.31 164.5 194.074C164.592 193.839 164.771 193.647 165 193.538Z"
            fill="black"
        />
        <path
            d="M193.113 182.81L207.463 178.332C207.714 178.256 207.984 178.282 208.216 178.403C208.447 178.525 208.622 178.732 208.703 178.981C208.778 179.232 208.753 179.502 208.631 179.734C208.51 179.966 208.302 180.14 208.053 180.221L193.763 184.66C193.516 184.73 193.252 184.702 193.025 184.583C192.798 184.464 192.625 184.263 192.543 184.02C192.472 183.783 192.491 183.529 192.596 183.306C192.701 183.082 192.885 182.906 193.113 182.81Z"
            fill="black"
        />
        <path
            d="M221.962 174.386L236.562 170.847C236.818 170.787 237.088 170.829 237.312 170.966C237.537 171.103 237.698 171.322 237.762 171.577C237.823 171.833 237.78 172.102 237.644 172.326C237.507 172.551 237.287 172.713 237.032 172.777L222.502 176.316C222.374 176.347 222.241 176.352 222.111 176.332C221.981 176.312 221.856 176.266 221.743 176.197C221.631 176.128 221.533 176.038 221.456 175.931C221.378 175.825 221.323 175.704 221.292 175.576C221.232 175.319 221.276 175.048 221.415 174.823C221.554 174.599 221.776 174.438 222.032 174.376L221.962 174.386Z"
            fill="black"
        />
        <path
            d="M251.25 167.685L265.99 164.826C266.241 164.784 266.499 164.839 266.711 164.98C266.922 165.122 267.072 165.338 267.13 165.586C267.172 165.839 267.115 166.097 266.972 166.309C266.829 166.521 266.61 166.67 266.36 166.726L251.65 169.605C251.392 169.649 251.127 169.59 250.912 169.44C250.696 169.29 250.549 169.062 250.5 168.805C250.455 168.551 250.51 168.29 250.654 168.076C250.797 167.861 251.018 167.711 251.27 167.655L251.25 167.685Z"
            fill="black"
        />
        <path
            d="M280.768 162.187L295.568 159.717C295.69 159.696 295.815 159.699 295.937 159.726C296.058 159.753 296.172 159.804 296.273 159.875C296.375 159.947 296.461 160.038 296.527 160.143C296.593 160.248 296.637 160.365 296.658 160.487C296.68 160.609 296.677 160.734 296.65 160.855C296.622 160.977 296.572 161.091 296.5 161.192C296.428 161.294 296.338 161.38 296.233 161.446C296.127 161.512 296.01 161.556 295.888 161.577L281.108 164.076C280.859 164.106 280.608 164.042 280.404 163.896C280.2 163.749 280.059 163.532 280.008 163.286C279.977 163.039 280.04 162.789 280.185 162.585C280.329 162.382 280.544 162.24 280.788 162.187H280.768Z"
            fill="black"
        />
        <path
            d="M310.382 157.331L325.202 154.972C325.445 154.934 325.692 154.994 325.891 155.138C326.09 155.283 326.223 155.499 326.262 155.742C326.3 155.984 326.242 156.231 326.1 156.431C325.958 156.631 325.744 156.767 325.502 156.811L310.692 159.191C310.447 159.228 310.197 159.167 309.997 159.021C309.796 158.875 309.662 158.656 309.622 158.411C309.602 158.29 309.606 158.166 309.634 158.047C309.662 157.928 309.713 157.815 309.785 157.716C309.857 157.617 309.947 157.532 310.051 157.468C310.155 157.404 310.271 157.361 310.392 157.341L310.382 157.331Z"
            fill="black"
        />
        <path
            d="M339.998 152.612C344.9 151.793 349.757 150.719 354.548 149.393C354.778 149.328 355.026 149.357 355.235 149.473C355.445 149.589 355.6 149.783 355.668 150.013C355.732 150.243 355.704 150.488 355.587 150.696C355.471 150.904 355.277 151.058 355.048 151.123C350.196 152.48 345.276 153.578 340.308 154.412C340.069 154.453 339.824 154.398 339.626 154.26C339.427 154.121 339.292 153.91 339.248 153.672C339.207 153.432 339.263 153.186 339.404 152.987C339.544 152.789 339.758 152.654 339.998 152.612Z"
            fill="black"
        />
        <path
            d="M368.312 143.986C372.677 141.701 376.691 138.802 380.232 135.377C380.312 135.295 380.409 135.229 380.515 135.185C380.622 135.14 380.736 135.117 380.852 135.117C380.967 135.117 381.081 135.14 381.188 135.185C381.294 135.229 381.391 135.295 381.472 135.377C381.554 135.459 381.62 135.556 381.664 135.663C381.709 135.77 381.732 135.886 381.732 136.002C381.732 136.118 381.709 136.233 381.664 136.34C381.62 136.447 381.554 136.545 381.472 136.627C377.813 140.17 373.668 143.173 369.162 145.545C369.058 145.601 368.944 145.636 368.827 145.647C368.71 145.659 368.592 145.647 368.479 145.613C368.367 145.578 368.262 145.522 368.172 145.447C368.081 145.372 368.006 145.28 367.952 145.175C367.844 144.965 367.823 144.721 367.892 144.496C367.961 144.27 368.115 144.08 368.322 143.966L368.312 143.986Z"
            fill="black"
        />
        <path
            d="M389.605 123.919C392.424 119.848 394.883 115.539 396.955 111.041C396.999 110.937 397.064 110.844 397.145 110.765C397.227 110.687 397.323 110.626 397.429 110.586C397.534 110.546 397.647 110.528 397.759 110.532C397.872 110.536 397.983 110.563 398.085 110.611C398.189 110.655 398.282 110.72 398.361 110.802C398.439 110.883 398.5 110.979 398.54 111.085C398.58 111.19 398.598 111.303 398.594 111.415C398.59 111.528 398.563 111.639 398.515 111.741C396.418 116.342 393.918 120.748 391.045 124.909C390.913 125.098 390.713 125.228 390.487 125.271C390.261 125.314 390.027 125.267 389.835 125.139C389.74 125.075 389.659 124.992 389.596 124.897C389.534 124.801 389.49 124.694 389.469 124.582C389.448 124.469 389.449 124.354 389.472 124.242C389.495 124.13 389.54 124.024 389.605 123.929V123.919Z"
            fill="black"
        />
        <path
            d="M401.295 96.9728C402.124 92.1563 401.781 87.2109 400.295 82.555C400.224 82.3481 400.238 82.1218 400.334 81.9252C400.429 81.7287 400.599 81.5777 400.805 81.5051C401.012 81.4348 401.238 81.4489 401.434 81.5443C401.631 81.6398 401.782 81.8089 401.855 82.015C403.45 86.9231 403.834 92.1441 402.975 97.2328C402.958 97.346 402.918 97.4548 402.858 97.5524C402.798 97.65 402.719 97.7345 402.626 97.8008C402.533 97.8671 402.427 97.9138 402.315 97.9382C402.203 97.9626 402.087 97.9641 401.975 97.9426C401.86 97.927 401.751 97.8883 401.652 97.829C401.553 97.7696 401.467 97.6907 401.4 97.5972C401.333 97.5037 401.285 97.3974 401.26 97.2849C401.235 97.1724 401.233 97.056 401.255 96.9428L401.295 96.9728Z"
            fill="black"
        />
        <path
            d="M391.921 70.8268C388.074 67.7192 383.879 65.0685 379.421 62.928C379.246 62.8379 379.112 62.6833 379.049 62.4967C378.985 62.3102 378.997 62.1063 379.081 61.9281C379.171 61.7529 379.326 61.6195 379.512 61.5561C379.699 61.4926 379.903 61.5042 380.081 61.5882C384.66 63.7618 388.969 66.4631 392.921 69.637C393.001 69.7026 393.068 69.7837 393.116 69.8754C393.165 69.967 393.195 70.0675 393.204 70.1709C393.213 70.2742 393.202 70.3784 393.171 70.4773C393.139 70.5762 393.088 70.6678 393.021 70.7468C392.955 70.8282 392.874 70.8957 392.781 70.9454C392.689 70.995 392.588 71.0259 392.484 71.0361C392.38 71.0464 392.274 71.0358 392.174 71.005C392.074 70.9742 391.981 70.9238 391.901 70.8568L391.921 70.8268Z"
            fill="black"
        />
        <path
            d="M365.778 56.8723C361.158 55.0128 356.472 53.33 351.718 51.8238C351.542 51.7665 351.396 51.6418 351.312 51.4769C351.227 51.312 351.212 51.1204 351.268 50.9441C351.296 50.8572 351.34 50.7766 351.399 50.7069C351.457 50.6373 351.529 50.5799 351.61 50.538C351.691 50.4962 351.779 50.4708 351.87 50.4633C351.96 50.4558 352.052 50.4663 352.138 50.4942C356.932 51.9871 361.662 53.6533 366.328 55.4927C366.507 55.5659 366.65 55.7069 366.725 55.8849C366.8 56.0629 366.801 56.2634 366.728 56.4424C366.694 56.5314 366.643 56.6128 366.577 56.6817C366.511 56.7507 366.432 56.8058 366.344 56.844C366.257 56.8821 366.163 56.9025 366.067 56.9039C365.972 56.9053 365.877 56.8878 365.788 56.8523L365.778 56.8723Z"
            fill="black"
        />
        <path
            d="M337.299 47.8992C332.449 46.7895 327.539 45.8998 322.609 45.21C322.527 45.1989 322.448 45.1717 322.376 45.1301C322.304 45.0884 322.242 45.033 322.192 44.9671C322.141 44.9011 322.105 44.826 322.084 44.7458C322.063 44.6657 322.058 44.5822 322.069 44.5002C322.079 44.4175 322.105 44.3377 322.146 44.2655C322.188 44.1932 322.243 44.13 322.309 44.0796C322.375 44.0292 322.451 43.9927 322.532 43.9722C322.613 43.9517 322.697 43.9477 322.779 43.9603C327.779 44.6101 332.699 45.4999 337.599 46.5995C337.771 46.64 337.92 46.7467 338.013 46.8965C338.107 47.0463 338.138 47.227 338.099 47.3993C338.08 47.4841 338.044 47.5642 337.994 47.6353C337.945 47.7063 337.881 47.7667 337.808 47.8132C337.734 47.8596 337.652 47.8911 337.567 47.9059C337.481 47.9206 337.394 47.9183 337.309 47.8992H337.299Z"
            fill="black"
        />
        <path
            d="M307.728 43.8986C302.728 43.6886 297.728 43.7086 292.778 43.8986C292.629 43.9041 292.483 43.8505 292.373 43.7494C292.262 43.6484 292.196 43.508 292.188 43.3586C292.183 43.2091 292.236 43.0634 292.338 42.953C292.439 42.8426 292.579 42.7764 292.728 42.7686C297.742 42.5219 302.758 42.4886 307.778 42.6686C307.857 42.6711 307.934 42.6893 308.005 42.722C308.076 42.7547 308.14 42.8012 308.193 42.859C308.247 42.9167 308.288 42.9844 308.314 43.0582C308.341 43.1319 308.352 43.2103 308.348 43.2886C308.346 43.3674 308.328 43.4449 308.295 43.5167C308.263 43.5885 308.216 43.6532 308.159 43.7071C308.101 43.761 308.033 43.803 307.96 43.8307C307.886 43.8584 307.807 43.8713 307.728 43.8686V43.8986Z"
            fill="black"
        />
        <path
            d="M277.88 45.1797C272.934 45.7862 268.007 46.5593 263.1 47.499C263.036 47.5119 262.969 47.5118 262.905 47.4986C262.841 47.4853 262.78 47.4593 262.725 47.422C262.671 47.3847 262.625 47.3369 262.59 47.2814C262.555 47.2259 262.531 47.1639 262.52 47.0991C262.506 47.0353 262.504 46.9692 262.516 46.9048C262.528 46.8405 262.553 46.7793 262.59 46.725C262.627 46.6707 262.674 46.6244 262.729 46.589C262.784 46.5536 262.846 46.5299 262.91 46.5193C267.83 45.5196 272.78 44.7498 277.75 44.12C277.892 44.1057 278.033 44.1466 278.145 44.2342C278.257 44.3218 278.33 44.4492 278.35 44.5899C278.36 44.659 278.356 44.7293 278.338 44.7968C278.32 44.8642 278.288 44.9273 278.245 44.9823C278.203 45.0374 278.149 45.0832 278.088 45.1171C278.027 45.151 277.96 45.1723 277.89 45.1797H277.88Z"
            fill="black"
        />
        <path
            d="M248.497 50.7055L234.047 54.7043C233.999 54.7179 233.948 54.7217 233.898 54.7154C233.848 54.7091 233.799 54.693 233.756 54.6679C233.712 54.6427 233.674 54.6092 233.643 54.5691C233.612 54.529 233.59 54.4832 233.577 54.4344C233.55 54.335 233.562 54.2286 233.613 54.1387C233.664 54.0487 233.748 53.9825 233.847 53.9545L248.297 49.8757C248.41 49.8445 248.53 49.8583 248.633 49.9143C248.736 49.9703 248.813 50.064 248.847 50.1757C248.878 50.2897 248.863 50.4112 248.805 50.514C248.747 50.6169 248.651 50.6929 248.537 50.7255L248.497 50.7055Z"
            fill="black"
        />
        <path
            d="M219.756 59.2529L205.656 64.3414C205.624 64.354 205.589 64.3599 205.554 64.3586C205.518 64.3573 205.484 64.349 205.452 64.334C205.42 64.3191 205.392 64.2979 205.369 64.2717C205.345 64.2454 205.328 64.2147 205.316 64.1814C205.302 64.1461 205.296 64.1083 205.298 64.0704C205.299 64.0324 205.309 63.9952 205.326 63.9613C205.343 63.9273 205.367 63.8973 205.396 63.8732C205.426 63.8491 205.46 63.8316 205.496 63.8216L219.576 58.6231C219.617 58.6074 219.66 58.6002 219.704 58.6018C219.747 58.6034 219.79 58.6139 219.829 58.6326C219.869 58.6514 219.904 58.6779 219.933 58.7106C219.961 58.7434 219.983 58.7816 219.996 58.8231C220.026 58.904 220.022 58.9932 219.987 59.0717C219.951 59.1501 219.887 59.2116 219.806 59.243L219.756 59.2529Z"
            fill="black"
        />
        <path
            d="M191.705 69.8255L177.845 75.5538C177.806 75.5708 177.763 75.5718 177.723 75.5569C177.684 75.5419 177.652 75.5121 177.635 75.4738C177.621 75.4339 177.623 75.3903 177.639 75.3515C177.656 75.3127 177.686 75.2815 177.725 75.2639L191.545 69.4257C191.598 69.4081 191.656 69.4106 191.707 69.4326C191.759 69.4547 191.801 69.4949 191.825 69.5456C191.842 69.5989 191.84 69.6567 191.818 69.7083C191.796 69.7598 191.755 69.8015 191.705 69.8255Z"
            fill="black"
        />
        <path
            fill-rule="evenodd"
            clip-rule="evenodd"
            d="M344.613 198.024C364.389 204.486 377.562 215.136 380.12 228.955C385.501 258.029 341.989 290.818 281.071 305.098C276.964 306.061 272.778 306.939 268.522 307.727L232.59 198.59C237.521 197.382 242.57 196.295 247.722 195.342C285.096 188.425 319.978 189.975 344.613 198.024ZM196.429 210.43L185.738 308.719C158.228 303.157 139.249 291.002 136.124 274.114C131.975 251.699 156.886 227.077 196.429 210.43Z"
            fill="black"
        />
        <path d="M196.429 210.43C203.897 207.286 211.887 204.427 220.302 201.92C224.305 200.728 228.405 199.615 232.59 198.59L268.522 307.727C237.81 313.411 208.781 313.377 185.738 308.719L196.429 210.43Z" fill="#F1EFED" />
        <path
            d="M268.522 307.727C272.778 306.939 276.964 306.061 281.071 305.098C341.989 290.818 385.501 258.029 380.12 228.955C377.562 215.136 364.389 204.486 344.613 198.024C319.978 189.975 285.096 188.425 247.722 195.342C242.57 196.295 237.521 197.382 232.59 198.59M268.522 307.727C237.81 313.411 208.781 313.377 185.738 308.719M268.522 307.727L232.59 198.59M196.429 210.43C203.897 207.286 211.887 204.427 220.302 201.92C224.305 200.728 228.405 199.615 232.59 198.59M196.429 210.43C156.886 227.077 131.975 251.699 136.124 274.114C139.249 291.002 158.228 303.157 185.738 308.719M196.429 210.43L185.738 308.719"
            stroke="black"
            stroke-width="2"
        />
        <ellipse cx="124.07" cy="57.1468" rx="124.07" ry="57.1468" transform="matrix(-0.983301 0.181988 0.181988 0.983301 365.79 165.292)" fill="url(#paint0_linear_26749_40435)" stroke="black" stroke-width="2" />
        <ellipse cx="101.492" cy="45.1496" rx="101.492" ry="45.1496" transform="matrix(-0.983301 0.181988 0.181988 0.983301 346.712 179.595)" fill="url(#paint1_linear_26749_40435)" stroke="black" stroke-width="2" />
        <ellipse cx="73.858" cy="33.9434" rx="73.858" ry="33.9434" transform="matrix(-0.983301 0.181988 0.181988 0.983301 319.094 190.896)" fill="#F1EFED" stroke="black" stroke-width="2" />
        <path
            d="M211.437 246.947C213.367 257.374 233.991 262.299 257.503 257.948C281.015 253.596 298.511 241.616 296.581 231.188C294.651 220.761 274.026 215.835 250.514 220.187C227.003 224.538 209.507 236.519 211.437 246.947Z"
            fill="black"
            stroke="black"
            stroke-width="2"
        />
        <path d="M252.501 227.462L249.204 239.359L256.788 241.461L252.501 227.462Z" fill="#F1EFED" />
        <path
            fill-rule="evenodd"
            clip-rule="evenodd"
            d="M315.748 108.478C247.53 102.032 189.822 122.279 186.853 153.7C183.884 185.121 236.779 215.819 304.997 222.265C312.55 222.978 319.974 223.365 327.209 223.445L385.175 125.262C365.809 116.986 341.905 110.949 315.748 108.478Z"
            fill="black"
        />
        <path d="M401.269 211C420.394 202.81 432.57 191.034 433.892 177.042C435.723 157.669 416.316 138.57 385.175 125.262L327.209 223.445C356.223 223.767 382.2 219.166 401.269 211Z" fill="#F1EFED" />
        <path
            d="M327.209 223.445C356.223 223.767 382.2 219.166 401.269 211C420.394 202.81 432.57 191.034 433.892 177.042C435.723 157.669 416.316 138.57 385.175 125.262M327.209 223.445C319.974 223.365 312.55 222.978 304.997 222.265C236.779 215.819 183.884 185.121 186.853 153.7C189.822 122.279 247.53 102.032 315.748 108.478C341.905 110.949 365.809 116.986 385.175 125.262M327.209 223.445L385.175 125.262"
            stroke="black"
            stroke-width="2"
        />
        <path
            d="M434.472 168.591C431.503 200.012 373.794 220.259 305.576 213.813C237.358 207.367 184.464 176.67 187.433 145.249C190.402 113.827 248.11 93.5806 316.328 100.026C384.546 106.472 437.441 137.169 434.472 168.591Z"
            fill="url(#paint2_linear_26749_40435)"
        />
        <path
            d="M412.993 165.773C410.705 189.987 363.612 205.342 307.808 200.07C252.005 194.797 208.622 170.893 210.91 146.679C213.197 122.464 260.29 107.109 316.094 112.382C371.898 117.654 415.281 141.558 412.993 165.773Z"
            fill="url(#paint3_linear_26749_40435)"
        />
        <path
            d="M434.472 168.591C431.503 200.012 373.794 220.259 305.576 213.813C237.358 207.367 184.464 176.67 187.433 145.249C190.402 113.827 248.11 93.5806 316.328 100.026C384.546 106.472 437.441 137.169 434.472 168.591Z"
            stroke="black"
            stroke-width="2"
        />
        <path
            d="M412.993 165.773C410.705 189.987 363.612 205.342 307.808 200.07C252.005 194.797 208.622 170.893 210.91 146.679C213.197 122.464 260.29 107.109 316.094 112.382C371.898 117.654 415.281 141.558 412.993 165.773Z"
            stroke="black"
            stroke-width="2"
        />
        <ellipse cx="312.143" cy="154.319" rx="73.858" ry="30.791" transform="rotate(5.39769 312.143 154.319)" fill="#F1EFED" stroke="black" stroke-width="2" />
        <path
            d="M308.882 171.049C332.688 173.298 352.794 166.563 353.792 156.006C354.363 149.965 348.554 143.982 339.02 139.546C331.891 136.23 322.679 133.779 312.495 132.817C288.69 130.568 268.583 137.303 267.585 147.86C267.023 153.808 272.646 159.7 281.92 164.114C289.108 167.534 298.488 170.067 308.882 171.049Z"
            fill="black"
            stroke="black"
            stroke-width="2"
        />
        <path d="M311.673 140.545L314.97 152.442L307.385 154.544L311.673 140.545Z" fill="#F1EFED" />
        <path
            fill-rule="evenodd"
            clip-rule="evenodd"
            d="M240.349 133.914C303.666 107.717 345.212 62.8386 333.146 33.6749C321.08 4.51118 259.97 2.1058 196.653 28.3023C161.532 42.8336 133.108 63.1132 116.818 83.2704L240.349 133.914Z"
            fill="black"
        />
        <path d="M103.857 128.541C115.923 157.705 177.032 160.11 240.349 133.914L116.818 83.2704C103.741 99.4519 98.4835 115.554 103.857 128.541Z" fill="#F1EFED" />
        <path
            d="M240.349 133.914C303.666 107.717 345.212 62.8386 333.146 33.6749C321.08 4.51118 259.97 2.1058 196.653 28.3023C161.532 42.8336 133.108 63.1132 116.818 83.2704M240.349 133.914C177.032 160.11 115.923 157.705 103.857 128.541C98.4835 115.554 103.741 99.4519 116.818 83.2704M240.349 133.914L116.818 83.2704"
            stroke="black"
            stroke-width="2"
        />
        <path
            d="M329.406 28.0986C341.472 57.2623 299.926 102.141 236.609 128.337C173.293 154.534 112.183 152.128 100.117 122.965C88.0506 93.8009 129.597 48.9225 192.914 22.726C256.23 -3.47055 317.34 -1.06517 329.406 28.0986Z"
            fill="url(#paint4_linear_26749_40435)"
        />
        <path
            d="M309.103 35.6499C318.401 58.1245 283.952 93.7157 232.158 115.145C180.363 136.574 130.838 135.727 121.539 113.252C112.241 90.7777 146.69 55.1865 198.484 33.7572C250.279 12.3279 299.804 13.1753 309.103 35.6499Z"
            fill="url(#paint5_linear_26749_40435)"
        />
        <path
            d="M329.406 28.0986C341.472 57.2623 299.926 102.141 236.609 128.337C173.293 154.534 112.183 152.128 100.117 122.965C88.0506 93.8009 129.597 48.9225 192.914 22.726C256.23 -3.47055 317.34 -1.06517 329.406 28.0986Z"
            stroke="black"
            stroke-width="2"
        />
        <path
            d="M309.103 35.6499C318.401 58.1245 283.952 93.7157 232.158 115.145C180.363 136.574 130.838 135.727 121.539 113.252C112.241 90.7777 146.69 55.1865 198.484 33.7572C250.279 12.3279 299.804 13.1753 309.103 35.6499Z"
            stroke="black"
            stroke-width="2"
        />
        <ellipse cx="215.202" cy="72.3349" rx="73.858" ry="31.7775" transform="rotate(-22.4768 215.202 72.3349)" fill="#F1EFED" stroke="black" stroke-width="2" />
        <path
            d="M252.206 54.6939C256.26 64.4929 241.635 79.8471 219.54 88.9886C197.446 98.1301 176.248 97.5971 172.193 87.7982C168.139 77.9993 182.764 62.645 204.859 53.5035C226.954 44.362 248.152 44.895 252.206 54.6939Z"
            fill="#F1EFED"
            stroke="black"
            stroke-width="2"
        />
        <path
            d="M252.206 54.6939C256.26 64.4929 241.635 79.8471 219.54 88.9886C197.446 98.1301 176.248 97.5971 172.193 87.7982C168.139 77.9993 182.764 62.645 204.859 53.5035C226.954 44.362 248.152 44.895 252.206 54.6939Z"
            fill="black"
            stroke="black"
            stroke-width="2"
        />
        <path d="M210.384 59.0322L211.952 71.2778L219.759 70.2782L210.384 59.0322Z" fill="#F1EFED" />
        <path
            d="M447.293 59.8606C447.293 67.8391 439.957 74.5422 430.6 74.5422C426.402 74.5422 423.558 71.1729 421.688 67.2812C420.775 65.3819 420.153 63.4706 419.758 62.0266C419.561 61.3068 419.423 60.7086 419.334 60.2931C419.295 60.1124 419.266 59.9666 419.246 59.8606C419.266 59.7546 419.295 59.6088 419.334 59.4281C419.423 59.0126 419.561 58.4144 419.758 57.6946C420.153 56.2506 420.775 54.3393 421.688 52.44C423.558 48.5483 426.402 45.179 430.6 45.179C439.957 45.179 447.293 51.8821 447.293 59.8606Z"
            fill="black"
            stroke="black"
            stroke-width="2.38733"
        />
        <path
            d="M443.679 59.8606C443.679 68.0676 437.596 74.5422 430.304 74.5422C423.011 74.5422 416.929 68.0676 416.929 59.8606C416.929 51.6536 423.011 45.179 430.304 45.179C437.596 45.179 443.679 51.6536 443.679 59.8606Z"
            fill="#F1EFED"
            stroke="black"
            stroke-width="2.38733"
        />
        <path
            d="M61.2484 284.363C67.4521 293.751 81.2961 295.935 92.3066 288.659C97.247 285.395 97.9738 279.219 97.1485 273.185C96.7457 270.241 95.9918 267.508 95.3332 265.502C95.0048 264.502 94.7027 263.69 94.4842 263.132C94.3892 262.89 94.3101 262.695 94.2518 262.555C94.1453 262.446 93.9976 262.297 93.8116 262.115C93.384 261.695 92.7559 261.099 91.9649 260.404C90.3779 259.012 88.1595 257.247 85.6088 255.722C80.3822 252.596 74.4159 250.843 69.4755 254.108C58.465 261.383 55.0448 274.975 61.2484 284.363Z"
            fill="black"
            stroke="black"
            stroke-width="3.36706"
        />
        <path
            d="M65.5096 281.55C71.8909 291.207 84.0826 294.096 92.6636 288.426C101.245 282.756 103.368 270.407 96.9865 260.75C90.6052 251.093 78.4134 248.204 69.8325 253.874C61.2515 259.544 59.1283 271.892 65.5096 281.55Z"
            fill="#F1EFED"
            stroke="black"
            stroke-width="3.36706"
        />
        <path
            d="M81.0296 268.008C75.7786 264.945 74.1834 257.544 77.7757 251.385C79.3875 248.622 82.6968 248.044 85.9761 248.307C87.5765 248.436 89.0733 248.76 90.1751 249.055C90.7243 249.201 91.1712 249.34 91.4787 249.441C91.6125 249.485 91.7197 249.522 91.7973 249.549C91.8592 249.603 91.9439 249.678 92.048 249.773C92.2874 249.991 92.6279 250.312 93.0261 250.718C93.8251 251.532 94.8441 252.675 95.7437 254.005C97.587 256.73 98.7126 259.895 97.1007 262.658C93.5085 268.816 86.2806 271.071 81.0296 268.008Z"
            fill="black"
            stroke="black"
            stroke-width="1.81898"
        />
        <path
            d="M82.4182 265.625C77.0168 262.475 75.0908 255.986 77.8905 251.186C80.6901 246.387 87.2865 244.869 92.6878 248.02C98.0892 251.171 100.015 257.66 97.2156 262.459C94.4159 267.259 87.8195 268.776 82.4182 265.625Z"
            fill="#F1EFED"
            stroke="black"
            stroke-width="1.81898"
        />
    </g>
    <defs>
        <linearGradient id="paint0_linear_26749_40435" x1="190.88" y1="135.724" x2="126.469" y2="18.4882" gradientUnits="userSpaceOnUse">
            <stop stop-color="#D6FFBB" />
            <stop offset="1" stop-color="#5869DD" />
        </linearGradient>
        <linearGradient id="paint1_linear_26749_40435" x1="131.314" y1="135.76" x2="82.3962" y2="39.0475" gradientUnits="userSpaceOnUse">
            <stop offset="0.0792773" stop-color="#D6FFBB" />
            <stop offset="1" stop-color="#5869DD" />
        </linearGradient>
        <linearGradient id="paint2_linear_26749_40435" x1="490.798" y1="59.502" x2="201.298" y2="169.502" gradientUnits="userSpaceOnUse">
            <stop stop-color="#D6FFBB" />
            <stop offset="1" stop-color="#5869DD" />
        </linearGradient>
        <linearGradient id="paint3_linear_26749_40435" x1="490.798" y1="59.502" x2="201.298" y2="169.502" gradientUnits="userSpaceOnUse">
            <stop stop-color="#D6FFBB" />
            <stop offset="1" stop-color="#5869DD" />
        </linearGradient>
        <linearGradient id="paint4_linear_26749_40435" x1="84.2979" y1="25.9951" x2="331.298" y2="75.4951" gradientUnits="userSpaceOnUse">
            <stop stop-color="#D6FFBB" />
            <stop offset="1" stop-color="#5869DD" />
        </linearGradient>
        <linearGradient id="paint5_linear_26749_40435" x1="84.2979" y1="25.9951" x2="331.298" y2="75.4951" gradientUnits="userSpaceOnUse">
            <stop stop-color="#D6FFBB" />
            <stop offset="1" stop-color="#5869DD" />
        </linearGradient>
        <clipPath id="clip0_26749_40435">
            <rect width="392" height="331" fill="white" transform="translate(56.5 3.5)" />
        </clipPath>
    </defs>
</svg>
