<svg xmlns="http://www.w3.org/2000/svg" width="439" height="340" viewBox="0 0 439 340" fill="none">
    <path
        d="M435.281 206.297L428.371 219.605C428.357 219.619 428.337 219.627 428.316 219.627C428.296 219.627 428.276 219.619 428.261 219.605C428.253 219.597 428.246 219.588 428.241 219.578C428.237 219.567 428.234 219.556 428.234 219.545C428.234 219.534 428.237 219.522 428.241 219.512C428.246 219.502 428.253 219.492 428.261 219.485V219.485L435.281 206.297Z"
        fill="black"
    />
    <path
        d="M421.482 232.93L414.312 246.108C414.279 246.169 414.223 246.214 414.156 246.234C414.09 246.253 414.018 246.246 413.957 246.213C413.896 246.18 413.851 246.123 413.831 246.057C413.811 245.99 413.819 245.919 413.852 245.858V245.858L421.192 232.77C421.203 232.75 421.217 232.733 421.234 232.718C421.251 232.704 421.271 232.694 421.293 232.687C421.314 232.681 421.336 232.678 421.359 232.68C421.381 232.683 421.402 232.689 421.422 232.7C421.442 232.71 421.459 232.724 421.473 232.742C421.488 232.759 421.498 232.779 421.505 232.8C421.511 232.822 421.513 232.844 421.511 232.866C421.509 232.888 421.503 232.91 421.492 232.93H421.482Z"
        fill="black"
    />
    <path
        d="M406.665 259.026L398.355 271.544C398.291 271.639 398.193 271.706 398.08 271.728C397.967 271.751 397.851 271.728 397.755 271.664C397.66 271.6 397.593 271.501 397.571 271.389C397.548 271.276 397.572 271.159 397.635 271.064V271.064L406.065 258.676C406.09 258.638 406.123 258.605 406.161 258.58C406.199 258.555 406.241 258.538 406.286 258.529C406.331 258.521 406.377 258.522 406.421 258.531C406.466 258.541 406.508 258.56 406.545 258.586C406.614 258.633 406.665 258.703 406.687 258.784C406.709 258.864 406.701 258.95 406.665 259.026V259.026Z"
        fill="black"
    />
    <path
        d="M389.195 283.442C385.957 287.287 382.488 290.93 378.805 294.35C378.698 294.452 378.557 294.509 378.41 294.509C378.262 294.509 378.121 294.452 378.015 294.35C377.91 294.245 377.852 294.103 377.852 293.955C377.852 293.807 377.91 293.665 378.015 293.56V293.56C381.679 290.19 385.138 286.604 388.375 282.822C388.418 282.771 388.471 282.728 388.53 282.697C388.59 282.667 388.655 282.648 388.722 282.642C388.789 282.637 388.856 282.644 388.92 282.665C388.984 282.685 389.043 282.718 389.095 282.762C389.191 282.844 389.255 282.958 389.273 283.083C389.291 283.208 389.263 283.336 389.195 283.442V283.442Z"
        fill="black"
    />
    <path
        d="M366.861 303.609C362.614 306.346 358.015 308.495 353.191 309.998C353.109 310.024 353.021 310.033 352.935 310.025C352.849 310.017 352.765 309.992 352.689 309.951C352.612 309.91 352.545 309.854 352.49 309.786C352.436 309.719 352.395 309.641 352.371 309.558C352.321 309.391 352.34 309.211 352.422 309.057C352.505 308.904 352.645 308.789 352.811 308.738C357.53 307.3 362.031 305.228 366.191 302.579C366.322 302.529 366.465 302.526 366.598 302.569C366.73 302.612 366.844 302.7 366.92 302.817C366.996 302.934 367.03 303.073 367.015 303.212C367.001 303.35 366.94 303.48 366.841 303.579L366.861 303.609Z"
        fill="black"
    />
    <path
        d="M338.108 311.855C335.569 311.712 333.046 311.351 330.568 310.776C328.088 310.207 325.657 309.441 323.298 308.486C323.203 308.451 323.115 308.397 323.042 308.327C322.968 308.257 322.91 308.172 322.87 308.078C322.831 307.984 322.811 307.883 322.813 307.782C322.814 307.68 322.836 307.579 322.878 307.487C322.916 307.393 322.971 307.308 323.042 307.235C323.113 307.163 323.197 307.106 323.29 307.067C323.383 307.028 323.483 307.008 323.584 307.008C323.685 307.008 323.785 307.028 323.878 307.067C326.15 308 328.49 308.755 330.878 309.326C333.273 309.898 335.712 310.262 338.168 310.416C338.261 310.42 338.351 310.442 338.435 310.481C338.519 310.521 338.594 310.577 338.655 310.646C338.717 310.715 338.764 310.796 338.794 310.883C338.823 310.971 338.835 311.063 338.828 311.156C338.827 311.249 338.807 311.341 338.77 311.427C338.734 311.512 338.68 311.59 338.613 311.655C338.546 311.72 338.467 311.771 338.381 311.805C338.294 311.84 338.202 311.857 338.108 311.855V311.855Z"
        fill="black"
    />
    <path
        d="M311.933 298.349C309.499 293.842 307.967 288.904 307.423 283.811C307.4 283.697 307.401 283.58 307.426 283.466C307.451 283.352 307.499 283.245 307.568 283.151C307.636 283.057 307.724 282.978 307.825 282.92C307.925 282.861 308.037 282.824 308.153 282.812C308.375 282.783 308.6 282.844 308.778 282.981C308.956 283.117 309.073 283.319 309.103 283.541C309.598 288.436 311.034 293.189 313.333 297.539C313.437 297.725 313.464 297.945 313.407 298.15C313.35 298.355 313.213 298.529 313.028 298.634C312.842 298.739 312.622 298.766 312.417 298.708C312.212 298.651 312.037 298.515 311.933 298.329V298.349Z"
        fill="black"
    />
    <path
        d="M307.055 268.676C307.387 263.649 307.981 258.643 308.835 253.678C308.854 253.564 308.896 253.455 308.958 253.357C309.02 253.259 309.101 253.174 309.196 253.107C309.29 253.04 309.397 252.992 309.51 252.967C309.623 252.941 309.74 252.938 309.855 252.958C309.969 252.978 310.078 253.02 310.176 253.082C310.274 253.144 310.359 253.224 310.426 253.319C310.493 253.414 310.54 253.521 310.566 253.634C310.591 253.747 310.594 253.864 310.575 253.978V253.978C309.714 258.872 309.117 263.808 308.785 268.766C308.753 268.981 308.641 269.175 308.473 269.312C308.304 269.449 308.091 269.518 307.874 269.506C307.657 269.493 307.453 269.4 307.301 269.245C307.15 269.089 307.062 268.883 307.055 268.666V268.676Z"
        fill="black"
    />
    <path
        d="M311.873 238.943C312.483 236.514 313.073 234.084 313.693 231.654L315.823 224.445C315.856 224.33 315.912 224.223 315.987 224.13C316.062 224.037 316.154 223.959 316.259 223.901C316.364 223.844 316.479 223.808 316.598 223.794C316.717 223.781 316.838 223.792 316.953 223.825C317.067 223.859 317.175 223.915 317.268 223.99C317.361 224.065 317.439 224.157 317.497 224.262C317.554 224.367 317.59 224.482 317.604 224.601C317.617 224.72 317.606 224.84 317.573 224.955V224.955L315.443 232.124C314.823 234.534 314.223 236.953 313.613 239.373C313.54 239.588 313.39 239.768 313.191 239.877C312.991 239.985 312.759 240.015 312.539 239.959C312.319 239.904 312.128 239.767 312.005 239.577C311.881 239.386 311.834 239.157 311.873 238.933V238.943Z"
        fill="black"
    />
    <path
        d="M319.194 209.962C319.364 208.743 319.504 207.533 319.554 206.333C319.632 205.177 319.547 204.016 319.304 202.884C319.244 202.636 319.16 202.395 319.054 202.164C319.004 202.067 318.947 201.973 318.884 201.884C318.844 201.794 318.782 201.715 318.704 201.654C318.579 201.518 318.422 201.417 318.247 201.357C318.073 201.298 317.886 201.283 317.704 201.314C316.641 201.507 315.633 201.934 314.754 202.564V202.564C314.539 202.686 314.286 202.724 314.044 202.671C313.801 202.617 313.588 202.476 313.444 202.274C313.378 202.169 313.333 202.053 313.311 201.931C313.29 201.809 313.292 201.684 313.319 201.564C313.346 201.443 313.397 201.328 313.468 201.227C313.539 201.126 313.63 201.04 313.734 200.974V200.974C314.892 200.144 316.234 199.608 317.644 199.414H317.944H318.274C318.495 199.437 318.712 199.481 318.924 199.544L319.534 199.854C319.724 199.976 319.896 200.124 320.044 200.294C320.208 200.43 320.344 200.596 320.444 200.784C320.559 200.95 320.662 201.124 320.754 201.304C320.905 201.627 321.028 201.961 321.124 202.304C321.412 203.616 321.516 204.962 321.434 206.303C321.364 207.593 321.214 208.863 321.044 210.122C321.007 210.365 320.877 210.584 320.68 210.731C320.484 210.879 320.238 210.944 319.994 210.912C319.751 210.878 319.53 210.748 319.382 210.551C319.234 210.354 319.17 210.106 319.204 209.862L319.194 209.962Z"
        fill="black"
    />
    <path
        d="M303.341 212.076L292.191 222.115C291.993 222.223 291.765 222.261 291.542 222.223C291.32 222.185 291.117 222.073 290.966 221.905C290.816 221.737 290.726 221.523 290.713 221.298C290.699 221.073 290.762 220.85 290.891 220.665V220.665L302.051 210.666C302.132 210.532 302.242 210.419 302.375 210.335C302.507 210.251 302.657 210.2 302.812 210.184C302.968 210.169 303.125 210.191 303.271 210.247C303.417 210.304 303.548 210.394 303.652 210.51C303.757 210.626 303.833 210.765 303.874 210.916C303.915 211.067 303.921 211.226 303.889 211.379C303.858 211.532 303.791 211.676 303.695 211.799C303.598 211.922 303.473 212.02 303.331 212.086L303.341 212.076Z"
        fill="black"
    />
    <path
        d="M281.054 232.15C277.274 235.45 273.414 238.659 269.414 241.699C269.313 241.796 269.193 241.872 269.061 241.92C268.929 241.968 268.788 241.987 268.648 241.977C268.508 241.968 268.372 241.928 268.248 241.862C268.124 241.796 268.015 241.704 267.929 241.594C267.843 241.483 267.781 241.355 267.748 241.219C267.714 241.082 267.71 240.94 267.735 240.802C267.76 240.664 267.814 240.533 267.893 240.417C267.972 240.301 268.075 240.203 268.194 240.129C272.194 237.129 275.974 233.92 279.734 230.65C279.936 230.504 280.185 230.439 280.433 230.467C280.681 230.496 280.909 230.615 281.073 230.803C281.237 230.991 281.325 231.233 281.319 231.482C281.314 231.731 281.216 231.97 281.044 232.15H281.054Z"
        fill="black"
    />
    <path
        d="M256.978 250.242C252.675 252.875 248.198 255.214 243.578 257.241C243.464 257.294 243.34 257.323 243.213 257.327C243.087 257.33 242.962 257.309 242.844 257.263C242.727 257.217 242.619 257.148 242.529 257.06C242.439 256.972 242.367 256.867 242.318 256.751C242.227 256.518 242.227 256.259 242.318 256.026C242.409 255.792 242.584 255.602 242.808 255.491C247.343 253.484 251.736 251.173 255.958 248.572C256.066 248.467 256.197 248.388 256.34 248.34C256.483 248.292 256.635 248.278 256.785 248.297C256.934 248.317 257.078 248.37 257.204 248.453C257.33 248.536 257.436 248.646 257.513 248.775C257.591 248.905 257.638 249.05 257.651 249.2C257.665 249.35 257.644 249.502 257.591 249.643C257.537 249.784 257.453 249.911 257.343 250.015C257.234 250.118 257.102 250.196 256.958 250.242H256.978Z"
        fill="black"
    />
    <path
        d="M229.188 262.095C224.218 263.216 219.117 263.647 214.028 263.375C213.781 263.357 213.55 263.242 213.387 263.055C213.224 262.867 213.142 262.623 213.158 262.375C213.166 262.253 213.198 262.133 213.253 262.023C213.307 261.912 213.384 261.814 213.477 261.734C213.57 261.654 213.678 261.593 213.795 261.556C213.912 261.518 214.036 261.504 214.158 261.515C219.071 261.764 223.994 261.333 228.788 260.235C228.909 260.207 229.034 260.203 229.157 260.224C229.279 260.244 229.396 260.289 229.501 260.355C229.606 260.421 229.697 260.507 229.769 260.608C229.84 260.71 229.891 260.824 229.918 260.945C229.959 261.189 229.909 261.44 229.776 261.649C229.643 261.857 229.437 262.009 229.198 262.075L229.188 262.095Z"
        fill="black"
    />
    <path
        d="M199.197 259.981C194.485 258.002 190.122 255.278 186.277 251.912C186.188 251.835 186.116 251.741 186.063 251.637C186.011 251.532 185.979 251.417 185.971 251.3C185.963 251.183 185.977 251.066 186.014 250.955C186.052 250.843 186.11 250.741 186.187 250.652C186.264 250.563 186.357 250.491 186.462 250.438C186.567 250.386 186.681 250.354 186.798 250.346C186.915 250.338 187.033 250.352 187.144 250.389C187.255 250.427 187.358 250.485 187.447 250.562C191.153 253.79 195.353 256.402 199.887 258.301C200.005 258.341 200.114 258.404 200.206 258.487C200.298 258.571 200.373 258.672 200.424 258.785C200.476 258.899 200.504 259.021 200.506 259.146C200.509 259.27 200.486 259.394 200.438 259.509C200.391 259.624 200.321 259.728 200.231 259.815C200.142 259.902 200.036 259.969 199.92 260.014C199.804 260.058 199.679 260.078 199.555 260.072C199.431 260.066 199.309 260.035 199.197 259.981V259.981Z"
        fill="black"
    />
    <path
        d="M176.197 240.568C173.357 236.383 170.916 231.941 168.907 227.3C168.823 227.093 168.823 226.862 168.906 226.656C168.989 226.449 169.15 226.282 169.354 226.192C169.557 226.101 169.788 226.093 169.998 226.169C170.207 226.245 170.379 226.4 170.477 226.6C172.452 231.149 174.852 235.501 177.647 239.598C177.779 239.79 177.83 240.027 177.788 240.257C177.746 240.487 177.614 240.69 177.422 240.823C177.229 240.956 176.992 241.006 176.763 240.964C176.533 240.922 176.329 240.79 176.197 240.598V240.568Z"
        fill="black"
    />
    <path
        d="M163.408 213.246L158.188 199.248C158.117 199.054 158.126 198.841 158.212 198.653C158.298 198.466 158.455 198.32 158.648 198.248C158.842 198.18 159.055 198.19 159.242 198.275C159.428 198.361 159.574 198.517 159.648 198.708L164.998 212.706C165.051 212.909 165.027 213.124 164.931 213.31C164.835 213.496 164.674 213.64 164.478 213.715C164.282 213.789 164.065 213.789 163.87 213.713C163.674 213.638 163.514 213.493 163.418 213.306V213.306L163.408 213.246Z"
        fill="black"
    />
    <path
        d="M151.582 185.956C148.972 181.764 145.765 177.975 142.062 174.708C141.922 174.586 141.835 174.413 141.822 174.228C141.809 174.042 141.87 173.859 141.992 173.718C142.114 173.578 142.287 173.491 142.473 173.478C142.658 173.465 142.842 173.526 142.982 173.648C146.812 176.986 150.137 180.863 152.852 185.157C152.947 185.323 152.975 185.52 152.929 185.707C152.883 185.893 152.768 186.055 152.606 186.159C152.445 186.263 152.249 186.301 152.061 186.265C151.872 186.229 151.704 186.122 151.592 185.966L151.582 185.956Z"
        fill="black"
    />
    <path
        d="M129.639 166.752C125.112 164.736 120.363 163.263 115.489 162.363C115.346 162.318 115.225 162.222 115.148 162.094C115.072 161.965 115.045 161.813 115.074 161.666C115.102 161.519 115.183 161.388 115.303 161.297C115.422 161.206 115.57 161.162 115.719 161.174C120.697 162.069 125.553 163.542 130.189 165.562C130.345 165.634 130.467 165.765 130.529 165.925C130.591 166.086 130.587 166.264 130.519 166.422C130.484 166.5 130.435 166.571 130.373 166.63C130.311 166.689 130.238 166.735 130.158 166.766C130.078 166.796 129.993 166.811 129.907 166.809C129.821 166.806 129.737 166.787 129.659 166.752H129.639Z"
        fill="black"
    />
    <path
        d="M100.683 160.843C95.7045 160.733 90.7233 160.903 85.7635 161.353C85.6308 161.366 85.4984 161.326 85.3953 161.242C85.2921 161.157 85.2267 161.035 85.2134 160.903C85.2002 160.77 85.2402 160.638 85.3245 160.534C85.4089 160.431 85.5308 160.366 85.6634 160.353C90.6481 159.868 95.6558 159.661 100.663 159.733C100.798 159.751 100.921 159.817 101.01 159.919C101.1 160.021 101.149 160.152 101.149 160.288C101.149 160.423 101.1 160.554 101.01 160.656C100.921 160.758 100.798 160.825 100.663 160.843H100.683Z"
        fill="black"
    />
    <path
        d="M70.9136 163.248L56.1936 166.017C56.1508 166.028 56.1064 166.029 56.0631 166.021C56.0198 166.013 55.9785 165.997 55.9419 165.972C55.9053 165.948 55.8742 165.916 55.8503 165.879C55.8265 165.842 55.8106 165.801 55.8036 165.758C55.7948 165.715 55.7947 165.671 55.803 165.628C55.8114 165.585 55.8281 165.545 55.8523 165.508C55.8765 165.472 55.9076 165.441 55.9439 165.417C55.9801 165.393 56.0208 165.376 56.0636 165.368L70.7836 162.369C70.8375 162.357 70.8932 162.356 70.9474 162.367C71.0015 162.377 71.053 162.398 71.0988 162.429C71.1445 162.46 71.1836 162.5 71.2136 162.546C71.2437 162.592 71.264 162.644 71.2736 162.698C71.2853 162.752 71.2863 162.807 71.2764 162.86C71.2666 162.914 71.2462 162.965 71.2164 163.01C71.1866 163.056 71.148 163.095 71.1029 163.126C71.0578 163.156 71.007 163.178 70.9536 163.188V163.188L70.9136 163.248Z"
        fill="black"
    />
    <path
        d="M41.5914 169.432L27.0615 173.151C27.0418 173.157 27.021 173.159 27.0006 173.156C26.9801 173.154 26.9603 173.148 26.9425 173.137C26.9247 173.127 26.9092 173.113 26.897 173.096C26.8847 173.08 26.876 173.061 26.8714 173.041C26.8621 173.001 26.8683 172.959 26.8887 172.924C26.9092 172.889 26.9424 172.863 26.9815 172.851L41.4715 168.952C41.5351 168.937 41.6021 168.947 41.6582 168.981C41.7143 169.015 41.7549 169.069 41.7714 169.132C41.7805 169.163 41.7833 169.195 41.7796 169.227C41.7759 169.259 41.7659 169.29 41.75 169.318C41.7342 169.346 41.7128 169.371 41.6873 169.39C41.6618 169.41 41.6326 169.424 41.6015 169.432H41.5914Z"
        fill="black"
    />
    <path
        d="M12.5338 176.889L0.84375 179.559L12.5038 176.759C12.5164 176.748 12.5323 176.742 12.5488 176.742C12.5652 176.742 12.5811 176.748 12.5938 176.759C12.6028 176.772 12.6076 176.788 12.6076 176.804C12.6076 176.82 12.6028 176.835 12.5938 176.849L12.5338 176.889Z"
        fill="black"
    />
    <path d="M69.6186 106.036L79.1523 111.54V133.558L69.6186 128.054V106.036Z" fill="black" />
    <path d="M79.1553 111.538L98.2266 100.529V111.539L88.6894 117.044V128.055L79.1553 133.559V111.538Z" fill="#F1EFED" />
    <path d="M88.6894 95.0234L98.2266 100.529L79.1553 111.538L69.6186 106.033V106.036L69.6155 106.034L88.6894 95.0234Z" fill="#F1EFED" />
    <path
        d="M98.2266 100.529L88.6894 95.0234L69.6155 106.034L69.6186 106.036M98.2266 100.529L79.1523 111.54M98.2266 100.529V111.539L88.6894 117.044V128.055L79.1553 133.559M98.2266 100.529L79.1553 111.538M79.1523 111.54L69.6186 106.036M79.1523 111.54V133.558M79.1553 111.538L69.6186 106.033V106.036M79.1553 111.538V133.559M69.6186 106.036V128.054L79.1523 133.558M79.1523 133.558V133.56L79.1553 133.559M79.1523 133.558L79.1553 133.56V133.559"
        stroke="black"
        stroke-width="2"
        stroke-miterlimit="10"
        stroke-linecap="round"
        stroke-linejoin="round"
    />
    <path d="M9.23311 62.526L29.3563 74.1427V120.617L9.23311 109.001V62.526Z" fill="black" />
    <path d="M29.3628 74.1392L69.6172 50.9017V74.1409L49.4867 85.7613V109.002L29.3628 120.619V74.1392Z" fill="#F1EFED" />
    <path d="M49.4867 39.2812L69.6156 50.9008L29.361 74.1382L9.23311 62.5187V62.526L9.2266 62.5222L49.4867 39.2812Z" fill="#F1EFED" />
    <path
        d="M69.6172 50.9017L29.3563 74.1427M69.6172 50.9017L29.3628 74.1392M69.6172 50.9017V74.1409M69.6172 50.9017L69.6156 50.9008M29.3563 74.1427L9.23311 62.526M29.3563 74.1427V120.617M29.3628 74.1392V120.619M29.3628 74.1392L29.361 74.1382M69.6172 74.1409L49.4867 85.7613V109.002L29.3628 120.619M69.6172 74.1409V50.8999L69.6156 50.9008M9.23311 62.526V109.001L29.3563 120.617M9.23311 62.526V62.5187L29.361 74.1382M9.23311 62.526L9.2266 62.5222L49.4867 39.2812L69.6156 50.9008M29.3563 120.617V74.1409L29.361 74.1382M29.3563 120.617V120.623L29.3628 120.619M29.3563 120.617L29.3628 120.621V120.619M69.6156 50.9008L29.361 74.1382"
        stroke="black"
        stroke-width="2"
        stroke-miterlimit="10"
        stroke-linecap="round"
        stroke-linejoin="round"
    />
    <path d="M370.464 310.556L349.388 300.772L345.261 254.481L366.336 264.265L370.464 310.556Z" fill="black" />
    <path d="M332.434 337.283L311.352 327.497L349.384 300.777L370.464 310.563L370.464 310.556L370.471 310.559L332.434 337.283Z" fill="black" />
    <path d="M328.306 290.986L326.241 267.837L345.254 254.48L349.382 300.776L311.351 327.496L309.287 304.348L328.306 290.986Z" fill="#F1EFED" />
    <path
        d="M311.351 327.496L349.388 300.772M311.351 327.496L311.352 327.497M311.351 327.496L349.382 300.776M311.351 327.496L309.287 304.348M349.388 300.772L370.464 310.556M349.388 300.772L345.261 254.481M349.382 300.776L349.384 300.777M349.382 300.776L345.254 254.48M309.287 304.348L328.306 290.986L326.241 267.837L345.254 254.48M309.287 304.348L311.351 327.498L311.352 327.497M370.464 310.556L366.336 264.265L345.261 254.481M370.464 310.556L370.464 310.563L349.384 300.777M370.464 310.556L370.471 310.559L332.434 337.283L311.352 327.497M345.261 254.481L349.389 300.774L349.384 300.777M345.261 254.481L345.26 254.475L345.254 254.48M345.261 254.481L345.254 254.478L345.254 254.48M311.352 327.497L349.384 300.777"
        stroke="black"
        stroke-width="2"
        stroke-miterlimit="10"
        stroke-linecap="round"
        stroke-linejoin="round"
    />
    <path d="M412.897 1.86555L320.411 85.6662L321.171 93.1276L412.897 1.86555Z" fill="black" stroke="black" stroke-width="2" stroke-linejoin="round" />
    <path d="M221.031 71.1451L206.388 107.112L249.518 126.028L264.161 90.0606L221.031 71.1451Z" fill="#F1EFED" />
    <path d="M206.388 107.112L123.4 189.221L166.53 208.137L249.518 126.028L206.388 107.112Z" fill="url(#paint0_linear_5616_21676)" />
    <path d="M221.031 71.1451L264.161 90.0606L303.817 49.6821L262.318 35.0514C261.625 34.8068 260.853 34.9627 260.308 35.4573L221.031 71.1451Z" fill="url(#paint1_linear_5616_21676)" />
    <path d="M123.4 189.221L91.1732 196.021L134.202 213.942L166.53 208.137L123.4 189.221Z" fill="#5869DD" />
    <path d="M87.3218 206.864L114.776 263.781C114.983 264.209 115.335 264.549 115.77 264.741L158.167 283.469L144.299 254.705L130.431 225.94L87.3218 206.864Z" fill="url(#paint2_linear_5616_21676)" />
    <path d="M130.431 225.94L134.202 213.942L91.1732 196.021L87.3218 206.864L130.431 225.94Z" fill="url(#paint3_linear_5616_21676)" />
    <path fill-rule="evenodd" clip-rule="evenodd" d="M326.501 69.3599L339.42 96.7356C339.777 97.4925 339.625 98.3917 339.04 98.9893L158.167 283.469L144.299 254.705L326.501 69.3599Z" fill="#5869DD" />
    <path d="M264.161 90.0606L249.518 126.028L166.53 208.137L134.202 213.942L130.431 225.94L144.299 254.705L326.501 69.3599L303.817 49.6821L264.161 90.0606Z" fill="url(#paint4_linear_5616_21676)" />
    <path
        d="M221.031 71.1451L206.388 107.112M221.031 71.1451L264.161 90.0606M221.031 71.1451L260.308 35.4573C260.853 34.9627 261.625 34.8068 262.318 35.0514L303.817 49.6821M206.388 107.112L123.4 189.221M206.388 107.112L249.518 126.028M123.4 189.221L91.1732 196.021M123.4 189.221L166.53 208.137M91.1732 196.021L134.202 213.942M91.1732 196.021L87.3218 206.864M130.431 225.94L134.202 213.942M130.431 225.94L87.3218 206.864M130.431 225.94L144.299 254.705M264.161 90.0606L249.518 126.028M264.161 90.0606L303.817 49.6821M249.518 126.028L166.53 208.137M166.53 208.137L134.202 213.942M87.3218 206.864L114.776 263.781C114.983 264.209 115.335 264.549 115.77 264.741L158.167 283.469M158.167 283.469L339.04 98.9893C339.625 98.3917 339.777 97.4925 339.42 96.7356L326.501 69.3599M158.167 283.469L144.299 254.705M303.817 49.6821L326.501 69.3599M144.299 254.705L326.501 69.3599"
        stroke="black"
        stroke-width="2"
        stroke-linejoin="round"
    />
    <path d="M257.791 54.6009C258.808 54.9517 260.398 54.6114 261.336 53.8251C262.295 53.0574 262.221 52.1204 261.185 51.781C260.138 51.4223 258.547 51.7625 257.628 52.5275C256.71 53.3125 256.764 54.2408 257.791 54.6009Z" fill="black" />
    <path d="M249.402 57.8056C250.38 58.1791 251.93 57.8416 252.839 57.0673C253.757 56.2823 253.684 55.3653 252.677 55.0039C251.669 54.6424 250.13 54.9892 249.23 55.7528C248.331 56.5264 248.404 57.4434 249.402 57.8056Z" fill="black" />
    <path d="M239.334 66.4579C240.261 66.8249 241.733 66.5128 242.633 65.7492C243.551 64.9742 243.489 64.0665 242.541 63.701C241.584 63.3361 240.123 63.6574 239.242 64.4096C238.373 65.1712 238.406 66.0909 239.334 66.4579Z" fill="black" />
    <path d="M251.001 62.6763C250.072 63.452 248.552 63.7874 247.604 63.4118C246.646 63.0469 246.603 62.1279 247.512 61.3536C248.42 60.5793 249.942 60.2638 250.91 60.628C251.896 60.9809 251.93 61.9106 251.001 62.6763Z" fill="black" />
    <path d="M261.629 73.4586C260.629 74.2291 259.067 74.5474 258.169 74.1684C257.25 73.7808 257.307 72.8548 258.295 72.075C259.295 71.3045 260.836 70.9777 261.784 71.3532C262.711 71.7202 262.645 72.6468 261.629 73.4586Z" fill="black" />
    <path d="M269.498 65.3388C270.485 65.6917 272.106 65.3593 273.144 64.5661C274.181 63.7629 274.207 62.8291 273.209 62.457C272.211 62.0948 270.591 62.4371 269.584 63.2382C268.566 64.0301 268.519 64.9553 269.498 65.3388Z" fill="black" />
    <path d="M249.004 68.3063C248.084 69.0713 246.572 69.3761 245.655 69.0184C244.727 68.6415 244.733 67.709 245.643 66.9547C246.562 66.1797 248.053 65.8563 249.001 66.2319C249.929 66.6088 249.943 67.5299 249.004 68.3063Z" fill="black" />
    <path d="M256.14 60.3072C257.117 60.6708 258.688 60.3319 259.636 59.5449C260.604 58.7565 260.561 57.8474 259.554 57.4859C258.546 57.1145 256.985 57.4427 256.047 58.239C255.119 59.0147 255.152 59.9344 256.14 60.3072Z" fill="black" />
    <path d="M257.57 65.1997C256.612 65.9774 255.052 66.3255 254.104 65.95C253.156 65.5744 253.162 64.6519 254.101 63.8756C255.049 63.0885 256.58 62.7624 257.557 63.1259C258.535 63.4894 258.538 64.4113 257.57 65.1997Z" fill="black" />
    <path d="M264.727 57.0589C265.754 57.419 267.364 57.0773 268.343 56.2982C269.34 55.4978 269.286 54.5695 268.259 54.2094C267.213 53.8706 265.603 54.2122 264.643 54.98C263.667 55.789 263.72 56.7074 264.727 57.0589Z" fill="black" />
    <path d="M255.335 70.8661C254.356 71.6452 252.835 71.9607 251.927 71.5924C251.007 71.1948 251.045 70.2802 251.983 69.5038C252.943 68.7361 254.463 68.4007 255.392 68.7876C256.34 69.1532 256.304 70.0877 255.335 70.8661Z" fill="black" />
    <path d="M262.848 62.811C263.816 63.1752 265.417 62.8442 266.414 62.0438C267.412 61.2533 267.408 60.3216 266.41 59.9594C265.403 59.598 263.813 59.9382 262.835 60.7273C261.856 61.5064 261.86 62.4382 262.848 62.811Z" fill="black" />
    <path d="M264.101 67.7457C263.102 68.5262 261.512 68.8664 260.574 68.4902C259.616 68.1153 259.652 67.1808 260.641 66.4109C261.628 65.6112 263.2 65.2923 264.167 65.6565C265.125 66.0214 265.099 66.9553 264.101 67.7457Z" fill="black" />
    <path d="M271.644 59.5382C272.642 59.9103 274.282 59.5666 275.299 58.7648C276.329 57.9923 276.323 57.0405 275.296 56.6804C274.259 56.321 272.628 56.664 271.62 57.4452C270.622 58.2456 270.637 59.1767 271.644 59.5382Z" fill="black" />
    <path
        fill-rule="evenodd"
        clip-rule="evenodd"
        d="M170.989 258.519C173.911 256.219 175.045 252.788 173.523 250.854C172.772 249.899 171.513 249.488 170.08 249.594C166.144 255.19 165.513 257.563 167.593 260.24C168.725 259.951 169.904 259.373 170.989 258.519Z"
        fill="black"
    />
    <path d="M165.478 251.516C162.556 253.816 161.421 257.247 162.943 259.181C163.9 260.397 165.678 260.731 167.593 260.24C165.513 257.563 166.144 255.19 170.08 249.594C168.61 249.701 166.957 250.352 165.478 251.516Z" fill="#F1EFED" />
    <path
        d="M170.08 249.594C168.61 249.701 166.957 250.352 165.478 251.516C162.556 253.816 161.421 257.247 162.943 259.181C163.9 260.397 165.678 260.731 167.593 260.24M170.08 249.594C171.513 249.488 172.772 249.899 173.523 250.854C175.045 252.788 173.911 256.219 170.989 258.519C169.904 259.373 168.725 259.951 167.593 260.24M170.08 249.594C166.144 255.19 165.513 257.563 167.593 260.24"
        stroke="black"
        stroke-width="1.57725"
    />
    <path d="M198.46 157.361L204.789 160.519L202.733 163.043L200.677 165.568L194.419 162.354L198.46 157.361Z" fill="#F1EFED" />
    <path d="M200.677 165.568L194.419 162.354L194.546 163.585L200.897 166.951L200.677 165.568Z" fill="black" />
    <path d="M200.677 165.568L200.897 166.951L202.921 164.499L202.733 163.043L200.677 165.568Z" fill="black" />
    <path d="M204.946 162.047L204.789 160.519L202.733 163.043L202.921 164.499L204.946 162.047Z" fill="#F1EFED" />
    <path
        d="M198.46 157.361L198.612 157.057C198.469 156.986 198.296 157.023 198.196 157.147L198.46 157.361ZM204.789 160.519L205.127 160.484C205.115 160.368 205.045 160.267 204.941 160.215L204.789 160.519ZM194.419 162.354L194.155 162.14C194.098 162.21 194.072 162.299 194.081 162.389L194.419 162.354ZM200.897 166.951L200.737 167.252C200.88 167.327 201.056 167.292 201.159 167.168L200.897 166.951ZM204.946 162.047L205.208 162.264C205.266 162.194 205.294 162.103 205.284 162.013L204.946 162.047ZM194.546 163.585L194.208 163.62C194.219 163.733 194.286 163.833 194.387 163.886L194.546 163.585ZM202.733 163.043L202.469 162.829L202.469 162.829L202.733 163.043ZM198.308 157.666L204.637 160.823L204.941 160.215L198.612 157.057L198.308 157.666ZM200.832 165.266L194.575 162.051L194.264 162.656L200.522 165.871L200.832 165.266ZM194.684 162.568L198.724 157.575L198.196 157.147L194.155 162.14L194.684 162.568ZM200.341 165.621L200.561 167.004L201.232 166.898L201.013 165.515L200.341 165.621ZM205.284 162.013L205.127 160.484L204.451 160.554L204.608 162.082L205.284 162.013ZM201.056 166.651L194.705 163.285L194.387 163.886L200.737 167.252L201.056 166.651ZM194.884 163.55L194.757 162.319L194.081 162.389L194.208 163.62L194.884 163.55ZM204.525 160.304L202.469 162.829L202.997 163.258L205.053 160.734L204.525 160.304ZM202.469 162.829L200.413 165.353L200.941 165.783L202.997 163.258L202.469 162.829ZM201.159 167.168L203.184 164.716L202.659 164.283L200.634 166.735L201.159 167.168ZM203.184 164.716L205.208 162.264L204.684 161.831L202.659 164.283L203.184 164.716ZM202.396 163.087L202.584 164.543L203.259 164.456L203.07 163L202.396 163.087Z"
        fill="black"
    />
    <path d="M207.112 146.456L213.418 149.659L211.344 152.169L209.27 154.679L203.035 151.419L207.112 146.456Z" fill="#F1EFED" />
    <path d="M209.27 154.679L203.035 151.419L203.153 152.652L209.48 156.063L209.27 154.679Z" fill="black" />
    <path d="M209.27 154.679L209.48 156.063L211.522 153.626L211.344 152.169L209.27 154.679Z" fill="black" />
    <path d="M213.564 151.189L213.418 149.659L211.344 152.169L211.522 153.626L213.564 151.189Z" fill="#F1EFED" />
    <path
        d="M207.112 146.456L207.266 146.153C207.123 146.081 206.95 146.117 206.849 146.24L207.112 146.456ZM213.418 149.659L213.757 149.627C213.745 149.511 213.676 149.409 213.572 149.356L213.418 149.659ZM203.035 151.419L202.773 151.204C202.716 151.273 202.688 151.362 202.697 151.452L203.035 151.419ZM209.48 156.063L209.318 156.362C209.46 156.439 209.636 156.405 209.74 156.282L209.48 156.063ZM213.564 151.189L213.825 151.407C213.883 151.337 213.911 151.247 213.903 151.156L213.564 151.189ZM203.153 152.652L202.815 152.684C202.826 152.797 202.892 152.897 202.992 152.951L203.153 152.652ZM211.344 152.169L211.082 151.952L211.082 151.952L211.344 152.169ZM206.958 146.759L213.264 149.962L213.572 149.356L207.266 146.153L206.958 146.759ZM209.427 154.377L203.193 151.118L202.878 151.721L209.112 154.98L209.427 154.377ZM203.298 151.635L207.374 146.672L206.849 146.24L202.773 151.204L203.298 151.635ZM208.934 154.73L209.143 156.114L209.816 156.012L209.606 154.628L208.934 154.73ZM213.903 151.156L213.757 149.627L213.08 149.691L213.226 151.221L213.903 151.156ZM209.641 155.764L203.315 152.353L202.992 152.951L209.318 156.362L209.641 155.764ZM203.492 152.619L203.374 151.387L202.697 151.452L202.815 152.684L203.492 152.619ZM213.156 149.442L211.082 151.952L211.606 152.385L213.68 149.876L213.156 149.442ZM211.082 151.952L209.008 154.462L209.532 154.895L211.606 152.385L211.082 151.952ZM209.74 156.282L211.783 153.844L211.261 153.408L209.219 155.845L209.74 156.282ZM211.783 153.844L213.825 151.407L213.304 150.97L211.261 153.408L211.783 153.844ZM211.006 152.21L211.184 153.667L211.859 153.585L211.681 152.128L211.006 152.21Z"
        fill="black"
    />
    <path d="M216.21 136.416L222.539 139.574L220.483 142.098L218.427 144.623L212.169 141.408L216.21 136.416Z" fill="#F1EFED" />
    <path d="M218.427 144.623L212.169 141.408L212.296 142.64L218.647 146.006L218.427 144.623Z" fill="black" />
    <path d="M218.427 144.623L218.647 146.006L220.671 143.554L220.483 142.098L218.427 144.623Z" fill="black" />
    <path d="M222.696 141.102L222.539 139.574L220.483 142.098L220.671 143.554L222.696 141.102Z" fill="#F1EFED" />
    <path
        d="M216.21 136.416L216.362 136.112C216.219 136.041 216.046 136.078 215.946 136.202L216.21 136.416ZM222.539 139.574L222.877 139.539C222.865 139.423 222.795 139.321 222.691 139.269L222.539 139.574ZM212.169 141.408L211.905 141.195C211.848 141.264 211.822 141.354 211.831 141.443L212.169 141.408ZM218.647 146.006L218.487 146.306C218.63 146.382 218.806 146.347 218.909 146.222L218.647 146.006ZM222.696 141.102L222.958 141.319C223.016 141.248 223.044 141.158 223.034 141.067L222.696 141.102ZM212.296 142.64L211.958 142.675C211.969 142.788 212.036 142.887 212.137 142.94L212.296 142.64ZM220.483 142.098L220.219 141.883L220.219 141.883L220.483 142.098ZM216.058 136.72L222.387 139.878L222.691 139.269L216.362 136.112L216.058 136.72ZM218.582 144.32L212.325 141.106L212.014 141.711L218.272 144.925L218.582 144.32ZM212.434 141.622L216.474 136.63L215.946 136.202L211.905 141.195L212.434 141.622ZM218.091 144.676L218.311 146.059L218.982 145.953L218.763 144.569L218.091 144.676ZM223.034 141.067L222.877 139.539L222.201 139.608L222.358 141.137L223.034 141.067ZM218.806 145.705L212.455 142.339L212.137 142.94L218.487 146.306L218.806 145.705ZM212.634 142.605L212.507 141.374L211.831 141.443L211.958 142.675L212.634 142.605ZM222.275 139.359L220.219 141.883L220.747 142.313L222.803 139.788L222.275 139.359ZM220.219 141.883L218.163 144.408L218.691 144.838L220.747 142.313L220.219 141.883ZM218.909 146.222L220.934 143.771L220.409 143.337L218.384 145.789L218.909 146.222ZM220.934 143.771L222.958 141.319L222.434 140.886L220.409 143.337L220.934 143.771ZM220.146 142.142L220.334 143.598L221.009 143.51L220.82 142.055L220.146 142.142Z"
        fill="black"
    />
    <path d="M225.299 127.261L231.606 130.464L229.531 132.973L227.457 135.483L221.223 132.224L225.299 127.261Z" fill="#F1EFED" />
    <path d="M227.457 135.483L221.223 132.224L221.341 133.457L227.667 136.868L227.457 135.483Z" fill="black" />
    <path d="M227.457 135.483L227.667 136.868L229.709 134.431L229.531 132.973L227.457 135.483Z" fill="black" />
    <path d="M231.752 131.993L231.606 130.464L229.531 132.973L229.709 134.431L231.752 131.993Z" fill="#F1EFED" />
    <path
        d="M225.299 127.261L225.453 126.958C225.311 126.886 225.138 126.922 225.036 127.045L225.299 127.261ZM231.606 130.464L231.944 130.431C231.933 130.315 231.863 130.213 231.76 130.161L231.606 130.464ZM221.223 132.224L220.96 132.008C220.903 132.078 220.876 132.167 220.884 132.257L221.223 132.224ZM227.667 136.868L227.506 137.167C227.648 137.244 227.824 137.21 227.928 137.086L227.667 136.868ZM231.752 131.993L232.012 132.212C232.071 132.142 232.099 132.052 232.09 131.961L231.752 131.993ZM221.341 133.457L221.002 133.489C221.013 133.602 221.079 133.702 221.179 133.756L221.341 133.457ZM229.531 132.973L229.269 132.757L229.269 132.757L229.531 132.973ZM225.145 127.564L231.452 130.767L231.76 130.161L225.453 126.958L225.145 127.564ZM227.615 135.182L221.38 131.923L221.065 132.525L227.3 135.785L227.615 135.182ZM221.486 132.44L225.562 127.477L225.036 127.045L220.96 132.008L221.486 132.44ZM227.121 135.534L227.331 136.919L228.003 136.817L227.793 135.432L227.121 135.534ZM232.09 131.961L231.944 130.431L231.267 130.496L231.413 132.026L232.09 131.961ZM227.828 136.569L221.502 133.157L221.179 133.756L227.506 137.167L227.828 136.569ZM221.679 133.424L221.561 132.192L220.884 132.257L221.002 133.489L221.679 133.424ZM231.343 130.247L229.269 132.757L229.794 133.19L231.868 130.68L231.343 130.247ZM229.269 132.757L227.195 135.267L227.719 135.7L229.794 133.19L229.269 132.757ZM227.928 137.086L229.97 134.649L229.449 134.212L227.406 136.649L227.928 137.086ZM229.97 134.649L232.012 132.212L231.491 131.775L229.449 134.212L229.97 134.649ZM229.194 133.015L229.372 134.472L230.047 134.389L229.869 132.932L229.194 133.015Z"
        fill="black"
    />
    <path d="M186.741 151.986L193.07 155.144L191.014 157.668L188.958 160.193L182.7 156.979L186.741 151.986Z" fill="#F1EFED" />
    <path d="M188.958 160.193L182.7 156.979L182.827 158.21L189.178 161.576L188.958 160.193Z" fill="black" />
    <path d="M188.958 160.193L189.178 161.576L191.203 159.124L191.014 157.668L188.958 160.193Z" fill="black" />
    <path d="M193.228 156.672L193.07 155.144L191.014 157.668L191.203 159.124L193.228 156.672Z" fill="#F1EFED" />
    <path
        d="M186.741 151.986L186.893 151.682C186.75 151.611 186.577 151.648 186.477 151.772L186.741 151.986ZM193.07 155.144L193.409 155.109C193.397 154.993 193.326 154.892 193.222 154.84L193.07 155.144ZM182.7 156.979L182.436 156.765C182.38 156.835 182.353 156.924 182.362 157.014L182.7 156.979ZM189.178 161.576L189.019 161.877C189.161 161.952 189.337 161.917 189.44 161.793L189.178 161.576ZM193.228 156.672L193.49 156.889C193.548 156.819 193.575 156.728 193.566 156.638L193.228 156.672ZM182.827 158.21L182.489 158.245C182.501 158.358 182.568 158.458 182.668 158.511L182.827 158.21ZM191.014 157.668L190.751 157.454L190.751 157.454L191.014 157.668ZM186.589 152.291L192.919 155.448L193.222 154.84L186.893 151.682L186.589 152.291ZM189.113 159.891L182.856 156.676L182.545 157.281L188.803 160.496L189.113 159.891ZM182.965 157.193L187.005 152.2L186.477 151.772L182.436 156.765L182.965 157.193ZM188.622 160.246L188.842 161.629L189.514 161.523L189.294 160.14L188.622 160.246ZM193.566 156.638L193.409 155.109L192.732 155.179L192.889 156.707L193.566 156.638ZM189.337 161.276L182.986 157.91L182.668 158.511L189.019 161.877L189.337 161.276ZM183.165 158.175L183.039 156.944L182.362 157.014L182.489 158.245L183.165 158.175ZM192.807 154.929L190.751 157.454L191.278 157.883L193.334 155.359L192.807 154.929ZM190.751 157.454L188.695 159.978L189.222 160.408L191.278 157.883L190.751 157.454ZM189.44 161.793L191.465 159.341L190.94 158.908L188.916 161.36L189.44 161.793ZM191.465 159.341L193.49 156.889L192.965 156.456L190.94 158.908L191.465 159.341ZM190.677 157.712L190.865 159.168L191.54 159.081L191.351 157.625L190.677 157.712Z"
        fill="black"
    />
    <path d="M195.393 141.081L201.699 144.284L199.625 146.794L197.551 149.304L191.317 146.044L195.393 141.081Z" fill="#F1EFED" />
    <path d="M197.551 149.304L191.317 146.044L191.434 147.277L197.761 150.688L197.551 149.304Z" fill="black" />
    <path d="M197.551 149.304L197.761 150.688L199.803 148.251L199.625 146.794L197.551 149.304Z" fill="black" />
    <path d="M201.846 145.814L201.699 144.284L199.625 146.794L199.803 148.251L201.846 145.814Z" fill="#F1EFED" />
    <path
        d="M195.393 141.081L195.547 140.778C195.405 140.706 195.231 140.742 195.13 140.865L195.393 141.081ZM201.699 144.284L202.038 144.252C202.027 144.136 201.957 144.034 201.853 143.981L201.699 144.284ZM191.317 146.044L191.054 145.829C190.997 145.898 190.97 145.987 190.978 146.077L191.317 146.044ZM197.761 150.688L197.599 150.987C197.741 151.064 197.918 151.03 198.021 150.907L197.761 150.688ZM201.846 145.814L202.106 146.032C202.165 145.962 202.193 145.872 202.184 145.781L201.846 145.814ZM191.434 147.277L191.096 147.309C191.107 147.422 191.173 147.522 191.273 147.576L191.434 147.277ZM199.625 146.794L199.363 146.577L199.363 146.577L199.625 146.794ZM195.239 141.384L201.545 144.587L201.853 143.981L195.547 140.778L195.239 141.384ZM197.709 149.002L191.474 145.743L191.159 146.346L197.394 149.605L197.709 149.002ZM191.579 146.26L195.656 141.297L195.13 140.865L191.054 145.829L191.579 146.26ZM197.215 149.355L197.425 150.739L198.097 150.637L197.887 149.253L197.215 149.355ZM202.184 145.781L202.038 144.252L201.361 144.316L201.507 145.846L202.184 145.781ZM197.922 150.389L191.596 146.978L191.273 147.576L197.599 150.987L197.922 150.389ZM191.773 147.244L191.655 146.012L190.978 146.077L191.096 147.309L191.773 147.244ZM201.437 144.067L199.363 146.577L199.887 147.01L201.961 144.501L201.437 144.067ZM199.363 146.577L197.289 149.087L197.813 149.52L199.887 147.01L199.363 146.577ZM198.021 150.907L200.064 148.469L199.543 148.033L197.5 150.47L198.021 150.907ZM200.064 148.469L202.106 146.032L201.585 145.595L199.543 148.033L200.064 148.469ZM199.288 146.835L199.466 148.292L200.141 148.21L199.963 146.753L199.288 146.835Z"
        fill="black"
    />
    <path d="M204.491 131.041L210.82 134.199L208.764 136.723L206.708 139.248L200.45 136.033L204.491 131.041Z" fill="#F1EFED" />
    <path d="M206.708 139.248L200.45 136.033L200.577 137.265L206.928 140.631L206.708 139.248Z" fill="black" />
    <path d="M206.708 139.248L206.928 140.631L208.953 138.179L208.764 136.723L206.708 139.248Z" fill="black" />
    <path d="M210.978 135.727L210.82 134.199L208.764 136.723L208.953 138.179L210.978 135.727Z" fill="#F1EFED" />
    <path
        d="M204.491 131.041L204.643 130.737C204.5 130.666 204.327 130.703 204.227 130.827L204.491 131.041ZM210.82 134.199L211.159 134.164C211.147 134.048 211.076 133.946 210.972 133.894L210.82 134.199ZM200.45 136.033L200.186 135.82C200.13 135.889 200.103 135.979 200.112 136.068L200.45 136.033ZM206.928 140.631L206.769 140.931C206.911 141.007 207.087 140.972 207.19 140.847L206.928 140.631ZM210.978 135.727L211.24 135.944C211.298 135.873 211.325 135.783 211.316 135.692L210.978 135.727ZM200.577 137.265L200.239 137.3C200.251 137.413 200.318 137.512 200.418 137.565L200.577 137.265ZM208.764 136.723L208.501 136.508L208.501 136.508L208.764 136.723ZM204.339 131.345L210.669 134.503L210.972 133.894L204.643 130.737L204.339 131.345ZM206.863 138.945L200.606 135.731L200.295 136.336L206.553 139.55L206.863 138.945ZM200.715 136.247L204.755 131.255L204.227 130.827L200.186 135.82L200.715 136.247ZM206.372 139.301L206.592 140.684L207.264 140.578L207.044 139.194L206.372 139.301ZM211.316 135.692L211.159 134.164L210.482 134.233L210.639 135.762L211.316 135.692ZM207.087 140.33L200.736 136.964L200.418 137.565L206.769 140.931L207.087 140.33ZM200.915 137.23L200.789 135.999L200.112 136.068L200.239 137.3L200.915 137.23ZM210.557 133.984L208.501 136.508L209.028 136.938L211.084 134.413L210.557 133.984ZM208.501 136.508L206.445 139.033L206.972 139.463L209.028 136.938L208.501 136.508ZM207.19 140.847L209.215 138.396L208.69 137.962L206.666 140.414L207.19 140.847ZM209.215 138.396L211.24 135.944L210.715 135.511L208.69 137.962L209.215 138.396ZM208.427 136.767L208.615 138.223L209.29 138.135L209.101 136.68L208.427 136.767Z"
        fill="black"
    />
    <path d="M213.58 121.886L219.887 125.089L217.813 127.598L215.739 130.108L209.504 126.849L213.58 121.886Z" fill="#F1EFED" />
    <path d="M215.739 130.108L209.504 126.849L209.622 128.082L215.948 131.493L215.739 130.108Z" fill="black" />
    <path d="M215.739 130.108L215.948 131.493L217.991 129.056L217.813 127.598L215.739 130.108Z" fill="black" />
    <path d="M220.033 126.618L219.887 125.089L217.813 127.598L217.991 129.056L220.033 126.618Z" fill="#F1EFED" />
    <path
        d="M213.58 121.886L213.734 121.583C213.592 121.511 213.419 121.547 213.318 121.67L213.58 121.886ZM219.887 125.089L220.225 125.056C220.214 124.94 220.145 124.838 220.041 124.786L219.887 125.089ZM209.504 126.849L209.241 126.633C209.184 126.703 209.157 126.792 209.166 126.882L209.504 126.849ZM215.948 131.493L215.787 131.792C215.929 131.869 216.105 131.835 216.209 131.711L215.948 131.493ZM220.033 126.618L220.294 126.837C220.352 126.767 220.38 126.677 220.372 126.586L220.033 126.618ZM209.622 128.082L209.283 128.114C209.294 128.227 209.361 128.327 209.461 128.381L209.622 128.082ZM217.813 127.598L217.551 127.382L217.551 127.382L217.813 127.598ZM213.426 122.189L219.733 125.392L220.041 124.786L213.734 121.583L213.426 122.189ZM215.896 129.807L209.662 126.548L209.347 127.15L215.581 130.41L215.896 129.807ZM209.767 127.065L213.843 122.102L213.318 121.67L209.241 126.633L209.767 127.065ZM215.402 130.159L215.612 131.544L216.284 131.442L216.075 130.057L215.402 130.159ZM220.372 126.586L220.225 125.056L219.548 125.121L219.695 126.651L220.372 126.586ZM216.11 131.194L209.783 127.782L209.461 128.381L215.787 131.792L216.11 131.194ZM209.96 128.049L209.843 126.817L209.166 126.882L209.283 128.114L209.96 128.049ZM219.625 124.872L217.551 127.382L218.075 127.815L220.149 125.305L219.625 124.872ZM217.551 127.382L215.476 129.892L216.001 130.325L218.075 127.815L217.551 127.382ZM216.209 131.711L218.251 129.274L217.73 128.837L215.688 131.274L216.209 131.711ZM218.251 129.274L220.294 126.837L219.772 126.4L217.73 128.837L218.251 129.274ZM217.475 127.64L217.653 129.097L218.328 129.014L218.15 127.557L217.475 127.64Z"
        fill="black"
    />
    <path d="M175.835 145.986L182.164 149.144L180.108 151.668L178.052 154.193L171.794 150.979L175.835 145.986Z" fill="#F1EFED" />
    <path d="M178.052 154.193L171.794 150.979L171.921 152.21L178.272 155.576L178.052 154.193Z" fill="black" />
    <path d="M178.052 154.193L178.272 155.576L180.296 153.124L180.108 151.668L178.052 154.193Z" fill="black" />
    <path d="M182.321 150.672L182.164 149.144L180.108 151.668L180.296 153.124L182.321 150.672Z" fill="#F1EFED" />
    <path
        d="M175.835 145.986L175.987 145.682C175.844 145.611 175.671 145.648 175.571 145.772L175.835 145.986ZM182.164 149.144L182.502 149.109C182.49 148.993 182.42 148.892 182.316 148.84L182.164 149.144ZM171.794 150.979L171.53 150.765C171.473 150.835 171.447 150.924 171.456 151.014L171.794 150.979ZM178.272 155.576L178.112 155.877C178.255 155.952 178.431 155.917 178.534 155.793L178.272 155.576ZM182.321 150.672L182.583 150.889C182.641 150.819 182.669 150.728 182.659 150.638L182.321 150.672ZM171.921 152.21L171.583 152.245C171.594 152.358 171.661 152.458 171.762 152.511L171.921 152.21ZM180.108 151.668L179.844 151.454L179.844 151.454L180.108 151.668ZM175.683 146.291L182.012 149.448L182.316 148.84L175.987 145.682L175.683 146.291ZM178.207 153.891L171.95 150.676L171.639 151.281L177.897 154.496L178.207 153.891ZM172.059 151.193L176.099 146.2L175.571 145.772L171.53 150.765L172.059 151.193ZM177.716 154.246L177.936 155.629L178.607 155.523L178.388 154.14L177.716 154.246ZM182.659 150.638L182.502 149.109L181.826 149.179L181.983 150.707L182.659 150.638ZM178.431 155.276L172.08 151.91L171.762 152.511L178.112 155.877L178.431 155.276ZM172.259 152.175L172.132 150.944L171.456 151.014L171.583 152.245L172.259 152.175ZM181.9 148.929L179.844 151.454L180.372 151.883L182.428 149.359L181.9 148.929ZM179.844 151.454L177.788 153.978L178.316 154.408L180.372 151.883L179.844 151.454ZM178.534 155.793L180.559 153.341L180.034 152.908L178.009 155.36L178.534 155.793ZM180.559 153.341L182.583 150.889L182.059 150.456L180.034 152.908L180.559 153.341ZM179.771 151.712L179.959 153.168L180.634 153.081L180.445 151.625L179.771 151.712Z"
        fill="black"
    />
    <path d="M184.487 135.081L190.793 138.284L188.719 140.794L186.645 143.304L180.41 140.044L184.487 135.081Z" fill="#F1EFED" />
    <path d="M186.645 143.304L180.41 140.044L180.528 141.277L186.855 144.688L186.645 143.304Z" fill="black" />
    <path d="M186.645 143.304L186.855 144.688L188.897 142.251L188.719 140.794L186.645 143.304Z" fill="black" />
    <path d="M190.939 139.814L190.793 138.284L188.719 140.794L188.897 142.251L190.939 139.814Z" fill="#F1EFED" />
    <path
        d="M184.487 135.081L184.641 134.778C184.498 134.706 184.325 134.742 184.224 134.865L184.487 135.081ZM190.793 138.284L191.132 138.252C191.12 138.136 191.051 138.034 190.947 137.981L190.793 138.284ZM180.41 140.044L180.148 139.829C180.091 139.898 180.063 139.987 180.072 140.077L180.41 140.044ZM186.855 144.688L186.693 144.987C186.835 145.064 187.011 145.03 187.115 144.907L186.855 144.688ZM190.939 139.814L191.2 140.032C191.258 139.962 191.286 139.872 191.278 139.781L190.939 139.814ZM180.528 141.277L180.19 141.309C180.201 141.422 180.267 141.522 180.367 141.576L180.528 141.277ZM188.719 140.794L188.457 140.577L188.457 140.577L188.719 140.794ZM184.333 135.384L190.639 138.587L190.947 137.981L184.641 134.778L184.333 135.384ZM186.802 143.002L180.568 139.743L180.253 140.346L186.487 143.605L186.802 143.002ZM180.673 140.26L184.749 135.297L184.224 134.865L180.148 139.829L180.673 140.26ZM186.309 143.355L186.518 144.739L187.191 144.637L186.981 143.253L186.309 143.355ZM191.278 139.781L191.132 138.252L190.455 138.316L190.601 139.846L191.278 139.781ZM187.016 144.389L180.69 140.978L180.367 141.576L186.693 144.987L187.016 144.389ZM180.867 141.244L180.749 140.012L180.072 140.077L180.19 141.309L180.867 141.244ZM190.531 138.067L188.457 140.577L188.981 141.01L191.055 138.501L190.531 138.067ZM188.457 140.577L186.383 143.087L186.907 143.52L188.981 141.01L188.457 140.577ZM187.115 144.907L189.158 142.469L188.636 142.033L186.594 144.47L187.115 144.907ZM189.158 142.469L191.2 140.032L190.679 139.595L188.636 142.033L189.158 142.469ZM188.381 140.835L188.559 142.292L189.234 142.21L189.056 140.753L188.381 140.835Z"
        fill="black"
    />
    <path d="M193.585 125.041L199.914 128.199L197.858 130.723L195.802 133.248L189.544 130.033L193.585 125.041Z" fill="#F1EFED" />
    <path d="M195.802 133.248L189.544 130.033L189.671 131.265L196.022 134.631L195.802 133.248Z" fill="black" />
    <path d="M195.802 133.248L196.022 134.631L198.046 132.179L197.858 130.723L195.802 133.248Z" fill="black" />
    <path d="M200.071 129.727L199.914 128.199L197.858 130.723L198.046 132.179L200.071 129.727Z" fill="#F1EFED" />
    <path
        d="M193.585 125.041L193.737 124.737C193.594 124.666 193.421 124.703 193.321 124.827L193.585 125.041ZM199.914 128.199L200.252 128.164C200.24 128.048 200.17 127.946 200.066 127.894L199.914 128.199ZM189.544 130.033L189.28 129.82C189.223 129.889 189.197 129.979 189.206 130.068L189.544 130.033ZM196.022 134.631L195.862 134.931C196.005 135.007 196.181 134.972 196.284 134.847L196.022 134.631ZM200.071 129.727L200.333 129.944C200.391 129.873 200.419 129.783 200.409 129.692L200.071 129.727ZM189.671 131.265L189.333 131.3C189.344 131.413 189.411 131.512 189.512 131.565L189.671 131.265ZM197.858 130.723L197.594 130.508L197.594 130.508L197.858 130.723ZM193.433 125.345L199.762 128.503L200.066 127.894L193.737 124.737L193.433 125.345ZM195.957 132.945L189.7 129.731L189.389 130.336L195.647 133.55L195.957 132.945ZM189.809 130.247L193.849 125.255L193.321 124.827L189.28 129.82L189.809 130.247ZM195.466 133.301L195.686 134.684L196.357 134.578L196.138 133.194L195.466 133.301ZM200.409 129.692L200.252 128.164L199.576 128.233L199.733 129.762L200.409 129.692ZM196.181 134.33L189.83 130.964L189.512 131.565L195.862 134.931L196.181 134.33ZM190.009 131.23L189.882 129.999L189.206 130.068L189.333 131.3L190.009 131.23ZM199.65 127.984L197.594 130.508L198.122 130.938L200.178 128.413L199.65 127.984ZM197.594 130.508L195.538 133.033L196.066 133.463L198.122 130.938L197.594 130.508ZM196.284 134.847L198.309 132.396L197.784 131.962L195.759 134.414L196.284 134.847ZM198.309 132.396L200.333 129.944L199.809 129.511L197.784 131.962L198.309 132.396ZM197.521 130.767L197.709 132.223L198.384 132.135L198.195 130.68L197.521 130.767Z"
        fill="black"
    />
    <path d="M202.674 115.886L208.981 119.089L206.906 121.598L204.832 124.108L198.598 120.849L202.674 115.886Z" fill="#F1EFED" />
    <path d="M204.832 124.108L198.598 120.849L198.716 122.082L205.042 125.493L204.832 124.108Z" fill="black" />
    <path d="M204.832 124.108L205.042 125.493L207.084 123.056L206.906 121.598L204.832 124.108Z" fill="black" />
    <path d="M209.127 120.618L208.981 119.089L206.906 121.598L207.084 123.056L209.127 120.618Z" fill="#F1EFED" />
    <path
        d="M202.674 115.886L202.828 115.583C202.686 115.511 202.513 115.547 202.411 115.67L202.674 115.886ZM208.981 119.089L209.319 119.056C209.308 118.94 209.238 118.838 209.135 118.786L208.981 119.089ZM198.598 120.849L198.335 120.633C198.278 120.703 198.251 120.792 198.259 120.882L198.598 120.849ZM205.042 125.493L204.881 125.792C205.023 125.869 205.199 125.835 205.303 125.711L205.042 125.493ZM209.127 120.618L209.387 120.837C209.446 120.767 209.474 120.677 209.465 120.586L209.127 120.618ZM198.716 122.082L198.377 122.114C198.388 122.227 198.454 122.327 198.554 122.381L198.716 122.082ZM206.906 121.598L206.644 121.382L206.644 121.382L206.906 121.598ZM202.52 116.189L208.827 119.392L209.135 118.786L202.828 115.583L202.52 116.189ZM204.99 123.807L198.755 120.548L198.44 121.15L204.675 124.41L204.99 123.807ZM198.861 121.065L202.937 116.102L202.411 115.67L198.335 120.633L198.861 121.065ZM204.496 124.159L204.706 125.544L205.378 125.442L205.168 124.057L204.496 124.159ZM209.465 120.586L209.319 119.056L208.642 119.121L208.788 120.651L209.465 120.586ZM205.203 125.194L198.877 121.782L198.554 122.381L204.881 125.792L205.203 125.194ZM199.054 122.049L198.936 120.817L198.259 120.882L198.377 122.114L199.054 122.049ZM208.718 118.872L206.644 121.382L207.169 121.815L209.243 119.305L208.718 118.872ZM206.644 121.382L204.57 123.892L205.094 124.325L207.169 121.815L206.644 121.382ZM205.303 125.711L207.345 123.274L206.824 122.837L204.781 125.274L205.303 125.711ZM207.345 123.274L209.387 120.837L208.866 120.4L206.824 122.837L207.345 123.274ZM206.569 121.64L206.747 123.097L207.422 123.014L207.244 121.557L206.569 121.64Z"
        fill="black"
    />
    <path d="M168.618 175.093C166.974 176.146 166.428 178.078 167.4 179.408C167.4 179.408 168.959 178.061 170.679 176.705C172.398 175.348 173.355 175.593 173.355 175.593C172.383 174.263 170.263 174.039 168.618 175.093Z" fill="black" />
    <path
        fill-rule="evenodd"
        clip-rule="evenodd"
        d="M173.355 175.593C174.327 176.922 173.782 178.854 172.137 179.908C171.768 180.144 171.374 180.317 170.975 180.426L170.679 176.705C172.398 175.348 173.355 175.593 173.355 175.593Z"
        fill="#F1EFED"
    />
    <path d="M170.679 176.705C168.959 178.061 167.4 179.408 167.4 179.408C168.154 180.439 169.598 180.805 170.975 180.426L170.679 176.705Z" fill="black" />
    <path
        d="M170.605 180.172C169.542 180.384 168.509 180.11 167.876 179.45C167.887 179.442 167.897 179.433 167.908 179.423C168.08 179.276 168.328 179.066 168.63 178.814C169.109 178.413 169.722 177.907 170.382 177.377L170.605 180.172ZM171.289 179.968L171.041 176.856C171.803 176.279 172.381 176.049 172.755 175.96C172.935 175.917 173.069 175.906 173.157 175.906C173.866 177.041 173.413 178.687 171.937 179.633C171.727 179.767 171.51 179.879 171.289 179.968ZM172.609 175.311C172.596 175.313 172.583 175.317 172.569 175.32C172.056 175.442 171.342 175.746 170.451 176.449C169.588 177.13 168.766 177.808 168.16 178.316C167.885 178.546 167.654 178.741 167.484 178.886C166.948 177.765 167.43 176.256 168.819 175.367C170.114 174.538 171.659 174.59 172.609 175.311Z"
        stroke="black"
        stroke-width="0.68"
    />
    <path
        d="M172.447 175.295C172.813 175.735 172.916 176.338 172.743 176.984C172.57 177.629 172.124 178.297 171.432 178.817C170.741 179.338 169.955 179.598 169.255 179.61C168.555 179.622 167.962 179.388 167.595 178.948C167.229 178.508 167.126 177.905 167.299 177.259C167.473 176.614 167.919 175.946 168.61 175.426C169.302 174.905 170.087 174.645 170.787 174.633C171.488 174.621 172.081 174.855 172.447 175.295Z"
        fill="#F1EFED"
        stroke="black"
        stroke-width="0.68"
    />
    <path d="M176.993 178.858C175.349 179.912 174.803 181.844 175.775 183.173C175.775 183.173 177.334 181.827 179.054 180.47C180.773 179.114 181.73 179.358 181.73 179.358C180.758 178.029 178.638 177.805 176.993 178.858Z" fill="black" />
    <path
        fill-rule="evenodd"
        clip-rule="evenodd"
        d="M181.73 179.358C182.702 180.688 182.157 182.62 180.512 183.673C180.143 183.91 179.749 184.082 179.35 184.192L179.054 180.47C180.773 179.114 181.73 179.358 181.73 179.358Z"
        fill="#F1EFED"
    />
    <path d="M179.054 180.47C177.334 181.827 175.775 183.173 175.775 183.173C176.529 184.204 177.973 184.57 179.35 184.192L179.054 180.47Z" fill="black" />
    <path
        d="M178.98 183.938C177.917 184.149 176.884 183.876 176.251 183.216C176.262 183.207 176.272 183.198 176.283 183.189C176.455 183.042 176.703 182.832 177.005 182.58C177.484 182.179 178.097 181.672 178.757 181.142L178.98 183.938ZM179.664 183.733L179.416 180.622C180.178 180.045 180.756 179.815 181.13 179.726C181.31 179.683 181.444 179.672 181.532 179.671C182.241 180.806 181.788 182.453 180.312 183.399C180.102 183.533 179.885 183.644 179.664 183.733ZM180.984 179.076C180.971 179.079 180.958 179.082 180.944 179.085C180.431 179.208 179.717 179.512 178.826 180.215C177.963 180.896 177.141 181.574 176.535 182.081C176.26 182.311 176.029 182.507 175.859 182.651C175.323 181.531 175.805 180.022 177.194 179.133C178.489 178.303 180.034 178.356 180.984 179.076Z"
        stroke="black"
        stroke-width="0.68"
    />
    <path
        d="M180.822 179.061C181.188 179.501 181.291 180.104 181.118 180.749C180.945 181.395 180.499 182.062 179.807 182.583C179.116 183.103 178.33 183.363 177.63 183.375C176.93 183.387 176.337 183.154 175.97 182.714C175.604 182.273 175.501 181.67 175.674 181.025C175.848 180.379 176.294 179.712 176.985 179.191C177.677 178.671 178.462 178.411 179.162 178.399C179.863 178.387 180.456 178.62 180.822 179.061Z"
        fill="#F1EFED"
        stroke="black"
        stroke-width="0.68"
    />
    <path d="M162.173 182.389C160.528 183.443 159.983 185.375 160.955 186.704C160.955 186.704 162.514 185.358 164.234 184.002C165.953 182.645 166.91 182.89 166.91 182.89C165.938 181.56 163.817 181.336 162.173 182.389Z" fill="black" />
    <path
        fill-rule="evenodd"
        clip-rule="evenodd"
        d="M166.91 182.89C167.882 184.219 167.336 186.151 165.692 187.205C165.323 187.441 164.929 187.613 164.53 187.723L164.234 184.002C165.953 182.645 166.91 182.89 166.91 182.89Z"
        fill="#F1EFED"
    />
    <path d="M164.234 184.002C162.514 185.358 160.955 186.704 160.955 186.704C161.708 187.735 163.153 188.102 164.53 187.723L164.234 184.002Z" fill="black" />
    <path
        d="M164.16 187.469C163.097 187.68 162.064 187.407 161.431 186.747C161.441 186.738 161.452 186.729 161.463 186.72C161.635 186.573 161.883 186.363 162.185 186.111C162.663 185.71 163.276 185.203 163.937 184.674L164.16 187.469ZM164.844 187.265L164.596 184.153C165.357 183.576 165.936 183.346 166.309 183.257C166.489 183.214 166.624 183.203 166.711 183.203C167.42 184.338 166.968 185.984 165.491 186.93C165.282 187.064 165.065 187.175 164.844 187.265ZM166.164 182.607C166.151 182.61 166.137 182.613 166.124 182.617C165.611 182.739 164.897 183.043 164.006 183.746C163.143 184.427 162.321 185.105 161.714 185.612C161.439 185.843 161.209 186.038 161.039 186.182C160.502 185.062 160.985 183.553 162.373 182.664C163.668 181.834 165.214 181.887 166.164 182.607Z"
        stroke="black"
        stroke-width="0.68"
    />
    <path
        d="M166.002 182.592C166.368 183.032 166.471 183.635 166.298 184.281C166.124 184.926 165.678 185.593 164.987 186.114C164.295 186.635 163.51 186.895 162.81 186.906C162.11 186.918 161.516 186.685 161.15 186.245C160.784 185.804 160.681 185.202 160.854 184.556C161.027 183.91 161.474 183.243 162.165 182.723C162.856 182.202 163.642 181.942 164.342 181.93C165.042 181.918 165.635 182.152 166.002 182.592Z"
        fill="#F1EFED"
        stroke="black"
        stroke-width="0.68"
    />
    <path d="M170.548 186.155C168.903 187.209 168.358 189.14 169.33 190.47C169.33 190.47 170.889 189.124 172.609 187.767C174.328 186.411 175.285 186.655 175.285 186.655C174.313 185.326 172.192 185.102 170.548 186.155Z" fill="black" />
    <path
        fill-rule="evenodd"
        clip-rule="evenodd"
        d="M175.285 186.655C176.257 187.985 175.711 189.917 174.067 190.97C173.698 191.207 173.304 191.379 172.905 191.489L172.609 187.767C174.328 186.411 175.285 186.655 175.285 186.655Z"
        fill="#F1EFED"
    />
    <path d="M172.609 187.767C170.889 189.124 169.33 190.47 169.33 190.47C170.083 191.501 171.528 191.867 172.905 191.489L172.609 187.767Z" fill="black" />
    <path
        d="M172.535 191.234C171.472 191.446 170.439 191.173 169.806 190.513C169.816 190.504 169.827 190.495 169.838 190.486C170.01 190.339 170.258 190.129 170.56 189.876C171.038 189.476 171.651 188.969 172.312 188.439L172.535 191.234ZM173.219 191.03L172.971 187.918C173.732 187.342 174.311 187.112 174.684 187.023C174.864 186.98 174.999 186.969 175.086 186.968C175.795 188.103 175.343 189.75 173.866 190.696C173.657 190.83 173.44 190.941 173.219 191.03ZM174.539 186.373C174.526 186.376 174.512 186.379 174.499 186.382C173.986 186.505 173.272 186.809 172.381 187.512C171.518 188.193 170.696 188.871 170.089 189.378C169.814 189.608 169.584 189.803 169.414 189.948C168.877 188.827 169.36 187.319 170.748 186.43C172.043 185.6 173.589 185.653 174.539 186.373Z"
        stroke="black"
        stroke-width="0.68"
    />
    <path
        d="M174.377 186.358C174.743 186.798 174.846 187.401 174.673 188.046C174.499 188.692 174.053 189.359 173.362 189.88C172.67 190.4 171.885 190.66 171.185 190.672C170.485 190.684 169.891 190.451 169.525 190.01C169.159 189.57 169.056 188.967 169.229 188.322C169.402 187.676 169.849 187.009 170.54 186.488C171.231 185.968 172.017 185.708 172.717 185.696C173.417 185.684 174.01 185.917 174.377 186.358Z"
        fill="#F1EFED"
        stroke="black"
        stroke-width="0.68"
    />
    <path d="M160.009 170.147C158.364 171.201 157.819 173.133 158.791 174.462C158.791 174.462 160.35 173.116 162.07 171.759C163.789 170.403 164.746 170.647 164.746 170.647C163.774 169.318 161.653 169.094 160.009 170.147Z" fill="black" />
    <path
        fill-rule="evenodd"
        clip-rule="evenodd"
        d="M164.746 170.647C165.718 171.977 165.172 173.909 163.528 174.962C163.159 175.199 162.765 175.371 162.366 175.481L162.07 171.759C163.789 170.403 164.746 170.647 164.746 170.647Z"
        fill="#F1EFED"
    />
    <path d="M162.07 171.759C160.35 173.116 158.791 174.462 158.791 174.462C159.544 175.493 160.989 175.859 162.366 175.481L162.07 171.759Z" fill="black" />
    <path
        d="M161.996 175.227C160.933 175.438 159.9 175.165 159.267 174.505C159.277 174.496 159.288 174.487 159.299 174.478C159.471 174.331 159.719 174.121 160.021 173.869C160.499 173.468 161.112 172.961 161.773 172.431L161.996 175.227ZM162.68 175.022L162.432 171.911C163.193 171.334 163.772 171.104 164.145 171.015C164.325 170.972 164.46 170.961 164.547 170.96C165.256 172.095 164.804 173.742 163.327 174.688C163.118 174.822 162.901 174.933 162.68 175.022ZM164 170.365C163.987 170.368 163.973 170.371 163.96 170.374C163.447 170.497 162.733 170.801 161.842 171.504C160.979 172.185 160.157 172.863 159.55 173.37C159.275 173.6 159.045 173.796 158.875 173.94C158.338 172.82 158.821 171.311 160.209 170.422C161.504 169.592 163.05 169.645 164 170.365Z"
        stroke="black"
        stroke-width="0.68"
    />
    <path
        d="M163.838 170.35C164.204 170.79 164.307 171.393 164.134 172.038C163.96 172.684 163.514 173.351 162.823 173.872C162.131 174.392 161.346 174.652 160.646 174.664C159.945 174.676 159.352 174.443 158.986 174.003C158.62 173.562 158.517 172.959 158.69 172.314C158.863 171.668 159.309 171.001 160.001 170.48C160.692 169.96 161.478 169.7 162.178 169.688C162.878 169.676 163.471 169.909 163.838 170.35Z"
        fill="#F1EFED"
        stroke="black"
        stroke-width="0.68"
    />
    <path d="M153.563 177.444C151.919 178.498 151.374 180.429 152.346 181.759C152.346 181.759 153.905 180.413 155.624 179.056C157.344 177.7 158.301 177.944 158.301 177.944C157.329 176.615 155.208 176.391 153.563 177.444Z" fill="black" />
    <path
        fill-rule="evenodd"
        clip-rule="evenodd"
        d="M158.301 177.944C159.272 179.274 158.727 181.206 157.083 182.259C156.713 182.496 156.32 182.668 155.921 182.778L155.624 179.056C157.344 177.7 158.301 177.944 158.301 177.944Z"
        fill="#F1EFED"
    />
    <path d="M155.624 179.056C153.905 180.413 152.346 181.759 152.346 181.759C153.099 182.79 154.543 183.156 155.921 182.778L155.624 179.056Z" fill="black" />
    <path
        d="M155.55 182.524C154.487 182.735 153.454 182.462 152.822 181.802C152.832 181.793 152.842 181.784 152.853 181.775C153.026 181.628 153.274 181.418 153.575 181.166C154.054 180.765 154.667 180.258 155.328 179.728L155.55 182.524ZM156.234 182.319L155.986 179.208C156.748 178.631 157.326 178.401 157.7 178.312C157.88 178.269 158.015 178.258 158.102 178.257C158.811 179.392 158.359 181.039 156.882 181.985C156.673 182.119 156.455 182.23 156.234 182.319ZM157.555 177.662C157.541 177.665 157.528 177.668 157.514 177.671C157.002 177.794 156.288 178.098 155.397 178.801C154.534 179.482 153.711 180.16 153.105 180.667C152.83 180.897 152.599 181.092 152.429 181.237C151.893 180.116 152.376 178.608 153.764 177.719C155.059 176.889 156.605 176.942 157.555 177.662Z"
        stroke="black"
        stroke-width="0.68"
    />
    <path
        d="M157.392 177.647C157.759 178.087 157.861 178.69 157.688 179.335C157.515 179.981 157.069 180.648 156.377 181.169C155.686 181.689 154.901 181.949 154.2 181.961C153.5 181.973 152.907 181.74 152.541 181.299C152.174 180.859 152.072 180.256 152.245 179.611C152.418 178.965 152.864 178.298 153.556 177.777C154.247 177.257 155.032 176.997 155.733 176.985C156.433 176.973 157.026 177.206 157.392 177.647Z"
        fill="#F1EFED"
        stroke="black"
        stroke-width="0.68"
    />
    <path d="M151.345 166.007C149.7 167.06 149.155 168.992 150.127 170.322C150.127 170.322 151.686 168.975 153.406 167.619C155.125 166.262 156.082 166.507 156.082 166.507C155.11 165.177 152.989 164.953 151.345 166.007Z" fill="black" />
    <path
        fill-rule="evenodd"
        clip-rule="evenodd"
        d="M156.082 166.507C157.054 167.836 156.508 169.768 154.864 170.822C154.495 171.058 154.101 171.231 153.702 171.34L153.406 167.619C155.125 166.262 156.082 166.507 156.082 166.507Z"
        fill="#F1EFED"
    />
    <path d="M153.406 167.619C151.686 168.975 150.127 170.322 150.127 170.322C150.88 171.353 152.325 171.719 153.702 171.34L153.406 167.619Z" fill="black" />
    <path
        d="M153.332 171.086C152.268 171.298 151.236 171.024 150.603 170.364C150.613 170.356 150.624 170.347 150.635 170.337C150.807 170.19 151.055 169.98 151.356 169.728C151.835 169.327 152.448 168.821 153.109 168.291L153.332 171.086ZM154.015 170.882L153.768 167.77C154.529 167.193 155.107 166.963 155.481 166.874C155.661 166.831 155.796 166.82 155.883 166.82C156.592 167.955 156.14 169.601 154.663 170.547C154.454 170.681 154.237 170.793 154.015 170.882ZM155.336 166.225C155.323 166.228 155.309 166.231 155.296 166.234C154.783 166.356 154.069 166.66 153.178 167.363C152.315 168.044 151.492 168.722 150.886 169.23C150.611 169.46 150.381 169.655 150.211 169.8C149.674 168.679 150.157 167.171 151.545 166.281C152.84 165.452 154.386 165.504 155.336 166.225Z"
        stroke="black"
        stroke-width="0.68"
    />
    <path
        d="M155.166 166.209C155.532 166.649 155.635 167.252 155.462 167.898C155.289 168.543 154.842 169.211 154.151 169.731C153.459 170.252 152.674 170.512 151.974 170.524C151.274 170.536 150.68 170.302 150.314 169.862C149.948 169.422 149.845 168.819 150.018 168.173C150.191 167.528 150.638 166.86 151.329 166.34C152.021 165.819 152.806 165.559 153.506 165.547C154.206 165.535 154.799 165.769 155.166 166.209Z"
        fill="#F1EFED"
        stroke="black"
        stroke-width="0.68"
    />
    <path d="M144.899 173.304C143.255 174.357 142.71 176.289 143.681 177.618C143.681 177.618 145.241 176.272 146.96 174.916C148.68 173.559 149.636 173.804 149.636 173.804C148.665 172.474 146.544 172.25 144.899 173.304Z" fill="black" />
    <path
        fill-rule="evenodd"
        clip-rule="evenodd"
        d="M149.636 173.804C150.608 175.133 150.063 177.065 148.419 178.119C148.049 178.355 147.656 178.527 147.257 178.637L146.96 174.916C148.68 173.559 149.636 173.804 149.636 173.804Z"
        fill="#F1EFED"
    />
    <path d="M146.96 174.916C145.241 176.272 143.681 177.618 143.681 177.618C144.435 178.649 145.879 179.016 147.257 178.637L146.96 174.916Z" fill="black" />
    <path
        d="M146.886 178.383C145.823 178.594 144.79 178.321 144.158 177.661C144.168 177.653 144.178 177.644 144.189 177.634C144.362 177.487 144.61 177.277 144.911 177.025C145.39 176.624 146.003 176.117 146.664 175.588L146.886 178.383ZM147.57 178.179L147.322 175.067C148.084 174.49 148.662 174.26 149.036 174.171C149.216 174.128 149.351 174.117 149.438 174.117C150.147 175.252 149.695 176.898 148.218 177.844C148.009 177.978 147.791 178.09 147.57 178.179ZM148.89 173.521C148.877 173.524 148.864 173.528 148.85 173.531C148.338 173.653 147.624 173.957 146.733 174.66C145.869 175.341 145.047 176.019 144.441 176.527C144.166 176.757 143.935 176.952 143.765 177.097C143.229 175.976 143.712 174.467 145.1 173.578C146.395 172.748 147.941 172.801 148.89 173.521Z"
        stroke="black"
        stroke-width="0.68"
    />
    <path
        d="M148.728 173.506C149.095 173.946 149.197 174.549 149.024 175.195C148.851 175.84 148.405 176.508 147.713 177.028C147.022 177.549 146.237 177.809 145.536 177.821C144.836 177.833 144.243 177.599 143.877 177.159C143.51 176.719 143.408 176.116 143.581 175.47C143.754 174.824 144.2 174.157 144.892 173.637C145.583 173.116 146.368 172.856 147.069 172.844C147.769 172.832 148.362 173.066 148.728 173.506Z"
        fill="#F1EFED"
        stroke="black"
        stroke-width="0.68"
    />
    <defs>
        <linearGradient id="paint0_linear_5616_21676" x1="160" y1="69.3672" x2="299.562" y2="158.102" gradientUnits="userSpaceOnUse">
            <stop stop-color="#D6FFBB" />
            <stop offset="1" stop-color="#5869DD" />
        </linearGradient>
        <linearGradient id="paint1_linear_5616_21676" x1="176" y1="73.8672" x2="299.563" y2="158.102" gradientUnits="userSpaceOnUse">
            <stop stop-color="#D6FFBB" />
            <stop offset="1" stop-color="#5869DD" />
        </linearGradient>
        <linearGradient id="paint2_linear_5616_21676" x1="97.5334" y1="196.259" x2="116.51" y2="252.862" gradientUnits="userSpaceOnUse">
            <stop stop-color="#D6FFBB" />
            <stop offset="1" stop-color="#5869DD" />
        </linearGradient>
        <linearGradient id="paint3_linear_5616_21676" x1="81" y1="195.367" x2="113.372" y2="250.084" gradientUnits="userSpaceOnUse">
            <stop stop-color="#D6FFBB" />
            <stop offset="1" stop-color="#5869DD" />
        </linearGradient>
        <linearGradient id="paint4_linear_5616_21676" x1="207.5" y1="127.867" x2="244" y2="166.367" gradientUnits="userSpaceOnUse">
            <stop stop-color="#D6FFBB" />
            <stop offset="1" stop-color="#5869DD" />
        </linearGradient>
    </defs>
</svg>
