<svg xmlns="http://www.w3.org/2000/svg" width="32" height="32" viewBox="0 0 32 32" fill="none">
    <path
        d="M16 9.5C12.3812 9.5 9.4375 12.4437 9.4375 16.0625C9.4375 19.6813 12.3812 22.625 16 22.625C19.6188 22.625 22.5625 19.6813 22.5625 16.0625C22.5625 12.4437 19.6188 9.5 16 9.5ZM16 9.5C12.3812 9.5 9.4375 12.4437 9.4375 16.0625C9.4375 19.6813 12.3812 22.625 16 22.625C19.6188 22.625 22.5625 19.6813 22.5625 16.0625C22.5625 12.4437 19.6188 9.5 16 9.5ZM27.3125 0H4.6875C2.1 0 0 2.1 0 4.6875V27.3125C0 29.9 2.1 32 4.6875 32H27.3125C29.9 32 32 29.9 32 27.3125V4.6875C32 2.1 29.9 0 27.3125 0ZM16 24.5C11.3501 24.5 7.5625 20.7124 7.5625 16.0625C7.5625 11.4124 11.3501 7.625 16 7.625C20.6499 7.625 24.4375 11.4124 24.4375 16.0625C24.4375 20.7124 20.6499 24.5 16 24.5ZM26.3125 7.625C25.2812 7.625 24.4375 6.78125 24.4375 5.75C24.4375 4.71875 25.2812 3.875 26.3125 3.875C27.3438 3.875 28.1875 4.71875 28.1875 5.75C28.1875 6.78125 27.3438 7.625 26.3125 7.625ZM16 9.5C12.3812 9.5 9.4375 12.4437 9.4375 16.0625C9.4375 19.6813 12.3812 22.625 16 22.625C19.6188 22.625 22.5625 19.6813 22.5625 16.0625C22.5625 12.4437 19.6188 9.5 16 9.5ZM16 9.5C12.3812 9.5 9.4375 12.4437 9.4375 16.0625C9.4375 19.6813 12.3812 22.625 16 22.625C19.6188 22.625 22.5625 19.6813 22.5625 16.0625C22.5625 12.4437 19.6188 9.5 16 9.5ZM16 9.5C12.3812 9.5 9.4375 12.4437 9.4375 16.0625C9.4375 19.6813 12.3812 22.625 16 22.625C19.6188 22.625 22.5625 19.6813 22.5625 16.0625C22.5625 12.4437 19.6188 9.5 16 9.5Z"
        fill="black"
    />
    <path
        fill-rule="evenodd"
        clip-rule="evenodd"
        d="M16 24.5C11.3501 24.5 7.5625 20.7124 7.5625 16.0625C7.5625 11.4124 11.3501 7.625 16 7.625C20.6499 7.625 24.4375 11.4124 24.4375 16.0625C24.4375 20.7124 20.6499 24.5 16 24.5ZM9.4375 16.0625C9.4375 12.4437 12.3812 9.5 16 9.5C19.6188 9.5 22.5625 12.4437 22.5625 16.0625C22.5625 19.6813 19.6188 22.625 16 22.625C12.3812 22.625 9.4375 19.6813 9.4375 16.0625Z"
        fill="#F1EFED"
    />
    <path d="M26.3125 7.625C25.2812 7.625 24.4375 6.78125 24.4375 5.75C24.4375 4.71875 25.2812 3.875 26.3125 3.875C27.3438 3.875 28.1875 4.71875 28.1875 5.75C28.1875 6.78125 27.3438 7.625 26.3125 7.625Z" fill="#F1EFED" />
</svg>
