<svg xmlns="http://www.w3.org/2000/svg" width="176" height="122" viewBox="0 0 176 122" fill="none">
    <path d="M78.0224 121.056L71.6797 120.238L71.684 120.199L78.0224 121.056Z" fill="black" />
    <path d="M65.354 119.262L59.0625 118.111L59.0838 117.996L65.3668 119.185L65.354 119.262Z" fill="black" />
    <path d="M52.8007 116.781L46.5859 115.25L46.6371 115.059L52.8348 116.627L52.8007 116.781Z" fill="black" />
    <path d="M40.442 113.502L34.3594 111.516L34.4532 111.256L40.5145 113.276L40.442 113.502Z" fill="black" />
    <path d="M28.3653 109.257L22.5 106.691L22.6535 106.371L28.4846 108.967L28.3653 109.257Z" fill="black" />
    <path d="M16.8097 103.749C14.9513 102.697 13.1312 101.571 11.375 100.344L11.6222 99.9941C13.3571 101.217 15.1559 102.351 17.0016 103.408L16.8055 103.749H16.8097Z" fill="black" />
    <path d="M6.3648 96.321C4.8047 94.8505 3.35544 93.2435 2.1875 91.4276L2.58818 91.1719C3.72202 92.9451 5.14145 94.535 6.67596 95.9928L6.3648 96.321Z" fill="black" />
    <path
        d="M0.0146797 85.3536C-0.0492585 84.2624 0.0956681 83.1499 0.44946 82.1098C0.798989 81.0698 1.35738 80.1064 2.03513 79.2539L2.44007 79.5779C1.7879 80.3877 1.26361 81.2957 0.926865 82.2761C0.590124 83.2522 0.453722 84.2965 0.509135 85.328L0.0146797 85.3536Z"
        fill="black"
    />
    <path d="M7.125 75.2677C9.03462 74.2617 11.0593 73.5115 13.1139 72.9062L13.2716 73.4476C11.2384 74.0401 9.24775 74.7733 7.37649 75.7494L7.125 75.272V75.2677Z" fill="black" />
    <path d="M19.375 71.486C21.485 71.128 23.6077 70.8637 25.739 70.6719L25.7944 71.2772C23.6802 71.4604 21.5702 71.7119 19.4773 72.0615L19.3793 71.486H19.375Z" fill="black" />
    <path d="M32.1328 70.2937L38.5394 70.2383L38.5309 70.8905L32.1541 70.9203L32.1328 70.2937Z" fill="black" />
    <path d="M44.9404 70.4473L51.3299 70.8693L51.2745 71.5641L44.9062 71.1207L44.9404 70.4473Z" fill="black" />
    <path d="M57.706 71.4785L64.0572 72.2458L63.9634 72.9661L57.625 72.1904L57.706 71.4785Z" fill="black" />
    <path d="M70.368 73.5156L76.5316 75.2079L76.3398 75.9197L70.1719 74.2189L70.368 73.5156Z" fill="black" />
    <path d="M82.711 76.8242L88.913 78.363L88.734 79.0962L82.5234 77.5489L82.711 76.8242Z" fill="black" />
    <path d="M95.1393 79.8125L101.38 81.1722L101.222 81.9267L94.9688 80.5584L95.1393 79.8125Z" fill="black" />
    <path d="M107.649 82.4297L113.932 83.5763L113.796 84.3478L107.5 83.1927L107.649 82.4297Z" fill="black" />
    <path d="M120.224 84.5938L126.55 85.4761L126.448 86.2689L120.109 85.3781L120.224 84.5938Z" fill="black" />
    <path d="M132.893 86.1973L139.253 86.7258L139.198 87.54L132.812 86.9986L132.893 86.1973Z" fill="black" />
    <path d="M145.623 87.0234L151.995 87.0277L152.021 87.8589L145.602 87.8461L145.623 87.0234Z" fill="black" />
    <path d="M158.344 86.6313C160.449 86.4097 162.547 86.0985 164.597 85.6211L164.789 86.4438C162.687 86.9297 160.56 87.2451 158.429 87.4668L158.344 86.6356V86.6313Z" fill="black" />
    <path
        d="M170.469 83.4695C171.355 82.9495 172.182 82.3271 172.8 81.5514C173.418 80.7798 173.776 79.8378 173.764 78.8659L174.612 78.8574C174.616 79.4371 174.518 80.0254 174.318 80.5752C174.117 81.1251 173.823 81.6323 173.47 82.0799C172.758 82.9793 171.846 83.6528 170.895 84.2069L170.469 83.4695Z"
        fill="black"
    />
    <path d="M171.026 73.584C169.59 72.0708 167.919 70.7665 166.18 69.573L166.649 68.8867C168.422 70.1015 170.135 71.4315 171.636 73.0086L171.026 73.584Z" fill="black" />
    <path d="M160.742 66.2947C158.875 65.2887 156.97 64.3509 155.039 63.4686L155.38 62.7227C157.324 63.6093 159.246 64.5513 161.135 65.5658L160.742 66.2904V66.2947Z" fill="black" />
    <path d="M149.178 60.9596L143.219 58.692L143.492 57.9375L149.48 60.2052L149.178 60.9596Z" fill="black" />
    <path d="M137.181 56.6195L131.094 54.7056L131.32 53.9512L137.428 55.8608L137.181 56.6195Z" fill="black" />
    <path d="M124.965 52.935L118.797 51.2854L118.993 50.5352L125.174 52.1805L124.965 52.935Z" fill="black" />
    <path d="M112.598 49.7488L106.375 48.3081L106.541 47.5664L112.777 49.0029L112.598 49.7488Z" fill="black" />
    <path d="M100.137 46.9565L93.875 45.6863L94.0157 44.9531L100.29 46.2191L100.137 46.9565Z" fill="black" />
    <path d="M87.5919 44.4918L81.3047 43.3665L81.4283 42.6504L87.7283 43.7672L87.5919 44.4918Z" fill="black" />
    <path d="M83.7656 41.4143L90.1509 41.2012L90.1808 41.9088L83.7869 42.1347L83.7656 41.4143Z" fill="black" />
    <path d="M96.5312 40.934L102.912 40.6016L102.955 41.2665L96.5654 41.6203L96.5312 40.934Z" fill="black" />
    <path d="M109.297 40.1969L115.665 39.7109L115.721 40.329L109.34 40.8362L109.297 40.1969Z" fill="black" />
    <path d="M122.031 39.1355L128.382 38.4492L128.451 39.0204L122.091 39.728L122.031 39.1355Z" fill="black" />
    <path d="M134.719 37.6423L141.036 36.6875L141.121 37.2075L134.795 38.1879L134.719 37.6423Z" fill="black" />
    <path d="M147.32 35.5499L153.556 34.1816L153.672 34.6548L147.418 36.0486L147.32 35.5499Z" fill="black" />
    <path d="M159.703 32.4976C161.732 31.871 163.744 31.1719 165.705 30.3535L165.875 30.7585C163.902 31.5897 161.881 32.3015 159.844 32.9409L159.707 32.4976H159.703Z" fill="black" />
    <path
        d="M171.336 27.443C172.214 26.859 173.058 26.2197 173.808 25.4865C174.558 24.7533 175.215 23.9221 175.658 22.9844L175.995 23.1421C175.535 24.1395 174.848 25.0091 174.081 25.7678C173.309 26.5308 172.453 27.1872 171.562 27.7883L171.336 27.4473V27.443Z"
        fill="black"
    />
    <path
        d="M174.943 17.1142C174.346 16.2531 173.617 15.4816 172.825 14.7826C172.032 14.0835 171.179 13.4484 170.297 12.8602L170.459 12.6172C171.354 13.2054 172.219 13.8405 173.029 14.5481C173.839 15.2557 174.589 16.04 175.212 16.9266L174.939 17.1142H174.943Z"
        fill="black"
    />
    <path d="M164.713 9.80612C162.782 8.91951 160.8 8.1352 158.797 7.41909L158.869 7.21875C160.881 7.92207 162.876 8.69785 164.82 9.57594L164.713 9.80612Z" fill="black" />
    <path d="M152.723 5.46942L146.547 3.84112L146.577 3.70898L152.77 5.29892L152.723 5.46942Z" fill="black" />
    <path d="M140.295 2.46838L134.008 1.31323L134.016 1.25781L140.312 2.3746L140.295 2.46838Z" fill="black" />
    <path d="M127.695 0.345266L125.125 0L127.695 0.328216V0.345266Z" fill="black" />
    <path
        d="M157.742 41.8951C157.833 42.1298 157.857 42.3922 157.795 42.6517C157.013 45.9505 156.256 48.6704 155.516 51.699C157.045 49.6792 157.871 49.1551 159.238 49.1415C159.799 46.3983 160.352 43.5677 160.9 40.6229C160.938 40.4204 160.831 40.2421 160.673 40.1604C160.643 40.1488 160.612 40.1373 160.582 40.1258C160.489 40.102 160.386 40.1098 160.288 40.1604L157.742 41.8951Z"
        fill="black"
    />
    <path
        d="M137.507 116.042C137.415 116.339 137.249 116.593 137.035 116.79C138.559 115.451 139.526 114.743 140.597 114.387C141.231 114.176 141.791 113.727 141.985 113.088C147.197 95.8827 151.223 82.7127 154.707 68.9623L138.741 112.014C138.338 113.332 137.927 114.674 137.507 116.042Z"
        fill="black"
    />
    <path d="M151.892 66.0957C152.031 65.5617 152.17 65.0254 152.308 64.4866C149.684 74.1974 140.671 75.0737 129.73 72.4488C129.73 72.4488 141.025 75.9156 145.927 74.0774C149.414 72.7697 151.169 68.4694 151.892 66.0957Z" fill="black" />
    <path d="M53.8017 41.4689C51.8847 39.8099 50.7468 38.0548 50.6282 36.1407L50.1357 39.1245C51.5502 39.3853 52.3637 40.2661 53.8017 41.4689Z" fill="black" />
    <path
        d="M156.907 41.1203C116.729 28.0418 93.51 22.0894 56.5454 11.9227C56.0435 11.7846 55.534 11.885 55.1351 12.151C54.7584 12.4022 54.4804 12.8009 54.4003 13.2859L50.6282 36.1407C50.7468 38.0548 51.8847 39.8099 53.8017 41.4689C56.6492 43.9331 61.2158 46.1853 66.7143 48.4319C74.9336 51.7902 85.2353 55.1359 94.9899 59.1584C105.425 63.4615 118.579 69.7735 129.73 72.4488C140.671 75.0737 149.684 74.1974 152.308 64.4866C153.361 60.4064 154.42 56.1816 155.516 51.699C156.256 48.6704 157.013 45.9505 157.795 42.6517C157.857 42.3922 157.833 42.1298 157.742 41.8951C157.601 41.5334 157.301 41.2377 156.907 41.1203Z"
        fill="url(#paint0_linear_10088_39244)"
    />
    <path
        d="M159.238 49.1415C157.871 49.1551 157.045 49.6792 155.516 51.699C154.42 56.1816 153.361 60.4064 152.308 64.4866C152.308 64.4866 152.185 65.1326 151.892 66.0957C151.334 68.2444 150.777 70.3564 150.216 72.4488C146.827 85.1041 143.319 97.0409 138.741 112.014L154.707 68.9623C156.311 62.6288 157.801 56.1722 159.238 49.1415Z"
        fill="#5869DD"
    />
    <path
        d="M56.5454 11.9227C93.51 22.0894 116.729 28.0418 156.907 41.1203C157.301 41.2377 157.601 41.5334 157.742 41.8951L160.288 40.1604C160.386 40.1098 160.489 40.102 160.582 40.1258C122.991 25.793 96.3093 19.2053 59.1614 9.97202C58.5093 9.80995 57.8125 9.96323 57.2922 10.3884L55.1351 12.151C55.534 11.885 56.0435 11.7846 56.5454 11.9227Z"
        fill="#5869DD"
    />
    <path
        d="M129.73 72.4488C118.579 69.7735 105.425 63.4615 94.9899 59.1584C85.2353 55.1359 74.9336 51.7902 66.7143 48.4319V49.233C72.1166 51.511 79.1782 54.4595 86.5352 57.4865C92.7811 60.0562 99.2399 62.6825 105.077 65.0029C115.722 69.2344 124.3 72.4488 125.751 72.4488H129.73Z"
        fill="black"
    />
    <path d="M53.8017 41.4689C52.3637 40.2661 51.5502 39.3853 50.1357 39.1245L49.9447 40.2817C53.8017 43.4786 59.3632 46.0324 66.7143 49.233V48.4319C61.2158 46.1853 56.6492 43.9331 53.8017 41.4689Z" fill="black" />
    <path
        d="M145.927 74.0774C141.025 75.9156 129.73 72.4488 129.73 72.4488H125.751C140.959 76.5448 146.751 76.8528 150.216 72.4488C150.777 70.3564 151.334 68.2444 151.892 66.0957C151.169 68.4694 149.414 72.7697 145.927 74.0774Z"
        fill="black"
    />
    <path
        fill-rule="evenodd"
        clip-rule="evenodd"
        d="M46.9053 78.8257C77.8337 94.4392 98.2841 103.53 135.276 117.144C135.874 117.364 136.52 117.225 136.976 116.842L137.035 116.79C137.249 116.593 137.415 116.339 137.507 116.042C137.927 114.674 138.338 113.332 138.741 112.014C143.319 97.0409 146.827 85.1041 150.216 72.4488C146.751 76.8528 140.959 76.5448 125.751 72.4488C124.3 72.4488 115.722 69.2344 105.077 65.0029C102.562 64.6911 101.474 65.0729 99.9622 66.4964C97.1915 66.0701 92.7159 63.9388 92.7159 62.2338C92.7159 60.9716 90.263 59.6101 88.2972 58.519C87.6076 58.1362 86.9779 57.7867 86.5352 57.4865C79.1782 54.4595 72.1166 51.511 66.7143 49.233C59.3632 46.0324 53.8017 43.4786 49.9447 40.2817L49.1156 45.3052L44.3988 73.8836C44.0657 75.9019 45.0792 77.9039 46.9053 78.8257Z"
        fill="url(#paint1_linear_10088_39244)"
    />
    <path
        d="M92.7159 62.2338C92.7159 63.9388 97.1915 66.0701 99.9622 66.4964C101.474 65.0729 102.562 64.6911 105.077 65.0029C99.2399 62.6825 92.7811 60.0562 86.5352 57.4865C86.9779 57.7867 87.6076 58.1362 88.2972 58.519C90.263 59.6101 92.7159 60.9716 92.7159 62.2338Z"
        fill="black"
    />
    <path
        d="M136.976 116.842C136.52 117.225 135.874 117.364 135.276 117.144C98.2841 103.53 77.8337 94.4392 46.9053 78.8257C45.0792 77.9039 44.0657 75.9019 44.3988 73.8836L49.1156 45.3052L49.9447 40.2817M136.976 116.842C136.996 116.824 137.016 116.807 137.035 116.79M136.976 116.842C136.996 116.825 137.016 116.808 137.035 116.79M136.976 116.842L137.035 116.79M157.742 41.8951C157.833 42.1298 157.857 42.3922 157.795 42.6517C157.013 45.9504 156.256 48.6704 155.516 51.699M157.742 41.8951C157.601 41.5334 157.301 41.2377 156.907 41.1203C116.729 28.0418 93.51 22.0894 56.5454 11.9227C56.0435 11.7846 55.534 11.885 55.1351 12.151M157.742 41.8951L160.288 40.1604C160.386 40.1098 160.489 40.102 160.582 40.1258M155.516 51.699C157.045 49.6792 157.871 49.1551 159.238 49.1415M155.516 51.699C154.42 56.1816 153.361 60.4064 152.308 64.4866M159.238 49.1415C159.799 46.3983 160.352 43.5677 160.9 40.6229C160.938 40.4204 160.831 40.2421 160.673 40.1604M159.238 49.1415C157.801 56.1722 156.311 62.6288 154.707 68.9623M154.707 68.9623C151.223 82.7127 147.197 95.8827 141.985 113.088C141.791 113.727 141.231 114.176 140.597 114.387C139.526 114.743 138.559 115.451 137.035 116.79M154.707 68.9623L138.741 112.014M138.741 112.014C138.338 113.332 137.927 114.674 137.507 116.042C137.415 116.339 137.249 116.593 137.035 116.79M138.741 112.014C143.319 97.0409 146.827 85.1041 150.216 72.4488M50.6282 36.1407L54.4003 13.2859C54.4804 12.8009 54.7584 12.4022 55.1351 12.151M50.6282 36.1407C50.7468 38.0548 51.8847 39.8099 53.8017 41.4689M50.6282 36.1407L50.1357 39.1245M152.308 64.4866C149.684 74.1974 140.671 75.0737 129.73 72.4488M152.308 64.4866C152.17 65.0254 152.031 65.5617 151.892 66.0957M152.308 64.4866C152.308 64.4866 152.185 65.1326 151.892 66.0957M53.8017 41.4689C52.3637 40.2661 51.5502 39.3853 50.1357 39.1245M53.8017 41.4689C56.6492 43.9331 61.2158 46.1853 66.7143 48.4319M129.73 72.4488C118.579 69.7735 105.425 63.4615 94.9899 59.1584C85.2353 55.1359 74.9336 51.7902 66.7143 48.4319M129.73 72.4488C129.73 72.4488 141.025 75.9156 145.927 74.0774C149.414 72.7697 151.169 68.4694 151.892 66.0957M129.73 72.4488H125.751M50.1357 39.1245L49.9447 40.2817M55.1351 12.151L57.2922 10.3884C57.8125 9.96323 58.5093 9.80995 59.1614 9.97202C96.3093 19.2053 122.991 25.793 160.582 40.1258M160.673 40.1604C160.643 40.1488 160.612 40.1373 160.582 40.1258M160.673 40.1604C160.644 40.1455 160.614 40.1338 160.582 40.1258M151.892 66.0957C151.334 68.2443 150.777 70.3564 150.216 72.4488M66.7143 49.233V48.4319M66.7143 49.233C59.3632 46.0324 53.8017 43.4786 49.9447 40.2817M66.7143 49.233C72.1166 51.511 79.1782 54.4595 86.5352 57.4865M125.751 72.4488C140.959 76.5448 146.751 76.8528 150.216 72.4488M125.751 72.4488C124.3 72.4488 115.722 69.2344 105.077 65.0029M86.5352 57.4865C92.7811 60.0562 99.2399 62.6825 105.077 65.0029M86.5352 57.4865C86.9779 57.7867 87.6076 58.1362 88.2972 58.519C90.263 59.6101 92.7159 60.9716 92.7159 62.2338C92.7159 63.9388 97.1915 66.0701 99.9622 66.4964C101.474 65.0729 102.562 64.6911 105.077 65.0029"
        stroke="black"
        stroke-width="0.85251"
    />
    <path
        d="M124.029 20.9588C123.953 21.2175 123.764 21.41 123.534 21.504L122.056 27.6152L122.413 27.785C122.809 27.7704 122.714 26.689 123.444 26.1233C123.923 25.7519 124.757 25.6027 126.319 26.1233L125.83 25.6959C125.208 25.1528 124.839 24.3763 124.811 23.5511L124.65 18.8631L124.029 20.9588Z"
        fill="black"
    />
    <path
        d="M73.3475 13.2253C73.2774 13.4106 73.377 13.6101 73.5561 13.6946C77.6014 15.6043 80.3557 16.1781 85.0276 16.1063L81.7751 13.809C81.5787 13.8839 81.366 13.9404 81.1357 13.975C78.8646 14.316 76.2338 14.1881 75.1681 12.27C74.1582 11.8372 73.5858 12.5946 73.3475 13.2253Z"
        fill="black"
    />
    <path d="M83.973 10.0794C83.9709 10.0411 83.9714 10.0023 83.9747 9.96309L84.1908 7.36806C83.8838 10.8824 82.8407 12.27 81.1357 12.9094L81.7751 13.809C83.4553 13.1684 83.9411 11.1827 83.973 10.0794Z" fill="black" />
    <path
        d="M86.0376 11.0506C85.606 10.9937 85.169 10.9377 84.7266 10.8824C84.3106 10.8305 83.995 10.487 83.973 10.0794C83.9411 11.1827 83.4553 13.1684 81.7751 13.809L85.0276 16.1063C85.485 14.1772 85.707 12.5984 86.0376 11.0506Z"
        fill="#5869DD"
    />
    <path d="M126.319 26.1233C124.757 25.6027 123.923 25.7519 123.444 26.1233C126.992 29.0312 128.97 28.999 132.499 28.7721L126.319 26.1233Z" fill="#F1EFED" />
    <path d="M131.008 31.8777L135.057 31.2383V30.1727C135.057 29.7019 134.675 29.3202 134.204 29.3202H133.778L131.577 29.5036C131.371 29.5208 131.207 29.6836 131.188 29.8898L131.008 31.8777Z" fill="#F1EFED" />
    <path
        d="M131.008 31.8777L131.188 29.8898C131.207 29.6836 131.371 29.5208 131.577 29.5036L133.778 29.3202L132.499 28.7721C128.97 28.999 126.992 29.0312 123.444 26.1233C122.714 26.689 122.809 27.7704 122.413 27.785L126.71 29.8314L131.008 31.8777Z"
        fill="black"
    />
    <path d="M124.855 15.7739C125.208 15.9658 125.385 16.3818 125.271 16.7674L124.65 18.8631L124.811 23.5511C124.839 24.3763 125.208 25.1528 125.83 25.6959L126.319 26.1233C126.646 18.9697 126.432 16.3428 124.855 15.7739Z" fill="#5869DD" />
    <path
        d="M124.855 15.7739C109.429 7.3976 101.077 3.74193 85.0276 5.58026C84.6263 5.62622 84.3087 5.95119 84.2752 6.35369L84.1908 7.36806L83.9747 9.96309C83.9747 10.0006 83.9741 10.0394 83.973 10.0794C83.995 10.487 84.3106 10.8305 84.7266 10.8824C85.169 10.9377 85.606 10.9937 86.0376 11.0506C100.191 12.9169 108.72 15.7092 122.883 21.504C123.101 21.5931 123.333 21.586 123.534 21.504C123.764 21.41 123.953 21.2175 124.029 20.9588L124.65 18.8631L125.271 16.7674C125.385 16.3818 125.208 15.9658 124.855 15.7739Z"
        fill="url(#paint2_linear_10088_39244)"
    />
    <path d="M81.1357 12.9094C79.7149 12.6962 76.3617 12.7815 75.1681 12.27C76.2338 14.1881 78.8646 14.316 81.1357 13.975C81.366 13.9404 81.5787 13.8839 81.7751 13.809L81.1357 12.9094Z" fill="#F1EFED" />
    <path
        d="M83.9747 9.96309L84.1908 7.36806M83.9747 9.96309C83.9714 10.0023 83.9709 10.0411 83.973 10.0794M83.9747 9.96309C83.9747 10.0006 83.9741 10.0394 83.973 10.0794M124.855 15.7739C109.429 7.3976 101.077 3.74193 85.0276 5.58026C84.6263 5.62622 84.3087 5.95119 84.2752 6.35369L84.1908 7.36806M124.855 15.7739C125.208 15.9658 125.385 16.3818 125.271 16.7674L124.65 18.8631M124.855 15.7739C126.432 16.3428 126.646 18.9697 126.319 26.1233M126.319 26.1233L125.83 25.6959C125.208 25.1528 124.839 24.3763 124.811 23.5511L124.65 18.8631M126.319 26.1233C124.757 25.6027 123.923 25.7519 123.444 26.1233M126.319 26.1233L132.499 28.7721M122.056 27.6152L123.534 21.504M122.056 27.6152L122.413 27.785M122.056 27.6152C122.21 27.7377 122.324 27.7884 122.413 27.785M123.534 21.504C123.764 21.41 123.953 21.2175 124.029 20.9588L124.65 18.8631M123.534 21.504C123.333 21.586 123.101 21.5931 122.883 21.504C108.72 15.7092 100.191 12.9169 86.0376 11.0506M131.008 31.8777L135.057 31.2383V30.1727C135.057 29.7019 134.675 29.3202 134.204 29.3202H133.778M131.008 31.8777L131.188 29.8898C131.207 29.6836 131.371 29.5208 131.577 29.5036L133.778 29.3202M131.008 31.8777L126.71 29.8314L122.413 27.785M133.778 29.3202L132.499 28.7721M123.444 26.1233C126.992 29.0312 128.97 28.999 132.499 28.7721M123.444 26.1233C122.714 26.689 122.809 27.7704 122.413 27.785M86.0376 11.0506C85.606 10.9937 85.169 10.9377 84.7266 10.8824C84.3106 10.8304 83.995 10.487 83.973 10.0794M86.0376 11.0506C85.707 12.5984 85.485 14.1772 85.0276 16.1063M85.0276 16.1063C80.3557 16.1781 77.6014 15.6043 73.5561 13.6946C73.377 13.6101 73.2774 13.4106 73.3475 13.2253C73.5858 12.5946 74.1582 11.8372 75.1681 12.27M85.0276 16.1063L81.7751 13.809M75.1681 12.27C76.3617 12.7815 79.7149 12.6962 81.1357 12.9094M75.1681 12.27C76.2338 14.1881 78.8646 14.316 81.1357 13.975C81.366 13.9404 81.5787 13.8839 81.7751 13.809M81.1357 12.9094C82.8407 12.27 83.8838 10.8824 84.1908 7.36806M81.1357 12.9094L81.7751 13.809M81.7751 13.809C83.4553 13.1684 83.9411 11.1827 83.973 10.0794"
        stroke="black"
        stroke-width="0.85251"
        stroke-linejoin="round"
    />
    <path
        d="M125.731 97.5834C127.74 94.6484 128.312 91.0117 128.567 87.4643C128.602 86.9702 128.639 86.4865 128.677 86.0123L126.742 87.9304C125.949 93.1793 124.672 96.4933 121.84 101.077C123.144 100.51 124.424 99.494 125.731 97.5834Z"
        fill="#5869DD"
    />
    <path
        d="M132.923 67.2569C135.66 60.8802 135.647 57.2037 132.214 51.3608C131.932 50.8811 131.27 50.8109 130.885 51.213L129.033 53.1491C127.682 54.5621 126.817 56.3643 126.483 58.2908C125.34 64.8753 123.647 71.2418 122.906 73.6507C122.158 76.08 119.608 95.8771 118.991 100.718C118.922 101.264 119.381 101.732 119.923 101.636C120.572 101.521 121.209 101.352 121.84 101.077C124.672 96.4933 125.949 93.1793 126.742 87.9304L128.677 86.0123C129.277 78.5705 130.243 73.4749 132.923 67.2569Z"
        fill="url(#paint3_linear_10088_39244)"
    />
    <path
        d="M128.677 86.0123C129.277 78.5705 130.243 73.4749 132.923 67.2569C135.66 60.8802 135.647 57.2037 132.214 51.3608C131.932 50.8811 131.27 50.8109 130.885 51.213L129.033 53.1491C127.682 54.5621 126.817 56.3643 126.483 58.2908C125.34 64.8753 123.647 71.2418 122.906 73.6507C122.158 76.08 119.608 95.8771 118.991 100.718C118.922 101.264 119.381 101.732 119.923 101.636C120.572 101.521 121.209 101.352 121.84 101.077M128.677 86.0123C128.639 86.4865 128.602 86.9702 128.567 87.4643C128.312 91.0117 127.74 94.6484 125.731 97.5834C124.424 99.494 123.144 100.51 121.84 101.077M128.677 86.0123L126.742 87.9304C125.949 93.1793 124.672 96.4933 121.84 101.077"
        stroke="black"
        stroke-width="0.85251"
    />
    <path
        d="M129.727 84.9224V87.6541C129.727 88.062 129.438 88.4143 129.036 88.4854C125.6 89.0935 123.574 88.8822 120.817 86.0647C120.653 85.8971 120.57 85.6663 120.584 85.4321L120.686 83.6986C120.725 83.0329 121.482 82.6667 122.059 83.0017C124.397 84.3599 126.157 84.4964 128.702 84.0714C129.234 83.9827 129.727 84.3839 129.727 84.9224Z"
        fill="#5869DD"
        stroke="black"
        stroke-width="0.85251"
    />
    <path
        d="M127.802 77.1126L124.322 76.2426C123.806 76.1138 123.3 76.4828 123.264 77.013L123.171 78.4152C123.142 78.8524 122.779 79.1922 122.34 79.1922C121.846 79.1922 121.46 78.7631 121.513 78.2711L121.947 74.2154C122.003 73.6949 122.51 73.3472 123.016 73.4828L130.075 75.3766C130.486 75.4869 130.753 75.8831 130.698 76.3052C130.463 78.1318 130.088 80.8775 129.939 81.3235C129.821 81.6783 129.354 81.6434 128.936 81.5175C128.627 81.4243 128.447 81.1195 128.447 80.7966V77.9396C128.447 77.5485 128.181 77.2075 127.802 77.1126Z"
        fill="url(#paint4_linear_10088_39244)"
        stroke="black"
        stroke-width="0.767259"
    />
    <path
        d="M126.108 73.8633C125.375 73.8606 124.977 76.08 125.176 77.504C125.212 77.7644 125.402 78.0286 125.661 77.9811C125.766 77.9619 125.872 77.9082 125.992 77.8118C126.217 77.6309 126.272 77.3188 126.232 77.0325C126.056 75.76 126.29 73.864 126.108 73.8633Z"
        fill="#F1EFED"
        stroke="black"
        stroke-width="0.767259"
    />
    <ellipse cx="129.083" cy="66.9745" rx="0.596374" ry="0.713438" transform="rotate(8.16315 129.083 66.9745)" fill="black" />
    <ellipse cx="127.521" cy="70.83" rx="0.596781" ry="0.713438" transform="rotate(8.16315 127.521 70.83)" fill="black" />
    <ellipse cx="125.249" cy="81.8949" rx="0.542139" ry="0.713438" transform="rotate(6.94643 125.249 81.8949)" fill="black" />
    <ellipse cx="122.961" cy="90.8688" rx="0.456961" ry="0.713438" transform="rotate(11.5841 122.961 90.8688)" fill="black" />
    <path
        d="M63.7549 73.0073C65.8905 70.1633 66.1953 68.6865 66.6062 65.1538C66.6634 64.6617 66.7214 64.1801 66.7803 63.708L64.7625 65.5393C63.7398 70.7482 62.7445 71.8716 59.714 76.3269C61.0419 75.8174 62.3647 74.8586 63.7549 73.0073Z"
        fill="#5869DD"
    />
    <path
        d="M71.8453 45.1572C75.2813 38.0592 75.0083 35.2334 71.8358 29.2454C71.5753 28.7537 70.9165 28.6544 70.5146 29.0392L68.5794 30.8922C67.167 32.2444 65.8053 34.8623 65.8053 35.9169C64.7625 43.3874 62.4034 48.7308 61.5571 51.1048C60.7036 53.4989 57.7129 71.0336 56.8839 75.843C56.7905 76.385 57.229 76.8734 57.7742 76.8013C58.4275 76.7149 59.0714 76.5735 59.714 76.3269C62.7445 71.8716 63.7398 70.7482 64.7625 65.5393L66.7803 63.708C67.7062 56.2997 68.8952 51.2515 71.8453 45.1572Z"
        fill="url(#paint5_linear_10088_39244)"
    />
    <path
        d="M66.7803 63.708C67.7062 56.2997 68.8952 51.2515 71.8453 45.1572C75.2813 38.0592 75.0083 35.2334 71.8358 29.2454C71.5753 28.7537 70.9165 28.6544 70.5146 29.0392L68.5794 30.8922C67.167 32.2444 65.8053 34.8623 65.8053 35.9169C64.7625 43.3874 62.4034 48.7308 61.5571 51.1048C60.7036 53.4989 57.7129 71.0336 56.8839 75.843C56.7905 76.385 57.229 76.8734 57.7742 76.8013C58.4275 76.7149 59.0714 76.5735 59.714 76.3269M66.7803 63.708C66.7214 64.1801 66.6634 64.6617 66.6062 65.1538C66.1953 68.6865 65.8905 70.1633 63.7549 73.0073C62.3647 74.8586 61.0419 75.8174 59.714 76.3269M66.7803 63.708L64.7625 65.5393C63.7398 70.7482 62.7445 71.8716 59.714 76.3269"
        stroke="black"
        stroke-width="0.85251"
    />
    <path
        d="M67.1814 62.7909L67.0759 65.192C67.0579 65.5995 66.7537 65.9389 66.3492 65.9916C63.1822 66.404 61.3239 66.1169 58.9079 63.4291C58.7511 63.2547 58.6786 63.0208 58.7027 62.7875L58.8534 61.325C58.9218 60.6616 59.6944 60.3292 60.2588 60.6844C62.2993 61.9685 63.898 62.1663 66.1946 61.8942C66.7294 61.8309 67.2051 62.2529 67.1814 62.7909Z"
        fill="#5869DD"
        stroke="black"
        stroke-width="0.85251"
    />
    <path
        d="M66.2964 54.7781L62.8582 53.7561C62.3489 53.6047 61.8266 53.9511 61.768 54.4793L61.6131 55.876C61.5647 56.3116 61.187 56.635 60.7492 56.6158C60.2549 56.594 59.8886 56.1485 59.9628 55.6593L60.5751 51.6265C60.6537 51.109 61.1757 50.7839 61.6748 50.9416L68.6435 53.1436C69.0494 53.2719 69.2986 53.6795 69.2258 54.0988C68.9108 55.9132 68.4151 58.6398 68.247 59.0788C68.1133 59.4281 67.6482 59.3727 67.2368 59.2286C66.932 59.1219 66.7655 58.8095 66.7797 58.4869L66.9052 55.6327C66.9224 55.2419 66.6714 54.8896 66.2964 54.7781Z"
        fill="url(#paint6_linear_10088_39244)"
        stroke="black"
        stroke-width="0.767259"
    />
    <path
        d="M64.6076 51.4336C63.8746 51.444 63.5167 53.6702 63.7412 55.0904C63.7823 55.3501 63.9768 55.6109 64.2346 55.5588C64.3391 55.5376 64.4439 55.482 64.5624 55.3835C64.7847 55.1986 64.8332 54.8856 64.7884 54.6001C64.5896 53.3309 64.7903 51.431 64.6076 51.4336Z"
        fill="#F1EFED"
        stroke="black"
        stroke-width="0.767259"
    />
    <ellipse cx="68.0319" cy="44.7061" rx="0.596374" ry="0.713438" transform="rotate(10.6808 68.0319 44.7061)" fill="black" />
    <ellipse cx="66.2902" cy="48.4894" rx="0.596781" ry="0.713438" transform="rotate(10.6808 66.2902 48.4894)" fill="black" />
    <ellipse cx="63.5346" cy="59.4452" rx="0.542139" ry="0.713438" transform="rotate(9.46411 63.5346 59.4452)" fill="black" />
    <ellipse cx="60.8475" cy="68.3072" rx="0.456961" ry="0.713438" transform="rotate(14.1018 60.8475 68.3072)" fill="black" />
    <path
        d="M93.1691 49.1555C92.9247 49.0831 92.6717 49.2407 92.6262 49.4915C92.0526 52.6528 91.3772 55.045 90.8545 57.5101C90.8219 57.6641 90.7891 57.8177 90.7561 57.9709L102.095 62.0491C102.101 62.0224 102.107 61.9956 102.113 61.9688C102.654 59.4577 103.559 56.3219 104.157 52.7998C104.193 52.5883 104.065 52.3839 103.859 52.323L93.1691 49.1555Z"
        fill="url(#paint7_linear_10088_39244)"
    />
    <path d="M88.2344 67.9879L99.5301 72.0373C100.6 68.2799 101.379 65.3572 102.095 62.0491L90.7561 57.9709C90.0765 61.1251 89.3173 64.1284 88.2344 67.9879Z" fill="url(#paint8_linear_10088_39244)" />
    <path
        d="M88.2344 67.9879L99.5301 72.0373M88.2344 67.9879C89.3699 63.941 90.1495 60.8353 90.8545 57.5101M88.2344 67.9879C89.3173 64.1284 90.0765 61.1251 90.7561 57.9709M99.5301 72.0373C100.609 68.2495 101.392 65.3099 102.113 61.9688M99.5301 72.0373C100.6 68.2799 101.379 65.3572 102.095 62.0491M90.7561 57.9709L102.095 62.0491M90.7561 57.9709C90.7891 57.8177 90.8219 57.6641 90.8545 57.5101M102.095 62.0491C102.101 62.0224 102.107 61.9956 102.113 61.9688M90.8545 57.5101C91.3772 55.045 92.0526 52.6528 92.6262 49.4915C92.6717 49.2407 92.9247 49.0831 93.1691 49.1555L103.859 52.323C104.065 52.3839 104.193 52.5883 104.157 52.7998C103.559 56.3219 102.654 59.4577 102.113 61.9688"
        stroke="black"
        stroke-width="0.85251"
        stroke-linejoin="round"
    />
    <path d="M90.1562 67.3487L98.0818 69.9906C98.298 70.0626 98.5333 69.9512 98.6123 69.7375C99.5547 67.1869 99.7769 65.5141 100.386 62.873" stroke="black" stroke-width="0.85251" stroke-linecap="round" stroke-linejoin="round" />
    <ellipse cx="93.9932" cy="51.5996" rx="0.624521" ry="0.636791" transform="rotate(-2.29292 93.9932 51.5996)" fill="black" />
    <ellipse cx="101.721" cy="54.2529" rx="0.715349" ry="0.729403" transform="rotate(-2.29292 101.721 54.2529)" fill="black" />
    <ellipse cx="92.806" cy="56.812" rx="0.70234" ry="0.651141" transform="rotate(-2.29292 92.806 56.812)" fill="black" />
    <ellipse cx="100.478" cy="59.2885" rx="0.70234" ry="0.651141" transform="rotate(-2.29292 100.478 59.2885)" fill="black" />
    <path
        d="M97.2181 68.1095L91.0178 65.8868C90.8933 65.8421 90.8246 65.7088 90.8603 65.5815C91.4351 63.5352 91.8548 62.0636 92.2275 60.3817C92.2604 60.2334 92.4157 60.1466 92.5589 60.1974L98.6869 62.3719C98.8063 62.4142 98.8756 62.5389 98.8487 62.6627C98.4612 64.4432 98.1102 65.9359 97.5451 67.941C97.5056 68.0812 97.3553 68.1587 97.2181 68.1095Z"
        fill="#5869DD"
        stroke="black"
        stroke-width="0.767259"
        stroke-linejoin="round"
    />
    <path d="M95.4003 63.5763C95.373 63.8956 95.0751 64.1308 94.7348 64.1018C94.3946 64.0727 94.1409 63.7903 94.1682 63.471C94.1955 63.1518 94.4934 62.9165 94.8336 62.9456C95.1739 62.9747 95.4276 63.2571 95.4003 63.5763Z" fill="black" />
    <path d="M95.0277 65.252L94.8047 63.287C94.8001 63.2457 94.7451 63.2348 94.725 63.2713L93.8049 64.945C93.7915 64.9694 93.8047 64.9999 93.8317 65.0068L94.9748 65.2982C95.0037 65.3055 95.031 65.2817 95.0277 65.252Z" fill="black" />
    <defs>
        <linearGradient id="paint0_linear_10088_39244" x1="16.3459" y1="156.984" x2="196.475" y2="130.267" gradientUnits="userSpaceOnUse">
            <stop offset="0.0654436" stop-color="#D6FFBB" />
            <stop offset="1" stop-color="#5869DD" />
        </linearGradient>
        <linearGradient id="paint1_linear_10088_39244" x1="-16.6888" y1="202.593" x2="137.951" y2="186.15" gradientUnits="userSpaceOnUse">
            <stop stop-color="#D6FFBB" />
            <stop offset="1" stop-color="#5869DD" />
        </linearGradient>
        <linearGradient id="paint2_linear_10088_39244" x1="124.401" y1="18.4507" x2="67.3621" y2="-1.94948" gradientUnits="userSpaceOnUse">
            <stop stop-color="#5869DD" />
            <stop offset="1" stop-color="#D6FFBB" />
        </linearGradient>
        <linearGradient id="paint3_linear_10088_39244" x1="136.759" y1="85.586" x2="111.184" y2="76.4216" gradientUnits="userSpaceOnUse">
            <stop stop-color="#5869DD" />
            <stop offset="1" stop-color="#D6FFBB" />
        </linearGradient>
        <linearGradient id="paint4_linear_10088_39244" x1="118.217" y1="72.159" x2="130.792" y2="77.4152" gradientUnits="userSpaceOnUse">
            <stop stop-color="#D6FFBB" />
            <stop offset="1" stop-color="#5869DD" />
        </linearGradient>
        <linearGradient id="paint5_linear_10088_39244" x1="74.8729" y1="63.6376" x2="49.7249" y2="53.3585" gradientUnits="userSpaceOnUse">
            <stop stop-color="#5869DD" />
            <stop offset="1" stop-color="#D6FFBB" />
        </linearGradient>
        <linearGradient id="paint6_linear_10088_39244" x1="56.9389" y1="49.4082" x2="69.2704" y2="55.2118" gradientUnits="userSpaceOnUse">
            <stop stop-color="#D6FFBB" />
            <stop offset="1" stop-color="#5869DD" />
        </linearGradient>
        <linearGradient id="paint7_linear_10088_39244" x1="87.3819" y1="52.0033" x2="101.395" y2="47.3457" gradientUnits="userSpaceOnUse">
            <stop stop-color="#D6FFBB" />
            <stop offset="1" stop-color="#5869DD" />
        </linearGradient>
        <linearGradient id="paint8_linear_10088_39244" x1="104.858" y1="64.791" x2="82.6931" y2="67.1354" gradientUnits="userSpaceOnUse">
            <stop stop-color="#5869DD" />
            <stop offset="1" stop-color="#D6FFBB" />
        </linearGradient>
    </defs>
</svg>
