<svg xmlns="http://www.w3.org/2000/svg" width="253" height="65" viewBox="0 0 253 65" fill="none">
    <path d="M63 22H78V24.5246H71.7023V43H69.0687V24.5246H63V22Z" fill="#B2B2B2" />
    <path
        d="M83 27C88.3667 27 90 28.875 90 34.7206C90 40.125 88.3667 42 83 42C77.6333 42 76 40.0147 76 34.7206C76 28.6544 77.75 27 83 27ZM83 39.5735C85.9167 39.5735 87.3167 39.2426 87.3167 34.6103C87.3167 29.6471 86.2667 29.3162 83 29.3162C79.9667 29.3162 78.6833 29.7574 78.6833 34.6103C78.6833 39.2426 80.0833 39.5735 83 39.5735Z"
        fill="#B2B2B2"
    />
    <path
        d="M93.113 27.2289H95.1478L95.713 28.8308C96.5043 28.2587 99.2174 27 101.026 27C105.096 27 106 30.8905 106 34.6667C106 38.6716 105.322 42.5622 101.026 42.5622C99.7826 42.5622 97.4087 42.2189 95.6 41.4179V50H93V27.2289H93.113ZM100.8 40.2736C102.496 40.2736 103.4 39.2438 103.4 34.7811C103.4 31.1194 102.496 29.5174 100.8 29.5174C98.7652 29.5174 97.0696 30.0896 95.713 30.7761V39.5871C97.4087 40.0448 98.7652 40.2736 100.8 40.2736Z"
        fill="#B2B2B2"
    />
    <path
        d="M109 22H117.348C123.841 22 125 28.082 125 32.5574C125 37.7213 122.913 43 117.348 43H109V22ZM117.232 40.3607C120.826 40.3607 122.217 36.8033 122.217 32.4426C122.217 26.4754 120.362 24.4098 117.232 24.4098H111.667V40.3607H117.232Z"
        fill="#B2B2B2"
    />
    <path
        d="M133.795 27C137.776 27 140 27.3358 140 32.2612C140 34.5 138.712 35.7313 135.785 35.7313H129.698C129.698 38.9776 130.517 39.6493 132.741 39.6493C135.434 39.6493 137.541 39.6493 139.766 39.3134V41.2164C137.424 41.8881 134.615 42 132.156 42C128.176 42 127.005 40.097 127.005 34.3881C126.888 27.8955 128.878 27 133.795 27ZM135.551 33.6045C136.722 33.6045 137.307 33.1567 137.307 32.2612C137.307 29.5746 136.839 29.3507 133.912 29.3507C130.868 29.3507 129.698 29.3507 129.698 33.6045H135.551Z"
        fill="#B2B2B2"
    />
    <path d="M144.734 27L149 38.5038L153.266 27H156L150.203 42H147.578L142 27H144.734Z" fill="#B2B2B2" />
    <path
        d="M164.848 27C168.795 27 171 27.3358 171 32.2612C171 34.5 169.723 35.7313 166.821 35.7313H160.67C160.67 38.9776 161.482 39.6493 163.687 39.6493C166.357 39.6493 168.446 39.6493 170.652 39.3134V41.2164C168.33 41.8881 165.545 42 163.107 42C159.161 42 158 40.097 158 34.3881C158 27.8955 159.973 27 164.848 27ZM166.589 33.6045C167.75 33.6045 168.33 33.1567 168.33 32.2612C168.33 29.5746 167.866 29.3507 164.964 29.3507C161.946 29.3507 160.786 29.3507 160.786 33.6045H166.589Z"
        fill="#B2B2B2"
    />
    <path d="M173 20H175.776V36.5C175.776 38.8571 176.5 39.4184 177.466 39.6429C177.466 39.6429 179.759 40.2041 180 40.2041V42H177.103C174.69 42 173 40.6531 173 36.7245V20Z" fill="#B2B2B2" />
    <path
        d="M188 27C193.367 27 195 28.875 195 34.7206C195 40.125 193.367 42 188 42C182.633 42 181 40.0147 181 34.7206C181 28.6544 182.867 27 188 27ZM188 39.5735C190.917 39.5735 192.317 39.2426 192.317 34.6103C192.317 29.6471 191.267 29.3162 188 29.3162C184.967 29.3162 183.683 29.7574 183.683 34.6103C183.8 39.2426 185.2 39.5735 188 39.5735Z"
        fill="#B2B2B2"
    />
    <path
        d="M197.113 27.2289H199.148L199.713 28.8308C200.504 28.2587 203.217 27 205.026 27C209.096 27 210 30.8905 210 34.6667C210 38.6716 209.322 42.5622 205.026 42.5622C203.783 42.5622 201.409 42.2189 199.6 41.4179V50H197V27.2289H197.113ZM204.687 40.2736C206.383 40.2736 207.287 39.2438 207.287 34.7811C207.287 31.1194 206.383 29.5174 204.687 29.5174C202.652 29.5174 200.957 30.0896 199.6 30.7761V39.5871C201.409 40.0448 202.765 40.2736 204.687 40.2736Z"
        fill="#B2B2B2"
    />
    <path
        d="M219.848 27C223.795 27 226 27.3358 226 32.2612C226 34.5 224.723 35.7313 221.821 35.7313H215.67C215.67 38.9776 216.482 39.6493 218.688 39.6493C221.357 39.6493 223.446 39.6493 225.652 39.3134V41.2164C223.33 41.8881 220.545 42 218.107 42C214.161 42 213 40.097 213 34.3881C213 27.8955 214.973 27 219.848 27ZM221.589 33.6045C222.75 33.6045 223.33 33.1567 223.33 32.2612C223.33 29.5746 222.866 29.3507 219.964 29.3507C216.946 29.3507 215.786 29.3507 215.786 33.6045H221.589Z"
        fill="#B2B2B2"
    />
    <path
        d="M229 27.1103H231.022L231.697 28.9853C233.27 27.9926 234.73 27 236.978 27C237.764 27 238.663 27 239 27.2206V29.7574C238.663 29.6471 237.652 29.6471 236.865 29.6471C234.73 29.6471 233.607 30.0882 231.697 31.3015V42H229.112V27.1103H229Z"
        fill="#B2B2B2"
    />
    <path
        d="M241 30.75C241 28.4338 241.982 27 244.818 27C246.673 27 250.818 27.2206 252.236 27.5515V29.3162H245.145C243.618 29.3162 243.509 29.8676 243.509 30.75V31.8529C243.509 33.1765 244.164 33.2868 245.145 33.2868H249.291C251.8 33.2868 253 34.8309 253 36.9265V38.3603C253 41.3382 251.145 42 249.4 42C247.655 42 242.636 41.6691 241.655 41.4485V39.6838H249.073C249.182 39.6838 250.491 39.7941 250.491 38.3603V37.1471C250.491 36.2647 250.164 35.8235 249.073 35.8235H244.927C242.309 35.8235 241 34.9412 241 32.0735V30.75Z"
        fill="#B2B2B2"
    />
    <path
        fill-rule="evenodd"
        clip-rule="evenodd"
        d="M40.3005 11H3.69421C1.67919 11 0 12.3299 0 13.9923V51.0077C0 52.6701 1.67919 54 3.69421 54H40.3005C42.3155 54 43.9947 52.6701 43.9947 51.0077V13.9923C44.1067 12.3299 42.4275 11 40.3005 11Z"
        fill="#B2B2B2"
    />
    <path
        fill-rule="evenodd"
        clip-rule="evenodd"
        d="M31.8342 23.5721C31.8342 23.5721 29.3731 20.4465 24.3392 20H7V25.5814H11.4746L11.3628 44H17.7391V25.4698H24.3392C24.3392 25.4698 27.024 25.8047 28.0308 27.814C28.0308 27.814 30.1562 31.6093 28.0308 36.0744C28.0308 36.0744 27.024 37.9721 24.8985 38.1953L19.6408 38.307V43.8884H24.2273C24.2273 43.8884 26.4646 43.8884 28.5901 42.9953C29.8206 42.4372 31.2749 41.5442 32.0579 40.3163C31.9461 40.3163 38.8817 32.5023 31.8342 23.5721Z"
        fill="#F1EFED"
    />
</svg>
