<svg xmlns="http://www.w3.org/2000/svg" width="32" height="32" viewBox="0 0 32 32" fill="none">
    <path
        d="M16 0C7.16 0 0 7.16 0 16C0 19.52 1.12 22.76 3.04 25.4L0.84 31.2L7.2 29.36C9.72 31.04 12.76 32 16 32C24.84 32 32 24.84 32 16C32 7.16 24.84 0 16 0ZM24.52 22.64L22.8 24.32C21 26.12 16.24 24.16 12.04 19.92C7.84 15.72 5.96 10.96 7.64 9.2L9.36 7.48C10 6.84 11.08 6.84 11.76 7.48L14.28 10C15.16 10.88 14.8 12.4 13.64 12.76C12.84 13.04 12.28 13.92 12.56 14.72C13 16.6 15.44 18.92 17.24 19.36C18.04 19.56 18.96 19.08 19.2 18.28C19.56 17.12 21.08 16.76 21.96 17.64L24.48 20.16C25.12 20.84 25.12 21.92 24.52 22.64Z"
        fill="black"
    />
</svg>
