<svg xmlns="http://www.w3.org/2000/svg" width="426" height="465" viewBox="0 0 426 465" fill="none">
    <path d="M347.602 0C343.922 3.39 340.392 6.94 337.062 10.67C337.051 10.6798 337.037 10.6853 337.022 10.6853C337.008 10.6853 336.993 10.6798 336.982 10.67V10.6C340.342 6.89001 343.902 3.37 347.602 0Z" fill="black" />
    <path
        d="M327.732 22.39C324.844 26.4671 322.315 30.7866 320.172 35.3C320.154 35.3383 320.123 35.3681 320.083 35.3831C320.044 35.3981 320 35.397 319.962 35.38C319.925 35.3607 319.897 35.3288 319.882 35.2901C319.867 35.2514 319.867 35.2087 319.882 35.17C322.068 30.66 324.634 26.3444 327.552 22.27C327.558 22.2552 327.568 22.2419 327.58 22.2312C327.592 22.2205 327.606 22.2125 327.622 22.2079C327.637 22.2033 327.653 22.2022 327.669 22.2046C327.685 22.207 327.701 22.2129 327.714 22.2218C327.727 22.2308 327.739 22.2426 327.747 22.2564C327.755 22.2702 327.761 22.2857 327.762 22.3017C327.764 22.3178 327.762 22.334 327.757 22.3493C327.752 22.3645 327.743 22.3784 327.732 22.39V22.39Z"
        fill="black"
    />
    <path
        d="M316.432 49.6599C316.31 52.1389 316.573 54.6217 317.212 57.0199C317.865 59.4068 318.95 61.6539 320.412 63.65C320.439 63.7068 320.444 63.7711 320.428 63.8317C320.413 63.8924 320.376 63.9456 320.325 63.9822C320.274 64.0189 320.212 64.0367 320.15 64.0326C320.087 64.0286 320.028 64.0029 319.982 63.96V63.96C318.491 61.9056 317.393 59.5935 316.742 57.1399C316.112 54.6927 315.863 52.1631 316.002 49.6399C316.004 49.6124 316.01 49.5853 316.022 49.5603C316.034 49.5353 316.051 49.5129 316.071 49.4943C316.091 49.4757 316.115 49.4614 316.141 49.452C316.167 49.4427 316.195 49.4386 316.222 49.4399C316.251 49.4399 316.279 49.4457 316.305 49.4568C316.331 49.468 316.355 49.4844 316.375 49.5049C316.394 49.5255 316.409 49.5499 316.419 49.5765C316.429 49.6032 316.434 49.6315 316.432 49.6599V49.6599Z"
        fill="black"
    />
    <path
        d="M332.251 72.3C336.907 74.0447 341.805 75.0567 346.771 75.3C346.869 75.3 346.963 75.3389 347.032 75.4083C347.102 75.4777 347.141 75.5718 347.141 75.67C347.141 75.7681 347.102 75.8622 347.032 75.9316C346.963 76.001 346.869 76.04 346.771 76.04V76.04C341.734 75.7362 336.776 74.6533 332.071 72.83C332.032 72.8156 331.996 72.7935 331.965 72.7648C331.935 72.7362 331.91 72.7017 331.893 72.6634C331.877 72.6251 331.868 72.5838 331.867 72.5419C331.867 72.5001 331.875 72.4586 331.891 72.42C331.93 72.3642 331.986 72.3224 332.051 72.3008C332.116 72.2793 332.186 72.2789 332.251 72.3Z"
        fill="black"
    />
    <path
        d="M361.622 74.4201C362.832 74.1501 364.062 73.9101 365.252 73.6301C366.436 73.2847 367.601 72.8775 368.742 72.4101C371.04 71.4796 373.275 70.4006 375.432 69.1801C375.485 69.1465 375.545 69.1242 375.607 69.1145C375.67 69.1049 375.733 69.1082 375.794 69.1241C375.855 69.14 375.912 69.1683 375.962 69.2072C376.011 69.2461 376.052 69.2947 376.082 69.3501C376.115 69.4045 376.136 69.4649 376.145 69.5276C376.154 69.5903 376.15 69.6542 376.135 69.7155C376.119 69.7769 376.091 69.8345 376.053 69.8851C376.015 69.9356 375.967 69.9781 375.912 70.0101V70.0101C373.709 71.2385 371.427 72.3208 369.082 73.2501C367.907 73.7254 366.705 74.1327 365.482 74.4701C364.242 74.7601 363.012 74.9901 361.782 75.2601C361.728 75.2719 361.671 75.2729 361.617 75.263C361.562 75.253 361.509 75.2324 361.462 75.2022C361.368 75.1413 361.301 75.0452 361.277 74.9351C361.253 74.8251 361.274 74.71 361.335 74.6153C361.396 74.5206 361.492 74.454 361.602 74.4301L361.622 74.4201Z"
        fill="black"
    />
    <path
        d="M383.611 58.8699C383.047 57.855 382.221 57.0092 381.221 56.4199C380.19 55.7687 379.098 55.2194 377.961 54.7799C375.685 53.8728 373.284 53.3164 370.841 53.1299C370.695 53.118 370.56 53.0486 370.465 52.937C370.37 52.8254 370.324 52.6808 370.336 52.5349C370.348 52.3891 370.417 52.2539 370.529 52.1592C370.64 52.0645 370.785 52.018 370.931 52.0299V52.0299C373.483 52.2414 375.988 52.8382 378.361 53.7999C379.564 54.2607 380.717 54.8438 381.801 55.5399C382.957 56.2392 383.906 57.2331 384.551 58.4199C384.601 58.5417 384.603 58.678 384.557 58.8013C384.51 58.9246 384.419 59.0256 384.301 59.084C384.182 59.1424 384.047 59.1538 383.92 59.1159C383.794 59.0781 383.687 58.9937 383.621 58.8799V58.8799L383.611 58.8699Z"
        fill="black"
    />
    <path
        d="M356.601 56.0701C352.17 58.2658 348.132 61.1783 344.651 64.6901C344.534 64.7898 344.384 64.8418 344.231 64.8357C344.077 64.8297 343.932 64.766 343.823 64.6575C343.715 64.549 343.651 64.4035 343.645 64.2502C343.639 64.0968 343.691 63.9468 343.791 63.8301V63.8301C347.383 60.2364 351.546 57.2628 356.111 55.0301C356.249 54.9646 356.407 54.9562 356.551 55.0068C356.695 55.0573 356.814 55.1628 356.881 55.3001C356.945 55.4394 356.952 55.5986 356.9 55.743C356.847 55.8874 356.74 56.005 356.601 56.0701Z"
        fill="black"
    />
    <path
        d="M335.731 76.4401C333.591 80.8701 332.597 85.7663 332.841 90.6801C332.841 90.8578 332.771 91.0282 332.645 91.1538C332.519 91.2795 332.349 91.3501 332.171 91.3501C331.993 91.3501 331.823 91.2795 331.697 91.1538C331.572 91.0282 331.501 90.8578 331.501 90.6801C331.432 88.1318 331.64 85.5835 332.121 83.0801C332.607 80.5612 333.438 78.1215 334.591 75.8301C334.627 75.7519 334.679 75.6818 334.742 75.624C334.806 75.5662 334.881 75.5218 334.962 75.4936C335.044 75.4654 335.13 75.4539 335.216 75.4597C335.302 75.4656 335.386 75.4888 335.462 75.5278C335.539 75.5669 335.607 75.621 335.663 75.687C335.718 75.753 335.759 75.8294 335.784 75.9118C335.81 75.9942 335.818 76.0808 335.809 76.1664C335.799 76.252 335.773 76.3349 335.731 76.4101V76.4401Z"
        fill="black"
    />
    <path
        d="M335.131 105.3L338.981 119.8C339.018 119.983 338.984 120.173 338.885 120.331C338.787 120.49 338.631 120.604 338.451 120.652C338.27 120.699 338.079 120.676 337.915 120.586C337.751 120.496 337.628 120.348 337.571 120.17L333.791 105.66C333.762 105.487 333.799 105.31 333.894 105.163C333.989 105.016 334.136 104.911 334.306 104.867C334.475 104.823 334.655 104.844 334.809 104.926C334.964 105.008 335.082 105.145 335.141 105.31L335.131 105.3Z"
        fill="black"
    />
    <path
        d="M342.621 134.38C343.831 139.23 344.981 144.12 345.841 149.08C345.858 149.182 345.855 149.287 345.831 149.388C345.808 149.49 345.765 149.585 345.705 149.67C345.644 149.754 345.568 149.826 345.48 149.881C345.391 149.936 345.293 149.973 345.191 149.99C345.089 150.009 344.984 150.007 344.883 149.985C344.782 149.962 344.686 149.92 344.602 149.861C344.517 149.801 344.445 149.725 344.39 149.638C344.335 149.55 344.298 149.452 344.281 149.35V149.35C343.461 144.45 342.341 139.59 341.151 134.74C341.123 134.553 341.166 134.362 341.272 134.204C341.377 134.047 341.538 133.935 341.722 133.89C341.906 133.845 342.1 133.87 342.266 133.961C342.432 134.052 342.559 134.201 342.621 134.38Z"
        fill="black"
    />
    <path
        d="M347.253 164.14C347.275 169.202 346.769 174.253 345.743 179.21C345.72 179.318 345.676 179.421 345.613 179.512C345.55 179.604 345.47 179.682 345.377 179.742C345.284 179.803 345.181 179.844 345.072 179.864C344.963 179.884 344.851 179.883 344.743 179.86C344.634 179.837 344.531 179.793 344.44 179.73C344.349 179.668 344.271 179.588 344.21 179.495C344.15 179.402 344.109 179.298 344.088 179.189C344.068 179.08 344.07 178.968 344.093 178.86V178.86C345.108 174.019 345.617 169.086 345.613 164.14C345.613 163.923 345.699 163.714 345.853 163.56C346.007 163.406 346.215 163.32 346.433 163.32C346.65 163.32 346.859 163.406 347.012 163.56C347.166 163.714 347.253 163.923 347.253 164.14V164.14Z"
        fill="black"
    />
    <path
        d="M341.782 193.76C340.249 198.553 338.509 203.27 336.562 207.91C336.518 208.014 336.454 208.109 336.373 208.189C336.293 208.268 336.197 208.331 336.092 208.374C335.987 208.417 335.875 208.438 335.762 208.438C335.648 208.437 335.536 208.414 335.432 208.37C335.328 208.326 335.233 208.262 335.153 208.181C335.074 208.101 335.011 208.005 334.968 207.9C334.925 207.795 334.904 207.683 334.904 207.57C334.905 207.456 334.928 207.344 334.972 207.24V207.24C336.905 202.66 338.632 197.993 340.152 193.24C340.223 193.024 340.376 192.845 340.579 192.742C340.781 192.639 341.016 192.62 341.232 192.69C341.338 192.724 341.437 192.779 341.522 192.851C341.608 192.923 341.678 193.011 341.729 193.111C341.78 193.21 341.811 193.319 341.82 193.43C341.829 193.541 341.816 193.654 341.782 193.76V193.76Z"
        fill="black"
    />
    <path
        d="M330.102 221.53C327.749 225.97 325.192 230.303 322.432 234.53C322.366 234.627 322.282 234.71 322.184 234.775C322.086 234.84 321.977 234.884 321.862 234.907C321.746 234.929 321.628 234.928 321.513 234.905C321.398 234.881 321.289 234.836 321.192 234.77C321.095 234.704 321.011 234.62 320.947 234.522C320.882 234.424 320.837 234.315 320.815 234.2C320.793 234.084 320.793 233.966 320.817 233.851C320.84 233.736 320.886 233.627 320.952 233.53V233.53C323.685 229.377 326.222 225.103 328.562 220.71C328.616 220.609 328.689 220.519 328.777 220.446C328.866 220.374 328.968 220.319 329.077 220.286C329.187 220.252 329.302 220.241 329.416 220.252C329.53 220.263 329.641 220.296 329.742 220.35C329.843 220.404 329.933 220.477 330.005 220.565C330.078 220.654 330.133 220.756 330.166 220.865C330.2 220.975 330.211 221.09 330.2 221.204C330.189 221.318 330.156 221.429 330.102 221.53V221.53Z"
        fill="black"
    />
    <path
        d="M313.581 246.71C310.441 250.637 307.125 254.41 303.631 258.03C303.461 258.199 303.231 258.293 302.991 258.293C302.752 258.293 302.522 258.199 302.351 258.03C302.267 257.946 302.199 257.847 302.153 257.737C302.108 257.627 302.084 257.509 302.084 257.39C302.084 257.271 302.108 257.153 302.153 257.043C302.199 256.933 302.267 256.834 302.351 256.75V256.75C305.801 253.18 309.101 249.44 312.201 245.56C312.352 245.377 312.568 245.261 312.803 245.235C313.038 245.208 313.274 245.275 313.461 245.42C313.557 245.495 313.636 245.588 313.694 245.695C313.753 245.801 313.788 245.918 313.8 246.039C313.811 246.16 313.797 246.282 313.76 246.397C313.722 246.513 313.661 246.619 313.581 246.71V246.71Z"
        fill="black"
    />
    <path
        d="M292.662 268.38C288.842 271.653 284.882 274.747 280.782 277.66C280.683 277.731 280.571 277.782 280.453 277.809C280.334 277.836 280.211 277.84 280.091 277.819C279.971 277.799 279.856 277.755 279.754 277.69C279.651 277.625 279.562 277.54 279.492 277.44C279.421 277.342 279.371 277.231 279.344 277.113C279.316 276.995 279.313 276.873 279.333 276.754C279.354 276.635 279.398 276.521 279.463 276.419C279.528 276.317 279.613 276.229 279.712 276.16V276.16C283.765 273.287 287.685 270.233 291.472 267C291.657 266.844 291.896 266.766 292.138 266.785C292.379 266.804 292.603 266.917 292.762 267.1C292.913 267.285 292.987 267.522 292.968 267.76C292.95 267.998 292.84 268.22 292.662 268.38V268.38Z"
        fill="black"
    />
    <path
        d="M268.101 285.83L261.431 289.42L258.111 291.2L254.761 292.88C254.538 292.993 254.28 293.012 254.042 292.934C253.805 292.857 253.609 292.688 253.496 292.465C253.383 292.242 253.364 291.984 253.441 291.746C253.519 291.509 253.688 291.313 253.911 291.2V291.2L257.271 289.52L260.561 287.76L267.121 284.22H267.181C267.288 284.161 267.406 284.124 267.528 284.111C267.65 284.098 267.774 284.109 267.891 284.145C268.008 284.18 268.117 284.239 268.212 284.317C268.306 284.395 268.384 284.491 268.441 284.6C268.552 284.81 268.578 285.054 268.515 285.282C268.452 285.511 268.304 285.707 268.101 285.83Z"
        fill="black"
    />
    <path
        d="M241.341 299.54L227.711 305.87C227.594 305.973 227.455 306.046 227.305 306.086C227.154 306.125 226.997 306.129 226.845 306.097C226.693 306.065 226.551 305.998 226.429 305.902C226.307 305.805 226.21 305.682 226.144 305.541C226.079 305.4 226.047 305.246 226.051 305.09C226.056 304.935 226.096 304.783 226.17 304.646C226.243 304.509 226.347 304.391 226.474 304.302C226.601 304.212 226.747 304.153 226.901 304.13V304.13L240.481 297.85C240.713 297.755 240.972 297.75 241.207 297.837C241.443 297.924 241.637 298.097 241.751 298.32C241.837 298.539 241.843 298.782 241.768 299.005C241.693 299.228 241.542 299.417 241.341 299.54Z"
        fill="black"
    />
    <path
        d="M213.762 311.55C209.052 313.29 204.272 314.86 199.422 316.2C199.29 316.266 199.146 316.303 198.998 316.306C198.851 316.31 198.704 316.281 198.569 316.222C198.434 316.162 198.314 316.073 198.217 315.962C198.12 315.85 198.05 315.719 198.01 315.577C197.97 315.435 197.962 315.286 197.987 315.14C198.011 314.995 198.068 314.856 198.152 314.735C198.236 314.614 198.347 314.513 198.475 314.44C198.603 314.366 198.745 314.322 198.892 314.31C203.682 312.99 208.412 311.44 213.082 309.72C213.308 309.689 213.537 309.736 213.732 309.853C213.927 309.969 214.077 310.149 214.156 310.362C214.235 310.576 214.239 310.809 214.168 311.025C214.096 311.241 213.953 311.426 213.762 311.55V311.55Z"
        fill="black"
    />
    <path
        d="M184.671 319.45L169.841 321.79C169.576 321.831 169.305 321.765 169.088 321.607C168.872 321.448 168.727 321.21 168.686 320.945C168.645 320.68 168.711 320.409 168.869 320.192C169.028 319.976 169.266 319.831 169.531 319.79V319.79L184.341 317.46C184.602 317.42 184.868 317.484 185.082 317.64C185.296 317.795 185.439 318.029 185.481 318.29C185.504 318.419 185.501 318.552 185.473 318.68C185.445 318.809 185.391 318.93 185.316 319.038C185.241 319.146 185.145 319.237 185.034 319.308C184.924 319.379 184.8 319.427 184.671 319.45V319.45Z"
        fill="black"
    />
    <path
        d="M155.002 324.01L140.182 326.3C139.954 326.286 139.738 326.194 139.57 326.041C139.402 325.887 139.291 325.681 139.256 325.456C139.221 325.23 139.264 325 139.378 324.803C139.491 324.605 139.669 324.453 139.882 324.37L154.722 322.1C154.98 322.065 155.241 322.133 155.45 322.288C155.659 322.443 155.8 322.673 155.842 322.93C155.876 323.186 155.81 323.447 155.658 323.655C155.505 323.864 155.277 324.006 155.022 324.05L155.002 324.01Z"
        fill="black"
    />
    <path
        d="M125.432 328.66L110.702 331.36C110.489 331.336 110.289 331.244 110.133 331.098C109.976 330.952 109.871 330.76 109.831 330.549C109.792 330.339 109.822 330.121 109.915 329.929C110.009 329.736 110.162 329.579 110.352 329.48L125.132 326.74C125.351 326.757 125.559 326.847 125.722 326.994C125.886 327.142 125.996 327.339 126.036 327.556C126.076 327.772 126.043 327.996 125.943 328.192C125.842 328.388 125.68 328.545 125.482 328.64L125.432 328.66Z"
        fill="black"
    />
    <path
        d="M96.0509 334.52C91.2562 335.787 86.555 337.384 81.9809 339.3C81.7579 339.366 81.5183 339.346 81.3087 339.246C81.099 339.145 80.9341 338.97 80.8458 338.755C80.7575 338.54 80.7521 338.3 80.8306 338.081C80.9091 337.862 81.066 337.68 81.2709 337.57C85.9213 335.612 90.7029 333.981 95.5809 332.69C95.7051 332.645 95.8374 332.626 95.9692 332.635C96.1011 332.644 96.2296 332.68 96.3466 332.741C96.4637 332.803 96.5667 332.888 96.649 332.991C96.7313 333.095 96.7911 333.214 96.8246 333.342C96.8581 333.47 96.8646 333.603 96.8437 333.733C96.8227 333.864 96.7748 333.989 96.7029 334.099C96.631 334.21 96.5368 334.305 96.4263 334.377C96.3157 334.45 96.1913 334.498 96.0609 334.52H96.0509Z"
        fill="black"
    />
    <path
        d="M68.4907 345.64C64.0907 347.96 59.7841 350.45 55.5707 353.11C55.469 353.176 55.3552 353.221 55.2361 353.242C55.1169 353.264 54.9947 353.262 54.8763 353.237C54.7579 353.211 54.6457 353.162 54.5461 353.093C54.4465 353.025 54.3614 352.937 54.2957 352.835C54.2301 352.733 54.1851 352.619 54.1634 352.5C54.1417 352.381 54.1436 352.259 54.1692 352.14C54.1947 352.022 54.2433 351.91 54.3122 351.81C54.3811 351.711 54.469 351.626 54.5707 351.56C58.8107 348.893 63.1441 346.373 67.5707 344C67.785 343.912 68.0243 343.907 68.2419 343.987C68.4594 344.066 68.6396 344.223 68.7472 344.429C68.8547 344.634 68.8819 344.871 68.8233 345.095C68.7648 345.32 68.6248 345.514 68.4307 345.64H68.4907Z"
        fill="black"
    />
    <path
        d="M43.2619 361.56C39.2619 364.56 35.4119 367.67 31.7019 370.98C31.5227 371.129 31.2928 371.202 31.0605 371.185C30.8281 371.168 30.6115 371.062 30.4561 370.888C30.3007 370.715 30.2186 370.488 30.2272 370.255C30.2357 370.022 30.3342 369.802 30.5019 369.64C34.2552 366.307 38.1485 363.13 42.1818 360.11C42.3741 359.967 42.6154 359.906 42.8527 359.94C43.0899 359.975 43.3036 360.103 43.4468 360.295C43.5901 360.487 43.651 360.729 43.6163 360.966C43.5816 361.203 43.4541 361.417 43.2619 361.56V361.56Z"
        fill="black"
    />
    <path
        d="M21.0909 381.45C17.7454 385.116 14.6707 389.019 11.8909 393.13C11.8252 393.225 11.7414 393.307 11.6443 393.369C11.5472 393.432 11.4387 393.475 11.325 393.496C11.2112 393.517 11.0945 393.515 10.9814 393.491C10.8683 393.467 10.7611 393.421 10.6659 393.355C10.5706 393.289 10.4893 393.206 10.4265 393.109C10.3636 393.011 10.3205 392.903 10.2996 392.789C10.2788 392.675 10.2805 392.559 10.3047 392.446C10.3289 392.332 10.3752 392.225 10.4409 392.13C13.2645 387.966 16.386 384.013 19.7809 380.3C19.9424 380.14 20.159 380.048 20.3864 380.042C20.6137 380.037 20.8346 380.119 21.0035 380.271C21.1724 380.423 21.2766 380.634 21.2947 380.861C21.3128 381.088 21.2435 381.313 21.1009 381.49L21.0909 381.45Z"
        fill="black"
    />
    <path
        d="M4.93071 406.17C3.08389 410.725 1.9994 415.553 1.72071 420.46C1.71143 420.688 1.61192 420.903 1.44408 421.058C1.27623 421.213 1.0538 421.294 0.82571 421.285C0.597623 421.276 0.382572 421.176 0.227855 421.008C0.0731375 420.841 -0.00856993 420.618 0.000712644 420.39C0.282536 415.292 1.40079 410.275 3.31071 405.54C3.34829 405.429 3.40807 405.326 3.48643 405.238C3.56479 405.151 3.66011 405.08 3.76664 405.03C3.87316 404.98 3.98868 404.952 4.1062 404.948C4.22373 404.945 4.34083 404.965 4.45043 405.007C4.56002 405.05 4.65984 405.114 4.74385 405.196C4.82786 405.279 4.89431 405.377 4.9392 405.486C4.9841 405.595 5.00649 405.711 5.00503 405.829C5.00357 405.946 4.97829 406.062 4.93071 406.17V406.17Z"
        fill="black"
    />
    <path
        d="M4.06259 434.82C5.90936 439.372 8.53908 443.565 11.8326 447.21C11.9781 447.375 12.0525 447.59 12.0394 447.81C12.0263 448.029 11.9267 448.234 11.7626 448.38C11.6819 448.452 11.5879 448.507 11.4859 448.542C11.3838 448.578 11.2758 448.593 11.168 448.586C11.0603 448.58 10.9548 448.552 10.8578 448.505C10.7608 448.457 10.674 448.391 10.6026 448.31C7.15126 444.536 4.40448 440.174 2.49259 435.43C2.45188 435.327 2.43187 435.217 2.43371 435.106C2.43555 434.995 2.4592 434.886 2.50331 434.784C2.54741 434.683 2.61112 434.591 2.69078 434.513C2.77044 434.436 2.8645 434.376 2.96759 434.335C3.07068 434.294 3.18077 434.274 3.29159 434.276C3.40241 434.278 3.51179 434.302 3.61347 434.346C3.71515 434.39 3.80714 434.454 3.8842 434.533C3.96126 434.613 4.02188 434.707 4.06259 434.81V434.82Z"
        fill="black"
    />
    <path
        d="M22.9214 456.98C26.868 459.895 31.415 461.894 36.2314 462.83C36.4138 462.881 36.5708 462.998 36.6724 463.158C36.774 463.318 36.813 463.51 36.7821 463.697C36.7511 463.884 36.6523 464.053 36.5046 464.171C36.3569 464.29 36.1706 464.35 35.9814 464.34C30.9197 463.394 26.1352 461.323 21.9814 458.28C21.896 458.221 21.8231 458.146 21.7668 458.058C21.7105 457.971 21.6719 457.874 21.6534 457.771C21.6348 457.669 21.6365 457.564 21.6585 457.463C21.6805 457.361 21.7223 457.265 21.7814 457.18C21.9025 457.007 22.0872 456.889 22.2952 456.851C22.5031 456.814 22.7175 456.86 22.8914 456.98H22.9214Z"
        fill="black"
    />
    <path
        d="M50.5022 460.99C55.0194 459.01 59.2451 456.423 63.0622 453.3C63.1344 453.24 63.218 453.195 63.3079 453.168C63.3978 453.141 63.4922 453.133 63.5855 453.143C63.6788 453.153 63.769 453.182 63.8509 453.228C63.9328 453.274 64.0047 453.336 64.0622 453.41C64.1208 453.483 64.1644 453.567 64.1906 453.656C64.2168 453.746 64.225 453.84 64.2148 453.933C64.2046 454.026 64.1761 454.116 64.1311 454.198C64.086 454.279 64.0252 454.352 63.9522 454.41C60.0449 457.648 55.7152 460.339 51.0821 462.41C50.9031 462.486 50.7014 462.487 50.5214 462.414C50.3414 462.341 50.1977 462.199 50.1222 462.02C50.0466 461.841 50.0452 461.639 50.1183 461.459C50.1915 461.279 50.3331 461.136 50.5122 461.06L50.5022 460.99Z"
        fill="black"
    />
    <path
        d="M74.3123 443.41C75.2423 442.57 76.0923 441.66 76.9923 440.79L79.6523 438.16L84.9623 432.88C85.083 432.759 85.2466 432.692 85.4173 432.692C85.588 432.692 85.7516 432.759 85.8723 432.88C85.993 433.001 86.0608 433.164 86.0608 433.335C86.0608 433.506 85.993 433.669 85.8723 433.79L80.5523 439.11L77.8923 441.76C77.0023 442.64 76.1423 443.56 75.2223 444.4C75.0897 444.519 74.9151 444.581 74.7369 444.572C74.5588 444.562 74.3916 444.483 74.2723 444.35C74.1529 444.217 74.0912 444.043 74.1005 443.865C74.1099 443.687 74.1897 443.519 74.3223 443.4L74.3123 443.41Z"
        fill="black"
    />
    <path
        d="M96.101 422.73C98.0878 421.164 100.183 419.74 102.371 418.47C102.921 418.15 103.481 417.85 104.051 417.56C104.634 417.236 105.251 416.978 105.891 416.79C107.216 416.446 108.616 416.53 109.891 417.03V417.03C110.027 417.092 110.134 417.204 110.191 417.343C110.248 417.482 110.249 417.637 110.196 417.777C110.143 417.916 110.038 418.031 109.903 418.096C109.769 418.162 109.614 418.174 109.471 418.13C108.414 417.712 107.251 417.641 106.151 417.93C105.59 418.098 105.049 418.329 104.541 418.62C103.991 418.9 103.451 419.2 102.921 419.51C100.783 420.753 98.7405 422.153 96.811 423.7C96.6784 423.802 96.5106 423.847 96.3447 423.826C96.1787 423.804 96.0281 423.717 95.926 423.585C95.8239 423.452 95.7786 423.285 95.8002 423.119C95.8218 422.953 95.9084 422.802 96.041 422.7L96.101 422.73Z"
        fill="black"
    />
    <path
        d="M120.512 427.87C121.232 428.87 121.942 429.87 122.682 430.87C123.4 431.861 124.225 432.77 125.142 433.58L130.612 438.67C130.661 438.718 130.7 438.776 130.726 438.839C130.753 438.903 130.767 438.971 130.767 439.04C130.767 439.109 130.753 439.177 130.726 439.24C130.7 439.304 130.661 439.362 130.612 439.41C130.513 439.506 130.38 439.561 130.242 439.561C130.104 439.561 129.971 439.506 129.872 439.41L124.432 434.38C123.47 433.538 122.605 432.592 121.852 431.56C121.092 430.56 120.372 429.56 119.642 428.5C119.577 428.379 119.558 428.239 119.589 428.105C119.62 427.971 119.7 427.854 119.812 427.775C119.924 427.696 120.062 427.661 120.198 427.677C120.335 427.692 120.461 427.758 120.552 427.86L120.512 427.87Z"
        fill="black"
    />
    <path
        d="M142.841 447.14C145.031 448.282 147.329 449.203 149.701 449.89C152.078 450.537 154.528 450.873 156.991 450.89C157.048 450.89 157.105 450.901 157.158 450.924C157.211 450.946 157.259 450.979 157.299 451.02C157.339 451.061 157.37 451.109 157.391 451.162C157.412 451.216 157.422 451.273 157.421 451.33C157.418 451.445 157.371 451.554 157.289 451.635C157.206 451.715 157.096 451.76 156.981 451.76C154.439 451.752 151.908 451.416 149.451 450.76C147.011 450.075 144.646 449.147 142.391 447.99C142.274 447.932 142.186 447.829 142.144 447.706C142.103 447.582 142.113 447.447 142.171 447.33C142.229 447.213 142.332 447.125 142.456 447.083C142.579 447.042 142.714 447.052 142.831 447.11L142.841 447.14Z"
        fill="black"
    />
    <path
        d="M171.571 448.35C176.311 446.82 180.931 444.9 185.661 443.23C185.743 443.201 185.834 443.206 185.912 443.243C185.991 443.281 186.052 443.348 186.081 443.43C186.11 443.512 186.105 443.603 186.068 443.681C186.03 443.76 185.963 443.821 185.881 443.85C181.181 445.54 176.581 447.5 171.811 449.08C171.714 449.112 171.609 449.105 171.517 449.06C171.425 449.015 171.355 448.936 171.321 448.84C171.292 448.742 171.302 448.636 171.348 448.545C171.395 448.454 171.475 448.384 171.571 448.35Z"
        fill="black"
    />
    <path
        d="M200.432 440.3C205.466 440.57 210.417 441.696 215.072 443.63C215.128 443.65 215.174 443.691 215.199 443.745C215.224 443.798 215.227 443.859 215.207 443.915C215.187 443.971 215.146 444.016 215.093 444.042C215.039 444.067 214.978 444.07 214.922 444.05C210.307 442.163 205.403 441.081 200.422 440.85C200.35 440.847 200.281 440.817 200.231 440.765C200.18 440.712 200.152 440.643 200.152 440.57C200.152 440.534 200.16 440.498 200.174 440.464C200.188 440.431 200.209 440.401 200.235 440.375C200.261 440.35 200.292 440.331 200.326 440.318C200.36 440.305 200.396 440.299 200.432 440.3Z"
        fill="black"
    />
    <path
        d="M229.372 447.86C234.287 448.736 239.295 448.974 244.272 448.57C244.303 448.571 244.332 448.583 244.356 448.603C244.379 448.623 244.395 448.65 244.402 448.68C244.402 448.71 244.391 448.739 244.37 448.761C244.35 448.784 244.322 448.797 244.292 448.8C239.286 449.239 234.245 449.034 229.292 448.19C229.248 448.183 229.21 448.159 229.184 448.123C229.157 448.088 229.146 448.044 229.152 448C229.161 447.958 229.186 447.92 229.221 447.894C229.256 447.869 229.299 447.856 229.342 447.86H229.372Z"
        fill="black"
    />
    <path
        d="M259.032 446.06L273.512 442.18L259.052 446.18C259.041 446.19 259.026 446.195 259.012 446.195C258.997 446.195 258.983 446.19 258.972 446.18C258.963 446.168 258.959 446.154 258.959 446.14C258.959 446.126 258.963 446.112 258.972 446.1L259.032 446.06Z"
        fill="black"
    />
    <path d="M347.602 0C343.922 3.39 340.392 6.94 337.062 10.67C337.051 10.6798 337.037 10.6853 337.022 10.6853C337.008 10.6853 336.993 10.6798 336.982 10.67V10.6C340.342 6.89001 343.902 3.37 347.602 0Z" fill="black" />
    <path
        d="M327.732 22.39C324.844 26.4671 322.315 30.7866 320.172 35.3C320.154 35.3383 320.123 35.3681 320.083 35.3831C320.044 35.3981 320 35.397 319.962 35.38C319.925 35.3607 319.897 35.3288 319.882 35.2901C319.867 35.2514 319.867 35.2087 319.882 35.17C322.068 30.66 324.634 26.3444 327.552 22.27C327.558 22.2552 327.568 22.2419 327.58 22.2312C327.592 22.2205 327.606 22.2125 327.622 22.2079C327.637 22.2033 327.653 22.2022 327.669 22.2046C327.685 22.207 327.701 22.2129 327.714 22.2218C327.727 22.2308 327.739 22.2426 327.747 22.2564C327.755 22.2702 327.761 22.2857 327.762 22.3017C327.764 22.3178 327.762 22.334 327.757 22.3493C327.752 22.3645 327.743 22.3784 327.732 22.39V22.39Z"
        fill="black"
    />
    <path
        d="M316.432 49.6599C316.31 52.1389 316.573 54.6217 317.212 57.0199C317.865 59.4068 318.95 61.6539 320.412 63.65C320.439 63.7068 320.444 63.7711 320.428 63.8317C320.413 63.8924 320.376 63.9456 320.325 63.9822C320.274 64.0189 320.212 64.0367 320.15 64.0326C320.087 64.0286 320.028 64.0029 319.982 63.96V63.96C318.491 61.9056 317.393 59.5935 316.742 57.1399C316.112 54.6927 315.863 52.1631 316.002 49.6399C316.004 49.6124 316.01 49.5853 316.022 49.5603C316.034 49.5353 316.051 49.5129 316.071 49.4943C316.091 49.4757 316.115 49.4614 316.141 49.452C316.167 49.4427 316.195 49.4386 316.222 49.4399C316.251 49.4399 316.279 49.4457 316.305 49.4568C316.331 49.468 316.355 49.4844 316.375 49.5049C316.394 49.5255 316.409 49.5499 316.419 49.5765C316.429 49.6032 316.434 49.6315 316.432 49.6599V49.6599Z"
        fill="black"
    />
    <path
        d="M332.251 72.3C336.907 74.0447 341.805 75.0567 346.771 75.3C346.869 75.3 346.963 75.3389 347.032 75.4083C347.102 75.4777 347.141 75.5718 347.141 75.67C347.141 75.7681 347.102 75.8622 347.032 75.9316C346.963 76.001 346.869 76.04 346.771 76.04V76.04C341.734 75.7362 336.776 74.6533 332.071 72.83C332.032 72.8156 331.996 72.7935 331.965 72.7648C331.935 72.7362 331.91 72.7017 331.893 72.6634C331.877 72.6251 331.868 72.5838 331.867 72.5419C331.867 72.5001 331.875 72.4586 331.891 72.42C331.93 72.3642 331.986 72.3224 332.051 72.3008C332.116 72.2793 332.186 72.2789 332.251 72.3Z"
        fill="black"
    />
    <path
        d="M361.622 74.4201C362.832 74.1501 364.062 73.9101 365.252 73.6301C366.436 73.2847 367.601 72.8775 368.742 72.4101C371.04 71.4796 373.275 70.4006 375.432 69.1801C375.485 69.1465 375.545 69.1242 375.607 69.1145C375.67 69.1049 375.733 69.1082 375.794 69.1241C375.855 69.14 375.912 69.1683 375.962 69.2072C376.011 69.2461 376.052 69.2947 376.082 69.3501C376.115 69.4045 376.136 69.4649 376.145 69.5276C376.154 69.5903 376.15 69.6542 376.135 69.7155C376.119 69.7769 376.091 69.8345 376.053 69.8851C376.015 69.9356 375.967 69.9781 375.912 70.0101V70.0101C373.709 71.2385 371.427 72.3208 369.082 73.2501C367.907 73.7254 366.705 74.1327 365.482 74.4701C364.242 74.7601 363.012 74.9901 361.782 75.2601C361.728 75.2719 361.671 75.2729 361.617 75.263C361.562 75.253 361.509 75.2324 361.462 75.2022C361.368 75.1413 361.301 75.0452 361.277 74.9351C361.253 74.8251 361.274 74.71 361.335 74.6153C361.396 74.5206 361.492 74.454 361.602 74.4301L361.622 74.4201Z"
        fill="black"
    />
    <path
        d="M383.611 58.8699C383.047 57.855 382.221 57.0092 381.221 56.4199C380.19 55.7687 379.098 55.2194 377.961 54.7799C375.685 53.8728 373.284 53.3164 370.841 53.1299C370.695 53.118 370.56 53.0486 370.465 52.937C370.37 52.8254 370.324 52.6808 370.336 52.5349C370.348 52.3891 370.417 52.2539 370.529 52.1592C370.64 52.0645 370.785 52.018 370.931 52.0299V52.0299C373.483 52.2414 375.988 52.8382 378.361 53.7999C379.564 54.2607 380.717 54.8438 381.801 55.5399C382.957 56.2392 383.906 57.2331 384.551 58.4199C384.601 58.5417 384.603 58.678 384.557 58.8013C384.51 58.9246 384.419 59.0256 384.301 59.084C384.182 59.1424 384.047 59.1538 383.92 59.1159C383.794 59.0781 383.687 58.9937 383.621 58.8799V58.8799L383.611 58.8699Z"
        fill="black"
    />
    <path
        d="M356.601 56.0701C352.17 58.2658 348.132 61.1783 344.651 64.6901C344.534 64.7898 344.384 64.8418 344.231 64.8357C344.077 64.8297 343.932 64.766 343.823 64.6575C343.715 64.549 343.651 64.4035 343.645 64.2502C343.639 64.0968 343.691 63.9468 343.791 63.8301V63.8301C347.383 60.2364 351.546 57.2628 356.111 55.0301C356.249 54.9646 356.407 54.9562 356.551 55.0068C356.695 55.0573 356.814 55.1628 356.881 55.3001C356.945 55.4394 356.952 55.5986 356.9 55.743C356.847 55.8874 356.74 56.005 356.601 56.0701Z"
        fill="black"
    />
    <path
        d="M335.731 76.4401C333.591 80.8701 332.597 85.7663 332.841 90.6801C332.841 90.8578 332.771 91.0282 332.645 91.1538C332.519 91.2795 332.349 91.3501 332.171 91.3501C331.993 91.3501 331.823 91.2795 331.697 91.1538C331.572 91.0282 331.501 90.8578 331.501 90.6801C331.432 88.1318 331.64 85.5835 332.121 83.0801C332.607 80.5612 333.438 78.1215 334.591 75.8301C334.627 75.7519 334.679 75.6818 334.742 75.624C334.806 75.5662 334.881 75.5218 334.962 75.4936C335.044 75.4654 335.13 75.4539 335.216 75.4597C335.302 75.4656 335.386 75.4888 335.462 75.5278C335.539 75.5669 335.607 75.621 335.663 75.687C335.718 75.753 335.759 75.8294 335.784 75.9118C335.81 75.9942 335.818 76.0808 335.809 76.1664C335.799 76.252 335.773 76.3349 335.731 76.4101V76.4401Z"
        fill="black"
    />
    <path
        d="M335.131 105.3L338.981 119.8C339.018 119.983 338.984 120.173 338.885 120.331C338.787 120.49 338.631 120.604 338.451 120.652C338.27 120.699 338.079 120.676 337.915 120.586C337.751 120.496 337.628 120.348 337.571 120.17L333.791 105.66C333.762 105.487 333.799 105.31 333.894 105.163C333.989 105.016 334.136 104.911 334.306 104.867C334.475 104.823 334.655 104.844 334.809 104.926C334.964 105.008 335.082 105.145 335.141 105.31L335.131 105.3Z"
        fill="black"
    />
    <path
        d="M342.621 134.38C343.831 139.23 344.981 144.12 345.841 149.08C345.858 149.182 345.855 149.287 345.831 149.388C345.808 149.49 345.765 149.585 345.705 149.67C345.644 149.754 345.568 149.826 345.48 149.881C345.391 149.936 345.293 149.973 345.191 149.99C345.089 150.009 344.984 150.007 344.883 149.985C344.782 149.962 344.686 149.92 344.602 149.861C344.517 149.801 344.445 149.725 344.39 149.638C344.335 149.55 344.298 149.452 344.281 149.35V149.35C343.461 144.45 342.341 139.59 341.151 134.74C341.123 134.553 341.166 134.362 341.272 134.204C341.377 134.047 341.538 133.935 341.722 133.89C341.906 133.845 342.1 133.87 342.266 133.961C342.432 134.052 342.559 134.201 342.621 134.38Z"
        fill="black"
    />
    <path
        d="M347.253 164.14C347.275 169.202 346.769 174.253 345.743 179.21C345.72 179.318 345.676 179.421 345.613 179.512C345.55 179.604 345.47 179.682 345.377 179.742C345.284 179.803 345.181 179.844 345.072 179.864C344.963 179.884 344.851 179.883 344.743 179.86C344.634 179.837 344.531 179.793 344.44 179.73C344.349 179.668 344.271 179.588 344.21 179.495C344.15 179.402 344.109 179.298 344.088 179.189C344.068 179.08 344.07 178.968 344.093 178.86V178.86C345.108 174.019 345.617 169.086 345.613 164.14C345.613 163.923 345.699 163.714 345.853 163.56C346.007 163.406 346.215 163.32 346.433 163.32C346.65 163.32 346.859 163.406 347.012 163.56C347.166 163.714 347.253 163.923 347.253 164.14V164.14Z"
        fill="black"
    />
    <path
        d="M341.782 193.76C340.249 198.553 338.509 203.27 336.562 207.91C336.518 208.014 336.454 208.109 336.373 208.189C336.293 208.268 336.197 208.331 336.092 208.374C335.987 208.417 335.875 208.438 335.762 208.438C335.648 208.437 335.536 208.414 335.432 208.37C335.328 208.326 335.233 208.262 335.153 208.181C335.074 208.101 335.011 208.005 334.968 207.9C334.925 207.795 334.904 207.683 334.904 207.57C334.905 207.456 334.928 207.344 334.972 207.24V207.24C336.905 202.66 338.632 197.993 340.152 193.24C340.223 193.024 340.376 192.845 340.579 192.742C340.781 192.639 341.016 192.62 341.232 192.69C341.338 192.724 341.437 192.779 341.522 192.851C341.608 192.923 341.678 193.011 341.729 193.111C341.78 193.21 341.811 193.319 341.82 193.43C341.829 193.541 341.816 193.654 341.782 193.76V193.76Z"
        fill="black"
    />
    <path
        d="M330.102 221.53C327.749 225.97 325.192 230.303 322.432 234.53C322.366 234.627 322.282 234.71 322.184 234.775C322.086 234.84 321.977 234.884 321.862 234.907C321.746 234.929 321.628 234.928 321.513 234.905C321.398 234.881 321.289 234.836 321.192 234.77C321.095 234.704 321.011 234.62 320.947 234.522C320.882 234.424 320.837 234.315 320.815 234.2C320.793 234.084 320.793 233.966 320.817 233.851C320.84 233.736 320.886 233.627 320.952 233.53V233.53C323.685 229.377 326.222 225.103 328.562 220.71C328.616 220.609 328.689 220.519 328.777 220.446C328.866 220.374 328.968 220.319 329.077 220.286C329.187 220.252 329.302 220.241 329.416 220.252C329.53 220.263 329.641 220.296 329.742 220.35C329.843 220.404 329.933 220.477 330.005 220.565C330.078 220.654 330.133 220.756 330.166 220.865C330.2 220.975 330.211 221.09 330.2 221.204C330.189 221.318 330.156 221.429 330.102 221.53V221.53Z"
        fill="black"
    />
    <path
        d="M313.581 246.71C310.441 250.637 307.125 254.41 303.631 258.03C303.461 258.199 303.231 258.293 302.991 258.293C302.752 258.293 302.522 258.199 302.351 258.03C302.267 257.946 302.199 257.847 302.153 257.737C302.108 257.627 302.084 257.509 302.084 257.39C302.084 257.271 302.108 257.153 302.153 257.043C302.199 256.933 302.267 256.834 302.351 256.75V256.75C305.801 253.18 309.101 249.44 312.201 245.56C312.352 245.377 312.568 245.261 312.803 245.235C313.038 245.208 313.274 245.275 313.461 245.42C313.557 245.495 313.636 245.588 313.694 245.695C313.753 245.801 313.788 245.918 313.8 246.039C313.811 246.16 313.797 246.282 313.76 246.397C313.722 246.513 313.661 246.619 313.581 246.71V246.71Z"
        fill="black"
    />
    <path
        d="M292.662 268.38C288.842 271.653 284.882 274.747 280.782 277.66C280.683 277.731 280.571 277.782 280.453 277.809C280.334 277.836 280.211 277.84 280.091 277.819C279.971 277.799 279.856 277.755 279.754 277.69C279.651 277.625 279.562 277.54 279.492 277.44C279.421 277.342 279.371 277.231 279.344 277.113C279.316 276.995 279.313 276.873 279.333 276.754C279.354 276.635 279.398 276.521 279.463 276.419C279.528 276.317 279.613 276.229 279.712 276.16V276.16C283.765 273.287 287.685 270.233 291.472 267C291.657 266.844 291.896 266.766 292.138 266.785C292.379 266.804 292.603 266.917 292.762 267.1C292.913 267.285 292.987 267.522 292.968 267.76C292.95 267.998 292.84 268.22 292.662 268.38V268.38Z"
        fill="black"
    />
    <path
        d="M268.101 285.83L261.431 289.42L258.111 291.2L254.761 292.88C254.538 292.993 254.28 293.012 254.042 292.934C253.805 292.857 253.609 292.688 253.496 292.465C253.383 292.242 253.364 291.984 253.441 291.746C253.519 291.509 253.688 291.313 253.911 291.2V291.2L257.271 289.52L260.561 287.76L267.121 284.22H267.181C267.288 284.161 267.406 284.124 267.528 284.111C267.65 284.098 267.774 284.109 267.891 284.145C268.008 284.18 268.117 284.239 268.212 284.317C268.306 284.395 268.384 284.491 268.441 284.6C268.552 284.81 268.578 285.054 268.515 285.282C268.452 285.511 268.304 285.707 268.101 285.83Z"
        fill="black"
    />
    <path
        d="M241.341 299.54L227.711 305.87C227.594 305.973 227.455 306.046 227.305 306.086C227.154 306.125 226.997 306.129 226.845 306.097C226.693 306.065 226.551 305.998 226.429 305.902C226.307 305.805 226.21 305.682 226.144 305.541C226.079 305.4 226.047 305.246 226.051 305.09C226.056 304.935 226.096 304.783 226.17 304.646C226.243 304.509 226.347 304.391 226.474 304.302C226.601 304.212 226.747 304.153 226.901 304.13V304.13L240.481 297.85C240.713 297.755 240.972 297.75 241.207 297.837C241.443 297.924 241.637 298.097 241.751 298.32C241.837 298.539 241.843 298.782 241.768 299.005C241.693 299.228 241.542 299.417 241.341 299.54Z"
        fill="black"
    />
    <path
        d="M213.762 311.55C209.052 313.29 204.272 314.86 199.422 316.2C199.29 316.266 199.146 316.303 198.998 316.306C198.851 316.31 198.704 316.281 198.569 316.222C198.434 316.162 198.314 316.073 198.217 315.962C198.12 315.85 198.05 315.719 198.01 315.577C197.97 315.435 197.962 315.286 197.987 315.14C198.011 314.995 198.068 314.856 198.152 314.735C198.236 314.614 198.347 314.513 198.475 314.44C198.603 314.366 198.745 314.322 198.892 314.31C203.682 312.99 208.412 311.44 213.082 309.72C213.308 309.689 213.537 309.736 213.732 309.853C213.927 309.969 214.077 310.149 214.156 310.362C214.235 310.576 214.239 310.809 214.168 311.025C214.096 311.241 213.953 311.426 213.762 311.55V311.55Z"
        fill="black"
    />
    <path
        d="M184.671 319.45L169.841 321.79C169.576 321.831 169.305 321.765 169.088 321.607C168.872 321.448 168.727 321.21 168.686 320.945C168.645 320.68 168.711 320.409 168.869 320.192C169.028 319.976 169.266 319.831 169.531 319.79V319.79L184.341 317.46C184.602 317.42 184.868 317.484 185.082 317.64C185.296 317.795 185.439 318.029 185.481 318.29C185.504 318.419 185.501 318.552 185.473 318.68C185.445 318.809 185.391 318.93 185.316 319.038C185.241 319.146 185.145 319.237 185.034 319.308C184.924 319.379 184.8 319.427 184.671 319.45V319.45Z"
        fill="black"
    />
    <path
        d="M155.002 324.01L140.182 326.3C139.954 326.286 139.738 326.194 139.57 326.041C139.402 325.887 139.291 325.681 139.256 325.456C139.221 325.23 139.264 325 139.378 324.803C139.491 324.605 139.669 324.453 139.882 324.37L154.722 322.1C154.98 322.065 155.241 322.133 155.45 322.288C155.659 322.443 155.8 322.673 155.842 322.93C155.876 323.186 155.81 323.447 155.658 323.655C155.505 323.864 155.277 324.006 155.022 324.05L155.002 324.01Z"
        fill="black"
    />
    <path
        d="M125.432 328.66L110.702 331.36C110.489 331.336 110.289 331.244 110.133 331.098C109.976 330.952 109.871 330.76 109.831 330.549C109.792 330.339 109.822 330.121 109.915 329.929C110.009 329.736 110.162 329.579 110.352 329.48L125.132 326.74C125.351 326.757 125.559 326.847 125.722 326.994C125.886 327.142 125.996 327.339 126.036 327.556C126.076 327.772 126.043 327.996 125.943 328.192C125.842 328.388 125.68 328.545 125.482 328.64L125.432 328.66Z"
        fill="black"
    />
    <path
        d="M96.0509 334.52C91.2562 335.787 86.555 337.384 81.9809 339.3C81.7579 339.366 81.5183 339.346 81.3087 339.246C81.099 339.145 80.9341 338.97 80.8458 338.755C80.7575 338.54 80.7521 338.3 80.8306 338.081C80.9091 337.862 81.066 337.68 81.2709 337.57C85.9213 335.612 90.7029 333.981 95.5809 332.69C95.7051 332.645 95.8374 332.626 95.9692 332.635C96.1011 332.644 96.2296 332.68 96.3466 332.741C96.4637 332.803 96.5667 332.888 96.649 332.991C96.7313 333.095 96.7911 333.214 96.8246 333.342C96.8581 333.47 96.8646 333.603 96.8437 333.733C96.8227 333.864 96.7748 333.989 96.7029 334.099C96.631 334.21 96.5368 334.305 96.4263 334.377C96.3157 334.45 96.1913 334.498 96.0609 334.52H96.0509Z"
        fill="black"
    />
    <path
        d="M68.4907 345.64C64.0907 347.96 59.7841 350.45 55.5707 353.11C55.469 353.176 55.3552 353.221 55.2361 353.242C55.1169 353.264 54.9947 353.262 54.8763 353.237C54.7579 353.211 54.6457 353.162 54.5461 353.093C54.4465 353.025 54.3614 352.937 54.2957 352.835C54.2301 352.733 54.1851 352.619 54.1634 352.5C54.1417 352.381 54.1436 352.259 54.1692 352.14C54.1947 352.022 54.2433 351.91 54.3122 351.81C54.3811 351.711 54.469 351.626 54.5707 351.56C58.8107 348.893 63.1441 346.373 67.5707 344C67.785 343.912 68.0243 343.907 68.2419 343.987C68.4594 344.066 68.6396 344.223 68.7472 344.429C68.8547 344.634 68.8819 344.871 68.8233 345.095C68.7648 345.32 68.6248 345.514 68.4307 345.64H68.4907Z"
        fill="black"
    />
    <path
        d="M43.2619 361.56C39.2619 364.56 35.4119 367.67 31.7019 370.98C31.5227 371.129 31.2928 371.202 31.0605 371.185C30.8281 371.168 30.6115 371.062 30.4561 370.888C30.3007 370.715 30.2186 370.488 30.2272 370.255C30.2357 370.022 30.3342 369.802 30.5019 369.64C34.2552 366.307 38.1485 363.13 42.1818 360.11C42.3741 359.967 42.6154 359.906 42.8527 359.94C43.0899 359.975 43.3036 360.103 43.4468 360.295C43.5901 360.487 43.651 360.729 43.6163 360.966C43.5816 361.203 43.4541 361.417 43.2619 361.56V361.56Z"
        fill="black"
    />
    <path
        d="M21.0909 381.45C17.7454 385.116 14.6707 389.019 11.8909 393.13C11.8252 393.225 11.7414 393.307 11.6443 393.369C11.5472 393.432 11.4387 393.475 11.325 393.496C11.2112 393.517 11.0945 393.515 10.9814 393.491C10.8683 393.467 10.7611 393.421 10.6659 393.355C10.5706 393.289 10.4893 393.206 10.4265 393.109C10.3636 393.011 10.3205 392.903 10.2996 392.789C10.2788 392.675 10.2805 392.559 10.3047 392.446C10.3289 392.332 10.3752 392.225 10.4409 392.13C13.2645 387.966 16.386 384.013 19.7809 380.3C19.9424 380.14 20.159 380.048 20.3864 380.042C20.6137 380.037 20.8346 380.119 21.0035 380.271C21.1724 380.423 21.2766 380.634 21.2947 380.861C21.3128 381.088 21.2435 381.313 21.1009 381.49L21.0909 381.45Z"
        fill="black"
    />
    <path
        d="M4.93071 406.17C3.08389 410.725 1.9994 415.553 1.72071 420.46C1.71143 420.688 1.61192 420.903 1.44408 421.058C1.27623 421.213 1.0538 421.294 0.82571 421.285C0.597623 421.276 0.382572 421.176 0.227855 421.008C0.0731375 420.841 -0.00856993 420.618 0.000712644 420.39C0.282536 415.292 1.40079 410.275 3.31071 405.54C3.34829 405.429 3.40807 405.326 3.48643 405.238C3.56479 405.151 3.66011 405.08 3.76664 405.03C3.87316 404.98 3.98868 404.952 4.1062 404.948C4.22373 404.945 4.34083 404.965 4.45043 405.007C4.56002 405.05 4.65984 405.114 4.74385 405.196C4.82786 405.279 4.89431 405.377 4.9392 405.486C4.9841 405.595 5.00649 405.711 5.00503 405.829C5.00357 405.946 4.97829 406.062 4.93071 406.17V406.17Z"
        fill="black"
    />
    <path
        d="M4.06259 434.82C5.90936 439.372 8.53908 443.565 11.8326 447.21C11.9781 447.375 12.0525 447.59 12.0394 447.81C12.0263 448.029 11.9267 448.234 11.7626 448.38C11.6819 448.452 11.5879 448.507 11.4859 448.542C11.3838 448.578 11.2758 448.593 11.168 448.586C11.0603 448.58 10.9548 448.552 10.8578 448.505C10.7608 448.457 10.674 448.391 10.6026 448.31C7.15126 444.536 4.40448 440.174 2.49259 435.43C2.45188 435.327 2.43187 435.217 2.43371 435.106C2.43555 434.995 2.4592 434.886 2.50331 434.784C2.54741 434.683 2.61112 434.591 2.69078 434.513C2.77044 434.436 2.8645 434.376 2.96759 434.335C3.07068 434.294 3.18077 434.274 3.29159 434.276C3.40241 434.278 3.51179 434.302 3.61347 434.346C3.71515 434.39 3.80714 434.454 3.8842 434.533C3.96126 434.613 4.02188 434.707 4.06259 434.81V434.82Z"
        fill="black"
    />
    <path
        d="M22.9214 456.98C26.868 459.895 31.415 461.894 36.2314 462.83C36.4138 462.881 36.5708 462.998 36.6724 463.158C36.774 463.318 36.813 463.51 36.7821 463.697C36.7511 463.884 36.6523 464.053 36.5046 464.171C36.3569 464.29 36.1706 464.35 35.9814 464.34C30.9197 463.394 26.1352 461.323 21.9814 458.28C21.896 458.221 21.8231 458.146 21.7668 458.058C21.7105 457.971 21.6719 457.874 21.6534 457.771C21.6348 457.669 21.6365 457.564 21.6585 457.463C21.6805 457.361 21.7223 457.265 21.7814 457.18C21.9025 457.007 22.0872 456.889 22.2952 456.851C22.5031 456.814 22.7175 456.86 22.8914 456.98H22.9214Z"
        fill="black"
    />
    <path
        d="M50.5022 460.99C55.0194 459.01 59.2451 456.423 63.0622 453.3C63.1344 453.24 63.218 453.195 63.3079 453.168C63.3978 453.141 63.4922 453.133 63.5855 453.143C63.6788 453.153 63.769 453.182 63.8509 453.228C63.9328 453.274 64.0047 453.336 64.0622 453.41C64.1208 453.483 64.1644 453.567 64.1906 453.656C64.2168 453.746 64.225 453.84 64.2148 453.933C64.2046 454.026 64.1761 454.116 64.1311 454.198C64.086 454.279 64.0252 454.352 63.9522 454.41C60.0449 457.648 55.7152 460.339 51.0821 462.41C50.9031 462.486 50.7014 462.487 50.5214 462.414C50.3414 462.341 50.1977 462.199 50.1222 462.02C50.0466 461.841 50.0452 461.639 50.1183 461.459C50.1915 461.279 50.3331 461.136 50.5122 461.06L50.5022 460.99Z"
        fill="black"
    />
    <path
        d="M74.3123 443.41C75.2423 442.57 76.0923 441.66 76.9923 440.79L79.6523 438.16L84.9623 432.88C85.083 432.759 85.2466 432.692 85.4173 432.692C85.588 432.692 85.7516 432.759 85.8723 432.88C85.993 433.001 86.0608 433.164 86.0608 433.335C86.0608 433.506 85.993 433.669 85.8723 433.79L80.5523 439.11L77.8923 441.76C77.0023 442.64 76.1423 443.56 75.2223 444.4C75.0897 444.519 74.9151 444.581 74.7369 444.572C74.5588 444.562 74.3916 444.483 74.2723 444.35C74.1529 444.217 74.0912 444.043 74.1005 443.865C74.1099 443.687 74.1897 443.519 74.3223 443.4L74.3123 443.41Z"
        fill="black"
    />
    <path
        d="M96.101 422.73C98.0878 421.164 100.183 419.74 102.371 418.47C102.921 418.15 103.481 417.85 104.051 417.56C104.634 417.236 105.251 416.978 105.891 416.79C107.216 416.446 108.616 416.53 109.891 417.03V417.03C110.027 417.092 110.134 417.204 110.191 417.343C110.248 417.482 110.249 417.637 110.196 417.777C110.143 417.916 110.038 418.031 109.903 418.096C109.769 418.162 109.614 418.174 109.471 418.13C108.414 417.712 107.251 417.641 106.151 417.93C105.59 418.098 105.049 418.329 104.541 418.62C103.991 418.9 103.451 419.2 102.921 419.51C100.783 420.753 98.7405 422.153 96.811 423.7C96.6784 423.802 96.5106 423.847 96.3447 423.826C96.1787 423.804 96.0281 423.717 95.926 423.585C95.8239 423.452 95.7786 423.285 95.8002 423.119C95.8218 422.953 95.9084 422.802 96.041 422.7L96.101 422.73Z"
        fill="black"
    />
    <path
        d="M120.512 427.87C121.232 428.87 121.942 429.87 122.682 430.87C123.4 431.861 124.225 432.77 125.142 433.58L130.612 438.67C130.661 438.718 130.7 438.776 130.726 438.839C130.753 438.903 130.767 438.971 130.767 439.04C130.767 439.109 130.753 439.177 130.726 439.24C130.7 439.304 130.661 439.362 130.612 439.41C130.513 439.506 130.38 439.561 130.242 439.561C130.104 439.561 129.971 439.506 129.872 439.41L124.432 434.38C123.47 433.538 122.605 432.592 121.852 431.56C121.092 430.56 120.372 429.56 119.642 428.5C119.577 428.379 119.558 428.239 119.589 428.105C119.62 427.971 119.7 427.854 119.812 427.775C119.924 427.696 120.062 427.661 120.198 427.677C120.335 427.692 120.461 427.758 120.552 427.86L120.512 427.87Z"
        fill="black"
    />
    <path
        d="M142.841 447.14C145.031 448.282 147.329 449.203 149.701 449.89C152.078 450.537 154.528 450.873 156.991 450.89C157.048 450.89 157.105 450.901 157.158 450.924C157.211 450.946 157.259 450.979 157.299 451.02C157.339 451.061 157.37 451.109 157.391 451.162C157.412 451.216 157.422 451.273 157.421 451.33C157.418 451.445 157.371 451.554 157.289 451.635C157.206 451.715 157.096 451.76 156.981 451.76C154.439 451.752 151.908 451.416 149.451 450.76C147.011 450.075 144.646 449.147 142.391 447.99C142.274 447.932 142.186 447.829 142.144 447.706C142.103 447.582 142.113 447.447 142.171 447.33C142.229 447.213 142.332 447.125 142.456 447.083C142.579 447.042 142.714 447.052 142.831 447.11L142.841 447.14Z"
        fill="black"
    />
    <path
        d="M171.571 448.35C176.311 446.82 180.931 444.9 185.661 443.23C185.743 443.201 185.834 443.206 185.912 443.243C185.991 443.281 186.052 443.348 186.081 443.43C186.11 443.512 186.105 443.603 186.068 443.681C186.03 443.76 185.963 443.821 185.881 443.85C181.181 445.54 176.581 447.5 171.811 449.08C171.714 449.112 171.609 449.105 171.517 449.06C171.425 449.015 171.355 448.936 171.321 448.84C171.292 448.742 171.302 448.636 171.348 448.545C171.395 448.454 171.475 448.384 171.571 448.35Z"
        fill="black"
    />
    <path
        d="M200.432 440.3C205.466 440.57 210.417 441.696 215.072 443.63C215.128 443.65 215.174 443.691 215.199 443.745C215.224 443.798 215.227 443.859 215.207 443.915C215.187 443.971 215.146 444.016 215.093 444.042C215.039 444.067 214.978 444.07 214.922 444.05C210.307 442.163 205.403 441.081 200.422 440.85C200.35 440.847 200.281 440.817 200.231 440.765C200.18 440.712 200.152 440.643 200.152 440.57C200.152 440.534 200.16 440.498 200.174 440.464C200.188 440.431 200.209 440.401 200.235 440.375C200.261 440.35 200.292 440.331 200.326 440.318C200.36 440.305 200.396 440.299 200.432 440.3Z"
        fill="black"
    />
    <path
        d="M229.372 447.86C234.287 448.736 239.295 448.974 244.272 448.57C244.303 448.571 244.332 448.583 244.356 448.603C244.379 448.623 244.395 448.65 244.402 448.68C244.402 448.71 244.391 448.739 244.37 448.761C244.35 448.784 244.322 448.797 244.292 448.8C239.286 449.239 234.245 449.034 229.292 448.19C229.248 448.183 229.21 448.159 229.184 448.123C229.157 448.088 229.146 448.044 229.152 448C229.161 447.958 229.186 447.92 229.221 447.894C229.256 447.869 229.299 447.856 229.342 447.86H229.372Z"
        fill="black"
    />
    <path
        d="M259.032 446.06L273.512 442.18L259.052 446.18C259.041 446.19 259.026 446.195 259.012 446.195C258.997 446.195 258.983 446.19 258.972 446.18C258.963 446.168 258.959 446.154 258.959 446.14C258.959 446.126 258.963 446.112 258.972 446.1L259.032 446.06Z"
        fill="black"
    />
    <path
        fill-rule="evenodd"
        clip-rule="evenodd"
        d="M296.108 261.539C315.885 268.001 329.057 278.65 331.615 292.47C336.996 321.544 293.484 354.333 232.567 368.612C228.459 369.575 224.273 370.454 220.017 371.242L184.086 262.104C189.016 260.897 194.066 259.81 199.217 258.857C236.592 251.939 271.473 253.49 296.108 261.539ZM147.924 273.945L137.234 372.233C109.724 366.671 90.7449 354.517 87.6192 337.628C83.4708 315.214 108.382 290.592 147.924 273.945Z"
        fill="black"
    />
    <path d="M147.924 273.945C155.392 270.801 163.382 267.941 171.797 265.435C175.801 264.242 179.9 263.13 184.086 262.104L220.017 371.242C189.305 376.926 160.277 376.892 137.234 372.233L147.924 273.945Z" fill="#F1EFED" />
    <path
        d="M220.017 371.242C224.273 370.454 228.459 369.575 232.567 368.612C293.484 354.333 336.996 321.544 331.615 292.47C329.057 278.65 315.885 268.001 296.108 261.539C271.473 253.49 236.592 251.939 199.217 258.857C194.066 259.81 189.016 260.897 184.086 262.104M220.017 371.242C189.305 376.926 160.277 376.892 137.234 372.233M220.017 371.242L184.086 262.104M147.924 273.945C155.392 270.801 163.382 267.941 171.797 265.435C175.801 264.242 179.9 263.13 184.086 262.104M147.924 273.945C108.382 290.592 83.4708 315.214 87.6192 337.628C90.7449 354.517 109.724 366.671 137.234 372.233M147.924 273.945L137.234 372.233"
        stroke="black"
        stroke-width="2"
    />
    <ellipse cx="124.07" cy="57.1468" rx="124.07" ry="57.1468" transform="matrix(-0.983301 0.181988 0.181988 0.983301 317.283 228.806)" fill="url(#paint0_linear_8843_38155)" stroke="black" stroke-width="2" />
    <ellipse cx="101.492" cy="45.1496" rx="101.492" ry="45.1496" transform="matrix(-0.983301 0.181988 0.181988 0.983301 298.211 243.109)" fill="url(#paint1_linear_8843_38155)" stroke="black" stroke-width="2" />
    <ellipse cx="73.858" cy="33.9434" rx="73.858" ry="33.9434" transform="matrix(-0.983301 0.181988 0.181988 0.983301 270.59 254.41)" fill="#F1EFED" stroke="black" stroke-width="2" />
    <path
        d="M162.932 310.461C164.862 320.888 185.487 325.814 208.999 321.462C232.511 317.11 250.006 305.13 248.076 294.702C246.147 284.275 225.522 279.349 202.01 283.701C178.498 288.053 161.002 300.033 162.932 310.461Z"
        fill="black"
        stroke="black"
        stroke-width="2"
    />
    <path d="M204 290.976L200.703 302.873L208.288 304.975L204 290.976Z" fill="#F1EFED" />
    <path
        fill-rule="evenodd"
        clip-rule="evenodd"
        d="M267.247 171.978C199.029 165.532 141.321 185.779 138.352 217.2C135.383 248.621 188.278 279.319 256.496 285.765C264.049 286.478 271.473 286.865 278.708 286.945L336.674 188.762C317.308 180.486 293.404 174.449 267.247 171.978Z"
        fill="black"
    />
    <path d="M352.768 274.5C371.893 266.31 384.069 254.534 385.391 240.542C387.222 221.169 367.815 202.07 336.674 188.762L278.708 286.945C307.722 287.267 333.699 282.666 352.768 274.5Z" fill="#F1EFED" />
    <path
        d="M278.708 286.945C307.722 287.267 333.699 282.666 352.768 274.5C371.893 266.31 384.069 254.534 385.391 240.542C387.222 221.169 367.815 202.07 336.674 188.762M278.708 286.945C271.473 286.865 264.049 286.478 256.496 285.765C188.278 279.319 135.383 248.621 138.352 217.2C141.321 185.779 199.029 165.532 267.247 171.978C293.404 174.449 317.308 180.486 336.674 188.762M278.708 286.945L336.674 188.762"
        stroke="black"
        stroke-width="2"
    />
    <path
        d="M385.971 232.09C383.002 263.511 325.293 283.758 257.075 277.312C188.858 270.867 135.963 240.169 138.932 208.748C141.901 177.327 199.609 157.08 267.827 163.526C336.045 169.971 388.94 200.669 385.971 232.09Z"
        fill="url(#paint2_linear_8843_38155)"
    />
    <path
        d="M364.492 229.272C362.204 253.486 315.111 268.842 259.307 263.569C203.504 258.296 160.121 234.392 162.409 210.178C164.696 185.963 211.789 170.608 267.593 175.881C323.397 181.154 366.78 205.058 364.492 229.272Z"
        fill="url(#paint3_linear_8843_38155)"
    />
    <path
        d="M385.971 232.09C383.002 263.511 325.293 283.758 257.075 277.312C188.858 270.867 135.963 240.169 138.932 208.748C141.901 177.327 199.609 157.08 267.827 163.526C336.045 169.971 388.94 200.669 385.971 232.09Z"
        stroke="black"
        stroke-width="2"
    />
    <path
        d="M364.492 229.272C362.204 253.486 315.111 268.842 259.307 263.569C203.504 258.296 160.121 234.392 162.409 210.178C164.696 185.963 211.789 170.608 267.593 175.881C323.397 181.154 366.78 205.058 364.492 229.272Z"
        stroke="black"
        stroke-width="2"
    />
    <ellipse cx="263.64" cy="217.818" rx="73.858" ry="30.791" transform="rotate(5.39769 263.64 217.818)" fill="#F1EFED" stroke="black" stroke-width="2" />
    <path
        d="M260.379 234.548C284.185 236.797 304.291 230.062 305.289 219.505C305.86 213.464 300.051 207.481 290.517 203.045C283.388 199.729 274.176 197.278 263.992 196.316C240.187 194.067 220.08 200.802 219.082 211.359C218.52 217.307 224.143 223.199 233.417 227.613C240.605 231.033 249.985 233.566 260.379 234.548Z"
        fill="black"
        stroke="black"
        stroke-width="2"
    />
    <path d="M263.176 204.044L266.473 215.941L258.888 218.043L263.176 204.044Z" fill="#F1EFED" />
    <path
        fill-rule="evenodd"
        clip-rule="evenodd"
        d="M191.846 197.414C255.163 171.217 296.709 126.339 284.643 97.1754C272.577 68.0117 211.467 65.6063 148.151 91.8028C113.029 106.334 84.6053 126.614 68.3154 146.771L191.846 197.414Z"
        fill="black"
    />
    <path d="M55.3536 192.041C67.4198 221.205 128.53 223.611 191.846 197.414L68.3154 146.771C55.2384 162.952 49.9806 179.055 55.3536 192.041Z" fill="#F1EFED" />
    <path
        d="M191.846 197.414C255.163 171.217 296.709 126.339 284.643 97.1754C272.577 68.0117 211.467 65.6063 148.151 91.8028C113.029 106.334 84.6053 126.614 68.3154 146.771M191.846 197.414C128.53 223.611 67.4198 221.205 55.3536 192.041C49.9806 179.055 55.2384 162.952 68.3154 146.771M191.846 197.414L68.3154 146.771"
        stroke="black"
        stroke-width="2"
    />
    <path
        d="M280.903 91.5993C292.969 120.763 251.423 165.641 188.106 191.838C124.79 218.034 63.68 215.629 51.6138 186.465C39.5477 157.302 81.0943 112.423 144.411 86.2267C207.727 60.0302 268.837 62.4356 280.903 91.5993Z"
        fill="url(#paint4_linear_8843_38155)"
    />
    <path
        d="M260.6 99.1506C269.898 121.625 235.449 157.216 183.655 178.646C131.861 200.075 82.335 199.228 73.0363 176.753C63.7377 154.278 98.1872 118.687 149.981 97.258C201.776 75.8286 251.301 76.676 260.6 99.1506Z"
        fill="url(#paint5_linear_8843_38155)"
    />
    <path
        d="M280.903 91.5993C292.969 120.763 251.423 165.641 188.106 191.838C124.79 218.034 63.68 215.629 51.6138 186.465C39.5477 157.302 81.0943 112.423 144.411 86.2267C207.727 60.0302 268.837 62.4356 280.903 91.5993Z"
        stroke="black"
        stroke-width="2"
    />
    <path
        d="M260.6 99.1506C269.898 121.625 235.449 157.216 183.655 178.646C131.861 200.075 82.335 199.228 73.0363 176.753C63.7377 154.278 98.1872 118.687 149.981 97.258C201.776 75.8286 251.301 76.676 260.6 99.1506Z"
        stroke="black"
        stroke-width="2"
    />
    <ellipse cx="166.701" cy="135.836" rx="73.858" ry="31.7775" transform="rotate(-22.4768 166.701 135.836)" fill="#F1EFED" stroke="black" stroke-width="2" />
    <path
        d="M203.701 118.195C207.755 127.994 193.13 143.348 171.035 152.49C148.941 161.631 127.743 161.098 123.688 151.299C119.634 141.5 134.259 126.146 156.354 117.005C178.449 107.863 199.647 108.396 203.701 118.195Z"
        fill="#F1EFED"
        stroke="black"
        stroke-width="2"
    />
    <path
        d="M203.701 118.195C207.755 127.994 193.13 143.348 171.035 152.49C148.941 161.631 127.743 161.098 123.688 151.299C119.634 141.5 134.259 126.146 156.354 117.005C178.449 107.863 199.647 108.396 203.701 118.195Z"
        fill="black"
        stroke="black"
        stroke-width="2"
    />
    <path d="M161.885 122.533L163.453 134.778L171.26 133.779L161.885 122.533Z" fill="#F1EFED" />
    <defs>
        <linearGradient id="paint0_linear_8843_38155" x1="190.88" y1="135.724" x2="126.469" y2="18.4882" gradientUnits="userSpaceOnUse">
            <stop stop-color="#D6FFBB" />
            <stop offset="1" stop-color="#5869DD" />
        </linearGradient>
        <linearGradient id="paint1_linear_8843_38155" x1="131.314" y1="135.76" x2="82.3962" y2="39.0475" gradientUnits="userSpaceOnUse">
            <stop offset="0.0792773" stop-color="#D6FFBB" />
            <stop offset="1" stop-color="#5869DD" />
        </linearGradient>
        <linearGradient id="paint2_linear_8843_38155" x1="442.297" y1="123.001" x2="152.797" y2="233.001" gradientUnits="userSpaceOnUse">
            <stop stop-color="#D6FFBB" />
            <stop offset="1" stop-color="#5869DD" />
        </linearGradient>
        <linearGradient id="paint3_linear_8843_38155" x1="442.297" y1="123.001" x2="152.797" y2="233.001" gradientUnits="userSpaceOnUse">
            <stop stop-color="#D6FFBB" />
            <stop offset="1" stop-color="#5869DD" />
        </linearGradient>
        <linearGradient id="paint4_linear_8843_38155" x1="35.7949" y1="89.4959" x2="282.795" y2="138.996" gradientUnits="userSpaceOnUse">
            <stop stop-color="#D6FFBB" />
            <stop offset="1" stop-color="#5869DD" />
        </linearGradient>
        <linearGradient id="paint5_linear_8843_38155" x1="35.7949" y1="89.4959" x2="282.795" y2="138.996" gradientUnits="userSpaceOnUse">
            <stop stop-color="#D6FFBB" />
            <stop offset="1" stop-color="#5869DD" />
        </linearGradient>
    </defs>
</svg>
