<svg xmlns="http://www.w3.org/2000/svg" width="241" height="238" viewBox="0 0 241 238" fill="none">
    <path
        d="M221.91 0C222.023 0.609254 222.205 1.20378 222.451 1.77222C222.685 2.34807 222.948 2.90902 223.226 3.46004C223.787 4.5621 224.407 5.63933 224.993 6.73642C225.005 6.75118 225.014 6.76844 225.018 6.78696C225.023 6.80547 225.023 6.82479 225.02 6.84351C225.016 6.86222 225.008 6.87988 224.997 6.8952C224.985 6.91052 224.971 6.92312 224.954 6.9321C224.937 6.94108 224.918 6.94621 224.899 6.94713C224.88 6.94805 224.861 6.94474 224.844 6.93742C224.826 6.9301 224.81 6.91896 224.797 6.9048C224.785 6.89065 224.775 6.87384 224.77 6.85557C224.214 5.74359 223.628 4.65145 223.102 3.52458C222.84 2.95866 222.602 2.38283 222.387 1.79705C222.161 1.21769 222.001 0.614911 221.91 0Z"
        fill="black"
    />
    <path
        d="M228.405 13.3636C229.484 15.6074 230.477 17.8876 231.384 20.2043C231.399 20.242 231.406 20.2825 231.406 20.3232C231.406 20.364 231.397 20.4042 231.381 20.4416C231.365 20.479 231.341 20.5128 231.312 20.5411C231.282 20.5694 231.248 20.5916 231.21 20.6064C231.133 20.6358 231.049 20.6341 230.973 20.6016C230.898 20.5691 230.839 20.5085 230.808 20.4326C229.944 18.1193 228.976 15.8358 227.958 13.5771C227.931 13.5198 227.928 13.4541 227.95 13.3946C227.971 13.335 228.015 13.2863 228.073 13.2594C228.13 13.2324 228.195 13.2292 228.255 13.2506C228.315 13.2721 228.363 13.3162 228.39 13.3735L228.405 13.3636Z"
        fill="black"
    />
    <path
        d="M233.836 27.2733C234.542 29.67 235.104 32.1068 235.519 34.5706C235.534 34.6283 235.537 34.6885 235.528 34.7474C235.518 34.8063 235.497 34.8626 235.464 34.9126C235.432 34.9626 235.389 35.0052 235.339 35.0377C235.289 35.0702 235.233 35.0918 235.174 35.1012C235.115 35.1107 235.055 35.1076 234.997 35.0923C234.939 35.077 234.885 35.0498 234.839 35.0125C234.792 34.9751 234.754 34.9284 234.727 34.8754C234.7 34.8224 234.684 34.7642 234.68 34.7047C234.281 32.2701 233.758 29.8577 233.111 27.4768C233.092 27.3832 233.109 27.2857 233.158 27.2039C233.208 27.1222 233.287 27.0624 233.379 27.0365C233.471 27.0107 233.569 27.0207 233.654 27.0647C233.739 27.1086 233.804 27.1832 233.836 27.2733Z"
        fill="black"
    />
    <path
        d="M236.099 42.0616C236.1 44.5753 235.853 47.0829 235.359 49.5476C235.33 49.6658 235.256 49.7681 235.153 49.8332C235.05 49.8982 234.926 49.9209 234.807 49.8965C234.688 49.8722 234.582 49.8026 234.513 49.7024C234.444 49.6022 234.416 49.4792 234.436 49.359C234.932 46.9562 235.188 44.5101 235.2 42.0567C235.2 41.9978 235.212 41.9395 235.235 41.8853C235.258 41.831 235.291 41.7818 235.333 41.7407C235.375 41.6995 235.425 41.6672 235.48 41.6456C235.535 41.624 235.593 41.6135 235.652 41.6149C235.77 41.6149 235.884 41.6619 235.968 41.7457C236.052 41.8295 236.099 41.9431 236.099 42.0616Z"
        fill="black"
    />
    <path
        d="M234.435 57.3685C234.155 57.9482 233.834 58.5069 233.473 59.04C233.113 59.5667 232.721 60.0712 232.299 60.5507C231.477 61.5066 230.602 62.4155 229.678 63.273C229.582 63.3238 229.471 63.3415 229.364 63.3233C229.256 63.3051 229.158 63.252 229.083 63.1723C229.009 63.0926 228.963 62.9906 228.953 62.8822C228.942 62.7737 228.967 62.6648 229.025 62.5722C229.917 61.7362 230.761 60.8508 231.554 59.9201C231.948 59.4634 232.316 58.985 232.657 58.4874C232.987 57.9893 233.284 57.4703 233.546 56.9337C233.611 56.8279 233.712 56.7498 233.831 56.715C233.95 56.6802 234.078 56.6911 234.189 56.7455C234.3 56.8 234.387 56.8941 234.433 57.0094C234.478 57.1246 234.479 57.2527 234.435 57.3685Z"
        fill="black"
    />
    <path
        d="M223.421 68.44C221.334 69.7309 219.382 71.2276 217.594 72.9078C217.512 72.989 217.401 73.0346 217.286 73.0346C217.17 73.0346 217.06 72.989 216.978 72.9078C216.897 72.8268 216.852 72.717 216.852 72.6025C216.852 72.488 216.897 72.3782 216.978 72.2972C218.804 70.5642 220.8 69.0191 222.935 67.6854C223.035 67.6353 223.15 67.6238 223.258 67.653C223.367 67.6823 223.46 67.7503 223.522 67.844C223.583 67.9378 223.608 68.0509 223.591 68.1617C223.574 68.2725 223.518 68.3733 223.431 68.445L223.421 68.44Z"
        fill="black"
    />
    <path
        d="M210.9 76.4486C209.694 78.6348 208.368 80.7527 206.929 82.7929C206.88 82.8646 206.804 82.9138 206.718 82.9297C206.633 82.9455 206.544 82.9266 206.472 82.8773C206.401 82.8279 206.351 82.752 206.336 82.6664C206.32 82.5807 206.339 82.4923 206.388 82.4205C207.777 80.3779 209.051 78.2599 210.205 76.0763C210.254 75.9842 210.337 75.9151 210.437 75.8844C210.537 75.8537 210.644 75.8638 210.737 75.9125C210.829 75.9612 210.898 76.0445 210.929 76.1442C210.959 76.2438 210.949 76.3515 210.9 76.4437V76.4486Z"
        fill="black"
    />
    <path
        d="M202.422 88.745L197.666 94.4637C197.652 94.4781 197.635 94.4896 197.616 94.4974C197.597 94.5052 197.577 94.5092 197.557 94.5092C197.537 94.5092 197.517 94.5052 197.498 94.4974C197.479 94.4896 197.462 94.4781 197.448 94.4637C197.42 94.4342 197.404 94.3952 197.404 94.3545C197.404 94.3139 197.42 94.2748 197.448 94.2453L202.015 88.4471C202.06 88.4004 202.121 88.372 202.186 88.3676C202.251 88.3631 202.315 88.3828 202.366 88.4229C202.417 88.463 202.452 88.5207 202.463 88.5847C202.474 88.6488 202.461 88.7147 202.427 88.7698L202.422 88.745Z"
        fill="black"
    />
    <path
        d="M192.895 100.197L191.729 101.687L192.836 100.197C192.843 100.19 192.853 100.187 192.863 100.187C192.873 100.187 192.883 100.19 192.89 100.197C192.893 100.201 192.896 100.205 192.898 100.209C192.9 100.213 192.901 100.218 192.901 100.222C192.901 100.227 192.9 100.231 192.898 100.236C192.896 100.24 192.893 100.244 192.89 100.247L192.895 100.197Z"
        fill="black"
    />
    <path
        d="M240.179 58.7761C240.274 60.0122 240.348 61.2582 240.417 62.4943L240.626 66.2125C240.628 66.2477 240.623 66.283 240.611 66.3163C240.6 66.3496 240.582 66.3802 240.558 66.4065C240.535 66.4328 240.506 66.4542 240.474 66.4694C240.443 66.4847 240.408 66.4936 240.373 66.4955C240.302 66.4982 240.233 66.4733 240.18 66.4261C240.127 66.3789 240.095 66.3129 240.09 66.2423C240.09 64.9963 240.09 63.7602 240.12 62.5142C240.149 61.2681 240.149 60.0122 240.179 58.7761Z"
        fill="black"
    />
    <path
        d="M239.197 73.6189C238.621 74.7605 237.906 75.826 237.067 76.7911C236.232 77.7475 235.313 78.628 234.322 79.4221C234.221 79.4733 234.105 79.4884 233.994 79.4646C233.883 79.4408 233.784 79.3797 233.712 79.2914C233.641 79.2032 233.602 79.0931 233.602 78.9796C233.601 78.866 233.64 78.7559 233.712 78.6675C235.646 77.2023 237.256 75.3534 238.442 73.2367C238.498 73.1459 238.586 73.0795 238.688 73.0506C238.79 73.0217 238.9 73.0324 238.994 73.0807C239.089 73.129 239.162 73.2113 239.199 73.3111C239.235 73.4108 239.233 73.5208 239.192 73.6189H239.197Z"
        fill="black"
    />
    <path
        d="M228.042 83.5522C226.95 84.143 225.848 84.7188 224.741 85.2947L221.434 87.0172C221.338 87.0679 221.225 87.0781 221.12 87.0455C221.016 87.0129 220.929 86.9402 220.878 86.8435C220.829 86.7471 220.818 86.6351 220.85 86.5313C220.882 86.4275 220.952 86.34 221.047 86.2875L227.56 82.7133C227.616 82.6617 227.682 82.6234 227.754 82.6014C227.827 82.5793 227.903 82.5741 227.978 82.5862C228.052 82.5982 228.123 82.6272 228.185 82.6708C228.247 82.7145 228.298 82.7716 228.334 82.838C228.371 82.9044 228.391 82.9782 228.395 83.0538C228.398 83.1293 228.384 83.2047 228.354 83.2741C228.324 83.3435 228.278 83.4051 228.221 83.4541C228.163 83.5032 228.095 83.5385 228.022 83.5572L228.042 83.5522Z"
        fill="black"
    />
    <path
        d="M215.041 90.7505C214.113 91.4054 213.224 92.1149 212.38 92.8752C211.538 93.644 210.737 94.4577 209.982 95.3126C211.337 93.453 212.935 91.7834 214.733 90.3484C214.759 90.3272 214.789 90.3112 214.82 90.3014C214.852 90.2916 214.886 90.2882 214.919 90.2915C214.952 90.2947 214.985 90.3045 215.014 90.3202C215.043 90.3359 215.069 90.3574 215.091 90.3832C215.134 90.4359 215.154 90.5036 215.148 90.5715C215.141 90.6394 215.108 90.702 215.056 90.7456L215.041 90.7505Z"
        fill="black"
    />
    <path
        d="M1.08404 173.945C0.785636 174.031 0.530439 174.226 0.369197 174.491C0.21777 174.759 0.123134 175.055 0.0912035 175.36C0.0478636 175.976 0.0946897 176.595 0.2302 177.197C0.510642 178.397 0.92182 179.562 1.45636 180.672C1.46222 180.685 1.46553 180.698 1.46609 180.712C1.46664 180.726 1.46444 180.74 1.4596 180.753C1.45476 180.766 1.44738 180.779 1.43788 180.789C1.42838 180.799 1.41694 180.807 1.40423 180.813C1.39152 180.819 1.37778 180.822 1.36379 180.823C1.3498 180.824 1.33583 180.821 1.3227 180.817C1.30956 180.812 1.29751 180.804 1.28722 180.795C1.27694 180.785 1.26862 180.774 1.26275 180.761C0.742895 179.625 0.358025 178.432 0.116026 177.207C-0.00457118 176.592 -0.0313526 175.963 0.0365971 175.34C0.0743105 175.027 0.179303 174.726 0.344379 174.457C0.520052 174.201 0.783222 174.019 1.08404 173.945Z"
        fill="black"
    />
    <path
        d="M5.55117 186.818C7.16781 188.669 9.1307 190.187 11.3295 191.286C11.3936 191.318 11.4425 191.374 11.4658 191.441C11.489 191.509 11.4846 191.583 11.4536 191.648C11.4387 191.68 11.4176 191.709 11.3915 191.732C11.3654 191.756 11.3349 191.775 11.3017 191.787C11.2685 191.799 11.2332 191.804 11.198 191.802C11.1627 191.801 11.1281 191.792 11.0962 191.777C8.85646 190.617 6.87285 189.018 5.26324 187.076C5.23604 187.036 5.2242 186.988 5.22993 186.94C5.23566 186.892 5.25856 186.848 5.29439 186.816C5.33021 186.784 5.37651 186.766 5.42466 186.765C5.47281 186.765 5.51953 186.782 5.55613 186.813L5.55117 186.818Z"
        fill="black"
    />
    <path
        d="M18.4043 192.199C20.7573 191.653 22.872 190.268 24.6393 188.629C24.6744 188.594 24.7161 188.566 24.7621 188.547C24.8082 188.527 24.8575 188.518 24.9074 188.518C24.9572 188.518 25.0066 188.527 25.0526 188.547C25.0986 188.566 25.1404 188.594 25.1754 188.629C25.2107 188.664 25.2387 188.705 25.2578 188.751C25.277 188.797 25.2868 188.846 25.2868 188.895C25.2868 188.944 25.277 188.993 25.2578 189.039C25.2387 189.085 25.2107 189.126 25.1754 189.161C24.2377 190.014 23.2127 190.766 22.1175 191.404C21.016 192.053 19.8202 192.525 18.5731 192.804C18.5317 192.814 18.4888 192.815 18.4469 192.808C18.4051 192.801 18.365 192.785 18.3291 192.763C18.2931 192.74 18.262 192.711 18.2374 192.676C18.2128 192.642 18.1953 192.602 18.1858 192.561C18.1764 192.52 18.1752 192.477 18.1823 192.435C18.1894 192.393 18.2047 192.353 18.2273 192.317C18.2499 192.281 18.2793 192.25 18.3139 192.225C18.3486 192.201 18.3877 192.183 18.4291 192.174L18.4043 192.199Z"
        fill="black"
    />
    <path
        d="M29.063 182.811C30.2282 180.66 31.0966 178.36 31.6443 175.976C31.6574 175.919 31.6815 175.865 31.7152 175.818C31.749 175.771 31.7917 175.73 31.8411 175.699C31.8904 175.668 31.9453 175.648 32.0027 175.638C32.0601 175.628 32.1188 175.63 32.1755 175.643C32.2322 175.656 32.2858 175.68 32.3332 175.714C32.3806 175.748 32.4209 175.79 32.4518 175.84C32.4827 175.889 32.5036 175.944 32.5132 176.001C32.5229 176.059 32.5212 176.118 32.5081 176.174C31.9297 178.632 31.0212 181 29.8076 183.214C29.7809 183.262 29.7448 183.305 29.7016 183.34C29.6583 183.374 29.6086 183.4 29.5554 183.415C29.5021 183.431 29.4464 183.436 29.3913 183.43C29.3362 183.423 29.2828 183.407 29.2342 183.38C29.1857 183.353 29.1428 183.317 29.1082 183.274C29.0736 183.23 29.0478 183.181 29.0323 183.128C29.0169 183.074 29.0121 183.019 29.0182 182.963C29.0243 182.908 29.0412 182.855 29.0679 182.806L29.063 182.811Z"
        fill="black"
    />
    <path
        d="M32.2838 168.713C32.2575 168.119 32.1744 167.529 32.0356 166.951C31.6115 165.218 30.7224 163.634 29.4641 162.369C29.3804 162.277 29.334 162.158 29.334 162.034C29.334 161.91 29.3804 161.79 29.4641 161.699C29.5559 161.613 29.6765 161.566 29.8017 161.566C29.9269 161.566 30.0475 161.613 30.1393 161.699C31.0633 162.62 31.8044 163.708 32.3235 164.905C32.5859 165.5 32.7952 166.116 32.949 166.747C33.0955 167.38 33.1819 168.025 33.2071 168.673C33.2133 168.734 33.207 168.796 33.1886 168.854C33.1702 168.913 33.1401 168.967 33.1002 169.013C33.0602 169.06 33.0113 169.097 32.9563 169.124C32.9013 169.151 32.8414 169.167 32.7802 169.17C32.7172 169.174 32.6538 169.166 32.594 169.145C32.5343 169.125 32.4794 169.092 32.4329 169.049C32.3863 169.006 32.3491 168.954 32.3234 168.897C32.2978 168.839 32.2843 168.776 32.2838 168.713Z"
        fill="black"
    />
    <path
        d="M23.1408 161.158C22.0638 161.609 21.1167 162.322 20.3856 163.233C19.6517 164.162 19.0993 165.221 18.7574 166.355C18.6993 166.45 18.6112 166.522 18.5072 166.561C18.4032 166.6 18.2892 166.602 18.1835 166.569C18.0777 166.535 17.9864 166.467 17.9239 166.375C17.8615 166.283 17.8316 166.173 17.839 166.062C18.2149 164.813 18.821 163.644 19.6261 162.617C20.452 161.577 21.5279 160.762 22.7536 160.249C22.8724 160.21 23.002 160.216 23.1161 160.268C23.2303 160.32 23.3206 160.413 23.369 160.528C23.4174 160.644 23.4203 160.774 23.377 160.891C23.3338 161.009 23.2476 161.106 23.1358 161.163L23.1408 161.158Z"
        fill="black"
    />
    <path
        d="M18.1808 173.538C18.4342 175.971 19.0292 178.356 19.9481 180.622C19.9929 180.731 19.9926 180.853 19.9475 180.961C19.9023 181.07 19.8159 181.156 19.7073 181.2C19.5987 181.245 19.4768 181.245 19.3683 181.2C19.2598 181.155 19.1738 181.068 19.129 180.96C18.1722 178.616 17.5489 176.15 17.2774 173.633C17.2765 173.517 17.3186 173.405 17.3956 173.318C17.4726 173.232 17.579 173.177 17.6941 173.165C17.8092 173.153 17.9247 173.183 18.0184 173.252C18.112 173.32 18.177 173.42 18.2007 173.533L18.1808 173.538Z"
        fill="black"
    />
    <path
        d="M23.9182 186.589L24.6281 187.086C24.8754 187.25 25.1323 187.399 25.3975 187.533C25.9293 187.798 26.4843 188.014 27.0556 188.178C28.216 188.496 29.4174 188.638 30.6199 188.6C30.7156 188.611 30.8041 188.656 30.8683 188.728C30.9325 188.8 30.968 188.893 30.968 188.99C30.968 189.086 30.9325 189.179 30.8683 189.251C30.8041 189.323 30.7156 189.368 30.6199 189.379C29.3378 189.434 28.0548 189.298 26.8123 188.977C26.1872 188.807 25.5803 188.576 25.0004 188.287C24.7071 188.14 24.4235 187.974 24.1515 187.791L23.3572 187.235C23.2658 187.168 23.2046 187.068 23.1869 186.956C23.1692 186.845 23.1966 186.731 23.2629 186.639C23.2954 186.594 23.3365 186.556 23.3839 186.527C23.4312 186.497 23.4838 186.478 23.5387 186.469C23.5936 186.46 23.6497 186.463 23.7037 186.476C23.7578 186.488 23.8087 186.512 23.8537 186.545L23.9182 186.589Z"
        fill="black"
    />
    <path
        d="M37.8496 187.388C39.046 187.076 40.2473 186.753 41.4635 186.465C42.0691 186.321 42.6797 186.187 43.3003 186.083L45.1668 185.815C45.2399 185.804 45.3141 185.823 45.3733 185.867C45.4324 185.911 45.4715 185.977 45.482 186.05C45.4926 186.123 45.4736 186.198 45.4294 186.257C45.3852 186.316 45.3193 186.355 45.2462 186.366L43.4293 186.654C42.8237 186.763 42.228 186.907 41.6273 187.056C40.431 187.354 39.2396 187.701 38.0382 188.049C37.9958 188.06 37.9516 188.063 37.9081 188.057C37.8646 188.051 37.8226 188.037 37.7846 188.015C37.7078 187.971 37.6517 187.898 37.6287 187.813C37.6056 187.727 37.6175 187.636 37.6618 187.559C37.706 187.482 37.7789 187.426 37.8645 187.403L37.8496 187.388Z"
        fill="black"
    />
    <path
        d="M52.6226 186.55C54.9764 187.439 57.1175 188.812 58.9072 190.58C58.93 190.604 58.9427 190.635 58.9427 190.667C58.9427 190.7 58.93 190.731 58.9072 190.754C58.8835 190.776 58.8525 190.788 58.8203 190.788C58.7882 190.788 58.7572 190.776 58.7335 190.754C56.9399 189.059 54.8108 187.758 52.4836 186.937C52.4307 186.92 52.3866 186.883 52.3607 186.833C52.3347 186.784 52.3289 186.727 52.3446 186.674C52.353 186.647 52.3667 186.622 52.3847 186.601C52.4028 186.579 52.4249 186.562 52.4498 186.549C52.4747 186.536 52.5019 186.528 52.5298 186.525C52.5578 186.523 52.5859 186.526 52.6126 186.535L52.6226 186.55Z"
        fill="black"
    />
    <path d="M63.9154 196.096L64.6452 196.979L63.8906 196.121L63.9154 196.096Z" fill="black" />
    <path
        d="M17.7852 129.466C19.0236 129.398 20.2489 129.177 21.4338 128.811C22.6249 128.43 23.8452 128.148 25.0825 127.967C25.1299 127.962 25.1772 127.977 25.214 128.007C25.2508 128.037 25.274 128.081 25.2786 128.128C25.2832 128.176 25.2688 128.223 25.2386 128.26C25.2083 128.296 25.1647 128.32 25.1173 128.324C23.8914 128.453 22.6779 128.681 21.4884 129.004C20.2794 129.319 19.0344 129.474 17.7852 129.466Z"
        fill="black"
    />
    <path
        d="M32.0756 130.449C34.0393 132.045 35.7092 133.972 37.01 136.143C37.0382 136.188 37.0573 136.238 37.0661 136.29C37.0749 136.343 37.0732 136.396 37.0612 136.448C37.0492 136.499 37.0271 136.548 36.9962 136.591C36.9652 136.634 36.9261 136.671 36.8809 136.699C36.7899 136.755 36.6805 136.772 36.5765 136.748C36.4725 136.724 36.3822 136.66 36.325 136.57C35.1256 134.435 33.5595 132.527 31.6983 130.936C31.6657 130.91 31.6384 130.879 31.6179 130.843C31.5974 130.808 31.5841 130.768 31.5788 130.728C31.5735 130.687 31.5763 130.645 31.587 130.606C31.5977 130.566 31.6161 130.529 31.6412 130.496C31.6663 130.464 31.6976 130.436 31.7333 130.416C31.7689 130.395 31.8083 130.382 31.8491 130.377C31.8899 130.371 31.9313 130.374 31.971 130.385C32.0107 130.396 32.048 130.414 32.0806 130.439L32.0756 130.449Z"
        fill="black"
    />
    <path
        d="M40.3658 142.85L43.3096 149.676C43.3543 149.792 43.3536 149.921 43.3076 150.037C43.2616 150.153 43.1737 150.247 43.0614 150.301C42.9444 150.347 42.8142 150.347 42.6972 150.301C42.5802 150.255 42.485 150.166 42.4309 150.053L39.5368 143.177C39.5029 143.071 39.5099 142.956 39.5563 142.855C39.6028 142.754 39.6854 142.674 39.7879 142.63C39.8904 142.587 40.0055 142.583 40.1106 142.62C40.2156 142.657 40.3031 142.732 40.3559 142.83L40.3658 142.85Z"
        fill="black"
    />
    <path
        d="M47.0867 155.911C48.6576 157.77 50.5767 159.305 52.7359 160.428C52.7945 160.451 52.8476 160.487 52.8917 160.532C52.9358 160.577 52.97 160.631 52.9921 160.69C53.0142 160.749 53.0237 160.812 53.02 160.875C53.0163 160.937 52.9994 160.999 52.9705 161.055C52.9417 161.111 52.9014 161.16 52.8523 161.2C52.8032 161.239 52.7463 161.268 52.6854 161.284C52.6245 161.301 52.5609 161.304 52.4986 161.294C52.4364 161.284 52.3769 161.262 52.3239 161.227C50.0554 160.069 48.0326 158.483 46.3669 156.556C46.3163 156.457 46.3004 156.344 46.3217 156.235C46.343 156.126 46.4003 156.027 46.4844 155.955C46.5685 155.882 46.6745 155.84 46.7855 155.834C46.8965 155.829 47.0061 155.861 47.0966 155.926L47.0867 155.911Z"
        fill="black"
    />
    <path
        d="M59.6604 162.602C62.0862 162.961 64.5496 162.988 66.9826 162.682C67.0605 162.68 67.1362 162.707 67.1953 162.758C67.2545 162.809 67.2929 162.88 67.3033 162.957C67.3137 163.034 67.2954 163.112 67.2518 163.177C67.2083 163.241 67.1425 163.288 67.067 163.307C64.5768 163.685 62.0468 163.724 59.5463 163.421C59.4925 163.414 59.4406 163.397 59.3935 163.37C59.3464 163.343 59.3051 163.307 59.2719 163.264C59.2388 163.222 59.2143 163.173 59.2001 163.12C59.1858 163.068 59.182 163.013 59.1889 162.96C59.1957 162.906 59.2131 162.854 59.24 162.807C59.2669 162.76 59.3028 162.718 59.3457 162.685C59.3885 162.652 59.4375 162.628 59.4898 162.613C59.5421 162.599 59.5967 162.595 59.6505 162.602H59.6604Z"
        fill="black"
    />
    <path
        d="M74.1527 160.924C76.4807 160.075 78.7042 158.962 80.7799 157.608H80.8047C78.7941 159.084 76.6101 160.308 74.3016 161.252C74.2535 161.272 74.1995 161.272 74.1512 161.253C74.1029 161.233 74.0643 161.196 74.0435 161.148C74.0338 161.124 74.029 161.099 74.0293 161.073C74.0296 161.047 74.035 161.022 74.0451 160.998C74.0553 160.975 74.07 160.954 74.0885 160.936C74.107 160.918 74.1288 160.904 74.1527 160.895V160.924Z"
        fill="black"
    />
    <path d="M188.31 61.6459C193.309 59.9395 201.157 61.2572 208.786 69.095L210.852 67.6455C201.891 58.5935 192.788 58.2484 188.31 61.6459Z" fill="#F1EFED" />
    <path
        fill-rule="evenodd"
        clip-rule="evenodd"
        d="M215.735 101.784C213.903 102.378 211.873 102.312 209.893 101.493L185.568 68.4815C185.101 65.7137 186.185 63.2583 188.31 61.6459C193.309 59.9395 201.157 61.2572 208.786 69.095C210.118 70.4641 211.444 72.0321 212.747 73.8177C222.534 87.2328 220.741 97.8348 215.735 101.784Z"
        fill="#5869DD"
    />
    <path
        d="M215.735 101.784C222.512 99.5875 226.563 88.3598 215.229 72.8249C213.788 70.8495 212.322 69.1304 210.852 67.6455L208.786 69.095C210.118 70.4641 211.444 72.0321 212.747 73.8177C222.534 87.2328 220.741 97.8348 215.735 101.784Z"
        fill="black"
    />
    <path
        d="M185.568 68.4815L185.079 68.5641L185.099 68.6807L185.169 68.7759L185.568 68.4815ZM215.229 72.8249L214.828 73.1175L215.229 72.8249ZM209.893 101.493L209.493 101.788L209.575 101.899L209.703 101.952L209.893 101.493ZM212.747 73.8177L212.346 74.1103L212.747 73.8177ZM208.786 69.095L208.43 69.4412L208.786 69.095ZM214.828 73.1175C221.972 82.9094 222.873 90.8602 220.986 95.825C219.105 100.772 214.451 102.84 210.083 101.035L209.703 101.952C214.642 103.993 219.855 101.593 221.914 96.1779C223.966 90.7798 222.882 82.4728 215.63 72.5323L214.828 73.1175ZM210.293 101.199L185.968 68.187L185.169 68.7759L209.493 101.788L210.293 101.199ZM186.058 68.3988C185.623 65.8233 186.624 63.5484 188.61 62.0414L188.01 61.2504C185.746 62.9682 184.579 65.6041 185.079 68.5641L186.058 68.3988ZM212.346 74.1103C222.074 87.4441 220.114 97.6969 215.427 101.394L216.042 102.174C221.368 97.9727 222.994 87.0215 213.148 73.5251L212.346 74.1103ZM188.47 62.1157C193.242 60.4869 200.898 61.7024 208.43 69.4412L209.142 68.7487C201.417 60.812 193.376 59.3921 188.15 61.1761L188.47 62.1157ZM208.43 69.4412C209.745 70.7925 211.056 72.3424 212.346 74.1103L213.148 73.5251C211.832 71.7218 210.491 70.1356 209.142 68.7487L208.43 69.4412ZM188.61 62.0414C192.808 58.8569 201.63 59.0347 210.499 67.9947L211.205 67.2963C202.153 58.1524 192.769 57.6398 188.01 61.2504L188.61 62.0414ZM210.499 67.9947C211.95 69.4608 213.4 71.1608 214.828 73.1175L215.63 72.5323C214.175 70.5383 212.693 68.8 211.205 67.2963L210.499 67.9947ZM209.071 69.5014L211.137 68.0519L210.567 67.2391L208.501 68.6886L209.071 69.5014ZM215.582 101.312C213.866 101.868 211.957 101.81 210.083 101.035L209.703 101.952C211.788 102.814 213.94 102.887 215.888 102.256L215.582 101.312ZM215.888 102.256C219.501 101.085 222.311 97.5321 222.768 92.35C223.225 87.1708 221.343 80.3628 215.63 72.5323L214.828 73.1175C220.449 80.8219 222.208 87.3952 221.779 92.2627C221.35 97.1273 218.746 100.286 215.582 101.312L215.888 102.256Z"
        fill="black"
    />
    <path
        d="M153.088 97.1517L174.524 121.598L183.98 116.541C184.999 112.342 181.822 104.471 175.757 97.0311C171.805 92.1843 167.428 88.5009 163.663 86.5644L153.18 95.7504C152.768 96.1119 152.727 96.7393 153.088 97.1517Z"
        fill="url(#paint0_linear_233_5792)"
    />
    <path
        d="M193.409 111.497C196.98 108.586 193.316 99.2647 185.918 90.1903C181.413 84.6638 176.354 80.6498 172.279 79.0135L163.663 86.5644C167.428 88.5009 171.805 92.1843 175.757 97.0311C181.822 104.471 184.999 112.342 183.98 116.541L193.409 111.497Z"
        fill="url(#paint1_linear_233_5792)"
    />
    <path
        d="M185.918 90.1903C193.316 99.2647 196.98 108.586 193.409 111.497L205.124 105.231C208.694 102.32 205.435 92.3103 198.037 83.2358C192.222 76.1022 185.483 71.4887 181.132 71.2559L172.279 79.0135C176.354 80.6498 181.413 84.6638 185.918 90.1903Z"
        fill="url(#paint2_linear_233_5792)"
    />
    <path
        d="M211.88 101.617C228.261 89.9515 199.966 56.4433 187.555 65.6269L181.132 71.2559C185.483 71.4887 192.222 76.1022 198.037 83.2358C205.435 92.3103 208.694 102.32 205.124 105.231L211.88 101.617Z"
        fill="url(#paint3_linear_233_5792)"
    />
    <path
        d="M153.18 95.7504L152.853 95.3771L152.853 95.3771L153.18 95.7504ZM187.555 65.6269L187.26 65.2279L187.243 65.2401L187.228 65.2536L187.555 65.6269ZM211.88 101.617L212.114 102.055L212.142 102.04L212.168 102.022L211.88 101.617ZM174.524 121.598L174.151 121.926L174.411 122.222L174.758 122.036L174.524 121.598ZM153.088 97.1517L152.715 97.479H152.715L153.088 97.1517ZM175.757 97.0311L175.372 97.3447L175.757 97.0311ZM185.918 90.1903L185.534 90.5039L185.918 90.1903ZM198.037 83.2358L197.653 83.5495L198.037 83.2358ZM205.124 105.231L205.358 105.669L205.124 105.231ZM181.132 71.2559L180.804 70.8826L181.132 71.2559ZM183.98 116.541L184.214 116.978L183.98 116.541ZM187.85 66.026C190.736 63.8908 194.608 64.1852 198.676 66.1813C202.733 68.1717 206.865 71.8061 210.119 76.1033C213.374 80.4022 215.713 85.3154 216.242 89.8386C216.769 94.3392 215.508 98.4241 211.592 101.213L212.168 102.022C216.442 98.9777 217.787 94.4994 217.228 89.7232C216.672 84.9695 214.233 79.8923 210.91 75.5039C207.586 71.1138 203.341 67.3639 199.114 65.2899C194.898 63.2215 190.58 62.7713 187.26 65.2279L187.85 66.026ZM174.897 121.271L153.461 96.8244L152.715 97.479L174.151 121.926L174.897 121.271ZM152.853 95.3771C152.234 95.9193 152.173 96.8604 152.715 97.479L153.461 96.8244C153.281 96.6182 153.301 96.3045 153.507 96.1238L152.853 95.3771ZM185.534 90.5039C189.21 95.0135 191.941 99.5643 193.311 103.325C193.996 105.207 194.33 106.862 194.289 108.201C194.249 109.535 193.841 110.504 193.096 111.112L193.723 111.882C194.763 111.034 195.236 109.747 195.282 108.231C195.327 106.719 194.952 104.931 194.243 102.985C192.824 99.0884 190.025 94.4414 186.303 89.8766L185.534 90.5039ZM197.653 83.5495C201.322 88.0502 203.951 92.7678 205.221 96.6974C205.857 98.6639 206.144 100.408 206.067 101.815C205.991 103.224 205.556 104.238 204.81 104.846L205.437 105.616C206.477 104.768 206.973 103.44 207.059 101.869C207.144 100.298 206.824 98.4261 206.166 96.392C204.85 92.3204 202.151 87.4959 198.422 82.9222L197.653 83.5495ZM163.436 87.0058C167.124 88.9028 171.451 92.5349 175.372 97.3447L176.141 96.7174C172.16 91.8338 167.732 88.099 163.89 86.1229L163.436 87.0058ZM153.507 96.1238L163.99 86.9377L163.336 86.191L152.853 95.3771L153.507 96.1238ZM163.99 86.9377L172.606 79.3868L171.952 78.6401L163.336 86.191L163.99 86.9377ZM172.094 79.4741C176.063 81.0681 181.059 85.0148 185.534 90.5039L186.303 89.8766C181.767 84.3127 176.644 80.2315 172.464 78.5528L172.094 79.4741ZM172.606 79.3868L181.459 71.6293L180.804 70.8826L171.952 78.6401L172.606 79.3868ZM181.459 71.6293L187.882 66.0003L187.228 65.2536L180.804 70.8826L181.459 71.6293ZM181.105 71.7516C183.143 71.8607 185.823 73.01 188.75 75.0644C191.664 77.1089 194.769 80.0129 197.653 83.5495L198.422 82.9222C195.49 79.3251 192.319 76.3556 189.321 74.2517C186.337 72.1577 183.472 70.884 181.158 70.7602L181.105 71.7516ZM175.372 97.3447C178.379 101.033 180.663 104.82 182.067 108.192C183.479 111.585 183.969 114.481 183.497 116.423L184.462 116.658C185.01 114.402 184.421 111.263 182.983 107.81C181.537 104.337 179.199 100.469 176.141 96.7174L175.372 97.3447ZM211.645 101.18L183.745 116.103L184.214 116.978L212.114 102.055L211.645 101.18ZM183.745 116.103L174.29 121.161L174.758 122.036L184.214 116.978L183.745 116.103ZM193.643 111.935L212.114 102.055L211.645 101.18L193.175 111.059L193.643 111.935ZM184.214 116.978L193.643 111.935L193.175 111.059L183.745 116.103L184.214 116.978ZM211.645 101.18L204.889 104.793L205.358 105.669L212.114 102.055L211.645 101.18ZM193.643 111.935L205.358 105.669L204.889 104.793L193.175 111.059L193.643 111.935Z"
        fill="black"
    />
    <ellipse cx="163.859" cy="108.641" rx="8.342" ry="16.6503" transform="rotate(-39.1877 163.859 108.641)" fill="#5869DD" stroke="black" stroke-width="0.992839" />
    <ellipse cx="163.775" cy="108.71" rx="5.53519" ry="14.0594" transform="rotate(-39.1877 163.775 108.71)" fill="url(#paint4_linear_233_5792)" stroke="black" stroke-width="0.992839" />
    <path
        d="M166.704 128.423C159.061 125.224 161.753 116.018 164.598 110.562C165.205 109.397 165.812 107.762 165.298 106.553C164.529 104.746 162.256 106.784 161.398 108.551C160.351 110.709 159.508 112.982 158.957 115.256C160.031 127.723 162.055 131.851 170.279 129.967C169.062 129.423 167.863 128.908 166.704 128.423Z"
        fill="black"
    />
    <path
        d="M184.618 152.25C182.156 160.858 174.952 174.014 172.102 180.113C170.747 183.015 169.6 186.683 170.485 189.988C176.664 194.459 181.371 195.604 192.642 194.492C175.75 194.426 172.72 189.329 175.391 183.402C177.257 178.661 180.381 172.076 183.274 165.809C183.288 161.611 183.778 157.724 184.618 152.25Z"
        fill="black"
    />
    <path
        d="M135.97 178.867C135.097 180.829 131.71 182.627 133.259 184.114C134.029 184.854 136.309 185.753 141.746 187.104C144.858 187.877 147.684 189.646 149.634 192.192C151.654 194.83 153.181 197.48 154.293 204.5C154.498 206.716 154.734 208.723 155.005 210.549C155.255 203.395 155.508 199.521 152.411 188.242C148.531 182.901 143.401 179.373 139.787 177.598C138.702 177.066 136.461 177.763 135.97 178.867Z"
        fill="black"
    />
    <path d="M208.9 227.831C210.084 226.385 210.182 225.568 209.644 224.108C204.868 224.602 201.689 224.593 197.479 224.276L195.48 228.243C199.884 228.493 203.382 228.35 208.9 227.831Z" fill="black" />
    <path
        d="M160.075 129.43C161.552 131.637 164.098 132.785 166.568 133.762C178.584 138.512 185.043 140.492 185.444 146.977C185.529 148.362 185.211 150.173 184.618 152.25C183.778 157.724 183.288 161.611 183.274 165.809C186.54 158.732 189.509 152.06 190.036 148.901C191.377 140.855 180.267 134.432 170.279 129.967C162.055 131.851 160.031 127.723 158.957 115.256C157.705 120.415 157.496 125.58 160.075 129.43Z"
        fill="url(#paint5_linear_233_5792)"
    />
    <path
        d="M228.632 221.75C241.787 214.056 235.086 191.965 212.747 192.958C204.531 194.044 197.912 194.513 192.642 194.492C181.371 195.604 176.664 194.459 170.485 189.988C171.909 195.305 178.587 199.681 198.102 198.419C224.542 196.708 230.354 202.32 230.516 208.376C230.659 213.726 226.662 218.529 221.8 220.766L218.771 226.659C221.75 225.714 224.504 224.364 228.632 221.75Z"
        fill="url(#paint6_linear_233_5792)"
    />
    <path d="M221.8 220.766C219.927 221.627 217.908 222.198 215.189 222.649C215.859 224.321 215.79 225.494 215.189 227.831C216.896 227.471 217.344 227.111 218.771 226.659L221.8 220.766Z" fill="black" />
    <path
        d="M176.954 231.451C174.256 230.822 171.626 229.834 169.324 228.293C157.831 220.594 160.555 212.727 157.148 198.419C156.214 194.498 154.493 191.109 152.411 188.242C155.508 199.521 155.255 203.395 155.005 210.549C156.419 220.094 158.748 224.68 162.096 228.248C165.109 231.459 169.227 233.397 173.51 234.415C179.92 235.938 185.481 236.586 190.284 236.587C203.862 235.366 211.777 233.673 215.189 227.831C215.79 225.494 215.859 224.321 215.189 222.649C210.207 211.607 187 208.681 177.258 216.947C175.501 218.437 175.487 221.098 177.223 222.611C181.034 225.935 187.235 227.776 195.48 228.243L197.479 224.276C185.824 223.4 177.678 220.173 180.48 218.772C196.117 210.953 206.045 218.772 209.644 224.108C210.182 225.568 210.084 226.385 208.9 227.831C196.169 234.773 184.817 233.281 176.954 231.451Z"
        fill="url(#paint7_linear_233_5792)"
    />
    <path
        d="M166.704 128.423L166.896 127.966L166.704 128.423ZM190.036 148.901L189.546 148.819L190.036 148.901ZM175.391 183.402L175.844 183.606L175.849 183.595L175.853 183.584L175.391 183.402ZM212.747 192.958L212.725 192.462L212.703 192.463L212.682 192.466L212.747 192.958ZM228.632 221.75L228.382 221.322L228.374 221.326L228.367 221.331L228.632 221.75ZM157.148 198.419L156.665 198.533L157.148 198.419ZM208.9 227.831L209.137 228.267L209.222 228.221L209.284 228.146L208.9 227.831ZM198.102 198.419L198.07 197.923L198.102 198.419ZM172.102 180.113L171.653 179.903L172.102 180.113ZM185.444 146.977L185.939 146.946L185.444 146.977ZM190.284 236.587L190.284 237.083L190.306 237.083L190.328 237.081L190.284 236.587ZM209.644 224.108L210.11 223.937L210.089 223.88L210.056 223.831L209.644 224.108ZM180.48 218.772L180.258 218.328L180.48 218.772ZM154.293 204.5L154.788 204.454L154.786 204.438L154.784 204.422L154.293 204.5ZM192.642 194.492L192.644 193.996L192.642 194.492ZM195.48 228.243L195.452 228.739L195.48 228.243ZM197.479 224.276L197.516 223.781L197.479 224.276ZM152.411 188.242L152.812 187.95L152.411 188.242ZM158.957 115.256L158.474 115.139L158.957 115.256ZM183.274 165.809L183.725 166.017L183.274 165.809ZM184.618 152.25L184.14 152.113L184.618 152.25ZM230.516 208.376L230.02 208.39L230.516 208.376ZM139.787 177.598L139.569 178.044L139.787 177.598ZM133.259 184.114L132.915 184.472L133.259 184.114ZM173.51 234.415L173.625 233.932L173.51 234.415ZM162.096 228.248L161.734 228.588L162.096 228.248ZM177.258 216.947L176.936 216.568L177.258 216.947ZM177.223 222.611L177.549 222.237L177.223 222.611ZM169.324 228.293L169.6 227.88L169.324 228.293ZM176.954 231.451L177.067 230.967L176.954 231.451ZM164.598 110.562L164.158 110.332L164.598 110.562ZM164.158 110.332C162.72 113.09 161.297 116.835 161.222 120.328C161.184 122.081 161.484 123.795 162.316 125.291C163.153 126.795 164.507 128.042 166.512 128.881L166.896 127.966C165.079 127.205 163.904 126.102 163.184 124.809C162.46 123.508 162.179 121.98 162.214 120.349C162.285 117.076 163.631 113.489 165.038 110.791L164.158 110.332ZM212.769 193.454C223.76 192.965 230.816 198.147 233.546 204.298C236.282 210.461 234.711 217.62 228.382 221.322L228.883 222.179C235.709 218.186 237.364 210.453 234.453 203.895C231.537 197.325 224.072 191.958 212.725 192.462L212.769 193.454ZM141.866 186.622C139.154 185.948 137.244 185.39 135.921 184.913C134.58 184.428 133.906 184.047 133.603 183.756L132.915 184.472C133.382 184.921 134.234 185.359 135.584 185.847C136.954 186.341 138.902 186.909 141.626 187.586L141.866 186.622ZM156.665 198.533C157.511 202.087 157.977 205.242 158.38 208.109C158.782 210.969 159.123 213.565 159.722 215.955C160.323 218.355 161.187 220.566 162.644 222.671C164.1 224.776 166.134 226.753 169.048 228.705L169.6 227.88C166.768 225.983 164.832 224.089 163.46 222.107C162.089 220.124 161.266 218.031 160.685 215.714C160.102 213.386 159.768 210.852 159.363 207.971C158.959 205.099 158.488 201.905 157.631 198.304L156.665 198.533ZM176.842 231.934C184.757 233.777 196.253 235.293 209.137 228.267L208.662 227.396C196.086 234.253 184.877 232.785 177.067 230.967L176.842 231.934ZM231.012 208.363C230.969 206.768 230.553 205.18 229.503 203.733C228.455 202.29 226.802 201.024 224.35 200.025C219.464 198.035 211.308 197.066 198.07 197.923L198.134 198.914C211.336 198.06 219.305 199.042 223.976 200.945C226.302 201.892 227.786 203.058 228.699 204.317C229.611 205.572 229.981 206.956 230.02 208.39L231.012 208.363ZM185.939 146.946C185.834 145.237 185.325 143.806 184.417 142.553C183.514 141.307 182.233 140.262 180.617 139.293C177.404 137.366 172.727 135.663 166.75 133.3L166.385 134.223C172.424 136.611 176.985 138.272 180.106 140.144C181.657 141.075 182.817 142.037 183.613 143.136C184.404 144.226 184.853 145.474 184.948 147.008L185.939 146.946ZM190.284 236.091C185.526 236.09 180.003 235.448 173.625 233.932L173.395 234.898C179.837 236.429 185.437 237.083 190.284 237.083L190.284 236.091ZM210.056 223.831C208.207 221.09 204.743 217.722 199.735 216.036C194.71 214.346 188.182 214.366 180.258 218.328L180.702 219.216C188.414 215.359 194.669 215.379 199.418 216.977C204.182 218.581 207.482 221.79 209.233 224.386L210.056 223.831ZM209.284 228.146C209.894 227.4 210.278 226.756 210.406 226.065C210.535 225.368 210.391 224.698 210.11 223.937L209.178 224.28C209.436 224.978 209.511 225.446 209.43 225.884C209.347 226.329 209.089 226.816 208.515 227.517L209.284 228.146ZM154.784 204.422C154.224 200.889 153.556 198.431 152.763 196.513C151.967 194.59 151.053 193.229 150.028 191.89L149.239 192.494C150.235 193.793 151.094 195.077 151.845 196.893C152.599 198.715 153.25 201.091 153.803 204.577L154.784 204.422ZM214.761 227.581C213.138 230.359 210.432 232.185 206.398 233.469C202.352 234.757 197.028 235.482 190.239 236.093L190.328 237.081C197.118 236.471 202.54 235.739 206.699 234.415C210.87 233.088 213.828 231.146 215.618 228.082L214.761 227.581ZM177.579 217.325C182.299 213.321 190.369 211.981 197.939 213.049C205.524 214.119 212.352 217.568 214.737 222.853L215.642 222.445C213.045 216.689 205.778 213.153 198.078 212.066C190.364 210.977 181.959 212.307 176.936 216.568L177.579 217.325ZM198.07 197.923C188.342 198.553 181.875 197.771 177.683 196.206C173.514 194.649 171.627 192.332 170.965 189.86L170.006 190.117C170.767 192.961 172.931 195.491 177.336 197.136C181.718 198.772 188.348 199.547 198.134 198.914L198.07 197.923ZM170.965 189.86C170.128 186.733 171.207 183.203 172.552 180.323L171.653 179.903C170.286 182.827 169.073 186.634 170.006 190.117L170.965 189.86ZM174.939 183.198C174.248 184.731 173.904 186.256 174.092 187.691C174.283 189.14 175.011 190.448 176.371 191.533C179.048 193.669 184.181 194.955 192.64 194.989L192.644 193.996C184.211 193.963 179.383 192.667 176.99 190.757C175.815 189.819 175.231 188.736 175.077 187.561C174.92 186.371 175.199 185.037 175.844 183.606L174.939 183.198ZM192.64 194.989C197.939 195.009 204.581 194.538 212.812 193.45L212.682 192.466C204.48 193.55 197.884 194.016 192.644 193.996L192.64 194.989ZM170.194 190.391C173.32 192.652 176.105 194.095 179.552 194.82C182.984 195.541 187.039 195.544 192.69 194.986L192.593 193.998C186.974 194.552 183.039 194.538 179.756 193.848C176.487 193.161 173.829 191.795 170.776 189.586L170.194 190.391ZM215.27 223.139C218.018 222.683 220.083 222.102 222.008 221.217L221.593 220.315C219.772 221.153 217.798 221.713 215.108 222.159L215.27 223.139ZM228.367 221.331C224.259 223.931 221.545 225.258 218.621 226.186L218.921 227.132C221.955 226.17 224.748 224.796 228.898 222.17L228.367 221.331ZM218.621 226.186C217.89 226.418 217.393 226.632 216.909 226.816C216.425 227 215.911 227.172 215.087 227.346L215.292 228.317C216.174 228.131 216.738 227.943 217.261 227.744C217.785 227.545 218.225 227.353 218.921 227.132L218.621 226.186ZM221.359 220.539L218.329 226.432L219.212 226.886L222.242 220.993L221.359 220.539ZM176.897 222.986C180.833 226.418 187.169 228.27 195.452 228.739L195.508 227.748C187.302 227.283 181.236 225.452 177.549 222.237L176.897 222.986ZM195.452 228.739C199.889 228.99 203.414 228.846 208.946 228.326L208.853 227.337C203.35 227.854 199.879 227.995 195.508 227.748L195.452 228.739ZM180.258 218.328C179.855 218.529 179.482 218.844 179.434 219.325C179.387 219.788 179.668 220.176 179.977 220.463C180.61 221.052 181.817 221.642 183.395 222.19C186.589 223.299 191.583 224.331 197.441 224.771L197.516 223.781C191.719 223.345 186.813 222.326 183.721 221.252C182.156 220.708 181.123 220.173 180.653 219.736C180.41 219.51 180.423 219.41 180.422 219.424C180.418 219.457 180.403 219.365 180.702 219.216L180.258 218.328ZM197.441 224.771C201.679 225.09 204.888 225.099 209.695 224.602L209.593 223.615C204.849 224.105 201.7 224.096 197.516 223.781L197.441 224.771ZM195.923 228.467L197.922 224.499L197.035 224.053L195.037 228.02L195.923 228.467ZM139.569 178.044C143.127 179.791 148.187 183.272 152.009 188.534L152.812 187.95C148.876 182.53 143.676 178.955 140.006 177.153L139.569 178.044ZM152.009 188.534C154.058 191.355 155.749 194.685 156.665 198.533L157.631 198.304C156.68 194.311 154.927 190.863 152.812 187.95L152.009 188.534ZM162.458 227.909C159.201 224.437 156.9 219.958 155.496 210.476L154.514 210.622C155.937 220.229 158.295 224.922 161.734 228.588L162.458 227.909ZM155.496 210.476C155.227 208.661 154.991 206.663 154.788 204.454L153.799 204.545C154.004 206.769 154.242 208.786 154.514 210.622L155.496 210.476ZM151.932 188.373C153.476 193.996 154.18 197.754 154.469 200.987C154.758 204.222 154.634 206.946 154.509 210.532L155.501 210.566C155.626 206.997 155.754 204.207 155.458 200.898C155.162 197.586 154.443 193.767 152.889 188.111L151.932 188.373ZM160.487 129.154C158.03 125.485 158.195 120.501 159.439 115.373L158.474 115.139C157.215 120.329 156.962 125.675 159.662 129.706L160.487 129.154ZM159.439 115.373C159.982 113.137 160.812 110.898 161.845 108.767L160.952 108.334C159.891 110.521 159.035 112.827 158.474 115.139L159.439 115.373ZM166.512 128.881C167.668 129.365 168.864 129.878 170.076 130.42L170.481 129.514C169.261 128.968 168.057 128.452 166.896 127.966L166.512 128.881ZM170.076 130.42C175.061 132.648 180.286 135.349 184.091 138.475C187.912 141.614 190.171 145.07 189.546 148.819L190.525 148.982C191.241 144.686 188.616 140.907 184.721 137.708C180.809 134.494 175.485 131.75 170.481 129.514L170.076 130.42ZM158.462 115.298C158.731 118.422 159.061 121.044 159.538 123.187C160.013 125.326 160.642 127.025 161.531 128.28C162.432 129.552 163.591 130.354 165.079 130.7C166.546 131.041 168.299 130.93 170.39 130.451L170.168 129.483C168.147 129.946 166.562 130.026 165.304 129.733C164.065 129.445 163.109 128.79 162.342 127.706C161.562 126.606 160.97 125.054 160.507 122.971C160.045 120.893 159.719 118.323 159.451 115.213L158.462 115.298ZM189.546 148.819C189.293 150.336 188.441 152.745 187.223 155.696C186.011 158.634 184.456 162.063 182.823 165.601L183.725 166.017C185.358 162.478 186.92 159.033 188.141 156.075C189.356 153.131 190.252 150.625 190.525 148.982L189.546 148.819ZM182.823 165.601C179.936 171.857 176.801 178.462 174.929 183.22L175.853 183.584C177.712 178.86 180.827 172.296 183.725 166.017L182.823 165.601ZM184.14 152.113C182.922 156.373 180.523 161.781 178.058 166.907C175.611 171.998 173.072 176.864 171.653 179.903L172.552 180.323C173.982 177.263 176.47 172.502 178.953 167.338C181.418 162.209 183.851 156.735 185.095 152.386L184.14 152.113ZM183.77 165.81C183.784 161.652 184.269 157.795 185.108 152.325L184.127 152.175C183.287 157.652 182.792 161.57 182.777 165.807L183.77 165.81ZM185.095 152.386C185.693 150.294 186.03 148.417 185.939 146.946L184.948 147.008C185.029 148.306 184.73 150.053 184.14 152.113L185.095 152.386ZM215.67 227.955C215.973 226.778 216.153 225.853 216.162 224.996C216.172 224.125 216.005 223.349 215.65 222.464L214.728 222.834C215.044 223.621 215.177 224.267 215.17 224.985C215.162 225.717 215.007 226.547 214.708 227.708L215.67 227.955ZM230.02 208.39C230.156 213.481 226.335 218.132 221.593 220.315L222.008 221.217C226.989 218.925 231.163 213.971 231.012 208.363L230.02 208.39ZM136.423 179.069C136.583 178.71 137.1 178.321 137.809 178.091C138.513 177.863 139.194 177.86 139.569 178.044L140.006 177.153C139.296 176.804 138.313 176.884 137.503 177.147C136.698 177.408 135.848 177.92 135.516 178.665L136.423 179.069ZM133.603 183.756C133.461 183.62 133.4 183.504 133.374 183.41C133.348 183.317 133.348 183.21 133.385 183.075C133.466 182.783 133.704 182.429 134.082 181.993C134.265 181.782 134.467 181.565 134.682 181.337C134.894 181.112 135.117 180.876 135.331 180.635C135.754 180.16 136.172 179.633 136.423 179.069L135.516 178.665C135.331 179.082 134.999 179.515 134.589 179.975C134.387 180.203 134.174 180.428 133.958 180.657C133.745 180.884 133.529 181.115 133.331 181.344C132.946 181.788 132.574 182.286 132.428 182.81C132.352 183.084 132.335 183.377 132.417 183.674C132.499 183.971 132.67 184.237 132.915 184.472L133.603 183.756ZM165.755 106.359C165.509 105.781 165.091 105.419 164.537 105.361C164.036 105.307 163.534 105.518 163.11 105.796C162.25 106.358 161.412 107.384 160.952 108.334L161.845 108.767C162.241 107.95 162.969 107.074 163.653 106.627C164 106.4 164.265 106.33 164.433 106.348C164.549 106.36 164.702 106.421 164.841 106.747L165.755 106.359ZM141.626 187.586C144.636 188.334 147.363 190.044 149.239 192.494L150.028 191.89C148.005 189.249 145.079 187.421 141.866 186.622L141.626 187.586ZM166.75 133.3C164.27 132.319 161.869 131.217 160.487 129.154L159.662 129.706C161.236 132.057 163.926 133.251 166.385 134.223L166.75 133.3ZM173.625 233.932C169.404 232.929 165.385 231.028 162.458 227.909L161.734 228.588C164.833 231.891 169.049 233.865 173.395 234.898L173.625 233.932ZM176.936 216.568C174.948 218.255 174.933 221.273 176.897 222.986L177.549 222.237C176.042 220.923 176.055 218.618 177.579 217.325L176.936 216.568ZM169.048 228.705C171.413 230.289 174.103 231.297 176.842 231.934L177.067 230.967C174.409 230.348 171.839 229.38 169.6 227.88L169.048 228.705ZM165.038 110.791C165.352 110.188 165.676 109.447 165.852 108.686C166.027 107.93 166.07 107.1 165.755 106.359L164.841 106.747C165.04 107.215 165.037 107.806 164.885 108.462C164.734 109.111 164.451 109.77 164.158 110.332L165.038 110.791Z"
        fill="black"
    />
    <path d="M99.8119 140.834L90.2559 205.244L108.678 203.296C122.574 184.562 122.926 165.882 113.345 147.757L99.8119 140.834Z" fill="url(#paint8_linear_233_5792)" />
    <path d="M128.5 155.509L113.345 147.757C122.926 165.882 122.574 184.562 108.678 203.296L109.133 203.248L120.792 202.016C133.572 186.366 135.314 170.767 128.5 155.509Z" fill="url(#paint9_linear_233_5792)" />
    <path
        d="M139.718 163.784C138.339 161.268 136.079 159.386 133.525 158.08L128.5 155.509C135.314 170.767 133.572 186.366 120.792 202.016L128.011 201.252C130.167 201.024 132.215 200.115 133.707 198.541C144.805 186.833 145.945 175.146 139.718 163.784Z"
        fill="url(#paint10_linear_233_5792)"
    />
    <path
        d="M128.011 201.252L127.958 200.759L128.011 201.252ZM90.2559 205.244L89.7648 205.172C89.7423 205.323 89.7913 205.477 89.8976 205.588C90.0038 205.699 90.1554 205.754 90.3081 205.738L90.2559 205.244ZM99.8119 140.834L100.038 140.392C99.8957 140.319 99.7269 140.319 99.5848 140.393C99.4426 140.466 99.3444 140.603 99.3209 140.761L99.8119 140.834ZM133.525 158.08L133.751 157.638L133.525 158.08ZM139.718 163.784L139.283 164.022L139.718 163.784ZM133.707 198.541L133.347 198.199L133.707 198.541ZM113.345 147.757L113.571 147.315L113.345 147.757ZM109.133 203.248L109.185 203.742L109.185 203.742L109.133 203.248ZM120.792 202.016L120.844 202.509L120.792 202.016ZM90.7469 205.317L100.303 140.907L99.3209 140.761L89.7648 205.172L90.7469 205.317ZM133.298 158.522C135.79 159.796 137.964 161.616 139.283 164.022L140.153 163.545C138.714 160.919 136.367 158.976 133.751 157.638L133.298 158.522ZM139.283 164.022C142.354 169.627 143.593 175.279 142.719 180.957C141.844 186.639 138.845 192.399 133.347 198.199L134.067 198.882C139.667 192.975 142.787 187.038 143.7 181.108C144.613 175.175 143.309 169.303 140.153 163.545L139.283 164.022ZM133.347 198.199C131.946 199.677 130.013 200.541 127.958 200.759L128.063 201.746C130.321 201.507 132.484 200.553 134.067 198.882L133.347 198.199ZM128.274 155.951L133.298 158.522L133.751 157.638L128.726 155.067L128.274 155.951ZM99.5859 141.276L113.119 148.199L113.571 147.315L100.038 140.392L99.5859 141.276ZM113.119 148.199L128.274 155.951L128.726 155.067L113.571 147.315L113.119 148.199ZM127.958 200.759L120.74 201.522L120.844 202.509L128.063 201.746L127.958 200.759ZM120.74 201.522L109.081 202.755L109.185 203.742L120.844 202.509L120.74 201.522ZM121.177 202.33C127.611 194.45 131.287 186.558 132.485 178.69C133.682 170.82 132.394 163.01 128.953 155.307L128.046 155.712C131.42 163.266 132.668 170.884 131.503 178.541C130.338 186.199 126.753 193.931 120.408 201.702L121.177 202.33ZM109.081 202.755L108.626 202.803L108.73 203.79L109.185 203.742L109.081 202.755ZM108.626 202.803L90.2037 204.751L90.3081 205.738L108.73 203.79L108.626 202.803ZM109.077 203.592C116.072 194.161 119.676 184.718 120.311 175.331C120.945 165.945 118.609 156.653 113.784 147.525L112.906 147.989C117.662 156.986 119.94 166.095 119.32 175.264C118.7 184.432 115.18 193.697 108.28 203.001L109.077 203.592Z"
        fill="black"
    />
    <path
        d="M113.215 172.273C113.215 193.156 99.7688 210.085 83.1818 210.085C66.5948 210.085 53.1484 193.156 53.1484 172.273C53.1484 151.39 69.3533 133.884 85.9403 133.884C102.527 133.884 113.215 148.399 113.215 172.273Z"
        fill="#5869DD"
        stroke="black"
        stroke-width="0.992839"
    />
    <path d="M81.0589 208.099C96.4734 208.099 108.969 191.611 108.969 171.273H89.8835L63.5945 200C68.3759 205.067 74.4491 208.099 81.0589 208.099Z" fill="black" />
    <path d="M83.6224 133.884C68.2079 133.884 53.1484 150.934 53.1484 171.273C53.1484 182.89 57.2254 193.251 63.5945 200L89.8835 171.273H108.969C108.969 147.516 99.0369 133.884 83.6224 133.884Z" fill="#F1EFED" />
    <path
        d="M89.8835 171.273V170.776H89.6649L89.5173 170.938L89.8835 171.273ZM108.473 171.273C108.473 181.344 105.378 190.443 100.399 197.013C95.4195 203.583 88.5771 207.603 81.0589 207.603V208.595C88.9552 208.595 96.0679 204.371 101.19 197.613C106.312 190.855 109.466 181.54 109.466 171.273H108.473ZM53.6449 171.273C53.6449 161.225 57.3657 151.989 62.9857 145.27C68.6101 138.546 76.0995 134.381 83.6224 134.381V133.388C75.7307 133.388 67.9832 137.748 62.2242 144.633C56.4609 151.524 52.652 160.982 52.652 171.273H53.6449ZM83.6224 134.381C91.162 134.381 97.3481 137.705 101.668 143.952C106.001 150.218 108.473 159.454 108.473 171.273H109.466C109.466 159.334 106.971 149.876 102.485 143.387C97.9846 136.879 91.4972 133.388 83.6224 133.388V134.381ZM81.0589 207.603C74.6096 207.603 68.6609 204.646 63.9556 199.66L63.2335 200.341C68.0909 205.489 74.2885 208.595 81.0589 208.595V207.603ZM63.9556 199.66C57.6841 193.014 53.6449 182.78 53.6449 171.273H52.652C52.652 183 56.7668 193.488 63.2335 200.341L63.9556 199.66ZM108.969 170.776H89.8835V171.769H108.969V170.776ZM63.9607 200.336L90.2497 171.608L89.5173 170.938L63.2283 199.665L63.9607 200.336Z"
        fill="black"
    />
    <path
        d="M104.899 170.373C104.899 163.207 104.02 157.233 102.386 152.418C99.2396 158.209 97.2346 165.62 97.2346 173.6C97.2346 179.686 98.2027 185.386 99.8893 190.269C103.032 184.753 104.899 177.856 104.899 170.373Z"
        fill="url(#paint11_linear_233_5792)"
    />
    <path
        d="M96.7433 142.712C89.7381 148.087 84.3155 159.67 84.3155 172.793C84.3155 183.629 87.3837 193.236 92.1117 199.2C95.1514 196.988 97.8017 193.933 99.8893 190.269C98.2027 185.386 97.2346 179.686 97.2346 173.6C97.2346 165.62 99.2396 158.209 102.386 152.418C101.013 148.37 99.1075 145.141 96.7433 142.712Z"
        fill="url(#paint12_linear_233_5792)"
    />
    <path
        d="M91.1062 138.77C79.3997 139.69 68.2987 154.466 68.2987 171.986C68.2987 186.329 74.4725 198.52 83.069 202.957C86.3149 202.504 89.3715 201.194 92.1117 199.2C87.3837 193.236 84.3155 183.629 84.3155 172.793C84.3155 159.67 89.7381 148.087 96.7433 142.712C95.082 141.005 93.1943 139.693 91.1062 138.77Z"
        fill="url(#paint13_linear_233_5792)"
    />
    <path
        d="M56.1348 170.373C56.1348 188.467 67.051 203.135 80.5169 203.135C81.3788 203.135 82.2302 203.075 83.069 202.957C74.4725 198.52 68.2987 186.329 68.2987 171.986C68.2987 154.466 79.3997 139.69 91.1062 138.77C88.5973 137.66 85.7991 137.111 82.7563 137.111C69.2905 137.111 56.1348 152.279 56.1348 170.373Z"
        fill="url(#paint14_linear_233_5792)"
    />
    <path
        d="M96.7433 142.712L97.099 142.366L96.7433 142.712ZM92.1117 199.2L92.4038 199.602L92.1117 199.2ZM80.5169 202.638C73.9769 202.638 68.0168 199.077 63.6744 193.243C59.3319 187.408 56.6312 179.324 56.6312 170.373H55.6383C55.6383 179.516 58.3958 187.813 62.8779 193.835C67.36 199.858 73.591 203.631 80.5169 203.631V202.638ZM56.6312 170.373C56.6312 161.444 59.8779 153.24 64.7795 147.272C69.6857 141.298 76.2115 137.607 82.7563 137.607V136.614C75.8353 136.614 69.0503 140.508 64.0122 146.642C58.9695 152.781 55.6383 161.207 55.6383 170.373H56.6312ZM68.7952 171.986C68.7952 163.328 71.5389 155.354 75.718 149.439C79.9032 143.516 85.4862 139.709 91.1451 139.265L91.0673 138.275C85.0197 138.75 79.199 142.792 74.9071 148.866C70.609 154.95 67.8023 163.124 67.8023 171.986H68.7952ZM82.7563 137.607C85.7388 137.607 88.4674 138.145 90.9054 139.224L91.307 138.316C88.7273 137.175 85.8594 136.614 82.7563 136.614V137.607ZM90.9054 139.224C92.9343 140.121 94.7696 141.396 96.3876 143.058L97.099 142.366C95.3943 140.614 93.4543 139.265 91.307 138.316L90.9054 139.224ZM84.812 172.793C84.812 159.783 90.1923 148.364 97.0455 143.106L96.4411 142.318C89.2839 147.809 83.8191 159.558 83.8191 172.793H84.812ZM96.3876 143.058C98.6906 145.425 100.562 148.585 101.916 152.577L102.856 152.259C101.465 148.155 99.5243 144.858 97.099 142.366L96.3876 143.058ZM101.916 152.577C103.528 157.328 104.403 163.245 104.403 170.373H105.395C105.395 163.169 104.512 157.139 102.856 152.259L101.916 152.577ZM97.731 173.6C97.731 165.7 99.7165 158.372 102.823 152.655L101.95 152.181C98.7628 158.047 96.7382 165.54 96.7382 173.6H97.731ZM83.2967 202.516C74.9257 198.195 68.7952 186.223 68.7952 171.986H67.8023C67.8023 186.436 74.0193 198.844 82.8413 203.398L83.2967 202.516ZM83.0003 202.466C82.1841 202.58 81.3557 202.638 80.5169 202.638V203.631C81.4019 203.631 82.2763 203.569 83.1377 203.449L83.0003 202.466ZM91.8196 198.799C89.1382 200.75 86.1572 202.024 83.0003 202.466L83.1377 203.449C86.4726 202.983 89.6048 201.639 92.4038 199.602L91.8196 198.799ZM92.5007 198.892C87.8595 193.037 84.812 183.548 84.812 172.793H83.8191C83.8191 183.71 86.9079 193.435 91.7227 199.509L92.5007 198.892ZM104.403 170.373C104.403 177.775 102.555 184.587 99.458 190.024L100.321 190.515C103.508 184.92 105.395 177.937 105.395 170.373H104.403ZM99.458 190.024C97.4005 193.635 94.7951 196.634 91.8196 198.799L92.4038 199.602C95.5077 197.343 98.203 194.232 100.321 190.515L99.458 190.024ZM100.359 190.107C98.6912 185.279 97.731 179.635 97.731 173.6H96.7382C96.7382 179.738 97.7142 185.492 99.4201 190.431L100.359 190.107Z"
        fill="black"
    />
    <defs>
        <linearGradient id="paint0_linear_233_5792" x1="152.842" y1="92.8257" x2="205.798" y2="107.823" gradientUnits="userSpaceOnUse">
            <stop stop-color="#D6FFBB" />
            <stop offset="1" stop-color="#5869DD" />
        </linearGradient>
        <linearGradient id="paint1_linear_233_5792" x1="152.842" y1="92.8257" x2="200.338" y2="92.8257" gradientUnits="userSpaceOnUse">
            <stop stop-color="#D6FFBB" />
            <stop offset="1" stop-color="#5869DD" />
        </linearGradient>
        <linearGradient id="paint2_linear_233_5792" x1="162.61" y1="98.6389" x2="202.571" y2="102.114" gradientUnits="userSpaceOnUse">
            <stop stop-color="#D6FFBB" />
            <stop offset="1" stop-color="#5869DD" />
        </linearGradient>
        <linearGradient id="paint3_linear_233_5792" x1="170.056" y1="94.6675" x2="210.762" y2="94.9157" gradientUnits="userSpaceOnUse">
            <stop stop-color="#D6FFBB" />
            <stop offset="0.954791" stop-color="#5869DD" />
        </linearGradient>
        <linearGradient id="paint4_linear_233_5792" x1="158.389" y1="99.3307" x2="164.386" y2="113.186" gradientUnits="userSpaceOnUse">
            <stop stop-color="#D6FFBB" />
            <stop offset="1" stop-color="#5869DD" />
        </linearGradient>
        <linearGradient id="paint5_linear_233_5792" x1="235.331" y1="163.669" x2="170.551" y2="129.416" gradientUnits="userSpaceOnUse">
            <stop offset="0.438457" stop-color="#D6FFBB" />
            <stop offset="1" stop-color="#5869DD" />
        </linearGradient>
        <linearGradient id="paint6_linear_233_5792" x1="132.93" y1="171.149" x2="235.331" y2="219.02" gradientUnits="userSpaceOnUse">
            <stop offset="0.443377" stop-color="#D6FFBB" />
            <stop offset="1" stop-color="#5869DD" />
        </linearGradient>
        <linearGradient id="paint7_linear_233_5792" x1="170.055" y1="188.987" x2="196.365" y2="248.061" gradientUnits="userSpaceOnUse">
            <stop stop-color="#D6FFBB" />
            <stop offset="1" stop-color="#5869DD" />
        </linearGradient>
        <linearGradient id="paint8_linear_233_5792" x1="114.704" y1="146.791" x2="107.506" y2="199.908" gradientUnits="userSpaceOnUse">
            <stop stop-color="#D6FFBB" />
            <stop offset="1" stop-color="#5869DD" />
        </linearGradient>
        <linearGradient id="paint9_linear_233_5792" x1="121.406" y1="143.813" x2="124.384" y2="195.937" gradientUnits="userSpaceOnUse">
            <stop stop-color="#D6FFBB" />
            <stop offset="1" stop-color="#5869DD" />
        </linearGradient>
        <linearGradient id="paint10_linear_233_5792" x1="129.349" y1="151.755" x2="130.342" y2="209.588" gradientUnits="userSpaceOnUse">
            <stop stop-color="#D6FFBB" />
            <stop offset="0.66784" stop-color="#5869DD" />
        </linearGradient>
        <linearGradient id="paint11_linear_233_5792" x1="64.651" y1="152.919" x2="108.606" y2="162.702" gradientUnits="userSpaceOnUse">
            <stop stop-color="#D6FFBB" />
            <stop offset="1" stop-color="#5869DD" />
        </linearGradient>
        <linearGradient id="paint12_linear_233_5792" x1="76.9374" y1="151.305" x2="111.545" y2="173.167" gradientUnits="userSpaceOnUse">
            <stop stop-color="#D6FFBB" />
            <stop offset="1" stop-color="#5869DD" />
        </linearGradient>
        <linearGradient id="paint13_linear_233_5792" x1="68.25" y1="137.111" x2="103.458" y2="185.928" gradientUnits="userSpaceOnUse">
            <stop stop-color="#D6FFBB" />
            <stop offset="1" stop-color="#5869DD" />
        </linearGradient>
        <linearGradient id="paint14_linear_233_5792" x1="65.5197" y1="137.111" x2="116.221" y2="183.648" gradientUnits="userSpaceOnUse">
            <stop stop-color="#D6FFBB" />
            <stop offset="1" stop-color="#5869DD" />
        </linearGradient>
    </defs>
</svg>
