<svg xmlns="http://www.w3.org/2000/svg" width="33" height="33" viewBox="0 0 33 33" fill="none">
    <path
        d="M28.5288 0.601562H4.67429C3.59414 0.601563 2.55822 1.03065 1.79444 1.79444C1.03065 2.55822 0.601563 3.59414 0.601562 4.67429V28.5288C0.601563 29.609 1.03065 30.6449 1.79444 31.4087C2.55822 32.1725 3.59414 32.6016 4.67429 32.6016H16.3594V19.2869H13.6965V13.9611H16.3373V11.5543C16.3373 9.37596 17.375 5.97276 21.9416 5.97276L26.0555 5.98927V10.5523H23.068C22.5822 10.5523 21.891 10.7941 21.891 11.8317V13.9615H26.1234L25.6376 19.2873H21.6852V32.6016H28.5288C29.0637 32.6016 29.5933 32.4962 30.0874 32.2915C30.5815 32.0869 31.0305 31.7869 31.4087 31.4087C31.7869 31.0305 32.0869 30.5815 32.2915 30.0874C32.4962 29.5933 32.6016 29.0637 32.6016 28.5288V4.67429C32.6016 4.13945 32.4962 3.60985 32.2915 3.11572C32.0869 2.6216 31.7869 2.17262 31.4087 1.79444C31.0305 1.41625 30.5815 1.11625 30.0874 0.91158C29.5933 0.706907 29.0637 0.601562 28.5288 0.601562Z"
        fill="black"
    />
    <path
        d="M16.3594 19.2869V32.6016H21.6852V19.2873H25.6376L26.1234 13.9615H21.891V11.8317C21.891 10.7941 22.5822 10.5523 23.068 10.5523H26.0555V5.98927L21.9416 5.97276C17.375 5.97276 16.3373 9.37596 16.3373 11.5543V13.9611H13.6965V19.2869H16.3594Z"
        fill="#F1EFED"
    />
</svg>
