<svg xmlns="http://www.w3.org/2000/svg" width="202" height="202" viewBox="0 0 202 202" fill="none">
    <circle cx="101" cy="101" r="100" fill="#F1EFED" stroke="#8F8E93" stroke-width="2" />
    <circle cx="100.5" cy="100.5" r="93.5" fill="#F1EFED" stroke="#8F8E93" stroke-width="1.8" stroke-dasharray="2.83 2.83" />
    <path d="M101 10C50.7421 10 10 50.7421 10 101H192C192 50.7421 151.258 10 101 10Z" fill="#8F8E93" />
    <path
        d="M64.49 114V121H63.16V119.95C62.8707 120.323 62.5207 120.617 62.11 120.832C61.6993 121.037 61.2607 121.14 60.794 121.14C60.178 121.14 59.618 120.986 59.114 120.678C58.61 120.361 58.2133 119.927 57.924 119.376C57.6347 118.825 57.49 118.2 57.49 117.5C57.49 116.8 57.6347 116.175 57.924 115.624C58.2133 115.073 58.61 114.644 59.114 114.336C59.618 114.019 60.178 113.86 60.794 113.86C61.2793 113.86 61.732 113.972 62.152 114.196C62.572 114.42 62.9313 114.733 63.23 115.134V114H64.49ZM61.018 119.908C61.4287 119.908 61.802 119.805 62.138 119.6C62.474 119.395 62.7353 119.11 62.922 118.746C63.1087 118.373 63.202 117.957 63.202 117.5C63.202 117.043 63.1087 116.632 62.922 116.268C62.7353 115.895 62.474 115.605 62.138 115.4C61.802 115.195 61.4287 115.092 61.018 115.092C60.6073 115.092 60.2387 115.195 59.912 115.4C59.5853 115.605 59.3287 115.895 59.142 116.268C58.9553 116.632 58.862 117.043 58.862 117.5C58.862 117.957 58.9553 118.373 59.142 118.746C59.3287 119.11 59.5853 119.395 59.912 119.6C60.2387 119.805 60.6073 119.908 61.018 119.908ZM66.2433 117.5C66.2433 116.828 66.4066 116.217 66.7333 115.666C67.0599 115.106 67.5079 114.667 68.0773 114.35C68.6466 114.023 69.2766 113.86 69.9673 113.86C70.7419 113.86 71.4373 114.089 72.0533 114.546C72.6786 114.994 73.0893 115.582 73.2853 116.31H71.8293C71.6706 115.937 71.4139 115.643 71.0593 115.428C70.7139 115.204 70.3266 115.092 69.8973 115.092C69.4586 115.092 69.0666 115.199 68.7213 115.414C68.3759 115.619 68.1053 115.909 67.9093 116.282C67.7133 116.646 67.6153 117.052 67.6153 117.5C67.6153 117.948 67.7133 118.359 67.9093 118.732C68.1053 119.096 68.3759 119.385 68.7213 119.6C69.0666 119.805 69.4586 119.908 69.8973 119.908C70.3266 119.908 70.7139 119.801 71.0593 119.586C71.4139 119.362 71.6706 119.063 71.8293 118.69H73.2853C73.0893 119.418 72.6786 120.011 72.0533 120.468C71.4373 120.916 70.7419 121.14 69.9673 121.14C69.2766 121.14 68.6466 120.981 68.0773 120.664C67.5079 120.337 67.0599 119.899 66.7333 119.348C66.4066 118.788 66.2433 118.172 66.2433 117.5ZM74.3403 117.5C74.3403 116.828 74.5036 116.217 74.8303 115.666C75.157 115.106 75.605 114.667 76.1743 114.35C76.7436 114.023 77.3736 113.86 78.0643 113.86C78.839 113.86 79.5343 114.089 80.1503 114.546C80.7756 114.994 81.1863 115.582 81.3823 116.31H79.9263C79.7676 115.937 79.511 115.643 79.1563 115.428C78.811 115.204 78.4236 115.092 77.9943 115.092C77.5556 115.092 77.1636 115.199 76.8183 115.414C76.473 115.619 76.2023 115.909 76.0063 116.282C75.8103 116.646 75.7123 117.052 75.7123 117.5C75.7123 117.948 75.8103 118.359 76.0063 118.732C76.2023 119.096 76.473 119.385 76.8183 119.6C77.1636 119.805 77.5556 119.908 77.9943 119.908C78.4236 119.908 78.811 119.801 79.1563 119.586C79.511 119.362 79.7676 119.063 79.9263 118.69H81.3823C81.1863 119.418 80.7756 120.011 80.1503 120.468C79.5343 120.916 78.839 121.14 78.0643 121.14C77.3736 121.14 76.7436 120.981 76.1743 120.664C75.605 120.337 75.157 119.899 74.8303 119.348C74.5036 118.788 74.3403 118.172 74.3403 117.5ZM86.1613 121.14C85.4707 121.14 84.8407 120.981 84.2713 120.664C83.702 120.337 83.254 119.899 82.9273 119.348C82.6007 118.788 82.4373 118.172 82.4373 117.5C82.4373 116.828 82.6007 116.217 82.9273 115.666C83.254 115.106 83.702 114.667 84.2713 114.35C84.8407 114.023 85.4707 113.86 86.1613 113.86C86.8427 113.86 87.4633 114.023 88.0233 114.35C88.5927 114.667 89.0407 115.106 89.3673 115.666C89.694 116.217 89.8573 116.828 89.8573 117.5C89.8573 118.172 89.694 118.788 89.3673 119.348C89.0407 119.899 88.5927 120.337 88.0233 120.664C87.4633 120.981 86.8427 121.14 86.1613 121.14ZM86.1613 119.908C86.5907 119.908 86.9827 119.805 87.3373 119.6C87.692 119.385 87.972 119.096 88.1773 118.732C88.3827 118.359 88.4853 117.948 88.4853 117.5C88.4853 117.052 88.3827 116.646 88.1773 116.282C87.972 115.909 87.692 115.619 87.3373 115.414C86.9827 115.199 86.5907 115.092 86.1613 115.092C85.7227 115.092 85.3213 115.199 84.9573 115.414C84.6027 115.619 84.3227 115.909 84.1173 116.282C83.912 116.646 83.8093 117.052 83.8093 117.5C83.8093 117.948 83.912 118.359 84.1173 118.732C84.3227 119.096 84.6027 119.385 84.9573 119.6C85.3213 119.805 85.7227 119.908 86.1613 119.908ZM95.1719 113.86C95.3959 113.86 95.6059 113.874 95.8019 113.902V115.204C95.6339 115.167 95.3679 115.148 95.0039 115.148C94.5932 115.148 94.2292 115.241 93.9119 115.428C93.6039 115.615 93.3612 115.867 93.1839 116.184C93.0159 116.492 92.9319 116.833 92.9319 117.206V121H91.6019V114H92.8619V115.078C93.1232 114.705 93.4545 114.411 93.8559 114.196C94.2665 113.972 94.7052 113.86 95.1719 113.86ZM103.294 111.13V121H101.964V119.95C101.674 120.323 101.324 120.617 100.914 120.832C100.503 121.037 100.064 121.14 99.5975 121.14C98.9815 121.14 98.4215 120.986 97.9175 120.678C97.4135 120.361 97.0168 119.927 96.7275 119.376C96.4382 118.825 96.2935 118.2 96.2935 117.5C96.2935 116.8 96.4382 116.175 96.7275 115.624C97.0168 115.073 97.4135 114.644 97.9175 114.336C98.4215 114.019 98.9815 113.86 99.5975 113.86C100.083 113.86 100.536 113.972 100.956 114.196C101.376 114.42 101.735 114.733 102.034 115.134V111.13H103.294ZM99.8215 119.908C100.232 119.908 100.606 119.805 100.942 119.6C101.278 119.395 101.539 119.11 101.726 118.746C101.912 118.373 102.006 117.957 102.006 117.5C102.006 117.043 101.912 116.632 101.726 116.268C101.539 115.895 101.278 115.605 100.942 115.4C100.606 115.195 100.232 115.092 99.8215 115.092C99.4108 115.092 99.0422 115.195 98.7155 115.4C98.3888 115.605 98.1322 115.895 97.9455 116.268C97.7588 116.632 97.6655 117.043 97.6655 117.5C97.6655 117.957 97.7588 118.373 97.9455 118.746C98.1322 119.11 98.3888 119.395 98.7155 119.6C99.0422 119.805 99.4108 119.908 99.8215 119.908ZM107.007 114V121H105.677V114H107.007ZM107.091 111.2V112.74H105.607V111.2H107.091ZM112.955 113.86C113.524 113.86 114.033 113.981 114.481 114.224C114.938 114.467 115.298 114.835 115.559 115.33C115.83 115.815 115.965 116.413 115.965 117.122V121H114.635V117.15C114.635 116.534 114.453 116.044 114.089 115.68C113.725 115.316 113.268 115.134 112.717 115.134C112.316 115.134 111.961 115.232 111.653 115.428C111.354 115.615 111.121 115.871 110.953 116.198C110.794 116.525 110.715 116.879 110.715 117.262V121H109.385V114H110.645V115.12C110.906 114.737 111.238 114.434 111.639 114.21C112.05 113.977 112.488 113.86 112.955 113.86ZM124.577 117.192C124.577 117.789 124.437 118.331 124.157 118.816C123.877 119.301 123.457 119.679 122.897 119.95C123.345 120.081 123.671 120.277 123.877 120.538C124.091 120.799 124.199 121.107 124.199 121.462C124.199 122.022 123.993 122.479 123.583 122.834C123.181 123.198 122.659 123.38 122.015 123.38H120.153C119.518 123.38 118.995 123.207 118.585 122.862C118.174 122.517 117.969 122.073 117.969 121.532C117.969 120.785 118.398 120.263 119.257 119.964C118.725 119.731 118.309 119.357 118.011 118.844C117.721 118.331 117.577 117.78 117.577 117.192C117.577 116.585 117.726 116.035 118.025 115.54C118.333 115.036 118.753 114.639 119.285 114.35C119.817 114.061 120.4 113.916 121.035 113.916C121.931 113.916 122.691 114.261 123.317 114.952V113.986H124.577V117.192ZM121.077 119.432C121.497 119.432 121.875 119.334 122.211 119.138C122.547 118.942 122.808 118.676 122.995 118.34C123.191 118.004 123.289 117.626 123.289 117.206C123.289 116.795 123.191 116.427 122.995 116.1C122.808 115.773 122.547 115.517 122.211 115.33C121.875 115.143 121.497 115.05 121.077 115.05C120.451 115.05 119.933 115.255 119.523 115.666C119.121 116.067 118.921 116.581 118.921 117.206C118.921 117.841 119.121 118.368 119.523 118.788C119.933 119.208 120.451 119.423 121.077 119.432ZM121.903 122.316C122.201 122.316 122.449 122.237 122.645 122.078C122.85 121.919 122.953 121.723 122.953 121.49C122.953 121.238 122.855 121.028 122.659 120.86C122.463 120.692 122.211 120.608 121.903 120.608H120.251C119.943 120.608 119.691 120.692 119.495 120.86C119.299 121.028 119.201 121.238 119.201 121.49C119.201 121.723 119.299 121.919 119.495 122.078C119.7 122.237 119.952 122.316 120.251 122.316H121.903ZM132.487 115.26V118.956C132.487 119.255 132.557 119.483 132.697 119.642C132.846 119.801 133.098 119.88 133.453 119.88C133.789 119.88 134.073 119.852 134.307 119.796V121.014C134.055 121.098 133.747 121.14 133.383 121.14C131.899 121.14 131.157 120.412 131.157 118.956V115.26H129.757V114H131.157V112.18H132.487V114H134.447V115.26H132.487ZM139.084 121.14C138.393 121.14 137.763 120.981 137.194 120.664C136.625 120.337 136.177 119.899 135.85 119.348C135.523 118.788 135.36 118.172 135.36 117.5C135.36 116.828 135.523 116.217 135.85 115.666C136.177 115.106 136.625 114.667 137.194 114.35C137.763 114.023 138.393 113.86 139.084 113.86C139.765 113.86 140.386 114.023 140.946 114.35C141.515 114.667 141.963 115.106 142.29 115.666C142.617 116.217 142.78 116.828 142.78 117.5C142.78 118.172 142.617 118.788 142.29 119.348C141.963 119.899 141.515 120.337 140.946 120.664C140.386 120.981 139.765 121.14 139.084 121.14ZM139.084 119.908C139.513 119.908 139.905 119.805 140.26 119.6C140.615 119.385 140.895 119.096 141.1 118.732C141.305 118.359 141.408 117.948 141.408 117.5C141.408 117.052 141.305 116.646 141.1 116.282C140.895 115.909 140.615 115.619 140.26 115.414C139.905 115.199 139.513 115.092 139.084 115.092C138.645 115.092 138.244 115.199 137.88 115.414C137.525 115.619 137.245 115.909 137.04 116.282C136.835 116.646 136.732 117.052 136.732 117.5C136.732 117.948 136.835 118.359 137.04 118.732C137.245 119.096 137.525 119.385 137.88 119.6C138.244 119.805 138.645 119.908 139.084 119.908Z"
        fill="#8F8E93"
    />
    <path opacity="0.5" d="M38 126L163 126" stroke="#8F8E93" stroke-width="0.5" />
    <path d="M77.4936 135H81.827V162H77.4936V135Z" fill="#8F8E93" />
    <path
        d="M96.9 153.444C96.9 157.627 93.5086 158.007 92.3781 158.007C89.7404 158.007 89.3635 155.535 89.3635 154.204V143.747H85.0301V154.014C85.0301 156.486 85.7837 158.768 87.291 160.098C88.6099 161.429 90.3056 162 92.3781 162C93.8854 162 95.7696 161.62 96.9 160.479V162H101.234V143.747H96.9V153.444Z"
        fill="#8F8E93"
    />
    <path d="M110.506 137.092H106.172V143.747H102.969V147.93H106.172V162H110.506V147.93H113.709V143.747H110.506V137.092Z" fill="#8F8E93" />
    <path
        d="M127.275 156.486C126.333 157.246 125.014 157.817 123.695 157.817C120.68 157.817 118.608 155.535 118.608 152.493C118.608 149.451 120.68 147.359 123.695 147.359C125.014 147.359 126.333 147.739 127.275 148.69L127.84 149.261L130.854 146.408L130.101 145.838C128.405 144.317 126.144 143.366 123.695 143.366C118.419 143.366 114.463 147.359 114.463 152.683C114.463 158.007 118.419 162 123.695 162C126.144 162 128.405 161.049 130.101 159.528L130.854 158.958L127.84 155.915L127.275 156.486Z"
        fill="#8F8E93"
    />
    <path
        d="M146.116 145.267C144.797 143.937 143.478 143.366 141.406 143.366C139.898 143.366 138.391 143.746 137.26 144.887V135H132.927V162H137.26V151.922C137.26 147.739 140.087 147.359 141.217 147.359C143.855 147.359 143.667 149.831 143.667 151.162V161.81H148V151.352C148 148.88 147.435 146.598 146.116 145.267Z"
        fill="#8F8E93"
    />
    <path
        d="M123.506 155.725C125.171 155.725 126.521 154.363 126.521 152.683C126.521 151.003 125.171 149.641 123.506 149.641C121.841 149.641 120.492 151.003 120.492 152.683C120.492 154.363 121.841 155.725 123.506 155.725Z"
        fill="#8F8E93"
    />
    <path
        d="M71.4644 155.345C69.9571 156.866 67.6961 157.817 65.2468 157.817C60.5365 157.817 57.1451 154.014 57.1451 148.88C57.1451 143.746 60.5365 139.944 65.4352 139.944C67.6961 139.944 69.9571 140.894 71.6528 142.606L72.218 143.176L75.0442 140.324L74.479 139.754C72.0296 137.282 68.8266 135.951 65.4352 135.951C58.2755 135.761 53 141.465 53 148.88C53 156.296 58.2755 162 65.2468 162C68.6382 162 72.0296 160.669 74.2906 158.197L74.8558 157.627L72.0296 154.775L71.4644 155.345Z"
        fill="#8F8E93"
    />
    <path
        d="M23.6356 79.84C24.3396 79.84 24.9796 80.0213 25.5556 80.384C26.1316 80.736 26.5849 81.2267 26.9156 81.856C27.2462 82.4853 27.4116 83.2 27.4116 84C27.4116 84.8 27.2462 85.5147 26.9156 86.144C26.5849 86.7733 26.1316 87.2693 25.5556 87.632C24.9796 87.984 24.3396 88.16 23.6356 88.16C23.1022 88.16 22.6009 88.0427 22.1316 87.808C21.6622 87.5627 21.2622 87.2267 20.9316 86.8V88H19.4116V76.72H20.8516V81.296C21.1929 80.8373 21.6036 80.48 22.0836 80.224C22.5636 79.968 23.0809 79.84 23.6356 79.84ZM23.3796 86.752C23.8489 86.752 24.2702 86.6347 24.6436 86.4C25.0169 86.1653 25.3102 85.84 25.5236 85.424C25.7369 84.9973 25.8436 84.5227 25.8436 84C25.8436 83.4773 25.7369 83.008 25.5236 82.592C25.3102 82.1653 25.0169 81.8347 24.6436 81.6C24.2702 81.3653 23.8489 81.248 23.3796 81.248C22.9102 81.248 22.4836 81.3653 22.0996 81.6C21.7156 81.8347 21.4169 82.1653 21.2036 82.592C20.9902 83.008 20.8836 83.4773 20.8836 84C20.8836 84.5227 20.9902 84.9973 21.2036 85.424C21.4169 85.84 21.7156 86.1653 22.0996 86.4C22.4836 86.6347 22.9102 86.752 23.3796 86.752ZM31.0953 76.72V88H29.5753V76.72H31.0953ZM37.5094 88.16C36.7201 88.16 36.0001 87.9787 35.3494 87.616C34.6988 87.2427 34.1868 86.7413 33.8134 86.112C33.4401 85.472 33.2534 84.768 33.2534 84C33.2534 83.232 33.4401 82.5333 33.8134 81.904C34.1868 81.264 34.6988 80.7627 35.3494 80.4C36.0001 80.0267 36.7201 79.84 37.5094 79.84C38.2881 79.84 38.9974 80.0267 39.6374 80.4C40.2881 80.7627 40.8001 81.264 41.1734 81.904C41.5468 82.5333 41.7334 83.232 41.7334 84C41.7334 84.768 41.5468 85.472 41.1734 86.112C40.8001 86.7413 40.2881 87.2427 39.6374 87.616C38.9974 87.9787 38.2881 88.16 37.5094 88.16ZM37.5094 86.752C38.0001 86.752 38.4481 86.6347 38.8534 86.4C39.2588 86.1547 39.5788 85.824 39.8134 85.408C40.0481 84.9813 40.1654 84.512 40.1654 84C40.1654 83.488 40.0481 83.024 39.8134 82.608C39.5788 82.1813 39.2588 81.8507 38.8534 81.616C38.4481 81.3707 38.0001 81.248 37.5094 81.248C37.0081 81.248 36.5494 81.3707 36.1334 81.616C35.7281 81.8507 35.4081 82.1813 35.1734 82.608C34.9388 83.024 34.8214 83.488 34.8214 84C34.8214 84.512 34.9388 84.9813 35.1734 85.408C35.4081 85.824 35.7281 86.1547 36.1334 86.4C36.5494 86.6347 37.0081 86.752 37.5094 86.752ZM43.2453 84C43.2453 83.232 43.432 82.5333 43.8053 81.904C44.1786 81.264 44.6906 80.7627 45.3413 80.4C45.992 80.0267 46.712 79.84 47.5013 79.84C48.3866 79.84 49.1813 80.1013 49.8853 80.624C50.6 81.136 51.0693 81.808 51.2933 82.64H49.6293C49.448 82.2133 49.1546 81.8773 48.7493 81.632C48.3546 81.376 47.912 81.248 47.4213 81.248C46.92 81.248 46.472 81.3707 46.0773 81.616C45.6826 81.8507 45.3733 82.1813 45.1493 82.608C44.9253 83.024 44.8133 83.488 44.8133 84C44.8133 84.512 44.9253 84.9813 45.1493 85.408C45.3733 85.824 45.6826 86.1547 46.0773 86.4C46.472 86.6347 46.92 86.752 47.4213 86.752C47.912 86.752 48.3546 86.6293 48.7493 86.384C49.1546 86.128 49.448 85.7867 49.6293 85.36H51.2933C51.0693 86.192 50.6 86.8693 49.8853 87.392C49.1813 87.904 48.3866 88.16 47.5013 88.16C46.712 88.16 45.992 87.9787 45.3413 87.616C44.6906 87.2427 44.1786 86.7413 43.8053 86.112C43.432 85.472 43.2453 84.768 43.2453 84ZM55.9249 84.288L54.8209 85.312V88H53.3009V76.72H54.8209V83.552L58.5489 80H60.5649L57.0609 83.232L60.9009 88H58.8689L55.9249 84.288ZM61.3697 84C61.3697 83.232 61.5564 82.5333 61.9297 81.904C62.303 81.264 62.815 80.7627 63.4657 80.4C64.1164 80.0267 64.8364 79.84 65.6257 79.84C66.511 79.84 67.3057 80.1013 68.0097 80.624C68.7244 81.136 69.1937 81.808 69.4177 82.64H67.7537C67.5724 82.2133 67.279 81.8773 66.8737 81.632C66.479 81.376 66.0364 81.248 65.5457 81.248C65.0444 81.248 64.5964 81.3707 64.2017 81.616C63.807 81.8507 63.4977 82.1813 63.2737 82.608C63.0497 83.024 62.9377 83.488 62.9377 84C62.9377 84.512 63.0497 84.9813 63.2737 85.408C63.4977 85.824 63.807 86.1547 64.2017 86.4C64.5964 86.6347 65.0444 86.752 65.5457 86.752C66.0364 86.752 66.479 86.6293 66.8737 86.384C67.279 86.128 67.5724 85.7867 67.7537 85.36H69.4177C69.1937 86.192 68.7244 86.8693 68.0097 87.392C67.3057 87.904 66.511 88.16 65.6257 88.16C64.8364 88.16 64.1164 87.9787 63.4657 87.616C62.815 87.2427 62.303 86.7413 61.9297 86.112C61.5564 85.472 61.3697 84.768 61.3697 84ZM75.3933 79.84C76.0653 79.84 76.668 79.9787 77.2013 80.256C77.7453 80.5333 78.172 80.9547 78.4813 81.52C78.7906 82.0747 78.9453 82.7573 78.9453 83.568V88H77.4253V83.6C77.4253 82.896 77.2173 82.336 76.8013 81.92C76.3853 81.504 75.8626 81.296 75.2333 81.296C74.8066 81.296 74.4173 81.408 74.0653 81.632C73.7133 81.856 73.436 82.16 73.2333 82.544C73.0413 82.9173 72.9453 83.3227 72.9453 83.76V88H71.4253V76.72H72.8653V81.072C73.1746 80.6987 73.5533 80.4 74.0013 80.176C74.4493 79.952 74.9133 79.84 75.3933 79.84ZM88.9472 80V88H87.4272V86.8C87.0965 87.2267 86.6965 87.5627 86.2272 87.808C85.7579 88.0427 85.2565 88.16 84.7232 88.16C84.0192 88.16 83.3792 87.984 82.8032 87.632C82.2272 87.2693 81.7739 86.7733 81.4432 86.144C81.1125 85.5147 80.9472 84.8 80.9472 84C80.9472 83.2 81.1125 82.4853 81.4432 81.856C81.7739 81.2267 82.2272 80.736 82.8032 80.384C83.3792 80.0213 84.0192 79.84 84.7232 79.84C85.2779 79.84 85.7952 79.968 86.2752 80.224C86.7552 80.48 87.1659 80.8373 87.5072 81.296V80H88.9472ZM84.9792 86.752C85.4485 86.752 85.8752 86.6347 86.2592 86.4C86.6432 86.1653 86.9419 85.84 87.1552 85.424C87.3685 84.9973 87.4752 84.5227 87.4752 84C87.4752 83.4773 87.3685 83.008 87.1552 82.592C86.9419 82.1653 86.6432 81.8347 86.2592 81.6C85.8752 81.3653 85.4485 81.248 84.9792 81.248C84.5099 81.248 84.0885 81.3653 83.7152 81.6C83.3419 81.8347 83.0485 82.1653 82.8352 82.592C82.6219 83.008 82.5152 83.4773 82.5152 84C82.5152 84.5227 82.6219 84.9973 82.8352 85.424C83.0485 85.84 83.3419 86.1653 83.7152 86.4C84.0885 86.6347 84.5099 86.752 84.9792 86.752ZM93.3509 80V88H91.8309V80H93.3509ZM93.4469 76.8V78.56H91.7509V76.8H93.4469ZM100.309 79.84C100.96 79.84 101.541 79.9787 102.053 80.256C102.576 80.5333 102.986 80.9547 103.285 81.52C103.594 82.0747 103.749 82.7573 103.749 83.568V88H102.229V83.6C102.229 82.896 102.021 82.336 101.605 81.92C101.189 81.504 100.666 81.296 100.037 81.296C99.5784 81.296 99.1731 81.408 98.8211 81.632C98.4797 81.8453 98.2131 82.1387 98.0211 82.512C97.8397 82.8853 97.7491 83.2907 97.7491 83.728V88H96.2291V80H97.6691V81.28C97.9677 80.8427 98.3464 80.496 98.8051 80.24C99.2744 79.9733 99.7757 79.84 100.309 79.84ZM110.555 84C110.555 83.232 110.742 82.5333 111.115 81.904C111.489 81.264 112.001 80.7627 112.651 80.4C113.302 80.0267 114.022 79.84 114.811 79.84C115.697 79.84 116.491 80.1013 117.195 80.624C117.91 81.136 118.379 81.808 118.603 82.64H116.939C116.758 82.2133 116.465 81.8773 116.059 81.632C115.665 81.376 115.222 81.248 114.731 81.248C114.23 81.248 113.782 81.3707 113.387 81.616C112.993 81.8507 112.683 82.1813 112.459 82.608C112.235 83.024 112.123 83.488 112.123 84C112.123 84.512 112.235 84.9813 112.459 85.408C112.683 85.824 112.993 86.1547 113.387 86.4C113.782 86.6347 114.23 86.752 114.731 86.752C115.222 86.752 115.665 86.6293 116.059 86.384C116.465 86.128 116.758 85.7867 116.939 85.36H118.603C118.379 86.192 117.91 86.8693 117.195 87.392C116.491 87.904 115.697 88.16 114.811 88.16C114.022 88.16 113.302 87.9787 112.651 87.616C112.001 87.2427 111.489 86.7413 111.115 86.112C110.742 85.472 110.555 84.768 110.555 84ZM124.225 88.16C123.436 88.16 122.716 87.9787 122.065 87.616C121.414 87.2427 120.902 86.7413 120.529 86.112C120.156 85.472 119.969 84.768 119.969 84C119.969 83.232 120.156 82.5333 120.529 81.904C120.902 81.264 121.414 80.7627 122.065 80.4C122.716 80.0267 123.436 79.84 124.225 79.84C125.004 79.84 125.713 80.0267 126.353 80.4C127.004 80.7627 127.516 81.264 127.889 81.904C128.262 82.5333 128.449 83.232 128.449 84C128.449 84.768 128.262 85.472 127.889 86.112C127.516 86.7413 127.004 87.2427 126.353 87.616C125.713 87.9787 125.004 88.16 124.225 88.16ZM124.225 86.752C124.716 86.752 125.164 86.6347 125.569 86.4C125.974 86.1547 126.294 85.824 126.529 85.408C126.764 84.9813 126.881 84.512 126.881 84C126.881 83.488 126.764 83.024 126.529 82.608C126.294 82.1813 125.974 81.8507 125.569 81.616C125.164 81.3707 124.716 81.248 124.225 81.248C123.724 81.248 123.265 81.3707 122.849 81.616C122.444 81.8507 122.124 82.1813 121.889 82.608C121.654 83.024 121.537 83.488 121.537 84C121.537 84.512 121.654 84.9813 121.889 85.408C122.124 85.824 122.444 86.1547 122.849 86.4C123.265 86.6347 123.724 86.752 124.225 86.752ZM140.443 79.84C141.083 79.84 141.653 79.9787 142.155 80.256C142.667 80.5333 143.067 80.9547 143.355 81.52C143.653 82.0747 143.803 82.7573 143.803 83.568V88H142.283V83.6C142.283 82.896 142.08 82.336 141.675 81.92C141.28 81.504 140.779 81.296 140.171 81.296C139.509 81.296 138.976 81.5307 138.571 82C138.165 82.4693 137.963 83.0453 137.963 83.728V88H136.443V83.6C136.443 82.896 136.24 82.336 135.835 81.92C135.44 81.504 134.939 81.296 134.331 81.296C133.669 81.296 133.136 81.5307 132.731 82C132.325 82.4693 132.123 83.0453 132.123 83.728V88H130.603V80H132.043V81.264C132.331 80.8267 132.699 80.48 133.147 80.224C133.605 79.968 134.091 79.84 134.603 79.84C135.232 79.84 135.797 79.9787 136.299 80.256C136.811 80.5227 137.205 80.9227 137.483 81.456C137.792 80.9653 138.208 80.576 138.731 80.288C139.264 79.9893 139.835 79.84 140.443 79.84ZM150.741 79.84C151.445 79.84 152.085 80.0213 152.661 80.384C153.237 80.736 153.69 81.2267 154.021 81.856C154.351 82.4853 154.517 83.2 154.517 84C154.517 84.8 154.351 85.5147 154.021 86.144C153.69 86.7733 153.237 87.2693 152.661 87.632C152.085 87.984 151.445 88.16 150.741 88.16C150.207 88.16 149.706 88.0427 149.237 87.808C148.767 87.5627 148.367 87.2267 148.037 86.8V90.72H146.517V80H147.957V81.296C148.298 80.8373 148.709 80.48 149.189 80.224C149.669 79.968 150.186 79.84 150.741 79.84ZM150.485 86.752C150.954 86.752 151.375 86.6347 151.749 86.4C152.122 86.1653 152.415 85.84 152.629 85.424C152.842 84.9973 152.949 84.5227 152.949 84C152.949 83.4773 152.842 83.008 152.629 82.592C152.415 82.1653 152.122 81.8347 151.749 81.6C151.375 81.3653 150.954 81.248 150.485 81.248C150.015 81.248 149.589 81.3653 149.205 81.6C148.821 81.8347 148.522 82.1653 148.309 82.592C148.095 83.008 147.989 83.4773 147.989 84C147.989 84.5227 148.095 84.9973 148.309 85.424C148.522 85.84 148.821 86.1653 149.205 86.4C149.589 86.6347 150.015 86.752 150.485 86.752ZM164.038 80V88H162.518V86.8C162.188 87.2267 161.788 87.5627 161.318 87.808C160.849 88.0427 160.348 88.16 159.814 88.16C159.11 88.16 158.47 87.984 157.894 87.632C157.318 87.2693 156.865 86.7733 156.534 86.144C156.204 85.5147 156.038 84.8 156.038 84C156.038 83.2 156.204 82.4853 156.534 81.856C156.865 81.2267 157.318 80.736 157.894 80.384C158.47 80.0213 159.11 79.84 159.814 79.84C160.369 79.84 160.886 79.968 161.366 80.224C161.846 80.48 162.257 80.8373 162.598 81.296V80H164.038ZM160.07 86.752C160.54 86.752 160.966 86.6347 161.35 86.4C161.734 86.1653 162.033 85.84 162.246 85.424C162.46 84.9973 162.566 84.5227 162.566 84C162.566 83.4773 162.46 83.008 162.246 82.592C162.033 82.1653 161.734 81.8347 161.35 81.6C160.966 81.3653 160.54 81.248 160.07 81.248C159.601 81.248 159.18 81.3653 158.806 81.6C158.433 81.8347 158.14 82.1653 157.926 82.592C157.713 83.008 157.606 83.4773 157.606 84C157.606 84.5227 157.713 84.9973 157.926 85.424C158.14 85.84 158.433 86.1653 158.806 86.4C159.18 86.6347 159.601 86.752 160.07 86.752ZM171.002 79.84C171.653 79.84 172.234 79.9787 172.746 80.256C173.269 80.5333 173.68 80.9547 173.978 81.52C174.288 82.0747 174.442 82.7573 174.442 83.568V88H172.922V83.6C172.922 82.896 172.714 82.336 172.298 81.92C171.882 81.504 171.36 81.296 170.73 81.296C170.272 81.296 169.866 81.408 169.514 81.632C169.173 81.8453 168.906 82.1387 168.714 82.512C168.533 82.8853 168.442 83.2907 168.442 83.728V88H166.922V80H168.362V81.28C168.661 80.8427 169.04 80.496 169.498 80.24C169.968 79.9733 170.469 79.84 171.002 79.84ZM184.708 80L180.02 90.72H178.372L179.636 87.856L175.732 80H177.54L180.436 86.24L183.028 80H184.708Z"
        fill="#F1EFED"
    />
    <path
        d="M71.76 48.504H65.76V63H63.36V48.504H57.36V46.2H71.76V48.504ZM81.9619 63.24C80.3459 63.24 78.8659 62.864 77.5219 62.112C76.1779 61.344 75.1219 60.304 74.3539 58.992C73.5859 57.664 73.2019 56.2 73.2019 54.6C73.2019 53 73.5859 51.544 74.3539 50.232C75.1219 48.904 76.1779 47.864 77.5219 47.112C78.8659 46.344 80.3459 45.96 81.9619 45.96C83.5779 45.96 85.0579 46.344 86.4019 47.112C87.7459 47.864 88.8019 48.904 89.5699 50.232C90.3379 51.544 90.7219 53 90.7219 54.6C90.7219 56.2 90.3379 57.664 89.5699 58.992C88.8019 60.304 87.7459 61.344 86.4019 62.112C85.0579 62.864 83.5779 63.24 81.9619 63.24ZM81.9619 60.936C83.1139 60.936 84.1619 60.656 85.1059 60.096C86.0659 59.536 86.8179 58.776 87.3619 57.816C87.9219 56.84 88.2019 55.768 88.2019 54.6C88.2019 53.432 87.9219 52.368 87.3619 51.408C86.8179 50.432 86.0659 49.664 85.1059 49.104C84.1619 48.544 83.1139 48.264 81.9619 48.264C80.8099 48.264 79.7539 48.544 78.7939 49.104C77.8499 49.664 77.0979 50.432 76.5379 51.408C75.9939 52.368 75.7219 53.432 75.7219 54.6C75.7219 55.768 75.9939 56.84 76.5379 57.816C77.0979 58.776 77.8499 59.536 78.7939 60.096C79.7539 60.656 80.8099 60.936 81.9619 60.936ZM102.513 46.2C103.633 46.2 104.593 46.416 105.393 46.848C106.209 47.264 106.825 47.848 107.241 48.6C107.673 49.336 107.889 50.176 107.889 51.12C107.889 52.064 107.673 52.912 107.241 53.664C106.825 54.4 106.209 54.984 105.393 55.416C104.593 55.832 103.633 56.04 102.513 56.04H97.5694V63H95.1694V46.2H102.513ZM102.441 53.808C103.401 53.808 104.129 53.584 104.625 53.136C105.121 52.672 105.369 52 105.369 51.12C105.369 50.24 105.121 49.576 104.625 49.128C104.129 48.68 103.401 48.456 102.441 48.456H97.5694V53.808H102.441ZM118.465 49.344L122.665 46.2H124.465V63H122.065V49.344L118.465 52.008V49.344ZM136.228 63.24C134.788 63.24 133.524 62.888 132.436 62.184C131.348 61.464 130.508 60.456 129.916 59.16C129.324 57.848 129.028 56.328 129.028 54.6C129.028 52.872 129.324 51.36 129.916 50.064C130.508 48.752 131.348 47.744 132.436 47.04C133.524 46.32 134.788 45.96 136.228 45.96C137.668 45.96 138.932 46.32 140.02 47.04C141.108 47.744 141.948 48.752 142.54 50.064C143.132 51.36 143.428 52.872 143.428 54.6C143.428 56.328 143.132 57.848 142.54 59.16C141.948 60.456 141.108 61.464 140.02 62.184C138.932 62.888 137.668 63.24 136.228 63.24ZM136.228 61.008C137.716 61.008 138.884 60.44 139.732 59.304C140.596 58.168 141.028 56.6 141.028 54.6C141.028 52.6 140.596 51.032 139.732 49.896C138.884 48.76 137.716 48.192 136.228 48.192C134.74 48.192 133.564 48.76 132.7 49.896C131.852 51.032 131.428 52.6 131.428 54.6C131.428 56.6 131.852 58.168 132.7 59.304C133.564 60.44 134.74 61.008 136.228 61.008Z"
        fill="#F1EFED"
    />
</svg>
