<svg xmlns="http://www.w3.org/2000/svg" width="202" height="203" viewBox="0 0 202 203" fill="none">
    <path d="M1 1H201V147.667L101 201L1 147.667V1Z" fill="#F1EFED" stroke="#8F8E93" stroke-width="2" />
    <path d="M7 7H194V144.133L100.5 194L7 144.133V7Z" fill="#F1EFED" stroke="#8F8E93" stroke-width="1.8" stroke-dasharray="2.83 2.83" />
    <rect x="1" y="50" width="200" height="56" fill="#8F8E93" />
    <path
        d="M15.6148 74.16C14.6121 74.16 13.7641 73.9253 13.0708 73.456C12.3881 72.976 11.9934 72.3147 11.8868 71.472H13.4068C13.5454 71.9307 13.8014 72.272 14.1748 72.496C14.5588 72.7093 15.0601 72.816 15.6788 72.816C16.2548 72.816 16.7188 72.7253 17.0708 72.544C17.4228 72.352 17.5988 72.1067 17.5988 71.808C17.5988 71.5093 17.4761 71.2747 17.2308 71.104C16.9961 70.9227 16.5534 70.7787 15.9028 70.672L14.9908 70.512C13.0708 70.1707 12.1108 69.3973 12.1108 68.192C12.1108 67.488 12.4201 66.9227 13.0388 66.496C13.6574 66.0587 14.4681 65.84 15.4708 65.84C16.3774 65.84 17.1508 66.0533 17.7908 66.48C18.4308 66.896 18.8361 67.4773 19.0068 68.224H17.3908C17.2628 67.904 17.0174 67.6587 16.6548 67.488C16.2921 67.3067 15.8921 67.216 15.4548 67.216C14.9001 67.216 14.4574 67.3013 14.1268 67.472C13.8068 67.632 13.6468 67.856 13.6468 68.144C13.6468 68.4 13.7694 68.6133 14.0148 68.784C14.2601 68.944 14.6548 69.0667 15.1988 69.152L16.1268 69.312C17.2148 69.4933 17.9828 69.792 18.4308 70.208C18.8788 70.6133 19.1028 71.1467 19.1028 71.808C19.1028 72.512 18.7881 73.0827 18.1588 73.52C17.5401 73.9467 16.6921 74.16 15.6148 74.16ZM24.8735 74.16C24.0842 74.16 23.3642 73.9787 22.7135 73.616C22.0628 73.2427 21.5508 72.7413 21.1775 72.112C20.8042 71.472 20.6175 70.768 20.6175 70C20.6175 69.232 20.8042 68.5333 21.1775 67.904C21.5508 67.264 22.0628 66.7627 22.7135 66.4C23.3642 66.0267 24.0842 65.84 24.8735 65.84C25.6522 65.84 26.3615 66.0267 27.0015 66.4C27.6522 66.7627 28.1642 67.264 28.5375 67.904C28.9108 68.5333 29.0975 69.232 29.0975 70C29.0975 70.768 28.9108 71.472 28.5375 72.112C28.1642 72.7413 27.6522 73.2427 27.0015 73.616C26.3615 73.9787 25.6522 74.16 24.8735 74.16ZM24.8735 72.752C25.3642 72.752 25.8122 72.6347 26.2175 72.4C26.6228 72.1547 26.9428 71.824 27.1775 71.408C27.4122 70.9813 27.5295 70.512 27.5295 70C27.5295 69.488 27.4122 69.024 27.1775 68.608C26.9428 68.1813 26.6228 67.8507 26.2175 67.616C25.8122 67.3707 25.3642 67.248 24.8735 67.248C24.3722 67.248 23.9135 67.3707 23.4975 67.616C23.0922 67.8507 22.7722 68.1813 22.5375 68.608C22.3028 69.024 22.1855 69.488 22.1855 70C22.1855 70.512 22.3028 70.9813 22.5375 71.408C22.7722 71.824 23.0922 72.1547 23.4975 72.4C23.9135 72.6347 24.3722 72.752 24.8735 72.752ZM36.039 67.44H33.255V74H31.735V67.44H30.135V66H31.735V65.136C31.735 64.3147 31.9697 63.696 32.439 63.28C32.919 62.8533 33.623 62.64 34.551 62.64C34.8283 62.64 35.1057 62.656 35.383 62.688C35.6603 62.72 35.8577 62.752 35.975 62.784V64.176C35.6763 64.112 35.2177 64.08 34.599 64.08C34.0977 64.08 33.7457 64.1707 33.543 64.352C33.351 64.5333 33.255 64.7947 33.255 65.136V66H36.039V67.44ZM38.9306 67.44V71.664C38.9306 72.0053 39.016 72.2667 39.1866 72.448C39.368 72.6293 39.6773 72.72 40.1146 72.72C40.52 72.72 40.872 72.688 41.1706 72.624V74.016C40.8613 74.112 40.4933 74.16 40.0666 74.16C39.192 74.16 38.5306 73.952 38.0826 73.536C37.6346 73.1093 37.4106 72.4853 37.4106 71.664V67.44H35.8106V66H37.4106V63.92H38.9306V66H42.9306V67.44H38.9306ZM54.6178 66L52.1858 74H50.3298L48.3458 67.84L46.2978 74H44.4898L42.0738 66H43.7218L45.4338 72.304L47.5298 66H49.2098L51.2738 72.288L52.9858 66H54.6178ZM63.585 66V74H62.065V72.8C61.7343 73.2267 61.3343 73.5627 60.865 73.808C60.3957 74.0427 59.8943 74.16 59.361 74.16C58.657 74.16 58.017 73.984 57.441 73.632C56.865 73.2693 56.4117 72.7733 56.081 72.144C55.7503 71.5147 55.585 70.8 55.585 70C55.585 69.2 55.7503 68.4853 56.081 67.856C56.4117 67.2267 56.865 66.736 57.441 66.384C58.017 66.0213 58.657 65.84 59.361 65.84C59.9157 65.84 60.433 65.968 60.913 66.224C61.393 66.48 61.8037 66.8373 62.145 67.296V66H63.585ZM59.617 72.752C60.0863 72.752 60.513 72.6347 60.897 72.4C61.281 72.1653 61.5797 71.84 61.793 71.424C62.0063 70.9973 62.113 70.5227 62.113 70C62.113 69.4773 62.0063 69.008 61.793 68.592C61.5797 68.1653 61.281 67.8347 60.897 67.6C60.513 67.3653 60.0863 67.248 59.617 67.248C59.1477 67.248 58.7263 67.3653 58.353 67.6C57.9797 67.8347 57.6863 68.1653 57.473 68.592C57.2597 69.008 57.153 69.4773 57.153 70C57.153 70.5227 57.2597 70.9973 57.473 71.424C57.6863 71.84 57.9797 72.1653 58.353 72.4C58.7263 72.6347 59.1477 72.752 59.617 72.752ZM70.5488 65.84C70.8048 65.84 71.0448 65.856 71.2688 65.888V67.376C71.0768 67.3333 70.7728 67.312 70.3568 67.312C69.8874 67.312 69.4714 67.4187 69.1088 67.632C68.7568 67.8453 68.4794 68.1333 68.2768 68.496C68.0848 68.848 67.9888 69.2373 67.9888 69.664V74H66.4688V66H67.9088V67.232C68.2074 66.8053 68.5861 66.4693 69.0448 66.224C69.5141 65.968 70.0154 65.84 70.5488 65.84ZM76.0866 65.84C76.908 65.84 77.6226 66.016 78.2306 66.368C78.8493 66.72 79.324 67.2213 79.6546 67.872C79.9853 68.512 80.1506 69.264 80.1506 70.128C80.1506 70.352 80.1453 70.5173 80.1346 70.624H73.5746C73.6813 71.2427 73.9693 71.7547 74.4386 72.16C74.9186 72.5547 75.4733 72.752 76.1026 72.752C77.1373 72.752 77.8733 72.3733 78.3106 71.616H79.8786C79.6226 72.3627 79.148 72.976 78.4546 73.456C77.7613 73.9253 76.9773 74.16 76.1026 74.16C75.324 74.16 74.62 73.984 73.9906 73.632C73.3613 73.2693 72.8706 72.7733 72.5186 72.144C72.1666 71.504 71.9906 70.7893 71.9906 70C71.9906 69.2107 72.1666 68.5013 72.5186 67.872C72.8706 67.232 73.356 66.736 73.9746 66.384C74.604 66.0213 75.308 65.84 76.0866 65.84ZM76.0546 67.184C75.4253 67.184 74.8813 67.3813 74.4226 67.776C73.9746 68.1707 73.6973 68.6773 73.5906 69.296H78.5026C78.4386 68.656 78.1773 68.144 77.7186 67.76C77.2706 67.376 76.716 67.184 76.0546 67.184ZM94.3963 62.72V74H92.8763V72.8C92.5456 73.2267 92.1456 73.5627 91.6763 73.808C91.2069 74.0427 90.7056 74.16 90.1723 74.16C89.4683 74.16 88.8283 73.984 88.2523 73.632C87.6763 73.2693 87.2229 72.7733 86.8923 72.144C86.5616 71.5147 86.3963 70.8 86.3963 70C86.3963 69.2 86.5616 68.4853 86.8923 67.856C87.2229 67.2267 87.6763 66.736 88.2523 66.384C88.8283 66.0213 89.4683 65.84 90.1723 65.84C90.7269 65.84 91.2443 65.968 91.7243 66.224C92.2043 66.48 92.6149 66.8373 92.9563 67.296V62.72H94.3963ZM90.4283 72.752C90.8976 72.752 91.3243 72.6347 91.7083 72.4C92.0923 72.1653 92.3909 71.84 92.6043 71.424C92.8176 70.9973 92.9243 70.5227 92.9243 70C92.9243 69.4773 92.8176 69.008 92.6043 68.592C92.3909 68.1653 92.0923 67.8347 91.7083 67.6C91.3243 67.3653 90.8976 67.248 90.4283 67.248C89.9589 67.248 89.5376 67.3653 89.1643 67.6C88.7909 67.8347 88.4976 68.1653 88.2843 68.592C88.0709 69.008 87.9643 69.4773 87.9643 70C87.9643 70.5227 88.0709 70.9973 88.2843 71.424C88.4976 71.84 88.7909 72.1653 89.1643 72.4C89.5376 72.6347 89.9589 72.752 90.4283 72.752ZM100.656 65.84C101.477 65.84 102.192 66.016 102.8 66.368C103.419 66.72 103.893 67.2213 104.224 67.872C104.555 68.512 104.72 69.264 104.72 70.128C104.72 70.352 104.715 70.5173 104.704 70.624H98.144C98.2507 71.2427 98.5387 71.7547 99.008 72.16C99.488 72.5547 100.043 72.752 100.672 72.752C101.707 72.752 102.443 72.3733 102.88 71.616H104.448C104.192 72.3627 103.717 72.976 103.024 73.456C102.331 73.9253 101.547 74.16 100.672 74.16C99.8933 74.16 99.1893 73.984 98.56 73.632C97.9307 73.2693 97.44 72.7733 97.088 72.144C96.736 71.504 96.56 70.7893 96.56 70C96.56 69.2107 96.736 68.5013 97.088 67.872C97.44 67.232 97.9253 66.736 98.544 66.384C99.1733 66.0213 99.8773 65.84 100.656 65.84ZM100.624 67.184C99.9947 67.184 99.4507 67.3813 98.992 67.776C98.544 68.1707 98.2667 68.6773 98.16 69.296H103.072C103.008 68.656 102.747 68.144 102.288 67.76C101.84 67.376 101.285 67.184 100.624 67.184ZM114.313 66L110.873 74H108.889L105.449 66H107.145L109.913 72.496L112.665 66H114.313ZM119.14 65.84C119.961 65.84 120.676 66.016 121.284 66.368C121.902 66.72 122.377 67.2213 122.708 67.872C123.038 68.512 123.204 69.264 123.204 70.128C123.204 70.352 123.198 70.5173 123.188 70.624H116.628C116.734 71.2427 117.022 71.7547 117.492 72.16C117.972 72.5547 118.526 72.752 119.156 72.752C120.19 72.752 120.926 72.3733 121.364 71.616H122.932C122.676 72.3627 122.201 72.976 121.508 73.456C120.814 73.9253 120.03 74.16 119.156 74.16C118.377 74.16 117.673 73.984 117.044 73.632C116.414 73.2693 115.924 72.7733 115.572 72.144C115.22 71.504 115.044 70.7893 115.044 70C115.044 69.2107 115.22 68.5013 115.572 67.872C115.924 67.232 116.409 66.736 117.028 66.384C117.657 66.0213 118.361 65.84 119.14 65.84ZM119.108 67.184C118.478 67.184 117.934 67.3813 117.476 67.776C117.028 68.1707 116.75 68.6773 116.644 69.296H121.556C121.492 68.656 121.23 68.144 120.772 67.76C120.324 67.376 119.769 67.184 119.108 67.184ZM126.885 62.72V74H125.365V62.72H126.885ZM133.299 74.16C132.51 74.16 131.79 73.9787 131.139 73.616C130.488 73.2427 129.976 72.7413 129.603 72.112C129.23 71.472 129.043 70.768 129.043 70C129.043 69.232 129.23 68.5333 129.603 67.904C129.976 67.264 130.488 66.7627 131.139 66.4C131.79 66.0267 132.51 65.84 133.299 65.84C134.078 65.84 134.787 66.0267 135.427 66.4C136.078 66.7627 136.59 67.264 136.963 67.904C137.336 68.5333 137.523 69.232 137.523 70C137.523 70.768 137.336 71.472 136.963 72.112C136.59 72.7413 136.078 73.2427 135.427 73.616C134.787 73.9787 134.078 74.16 133.299 74.16ZM133.299 72.752C133.79 72.752 134.238 72.6347 134.643 72.4C135.048 72.1547 135.368 71.824 135.603 71.408C135.838 70.9813 135.955 70.512 135.955 70C135.955 69.488 135.838 69.024 135.603 68.608C135.368 68.1813 135.048 67.8507 134.643 67.616C134.238 67.3707 133.79 67.248 133.299 67.248C132.798 67.248 132.339 67.3707 131.923 67.616C131.518 67.8507 131.198 68.1813 130.963 68.608C130.728 69.024 130.611 69.488 130.611 70C130.611 70.512 130.728 70.9813 130.963 71.408C131.198 71.824 131.518 72.1547 131.923 72.4C132.339 72.6347 132.798 72.752 133.299 72.752ZM143.901 65.84C144.605 65.84 145.245 66.0213 145.821 66.384C146.397 66.736 146.85 67.2267 147.181 67.856C147.512 68.4853 147.677 69.2 147.677 70C147.677 70.8 147.512 71.5147 147.181 72.144C146.85 72.7733 146.397 73.2693 145.821 73.632C145.245 73.984 144.605 74.16 143.901 74.16C143.368 74.16 142.866 74.0427 142.397 73.808C141.928 73.5627 141.528 73.2267 141.197 72.8V76.72H139.677V66H141.117V67.296C141.458 66.8373 141.869 66.48 142.349 66.224C142.829 65.968 143.346 65.84 143.901 65.84ZM143.645 72.752C144.114 72.752 144.536 72.6347 144.909 72.4C145.282 72.1653 145.576 71.84 145.789 71.424C146.002 70.9973 146.109 70.5227 146.109 70C146.109 69.4773 146.002 69.008 145.789 68.592C145.576 68.1653 145.282 67.8347 144.909 67.6C144.536 67.3653 144.114 67.248 143.645 67.248C143.176 67.248 142.749 67.3653 142.365 67.6C141.981 67.8347 141.682 68.1653 141.469 68.592C141.256 69.008 141.149 69.4773 141.149 70C141.149 70.5227 141.256 70.9973 141.469 71.424C141.682 71.84 141.981 72.1653 142.365 72.4C142.749 72.6347 143.176 72.752 143.645 72.752ZM159.681 65.84C160.321 65.84 160.891 65.9787 161.393 66.256C161.905 66.5333 162.305 66.9547 162.593 67.52C162.891 68.0747 163.041 68.7573 163.041 69.568V74H161.521V69.6C161.521 68.896 161.318 68.336 160.913 67.92C160.518 67.504 160.017 67.296 159.409 67.296C158.747 67.296 158.214 67.5307 157.809 68C157.403 68.4693 157.201 69.0453 157.201 69.728V74H155.681V69.6C155.681 68.896 155.478 68.336 155.073 67.92C154.678 67.504 154.177 67.296 153.569 67.296C152.907 67.296 152.374 67.5307 151.969 68C151.563 68.4693 151.361 69.0453 151.361 69.728V74H149.841V66H151.281V67.264C151.569 66.8267 151.937 66.48 152.385 66.224C152.843 65.968 153.329 65.84 153.841 65.84C154.47 65.84 155.035 65.9787 155.537 66.256C156.049 66.5227 156.443 66.9227 156.721 67.456C157.03 66.9653 157.446 66.576 157.969 66.288C158.502 65.9893 159.073 65.84 159.681 65.84ZM169.13 65.84C169.952 65.84 170.666 66.016 171.274 66.368C171.893 66.72 172.368 67.2213 172.698 67.872C173.029 68.512 173.194 69.264 173.194 70.128C173.194 70.352 173.189 70.5173 173.178 70.624H166.618C166.725 71.2427 167.013 71.7547 167.482 72.16C167.962 72.5547 168.517 72.752 169.146 72.752C170.181 72.752 170.917 72.3733 171.354 71.616H172.922C172.666 72.3627 172.192 72.976 171.498 73.456C170.805 73.9253 170.021 74.16 169.146 74.16C168.368 74.16 167.664 73.984 167.034 73.632C166.405 73.2693 165.914 72.7733 165.562 72.144C165.21 71.504 165.034 70.7893 165.034 70C165.034 69.2107 165.21 68.5013 165.562 67.872C165.914 67.232 166.4 66.736 167.018 66.384C167.648 66.0213 168.352 65.84 169.13 65.84ZM169.098 67.184C168.469 67.184 167.925 67.3813 167.466 67.776C167.018 68.1707 166.741 68.6773 166.634 69.296H171.546C171.482 68.656 171.221 68.144 170.762 67.76C170.314 67.376 169.76 67.184 169.098 67.184ZM179.436 65.84C180.086 65.84 180.668 65.9787 181.18 66.256C181.702 66.5333 182.113 66.9547 182.412 67.52C182.721 68.0747 182.876 68.7573 182.876 69.568V74H181.356V69.6C181.356 68.896 181.148 68.336 180.732 67.92C180.316 67.504 179.793 67.296 179.164 67.296C178.705 67.296 178.3 67.408 177.948 67.632C177.606 67.8453 177.34 68.1387 177.148 68.512C176.966 68.8853 176.876 69.2907 176.876 69.728V74H175.356V66H176.796V67.28C177.094 66.8427 177.473 66.496 177.932 66.24C178.401 65.9733 178.902 65.84 179.436 65.84ZM187.441 67.44V71.664C187.441 72.0053 187.521 72.2667 187.681 72.448C187.852 72.6293 188.14 72.72 188.545 72.72C188.929 72.72 189.255 72.688 189.521 72.624V74.016C189.233 74.112 188.881 74.16 188.465 74.16C186.769 74.16 185.921 73.328 185.921 71.664V67.44H184.321V66H185.921V63.92H187.441V66H189.681V67.44H187.441ZM64.1234 92C64.1234 91.232 64.3101 90.5333 64.6834 89.904C65.0568 89.264 65.5688 88.7627 66.2194 88.4C66.8701 88.0267 67.5901 87.84 68.3794 87.84C69.2648 87.84 70.0594 88.1013 70.7634 88.624C71.4781 89.136 71.9474 89.808 72.1714 90.64H70.5074C70.3261 90.2133 70.0328 89.8773 69.6274 89.632C69.2328 89.376 68.7901 89.248 68.2994 89.248C67.7981 89.248 67.3501 89.3707 66.9554 89.616C66.5608 89.8507 66.2514 90.1813 66.0274 90.608C65.8034 91.024 65.6914 91.488 65.6914 92C65.6914 92.512 65.8034 92.9813 66.0274 93.408C66.2514 93.824 66.5608 94.1547 66.9554 94.4C67.3501 94.6347 67.7981 94.752 68.2994 94.752C68.7901 94.752 69.2328 94.6293 69.6274 94.384C70.0328 94.128 70.3261 93.7867 70.5074 93.36H72.1714C71.9474 94.192 71.4781 94.8693 70.7634 95.392C70.0594 95.904 69.2648 96.16 68.3794 96.16C67.5901 96.16 66.8701 95.9787 66.2194 95.616C65.5688 95.2427 65.0568 94.7413 64.6834 94.112C64.3101 93.472 64.1234 92.768 64.1234 92ZM77.7932 96.16C77.0039 96.16 76.2839 95.9787 75.6332 95.616C74.9825 95.2427 74.4705 94.7413 74.0972 94.112C73.7239 93.472 73.5372 92.768 73.5372 92C73.5372 91.232 73.7239 90.5333 74.0972 89.904C74.4705 89.264 74.9825 88.7627 75.6332 88.4C76.2839 88.0267 77.0039 87.84 77.7932 87.84C78.5719 87.84 79.2812 88.0267 79.9212 88.4C80.5719 88.7627 81.0839 89.264 81.4572 89.904C81.8305 90.5333 82.0172 91.232 82.0172 92C82.0172 92.768 81.8305 93.472 81.4572 94.112C81.0839 94.7413 80.5719 95.2427 79.9212 95.616C79.2812 95.9787 78.5719 96.16 77.7932 96.16ZM77.7932 94.752C78.2839 94.752 78.7319 94.6347 79.1372 94.4C79.5425 94.1547 79.8625 93.824 80.0972 93.408C80.3319 92.9813 80.4492 92.512 80.4492 92C80.4492 91.488 80.3319 91.024 80.0972 90.608C79.8625 90.1813 79.5425 89.8507 79.1372 89.616C78.7319 89.3707 78.2839 89.248 77.7932 89.248C77.2919 89.248 76.8332 89.3707 76.4172 89.616C76.0119 89.8507 75.6919 90.1813 75.4572 90.608C75.2225 91.024 75.1052 91.488 75.1052 92C75.1052 92.512 75.2225 92.9813 75.4572 93.408C75.6919 93.824 76.0119 94.1547 76.4172 94.4C76.8332 94.6347 77.2919 94.752 77.7932 94.752ZM94.0109 87.84C94.6509 87.84 95.2216 87.9787 95.7229 88.256C96.2349 88.5333 96.6349 88.9547 96.9229 89.52C97.2216 90.0747 97.3709 90.7573 97.3709 91.568V96H95.8509V91.6C95.8509 90.896 95.6483 90.336 95.2429 89.92C94.8483 89.504 94.3469 89.296 93.7389 89.296C93.0776 89.296 92.5443 89.5307 92.1389 90C91.7336 90.4693 91.5309 91.0453 91.5309 91.728V96H90.0109V91.6C90.0109 90.896 89.8083 90.336 89.4029 89.92C89.0083 89.504 88.5069 89.296 87.8989 89.296C87.2376 89.296 86.7043 89.5307 86.2989 90C85.8936 90.4693 85.6909 91.0453 85.6909 91.728V96H84.1709V88H85.6109V89.264C85.8989 88.8267 86.2669 88.48 86.7149 88.224C87.1736 87.968 87.6589 87.84 88.1709 87.84C88.8003 87.84 89.3656 87.9787 89.8669 88.256C90.3789 88.5227 90.7736 88.9227 91.0509 89.456C91.3603 88.9653 91.7763 88.576 92.2989 88.288C92.8323 87.9893 93.4029 87.84 94.0109 87.84ZM104.309 87.84C105.013 87.84 105.653 88.0213 106.229 88.384C106.805 88.736 107.258 89.2267 107.589 89.856C107.919 90.4853 108.085 91.2 108.085 92C108.085 92.8 107.919 93.5147 107.589 94.144C107.258 94.7733 106.805 95.2693 106.229 95.632C105.653 95.984 105.013 96.16 104.309 96.16C103.775 96.16 103.274 96.0427 102.805 95.808C102.335 95.5627 101.935 95.2267 101.605 94.8V98.72H100.085V88H101.525V89.296C101.866 88.8373 102.277 88.48 102.757 88.224C103.237 87.968 103.754 87.84 104.309 87.84ZM104.053 94.752C104.522 94.752 104.943 94.6347 105.317 94.4C105.69 94.1653 105.983 93.84 106.197 93.424C106.41 92.9973 106.517 92.5227 106.517 92C106.517 91.4773 106.41 91.008 106.197 90.592C105.983 90.1653 105.69 89.8347 105.317 89.6C104.943 89.3653 104.522 89.248 104.053 89.248C103.583 89.248 103.157 89.3653 102.773 89.6C102.389 89.8347 102.09 90.1653 101.877 90.592C101.663 91.008 101.557 91.4773 101.557 92C101.557 92.5227 101.663 92.9973 101.877 93.424C102.09 93.84 102.389 94.1653 102.773 94.4C103.157 94.6347 103.583 94.752 104.053 94.752ZM117.607 88V96H116.087V94.8C115.756 95.2267 115.356 95.5627 114.887 95.808C114.417 96.0427 113.916 96.16 113.383 96.16C112.679 96.16 112.039 95.984 111.463 95.632C110.887 95.2693 110.433 94.7733 110.103 94.144C109.772 93.5147 109.607 92.8 109.607 92C109.607 91.2 109.772 90.4853 110.103 89.856C110.433 89.2267 110.887 88.736 111.463 88.384C112.039 88.0213 112.679 87.84 113.383 87.84C113.937 87.84 114.455 87.968 114.935 88.224C115.415 88.48 115.825 88.8373 116.167 89.296V88H117.607ZM113.639 94.752C114.108 94.752 114.535 94.6347 114.919 94.4C115.303 94.1653 115.601 93.84 115.815 93.424C116.028 92.9973 116.135 92.5227 116.135 92C116.135 91.4773 116.028 91.008 115.815 90.592C115.601 90.1653 115.303 89.8347 114.919 89.6C114.535 89.3653 114.108 89.248 113.639 89.248C113.169 89.248 112.748 89.3653 112.375 89.6C112.001 89.8347 111.708 90.1653 111.495 90.592C111.281 91.008 111.175 91.4773 111.175 92C111.175 92.5227 111.281 92.9973 111.495 93.424C111.708 93.84 112.001 94.1653 112.375 94.4C112.748 94.6347 113.169 94.752 113.639 94.752ZM124.57 87.84C125.221 87.84 125.802 87.9787 126.314 88.256C126.837 88.5333 127.248 88.9547 127.546 89.52C127.856 90.0747 128.01 90.7573 128.01 91.568V96H126.49V91.6C126.49 90.896 126.282 90.336 125.866 89.92C125.45 89.504 124.928 89.296 124.298 89.296C123.84 89.296 123.434 89.408 123.082 89.632C122.741 89.8453 122.474 90.1387 122.282 90.512C122.101 90.8853 122.01 91.2907 122.01 91.728V96H120.49V88H121.93V89.28C122.229 88.8427 122.608 88.496 123.066 88.24C123.536 87.9733 124.037 87.84 124.57 87.84ZM138.276 88L133.588 98.72H131.94L133.204 95.856L129.3 88H131.108L134.004 94.24L136.596 88H138.276Z"
        fill="#F1EFED"
    />
    <path
        d="M29.07 30.128H24.57V41H22.77V30.128H18.27V28.4H29.07V30.128ZM36.7214 41.18C35.5094 41.18 34.3994 40.898 33.3914 40.334C32.3834 39.758 31.5914 38.978 31.0154 37.994C30.4394 36.998 30.1514 35.9 30.1514 34.7C30.1514 33.5 30.4394 32.408 31.0154 31.424C31.5914 30.428 32.3834 29.648 33.3914 29.084C34.3994 28.508 35.5094 28.22 36.7214 28.22C37.9334 28.22 39.0434 28.508 40.0514 29.084C41.0594 29.648 41.8514 30.428 42.4274 31.424C43.0034 32.408 43.2914 33.5 43.2914 34.7C43.2914 35.9 43.0034 36.998 42.4274 37.994C41.8514 38.978 41.0594 39.758 40.0514 40.334C39.0434 40.898 37.9334 41.18 36.7214 41.18ZM36.7214 39.452C37.5854 39.452 38.3714 39.242 39.0794 38.822C39.7994 38.402 40.3634 37.832 40.7714 37.112C41.1914 36.38 41.4014 35.576 41.4014 34.7C41.4014 33.824 41.1914 33.026 40.7714 32.306C40.3634 31.574 39.7994 30.998 39.0794 30.578C38.3714 30.158 37.5854 29.948 36.7214 29.948C35.8574 29.948 35.0654 30.158 34.3454 30.578C33.6374 30.998 33.0734 31.574 32.6534 32.306C32.2454 33.026 32.0414 33.824 32.0414 34.7C32.0414 35.576 32.2454 36.38 32.6534 37.112C33.0734 37.832 33.6374 38.402 34.3454 38.822C35.0654 39.242 35.8574 39.452 36.7214 39.452ZM52.135 28.4C52.975 28.4 53.695 28.562 54.295 28.886C54.907 29.198 55.369 29.636 55.681 30.2C56.005 30.752 56.167 31.382 56.167 32.09C56.167 32.798 56.005 33.434 55.681 33.998C55.369 34.55 54.907 34.988 54.295 35.312C53.695 35.624 52.975 35.78 52.135 35.78H48.427V41H46.627V28.4H52.135ZM52.081 34.106C52.801 34.106 53.347 33.938 53.719 33.602C54.091 33.254 54.277 32.75 54.277 32.09C54.277 31.43 54.091 30.932 53.719 30.596C53.347 30.26 52.801 30.092 52.081 30.092H48.427V34.106H52.081ZM69.337 35.78H66.979V41H65.179V28.4H70.687C71.527 28.4 72.247 28.562 72.847 28.886C73.459 29.198 73.921 29.636 74.233 30.2C74.557 30.752 74.719 31.382 74.719 32.09C74.719 33.038 74.437 33.848 73.873 34.52C73.309 35.18 72.517 35.582 71.497 35.726L75.691 41H73.423L69.337 35.78ZM66.979 34.142H70.579C71.299 34.142 71.851 33.968 72.235 33.62C72.631 33.26 72.829 32.75 72.829 32.09C72.829 31.43 72.631 30.926 72.235 30.578C71.851 30.218 71.299 30.038 70.579 30.038H66.979V34.142ZM86.9517 38.12H80.1477L78.9057 41H76.9437L82.5957 28.4H84.6117L90.2637 41H88.1937L86.9517 38.12ZM86.2497 36.464L83.5677 30.254L80.8677 36.464H86.2497ZM100.616 30.128H96.1165V41H94.3165V30.128H89.8165V28.4H100.616V30.128ZM105.204 30.092V33.854H111.324V35.546H105.204V39.308H111.864V41H103.404V28.4H111.864V30.092H105.204ZM119.786 28.4C121.13 28.4 122.294 28.676 123.278 29.228C124.274 29.78 125.036 30.536 125.564 31.496C126.092 32.444 126.356 33.512 126.356 34.7C126.356 35.888 126.092 36.962 125.564 37.922C125.036 38.87 124.274 39.62 123.278 40.172C122.294 40.724 121.13 41 119.786 41H115.466V28.4H119.786ZM119.786 39.272C120.734 39.272 121.562 39.086 122.27 38.714C122.978 38.342 123.518 37.814 123.89 37.13C124.274 36.434 124.466 35.624 124.466 34.7C124.466 33.776 124.274 32.972 123.89 32.288C123.518 31.592 122.978 31.058 122.27 30.686C121.562 30.314 120.734 30.128 119.786 30.128H117.266V39.272H119.786ZM141.144 28.4C141.984 28.4 142.704 28.562 143.304 28.886C143.916 29.198 144.378 29.636 144.69 30.2C145.014 30.752 145.176 31.382 145.176 32.09C145.176 32.798 145.014 33.434 144.69 33.998C144.378 34.55 143.916 34.988 143.304 35.312C142.704 35.624 141.984 35.78 141.144 35.78H137.436V41H135.636V28.4H141.144ZM141.09 34.106C141.81 34.106 142.356 33.938 142.728 33.602C143.1 33.254 143.286 32.75 143.286 32.09C143.286 31.43 143.1 30.932 142.728 30.596C142.356 30.26 141.81 30.092 141.09 30.092H137.436V34.106H141.09ZM156.703 39.272V41H148.243V28.4H150.043V39.272H156.703ZM164.085 41.18C163.053 41.18 162.117 40.952 161.277 40.496C160.449 40.028 159.795 39.386 159.315 38.57C158.835 37.754 158.595 36.848 158.595 35.852V28.4H160.395V35.852C160.395 36.524 160.557 37.136 160.881 37.688C161.205 38.24 161.643 38.672 162.195 38.984C162.759 39.296 163.389 39.452 164.085 39.452C164.781 39.452 165.405 39.296 165.957 38.984C166.521 38.672 166.965 38.24 167.289 37.688C167.613 37.136 167.775 36.524 167.775 35.852V28.4H169.575V35.852C169.575 36.848 169.335 37.754 168.855 38.57C168.375 39.386 167.715 40.028 166.875 40.496C166.047 40.952 165.117 41.18 164.085 41.18ZM177.937 41.18C176.473 41.18 175.237 40.82 174.229 40.1C173.233 39.368 172.627 38.354 172.411 37.058H174.211C174.511 37.886 174.961 38.492 175.561 38.876C176.173 39.26 176.983 39.452 177.991 39.452C178.963 39.452 179.749 39.278 180.349 38.93C180.949 38.57 181.249 38.108 181.249 37.544C181.249 37.052 181.027 36.656 180.583 36.356C180.139 36.044 179.407 35.786 178.387 35.582L177.019 35.33C175.591 35.078 174.523 34.646 173.815 34.034C173.107 33.41 172.753 32.642 172.753 31.73C172.753 31.034 172.963 30.422 173.383 29.894C173.803 29.366 174.391 28.958 175.147 28.67C175.903 28.37 176.773 28.22 177.757 28.22C179.041 28.22 180.157 28.538 181.105 29.174C182.053 29.798 182.677 30.68 182.977 31.82H181.087C180.847 31.208 180.415 30.746 179.791 30.434C179.179 30.11 178.471 29.948 177.667 29.948C176.719 29.948 175.969 30.116 175.417 30.452C174.877 30.776 174.607 31.226 174.607 31.802C174.607 32.27 174.823 32.648 175.255 32.936C175.699 33.224 176.395 33.452 177.343 33.62L178.711 33.854C180.223 34.106 181.333 34.538 182.041 35.15C182.749 35.762 183.103 36.548 183.103 37.508C183.103 38.228 182.881 38.864 182.437 39.416C182.005 39.968 181.399 40.4 180.619 40.712C179.839 41.024 178.945 41.18 177.937 41.18Z"
        fill="#8F8E93"
    />
    <path
        d="M64.49 114V121H63.16V119.95C62.8707 120.323 62.5207 120.617 62.11 120.832C61.6993 121.037 61.2607 121.14 60.794 121.14C60.178 121.14 59.618 120.986 59.114 120.678C58.61 120.361 58.2133 119.927 57.924 119.376C57.6347 118.825 57.49 118.2 57.49 117.5C57.49 116.8 57.6347 116.175 57.924 115.624C58.2133 115.073 58.61 114.644 59.114 114.336C59.618 114.019 60.178 113.86 60.794 113.86C61.2793 113.86 61.732 113.972 62.152 114.196C62.572 114.42 62.9313 114.733 63.23 115.134V114H64.49ZM61.018 119.908C61.4287 119.908 61.802 119.805 62.138 119.6C62.474 119.395 62.7353 119.11 62.922 118.746C63.1087 118.373 63.202 117.957 63.202 117.5C63.202 117.043 63.1087 116.632 62.922 116.268C62.7353 115.895 62.474 115.605 62.138 115.4C61.802 115.195 61.4287 115.092 61.018 115.092C60.6073 115.092 60.2387 115.195 59.912 115.4C59.5853 115.605 59.3287 115.895 59.142 116.268C58.9553 116.632 58.862 117.043 58.862 117.5C58.862 117.957 58.9553 118.373 59.142 118.746C59.3287 119.11 59.5853 119.395 59.912 119.6C60.2387 119.805 60.6073 119.908 61.018 119.908ZM66.2433 117.5C66.2433 116.828 66.4066 116.217 66.7333 115.666C67.0599 115.106 67.5079 114.667 68.0773 114.35C68.6466 114.023 69.2766 113.86 69.9673 113.86C70.7419 113.86 71.4373 114.089 72.0533 114.546C72.6786 114.994 73.0893 115.582 73.2853 116.31H71.8293C71.6706 115.937 71.4139 115.643 71.0593 115.428C70.7139 115.204 70.3266 115.092 69.8973 115.092C69.4586 115.092 69.0666 115.199 68.7213 115.414C68.3759 115.619 68.1053 115.909 67.9093 116.282C67.7133 116.646 67.6153 117.052 67.6153 117.5C67.6153 117.948 67.7133 118.359 67.9093 118.732C68.1053 119.096 68.3759 119.385 68.7213 119.6C69.0666 119.805 69.4586 119.908 69.8973 119.908C70.3266 119.908 70.7139 119.801 71.0593 119.586C71.4139 119.362 71.6706 119.063 71.8293 118.69H73.2853C73.0893 119.418 72.6786 120.011 72.0533 120.468C71.4373 120.916 70.7419 121.14 69.9673 121.14C69.2766 121.14 68.6466 120.981 68.0773 120.664C67.5079 120.337 67.0599 119.899 66.7333 119.348C66.4066 118.788 66.2433 118.172 66.2433 117.5ZM74.3403 117.5C74.3403 116.828 74.5036 116.217 74.8303 115.666C75.157 115.106 75.605 114.667 76.1743 114.35C76.7436 114.023 77.3736 113.86 78.0643 113.86C78.839 113.86 79.5343 114.089 80.1503 114.546C80.7756 114.994 81.1863 115.582 81.3823 116.31H79.9263C79.7676 115.937 79.511 115.643 79.1563 115.428C78.811 115.204 78.4236 115.092 77.9943 115.092C77.5556 115.092 77.1636 115.199 76.8183 115.414C76.473 115.619 76.2023 115.909 76.0063 116.282C75.8103 116.646 75.7123 117.052 75.7123 117.5C75.7123 117.948 75.8103 118.359 76.0063 118.732C76.2023 119.096 76.473 119.385 76.8183 119.6C77.1636 119.805 77.5556 119.908 77.9943 119.908C78.4236 119.908 78.811 119.801 79.1563 119.586C79.511 119.362 79.7676 119.063 79.9263 118.69H81.3823C81.1863 119.418 80.7756 120.011 80.1503 120.468C79.5343 120.916 78.839 121.14 78.0643 121.14C77.3736 121.14 76.7436 120.981 76.1743 120.664C75.605 120.337 75.157 119.899 74.8303 119.348C74.5036 118.788 74.3403 118.172 74.3403 117.5ZM86.1613 121.14C85.4707 121.14 84.8407 120.981 84.2713 120.664C83.702 120.337 83.254 119.899 82.9273 119.348C82.6007 118.788 82.4373 118.172 82.4373 117.5C82.4373 116.828 82.6007 116.217 82.9273 115.666C83.254 115.106 83.702 114.667 84.2713 114.35C84.8407 114.023 85.4707 113.86 86.1613 113.86C86.8427 113.86 87.4633 114.023 88.0233 114.35C88.5927 114.667 89.0407 115.106 89.3673 115.666C89.694 116.217 89.8573 116.828 89.8573 117.5C89.8573 118.172 89.694 118.788 89.3673 119.348C89.0407 119.899 88.5927 120.337 88.0233 120.664C87.4633 120.981 86.8427 121.14 86.1613 121.14ZM86.1613 119.908C86.5907 119.908 86.9827 119.805 87.3373 119.6C87.692 119.385 87.972 119.096 88.1773 118.732C88.3827 118.359 88.4853 117.948 88.4853 117.5C88.4853 117.052 88.3827 116.646 88.1773 116.282C87.972 115.909 87.692 115.619 87.3373 115.414C86.9827 115.199 86.5907 115.092 86.1613 115.092C85.7227 115.092 85.3213 115.199 84.9573 115.414C84.6027 115.619 84.3227 115.909 84.1173 116.282C83.912 116.646 83.8093 117.052 83.8093 117.5C83.8093 117.948 83.912 118.359 84.1173 118.732C84.3227 119.096 84.6027 119.385 84.9573 119.6C85.3213 119.805 85.7227 119.908 86.1613 119.908ZM95.1719 113.86C95.3959 113.86 95.6059 113.874 95.8019 113.902V115.204C95.6339 115.167 95.3679 115.148 95.0039 115.148C94.5932 115.148 94.2292 115.241 93.9119 115.428C93.6039 115.615 93.3612 115.867 93.1839 116.184C93.0159 116.492 92.9319 116.833 92.9319 117.206V121H91.6019V114H92.8619V115.078C93.1232 114.705 93.4545 114.411 93.8559 114.196C94.2665 113.972 94.7052 113.86 95.1719 113.86ZM103.294 111.13V121H101.964V119.95C101.674 120.323 101.324 120.617 100.914 120.832C100.503 121.037 100.064 121.14 99.5975 121.14C98.9815 121.14 98.4215 120.986 97.9175 120.678C97.4135 120.361 97.0168 119.927 96.7275 119.376C96.4382 118.825 96.2935 118.2 96.2935 117.5C96.2935 116.8 96.4382 116.175 96.7275 115.624C97.0168 115.073 97.4135 114.644 97.9175 114.336C98.4215 114.019 98.9815 113.86 99.5975 113.86C100.083 113.86 100.536 113.972 100.956 114.196C101.376 114.42 101.735 114.733 102.034 115.134V111.13H103.294ZM99.8215 119.908C100.232 119.908 100.606 119.805 100.942 119.6C101.278 119.395 101.539 119.11 101.726 118.746C101.912 118.373 102.006 117.957 102.006 117.5C102.006 117.043 101.912 116.632 101.726 116.268C101.539 115.895 101.278 115.605 100.942 115.4C100.606 115.195 100.232 115.092 99.8215 115.092C99.4108 115.092 99.0422 115.195 98.7155 115.4C98.3888 115.605 98.1322 115.895 97.9455 116.268C97.7588 116.632 97.6655 117.043 97.6655 117.5C97.6655 117.957 97.7588 118.373 97.9455 118.746C98.1322 119.11 98.3888 119.395 98.7155 119.6C99.0422 119.805 99.4108 119.908 99.8215 119.908ZM107.007 114V121H105.677V114H107.007ZM107.091 111.2V112.74H105.607V111.2H107.091ZM112.955 113.86C113.524 113.86 114.033 113.981 114.481 114.224C114.938 114.467 115.298 114.835 115.559 115.33C115.83 115.815 115.965 116.413 115.965 117.122V121H114.635V117.15C114.635 116.534 114.453 116.044 114.089 115.68C113.725 115.316 113.268 115.134 112.717 115.134C112.316 115.134 111.961 115.232 111.653 115.428C111.354 115.615 111.121 115.871 110.953 116.198C110.794 116.525 110.715 116.879 110.715 117.262V121H109.385V114H110.645V115.12C110.906 114.737 111.238 114.434 111.639 114.21C112.05 113.977 112.488 113.86 112.955 113.86ZM124.577 117.192C124.577 117.789 124.437 118.331 124.157 118.816C123.877 119.301 123.457 119.679 122.897 119.95C123.345 120.081 123.671 120.277 123.877 120.538C124.091 120.799 124.199 121.107 124.199 121.462C124.199 122.022 123.993 122.479 123.583 122.834C123.181 123.198 122.659 123.38 122.015 123.38H120.153C119.518 123.38 118.995 123.207 118.585 122.862C118.174 122.517 117.969 122.073 117.969 121.532C117.969 120.785 118.398 120.263 119.257 119.964C118.725 119.731 118.309 119.357 118.011 118.844C117.721 118.331 117.577 117.78 117.577 117.192C117.577 116.585 117.726 116.035 118.025 115.54C118.333 115.036 118.753 114.639 119.285 114.35C119.817 114.061 120.4 113.916 121.035 113.916C121.931 113.916 122.691 114.261 123.317 114.952V113.986H124.577V117.192ZM121.077 119.432C121.497 119.432 121.875 119.334 122.211 119.138C122.547 118.942 122.808 118.676 122.995 118.34C123.191 118.004 123.289 117.626 123.289 117.206C123.289 116.795 123.191 116.427 122.995 116.1C122.808 115.773 122.547 115.517 122.211 115.33C121.875 115.143 121.497 115.05 121.077 115.05C120.451 115.05 119.933 115.255 119.523 115.666C119.121 116.067 118.921 116.581 118.921 117.206C118.921 117.841 119.121 118.368 119.523 118.788C119.933 119.208 120.451 119.423 121.077 119.432ZM121.903 122.316C122.201 122.316 122.449 122.237 122.645 122.078C122.85 121.919 122.953 121.723 122.953 121.49C122.953 121.238 122.855 121.028 122.659 120.86C122.463 120.692 122.211 120.608 121.903 120.608H120.251C119.943 120.608 119.691 120.692 119.495 120.86C119.299 121.028 119.201 121.238 119.201 121.49C119.201 121.723 119.299 121.919 119.495 122.078C119.7 122.237 119.952 122.316 120.251 122.316H121.903ZM132.487 115.26V118.956C132.487 119.255 132.557 119.483 132.697 119.642C132.846 119.801 133.098 119.88 133.453 119.88C133.789 119.88 134.073 119.852 134.307 119.796V121.014C134.055 121.098 133.747 121.14 133.383 121.14C131.899 121.14 131.157 120.412 131.157 118.956V115.26H129.757V114H131.157V112.18H132.487V114H134.447V115.26H132.487ZM139.084 121.14C138.393 121.14 137.763 120.981 137.194 120.664C136.625 120.337 136.177 119.899 135.85 119.348C135.523 118.788 135.36 118.172 135.36 117.5C135.36 116.828 135.523 116.217 135.85 115.666C136.177 115.106 136.625 114.667 137.194 114.35C137.763 114.023 138.393 113.86 139.084 113.86C139.765 113.86 140.386 114.023 140.946 114.35C141.515 114.667 141.963 115.106 142.29 115.666C142.617 116.217 142.78 116.828 142.78 117.5C142.78 118.172 142.617 118.788 142.29 119.348C141.963 119.899 141.515 120.337 140.946 120.664C140.386 120.981 139.765 121.14 139.084 121.14ZM139.084 119.908C139.513 119.908 139.905 119.805 140.26 119.6C140.615 119.385 140.895 119.096 141.1 118.732C141.305 118.359 141.408 117.948 141.408 117.5C141.408 117.052 141.305 116.646 141.1 116.282C140.895 115.909 140.615 115.619 140.26 115.414C139.905 115.199 139.513 115.092 139.084 115.092C138.645 115.092 138.244 115.199 137.88 115.414C137.525 115.619 137.245 115.909 137.04 116.282C136.835 116.646 136.732 117.052 136.732 117.5C136.732 117.948 136.835 118.359 137.04 118.732C137.245 119.096 137.525 119.385 137.88 119.6C138.244 119.805 138.645 119.908 139.084 119.908Z"
        fill="#8F8E93"
    />
    <path opacity="0.5" d="M38 126L163 126" stroke="#8F8E93" stroke-width="0.5" />
    <path
        d="M152.974 147.061C154.438 146.217 155.654 145.005 156.503 143.546C157.351 142.088 157.803 140.433 157.813 138.747H153.645C153.66 140.206 153.098 141.612 152.079 142.66C151.06 143.707 149.668 144.311 148.205 144.339H147.614L147.545 130H143.387L143.515 156.909H147.673V148.369H148.146C148.364 148.351 148.581 148.398 148.772 148.503C148.963 148.607 149.119 148.766 149.22 148.958L155.132 156.87H160L152.974 147.061ZM139.18 142.865C138.533 142.875 137.894 143.012 137.3 143.269C136.706 143.525 136.169 143.896 135.719 144.36C135.269 144.823 134.914 145.371 134.676 145.971C134.438 146.571 134.321 147.212 134.332 147.857V152.428V156.988H130.164V147.916V138.855H134.322V141.695C134.917 140.828 135.711 140.115 136.638 139.616C137.566 139.117 138.599 138.846 139.653 138.826H140.845V142.855L139.18 142.865ZM118.083 153.676C116.607 153.681 115.19 153.101 114.142 152.064C113.094 151.021 112.5 149.609 112.487 148.133C112.483 147.403 112.623 146.681 112.901 146.006C113.178 145.331 113.586 144.718 114.103 144.201C115.148 143.156 116.564 142.563 118.044 142.55C119.52 142.545 120.938 143.125 121.985 144.162C123.033 145.205 123.628 146.617 123.641 148.093C123.637 148.826 123.488 149.55 123.202 150.225C122.916 150.9 122.499 151.511 121.976 152.025C121.462 152.551 120.85 152.971 120.174 153.261C119.497 153.551 118.77 153.706 118.034 153.715L118.083 153.676ZM118.005 138.383C116.755 138.391 115.519 138.646 114.369 139.133C113.219 139.621 112.177 140.331 111.304 141.224C109.517 143.04 108.525 145.489 108.545 148.034C108.546 149.295 108.797 150.542 109.282 151.706C109.767 152.87 110.478 153.926 111.373 154.816C112.255 155.7 113.303 156.4 114.459 156.876C115.614 157.352 116.853 157.594 118.103 157.587C119.354 157.575 120.59 157.314 121.739 156.82C122.888 156.325 123.926 155.607 124.794 154.708C126.572 152.897 127.563 150.461 127.553 147.926C127.544 145.379 126.528 142.939 124.725 141.135C123.842 140.253 122.793 139.555 121.638 139.081C120.482 138.607 119.244 138.366 117.995 138.373L118.005 138.383ZM97.6868 139.071L100.84 151.504L104.111 139.042H108.269L103.116 157.145H99.0762L95.8048 144.477L92.6616 157.174H88.6118L83.1826 139.081H87.2225L90.8485 151.514L93.8046 139.052L97.6868 139.071ZM73.6346 152.939C71.6552 152.881 69.7587 152.133 68.2743 150.826L68.7473 148.929V148.821C69.0921 146.855 70.1465 143.366 73.674 143.346C74.9287 143.336 76.1371 143.819 77.0372 144.691C77.9373 145.563 78.4566 146.754 78.4825 148.005C78.4487 149.284 77.9294 150.503 77.0296 151.415C76.1298 152.327 74.9164 152.865 73.6346 152.919V152.939ZM73.5656 138.6C69.0527 138.6 65.6237 141.597 64.3329 146.344C62.2768 143.145 60.6628 139.684 59.5343 136.054H54.785L54.8441 148.624C54.8467 149.215 54.7325 149.801 54.5081 150.348C54.2837 150.895 53.9534 151.393 53.5362 151.813C53.119 152.233 52.6229 152.566 52.0764 152.795C51.5299 153.023 50.9435 153.142 50.3509 153.145C49.1531 153.15 48.0021 152.681 47.1505 151.841C46.2989 151.001 45.8163 149.858 45.8085 148.663L45.7494 136.103H41L41.0591 148.663C41.0526 149.886 41.2888 151.098 41.754 152.23C42.2193 153.361 42.9045 154.389 43.7701 155.255C44.6356 156.122 45.6645 156.808 46.7973 157.276C47.9302 157.744 49.1445 157.983 50.3706 157.98C51.5963 157.97 52.8079 157.718 53.9358 157.239C55.0636 156.761 56.0854 156.064 56.9425 155.19C57.7996 154.316 58.475 153.282 58.9299 152.146C59.3849 151.011 59.6104 149.797 59.5934 148.575V146.442C60.5898 148.425 61.7499 150.322 63.0618 152.113L60.1058 166H65.0325L67.1214 155.916C69.0767 157.154 71.3485 157.802 73.6641 157.784C74.9295 157.768 76.1793 157.503 77.3413 157.003C78.5032 156.503 79.5544 155.779 80.434 154.871C81.3135 153.964 82.0041 152.892 82.4657 151.716C82.9273 150.541 83.1509 149.286 83.1235 148.025C83.1052 145.513 82.0906 143.11 80.3014 141.342C78.5122 139.574 76.094 138.584 73.5755 138.59L73.5656 138.6Z"
        fill="#8F8E93"
    />
</svg>
