<svg xmlns="http://www.w3.org/2000/svg" width="33" height="32" viewBox="0 0 33 32" fill="none">
<path fill-rule="evenodd" clip-rule="evenodd" d="M16.5 0C7.38398 0 0 7.34035 0 16.4025C0 23.6522 4.7302 29.7944 11.2836 31.9693C12.1041 32.1203 12.4079 31.6169 12.4079 31.1738C12.4079 30.7811 12.3978 29.7541 12.3877 28.3847C7.79926 29.3715 6.82689 26.1896 6.82689 26.1896C6.07735 24.2966 4.99355 23.7831 4.99355 23.7831C3.49447 22.7661 5.10497 22.7863 5.10497 22.7863C6.75598 22.9071 7.6372 24.4779 7.6372 24.4779C9.10589 26.9851 11.4963 26.2601 12.4383 25.8372C12.5902 24.78 13.0157 24.055 13.4816 23.6422C9.82505 23.2394 5.97606 21.8297 5.97606 15.5466C5.97606 13.7543 6.61418 12.2943 7.67772 11.1465C7.50552 10.7235 6.93831 9.06216 7.82965 6.80669C7.82965 6.80669 9.21731 6.36365 12.3674 8.48822C13.6842 8.12573 15.0921 7.94449 16.5 7.93442C17.8978 7.94449 19.3158 8.12573 20.6326 8.48822C23.7827 6.36365 25.1703 6.80669 25.1703 6.80669C26.0718 9.06216 25.5046 10.7336 25.3324 11.1465C26.3858 12.2943 27.0239 13.7543 27.0239 15.5466C27.0239 21.8499 23.1648 23.2293 19.488 23.6422C20.0755 24.1456 20.6123 25.1525 20.6123 26.683C20.6123 28.8781 20.5921 30.6402 20.5921 31.1839C20.5921 31.6269 20.8858 32.1304 21.7265 31.9693C28.2799 29.7944 33 23.6522 33 16.4126C33 7.34034 25.616 0 16.5 0Z" fill="black"/>
</svg>