<svg xmlns="http://www.w3.org/2000/svg" width="33" height="32" viewBox="0 0 33 32" fill="none">
    <path
        d="M16.5 0C7.38508 0 0 7.16129 0 16C0 24.8387 7.38508 32 16.5 32C25.6149 32 33 24.8387 33 16C33 7.16129 25.6149 0 16.5 0ZM24.6036 10.9613L21.8958 23.3355C21.6962 24.2129 21.1573 24.4258 20.4054 24.0129L16.2804 21.0645L14.2911 22.9226C14.0716 23.1355 13.8853 23.3161 13.4595 23.3161L13.7522 19.2452L21.3968 12.5484C21.7294 12.2645 21.3236 12.1032 20.8845 12.3871L11.4369 18.1548L7.36512 16.9226C6.48024 16.6516 6.46028 16.0645 7.55141 15.6516L23.4593 9.70323C24.1978 9.44516 24.8431 9.87742 24.6036 10.9613Z"
        fill="black"
    />
    <path
        d="M24.6036 10.9613L21.8958 23.3355C21.6962 24.2129 21.1573 24.4258 20.4054 24.0129L16.2804 21.0645L14.2911 22.9226C14.0716 23.1355 13.8853 23.3161 13.4595 23.3161L13.7522 19.2452L21.3968 12.5484C21.7294 12.2645 21.3236 12.1032 20.8845 12.3871L11.4369 18.1548L7.36512 16.9226C6.48024 16.6516 6.46028 16.0645 7.55141 15.6516L23.4593 9.70323C24.1978 9.44516 24.8431 9.87742 24.6036 10.9613Z"
        fill="#F1EFED"
    />
</svg>
