<svg xmlns="http://www.w3.org/2000/svg" width="202" height="203" viewBox="0 0 202 203" fill="none">
    <path d="M1 1H201V147.667L101 201L1 147.667V1Z" fill="#F1EFED" stroke="#8F8E93" stroke-width="2" />
    <path d="M7 7H194V144.133L100.5 194L7 144.133V7Z" fill="#F1EFED" stroke="#8F8E93" stroke-width="1.8" stroke-dasharray="2.83 2.83" />
    <rect x="1" y="50" width="200" height="56" fill="#8F8E93" />
    <path
        d="M34.5037 70C34.5037 69.232 34.6904 68.5333 35.0637 67.904C35.4371 67.264 35.9491 66.7627 36.5997 66.4C37.2504 66.0267 37.9704 65.84 38.7597 65.84C39.6451 65.84 40.4397 66.1013 41.1437 66.624C41.8584 67.136 42.3277 67.808 42.5517 68.64H40.8877C40.7064 68.2133 40.4131 67.8773 40.0077 67.632C39.6131 67.376 39.1704 67.248 38.6797 67.248C38.1784 67.248 37.7304 67.3707 37.3357 67.616C36.9411 67.8507 36.6317 68.1813 36.4077 68.608C36.1837 69.024 36.0717 69.488 36.0717 70C36.0717 70.512 36.1837 70.9813 36.4077 71.408C36.6317 71.824 36.9411 72.1547 37.3357 72.4C37.7304 72.6347 38.1784 72.752 38.6797 72.752C39.1704 72.752 39.6131 72.6293 40.0077 72.384C40.4131 72.128 40.7064 71.7867 40.8877 71.36H42.5517C42.3277 72.192 41.8584 72.8693 41.1437 73.392C40.4397 73.904 39.6451 74.16 38.7597 74.16C37.9704 74.16 37.2504 73.9787 36.5997 73.616C35.9491 73.2427 35.4371 72.7413 35.0637 72.112C34.6904 71.472 34.5037 70.768 34.5037 70ZM51.7631 66V74H50.3231V72.72C50.0245 73.1573 49.6405 73.5093 49.1711 73.776C48.7125 74.032 48.2165 74.16 47.6831 74.16C47.0325 74.16 46.4458 74.0213 45.9231 73.744C45.4111 73.4667 45.0005 73.0507 44.6911 72.496C44.3925 71.9307 44.2431 71.2427 44.2431 70.432V66H45.7631V70.4C45.7631 71.104 45.9711 71.664 46.3871 72.08C46.8031 72.496 47.3258 72.704 47.9551 72.704C48.4138 72.704 48.8138 72.5973 49.1551 72.384C49.5071 72.16 49.7738 71.8613 49.9551 71.488C50.1471 71.1147 50.2431 70.7093 50.2431 70.272V66H51.7631ZM57.461 74.16C56.4583 74.16 55.6103 73.9253 54.917 73.456C54.2343 72.976 53.8397 72.3147 53.733 71.472H55.253C55.3917 71.9307 55.6477 72.272 56.021 72.496C56.405 72.7093 56.9063 72.816 57.525 72.816C58.101 72.816 58.565 72.7253 58.917 72.544C59.269 72.352 59.445 72.1067 59.445 71.808C59.445 71.5093 59.3223 71.2747 59.077 71.104C58.8423 70.9227 58.3997 70.7787 57.749 70.672L56.837 70.512C54.917 70.1707 53.957 69.3973 53.957 68.192C53.957 67.488 54.2663 66.9227 54.885 66.496C55.5037 66.0587 56.3143 65.84 57.317 65.84C58.2237 65.84 58.997 66.0533 59.637 66.48C60.277 66.896 60.6823 67.4773 60.853 68.224H59.237C59.109 67.904 58.8637 67.6587 58.501 67.488C58.1383 67.3067 57.7383 67.216 57.301 67.216C56.7463 67.216 56.3037 67.3013 55.973 67.472C55.653 67.632 55.493 67.856 55.493 68.144C55.493 68.4 55.6157 68.6133 55.861 68.784C56.1063 68.944 56.501 69.0667 57.045 69.152L57.973 69.312C59.061 69.4933 59.829 69.792 60.277 70.208C60.725 70.6133 60.949 71.1467 60.949 71.808C60.949 72.512 60.6343 73.0827 60.005 73.52C59.3863 73.9467 58.5383 74.16 57.461 74.16ZM65.0275 67.44V71.664C65.0275 72.0053 65.1075 72.2667 65.2675 72.448C65.4382 72.6293 65.7262 72.72 66.1315 72.72C66.5155 72.72 66.8408 72.688 67.1075 72.624V74.016C66.8195 74.112 66.4675 74.16 66.0515 74.16C64.3555 74.16 63.5075 73.328 63.5075 71.664V67.44H61.9075V66H63.5075V63.92H65.0275V66H67.2675V67.44H65.0275ZM72.7272 74.16C71.9379 74.16 71.2179 73.9787 70.5672 73.616C69.9166 73.2427 69.4046 72.7413 69.0312 72.112C68.6579 71.472 68.4712 70.768 68.4712 70C68.4712 69.232 68.6579 68.5333 69.0312 67.904C69.4046 67.264 69.9166 66.7627 70.5672 66.4C71.2179 66.0267 71.9379 65.84 72.7272 65.84C73.5059 65.84 74.2152 66.0267 74.8552 66.4C75.5059 66.7627 76.0179 67.264 76.3912 67.904C76.7646 68.5333 76.9512 69.232 76.9512 70C76.9512 70.768 76.7646 71.472 76.3912 72.112C76.0179 72.7413 75.5059 73.2427 74.8552 73.616C74.2152 73.9787 73.5059 74.16 72.7272 74.16ZM72.7272 72.752C73.2179 72.752 73.6659 72.6347 74.0712 72.4C74.4766 72.1547 74.7966 71.824 75.0312 71.408C75.2659 70.9813 75.3832 70.512 75.3832 70C75.3832 69.488 75.2659 69.024 75.0312 68.608C74.7966 68.1813 74.4766 67.8507 74.0712 67.616C73.6659 67.3707 73.2179 67.248 72.7272 67.248C72.2259 67.248 71.7672 67.3707 71.3512 67.616C70.9459 67.8507 70.6259 68.1813 70.3912 68.608C70.1566 69.024 70.0392 69.488 70.0392 70C70.0392 70.512 70.1566 70.9813 70.3912 71.408C70.6259 71.824 70.9459 72.1547 71.3512 72.4C71.7672 72.6347 72.2259 72.752 72.7272 72.752ZM88.945 65.84C89.585 65.84 90.1557 65.9787 90.657 66.256C91.169 66.5333 91.569 66.9547 91.857 67.52C92.1557 68.0747 92.305 68.7573 92.305 69.568V74H90.785V69.6C90.785 68.896 90.5823 68.336 90.177 67.92C89.7823 67.504 89.281 67.296 88.673 67.296C88.0117 67.296 87.4783 67.5307 87.073 68C86.6677 68.4693 86.465 69.0453 86.465 69.728V74H84.945V69.6C84.945 68.896 84.7423 68.336 84.337 67.92C83.9423 67.504 83.441 67.296 82.833 67.296C82.1717 67.296 81.6383 67.5307 81.233 68C80.8277 68.4693 80.625 69.0453 80.625 69.728V74H79.105V66H80.545V67.264C80.833 66.8267 81.201 66.48 81.649 66.224C82.1077 65.968 82.593 65.84 83.105 65.84C83.7343 65.84 84.2997 65.9787 84.801 66.256C85.313 66.5227 85.7077 66.9227 85.985 67.456C86.2943 66.9653 86.7103 66.576 87.233 66.288C87.7663 65.9893 88.337 65.84 88.945 65.84ZM102.639 74.16C101.636 74.16 100.788 73.9253 100.095 73.456C99.4125 72.976 99.0178 72.3147 98.9111 71.472H100.431C100.57 71.9307 100.826 72.272 101.199 72.496C101.583 72.7093 102.084 72.816 102.703 72.816C103.279 72.816 103.743 72.7253 104.095 72.544C104.447 72.352 104.623 72.1067 104.623 71.808C104.623 71.5093 104.5 71.2747 104.255 71.104C104.02 70.9227 103.578 70.7787 102.927 70.672L102.015 70.512C100.095 70.1707 99.1351 69.3973 99.1351 68.192C99.1351 67.488 99.4445 66.9227 100.063 66.496C100.682 66.0587 101.492 65.84 102.495 65.84C103.402 65.84 104.175 66.0533 104.815 66.48C105.455 66.896 105.86 67.4773 106.031 68.224H104.415C104.287 67.904 104.042 67.6587 103.679 67.488C103.316 67.3067 102.916 67.216 102.479 67.216C101.924 67.216 101.482 67.3013 101.151 67.472C100.831 67.632 100.671 67.856 100.671 68.144C100.671 68.4 100.794 68.6133 101.039 68.784C101.284 68.944 101.679 69.0667 102.223 69.152L103.151 69.312C104.239 69.4933 105.007 69.792 105.455 70.208C105.903 70.6133 106.127 71.1467 106.127 71.808C106.127 72.512 105.812 73.0827 105.183 73.52C104.564 73.9467 103.716 74.16 102.639 74.16ZM111.898 74.16C111.109 74.16 110.389 73.9787 109.738 73.616C109.087 73.2427 108.575 72.7413 108.202 72.112C107.829 71.472 107.642 70.768 107.642 70C107.642 69.232 107.829 68.5333 108.202 67.904C108.575 67.264 109.087 66.7627 109.738 66.4C110.389 66.0267 111.109 65.84 111.898 65.84C112.677 65.84 113.386 66.0267 114.026 66.4C114.677 66.7627 115.189 67.264 115.562 67.904C115.935 68.5333 116.122 69.232 116.122 70C116.122 70.768 115.935 71.472 115.562 72.112C115.189 72.7413 114.677 73.2427 114.026 73.616C113.386 73.9787 112.677 74.16 111.898 74.16ZM111.898 72.752C112.389 72.752 112.837 72.6347 113.242 72.4C113.647 72.1547 113.967 71.824 114.202 71.408C114.437 70.9813 114.554 70.512 114.554 70C114.554 69.488 114.437 69.024 114.202 68.608C113.967 68.1813 113.647 67.8507 113.242 67.616C112.837 67.3707 112.389 67.248 111.898 67.248C111.397 67.248 110.938 67.3707 110.522 67.616C110.117 67.8507 109.797 68.1813 109.562 68.608C109.327 69.024 109.21 69.488 109.21 70C109.21 70.512 109.327 70.9813 109.562 71.408C109.797 71.824 110.117 72.1547 110.522 72.4C110.938 72.6347 111.397 72.752 111.898 72.752ZM123.063 67.44H120.279V74H118.759V67.44H117.159V66H118.759V65.136C118.759 64.3147 118.994 63.696 119.463 63.28C119.943 62.8533 120.647 62.64 121.575 62.64C121.853 62.64 122.13 62.656 122.407 62.688C122.685 62.72 122.882 62.752 122.999 62.784V64.176C122.701 64.112 122.242 64.08 121.623 64.08C121.122 64.08 120.77 64.1707 120.567 64.352C120.375 64.5333 120.279 64.7947 120.279 65.136V66H123.063V67.44ZM125.955 67.44V71.664C125.955 72.0053 126.04 72.2667 126.211 72.448C126.392 72.6293 126.702 72.72 127.139 72.72C127.544 72.72 127.896 72.688 128.195 72.624V74.016C127.886 74.112 127.518 74.16 127.091 74.16C126.216 74.16 125.555 73.952 125.107 73.536C124.659 73.1093 124.435 72.4853 124.435 71.664V67.44H122.835V66H124.435V63.92H125.955V66H129.955V67.44H125.955ZM141.642 66L139.21 74H137.354L135.37 67.84L133.322 74H131.514L129.098 66H130.746L132.458 72.304L134.554 66H136.234L138.298 72.288L140.01 66H141.642ZM150.609 66V74H149.089V72.8C148.759 73.2267 148.359 73.5627 147.889 73.808C147.42 74.0427 146.919 74.16 146.385 74.16C145.681 74.16 145.041 73.984 144.465 73.632C143.889 73.2693 143.436 72.7733 143.105 72.144C142.775 71.5147 142.609 70.8 142.609 70C142.609 69.2 142.775 68.4853 143.105 67.856C143.436 67.2267 143.889 66.736 144.465 66.384C145.041 66.0213 145.681 65.84 146.385 65.84C146.94 65.84 147.457 65.968 147.937 66.224C148.417 66.48 148.828 66.8373 149.169 67.296V66H150.609ZM146.641 72.752C147.111 72.752 147.537 72.6347 147.921 72.4C148.305 72.1653 148.604 71.84 148.817 71.424C149.031 70.9973 149.137 70.5227 149.137 70C149.137 69.4773 149.031 69.008 148.817 68.592C148.604 68.1653 148.305 67.8347 147.921 67.6C147.537 67.3653 147.111 67.248 146.641 67.248C146.172 67.248 145.751 67.3653 145.377 67.6C145.004 67.8347 144.711 68.1653 144.497 68.592C144.284 69.008 144.177 69.4773 144.177 70C144.177 70.5227 144.284 70.9973 144.497 71.424C144.711 71.84 145.004 72.1653 145.377 72.4C145.751 72.6347 146.172 72.752 146.641 72.752ZM157.573 65.84C157.829 65.84 158.069 65.856 158.293 65.888V67.376C158.101 67.3333 157.797 67.312 157.381 67.312C156.912 67.312 156.496 67.4187 156.133 67.632C155.781 67.8453 155.504 68.1333 155.301 68.496C155.109 68.848 155.013 69.2373 155.013 69.664V74H153.493V66H154.933V67.232C155.232 66.8053 155.61 66.4693 156.069 66.224C156.538 65.968 157.04 65.84 157.573 65.84ZM163.111 65.84C163.932 65.84 164.647 66.016 165.255 66.368C165.874 66.72 166.348 67.2213 166.679 67.872C167.01 68.512 167.175 69.264 167.175 70.128C167.175 70.352 167.17 70.5173 167.159 70.624H160.599C160.706 71.2427 160.994 71.7547 161.463 72.16C161.943 72.5547 162.498 72.752 163.127 72.752C164.162 72.752 164.898 72.3733 165.335 71.616H166.903C166.647 72.3627 166.172 72.976 165.479 73.456C164.786 73.9253 164.002 74.16 163.127 74.16C162.348 74.16 161.644 73.984 161.015 73.632C160.386 73.2693 159.895 72.7733 159.543 72.144C159.191 71.504 159.015 70.7893 159.015 70C159.015 69.2107 159.191 68.5013 159.543 67.872C159.895 67.232 160.38 66.736 160.999 66.384C161.628 66.0213 162.332 65.84 163.111 65.84ZM163.079 67.184C162.45 67.184 161.906 67.3813 161.447 67.776C160.999 68.1707 160.722 68.6773 160.615 69.296H165.527C165.463 68.656 165.202 68.144 164.743 67.76C164.295 67.376 163.74 67.184 163.079 67.184ZM17.3988 84.72V96H15.8788V94.8C15.5481 95.2267 15.1481 95.5627 14.6788 95.808C14.2094 96.0427 13.7081 96.16 13.1748 96.16C12.4708 96.16 11.8308 95.984 11.2548 95.632C10.6788 95.2693 10.2254 94.7733 9.89475 94.144C9.56409 93.5147 9.39875 92.8 9.39875 92C9.39875 91.2 9.56409 90.4853 9.89475 89.856C10.2254 89.2267 10.6788 88.736 11.2548 88.384C11.8308 88.0213 12.4708 87.84 13.1748 87.84C13.7294 87.84 14.2468 87.968 14.7268 88.224C15.2068 88.48 15.6174 88.8373 15.9588 89.296V84.72H17.3988ZM13.4308 94.752C13.9001 94.752 14.3268 94.6347 14.7108 94.4C15.0948 94.1653 15.3934 93.84 15.6068 93.424C15.8201 92.9973 15.9268 92.5227 15.9268 92C15.9268 91.4773 15.8201 91.008 15.6068 90.592C15.3934 90.1653 15.0948 89.8347 14.7108 89.6C14.3268 89.3653 13.9001 89.248 13.4308 89.248C12.9614 89.248 12.5401 89.3653 12.1668 89.6C11.7934 89.8347 11.5001 90.1653 11.2868 90.592C11.0734 91.008 10.9668 91.4773 10.9668 92C10.9668 92.5227 11.0734 92.9973 11.2868 93.424C11.5001 93.84 11.7934 94.1653 12.1668 94.4C12.5401 94.6347 12.9614 94.752 13.4308 94.752ZM23.6585 87.84C24.4798 87.84 25.1945 88.016 25.8025 88.368C26.4212 88.72 26.8958 89.2213 27.2265 89.872C27.5572 90.512 27.7225 91.264 27.7225 92.128C27.7225 92.352 27.7172 92.5173 27.7065 92.624H21.1465C21.2532 93.2427 21.5412 93.7547 22.0105 94.16C22.4905 94.5547 23.0452 94.752 23.6745 94.752C24.7092 94.752 25.4452 94.3733 25.8825 93.616H27.4505C27.1945 94.3627 26.7198 94.976 26.0265 95.456C25.3332 95.9253 24.5492 96.16 23.6745 96.16C22.8958 96.16 22.1918 95.984 21.5625 95.632C20.9332 95.2693 20.4425 94.7733 20.0905 94.144C19.7385 93.504 19.5625 92.7893 19.5625 92C19.5625 91.2107 19.7385 90.5013 20.0905 89.872C20.4425 89.232 20.9278 88.736 21.5465 88.384C22.1758 88.0213 22.8798 87.84 23.6585 87.84ZM23.6265 89.184C22.9972 89.184 22.4532 89.3813 21.9945 89.776C21.5465 90.1707 21.2692 90.6773 21.1625 91.296H26.0745C26.0105 90.656 25.7492 90.144 25.2905 89.76C24.8425 89.376 24.2878 89.184 23.6265 89.184ZM37.3153 88L33.8753 96H31.8913L28.4513 88H30.1473L32.9153 94.496L35.6673 88H37.3153ZM42.1423 87.84C42.9636 87.84 43.6783 88.016 44.2863 88.368C44.9049 88.72 45.3796 89.2213 45.7103 89.872C46.0409 90.512 46.2063 91.264 46.2063 92.128C46.2063 92.352 46.2009 92.5173 46.1903 92.624H39.6303C39.7369 93.2427 40.0249 93.7547 40.4943 94.16C40.9743 94.5547 41.5289 94.752 42.1583 94.752C43.1929 94.752 43.9289 94.3733 44.3663 93.616H45.9343C45.6783 94.3627 45.2036 94.976 44.5103 95.456C43.8169 95.9253 43.0329 96.16 42.1583 96.16C41.3796 96.16 40.6756 95.984 40.0463 95.632C39.4169 95.2693 38.9263 94.7733 38.5743 94.144C38.2223 93.504 38.0463 92.7893 38.0463 92C38.0463 91.2107 38.2223 90.5013 38.5743 89.872C38.9263 89.232 39.4116 88.736 40.0303 88.384C40.6596 88.0213 41.3636 87.84 42.1423 87.84ZM42.1103 89.184C41.4809 89.184 40.9369 89.3813 40.4783 89.776C40.0303 90.1707 39.7529 90.6773 39.6463 91.296H44.5583C44.4943 90.656 44.2329 90.144 43.7743 89.76C43.3263 89.376 42.7716 89.184 42.1103 89.184ZM49.8875 84.72V96H48.3675V84.72H49.8875ZM56.3016 96.16C55.5123 96.16 54.7923 95.9787 54.1416 95.616C53.491 95.2427 52.979 94.7413 52.6056 94.112C52.2323 93.472 52.0456 92.768 52.0456 92C52.0456 91.232 52.2323 90.5333 52.6056 89.904C52.979 89.264 53.491 88.7627 54.1416 88.4C54.7923 88.0267 55.5123 87.84 56.3016 87.84C57.0803 87.84 57.7896 88.0267 58.4296 88.4C59.0803 88.7627 59.5923 89.264 59.9656 89.904C60.339 90.5333 60.5256 91.232 60.5256 92C60.5256 92.768 60.339 93.472 59.9656 94.112C59.5923 94.7413 59.0803 95.2427 58.4296 95.616C57.7896 95.9787 57.0803 96.16 56.3016 96.16ZM56.3016 94.752C56.7923 94.752 57.2403 94.6347 57.6456 94.4C58.051 94.1547 58.371 93.824 58.6056 93.408C58.8403 92.9813 58.9576 92.512 58.9576 92C58.9576 91.488 58.8403 91.024 58.6056 90.608C58.371 90.1813 58.051 89.8507 57.6456 89.616C57.2403 89.3707 56.7923 89.248 56.3016 89.248C55.8003 89.248 55.3416 89.3707 54.9256 89.616C54.5203 89.8507 54.2003 90.1813 53.9656 90.608C53.731 91.024 53.6136 91.488 53.6136 92C53.6136 92.512 53.731 92.9813 53.9656 93.408C54.2003 93.824 54.5203 94.1547 54.9256 94.4C55.3416 94.6347 55.8003 94.752 56.3016 94.752ZM66.9034 87.84C67.6074 87.84 68.2474 88.0213 68.8234 88.384C69.3994 88.736 69.8527 89.2267 70.1834 89.856C70.514 90.4853 70.6794 91.2 70.6794 92C70.6794 92.8 70.514 93.5147 70.1834 94.144C69.8527 94.7733 69.3994 95.2693 68.8234 95.632C68.2474 95.984 67.6074 96.16 66.9034 96.16C66.37 96.16 65.8687 96.0427 65.3994 95.808C64.93 95.5627 64.53 95.2267 64.1994 94.8V98.72H62.6794V88H64.1194V89.296C64.4607 88.8373 64.8714 88.48 65.3514 88.224C65.8314 87.968 66.3487 87.84 66.9034 87.84ZM66.6474 94.752C67.1167 94.752 67.538 94.6347 67.9114 94.4C68.2847 94.1653 68.578 93.84 68.7914 93.424C69.0047 92.9973 69.1114 92.5227 69.1114 92C69.1114 91.4773 69.0047 91.008 68.7914 90.592C68.578 90.1653 68.2847 89.8347 67.9114 89.6C67.538 89.3653 67.1167 89.248 66.6474 89.248C66.178 89.248 65.7514 89.3653 65.3674 89.6C64.9834 89.8347 64.6847 90.1653 64.4714 90.592C64.258 91.008 64.1514 91.4773 64.1514 92C64.1514 92.5227 64.258 92.9973 64.4714 93.424C64.6847 93.84 64.9834 94.1653 65.3674 94.4C65.7514 94.6347 66.178 94.752 66.6474 94.752ZM82.6831 87.84C83.3231 87.84 83.8938 87.9787 84.3951 88.256C84.9071 88.5333 85.3071 88.9547 85.5951 89.52C85.8938 90.0747 86.0431 90.7573 86.0431 91.568V96H84.5231V91.6C84.5231 90.896 84.3205 90.336 83.9151 89.92C83.5205 89.504 83.0191 89.296 82.4111 89.296C81.7498 89.296 81.2165 89.5307 80.8111 90C80.4058 90.4693 80.2031 91.0453 80.2031 91.728V96H78.6831V91.6C78.6831 90.896 78.4805 90.336 78.0751 89.92C77.6805 89.504 77.1791 89.296 76.5711 89.296C75.9098 89.296 75.3765 89.5307 74.9711 90C74.5658 90.4693 74.3631 91.0453 74.3631 91.728V96H72.8431V88H74.2831V89.264C74.5711 88.8267 74.9391 88.48 75.3871 88.224C75.8458 87.968 76.3311 87.84 76.8431 87.84C77.4725 87.84 78.0378 87.9787 78.5391 88.256C79.0511 88.5227 79.4458 88.9227 79.7231 89.456C80.0325 88.9653 80.4485 88.576 80.9711 88.288C81.5045 87.9893 82.0751 87.84 82.6831 87.84ZM92.1329 87.84C92.9542 87.84 93.6689 88.016 94.2769 88.368C94.8955 88.72 95.3702 89.2213 95.7009 89.872C96.0315 90.512 96.1969 91.264 96.1969 92.128C96.1969 92.352 96.1915 92.5173 96.1809 92.624H89.6209C89.7275 93.2427 90.0155 93.7547 90.4849 94.16C90.9649 94.5547 91.5195 94.752 92.1489 94.752C93.1835 94.752 93.9195 94.3733 94.3569 93.616H95.9249C95.6689 94.3627 95.1942 94.976 94.5009 95.456C93.8075 95.9253 93.0235 96.16 92.1489 96.16C91.3702 96.16 90.6662 95.984 90.0369 95.632C89.4075 95.2693 88.9169 94.7733 88.5649 94.144C88.2129 93.504 88.0369 92.7893 88.0369 92C88.0369 91.2107 88.2129 90.5013 88.5649 89.872C88.9169 89.232 89.4022 88.736 90.0209 88.384C90.6502 88.0213 91.3542 87.84 92.1329 87.84ZM92.1009 89.184C91.4715 89.184 90.9275 89.3813 90.4689 89.776C90.0209 90.1707 89.7435 90.6773 89.6369 91.296H94.5489C94.4849 90.656 94.2235 90.144 93.7649 89.76C93.3169 89.376 92.7622 89.184 92.1009 89.184ZM102.438 87.84C103.089 87.84 103.67 87.9787 104.182 88.256C104.705 88.5333 105.115 88.9547 105.414 89.52C105.723 90.0747 105.878 90.7573 105.878 91.568V96H104.358V91.6C104.358 90.896 104.15 90.336 103.734 89.92C103.318 89.504 102.795 89.296 102.166 89.296C101.707 89.296 101.302 89.408 100.95 89.632C100.609 89.8453 100.342 90.1387 100.15 90.512C99.9688 90.8853 99.8781 91.2907 99.8781 91.728V96H98.3581V88H99.7981V89.28C100.097 88.8427 100.475 88.496 100.934 88.24C101.403 87.9733 101.905 87.84 102.438 87.84ZM110.444 89.44V93.664C110.444 94.0053 110.524 94.2667 110.684 94.448C110.854 94.6293 111.142 94.72 111.548 94.72C111.932 94.72 112.257 94.688 112.524 94.624V96.016C112.236 96.112 111.884 96.16 111.468 96.16C109.772 96.16 108.924 95.328 108.924 93.664V89.44H107.324V88H108.924V85.92H110.444V88H112.684V89.44H110.444ZM118.848 92C118.848 91.232 119.035 90.5333 119.408 89.904C119.781 89.264 120.293 88.7627 120.944 88.4C121.595 88.0267 122.315 87.84 123.104 87.84C123.989 87.84 124.784 88.1013 125.488 88.624C126.203 89.136 126.672 89.808 126.896 90.64H125.232C125.051 90.2133 124.757 89.8773 124.352 89.632C123.957 89.376 123.515 89.248 123.024 89.248C122.523 89.248 122.075 89.3707 121.68 89.616C121.285 89.8507 120.976 90.1813 120.752 90.608C120.528 91.024 120.416 91.488 120.416 92C120.416 92.512 120.528 92.9813 120.752 93.408C120.976 93.824 121.285 94.1547 121.68 94.4C122.075 94.6347 122.523 94.752 123.024 94.752C123.515 94.752 123.957 94.6293 124.352 94.384C124.757 94.128 125.051 93.7867 125.232 93.36H126.896C126.672 94.192 126.203 94.8693 125.488 95.392C124.784 95.904 123.989 96.16 123.104 96.16C122.315 96.16 121.595 95.9787 120.944 95.616C120.293 95.2427 119.781 94.7413 119.408 94.112C119.035 93.472 118.848 92.768 118.848 92ZM132.518 96.16C131.729 96.16 131.009 95.9787 130.358 95.616C129.707 95.2427 129.195 94.7413 128.822 94.112C128.449 93.472 128.262 92.768 128.262 92C128.262 91.232 128.449 90.5333 128.822 89.904C129.195 89.264 129.707 88.7627 130.358 88.4C131.009 88.0267 131.729 87.84 132.518 87.84C133.297 87.84 134.006 88.0267 134.646 88.4C135.297 88.7627 135.809 89.264 136.182 89.904C136.555 90.5333 136.742 91.232 136.742 92C136.742 92.768 136.555 93.472 136.182 94.112C135.809 94.7413 135.297 95.2427 134.646 95.616C134.006 95.9787 133.297 96.16 132.518 96.16ZM132.518 94.752C133.009 94.752 133.457 94.6347 133.862 94.4C134.267 94.1547 134.587 93.824 134.822 93.408C135.057 92.9813 135.174 92.512 135.174 92C135.174 91.488 135.057 91.024 134.822 90.608C134.587 90.1813 134.267 89.8507 133.862 89.616C133.457 89.3707 133.009 89.248 132.518 89.248C132.017 89.248 131.558 89.3707 131.142 89.616C130.737 89.8507 130.417 90.1813 130.182 90.608C129.947 91.024 129.83 91.488 129.83 92C129.83 92.512 129.947 92.9813 130.182 93.408C130.417 93.824 130.737 94.1547 131.142 94.4C131.558 94.6347 132.017 94.752 132.518 94.752ZM148.736 87.84C149.376 87.84 149.946 87.9787 150.448 88.256C150.96 88.5333 151.36 88.9547 151.648 89.52C151.946 90.0747 152.096 90.7573 152.096 91.568V96H150.576V91.6C150.576 90.896 150.373 90.336 149.968 89.92C149.573 89.504 149.072 89.296 148.464 89.296C147.802 89.296 147.269 89.5307 146.864 90C146.458 90.4693 146.256 91.0453 146.256 91.728V96H144.736V91.6C144.736 90.896 144.533 90.336 144.128 89.92C143.733 89.504 143.232 89.296 142.624 89.296C141.962 89.296 141.429 89.5307 141.024 90C140.618 90.4693 140.416 91.0453 140.416 91.728V96H138.896V88H140.336V89.264C140.624 88.8267 140.992 88.48 141.44 88.224C141.898 87.968 142.384 87.84 142.896 87.84C143.525 87.84 144.09 87.9787 144.592 88.256C145.104 88.5227 145.498 88.9227 145.776 89.456C146.085 88.9653 146.501 88.576 147.024 88.288C147.557 87.9893 148.128 87.84 148.736 87.84ZM159.033 87.84C159.737 87.84 160.377 88.0213 160.953 88.384C161.529 88.736 161.983 89.2267 162.313 89.856C162.644 90.4853 162.809 91.2 162.809 92C162.809 92.8 162.644 93.5147 162.313 94.144C161.983 94.7733 161.529 95.2693 160.953 95.632C160.377 95.984 159.737 96.16 159.033 96.16C158.5 96.16 157.999 96.0427 157.529 95.808C157.06 95.5627 156.66 95.2267 156.329 94.8V98.72H154.809V88H156.249V89.296C156.591 88.8373 157.001 88.48 157.481 88.224C157.961 87.968 158.479 87.84 159.033 87.84ZM158.777 94.752C159.247 94.752 159.668 94.6347 160.041 94.4C160.415 94.1653 160.708 93.84 160.921 93.424C161.135 92.9973 161.241 92.5227 161.241 92C161.241 91.4773 161.135 91.008 160.921 90.592C160.708 90.1653 160.415 89.8347 160.041 89.6C159.668 89.3653 159.247 89.248 158.777 89.248C158.308 89.248 157.881 89.3653 157.497 89.6C157.113 89.8347 156.815 90.1653 156.601 90.592C156.388 91.008 156.281 91.4773 156.281 92C156.281 92.5227 156.388 92.9973 156.601 93.424C156.815 93.84 157.113 94.1653 157.497 94.4C157.881 94.6347 158.308 94.752 158.777 94.752ZM172.331 88V96H170.811V94.8C170.481 95.2267 170.081 95.5627 169.611 95.808C169.142 96.0427 168.641 96.16 168.107 96.16C167.403 96.16 166.763 95.984 166.187 95.632C165.611 95.2693 165.158 94.7733 164.827 94.144C164.497 93.5147 164.331 92.8 164.331 92C164.331 91.2 164.497 90.4853 164.827 89.856C165.158 89.2267 165.611 88.736 166.187 88.384C166.763 88.0213 167.403 87.84 168.107 87.84C168.662 87.84 169.179 87.968 169.659 88.224C170.139 88.48 170.55 88.8373 170.891 89.296V88H172.331ZM168.363 94.752C168.833 94.752 169.259 94.6347 169.643 94.4C170.027 94.1653 170.326 93.84 170.539 93.424C170.753 92.9973 170.859 92.5227 170.859 92C170.859 91.4773 170.753 91.008 170.539 90.592C170.326 90.1653 170.027 89.8347 169.643 89.6C169.259 89.3653 168.833 89.248 168.363 89.248C167.894 89.248 167.473 89.3653 167.099 89.6C166.726 89.8347 166.433 90.1653 166.219 90.592C166.006 91.008 165.899 91.4773 165.899 92C165.899 92.5227 166.006 92.9973 166.219 93.424C166.433 93.84 166.726 94.1653 167.099 94.4C167.473 94.6347 167.894 94.752 168.363 94.752ZM179.295 87.84C179.946 87.84 180.527 87.9787 181.039 88.256C181.562 88.5333 181.972 88.9547 182.271 89.52C182.58 90.0747 182.735 90.7573 182.735 91.568V96H181.215V91.6C181.215 90.896 181.007 90.336 180.591 89.92C180.175 89.504 179.652 89.296 179.023 89.296C178.564 89.296 178.159 89.408 177.807 89.632C177.466 89.8453 177.199 90.1387 177.007 90.512C176.826 90.8853 176.735 91.2907 176.735 91.728V96H175.215V88H176.655V89.28C176.954 88.8427 177.332 88.496 177.791 88.24C178.26 87.9733 178.762 87.84 179.295 87.84ZM193 88L188.312 98.72H186.664L187.928 95.856L184.024 88H185.832L188.728 94.24L191.32 88H193Z"
        fill="#F1EFED"
    />
    <path
        d="M57.07 30.128H52.57V41H50.77V30.128H46.27V28.4H57.07V30.128ZM64.7214 41.18C63.5094 41.18 62.3994 40.898 61.3914 40.334C60.3834 39.758 59.5914 38.978 59.0154 37.994C58.4394 36.998 58.1514 35.9 58.1514 34.7C58.1514 33.5 58.4394 32.408 59.0154 31.424C59.5914 30.428 60.3834 29.648 61.3914 29.084C62.3994 28.508 63.5094 28.22 64.7214 28.22C65.9334 28.22 67.0434 28.508 68.0514 29.084C69.0594 29.648 69.8514 30.428 70.4274 31.424C71.0034 32.408 71.2914 33.5 71.2914 34.7C71.2914 35.9 71.0034 36.998 70.4274 37.994C69.8514 38.978 69.0594 39.758 68.0514 40.334C67.0434 40.898 65.9334 41.18 64.7214 41.18ZM64.7214 39.452C65.5854 39.452 66.3714 39.242 67.0794 38.822C67.7994 38.402 68.3634 37.832 68.7714 37.112C69.1914 36.38 69.4014 35.576 69.4014 34.7C69.4014 33.824 69.1914 33.026 68.7714 32.306C68.3634 31.574 67.7994 30.998 67.0794 30.578C66.3714 30.158 65.5854 29.948 64.7214 29.948C63.8574 29.948 63.0654 30.158 62.3454 30.578C61.6374 30.998 61.0734 31.574 60.6534 32.306C60.2454 33.026 60.0414 33.824 60.0414 34.7C60.0414 35.576 60.2454 36.38 60.6534 37.112C61.0734 37.832 61.6374 38.402 62.3454 38.822C63.0654 39.242 63.8574 39.452 64.7214 39.452ZM80.135 28.4C80.975 28.4 81.695 28.562 82.295 28.886C82.907 29.198 83.369 29.636 83.681 30.2C84.005 30.752 84.167 31.382 84.167 32.09C84.167 32.798 84.005 33.434 83.681 33.998C83.369 34.55 82.907 34.988 82.295 35.312C81.695 35.624 80.975 35.78 80.135 35.78H76.427V41H74.627V28.4H80.135ZM80.081 34.106C80.801 34.106 81.347 33.938 81.719 33.602C82.091 33.254 82.277 32.75 82.277 32.09C82.277 31.43 82.091 30.932 81.719 30.596C81.347 30.26 80.801 30.092 80.081 30.092H76.427V34.106H80.081ZM97.337 35.78H94.979V41H93.179V28.4H98.687C99.527 28.4 100.247 28.562 100.847 28.886C101.459 29.198 101.921 29.636 102.233 30.2C102.557 30.752 102.719 31.382 102.719 32.09C102.719 33.038 102.437 33.848 101.873 34.52C101.309 35.18 100.517 35.582 99.497 35.726L103.691 41H101.423L97.337 35.78ZM94.979 34.142H98.579C99.299 34.142 99.851 33.968 100.235 33.62C100.631 33.26 100.829 32.75 100.829 32.09C100.829 31.43 100.631 30.926 100.235 30.578C99.851 30.218 99.299 30.038 98.579 30.038H94.979V34.142ZM114.952 38.12H108.148L106.906 41H104.944L110.596 28.4H112.612L118.264 41H116.194L114.952 38.12ZM114.25 36.464L111.568 30.254L108.868 36.464H114.25ZM128.616 30.128H124.116V41H122.316V30.128H117.816V28.4H128.616V30.128ZM133.204 30.092V33.854H139.324V35.546H133.204V39.308H139.864V41H131.404V28.4H139.864V30.092H133.204ZM147.786 28.4C149.13 28.4 150.294 28.676 151.278 29.228C152.274 29.78 153.036 30.536 153.564 31.496C154.092 32.444 154.356 33.512 154.356 34.7C154.356 35.888 154.092 36.962 153.564 37.922C153.036 38.87 152.274 39.62 151.278 40.172C150.294 40.724 149.13 41 147.786 41H143.466V28.4H147.786ZM147.786 39.272C148.734 39.272 149.562 39.086 150.27 38.714C150.978 38.342 151.518 37.814 151.89 37.13C152.274 36.434 152.466 35.624 152.466 34.7C152.466 33.776 152.274 32.972 151.89 32.288C151.518 31.592 150.978 31.058 150.27 30.686C149.562 30.314 148.734 30.128 147.786 30.128H145.266V39.272H147.786Z"
        fill="#8F8E93"
    />
    <path
        d="M64.49 114V121H63.16V119.95C62.8707 120.323 62.5207 120.617 62.11 120.832C61.6993 121.037 61.2607 121.14 60.794 121.14C60.178 121.14 59.618 120.986 59.114 120.678C58.61 120.361 58.2133 119.927 57.924 119.376C57.6347 118.825 57.49 118.2 57.49 117.5C57.49 116.8 57.6347 116.175 57.924 115.624C58.2133 115.073 58.61 114.644 59.114 114.336C59.618 114.019 60.178 113.86 60.794 113.86C61.2793 113.86 61.732 113.972 62.152 114.196C62.572 114.42 62.9313 114.733 63.23 115.134V114H64.49ZM61.018 119.908C61.4287 119.908 61.802 119.805 62.138 119.6C62.474 119.395 62.7353 119.11 62.922 118.746C63.1087 118.373 63.202 117.957 63.202 117.5C63.202 117.043 63.1087 116.632 62.922 116.268C62.7353 115.895 62.474 115.605 62.138 115.4C61.802 115.195 61.4287 115.092 61.018 115.092C60.6073 115.092 60.2387 115.195 59.912 115.4C59.5853 115.605 59.3287 115.895 59.142 116.268C58.9553 116.632 58.862 117.043 58.862 117.5C58.862 117.957 58.9553 118.373 59.142 118.746C59.3287 119.11 59.5853 119.395 59.912 119.6C60.2387 119.805 60.6073 119.908 61.018 119.908ZM66.2433 117.5C66.2433 116.828 66.4066 116.217 66.7333 115.666C67.0599 115.106 67.5079 114.667 68.0773 114.35C68.6466 114.023 69.2766 113.86 69.9673 113.86C70.7419 113.86 71.4373 114.089 72.0533 114.546C72.6786 114.994 73.0893 115.582 73.2853 116.31H71.8293C71.6706 115.937 71.4139 115.643 71.0593 115.428C70.7139 115.204 70.3266 115.092 69.8973 115.092C69.4586 115.092 69.0666 115.199 68.7213 115.414C68.3759 115.619 68.1053 115.909 67.9093 116.282C67.7133 116.646 67.6153 117.052 67.6153 117.5C67.6153 117.948 67.7133 118.359 67.9093 118.732C68.1053 119.096 68.3759 119.385 68.7213 119.6C69.0666 119.805 69.4586 119.908 69.8973 119.908C70.3266 119.908 70.7139 119.801 71.0593 119.586C71.4139 119.362 71.6706 119.063 71.8293 118.69H73.2853C73.0893 119.418 72.6786 120.011 72.0533 120.468C71.4373 120.916 70.7419 121.14 69.9673 121.14C69.2766 121.14 68.6466 120.981 68.0773 120.664C67.5079 120.337 67.0599 119.899 66.7333 119.348C66.4066 118.788 66.2433 118.172 66.2433 117.5ZM74.3403 117.5C74.3403 116.828 74.5036 116.217 74.8303 115.666C75.157 115.106 75.605 114.667 76.1743 114.35C76.7436 114.023 77.3736 113.86 78.0643 113.86C78.839 113.86 79.5343 114.089 80.1503 114.546C80.7756 114.994 81.1863 115.582 81.3823 116.31H79.9263C79.7676 115.937 79.511 115.643 79.1563 115.428C78.811 115.204 78.4236 115.092 77.9943 115.092C77.5556 115.092 77.1636 115.199 76.8183 115.414C76.473 115.619 76.2023 115.909 76.0063 116.282C75.8103 116.646 75.7123 117.052 75.7123 117.5C75.7123 117.948 75.8103 118.359 76.0063 118.732C76.2023 119.096 76.473 119.385 76.8183 119.6C77.1636 119.805 77.5556 119.908 77.9943 119.908C78.4236 119.908 78.811 119.801 79.1563 119.586C79.511 119.362 79.7676 119.063 79.9263 118.69H81.3823C81.1863 119.418 80.7756 120.011 80.1503 120.468C79.5343 120.916 78.839 121.14 78.0643 121.14C77.3736 121.14 76.7436 120.981 76.1743 120.664C75.605 120.337 75.157 119.899 74.8303 119.348C74.5036 118.788 74.3403 118.172 74.3403 117.5ZM86.1613 121.14C85.4707 121.14 84.8407 120.981 84.2713 120.664C83.702 120.337 83.254 119.899 82.9273 119.348C82.6007 118.788 82.4373 118.172 82.4373 117.5C82.4373 116.828 82.6007 116.217 82.9273 115.666C83.254 115.106 83.702 114.667 84.2713 114.35C84.8407 114.023 85.4707 113.86 86.1613 113.86C86.8427 113.86 87.4633 114.023 88.0233 114.35C88.5927 114.667 89.0407 115.106 89.3673 115.666C89.694 116.217 89.8573 116.828 89.8573 117.5C89.8573 118.172 89.694 118.788 89.3673 119.348C89.0407 119.899 88.5927 120.337 88.0233 120.664C87.4633 120.981 86.8427 121.14 86.1613 121.14ZM86.1613 119.908C86.5907 119.908 86.9827 119.805 87.3373 119.6C87.692 119.385 87.972 119.096 88.1773 118.732C88.3827 118.359 88.4853 117.948 88.4853 117.5C88.4853 117.052 88.3827 116.646 88.1773 116.282C87.972 115.909 87.692 115.619 87.3373 115.414C86.9827 115.199 86.5907 115.092 86.1613 115.092C85.7227 115.092 85.3213 115.199 84.9573 115.414C84.6027 115.619 84.3227 115.909 84.1173 116.282C83.912 116.646 83.8093 117.052 83.8093 117.5C83.8093 117.948 83.912 118.359 84.1173 118.732C84.3227 119.096 84.6027 119.385 84.9573 119.6C85.3213 119.805 85.7227 119.908 86.1613 119.908ZM95.1719 113.86C95.3959 113.86 95.6059 113.874 95.8019 113.902V115.204C95.6339 115.167 95.3679 115.148 95.0039 115.148C94.5932 115.148 94.2292 115.241 93.9119 115.428C93.6039 115.615 93.3612 115.867 93.1839 116.184C93.0159 116.492 92.9319 116.833 92.9319 117.206V121H91.6019V114H92.8619V115.078C93.1232 114.705 93.4545 114.411 93.8559 114.196C94.2665 113.972 94.7052 113.86 95.1719 113.86ZM103.294 111.13V121H101.964V119.95C101.674 120.323 101.324 120.617 100.914 120.832C100.503 121.037 100.064 121.14 99.5975 121.14C98.9815 121.14 98.4215 120.986 97.9175 120.678C97.4135 120.361 97.0168 119.927 96.7275 119.376C96.4382 118.825 96.2935 118.2 96.2935 117.5C96.2935 116.8 96.4382 116.175 96.7275 115.624C97.0168 115.073 97.4135 114.644 97.9175 114.336C98.4215 114.019 98.9815 113.86 99.5975 113.86C100.083 113.86 100.536 113.972 100.956 114.196C101.376 114.42 101.735 114.733 102.034 115.134V111.13H103.294ZM99.8215 119.908C100.232 119.908 100.606 119.805 100.942 119.6C101.278 119.395 101.539 119.11 101.726 118.746C101.912 118.373 102.006 117.957 102.006 117.5C102.006 117.043 101.912 116.632 101.726 116.268C101.539 115.895 101.278 115.605 100.942 115.4C100.606 115.195 100.232 115.092 99.8215 115.092C99.4108 115.092 99.0422 115.195 98.7155 115.4C98.3888 115.605 98.1322 115.895 97.9455 116.268C97.7588 116.632 97.6655 117.043 97.6655 117.5C97.6655 117.957 97.7588 118.373 97.9455 118.746C98.1322 119.11 98.3888 119.395 98.7155 119.6C99.0422 119.805 99.4108 119.908 99.8215 119.908ZM107.007 114V121H105.677V114H107.007ZM107.091 111.2V112.74H105.607V111.2H107.091ZM112.955 113.86C113.524 113.86 114.033 113.981 114.481 114.224C114.938 114.467 115.298 114.835 115.559 115.33C115.83 115.815 115.965 116.413 115.965 117.122V121H114.635V117.15C114.635 116.534 114.453 116.044 114.089 115.68C113.725 115.316 113.268 115.134 112.717 115.134C112.316 115.134 111.961 115.232 111.653 115.428C111.354 115.615 111.121 115.871 110.953 116.198C110.794 116.525 110.715 116.879 110.715 117.262V121H109.385V114H110.645V115.12C110.906 114.737 111.238 114.434 111.639 114.21C112.05 113.977 112.488 113.86 112.955 113.86ZM124.577 117.192C124.577 117.789 124.437 118.331 124.157 118.816C123.877 119.301 123.457 119.679 122.897 119.95C123.345 120.081 123.671 120.277 123.877 120.538C124.091 120.799 124.199 121.107 124.199 121.462C124.199 122.022 123.993 122.479 123.583 122.834C123.181 123.198 122.659 123.38 122.015 123.38H120.153C119.518 123.38 118.995 123.207 118.585 122.862C118.174 122.517 117.969 122.073 117.969 121.532C117.969 120.785 118.398 120.263 119.257 119.964C118.725 119.731 118.309 119.357 118.011 118.844C117.721 118.331 117.577 117.78 117.577 117.192C117.577 116.585 117.726 116.035 118.025 115.54C118.333 115.036 118.753 114.639 119.285 114.35C119.817 114.061 120.4 113.916 121.035 113.916C121.931 113.916 122.691 114.261 123.317 114.952V113.986H124.577V117.192ZM121.077 119.432C121.497 119.432 121.875 119.334 122.211 119.138C122.547 118.942 122.808 118.676 122.995 118.34C123.191 118.004 123.289 117.626 123.289 117.206C123.289 116.795 123.191 116.427 122.995 116.1C122.808 115.773 122.547 115.517 122.211 115.33C121.875 115.143 121.497 115.05 121.077 115.05C120.451 115.05 119.933 115.255 119.523 115.666C119.121 116.067 118.921 116.581 118.921 117.206C118.921 117.841 119.121 118.368 119.523 118.788C119.933 119.208 120.451 119.423 121.077 119.432ZM121.903 122.316C122.201 122.316 122.449 122.237 122.645 122.078C122.85 121.919 122.953 121.723 122.953 121.49C122.953 121.238 122.855 121.028 122.659 120.86C122.463 120.692 122.211 120.608 121.903 120.608H120.251C119.943 120.608 119.691 120.692 119.495 120.86C119.299 121.028 119.201 121.238 119.201 121.49C119.201 121.723 119.299 121.919 119.495 122.078C119.7 122.237 119.952 122.316 120.251 122.316H121.903ZM132.487 115.26V118.956C132.487 119.255 132.557 119.483 132.697 119.642C132.846 119.801 133.098 119.88 133.453 119.88C133.789 119.88 134.073 119.852 134.307 119.796V121.014C134.055 121.098 133.747 121.14 133.383 121.14C131.899 121.14 131.157 120.412 131.157 118.956V115.26H129.757V114H131.157V112.18H132.487V114H134.447V115.26H132.487ZM139.084 121.14C138.393 121.14 137.763 120.981 137.194 120.664C136.625 120.337 136.177 119.899 135.85 119.348C135.523 118.788 135.36 118.172 135.36 117.5C135.36 116.828 135.523 116.217 135.85 115.666C136.177 115.106 136.625 114.667 137.194 114.35C137.763 114.023 138.393 113.86 139.084 113.86C139.765 113.86 140.386 114.023 140.946 114.35C141.515 114.667 141.963 115.106 142.29 115.666C142.617 116.217 142.78 116.828 142.78 117.5C142.78 118.172 142.617 118.788 142.29 119.348C141.963 119.899 141.515 120.337 140.946 120.664C140.386 120.981 139.765 121.14 139.084 121.14ZM139.084 119.908C139.513 119.908 139.905 119.805 140.26 119.6C140.615 119.385 140.895 119.096 141.1 118.732C141.305 118.359 141.408 117.948 141.408 117.5C141.408 117.052 141.305 116.646 141.1 116.282C140.895 115.909 140.615 115.619 140.26 115.414C139.905 115.199 139.513 115.092 139.084 115.092C138.645 115.092 138.244 115.199 137.88 115.414C137.525 115.619 137.245 115.909 137.04 116.282C136.835 116.646 136.732 117.052 136.732 117.5C136.732 117.948 136.835 118.359 137.04 118.732C137.245 119.096 137.525 119.385 137.88 119.6C138.244 119.805 138.645 119.908 139.084 119.908Z"
        fill="#8F8E93"
    />
    <path opacity="0.5" d="M38 126L163 126" stroke="#8F8E93" stroke-width="0.5" />
    <path d="M77.4936 135H81.827V162H77.4936V135Z" fill="#8F8E93" />
    <path
        d="M96.9 153.444C96.9 157.627 93.5086 158.007 92.3781 158.007C89.7404 158.007 89.3635 155.535 89.3635 154.204V143.747H85.0301V154.014C85.0301 156.486 85.7837 158.768 87.291 160.098C88.6099 161.429 90.3056 162 92.3781 162C93.8854 162 95.7696 161.62 96.9 160.479V162H101.234V143.747H96.9V153.444Z"
        fill="#8F8E93"
    />
    <path d="M110.506 137.092H106.172V143.747H102.969V147.93H106.172V162H110.506V147.93H113.709V143.747H110.506V137.092Z" fill="#8F8E93" />
    <path
        d="M127.275 156.486C126.333 157.246 125.014 157.817 123.695 157.817C120.68 157.817 118.608 155.535 118.608 152.493C118.608 149.451 120.68 147.359 123.695 147.359C125.014 147.359 126.333 147.739 127.275 148.69L127.84 149.261L130.854 146.408L130.101 145.838C128.405 144.317 126.144 143.366 123.695 143.366C118.419 143.366 114.463 147.359 114.463 152.683C114.463 158.007 118.419 162 123.695 162C126.144 162 128.405 161.049 130.101 159.528L130.854 158.958L127.84 155.915L127.275 156.486Z"
        fill="#8F8E93"
    />
    <path
        d="M146.116 145.267C144.797 143.937 143.478 143.366 141.406 143.366C139.898 143.366 138.391 143.746 137.26 144.887V135H132.927V162H137.26V151.922C137.26 147.739 140.087 147.359 141.217 147.359C143.855 147.359 143.667 149.831 143.667 151.162V161.81H148V151.352C148 148.88 147.435 146.598 146.116 145.267Z"
        fill="#8F8E93"
    />
    <path
        d="M123.506 155.725C125.171 155.725 126.521 154.363 126.521 152.683C126.521 151.003 125.171 149.641 123.506 149.641C121.841 149.641 120.492 151.003 120.492 152.683C120.492 154.363 121.841 155.725 123.506 155.725Z"
        fill="#8F8E93"
    />
    <path
        d="M71.4644 155.345C69.9571 156.866 67.6961 157.817 65.2468 157.817C60.5365 157.817 57.1451 154.014 57.1451 148.88C57.1451 143.746 60.5365 139.944 65.4352 139.944C67.6961 139.944 69.9571 140.894 71.6528 142.606L72.218 143.176L75.0442 140.324L74.479 139.754C72.0296 137.282 68.8266 135.951 65.4352 135.951C58.2755 135.761 53 141.465 53 148.88C53 156.296 58.2755 162 65.2468 162C68.6382 162 72.0296 160.669 74.2906 158.197L74.8558 157.627L72.0296 154.775L71.4644 155.345Z"
        fill="#8F8E93"
    />
</svg>
