<svg width="335" height="383" viewBox="0 0 335 383" fill="none" xmlns="http://www.w3.org/2000/svg">
<rect width="335" height="383" fill="#F1EFED"/>
<path d="M153.613 165.255L159.06 164.268L153.613 165.255Z" fill="black"/>
<path d="M164.531 163.399L170.025 162.632C170.036 162.631 170.048 162.635 170.057 162.643C170.066 162.651 170.073 162.662 170.075 162.675C170.076 162.682 170.076 162.689 170.075 162.696C170.074 162.702 170.072 162.709 170.068 162.714C170.065 162.72 170.06 162.725 170.055 162.728C170.049 162.732 170.043 162.734 170.037 162.735L164.541 163.464C164.534 163.465 164.526 163.462 164.52 163.456C164.514 163.45 164.511 163.442 164.51 163.433C164.51 163.424 164.513 163.416 164.518 163.409C164.523 163.403 164.53 163.399 164.538 163.399L164.531 163.399Z" fill="black"/>
<path d="M175.495 161.971L180.999 161.406C181.01 161.403 181.022 161.402 181.034 161.404C181.045 161.407 181.056 161.412 181.065 161.42C181.075 161.427 181.082 161.437 181.088 161.449C181.094 161.46 181.097 161.473 181.097 161.486C181.098 161.499 181.096 161.511 181.092 161.523C181.087 161.535 181.08 161.546 181.072 161.554C181.063 161.563 181.053 161.569 181.042 161.573C181.031 161.576 181.019 161.577 181.008 161.574L175.502 162.103C175.486 162.103 175.471 162.097 175.459 162.085C175.448 162.074 175.441 162.057 175.44 162.04C175.439 162.022 175.444 162.005 175.455 161.992C175.465 161.98 175.48 161.972 175.495 161.971Z" fill="black"/>
<path d="M186.5 160.937L192.013 160.553C192.028 160.549 192.044 160.548 192.059 160.552C192.075 160.556 192.089 160.563 192.102 160.574C192.114 160.584 192.125 160.598 192.132 160.613C192.14 160.629 192.144 160.646 192.145 160.664C192.146 160.681 192.143 160.699 192.137 160.715C192.131 160.731 192.122 160.745 192.111 160.757C192.099 160.769 192.085 160.778 192.071 160.783C192.056 160.788 192.04 160.789 192.024 160.787L186.51 161.138C186.498 161.139 186.485 161.138 186.474 161.134C186.462 161.13 186.452 161.123 186.442 161.114C186.433 161.106 186.425 161.095 186.419 161.083C186.414 161.071 186.41 161.058 186.409 161.044C186.409 161.03 186.41 161.017 186.415 161.004C186.419 160.991 186.425 160.979 186.434 160.969C186.442 160.959 186.452 160.951 186.464 160.945C186.475 160.94 186.487 160.937 186.5 160.937Z" fill="black"/>
<path d="M197.531 160.252L203.052 160.028C203.07 160.026 203.088 160.029 203.105 160.036C203.122 160.042 203.137 160.053 203.15 160.067C203.163 160.08 203.174 160.097 203.181 160.115C203.188 160.134 203.192 160.154 203.192 160.174C203.194 160.214 203.181 160.253 203.157 160.283C203.133 160.313 203.099 160.331 203.063 160.332L197.541 160.523C197.509 160.525 197.477 160.512 197.453 160.488C197.429 160.463 197.415 160.43 197.413 160.394C197.411 160.358 197.422 160.322 197.444 160.296C197.465 160.269 197.495 160.253 197.528 160.252L197.531 160.252Z" fill="black"/>
<path d="M208.565 159.872L214.092 159.788C214.136 159.785 214.179 159.803 214.212 159.836C214.245 159.869 214.265 159.915 214.267 159.965C214.269 160.014 214.254 160.062 214.225 160.098C214.196 160.134 214.154 160.156 214.111 160.158L208.581 160.209C208.561 160.21 208.541 160.206 208.522 160.198C208.503 160.191 208.486 160.179 208.471 160.163C208.456 160.148 208.444 160.129 208.436 160.109C208.427 160.088 208.423 160.066 208.422 160.043C208.422 160 208.436 159.958 208.463 159.926C208.489 159.894 208.526 159.874 208.565 159.872Z" fill="black"/>
<path d="M219.632 159.765L225.166 159.809C225.194 159.8 225.224 159.799 225.253 159.805C225.282 159.812 225.31 159.825 225.333 159.845C225.357 159.866 225.376 159.891 225.39 159.921C225.403 159.951 225.41 159.984 225.41 160.017C225.41 160.05 225.403 160.082 225.39 160.112C225.377 160.141 225.358 160.167 225.335 160.187C225.311 160.206 225.284 160.22 225.255 160.226C225.226 160.232 225.196 160.23 225.167 160.221L219.633 160.157C219.608 160.157 219.584 160.151 219.562 160.141C219.54 160.13 219.519 160.115 219.502 160.096C219.485 160.076 219.471 160.054 219.462 160.028C219.452 160.003 219.447 159.977 219.447 159.95C219.447 159.922 219.452 159.896 219.461 159.871C219.47 159.846 219.484 159.823 219.501 159.804C219.518 159.785 219.538 159.77 219.56 159.76C219.583 159.75 219.607 159.745 219.631 159.745L219.632 159.765Z" fill="black"/>
<path d="M230.682 159.908L236.221 160.05C236.249 160.051 236.276 160.058 236.301 160.071C236.327 160.083 236.35 160.101 236.369 160.124C236.388 160.146 236.404 160.172 236.414 160.201C236.424 160.23 236.429 160.261 236.428 160.292C236.428 160.322 236.422 160.352 236.411 160.38C236.401 160.408 236.385 160.433 236.365 160.453C236.346 160.474 236.323 160.491 236.298 160.501C236.272 160.512 236.245 160.517 236.218 160.516L230.678 160.35C230.625 160.348 230.574 160.323 230.537 160.28C230.5 160.237 230.479 160.18 230.479 160.12C230.481 160.062 230.503 160.007 230.541 159.967C230.579 159.927 230.63 159.906 230.682 159.908Z" fill="black"/>
<path d="M241.742 160.254L247.285 160.49C247.347 160.497 247.404 160.53 247.444 160.583C247.485 160.637 247.505 160.705 247.5 160.774C247.495 160.843 247.465 160.907 247.418 160.952C247.371 160.996 247.309 161.017 247.248 161.011L241.726 160.757C241.697 160.756 241.669 160.749 241.643 160.736C241.616 160.723 241.593 160.704 241.573 160.68C241.533 160.633 241.511 160.571 241.512 160.506C241.514 160.442 241.538 160.38 241.58 160.336C241.621 160.292 241.677 160.269 241.735 160.271L241.742 160.254Z" fill="black"/>
<path d="M252.79 160.763L258.311 161.074C258.345 161.073 258.378 161.08 258.41 161.093C258.441 161.107 258.47 161.128 258.493 161.155C258.517 161.182 258.536 161.214 258.548 161.249C258.561 161.284 258.567 161.321 258.565 161.359C258.564 161.396 258.556 161.433 258.541 161.467C258.527 161.5 258.506 161.53 258.48 161.554C258.455 161.578 258.425 161.596 258.393 161.607C258.361 161.617 258.327 161.62 258.293 161.615L252.79 161.286C252.731 161.277 252.678 161.244 252.64 161.194C252.601 161.144 252.581 161.079 252.583 161.014C252.585 160.948 252.609 160.886 252.65 160.839C252.691 160.793 252.746 160.765 252.805 160.762L252.79 160.763Z" fill="black"/>
<path d="M263.84 161.413L269.36 161.778C269.429 161.783 269.494 161.819 269.54 161.877C269.587 161.935 269.611 162.011 269.607 162.088C269.606 162.126 269.598 162.163 269.584 162.197C269.569 162.232 269.549 162.262 269.524 162.288C269.498 162.313 269.469 162.333 269.437 162.345C269.405 162.358 269.371 162.363 269.337 162.361L263.816 161.975C263.783 161.973 263.75 161.963 263.72 161.947C263.69 161.931 263.663 161.909 263.641 161.881C263.619 161.853 263.602 161.821 263.59 161.786C263.579 161.751 263.574 161.714 263.576 161.677C263.581 161.604 263.611 161.535 263.66 161.486C263.709 161.436 263.774 161.411 263.84 161.413Z" fill="black"/>
<path d="M274.882 162.167L280.404 162.569C280.476 162.577 280.543 162.615 280.59 162.677C280.638 162.738 280.662 162.818 280.658 162.898C280.653 162.979 280.621 163.054 280.567 163.107C280.514 163.161 280.443 163.189 280.371 163.185L274.852 162.762C274.817 162.759 274.783 162.749 274.751 162.732C274.72 162.714 274.691 162.69 274.668 162.661C274.645 162.631 274.627 162.597 274.615 162.56C274.603 162.523 274.599 162.484 274.601 162.444C274.602 162.405 274.611 162.367 274.627 162.332C274.642 162.297 274.663 162.266 274.689 162.24C274.715 162.214 274.746 162.195 274.779 162.182C274.812 162.17 274.847 162.164 274.882 162.167Z" fill="black"/>
<path d="M285.916 162.99L291.433 163.434C291.471 163.437 291.509 163.448 291.543 163.467C291.578 163.486 291.609 163.513 291.635 163.545C291.66 163.578 291.68 163.616 291.693 163.656C291.705 163.697 291.71 163.74 291.708 163.783C291.704 163.87 291.669 163.952 291.611 164.009C291.553 164.067 291.476 164.096 291.398 164.091L285.885 163.631C285.809 163.624 285.739 163.584 285.689 163.52C285.639 163.457 285.613 163.374 285.617 163.289C285.619 163.247 285.628 163.207 285.644 163.169C285.66 163.131 285.682 163.097 285.71 163.07C285.738 163.042 285.77 163.02 285.806 163.007C285.841 162.993 285.879 162.988 285.916 162.99Z" fill="black"/>
<path d="M296.957 163.941L302.466 164.529C302.509 164.533 302.55 164.546 302.588 164.569C302.626 164.591 302.659 164.622 302.686 164.66C302.713 164.697 302.732 164.74 302.744 164.786C302.755 164.832 302.757 164.88 302.751 164.927C302.748 164.973 302.737 165.016 302.718 165.057C302.699 165.097 302.674 165.132 302.643 165.161C302.611 165.19 302.575 165.211 302.536 165.224C302.497 165.237 302.456 165.241 302.416 165.236L296.917 164.631C296.837 164.622 296.763 164.577 296.712 164.508C296.66 164.438 296.636 164.348 296.643 164.259C296.65 164.17 296.689 164.087 296.751 164.031C296.813 163.974 296.893 163.947 296.973 163.957L296.957 163.941Z" fill="black"/>
<path d="M307.986 165.245C308.471 165.343 308.944 165.514 309.39 165.753C309.526 165.832 309.649 165.938 309.751 166.065C309.824 166.155 309.877 166.262 309.905 166.378C309.932 166.495 309.934 166.617 309.91 166.733C309.866 166.899 309.794 167.053 309.699 167.189C309.628 167.304 309.551 167.415 309.469 167.521C309.146 167.923 308.78 168.279 308.381 168.584C307.995 168.884 307.595 169.161 307.182 169.412C307.146 169.435 307.106 169.449 307.064 169.454C307.023 169.459 306.981 169.455 306.941 169.441C306.901 169.428 306.863 169.406 306.83 169.377C306.797 169.348 306.77 169.312 306.75 169.271C306.729 169.23 306.716 169.185 306.711 169.139C306.706 169.092 306.71 169.045 306.721 169.001C306.732 168.956 306.751 168.914 306.777 168.878C306.803 168.842 306.835 168.811 306.872 168.789C307.663 168.341 308.382 167.749 308.999 167.037C309.066 166.95 309.129 166.859 309.188 166.764C309.234 166.697 309.274 166.625 309.307 166.549C309.307 166.549 309.307 166.549 309.282 166.504C309.227 166.442 309.164 166.389 309.094 166.349C308.704 166.146 308.293 166 307.871 165.914C307.792 165.895 307.723 165.842 307.677 165.768C307.632 165.693 307.614 165.602 307.626 165.514C307.644 165.423 307.694 165.344 307.764 165.295C307.834 165.245 307.919 165.228 308 165.249L307.986 165.245Z" fill="black"/>
<path d="M302.082 171.842L296.852 173.798C296.811 173.817 296.767 173.825 296.723 173.824C296.679 173.823 296.635 173.811 296.595 173.79C296.555 173.77 296.519 173.74 296.489 173.703C296.459 173.666 296.436 173.623 296.422 173.576C296.408 173.529 296.402 173.48 296.405 173.431C296.409 173.381 296.421 173.334 296.442 173.29C296.462 173.247 296.491 173.209 296.525 173.178C296.559 173.147 296.599 173.125 296.642 173.112L301.861 171.173C301.941 171.143 302.028 171.149 302.104 171.191C302.18 171.233 302.239 171.307 302.266 171.396C302.294 171.485 302.289 171.583 302.253 171.667C302.216 171.752 302.151 171.816 302.071 171.846L302.082 171.842Z" fill="black"/>
<path d="M291.638 175.772L286.395 177.676C286.354 177.691 286.311 177.698 286.268 177.694C286.225 177.691 286.183 177.678 286.144 177.656C286.106 177.634 286.071 177.604 286.043 177.567C286.015 177.53 285.994 177.487 285.981 177.441C285.954 177.348 285.961 177.249 285.999 177.163C286.038 177.077 286.106 177.011 286.188 176.981L291.423 175.078C291.505 175.048 291.594 175.056 291.672 175.1C291.749 175.144 291.808 175.22 291.835 175.311C291.862 175.403 291.856 175.503 291.818 175.588C291.78 175.674 291.712 175.739 291.631 175.768L291.638 175.772Z" fill="black"/>
<path d="M281.127 179.5L275.839 181.241C275.796 181.259 275.75 181.268 275.704 181.265C275.657 181.263 275.612 181.25 275.57 181.227C275.528 181.205 275.491 181.172 275.461 181.133C275.431 181.094 275.408 181.048 275.394 180.998C275.381 180.948 275.376 180.896 275.382 180.845C275.387 180.794 275.402 180.744 275.425 180.7C275.448 180.656 275.479 180.617 275.517 180.587C275.554 180.557 275.597 180.536 275.642 180.525L280.938 178.792C280.98 178.773 281.026 178.764 281.072 178.766C281.118 178.768 281.164 178.781 281.205 178.803C281.247 178.826 281.284 178.858 281.314 178.897C281.344 178.936 281.367 178.982 281.38 179.032C281.394 179.081 281.398 179.133 281.393 179.184C281.387 179.235 281.372 179.284 281.349 179.328C281.325 179.372 281.294 179.41 281.256 179.44C281.219 179.469 281.176 179.49 281.131 179.499L281.127 179.5Z" fill="black"/>
<path d="M270.525 182.894L265.191 184.46C265.104 184.485 265.011 184.471 264.933 184.42C264.854 184.369 264.797 184.286 264.773 184.188C264.749 184.091 264.761 183.988 264.806 183.901C264.851 183.815 264.925 183.752 265.012 183.727L270.342 182.17C270.428 182.145 270.52 182.159 270.598 182.21C270.675 182.26 270.732 182.343 270.755 182.44C270.779 182.537 270.767 182.639 270.722 182.725C270.678 182.811 270.604 182.874 270.518 182.899L270.525 182.894Z" fill="black"/>
<path d="M259.835 185.944L254.459 187.331C254.374 187.343 254.287 187.32 254.216 187.265C254.145 187.21 254.095 187.128 254.074 187.034C254.054 186.941 254.066 186.842 254.107 186.758C254.148 186.675 254.216 186.611 254.297 186.581L259.666 185.202C259.754 185.18 259.847 185.197 259.925 185.251C260.003 185.304 260.058 185.39 260.08 185.489C260.101 185.588 260.087 185.692 260.039 185.778C259.992 185.864 259.916 185.926 259.828 185.949L259.835 185.944Z" fill="black"/>
<path d="M249.056 188.616L243.643 189.824C243.565 189.814 243.492 189.776 243.435 189.718C243.377 189.659 243.337 189.581 243.321 189.496C243.305 189.41 243.314 189.322 243.345 189.243C243.377 189.164 243.431 189.099 243.498 189.056L248.923 187.857C248.968 187.847 249.014 187.847 249.058 187.857C249.103 187.867 249.146 187.887 249.184 187.915C249.222 187.944 249.254 187.98 249.28 188.022C249.306 188.065 249.323 188.112 249.333 188.162C249.342 188.212 249.342 188.263 249.334 188.313C249.325 188.363 249.308 188.41 249.283 188.452C249.258 188.495 249.226 188.531 249.188 188.559C249.15 188.587 249.108 188.606 249.064 188.616L249.056 188.616Z" fill="black"/>
<path d="M238.217 190.94L232.772 191.96C232.68 191.974 232.585 191.948 232.508 191.888C232.432 191.827 232.378 191.736 232.358 191.634C232.345 191.53 232.367 191.424 232.421 191.339C232.475 191.253 232.557 191.195 232.649 191.175L238.083 190.16C238.135 190.133 238.191 190.119 238.248 190.121C238.305 190.122 238.361 190.138 238.412 190.168C238.462 190.197 238.506 190.24 238.54 190.291C238.574 190.343 238.597 190.402 238.607 190.465C238.617 190.528 238.614 190.592 238.597 190.653C238.581 190.714 238.553 190.77 238.514 190.816C238.475 190.862 238.427 190.897 238.374 190.919C238.32 190.941 238.263 190.948 238.206 190.941L238.217 190.94Z" fill="black"/>
<path d="M227.315 192.882L221.825 193.726C221.728 193.741 221.629 193.713 221.55 193.647C221.471 193.581 221.419 193.483 221.404 193.374C221.389 193.265 221.414 193.155 221.472 193.068C221.531 192.98 221.618 192.923 221.715 192.908L227.176 192.073C227.228 192.051 227.283 192.042 227.339 192.047C227.394 192.053 227.448 192.072 227.496 192.103C227.544 192.135 227.585 192.178 227.616 192.23C227.647 192.281 227.667 192.34 227.676 192.401C227.684 192.463 227.679 192.525 227.663 192.584C227.646 192.643 227.618 192.697 227.58 192.742C227.542 192.786 227.496 192.821 227.444 192.843C227.392 192.864 227.337 192.873 227.281 192.867L227.315 192.882Z" fill="black"/>
<path d="M216.369 194.503L210.874 195.241C210.825 195.247 210.777 195.243 210.73 195.228C210.683 195.214 210.639 195.189 210.6 195.155C210.523 195.088 210.472 194.989 210.459 194.88C210.447 194.771 210.473 194.662 210.533 194.576C210.593 194.49 210.681 194.435 210.778 194.422L216.274 193.688C216.371 193.675 216.469 193.706 216.547 193.774C216.625 193.841 216.675 193.94 216.688 194.049C216.701 194.158 216.674 194.267 216.614 194.353C216.555 194.439 216.466 194.494 216.369 194.507L216.369 194.503Z" fill="black"/>
<path d="M205.401 195.965L199.905 196.686C199.856 196.692 199.808 196.688 199.761 196.674C199.714 196.659 199.67 196.634 199.632 196.601C199.554 196.533 199.503 196.434 199.49 196.325C199.478 196.217 199.504 196.107 199.564 196.021C199.624 195.935 199.712 195.88 199.809 195.867L205.305 195.137C205.402 195.124 205.501 195.155 205.578 195.223C205.656 195.29 205.707 195.39 205.719 195.498C205.732 195.607 205.705 195.716 205.646 195.802C205.586 195.888 205.498 195.944 205.401 195.957L205.401 195.965Z" fill="black"/>
<path d="M194.444 197.408L188.949 198.154C188.897 198.176 188.841 198.184 188.786 198.178C188.73 198.172 188.677 198.152 188.629 198.119C188.581 198.087 188.541 198.043 188.51 197.991C188.479 197.939 188.46 197.88 188.452 197.818C188.445 197.756 188.45 197.694 188.468 197.635C188.485 197.576 188.514 197.523 188.553 197.479C188.592 197.434 188.639 197.401 188.691 197.38C188.744 197.36 188.8 197.352 188.855 197.359L194.35 196.609C194.445 196.598 194.54 196.628 194.617 196.694C194.693 196.759 194.743 196.855 194.758 196.96C194.768 197.066 194.742 197.171 194.684 197.255C194.626 197.338 194.542 197.393 194.448 197.408L194.444 197.408Z" fill="black"/>
<path d="M183.486 198.925L178.016 199.727C177.938 199.713 177.865 199.672 177.809 199.608C177.752 199.545 177.716 199.463 177.705 199.375C177.693 199.287 177.708 199.198 177.746 199.12C177.784 199.043 177.843 198.981 177.915 198.945L183.389 198.135C183.47 198.145 183.546 198.186 183.605 198.25C183.664 198.315 183.702 198.399 183.714 198.489C183.725 198.58 183.71 198.672 183.669 198.75C183.629 198.829 183.566 198.891 183.49 198.925L183.486 198.925Z" fill="black"/>
<path d="M172.561 200.573L167.107 201.474C167.061 201.482 167.015 201.481 166.97 201.469C166.925 201.457 166.883 201.435 166.845 201.405C166.808 201.374 166.776 201.336 166.752 201.292C166.727 201.248 166.711 201.199 166.704 201.148C166.697 201.097 166.699 201.045 166.71 200.996C166.721 200.946 166.741 200.899 166.768 200.858C166.796 200.817 166.83 200.783 166.87 200.757C166.91 200.732 166.954 200.715 166.999 200.709L172.442 199.801C172.494 199.771 172.551 199.756 172.61 199.757C172.668 199.757 172.725 199.773 172.777 199.803C172.829 199.833 172.874 199.876 172.909 199.929C172.943 199.982 172.966 200.043 172.975 200.107C172.984 200.171 172.98 200.237 172.962 200.299C172.944 200.36 172.913 200.416 172.872 200.462C172.831 200.507 172.781 200.541 172.726 200.561C172.67 200.58 172.611 200.585 172.554 200.574L172.561 200.573Z" fill="black"/>
<path d="M161.648 202.42C160.728 202.543 159.815 202.653 158.92 202.812C158.47 202.888 158.024 202.98 157.587 203.087C157.16 203.186 156.742 203.329 156.339 203.515C156.257 203.555 156.163 203.557 156.078 203.521C155.993 203.484 155.925 203.411 155.887 203.319C155.869 203.273 155.859 203.224 155.858 203.174C155.856 203.124 155.864 203.075 155.88 203.029C155.896 202.982 155.92 202.94 155.95 202.904C155.981 202.868 156.018 202.84 156.058 202.82C156.503 202.611 156.966 202.45 157.44 202.341C157.899 202.224 158.359 202.131 158.816 202.051C159.734 201.891 160.647 201.776 161.566 201.653C161.611 201.647 161.656 201.651 161.7 201.665C161.743 201.679 161.784 201.702 161.82 201.733C161.856 201.764 161.886 201.803 161.908 201.847C161.931 201.89 161.945 201.939 161.951 201.989C161.957 202.039 161.954 202.09 161.942 202.138C161.931 202.187 161.91 202.232 161.883 202.272C161.855 202.311 161.821 202.344 161.782 202.369C161.743 202.394 161.7 202.409 161.655 202.415L161.648 202.42Z" fill="black"/>
<path d="M159.785 205.885C161.552 206.432 163.347 206.859 165.158 207.164C165.246 207.18 165.326 207.235 165.379 207.315C165.432 207.396 165.454 207.497 165.441 207.595C165.427 207.694 165.38 207.782 165.308 207.84C165.236 207.899 165.146 207.923 165.058 207.907C163.218 207.597 161.395 207.165 159.599 206.611C159.513 206.582 159.441 206.516 159.397 206.428C159.353 206.34 159.342 206.237 159.366 206.141C159.378 206.093 159.398 206.049 159.425 206.01C159.452 205.972 159.486 205.94 159.525 205.916C159.564 205.892 159.606 205.877 159.65 205.872C159.694 205.867 159.739 205.871 159.781 205.886L159.785 205.885Z" fill="black"/>
<path d="M170.623 208.066L176.105 208.853C176.189 208.867 176.265 208.916 176.318 208.99C176.371 209.064 176.396 209.157 176.39 209.251C176.38 209.345 176.338 209.431 176.272 209.489C176.205 209.548 176.121 209.575 176.037 209.565L170.541 208.786C170.457 208.773 170.38 208.725 170.326 208.651C170.272 208.577 170.246 208.483 170.252 208.389C170.263 208.294 170.305 208.209 170.371 208.149C170.436 208.089 170.52 208.06 170.605 208.066L170.623 208.066Z" fill="black"/>
<path d="M181.586 209.528L187.088 210.133C187.173 210.143 187.252 210.19 187.307 210.265C187.362 210.34 187.388 210.435 187.38 210.531C187.377 210.578 187.365 210.624 187.345 210.666C187.325 210.708 187.298 210.745 187.265 210.775C187.232 210.805 187.194 210.828 187.153 210.841C187.113 210.854 187.07 210.858 187.027 210.853L181.518 210.252C181.475 210.247 181.434 210.234 181.396 210.211C181.358 210.189 181.324 210.158 181.296 210.121C181.269 210.084 181.248 210.042 181.235 209.996C181.222 209.95 181.218 209.902 181.222 209.854C181.23 209.759 181.271 209.671 181.338 209.61C181.404 209.549 181.489 209.519 181.575 209.528L181.586 209.528Z" fill="black"/>
<path d="M192.603 210.682L198.114 211.163C198.155 211.167 198.196 211.18 198.233 211.201C198.271 211.222 198.304 211.251 198.331 211.287C198.359 211.322 198.38 211.363 198.393 211.407C198.406 211.452 198.412 211.498 198.409 211.545C198.406 211.591 198.395 211.636 198.377 211.678C198.358 211.719 198.332 211.756 198.301 211.786C198.27 211.816 198.233 211.839 198.194 211.854C198.154 211.868 198.112 211.874 198.071 211.87L192.553 211.398C192.51 211.394 192.468 211.38 192.43 211.358C192.391 211.336 192.357 211.305 192.329 211.268C192.301 211.231 192.28 211.188 192.267 211.142C192.254 211.096 192.249 211.048 192.253 211C192.256 210.952 192.267 210.905 192.286 210.862C192.306 210.819 192.333 210.781 192.366 210.75C192.399 210.719 192.437 210.696 192.478 210.683C192.519 210.669 192.563 210.664 192.606 210.67L192.603 210.682Z" fill="black"/>
<path d="M203.617 211.598L209.135 212.001C209.217 212.008 209.293 212.051 209.347 212.121C209.401 212.19 209.429 212.28 209.425 212.371C209.42 212.462 209.384 212.547 209.324 212.609C209.264 212.67 209.185 212.702 209.103 212.698L203.581 212.3C203.54 212.297 203.499 212.285 203.462 212.265C203.425 212.245 203.391 212.217 203.364 212.182C203.336 212.147 203.314 212.107 203.301 212.063C203.287 212.02 203.281 211.974 203.283 211.928C203.285 211.881 203.295 211.836 203.313 211.795C203.331 211.753 203.355 211.716 203.386 211.686C203.417 211.655 203.453 211.632 203.492 211.617C203.531 211.602 203.572 211.595 203.613 211.598L203.617 211.598Z" fill="black"/>
<path d="M214.661 212.387L220.181 212.761C220.258 212.769 220.329 212.811 220.38 212.876C220.431 212.942 220.457 213.027 220.453 213.113C220.449 213.199 220.416 213.28 220.359 213.338C220.303 213.397 220.228 213.428 220.151 213.426L214.631 213.069C214.591 213.066 214.551 213.055 214.514 213.036C214.478 213.017 214.445 212.989 214.417 212.956C214.39 212.922 214.369 212.883 214.355 212.841C214.341 212.798 214.335 212.753 214.337 212.708C214.342 212.617 214.378 212.532 214.439 212.471C214.499 212.411 214.579 212.379 214.66 212.383L214.661 212.387Z" fill="black"/>
<path d="M225.71 213.146L231.231 213.528C231.306 213.533 231.376 213.571 231.426 213.633C231.476 213.696 231.502 213.778 231.498 213.861C231.494 213.944 231.461 214.022 231.406 214.077C231.35 214.132 231.277 214.161 231.203 214.155L225.683 213.79C225.645 213.788 225.608 213.777 225.573 213.759C225.539 213.741 225.508 213.715 225.482 213.684C225.457 213.652 225.437 213.616 225.424 213.576C225.411 213.536 225.405 213.494 225.406 213.451C225.408 213.409 225.417 213.368 225.433 213.329C225.449 213.291 225.471 213.257 225.499 213.229C225.527 213.2 225.56 213.178 225.595 213.164C225.631 213.15 225.669 213.144 225.707 213.146L225.71 213.146Z" fill="black"/>
<path d="M236.737 213.919C237.659 213.997 238.586 214.022 239.493 214.081L242.251 214.222C242.287 214.221 242.323 214.229 242.357 214.244C242.391 214.259 242.422 214.282 242.448 214.311C242.474 214.34 242.494 214.375 242.508 214.413C242.521 214.451 242.527 214.492 242.526 214.532C242.525 214.573 242.516 214.613 242.5 214.65C242.484 214.686 242.462 214.719 242.434 214.745C242.407 214.771 242.374 214.791 242.339 214.802C242.304 214.814 242.268 214.817 242.231 214.813L239.467 214.68C238.542 214.626 237.619 214.605 236.701 214.53C236.665 214.528 236.63 214.517 236.597 214.5C236.565 214.482 236.536 214.457 236.512 214.427C236.488 214.397 236.47 214.361 236.459 214.323C236.447 214.285 236.443 214.245 236.445 214.205C236.45 214.124 236.482 214.049 236.537 213.996C236.591 213.944 236.662 213.917 236.734 213.923L236.737 213.919Z" fill="black"/>
<path d="M247.777 214.382L253.314 214.487C253.346 214.488 253.378 214.495 253.408 214.51C253.438 214.524 253.465 214.545 253.488 214.571C253.511 214.597 253.529 214.628 253.541 214.662C253.554 214.695 253.56 214.732 253.56 214.768C253.56 214.804 253.554 214.84 253.542 214.873C253.53 214.906 253.512 214.936 253.489 214.962C253.466 214.987 253.439 215.007 253.409 215.02C253.379 215.034 253.347 215.04 253.315 215.039L247.779 214.951C247.745 214.951 247.712 214.943 247.68 214.929C247.649 214.914 247.621 214.893 247.597 214.866C247.573 214.839 247.554 214.808 247.541 214.773C247.528 214.738 247.521 214.7 247.521 214.662C247.522 214.586 247.55 214.514 247.599 214.462C247.647 214.409 247.713 214.381 247.781 214.382L247.777 214.382Z" fill="black"/>
<path d="M258.813 214.57L264.348 214.642C264.381 214.639 264.414 214.643 264.445 214.654C264.476 214.666 264.504 214.684 264.529 214.709C264.553 214.734 264.573 214.764 264.586 214.797C264.599 214.831 264.606 214.867 264.606 214.903C264.606 214.94 264.599 214.976 264.586 215.009C264.572 215.042 264.553 215.072 264.528 215.096C264.504 215.12 264.475 215.138 264.444 215.148C264.413 215.159 264.38 215.162 264.348 215.158L258.813 215.106C258.75 215.105 258.69 215.076 258.645 215.026C258.601 214.975 258.576 214.908 258.575 214.837C258.576 214.766 258.601 214.699 258.645 214.649C258.689 214.599 258.75 214.571 258.813 214.57Z" fill="black"/>
<path d="M269.876 214.704L275.412 214.784C275.468 214.786 275.522 214.812 275.561 214.857C275.601 214.902 275.623 214.963 275.623 215.025C275.623 215.057 275.617 215.087 275.607 215.116C275.596 215.145 275.58 215.171 275.56 215.193C275.54 215.214 275.517 215.231 275.491 215.243C275.465 215.254 275.437 215.259 275.409 215.258L269.875 215.198C269.816 215.197 269.76 215.17 269.719 215.124C269.677 215.077 269.653 215.015 269.652 214.95C269.652 214.917 269.658 214.885 269.669 214.855C269.68 214.825 269.696 214.798 269.716 214.775C269.737 214.752 269.761 214.734 269.788 214.722C269.815 214.71 269.843 214.704 269.873 214.704L269.876 214.704Z" fill="black"/>
<path d="M280.937 214.901L286.476 215.043C286.501 215.043 286.527 215.049 286.55 215.061C286.574 215.072 286.596 215.088 286.614 215.109C286.632 215.13 286.646 215.154 286.656 215.181C286.666 215.207 286.671 215.236 286.671 215.264C286.67 215.323 286.648 215.378 286.611 215.419C286.574 215.459 286.523 215.481 286.471 215.48L280.933 215.338C280.879 215.336 280.827 215.31 280.79 215.266C280.752 215.223 280.73 215.165 280.729 215.105C280.73 215.044 280.752 214.987 280.791 214.945C280.83 214.903 280.882 214.88 280.936 214.88L280.937 214.901Z" fill="black"/>
<path d="M291.996 215.307C293.846 215.435 295.676 215.61 297.516 215.759C297.559 215.767 297.598 215.792 297.625 215.83C297.652 215.868 297.666 215.916 297.663 215.964C297.66 216.012 297.641 216.057 297.61 216.091C297.579 216.124 297.538 216.142 297.494 216.143C295.644 216.007 293.81 215.845 291.979 215.724C291.93 215.72 291.884 215.695 291.85 215.655C291.817 215.614 291.798 215.561 291.799 215.506C291.801 215.451 291.822 215.399 291.858 215.362C291.894 215.325 291.942 215.305 291.992 215.307L291.996 215.307Z" fill="black"/>
<path d="M303.026 216.245L308.535 216.846C308.554 216.848 308.572 216.854 308.588 216.864C308.605 216.874 308.619 216.887 308.631 216.903C308.643 216.919 308.652 216.938 308.658 216.958C308.663 216.978 308.665 216.998 308.663 217.019C308.662 217.04 308.656 217.06 308.648 217.078C308.639 217.096 308.627 217.112 308.613 217.126C308.599 217.139 308.583 217.149 308.565 217.154C308.547 217.16 308.528 217.162 308.51 217.16L303.006 216.605C302.964 216.6 302.926 216.576 302.898 216.54C302.871 216.504 302.857 216.457 302.86 216.41C302.862 216.387 302.868 216.365 302.877 216.345C302.887 216.324 302.9 216.306 302.915 216.292C302.931 216.277 302.949 216.266 302.969 216.26C302.989 216.253 303.009 216.251 303.03 216.253L303.026 216.245Z" fill="black"/>
<path d="M314.033 217.665L316.763 218.212L317.444 218.348L318.12 218.512L319.479 218.858C319.504 218.87 319.525 218.891 319.538 218.917C319.551 218.944 319.554 218.975 319.549 219.004C319.543 219.034 319.528 219.06 319.507 219.078C319.486 219.096 319.459 219.105 319.432 219.104L318.082 218.782L317.406 218.621L316.725 218.49L314 217.964C313.97 217.954 313.944 217.932 313.927 217.902C313.91 217.873 313.903 217.837 313.907 217.803C313.912 217.768 313.928 217.737 313.952 217.714C313.976 217.692 314.006 217.68 314.038 217.682L314.033 217.665Z" fill="black"/>
<path d="M324.787 220.675C325.653 221.056 326.488 221.523 327.281 222.07C327.679 222.347 328.051 222.667 328.394 223.025C328.767 223.368 329.037 223.832 329.167 224.351C329.171 224.374 329.167 224.398 329.155 224.418C329.144 224.438 329.126 224.452 329.105 224.457C329.084 224.461 329.062 224.457 329.044 224.444C329.025 224.431 329.012 224.411 329.006 224.387C328.881 223.907 328.627 223.479 328.279 223.162C327.941 222.817 327.575 222.508 327.186 222.239C326.401 221.702 325.573 221.246 324.715 220.876C324.691 220.865 324.672 220.844 324.662 220.818C324.651 220.791 324.651 220.761 324.66 220.735C324.67 220.708 324.688 220.687 324.712 220.676C324.736 220.664 324.763 220.664 324.787 220.675Z" fill="black"/>
<path d="M325.35 228.364C323.673 229.212 321.945 229.915 320.238 230.673C320.231 230.676 320.224 230.677 320.217 230.677C320.211 230.677 320.204 230.675 320.197 230.672C320.191 230.669 320.185 230.665 320.181 230.659C320.176 230.653 320.172 230.647 320.17 230.64C320.167 230.633 320.166 230.625 320.166 230.617C320.166 230.609 320.167 230.602 320.17 230.595C320.173 230.588 320.177 230.582 320.182 230.576C320.187 230.571 320.193 230.567 320.199 230.564C321.907 229.813 323.631 229.103 325.293 228.256C325.301 228.251 325.31 228.248 325.318 228.248C325.327 228.247 325.336 228.248 325.344 228.251C325.353 228.254 325.36 228.259 325.367 228.265C325.374 228.272 325.379 228.28 325.383 228.288C325.391 228.307 325.391 228.327 325.385 228.346C325.379 228.365 325.367 228.38 325.352 228.389L325.35 228.364Z" fill="black"/>
<path d="M315.753 233.803C315.718 234.312 315.861 234.819 316.151 235.217C316.427 235.628 316.748 236 317.105 236.324C317.825 236.971 318.594 237.549 319.402 238.05C319.404 238.052 319.406 238.054 319.408 238.057C319.409 238.06 319.41 238.063 319.41 238.066C319.41 238.069 319.41 238.072 319.408 238.075C319.407 238.078 319.406 238.081 319.403 238.083C319.399 238.086 319.394 238.088 319.389 238.089C319.384 238.089 319.378 238.087 319.374 238.084C318.566 237.584 317.798 237.008 317.077 236.363C316.713 236.037 316.387 235.663 316.104 235.248C315.8 234.837 315.652 234.31 315.69 233.781C315.692 233.773 315.696 233.766 315.702 233.76C315.708 233.755 315.716 233.752 315.723 233.751C315.731 233.751 315.739 233.753 315.745 233.758C315.752 233.763 315.757 233.77 315.76 233.778L315.753 233.803Z" fill="black"/>
<path d="M324.39 240.773L326.129 241.64L324.383 240.786L324.39 240.773Z" fill="black"/>
<path d="M126.289 307.335L241.19 327.752V295.514L189.002 287.957L183.739 287.195L178.206 286.394L174.262 285.823L126.289 278.875V307.335Z" fill="url(#paint0_linear_17880_44856)"/>
<path d="M284.04 268.781L307.677 254.035L279.662 222.231L284.04 268.781Z" fill="#5869DD"/>
<path d="M172.906 189.177L194.078 191.13L223.94 182.295L222.546 182.167L202.767 180.342L172.906 189.177Z" fill="url(#paint1_linear_17880_44856)"/>
<path d="M210.304 258.106L263.352 265.731V215.919C263.352 210.638 259.359 206.21 254.101 205.659L158.996 195.697C152.899 195.058 147.591 199.834 147.591 205.957V249.092L195.564 255.987V248.556L199.508 249.092L205.041 248.694L210.304 246.907V258.106Z" fill="url(#paint2_linear_17880_44856)"/>
<path d="M147.591 249.092L126.289 272.088L174.262 279.035L195.564 256.039V255.987L147.591 249.092Z" fill="url(#paint3_linear_17880_44856)"/>
<path d="M241.19 288.727L263.352 265.731L210.304 258.106V258.174L189.002 281.17L241.19 288.727Z" fill="url(#paint4_linear_17880_44856)"/>
<path d="M241.19 327.752L260.403 313.592V300.5V283.528L241.19 295.514V327.752Z" fill="#5869DD"/>
<path d="M241.19 295.514L260.403 283.528L268.06 278.751V212.158C268.06 206.877 264.067 202.448 258.809 201.898L235.595 199.756L231.339 199.363L186.588 195.234L158.996 192.688C157.835 192.566 156.702 192.641 155.629 192.885L154.358 193.261C150.439 194.702 147.591 198.463 147.591 202.948V205.957C147.591 199.834 152.899 195.058 158.996 195.697L254.101 205.659C259.359 206.21 263.352 210.638 263.352 215.919V265.731L241.19 288.727V295.514Z" fill="#5869DD"/>
<path d="M270.668 306.027V301.023C270.668 297.673 266.851 295.748 264.152 297.737V310.829L270.668 306.027Z" fill="black"/>
<path d="M260.403 300.5V313.592L264.152 310.829V297.737L260.403 300.5Z" fill="#5869DD"/>
<path d="M178.206 286.394L183.739 287.195V280.408L178.206 279.606V286.394Z" fill="black"/>
<path d="M174.262 279.035L178.206 279.606L199.508 256.61L195.564 256.039L174.262 279.035Z" fill="#5869DD"/>
<path d="M183.739 280.408L189.002 281.17L210.304 258.174L205.041 257.411L183.739 280.408Z" fill="#5869DD"/>
<path d="M205.041 248.694V257.35L210.304 258.106V246.907L205.041 248.694Z" fill="#5869DD"/>
<path d="M199.508 256.554V249.092L195.564 248.556V255.987L199.508 256.554Z" fill="#5869DD"/>
<path d="M178.206 279.606L183.739 280.408L205.041 257.411L199.508 256.61L178.206 279.606Z" fill="black"/>
<path d="M205.041 248.694L199.508 249.092V256.554L205.041 257.35V248.694Z" fill="black"/>
<path d="M203.078 178.804L202.767 180.342L222.546 182.167C225.477 180.87 231.567 178.148 232.475 177.632C233.384 177.116 229.986 176.256 228.173 175.89L209.425 175C208.656 174.964 207.884 174.991 207.119 175.082C205.109 175.321 203.479 176.822 203.078 178.804Z" fill="url(#paint5_linear_17880_44856)"/>
<path d="M171.267 189.026C169.96 188.905 168.642 189.034 167.384 189.407L155.629 192.885C156.702 192.641 157.835 192.566 158.996 192.688L186.588 195.234V192.738L194.078 191.13L172.906 189.177L171.267 189.026Z" fill="url(#paint6_linear_17880_44856)"/>
<path d="M186.588 195.234L231.339 199.363V196.867L186.588 192.738V195.234Z" fill="black"/>
<path d="M258.809 201.898C264.067 202.448 268.06 206.877 268.06 212.158L278.353 208.313C278.353 203.032 274.36 198.603 269.102 198.053L258.809 201.898Z" fill="#5869DD"/>
<path d="M269.102 198.053L239.996 195.367L231.339 199.363L235.595 199.756L258.809 201.898L269.102 198.053Z" fill="url(#paint7_linear_17880_44856)"/>
<path d="M223.94 193.886L237.693 195.155V182.696C237.693 182.696 237.599 181.578 235.595 181.071C233.591 180.563 223.94 184.402 223.94 184.402V193.886Z" fill="#5869DD"/>
<path d="M237.693 182.696C237.693 179.139 234.896 176.209 231.339 176.041L228.173 175.89C229.986 176.256 233.384 177.116 232.475 177.632C231.567 178.148 225.477 180.87 222.546 182.167L223.94 182.295V184.402C223.94 184.402 233.591 180.563 235.595 181.071C237.599 181.578 237.693 182.696 237.693 182.696Z" fill="black"/>
<path d="M223.94 182.295L194.078 191.13L223.94 193.886V184.402V182.295Z" fill="#5869DD"/>
<path d="M126.289 278.875L174.262 285.823V279.035L126.289 272.088V278.875Z" fill="#5869DD"/>
<path d="M189.002 287.957L241.19 295.514V288.727L189.002 281.17V287.957Z" fill="#5869DD"/>
<path d="M183.739 287.195L189.002 287.957V281.17L183.739 280.408V287.195Z" fill="#5869DD"/>
<path d="M174.262 285.823L178.206 286.394V279.606L174.262 279.035V285.823Z" fill="#5869DD"/>
<path d="M231.339 196.867V199.363L239.996 195.367L231.339 196.867Z" fill="black"/>
<path d="M239.996 195.367L237.693 195.155L223.94 193.886L194.078 191.13L186.588 192.738L231.339 196.867L239.996 195.367Z" fill="#F1EFED"/>
<path d="M307.677 278.751V254.035L284.04 268.781L279.662 222.231L278.353 208.313L268.06 212.158V278.751L260.403 283.528V300.5L264.152 297.737C266.851 295.748 270.668 297.673 270.668 301.023V306.027L307.677 278.751Z" fill="url(#paint8_linear_17880_44856)"/>
<path d="M241.19 327.752L126.289 307.335V278.875M241.19 327.752L260.403 313.592M241.19 327.752V295.514M260.403 313.592V283.528M260.403 313.592L264.152 310.829M260.403 313.592V300.5M307.677 254.035V278.751L270.668 306.027M307.677 254.035L284.04 268.781L279.662 222.231M307.677 254.035L279.662 222.231M241.19 295.514L126.289 278.875M241.19 295.514L260.403 283.528M241.19 295.514V288.727M241.19 295.514L189.002 287.957M126.289 278.875V272.088M126.289 278.875L174.262 285.823M260.403 283.528L268.06 278.751V212.158M260.403 283.528V300.5M279.662 222.231L278.353 208.313M126.289 272.088L147.591 249.092M126.289 272.088L241.19 288.727M126.289 272.088L174.262 279.035M147.591 249.092V249.092M147.591 249.092V205.957M147.591 249.092L195.564 255.987M241.19 288.727L263.352 265.731M241.19 288.727L189.002 281.17M263.352 265.731V215.919C263.352 210.638 259.359 206.21 254.101 205.659L158.996 195.697C152.899 195.058 147.591 199.834 147.591 205.957M263.352 265.731L210.304 258.106M147.591 205.957V202.948C147.591 198.463 150.439 194.702 154.358 193.261M158.996 192.688L231.339 199.363M158.996 192.688L186.588 195.234M158.996 192.688C157.835 192.566 156.702 192.641 155.629 192.885M268.06 212.158C268.06 206.877 264.067 202.448 258.809 201.898M268.06 212.158L278.353 208.313M258.809 201.898L269.102 198.053M258.809 201.898L235.595 199.756L231.339 199.363M278.353 208.313C278.353 203.032 274.36 198.603 269.102 198.053M269.102 198.053L237.693 195.155M269.102 198.053L239.996 195.367M154.358 193.261L155.629 192.885M154.358 193.261C154.77 193.109 155.195 192.983 155.629 192.885M172.906 189.177L172.906 189.177M202.767 180.342L203.078 178.804C203.479 176.822 205.109 175.321 207.119 175.082C207.884 174.991 208.656 174.964 209.425 175L228.173 175.89M202.767 180.342L222.546 182.167M202.767 180.342L172.906 189.177M194.078 191.13L223.94 182.295M194.078 191.13L186.588 192.738M194.078 191.13L172.906 189.177M194.078 191.13L223.94 193.886M223.94 182.295L222.546 182.167M223.94 182.295V184.402M223.94 193.886L237.693 195.155M223.94 193.886V184.402M223.94 193.886L172.906 189.177M237.693 195.155V182.696M237.693 195.155L239.996 195.367M237.693 182.696C237.693 179.139 234.896 176.209 231.339 176.041L228.173 175.89M237.693 182.696C237.693 182.696 237.599 181.578 235.595 181.071C233.591 180.563 223.94 184.402 223.94 184.402M228.173 175.89C229.986 176.256 233.384 177.116 232.475 177.632C231.567 178.148 225.477 180.87 222.546 182.167M270.668 306.027V301.023C270.668 297.673 266.851 295.748 264.152 297.737M270.668 306.027L264.152 310.829M260.403 300.5L264.152 297.737M264.152 297.737V310.829M174.262 285.823V279.035M174.262 285.823L178.206 286.394M174.262 279.035L195.564 256.039M174.262 279.035L178.206 279.606M189.002 287.957V281.17M189.002 287.957L183.739 287.195M189.002 281.17L210.304 258.174M189.002 281.17L183.739 280.408M178.206 286.394V279.606M178.206 286.394L183.739 287.195M178.206 279.606L199.508 256.61M178.206 279.606L183.739 280.408M183.739 287.195V280.408M183.739 280.408L205.041 257.411M195.564 256.039L199.508 256.61M195.564 256.039V255.987M199.508 256.61L205.041 257.411M199.508 256.61V256.554M205.041 257.411L210.304 258.174M205.041 257.411V257.35M210.304 258.174V258.106M205.041 248.694L199.508 249.092M205.041 248.694L210.304 246.907V258.106M205.041 248.694V257.35M199.508 249.092L195.564 248.556V255.987M199.508 249.092V256.554M231.339 199.363V196.867M231.339 199.363L239.996 195.367M231.339 199.363L186.588 195.234M231.339 196.867L186.588 192.738M231.339 196.867L239.996 195.367M186.588 195.234V192.738M172.906 189.177L171.267 189.026C169.96 188.905 168.642 189.034 167.384 189.407L155.629 192.885M210.304 258.106L205.041 257.35M195.564 255.987L199.508 256.554M205.041 257.35L199.508 256.554" stroke="black" stroke-width="0.823542"/>
<path d="M237.225 317.639L237.304 311.968L132.095 294.404V301.317L237.225 317.639Z" fill="black"/>
<path d="M128.438 282.527V293.793L132.095 294.404L237.304 311.968L237.519 298.803L128.438 282.527Z" fill="#5869DD"/>
<path d="M237.304 311.968L237.519 298.803L128.438 282.527V293.793L132.095 294.404M237.304 311.968L237.225 317.639L132.095 301.317V294.404M237.304 311.968L132.095 294.404" stroke="black" stroke-width="0.823542"/>
<path fill-rule="evenodd" clip-rule="evenodd" d="M220.35 212.253L198.197 234.186L189.715 242.584L190.401 250.381C199.504 252.255 208.349 250.244 214.608 246.298C223.863 240.463 226.041 234.88 226.111 227.67C226.143 224.34 225.434 221.022 224.006 218.012C222.928 215.74 221.744 213.839 220.35 212.253Z" fill="#5869DD"/>
<path d="M186.797 209.439L189.715 242.584L198.197 234.186C197.753 232.81 197.307 231.474 196.875 230.18C192.187 216.141 189.18 207.139 208.672 206.094C201.246 204.562 193.302 205.547 186.797 209.439Z" fill="black"/>
<path d="M220.35 212.253C217.567 209.089 213.948 207.183 208.672 206.094C189.18 207.139 192.187 216.141 196.875 230.18C197.307 231.474 197.753 232.81 198.197 234.186L220.35 212.253Z" fill="#F1EFED"/>
<path d="M186.797 209.439V209.439C193.303 205.547 201.247 204.562 208.672 206.094V206.094M186.797 209.439L189.715 242.584M186.797 209.439C193.302 205.547 201.246 204.562 208.672 206.094M220.35 212.253C217.567 209.089 213.948 207.183 208.672 206.094M220.35 212.253C221.744 213.839 222.928 215.74 224.006 218.012M220.35 212.253L198.197 234.186M189.715 242.584L190.401 250.381C199.504 252.255 208.349 250.244 214.608 246.298C223.863 240.463 226.041 234.88 226.111 227.67M189.715 242.584L198.197 234.186M226.111 227.67C226.143 224.34 225.434 221.022 224.006 218.012M226.111 227.67V227.67C226.143 224.339 225.434 221.022 224.006 218.012V218.012M208.672 206.094C189.18 207.139 192.187 216.141 196.875 230.18C197.307 231.474 197.753 232.81 198.197 234.186" stroke="black" stroke-width="0.823542" stroke-linejoin="round"/>
<path d="M231.695 232.553L256.854 235.2L256.861 234.031L232.879 231.508L231.695 232.553Z" fill="#5869DD"/>
<path fill-rule="evenodd" clip-rule="evenodd" d="M232.938 222.167L232.879 231.508L256.861 234.031L256.921 224.69L232.938 222.167Z" fill="#F1EFED"/>
<path d="M231.762 222.043L231.695 232.553L232.879 231.508L232.938 222.167L231.762 222.043Z" fill="#5869DD"/>
<path d="M231.695 232.553L256.854 235.2L256.861 234.031M231.695 232.553L231.762 222.043L232.938 222.167M231.695 232.553L232.879 231.508M232.879 231.508L232.938 222.167M232.879 231.508L256.861 234.031M232.938 222.167L256.921 224.69L256.861 234.031" stroke="black" stroke-width="0.741188"/>
<path d="M154.336 228.371L179.495 231.018L179.502 229.849L179.505 228.674L156.677 226.272L154.336 228.371Z" fill="black"/>
<path d="M154.336 228.371L156.677 226.272L156.705 214.345L154.376 212.664L154.336 228.371Z" fill="black"/>
<path fill-rule="evenodd" clip-rule="evenodd" d="M156.677 226.272L156.705 214.345L156.733 202.417L179.561 204.819L179.505 228.674L156.677 226.272Z" fill="#5869DD"/>
<path d="M156.733 202.417L155.579 202.296L154.403 202.172L154.376 212.664L156.705 214.345L156.733 202.417Z" fill="#F1EFED"/>
<path d="M179.561 204.819L155.579 202.296M179.561 204.819L179.502 229.849M179.561 204.819L156.733 202.417M179.561 204.819L179.505 228.674M154.336 228.371L179.495 231.018L179.502 229.849M154.336 228.371L156.677 226.272M154.336 228.371L154.376 212.664M155.579 202.296L154.403 202.172L154.376 212.664M155.579 202.296L156.733 202.417M179.502 229.849L179.505 228.674M179.505 228.674L156.677 226.272M156.733 202.417L156.705 214.345M156.677 226.272L156.705 214.345M154.376 212.664L156.705 214.345" stroke="black" stroke-width="0.823542"/>
<path d="M160.714 215.249C160.225 217.778 161.609 220.517 164.383 222.114C166.223 223.174 168.272 223.437 170.03 222.996C170.734 222.82 170.683 221.92 170.028 221.606C169.009 221.117 167.968 220.504 166.947 219.775C164.847 218.273 163.21 216.728 162.176 215.162C161.778 214.559 160.851 214.539 160.714 215.249Z" fill="#F1EFED" stroke="black" stroke-width="0.741188"/>
<rect x="169.961" y="209.762" width="3.01237" height="3.27754" rx="0.645179" fill="#F1EFED" stroke="black" stroke-width="0.741188"/>
<path d="M116 358.702C117.422 328.577 122.149 315.854 138.808 296.805C175.735 303.037 189.29 305.187 228.021 311.419C212.627 335.227 211.295 349.918 214.333 375.895C175.01 369.706 155.338 365.957 116 358.702Z" fill="#F1EFED" stroke="black" stroke-width="0.823542" stroke-linejoin="round"/>
<path d="M142.32 303.898L220.341 315.809C216.714 320.09 214.428 324.26 212.404 330.119L133.461 317.111C135.546 311.085 137.378 308.124 142.32 303.898Z" fill="#8F8E93" stroke="black" stroke-width="0.741188"/>
<path d="M126.384 335.699C135.215 336.202 149.456 339.138 149.456 339.138C149.456 339.138 145.584 351.55 145.153 358.058C136.687 356.921 131.927 356.059 122.727 354.404C123.174 346.916 123.371 343.585 126.384 335.699Z" fill="#8F8E93"/>
<path d="M126.384 335.699C135.215 336.202 149.456 339.138 149.456 339.138M126.384 335.699C123.371 343.585 123.174 346.916 122.727 354.404M126.384 335.699C131.826 344.235 136.415 349.18 145.153 358.058M149.456 339.138C149.456 339.138 145.584 351.55 145.153 358.058M149.456 339.138C138.774 343.604 132.823 346.342 122.727 354.404M145.153 358.058C136.687 356.921 131.927 356.059 122.727 354.404" stroke="black" stroke-width="0.741188"/>
<path d="M188.958 346.02C197.887 347.309 207.565 349.301 207.565 349.301C207.565 349.301 206.919 362.676 206.919 369.234C198.453 368.075 195.146 367.632 185.945 365.946C186.393 358.314 186.752 353.689 188.958 346.02Z" fill="#8F8E93"/>
<path d="M188.958 346.02C197.887 347.309 207.565 349.301 207.565 349.301M188.958 346.02C186.752 353.689 186.393 358.314 185.945 365.946M188.958 346.02C194.994 356.371 199.234 361.048 206.919 369.234M207.565 349.301C207.565 349.301 206.919 362.676 206.919 369.234M207.565 349.301C198.452 356.44 193.857 359.953 185.945 365.946M206.919 369.234C198.453 368.075 195.146 367.632 185.945 365.946" stroke="black" stroke-width="0.741188"/>
<path d="M151.336 357.695L179.76 362.731" stroke="black" stroke-width="0.741188" stroke-linejoin="round"/>
<path d="M151.867 354.895L180.292 359.93" stroke="black" stroke-width="0.741188" stroke-linejoin="round"/>
<path d="M151.852 352.105L180.276 357.141" stroke="black" stroke-width="0.741188" stroke-linejoin="round"/>
<path d="M152.703 349.305L181.128 354.34" stroke="black" stroke-width="0.741188" stroke-linejoin="round"/>
<path d="M152.688 346.516L181.112 351.551" stroke="black" stroke-width="0.741188" stroke-linejoin="round"/>
<path d="M153.461 343.715L181.885 348.751" stroke="black" stroke-width="0.741188" stroke-linejoin="round"/>
<path d="M154.422 340.918L182.846 345.954" stroke="black" stroke-width="0.741188" stroke-linejoin="round"/>
<path d="M143.234 300.25L167.987 303.901" stroke="black" stroke-width="0.741188" stroke-linejoin="round"/>
<path d="M128.586 331.432L145.017 333.729M129.439 329.246L145.266 331.458" stroke="black" stroke-width="0.741188" stroke-linejoin="round"/>
<path d="M153.461 335.534L168.082 337.83M154.22 333.562L168.304 335.774" stroke="black" stroke-width="0.741188" stroke-linejoin="round"/>
<path d="M174.474 338.928L189.149 340.841M175.181 336.937L189.317 338.78" stroke="black" stroke-width="0.741188" stroke-linejoin="round"/>
<path d="M194.393 342.849L209.089 344.602M195.079 340.851L209.235 342.54" stroke="black" stroke-width="0.741188" stroke-linejoin="round"/>
<path d="M210.245 309.986C211.264 309.977 211.87 310.108 212.976 310.471C212.311 311.073 212.006 311.53 211.529 312.546C210.483 312.274 209.889 312.156 208.798 312.061C209.226 311.129 209.534 310.665 210.245 309.986Z" fill="black"/>
<path d="M214.566 310.607C215.585 310.599 216.19 310.729 217.297 311.092C216.631 311.694 216.327 312.151 215.85 313.167C214.803 312.895 214.209 312.777 213.119 312.682C213.547 311.75 213.855 311.286 214.566 310.607Z" fill="black"/>
<path d="M218.894 311.228C219.913 311.22 220.518 311.35 221.625 311.713C220.959 312.315 220.655 312.772 220.178 313.788C219.131 313.516 218.537 313.398 217.447 313.303C217.875 312.371 218.183 311.907 218.894 311.228Z" fill="black"/>
<path fill-rule="evenodd" clip-rule="evenodd" d="M206.324 337.809C207.098 337.153 207.575 336.254 207.575 335.263C207.575 333.254 205.614 331.625 203.194 331.625C200.774 331.625 198.812 333.254 198.812 335.263C198.812 336.254 199.29 337.153 200.064 337.809C200.063 337.79 200.063 337.771 200.063 337.752C200.063 336.446 201.465 335.387 203.194 335.387C204.923 335.387 206.325 336.446 206.325 337.752C206.325 337.771 206.325 337.79 206.324 337.809ZM203.626 335.387C204.295 335.387 204.837 334.978 204.837 334.473C204.837 333.967 204.295 333.558 203.626 333.558C202.957 333.558 202.415 333.967 202.415 334.473C202.415 334.978 202.957 335.387 203.626 335.387Z" fill="#8F8E93"/>
<path d="M206.324 337.809C207.098 337.153 207.575 336.254 207.575 335.263C207.575 333.254 205.614 331.625 203.194 331.625C200.774 331.625 198.812 333.254 198.812 335.263C198.812 336.254 199.29 337.153 200.064 337.809M206.324 337.809C206.325 337.79 206.325 337.771 206.325 337.752C206.325 336.446 204.923 335.387 203.194 335.387C201.465 335.387 200.063 336.446 200.063 337.752C200.063 337.771 200.063 337.79 200.064 337.809M206.324 337.809C205.529 338.483 204.42 338.901 203.194 338.901C201.968 338.901 200.859 338.483 200.064 337.809M204.837 334.473C204.837 334.978 204.295 335.387 203.626 335.387C202.957 335.387 202.415 334.978 202.415 334.473C202.415 333.967 202.957 333.558 203.626 333.558C204.295 333.558 204.837 333.967 204.837 334.473Z" stroke="black" stroke-width="0.741188"/>
<path d="M186.286 335.458C187.673 334.784 188.587 333.631 188.587 332.321C188.587 330.243 186.287 328.559 183.45 328.559C180.612 328.559 178.312 330.243 178.312 332.321C178.312 333.38 178.91 334.336 179.871 335.02C179.713 334.681 179.645 334.317 179.69 333.947C179.855 332.583 181.483 331.654 183.342 331.854C182.792 331.668 182.424 331.238 182.479 330.787C182.545 330.242 183.201 329.873 183.945 329.963C184.69 330.052 185.24 330.567 185.174 331.112C185.114 331.608 184.565 331.958 183.906 331.95C185.526 332.327 186.661 333.516 186.509 334.769C186.48 335.014 186.403 335.245 186.286 335.458Z" fill="#8F8E93"/>
<path d="M186.286 335.458C187.673 334.784 188.587 333.631 188.587 332.321C188.587 330.243 186.287 328.559 183.45 328.559C180.612 328.559 178.312 330.243 178.312 332.321C178.312 333.38 178.91 334.336 179.871 335.02M186.286 335.458C186.403 335.245 186.48 335.014 186.509 334.769C186.661 333.516 185.526 332.327 183.906 331.95M186.286 335.458C185.473 335.853 184.498 336.083 183.45 336.083C182.058 336.083 180.796 335.678 179.871 335.02M179.871 335.02C179.713 334.681 179.645 334.317 179.69 333.947C179.855 332.583 181.483 331.654 183.342 331.854M183.342 331.854C182.792 331.668 182.424 331.238 182.479 330.787C182.545 330.242 183.201 329.873 183.945 329.963C184.69 330.052 185.24 330.567 185.174 331.112C185.114 331.608 184.565 331.958 183.906 331.95M183.342 331.854C183.362 331.856 183.381 331.859 183.401 331.861C183.574 331.882 183.742 331.912 183.906 331.95M183.342 331.854C183.456 331.893 183.579 331.921 183.707 331.936C183.774 331.945 183.84 331.949 183.906 331.95" stroke="black" stroke-width="0.741188"/>
<path fill-rule="evenodd" clip-rule="evenodd" d="M165.328 331.347C166.739 330.72 167.667 329.656 167.667 328.449C167.667 326.521 165.295 324.957 162.369 324.957C159.443 324.957 157.07 326.521 157.07 328.449C157.07 329.335 157.57 330.143 158.394 330.759C158.36 330.589 158.352 330.415 158.375 330.241C158.54 328.968 160.238 328.139 162.17 328.388C164.101 328.637 165.533 329.871 165.368 331.144C165.359 331.213 165.345 331.281 165.328 331.347ZM162.233 328.251C162.987 328.365 163.659 328.054 163.734 327.557C163.808 327.06 163.258 326.566 162.504 326.452C161.751 326.339 161.079 326.65 161.004 327.147C160.929 327.643 161.48 328.138 162.233 328.251Z" fill="#8F8E93"/>
<path d="M165.328 331.347C166.739 330.72 167.667 329.656 167.667 328.449C167.667 326.521 165.295 324.957 162.369 324.957C159.443 324.957 157.07 326.521 157.07 328.449C157.07 329.335 157.57 330.143 158.394 330.759M165.328 331.347C165.345 331.281 165.359 331.213 165.368 331.144C165.533 329.871 164.101 328.637 162.17 328.388C160.238 328.139 158.54 328.968 158.375 330.241C158.352 330.415 158.36 330.589 158.394 330.759M165.328 331.347C164.483 331.723 163.465 331.942 162.369 331.942C160.786 331.942 159.365 331.484 158.394 330.759M163.734 327.557C163.659 328.054 162.987 328.365 162.233 328.251C161.48 328.138 160.929 327.643 161.004 327.147C161.079 326.65 161.751 326.339 162.504 326.452C163.258 326.566 163.808 327.06 163.734 327.557Z" stroke="black" stroke-width="0.741188"/>
<path fill-rule="evenodd" clip-rule="evenodd" d="M139.124 320.77C136.212 320.454 133.682 321.749 133.475 323.662C133.368 324.644 133.894 325.598 134.825 326.337C134.826 326.288 134.829 326.24 134.834 326.191C134.973 324.907 136.589 324.028 138.443 324.229C140.296 324.43 141.686 325.634 141.546 326.918C141.527 327.092 141.481 327.259 141.411 327.417C142.868 326.944 143.893 325.994 144.022 324.805C144.23 322.892 142.037 321.086 139.124 320.77ZM138.564 324.088C139.304 324.169 139.95 323.818 140.005 323.305C140.061 322.791 139.506 322.31 138.765 322.23C138.025 322.15 137.379 322.501 137.323 323.014C137.268 323.527 137.823 324.008 138.564 324.088Z" fill="#8F8E93"/>
<path d="M141.411 327.417C141.481 327.259 141.527 327.092 141.546 326.918C141.686 325.634 140.296 324.43 138.443 324.229C136.589 324.028 134.973 324.907 134.834 326.191C134.829 326.24 134.826 326.288 134.825 326.337M141.411 327.417C140.523 327.706 139.475 327.817 138.372 327.697C136.955 327.544 135.707 327.037 134.825 326.337M141.411 327.417C142.868 326.944 143.893 325.994 144.022 324.805C144.23 322.892 142.037 321.086 139.124 320.77C136.212 320.454 133.682 321.749 133.475 323.662C133.368 324.644 133.894 325.598 134.825 326.337M140.005 323.305C139.95 323.818 139.304 324.169 138.564 324.088C137.823 324.008 137.268 323.527 137.323 323.014C137.379 322.501 138.025 322.15 138.765 322.23C139.506 322.31 140.061 322.791 140.005 323.305Z" stroke="black" stroke-width="0.741188"/>
<path d="M236.647 230.181C236.279 230.134 235.944 230.007 235.644 229.803C235.348 229.597 235.113 229.335 234.941 229.019C234.769 228.705 234.683 228.367 234.683 228.009C234.68 227.115 234.676 226.22 234.672 225.324C234.884 225.347 235.096 225.371 235.307 225.395C235.312 226.292 235.317 227.189 235.322 228.086C235.322 228.329 235.38 228.557 235.496 228.772C235.612 228.984 235.769 229.161 235.967 229.298C236.169 229.436 236.393 229.522 236.641 229.552C236.89 229.584 237.112 229.556 237.308 229.466C237.506 229.378 237.663 229.24 237.777 229.053C237.889 228.866 237.945 228.649 237.94 228.404C237.93 227.497 237.92 226.59 237.91 225.683C238.121 225.706 238.333 225.729 238.545 225.752C238.556 226.663 238.568 227.573 238.579 228.481C238.586 228.847 238.504 229.167 238.336 229.444C238.171 229.721 237.938 229.928 237.639 230.059C237.346 230.188 237.015 230.229 236.647 230.181Z" fill="black"/>
<path d="M242.96 230.929C242.477 230.23 241.995 229.533 241.514 228.838C241.061 229.417 240.607 229.994 240.152 230.568C239.894 230.535 239.635 230.502 239.375 230.467C239.955 229.755 240.532 229.041 241.108 228.325C240.532 227.495 239.957 226.668 239.382 225.844C239.643 225.873 239.903 225.902 240.163 225.93C240.609 226.574 241.057 227.218 241.506 227.865C241.926 227.317 242.346 226.768 242.764 226.218C243.023 226.247 243.281 226.276 243.539 226.304C242.998 227.001 242.456 227.695 241.912 228.387C242.521 229.264 243.131 230.145 243.743 231.03C243.482 230.997 243.221 230.964 242.96 230.929Z" fill="black"/>
<path d="M244.74 231.159C244.536 231.132 244.333 231.106 244.131 231.08C244.885 229.601 245.636 228.114 246.384 226.618C246.584 226.641 246.785 226.663 246.986 226.685C246.242 228.185 245.493 229.676 244.74 231.159Z" fill="black"/>
<path d="M249.942 231.899C249.575 231.851 249.237 231.72 248.931 231.507C248.63 231.29 248.387 231.015 248.204 230.682C248.023 230.351 247.924 229.994 247.911 229.616C247.877 228.669 247.843 227.723 247.81 226.777C248.021 226.8 248.232 226.823 248.443 226.846C248.479 227.794 248.514 228.744 248.55 229.694C248.559 229.949 248.626 230.19 248.748 230.416C248.873 230.641 249.034 230.826 249.237 230.97C249.441 231.116 249.669 231.204 249.917 231.235C250.164 231.267 250.384 231.235 250.575 231.14C250.771 231.045 250.921 230.897 251.029 230.699C251.135 230.5 251.182 230.272 251.171 230.012C251.128 229.052 251.086 228.092 251.046 227.134C251.257 227.157 251.469 227.18 251.681 227.205C251.723 228.165 251.766 229.126 251.81 230.089C251.827 230.474 251.758 230.815 251.601 231.11C251.444 231.404 251.218 231.621 250.928 231.763C250.64 231.901 250.31 231.946 249.942 231.899Z" fill="black"/>
<path d="M253.708 227.428C253.79 229.067 253.871 230.707 253.951 232.346C253.737 232.318 253.524 232.291 253.31 232.264C253.231 230.628 253.152 228.992 253.073 227.357C253.285 227.382 253.497 227.405 253.708 227.428Z" fill="black"/>
<path d="M182.668 295.136C182.676 295.25 182.679 295.366 182.689 295.482C182.059 295.395 181.432 295.309 180.802 295.22C180.751 294.379 180.699 293.538 180.648 292.695C180.783 292.714 180.917 292.731 181.047 292.75C181.094 293.477 181.139 294.204 181.182 294.93C181.677 295.001 182.171 295.069 182.668 295.136ZM184.194 295.727C183.926 295.689 183.672 295.598 183.441 295.453C183.212 295.308 183.026 295.126 182.885 294.91C182.746 294.694 182.668 294.464 182.651 294.227C182.638 293.983 182.69 293.774 182.807 293.596C182.923 293.414 183.093 293.283 183.311 293.199C183.527 293.112 183.775 293.089 184.043 293.127C184.315 293.163 184.567 293.256 184.798 293.403C185.031 293.549 185.217 293.728 185.354 293.946C185.497 294.162 185.569 294.388 185.586 294.63C185.599 294.869 185.547 295.082 185.428 295.262C185.312 295.445 185.144 295.576 184.928 295.658C184.71 295.74 184.466 295.763 184.194 295.727ZM184.174 295.38C184.369 295.407 184.539 295.388 184.692 295.326C184.849 295.265 184.969 295.169 185.049 295.037C185.138 294.901 185.175 294.745 185.166 294.571C185.154 294.394 185.1 294.231 184.996 294.072C184.899 293.911 184.763 293.781 184.597 293.672C184.437 293.57 184.257 293.502 184.066 293.475C183.873 293.449 183.7 293.467 183.541 293.529C183.388 293.589 183.27 293.688 183.184 293.821C183.102 293.953 183.066 294.107 183.077 294.282C183.087 294.458 183.143 294.627 183.242 294.786C183.342 294.943 183.478 295.074 183.638 295.18C183.806 295.286 183.985 295.352 184.174 295.38ZM189.883 293.97C189.649 294.773 189.415 295.578 189.183 296.385C189.009 296.359 188.832 296.336 188.657 296.311C188.368 295.592 188.079 294.874 187.788 294.154C187.565 294.802 187.346 295.449 187.127 296.098C186.959 296.076 186.788 296.051 186.622 296.026C186.301 295.147 185.978 294.266 185.658 293.385C185.804 293.406 185.952 293.428 186.105 293.447C186.359 294.177 186.615 294.907 186.87 295.635C187.095 294.973 187.322 294.31 187.549 293.647C187.701 293.668 187.854 293.689 188.006 293.71C188.305 294.447 188.602 295.181 188.897 295.916C189.081 295.249 189.266 294.58 189.45 293.913C189.592 293.93 189.739 293.949 189.883 293.97ZM191.91 294.596C191.921 294.846 191.936 295.095 191.947 295.345C192.402 295.408 192.855 295.474 193.312 295.537C193.318 295.649 193.323 295.762 193.329 295.876C192.874 295.811 192.417 295.748 191.964 295.686C191.982 296.05 191.998 296.413 192.015 296.779C191.881 296.76 191.749 296.743 191.615 296.722C191.572 295.881 191.534 295.036 191.494 294.194C192.123 294.282 192.753 294.369 193.383 294.457C193.386 294.573 193.394 294.689 193.397 294.807C192.902 294.737 192.406 294.665 191.91 294.596ZM194.267 294.58C194.305 295.422 194.345 296.265 194.381 297.112C194.245 297.091 194.113 297.072 193.979 297.057C193.941 296.21 193.905 295.368 193.866 294.525C193.998 294.542 194.132 294.561 194.267 294.58ZM195.959 294.816C196.257 294.856 196.517 294.951 196.744 295.092C196.969 295.235 197.149 295.409 197.274 295.621C197.399 295.824 197.467 296.05 197.476 296.29C197.486 296.527 197.439 296.734 197.328 296.91C197.219 297.084 197.056 297.211 196.84 297.291C196.622 297.37 196.364 297.391 196.067 297.348C195.744 297.302 195.425 297.258 195.104 297.213C195.068 296.369 195.03 295.524 194.992 294.683C195.315 294.725 195.636 294.771 195.959 294.816ZM196.051 297.001C196.262 297.031 196.447 297.019 196.602 296.967C196.755 296.913 196.869 296.825 196.949 296.699C197.029 296.57 197.062 296.413 197.057 296.229C197.048 296.042 196.996 295.875 196.907 295.726C196.817 295.574 196.693 295.451 196.529 295.355C196.371 295.257 196.184 295.193 195.973 295.165C195.786 295.14 195.595 295.114 195.41 295.087C195.436 295.696 195.463 296.31 195.49 296.923C195.679 296.948 195.866 296.976 196.051 297.001ZM198.384 295.496C198.395 295.746 198.406 295.998 198.417 296.252C198.87 296.315 199.327 296.381 199.782 296.442C199.785 296.558 199.789 296.669 199.794 296.783C199.339 296.72 198.884 296.654 198.429 296.589C198.44 296.841 198.449 297.095 198.46 297.349C198.956 297.416 199.449 297.486 199.943 297.555C199.948 297.667 199.954 297.781 199.957 297.895C199.33 297.806 198.702 297.717 198.072 297.629C198.036 296.786 198.002 295.941 197.968 295.096C198.599 295.185 199.229 295.273 199.857 295.362C199.864 295.478 199.868 295.592 199.873 295.705C199.376 295.636 198.88 295.566 198.384 295.496ZM202.431 297.899C202.433 298.015 202.44 298.131 202.444 298.247C201.816 298.158 201.188 298.069 200.557 297.979C200.524 297.136 200.494 296.291 200.464 295.448C200.596 295.467 200.73 295.486 200.864 295.503C200.893 296.232 200.918 296.961 200.946 297.691C201.442 297.758 201.936 297.828 202.431 297.899ZM203.176 295.83C203.208 296.673 203.236 297.518 203.266 298.363C203.13 298.344 203 298.327 202.866 298.306C202.836 297.463 202.806 296.618 202.776 295.773C202.91 295.792 203.044 295.811 203.176 295.83ZM206.028 296.58C205.691 296.534 205.354 296.485 205.023 296.437C205.043 297.166 205.07 297.895 205.092 298.62C204.96 298.605 204.826 298.586 204.692 298.565C204.67 297.838 204.645 297.109 204.618 296.382C204.285 296.333 203.95 296.287 203.615 296.241C203.611 296.123 203.608 296.007 203.602 295.889C204.407 296.003 205.209 296.117 206.016 296.231C206.021 296.349 206.025 296.464 206.028 296.58ZM207.726 297.978C207.739 298.319 207.747 298.66 207.755 299.001C207.625 298.982 207.491 298.963 207.357 298.946C207.349 298.605 207.339 298.262 207.326 297.925C206.924 297.364 206.521 296.806 206.117 296.245C206.278 296.269 206.436 296.292 206.599 296.313C206.905 296.747 207.216 297.179 207.525 297.613C207.813 297.265 208.102 296.916 208.386 296.568C208.543 296.589 208.695 296.61 208.851 296.633C208.473 297.08 208.099 297.529 207.726 297.978ZM214.362 297.419C214.102 298.222 213.846 299.029 213.589 299.836C213.413 299.81 213.24 299.785 213.063 299.76C212.795 299.038 212.526 298.315 212.253 297.595C212.014 298.244 211.777 298.892 211.538 299.541C211.365 299.518 211.196 299.492 211.026 299.467C210.73 298.582 210.435 297.701 210.139 296.817C210.287 296.838 210.438 296.859 210.584 296.88C210.82 297.612 211.054 298.344 211.286 299.076C211.535 298.414 211.783 297.751 212.03 297.084C212.181 297.106 212.335 297.129 212.487 297.152C212.766 297.892 213.043 298.629 213.317 299.367C213.524 298.696 213.727 298.027 213.93 297.356C214.076 297.377 214.218 297.398 214.362 297.419ZM215.248 297.544C215.266 298.389 215.284 299.235 215.298 300.08C215.168 300.061 215.032 300.04 214.897 300.023C214.88 299.176 214.864 298.332 214.846 297.487C214.98 297.506 215.116 297.525 215.248 297.544ZM216.928 299.268C216.753 299.243 216.579 299.218 216.404 299.193C216.41 299.542 216.415 299.891 216.425 300.242C216.291 300.223 216.155 300.204 216.025 300.185C216.007 299.339 215.991 298.492 215.973 297.647C216.385 297.708 216.794 297.767 217.204 297.824C217.391 297.851 217.553 297.907 217.687 297.993C217.827 298.073 217.932 298.179 218.002 298.303C218.077 298.424 218.117 298.556 218.116 298.698C218.119 298.887 218.06 299.041 217.937 299.16C217.814 299.275 217.639 299.329 217.412 299.326C217.729 299.723 218.046 300.123 218.365 300.523C218.196 300.497 218.028 300.474 217.861 300.449C217.55 300.053 217.239 299.662 216.928 299.268ZM216.398 298.862C216.666 298.899 216.934 298.937 217.202 298.977C217.363 299.001 217.483 298.981 217.57 298.927C217.658 298.866 217.695 298.769 217.694 298.637C217.694 298.505 217.648 298.397 217.557 298.315C217.472 298.23 217.349 298.176 217.186 298.153C216.918 298.113 216.65 298.077 216.384 298.037C216.388 298.311 216.393 298.585 216.398 298.862ZM219.132 298.443C219.135 298.695 219.139 298.947 219.144 299.199C219.599 299.262 220.054 299.329 220.509 299.395C220.511 299.508 220.512 299.622 220.514 299.736C220.059 299.67 219.604 299.603 219.149 299.538C219.153 299.792 219.154 300.043 219.161 300.297C219.654 300.369 220.15 300.441 220.644 300.51C220.645 300.626 220.647 300.738 220.65 300.851C220.02 300.763 219.393 300.67 218.765 300.579C218.751 299.733 218.735 298.888 218.723 298.043C219.353 298.134 219.983 298.224 220.615 298.315C220.616 298.429 220.617 298.544 220.619 298.658C220.123 298.587 219.628 298.515 219.132 298.443ZM221.622 298.81C221.627 299.057 221.63 299.307 221.633 299.557C222.09 299.622 222.543 299.69 223 299.755C222.999 299.869 223.002 299.982 223.004 300.096C222.547 300.031 222.092 299.965 221.637 299.898C221.643 300.264 221.647 300.631 221.651 300.997C221.517 300.978 221.383 300.957 221.251 300.938C221.237 300.093 221.228 299.246 221.218 298.401C221.848 298.492 222.475 298.585 223.107 298.675C223.108 298.789 223.11 298.907 223.111 299.022C222.616 298.953 222.118 298.881 221.622 298.81ZM224.531 300.366C224.356 300.341 224.18 300.315 224.005 300.288C224.009 300.639 224.012 300.989 224.014 301.34C223.882 301.321 223.75 301.302 223.616 301.283C223.606 300.434 223.598 299.587 223.588 298.745C223.999 298.804 224.411 298.863 224.819 298.92C225.008 298.949 225.168 299.005 225.302 299.091C225.44 299.171 225.545 299.273 225.616 299.399C225.688 299.519 225.724 299.651 225.723 299.795C225.728 299.986 225.667 300.14 225.54 300.257C225.415 300.373 225.242 300.426 225.013 300.423C225.328 300.821 225.643 301.222 225.954 301.62C225.789 301.597 225.621 301.574 225.45 301.548C225.147 301.153 224.838 300.759 224.531 300.366ZM224.003 299.957C224.269 299.997 224.537 300.035 224.803 300.075C224.966 300.098 225.09 300.08 225.175 300.022C225.259 299.964 225.306 299.866 225.303 299.732C225.302 299.598 225.257 299.495 225.168 299.409C225.083 299.323 224.958 299.27 224.795 299.246C224.527 299.209 224.261 299.169 223.993 299.133C223.997 299.409 224 299.683 224.003 299.957ZM228.26 301.378C227.756 301.305 227.251 301.229 226.745 301.157C226.652 301.337 226.564 301.516 226.474 301.698C226.327 301.677 226.179 301.654 226.035 301.633C226.45 300.847 226.864 300.063 227.277 299.278C227.429 299.301 227.58 299.322 227.728 299.341C228.154 300.249 228.578 301.157 229.003 302.064C228.846 302.045 228.696 302.022 228.542 301.997C228.449 301.791 228.355 301.584 228.26 301.378ZM228.103 301.022C227.9 300.574 227.7 300.127 227.499 299.681C227.299 300.07 227.102 300.456 226.903 300.845C227.303 300.904 227.701 300.963 228.103 301.022ZM232.73 302.612C232.598 302.591 232.464 302.572 232.33 302.555C232.327 301.858 232.331 301.162 232.331 300.468C231.908 301.099 231.484 301.734 231.062 302.367C230.641 301.616 230.22 300.865 229.797 300.113C229.8 300.804 229.802 301.494 229.805 302.182C229.669 302.163 229.537 302.144 229.403 302.125C229.399 301.277 229.395 300.43 229.394 299.583C229.581 299.611 229.771 299.638 229.96 299.667C230.331 300.327 230.704 300.987 231.072 301.647C231.443 301.094 231.812 300.542 232.181 299.99C232.363 300.017 232.55 300.044 232.733 300.07C232.733 300.916 232.728 301.765 232.73 302.612ZM233.857 300.577C233.857 300.831 233.856 301.083 233.855 301.334C234.308 301.402 234.765 301.469 235.22 301.534C235.221 301.648 235.218 301.764 235.22 301.875C234.765 301.81 234.31 301.745 233.855 301.677C233.852 301.929 233.85 302.181 233.849 302.437C234.347 302.506 234.84 302.58 235.338 302.654C235.337 302.767 235.335 302.879 235.336 302.993C234.708 302.9 234.079 302.81 233.451 302.719C233.451 301.868 233.454 301.022 233.454 300.177C234.084 300.27 234.716 300.36 235.345 300.453C235.345 300.566 235.344 300.68 235.343 300.796C234.848 300.724 234.35 300.651 233.857 300.577Z" fill="black"/>
<path d="M194.475 209.172C193.667 209.068 192.862 209.011 192.087 209.011C190.808 209.011 189.556 209.126 188.339 209.347C185.804 211.079 183.548 213.214 182.328 216.019C182.174 216.373 182.029 216.73 181.893 217.089C179.592 223.182 179.928 230.01 183.42 235.751C188.438 244.004 198.458 247.513 207.962 245.146C209.164 243.767 210.196 242.231 211.025 240.571C202.381 242.843 193.575 240.173 189.391 233.293C186.441 228.442 186.409 222.518 188.752 217.128C190.007 214.241 191.942 211.507 194.475 209.172Z" fill="url(#paint9_linear_17880_44856)"/>
<path d="M204.836 236.628C197.825 236.628 191.932 231.283 191.932 223.42C191.932 217.714 195.57 212.793 199.89 210.521C198.282 209.914 196.368 209.416 194.475 209.172C191.942 211.507 190.007 214.241 188.752 217.128C186.409 222.518 186.441 228.442 189.391 233.293C193.575 240.173 202.381 242.843 211.025 240.571C212.027 238.565 212.732 236.38 213.083 234.075C210.864 236.203 207.984 236.628 204.836 236.628Z" fill="url(#paint10_linear_17880_44856)"/>
<path d="M195.369 221.583C195.369 228.527 201.276 234.156 207.502 234.156C209.611 234.156 211.585 233.51 213.273 232.386C213.314 231.835 213.335 231.279 213.335 230.718C213.335 222.079 208.395 214.619 201.244 211.124C198.22 213.379 195.369 217.222 195.369 221.583Z" fill="black"/>
<path d="M207.502 234.156C201.276 234.156 195.369 228.527 195.369 221.583C195.369 217.222 198.22 213.379 201.244 211.124C200.661 210.839 200.501 210.751 199.89 210.521C195.57 212.793 191.932 217.714 191.932 223.42C191.932 231.283 197.825 236.628 204.836 236.628C207.984 236.628 210.864 236.203 213.083 234.075C213.167 233.518 213.231 232.955 213.273 232.386C211.585 233.51 209.611 234.156 207.502 234.156Z" fill="#F1EFED"/>
<path d="M203.018 249.336C210.831 246.072 216.348 238.124 216.348 228.837C216.348 226.649 216.041 224.535 215.471 222.54C212.863 213.412 204.729 206.754 195.1 206.754C189.886 206.754 185.111 208.705 181.414 211.944C183.52 210.692 185.854 209.799 188.339 209.347C189.556 209.126 190.808 209.011 192.087 209.011C192.862 209.011 193.667 209.068 194.475 209.172C196.368 209.416 198.282 209.914 199.89 210.521C200.501 210.751 200.661 210.839 201.244 211.124C208.395 214.619 213.335 222.079 213.335 230.718C213.335 231.279 213.314 231.835 213.273 232.386C213.231 232.955 213.167 233.518 213.083 234.075C212.732 236.38 212.027 238.565 211.025 240.571C210.196 242.231 209.164 243.767 207.962 245.146C206.535 246.784 204.868 248.2 203.018 249.336Z" fill="black"/>
<path d="M173.852 228.837C173.852 241.033 183.365 250.92 195.1 250.92C195.801 250.92 196.495 250.885 197.179 250.816C199.224 250.609 201.184 250.101 203.018 249.336C204.868 248.2 206.535 246.784 207.962 245.146C198.458 247.513 188.438 244.004 183.42 235.751C179.928 230.01 179.592 223.182 181.893 217.089C182.029 216.73 182.174 216.373 182.328 216.019C183.548 213.214 185.804 211.079 188.339 209.347C185.854 209.799 183.52 210.692 181.414 211.944C178.483 214.511 176.229 217.888 174.972 221.742C174.246 223.969 173.852 226.355 173.852 228.837Z" fill="url(#paint11_linear_17880_44856)"/>
<path d="M203.018 249.336C210.831 246.072 216.348 238.124 216.348 228.837C216.348 226.649 216.041 224.535 215.471 222.54C212.863 213.412 204.729 206.754 195.1 206.754C189.886 206.754 185.111 208.705 181.414 211.944M203.018 249.336C201.184 250.101 199.224 250.609 197.179 250.816C196.495 250.885 195.801 250.92 195.1 250.92C183.365 250.92 173.852 241.033 173.852 228.837C173.852 226.355 174.246 223.969 174.972 221.742C176.229 217.888 178.483 214.511 181.414 211.944M203.018 249.336C204.868 248.2 206.535 246.784 207.962 245.146M181.414 211.944C183.52 210.692 185.854 209.799 188.339 209.347M201.244 211.124C200.661 210.839 200.501 210.751 199.89 210.521M201.244 211.124C198.22 213.379 195.369 217.222 195.369 221.583C195.369 228.527 201.276 234.156 207.502 234.156C209.611 234.156 211.585 233.51 213.273 232.386M201.244 211.124C208.395 214.619 213.335 222.079 213.335 230.718C213.335 231.279 213.314 231.835 213.273 232.386M199.89 210.521C195.57 212.793 191.932 217.714 191.932 223.42C191.932 231.283 197.825 236.628 204.836 236.628C207.984 236.628 210.864 236.203 213.083 234.075M199.89 210.521C198.282 209.914 196.368 209.416 194.475 209.172M213.083 234.075C213.167 233.518 213.231 232.955 213.273 232.386M213.083 234.075C212.732 236.38 212.027 238.565 211.025 240.571M195.911 207.944C195.413 208.339 194.934 208.749 194.475 209.172M213.334 239.843C212.568 240.125 211.797 240.368 211.025 240.571M209.748 244.63C209.156 244.825 208.56 244.997 207.962 245.146M190.25 208.13L189.665 208.49C189.217 208.765 188.774 209.05 188.339 209.347M188.339 209.347C185.804 211.079 183.548 213.214 182.328 216.019C182.174 216.373 182.029 216.73 181.893 217.089C179.592 223.182 179.928 230.01 183.42 235.751C188.438 244.004 198.458 247.513 207.962 245.146M188.339 209.347C189.556 209.126 190.808 209.011 192.087 209.011C192.862 209.011 193.667 209.068 194.475 209.172M207.962 245.146C209.164 243.767 210.196 242.231 211.025 240.571M194.475 209.172C191.942 211.507 190.007 214.241 188.752 217.128C186.409 222.518 186.441 228.442 189.391 233.293C193.575 240.173 202.381 242.843 211.025 240.571" stroke="black" stroke-width="0.823542"/>
<path d="M206.193 225.19C207.278 225.546 208.461 224.908 208.836 223.766C209.212 222.624 208.636 221.41 207.551 221.055C207.299 220.972 207.041 220.943 206.789 220.962C207.421 221.502 207.693 222.421 207.405 223.297C207.117 224.173 206.354 224.752 205.524 224.814C205.716 224.978 205.941 225.107 206.193 225.19Z" fill="#F1EFED" stroke="black" stroke-width="0.617656"/>
<rect x="201.5" y="218.574" width="3.19052" height="3.47137" rx="0.645179" fill="#F1EFED" stroke="black" stroke-width="0.617656"/>
<path fill-rule="evenodd" clip-rule="evenodd" d="M244.204 257.689C248.839 257.689 252.596 254.273 252.596 250.059C252.596 248.654 252.178 247.337 251.448 246.206L236.568 253.228C237.891 255.86 240.813 257.689 244.204 257.689Z" fill="black"/>
<path d="M244.204 242.43C239.57 242.43 235.812 245.846 235.812 250.059C235.812 251.19 236.083 252.263 236.568 253.228L251.448 246.206C249.991 243.947 247.293 242.43 244.204 242.43Z" fill="#F1EFED"/>
<path d="M251.448 246.206C249.991 243.947 247.293 242.43 244.204 242.43C239.57 242.43 235.812 245.846 235.812 250.059C235.812 251.19 236.083 252.263 236.568 253.228M251.448 246.206C252.178 247.337 252.596 248.654 252.596 250.059C252.596 254.273 248.839 257.689 244.204 257.689C240.813 257.689 237.891 255.86 236.568 253.228M251.448 246.206L236.568 253.228" stroke="black" stroke-width="0.741188"/>
<ellipse cx="242.967" cy="250.059" rx="7.15439" ry="7.62968" fill="#5869DD" stroke="black" stroke-width="0.741188"/>
<ellipse cx="242.537" cy="249.847" rx="4.35719" ry="4.40587" fill="url(#paint12_linear_17880_44856)" stroke="black" stroke-width="0.741188"/>
<path d="M31.09 56.34C29.1407 56.34 27.3727 55.9093 25.786 55.048C24.222 54.164 22.9867 52.9513 22.08 51.41C21.1733 49.8687 20.72 48.1573 20.72 46.276V32.2H24.12V46.276C24.12 47.5453 24.426 48.7013 25.038 49.744C25.65 50.7867 26.4773 51.6027 27.52 52.192C28.5853 52.7813 29.7753 53.076 31.09 53.076C32.4047 53.076 33.5833 52.7813 34.626 52.192C35.6913 51.6027 36.53 50.7867 37.142 49.744C37.754 48.7013 38.06 47.5453 38.06 46.276V32.2H41.46V46.276C41.46 48.1573 41.0067 49.8687 40.1 51.41C39.1933 52.9513 37.9467 54.164 36.36 55.048C34.796 55.9093 33.0393 56.34 31.09 56.34ZM62.812 56L55.366 46.276L47.954 56H43.84L53.258 43.896L44.248 32.2H48.43L55.434 41.312L62.37 32.2H66.518L57.542 43.726L66.96 56H62.812ZM70.5366 56H67.3066L80.0566 32.2H83.2866L70.5366 56ZM96.3673 56.34C94.418 56.34 92.65 55.9093 91.0633 55.048C89.4993 54.164 88.264 52.9513 87.3573 51.41C86.4507 49.8687 85.9973 48.1573 85.9973 46.276V32.2H89.3973V46.276C89.3973 47.5453 89.7033 48.7013 90.3153 49.744C90.9273 50.7867 91.7547 51.6027 92.7973 52.192C93.8627 52.7813 95.0527 53.076 96.3673 53.076C97.682 53.076 98.8607 52.7813 99.9033 52.192C100.969 51.6027 101.807 50.7867 102.419 49.744C103.031 48.7013 103.337 47.5453 103.337 46.276V32.2H106.737V46.276C106.737 48.1573 106.284 49.8687 105.377 51.41C104.471 52.9513 103.224 54.164 101.637 55.048C100.073 55.9093 98.3167 56.34 96.3673 56.34ZM115.901 32.2V56H112.501V32.2H115.901ZM139.72 32.2C142.259 32.2 144.457 32.7213 146.316 33.764C148.197 34.8067 149.637 36.2347 150.634 38.048C151.631 39.8387 152.13 41.856 152.13 44.1C152.13 46.344 151.631 48.3727 150.634 50.186C149.637 51.9767 148.197 53.3933 146.316 54.436C144.457 55.4787 142.259 56 139.72 56H131.56V32.2H139.72ZM139.72 52.736C141.511 52.736 143.075 52.3847 144.412 51.682C145.749 50.9793 146.769 49.982 147.472 48.69C148.197 47.3753 148.56 45.8453 148.56 44.1C148.56 42.3547 148.197 40.836 147.472 39.544C146.769 38.2293 145.749 37.2207 144.412 36.518C143.075 35.8153 141.511 35.464 139.72 35.464H134.96V52.736H139.72ZM163.562 38.66C165.307 38.66 166.826 39.034 168.118 39.782C169.433 40.53 170.441 41.5953 171.144 42.978C171.847 44.338 172.198 45.936 172.198 47.772C172.198 48.248 172.187 48.5993 172.164 48.826H158.224C158.451 50.1407 159.063 51.2287 160.06 52.09C161.08 52.9287 162.259 53.348 163.596 53.348C165.795 53.348 167.359 52.5433 168.288 50.934H171.62C171.076 52.5207 170.067 53.824 168.594 54.844C167.121 55.8413 165.455 56.34 163.596 56.34C161.941 56.34 160.445 55.966 159.108 55.218C157.771 54.4473 156.728 53.3933 155.98 52.056C155.232 50.696 154.858 49.1773 154.858 47.5C154.858 45.8227 155.232 44.3153 155.98 42.978C156.728 41.618 157.759 40.564 159.074 39.816C160.411 39.0453 161.907 38.66 163.562 38.66ZM163.494 41.516C162.157 41.516 161.001 41.9353 160.026 42.774C159.074 43.6127 158.485 44.6893 158.258 46.004H168.696C168.56 44.644 168.005 43.556 167.03 42.74C166.078 41.924 164.899 41.516 163.494 41.516ZM182.261 56.34C180.13 56.34 178.328 55.8413 176.855 54.844C175.404 53.824 174.565 52.4187 174.339 50.628H177.569C177.863 51.6027 178.407 52.328 179.201 52.804C180.017 53.2573 181.082 53.484 182.397 53.484C183.621 53.484 184.607 53.2913 185.355 52.906C186.103 52.498 186.477 51.9767 186.477 51.342C186.477 50.7073 186.216 50.2087 185.695 49.846C185.196 49.4607 184.255 49.1547 182.873 48.928L180.935 48.588C176.855 47.8627 174.815 46.2193 174.815 43.658C174.815 42.162 175.472 40.9607 176.787 40.054C178.101 39.1247 179.824 38.66 181.955 38.66C183.881 38.66 185.525 39.1133 186.885 40.02C188.245 40.904 189.106 42.1393 189.469 43.726H186.035C185.763 43.046 185.241 42.5247 184.471 42.162C183.7 41.7767 182.85 41.584 181.921 41.584C180.742 41.584 179.801 41.7653 179.099 42.128C178.419 42.468 178.079 42.944 178.079 43.556C178.079 44.1 178.339 44.5533 178.861 44.916C179.382 45.256 180.221 45.5167 181.377 45.698L183.349 46.038C185.661 46.4233 187.293 47.058 188.245 47.942C189.197 48.8033 189.673 49.9367 189.673 51.342C189.673 52.838 189.004 54.0507 187.667 54.98C186.352 55.8867 184.55 56.34 182.261 56.34ZM196.805 39V56H193.575V39H196.805ZM197.009 32.2V35.94H193.405V32.2H197.009ZM217.711 46.752C217.711 48.2027 217.371 49.5173 216.691 50.696C216.011 51.8747 214.991 52.7927 213.631 53.45C214.719 53.7673 215.513 54.2433 216.011 54.878C216.533 55.5127 216.793 56.2607 216.793 57.122C216.793 58.482 216.295 59.5927 215.297 60.454C214.323 61.338 213.053 61.78 211.489 61.78H206.967C205.426 61.78 204.157 61.3607 203.159 60.522C202.162 59.6833 201.663 58.6067 201.663 57.292C201.663 55.4787 202.706 54.2093 204.791 53.484C203.499 52.9173 202.491 52.0107 201.765 50.764C201.063 49.5173 200.711 48.18 200.711 46.752C200.711 45.2787 201.074 43.9413 201.799 42.74C202.547 41.516 203.567 40.5527 204.859 39.85C206.151 39.1473 207.568 38.796 209.109 38.796C211.285 38.796 213.133 39.6347 214.651 41.312V38.966H217.711V46.752ZM209.211 52.192C210.231 52.192 211.149 51.954 211.965 51.478C212.781 51.002 213.416 50.356 213.869 49.54C214.345 48.724 214.583 47.806 214.583 46.786C214.583 45.7887 214.345 44.8933 213.869 44.1C213.416 43.3067 212.781 42.6833 211.965 42.23C211.149 41.7767 210.231 41.55 209.211 41.55C207.693 41.55 206.435 42.0487 205.437 43.046C204.463 44.0207 203.975 45.2673 203.975 46.786C203.975 48.3273 204.463 49.608 205.437 50.628C206.435 51.648 207.693 52.1693 209.211 52.192ZM211.217 59.196C211.943 59.196 212.543 59.0033 213.019 58.618C213.518 58.2327 213.767 57.7567 213.767 57.19C213.767 56.578 213.529 56.068 213.053 55.66C212.577 55.252 211.965 55.048 211.217 55.048H207.205C206.457 55.048 205.845 55.252 205.369 55.66C204.893 56.068 204.655 56.578 204.655 57.19C204.655 57.7567 204.893 58.2327 205.369 58.618C205.868 59.0033 206.48 59.196 207.205 59.196H211.217ZM231.132 38.66C232.515 38.66 233.75 38.9547 234.838 39.544C235.949 40.1333 236.822 41.0287 237.456 42.23C238.114 43.4087 238.442 44.8593 238.442 46.582V56H235.212V46.65C235.212 45.154 234.77 43.964 233.886 43.08C233.002 42.196 231.892 41.754 230.554 41.754C229.58 41.754 228.718 41.992 227.97 42.468C227.245 42.9213 226.678 43.5447 226.27 44.338C225.885 45.1313 225.692 45.9927 225.692 46.922V56H222.462V39H225.522V41.72C226.157 40.7907 226.962 40.054 227.936 39.51C228.934 38.9433 229.999 38.66 231.132 38.66Z" fill="black"/>
<rect x="0.5" y="0.5" width="334" height="382" stroke="#8F8E93"/>
<path d="M33.3282 315.477C33.3426 318.178 34.0713 320.829 35.4414 323.163C35.4447 323.166 35.4475 323.169 35.4493 323.173C35.4512 323.176 35.4522 323.181 35.4522 323.185C35.4522 323.189 35.4512 323.193 35.4493 323.197C35.4475 323.2 35.4447 323.204 35.4414 323.206C35.4388 323.21 35.4356 323.212 35.4318 323.214C35.428 323.216 35.4239 323.217 35.4197 323.217C35.4155 323.217 35.4113 323.216 35.4076 323.214C35.4038 323.212 35.4005 323.21 35.398 323.206C34.0363 320.855 33.3224 318.189 33.3282 315.477Z" fill="black"/>
<defs>
<linearGradient id="paint0_linear_17880_44856" x1="161.792" y1="263.063" x2="181.544" y2="349.041" gradientUnits="userSpaceOnUse">
<stop stop-color="#D6FFBB"/>
<stop offset="1" stop-color="#5869DD"/>
</linearGradient>
<linearGradient id="paint1_linear_17880_44856" x1="140.705" y1="210.192" x2="246.998" y2="202.006" gradientUnits="userSpaceOnUse">
<stop stop-color="#D6FFBB"/>
<stop offset="1" stop-color="#5869DD"/>
</linearGradient>
<linearGradient id="paint2_linear_17880_44856" x1="117.638" y1="251.368" x2="244.514" y2="221.986" gradientUnits="userSpaceOnUse">
<stop stop-color="#D6FFBB"/>
<stop offset="1" stop-color="#5869DD"/>
</linearGradient>
<linearGradient id="paint3_linear_17880_44856" x1="107.487" y1="251.21" x2="270.892" y2="267.353" gradientUnits="userSpaceOnUse">
<stop stop-color="#D6FFBB"/>
<stop offset="1" stop-color="#5869DD"/>
</linearGradient>
<linearGradient id="paint4_linear_17880_44856" x1="126.289" y1="251.368" x2="307.677" y2="251.368" gradientUnits="userSpaceOnUse">
<stop stop-color="#D6FFBB"/>
<stop offset="1" stop-color="#5869DD"/>
</linearGradient>
<linearGradient id="paint5_linear_17880_44856" x1="188.903" y1="174.984" x2="287.426" y2="209.834" gradientUnits="userSpaceOnUse">
<stop stop-color="#D6FFBB"/>
<stop offset="1" stop-color="#5869DD"/>
</linearGradient>
<linearGradient id="paint6_linear_17880_44856" x1="126.289" y1="251.368" x2="307.677" y2="251.368" gradientUnits="userSpaceOnUse">
<stop stop-color="#D6FFBB"/>
<stop offset="1" stop-color="#5869DD"/>
</linearGradient>
<linearGradient id="paint7_linear_17880_44856" x1="126.289" y1="251.368" x2="307.677" y2="251.368" gradientUnits="userSpaceOnUse">
<stop stop-color="#D6FFBB"/>
<stop offset="1" stop-color="#5869DD"/>
</linearGradient>
<linearGradient id="paint8_linear_17880_44856" x1="372.243" y1="300.237" x2="255.247" y2="281.265" gradientUnits="userSpaceOnUse">
<stop stop-color="#D6FFBB"/>
<stop offset="1" stop-color="#5869DD"/>
</linearGradient>
<linearGradient id="paint9_linear_17880_44856" x1="225.492" y1="236.628" x2="204.938" y2="205.312" gradientUnits="userSpaceOnUse">
<stop stop-color="#D6FFBB"/>
<stop offset="1" stop-color="#5869DD"/>
</linearGradient>
<linearGradient id="paint10_linear_17880_44856" x1="219.468" y1="238.777" x2="189.33" y2="219.235" gradientUnits="userSpaceOnUse">
<stop stop-color="#D6FFBB"/>
<stop offset="1" stop-color="#5869DD"/>
</linearGradient>
<linearGradient id="paint11_linear_17880_44856" x1="208.924" y1="235.768" x2="173.862" y2="222.631" gradientUnits="userSpaceOnUse">
<stop stop-color="#D6FFBB"/>
<stop offset="1" stop-color="#5869DD"/>
</linearGradient>
<linearGradient id="paint12_linear_17880_44856" x1="238.18" y1="249.847" x2="246.894" y2="249.847" gradientUnits="userSpaceOnUse">
<stop stop-color="#D6FFBB"/>
<stop offset="1" stop-color="#5869DD"/>
</linearGradient>
</defs>
</svg>
