<svg xmlns="http://www.w3.org/2000/svg" width="42" height="27" viewBox="0 0 42 27" fill="none">
    <path
        d="M38.3797 3.48906H26.168V0H38.3797V3.48906ZM41.3908 20.9344C40.6197 23.197 37.8511 26.168 32.4919 26.168C27.1292 26.168 22.7853 23.1517 22.7853 16.2678C22.7853 9.44664 26.8414 5.94013 32.3209 5.94013C37.6976 5.94013 40.9808 9.04888 41.6978 13.6614C41.8339 14.5442 41.8879 15.7339 41.8635 17.3947H27.8602C28.087 22.9964 33.9364 23.1726 35.8641 20.9344H41.3908ZM27.9823 13.9563H36.6439C36.4607 11.2575 34.6621 10.0851 32.3227 10.0851C29.7652 10.0851 28.3504 11.4249 27.9823 13.9563ZM11.2801 26.147H0V0.036635H12.1297C21.6828 0.177942 21.8642 9.53386 16.8749 12.0844C22.9127 14.2825 23.115 26.147 11.2801 26.147ZM5.23359 10.4672H11.486C15.8613 10.4672 16.5556 5.23359 10.9417 5.23359H5.23359V10.4672ZM11.1493 15.7008H5.23359V20.9623H11.0621C16.3916 20.9623 16.0654 15.7008 11.1493 15.7008Z"
        fill="black"
    />
</svg>
