<svg xmlns="http://www.w3.org/2000/svg" width="227" height="115" viewBox="0 0 227 115" fill="none">
    <g clip-path="url(#clip0_10870_56503)">
        <path
            d="M16.9394 99.761C44.1283 99.761 71.1741 99.761 98.2199 99.7566C98.4584 99.7566 98.6969 99.6939 99.0308 99.6462C99.0636 99.1896 99.1203 98.7793 99.1203 98.369C99.1262 91.8041 99.1233 85.2392 99.1262 78.6743C99.1262 78.3073 99.1575 77.9387 99.1754 77.524C100.024 77.2584 100.823 77.3956 101.586 77.415C101.856 78.0924 101.879 101.544 101.622 102.333C101.443 102.363 101.231 102.421 101.016 102.43C100.62 102.448 100.222 102.438 99.8239 102.438C72.6961 102.438 45.5668 102.438 18.439 102.438C17.3916 102.438 16.8674 102.954 16.8664 103.988C16.8664 106.424 16.8619 108.862 16.8693 111.299C16.8723 112.306 16.9856 112.41 17.9799 112.425C18.1781 112.428 18.3779 112.425 18.5761 112.425C49.654 112.425 80.7335 112.425 111.811 112.422C112.271 112.422 112.728 112.367 113.263 112.333C113.289 111.839 113.324 111.45 113.324 111.059C113.327 100.241 113.326 89.4243 113.329 78.6087C113.329 78.2446 113.365 77.882 113.388 77.4479H115.908C115.934 77.8432 115.981 78.2028 115.981 78.5624C115.985 84.8543 115.984 91.1446 115.984 97.4365C115.984 102.882 115.984 108.328 115.981 113.774C115.981 114.117 115.948 114.46 115.929 114.85C115.702 114.904 115.519 114.969 115.331 114.986C115.059 115.008 114.785 114.998 114.511 114.998C81.5444 114.998 48.5778 114.998 15.6113 114.998C15.1969 114.998 14.781 114.998 14.2831 114.998C14.2459 114.545 14.1967 114.21 14.1952 113.873C14.1892 110.516 14.1922 107.158 14.1907 103.801C14.1907 103.552 14.1877 103.305 14.1773 103.055C14.1609 102.668 13.9492 102.466 13.5646 102.451C13.3172 102.441 13.0683 102.438 12.8193 102.438C8.94372 102.438 5.06811 102.438 1.1925 102.435C0.851144 102.435 0.511283 102.396 0.256387 102.381C0.156515 102.29 0.137137 102.275 0.12074 102.256C0.105834 102.236 0.0909278 102.215 0.0834747 102.192C0.0596248 102.121 0.0298124 102.051 0.0208687 101.98C0.00596248 101.857 0 101.732 0 101.608C0.00447186 67.9407 0.0074531 34.2717 0.0104343 0.604269C0.0104343 0.505795 0.0298124 0.407322 0.0506811 0.31034C0.0596248 0.264088 0.0924184 0.220819 0.113287 0.177551C0.131175 0.161138 0.149062 0.143234 0.166949 0.126822C0.186328 0.11041 0.204215 0.0910133 0.226574 0.0835532C0.296633 0.0596809 0.366693 0.0268564 0.439733 0.0208883C0.612645 0.00596809 0.787047 0 0.959959 0C34.3737 0.00149202 67.7874 0.00447606 101.201 0.00895213C101.3 0.00895213 101.398 0.0328245 101.493 0.0566968C101.54 0.067141 101.58 0.102949 101.721 0.185011C101.742 0.455067 101.791 0.790772 101.791 1.12648C101.797 4.50889 101.794 7.88981 101.796 11.2722C101.796 11.5214 101.799 11.7691 101.809 12.0182C101.826 12.4032 102.031 12.6121 102.418 12.63C102.665 12.6404 102.914 12.6434 103.163 12.6434C107.038 12.6434 110.914 12.6434 114.79 12.6464C115.131 12.6464 115.471 12.6837 115.781 12.7016C116.019 13.2999 116.088 49.2114 115.861 50.2364C115.092 50.4273 114.298 50.3587 113.394 50.2602C113.368 49.8574 113.321 49.4978 113.321 49.1382C113.317 42.6733 113.318 36.2084 113.318 29.742C113.318 25.3405 113.32 20.939 113.315 16.5376C113.315 16.1974 113.272 15.8572 113.245 15.4514C112.904 15.4021 112.618 15.3246 112.333 15.3246C109.128 15.3156 105.923 15.3156 102.719 15.3246C102.434 15.3246 102.149 15.4051 101.786 15.4588V36.3158C101.786 38.6284 101.794 40.9411 101.783 43.2537C101.771 45.5559 101.835 47.8596 101.741 50.1901C100.843 50.4288 100.052 50.3662 99.1799 50.2438C99.159 49.7738 99.1262 49.3829 99.1262 48.992C99.1233 38.2256 99.1247 27.4577 99.1218 16.6912C99.1218 16.3003 99.086 15.9109 99.0651 15.4842C98.8117 15.42 98.6284 15.3484 98.4406 15.332C98.1439 15.3081 97.8443 15.3186 97.5462 15.3186C71.1637 15.3186 44.7797 15.3186 18.3972 15.3186H16.9737C16.9305 15.796 16.8708 16.1541 16.8708 16.5122C16.8649 21.2852 16.8664 26.0597 16.8664 30.8326C16.8664 53.3114 16.8664 75.7902 16.8693 98.2705C16.8693 98.7077 16.9096 99.1463 16.9394 99.761ZM14.1341 99.5298C14.1519 99.1389 14.1907 98.7017 14.1907 98.266C14.1937 70.2697 14.1937 42.2749 14.1937 14.2786C14.1937 13.9549 14.1832 13.6311 14.2056 13.3088C14.219 13.1208 14.2906 12.9373 14.3636 12.6419H15.6426C40.284 12.6419 64.9255 12.6419 89.5654 12.6419C92.3976 12.6419 95.2283 12.6449 98.0604 12.6404C98.9831 12.6404 99.1158 12.521 99.1188 11.6258C99.1277 8.96556 99.1292 6.30528 99.1188 3.64501C99.1158 2.80351 98.9653 2.67669 98.0962 2.65729C97.898 2.65281 97.6982 2.6558 97.5 2.6558C66.425 2.6558 35.3515 2.6558 4.27659 2.6558C3.20235 2.6558 2.66473 3.18547 2.66374 4.2448C2.66374 35.5967 2.66374 66.95 2.66374 98.3018C2.66374 98.551 2.65181 98.8002 2.67417 99.0479C2.69057 99.2373 2.75467 99.4209 2.78895 99.5731C3.58643 99.8371 13.3992 99.8177 14.1341 99.5313V99.5298Z"
            fill="#B2B2B2"
        />
        <path
            d="M116.815 72H114.231C114.198 71.6195 114.144 71.2824 114.144 70.9468C114.138 67.6271 114.143 64.3073 114.138 60.986C114.138 60.6954 114.108 60.4032 114.091 60.1126L113.924 60.0242C113.735 60.219 113.512 60.3927 113.36 60.6145C111.886 62.7702 110.423 64.935 108.955 67.0952C108.831 67.278 108.692 67.4503 108.489 67.7229C108.257 67.4413 108.055 67.2346 107.894 66.9994C106.466 64.9035 105.046 62.8017 103.617 60.7058C103.472 60.4931 103.283 60.3103 103.115 60.1141L102.922 60.165C102.885 60.4661 102.817 60.7688 102.817 61.0699C102.809 64.3657 102.814 67.66 102.809 70.9558C102.809 71.2719 102.763 71.588 102.733 71.982H100.246C100.022 71.3933 99.901 56.6775 100.103 55.073C100.572 55.055 101.065 55.0176 101.559 55.0221C103.374 55.0355 102.98 54.8333 103.926 56.258C105.245 58.2445 106.531 60.2534 107.839 62.2489C107.998 62.4916 108.202 62.7043 108.466 63.0324C108.735 62.7163 108.963 62.4976 109.131 62.2414C110.521 60.1216 111.923 58.0063 113.273 55.861C113.671 55.2288 114.14 54.9457 114.89 55.0086C115.538 55.064 116.192 55.0415 116.799 55.052C117.057 55.7966 117.071 71.1716 116.817 72H116.815Z"
            fill="#B2B2B2"
        />
        <path
            d="M142.889 60.1291C142.851 60.4265 142.779 60.7253 142.777 61.0226C142.77 64.2665 142.774 67.5088 142.77 70.7527C142.77 71.0917 142.728 71.4306 142.704 71.8097C141.823 72.0342 141.006 71.9286 140.116 71.89C140.072 71.5377 140.005 71.2537 140.005 70.9698C139.999 65.9687 139.999 60.9676 140.003 55.9665C140.003 55.7019 140.046 55.4373 140.073 55.1355C140.909 54.9556 141.696 54.9675 142.463 55.0968C142.735 55.1429 142.996 55.4551 143.191 55.6989C145.248 58.2812 147.289 60.874 149.336 63.4637C150.019 64.3274 150.703 65.1897 151.391 66.0475C151.526 66.2155 151.69 66.3612 151.84 66.5158C151.898 66.5054 151.958 66.495 152.016 66.4846C152.052 66.1887 152.121 65.8944 152.122 65.5985C152.13 62.4543 152.126 59.31 152.129 56.1657C152.129 55.8491 152.161 55.531 152.18 55.1504C153.087 54.9422 153.948 54.9868 154.787 55.1043C155.029 55.7391 155.078 70.9311 154.864 71.7458C153.701 72.2498 152.606 71.997 151.861 71.053C149.197 67.6768 146.535 64.2992 143.866 60.9275C143.628 60.6272 143.353 60.3536 143.095 60.0682C143.026 60.089 142.959 60.1098 142.89 60.1291H142.889Z"
            fill="#B2B2B2"
        />
        <path
            d="M183.067 55.1904C183.831 54.9485 195.073 54.935 195.853 55.162V57.4142C195.499 57.4485 195.177 57.5067 194.855 57.5067C192.277 57.5142 189.7 57.5067 187.122 57.5157C186.772 57.5157 186.423 57.571 185.95 57.6128C185.882 59.1152 185.888 60.537 185.95 62.0424C186.358 62.0857 186.678 62.1484 187 62.1499C189.216 62.1589 191.434 62.1514 193.65 62.1589C193.975 62.1589 194.3 62.2096 194.69 62.2425V64.5708C194.311 64.6037 193.986 64.6559 193.663 64.6574C191.471 64.6649 189.281 64.6574 187.09 64.6649C186.762 64.6649 186.434 64.7082 186.141 64.7276C185.858 65.3444 185.807 68.4523 186.063 69.3663C186.349 69.3962 186.67 69.4574 186.992 69.4589C189.595 69.4663 192.2 69.4619 194.803 69.4649C195.134 69.4649 195.463 69.4962 195.851 69.5156C196.08 70.3057 195.997 71.0569 195.918 71.8843C195.61 71.9261 195.341 71.9948 195.072 71.9948C191.36 72.0022 187.648 72.0007 183.936 71.9963C183.685 71.9963 183.433 71.9544 183.116 71.9276C183.073 71.6199 183.005 71.3586 183.005 71.0972C182.999 66.0448 182.999 60.991 183.003 55.9386C183.003 55.6952 183.044 55.4517 183.065 55.1919L183.067 55.1904Z"
            fill="#B2B2B2"
        />
        <path
            d="M88.8536 71.8835C87.6285 72.0743 76.7573 72.0117 76.1864 71.8328C75.9735 71.2646 75.9257 56.0105 76.1339 55.1963C76.7125 54.9636 87.9757 54.9219 88.8057 55.1575V57.4123C88.4139 57.4525 88.0929 57.5122 87.772 57.5137C85.2525 57.5211 82.7329 57.5182 80.2134 57.5197C79.9572 57.5197 79.6764 57.4794 79.4512 57.5644C79.2491 57.6404 78.9682 57.8626 78.9621 58.0267C78.922 59.3345 78.9405 60.6453 78.9405 62.0337C79.3571 62.0799 79.6764 62.147 79.9974 62.1485C82.2083 62.1575 84.4193 62.15 86.6303 62.1575C86.9558 62.1575 87.2798 62.2037 87.6763 62.235V64.5614C87.3215 64.5957 86.999 64.6509 86.6781 64.6524C84.4934 64.6598 82.3071 64.6538 80.1223 64.6598C79.7937 64.6598 79.4651 64.6971 79.1704 64.7135C78.8556 65.3309 78.8155 68.558 79.1117 69.3737C79.4003 69.3975 79.7243 69.4453 80.0498 69.4468C82.6465 69.4527 85.2432 69.4482 87.8399 69.4542C88.167 69.4542 88.4925 69.493 88.8752 69.5183C89.0279 70.349 89.0619 71.1125 88.8551 71.885L88.8536 71.8835Z"
            fill="#B2B2B2"
        />
        <path
            d="M68.3015 55.0925H70.8123C71.0406 55.7741 71.0644 71.0863 70.863 71.8096C70.2872 72.0393 69.1907 72.0586 68.3865 71.823C68.3582 71.5486 68.3015 71.2384 68.3 70.9267C68.2911 69.2369 68.3015 67.5472 68.2911 65.8574C68.2851 64.8716 68.1284 64.7016 67.1796 64.6971C65.0671 64.6852 62.9532 64.6867 60.8407 64.6971C59.9665 64.7016 59.8367 64.8298 59.8307 65.6904C59.8188 67.4055 59.8307 69.1206 59.8233 70.8342C59.8233 71.1534 59.7889 71.471 59.7666 71.8558C58.8819 72.0915 58.0375 71.9781 57.2274 71.9319C56.9753 71.3025 56.9126 56.1081 57.1424 55.1283C57.9614 54.9314 58.8073 54.997 59.7308 55.088C59.7651 55.4191 59.8203 55.7055 59.8218 55.9918C59.8307 57.6816 59.8218 59.3713 59.8307 61.0611C59.8322 61.3743 59.8904 61.686 59.9292 62.0543C60.2842 62.0931 60.5722 62.1498 60.8601 62.1513C62.9726 62.1587 65.0865 62.1587 67.199 62.1543C68.1613 62.1528 68.2866 62.0379 68.2896 61.0909C68.2955 59.2774 68.2806 57.4623 68.2761 55.6488C68.2761 55.5026 68.2881 55.3565 68.3 55.094L68.3015 55.0925Z"
            fill="#B2B2B2"
        />
        <path
            d="M119.003 71.9929C119.117 71.6261 119.167 71.3923 119.259 71.1793C121.48 66.0048 123.709 60.8347 125.923 55.6572C126.111 55.2178 126.363 54.9767 126.852 55.0018C127.264 55.024 127.68 55.0225 128.092 55.0018C128.604 54.9767 128.883 55.2104 129.083 55.6838C130.179 58.2637 131.303 60.8317 132.413 63.4057C133.515 65.956 134.612 68.5092 135.708 71.0625C135.803 71.2844 135.882 71.5151 136 71.8243C135.774 71.8894 135.603 71.9767 135.429 71.9826C134.894 72.0018 134.358 71.9796 133.823 71.9944C133.339 72.0092 133.069 71.7799 132.895 71.3302C132.549 70.4367 132.143 69.5654 131.804 68.669C131.593 68.1113 131.267 67.8524 130.661 67.8583C128.519 67.879 126.377 67.8776 124.235 67.8613C123.668 67.8568 123.338 68.0787 123.132 68.6142C122.778 69.5314 122.355 70.4219 122 71.3391C121.81 71.8302 121.497 72.0166 120.994 71.9988C120.371 71.9767 119.747 71.9929 119 71.9929H119.003ZM127.518 58.598C126.944 59.1364 126.856 59.7385 126.615 60.2459C126.363 60.777 126.152 61.3287 125.926 61.8731C125.689 62.4397 125.429 62.9974 125.227 63.5758C125.042 64.1128 124.614 64.5817 124.7 65.1971C125.42 65.4545 129.631 65.4352 130.313 65.1394C129.462 62.9944 128.54 60.879 127.517 58.5995L127.518 58.598Z"
            fill="#B2B2B2"
        />
        <path
            d="M198.003 70.142C198.545 69.4942 199.056 68.8831 199.605 68.226C199.968 68.4803 200.26 68.6671 200.534 68.88C202.031 70.0486 203.714 70.6045 205.596 70.3886C206.129 70.3273 206.671 70.1405 207.156 69.9031C208.486 69.2522 208.548 67.0483 207.182 66.3959C206.349 65.9977 205.461 65.7113 204.584 65.4172C203.609 65.091 202.604 64.8551 201.638 64.5044C200.222 63.9898 199.052 63.0954 198.751 61.5363C198.218 58.7887 198.979 56.3628 201.987 55.4163C204.808 54.528 207.489 55.0962 209.932 56.787C210.077 56.8866 210.215 56.9923 210.441 57.1561C209.919 57.8974 209.463 58.5437 208.966 59.2497C208.599 59.0629 208.306 58.9373 208.037 58.7719C206.947 58.1011 205.787 57.6631 204.504 57.5804C203.755 57.5329 203.055 57.6631 202.414 58.0613C201.039 58.9159 200.992 60.7307 202.372 61.5823C202.983 61.959 203.696 62.1811 204.384 62.4047C205.338 62.7156 206.312 62.956 207.275 63.2379C207.54 63.3144 207.797 63.4201 208.05 63.5288C210.138 64.4278 211.055 65.8246 210.997 68.0178C210.945 70.1206 209.801 71.8114 207.812 72.4822C204.757 73.5129 201.88 72.9554 199.186 71.2493C198.868 71.0487 198.576 70.8006 198.286 70.5601C198.196 70.4851 198.144 70.3595 198 70.142H198.003Z"
            fill="#B2B2B2"
        />
        <path
            d="M167.134 55.1791C167.775 54.951 178.24 54.933 179 55.1701V57.4217C178.669 57.4593 178.367 57.5223 178.067 57.5238C175.7 57.5313 173.332 57.5268 170.964 57.5298C170.699 57.5298 170.414 57.4953 170.175 57.5838C169.982 57.6544 169.709 57.8856 169.706 58.0492C169.679 59.4196 169.706 60.7916 169.722 62.1636C169.722 62.2266 169.795 62.2897 169.876 62.4233C170.137 62.4473 170.442 62.4998 170.748 62.4998C172.826 62.5073 174.903 62.4998 176.982 62.5073C177.287 62.5073 177.591 62.5598 177.964 62.5944V64.933C177.619 64.9675 177.317 65.0231 177.015 65.0246C174.961 65.0321 172.908 65.0276 170.854 65.0291C169.715 65.0291 169.651 65.0921 169.648 66.2434C169.644 67.8436 169.65 69.4437 169.644 71.0423C169.644 71.335 169.601 71.6262 169.57 72H167.208C166.978 71.4071 166.918 56.1278 167.134 55.1776V55.1791Z"
            fill="#B2B2B2"
        />
        <path
            d="M221.556 57.7232C221.527 58.183 221.484 58.5473 221.483 58.9115C221.478 62.8647 221.481 66.8193 221.477 70.7724C221.477 71.1143 221.442 71.4577 221.419 71.8533C220.506 72.0981 219.642 71.9697 218.693 71.9384C218.661 71.5189 218.614 71.183 218.612 70.8456C218.608 66.8671 218.611 62.8886 218.606 58.91C218.606 58.5458 218.562 58.183 218.535 57.7575C218.165 57.7098 217.874 57.6411 217.581 57.6381C216.414 57.6247 215.247 57.6351 214.079 57.6277C213.78 57.6262 213.481 57.5918 213.134 57.5709C212.931 56.7424 213 55.9661 213.072 55.1122C213.376 55.0719 213.641 55.0047 213.908 55.0047C217.968 54.9987 222.028 54.9987 226.088 55.0032C226.335 55.0032 226.58 55.0465 226.877 55.0734C227.057 55.9019 227.011 56.6767 226.917 57.5306C226.588 57.5665 226.297 57.6232 226.004 57.6262C224.863 57.6366 223.721 57.6247 222.578 57.6336C222.281 57.6366 221.984 57.6844 221.553 57.7232H221.556Z"
            fill="#B2B2B2"
        />
        <path
            d="M40.1592 55.1647C40.8858 54.9259 53.3132 54.9498 54 55.2169V57.5327C53.6704 57.5715 53.3776 57.6327 53.0848 57.6357C51.9106 57.6476 50.7364 57.6357 49.5637 57.6447C49.2663 57.6476 48.9705 57.7014 48.5918 57.7402C48.5612 58.1296 48.5137 58.4654 48.5137 58.8011C48.5091 62.8002 48.5121 66.7992 48.5075 70.7997C48.5075 71.14 48.4646 71.4787 48.4401 71.8607C47.5265 72.092 46.6772 71.9696 45.7237 71.9517C45.6839 71.5563 45.6226 71.2235 45.6226 70.8908C45.6164 66.8917 45.6195 62.8927 45.6149 58.8921C45.6149 58.5295 45.5659 58.1684 45.5352 57.7267C43.7095 57.5268 41.9527 57.7312 40.2497 57.5999C39.9477 56.9657 39.9216 55.8824 40.1608 55.1647H40.1592Z"
            fill="#B2B2B2"
        />
        <path d="M159.201 55.1076C160.094 54.9644 161.011 54.957 162 55.1285V71.8673C161.028 72.0582 160.11 72.0149 159.218 71.9135C158.937 71.2275 158.924 55.8533 159.201 55.1076Z" fill="#B2B2B2" />
    </g>
    <defs>
        <clipPath id="clip0_10870_56503">
            <rect width="227" height="115" fill="white" />
        </clipPath>
    </defs>
</svg>
