<svg xmlns="http://www.w3.org/2000/svg" width="244" height="55" viewBox="0 0 244 55" fill="none">
    <g clip-path="url(#clip0_10870_56445)">
        <path
            d="M43 22H51.0309C57.4948 22 62 26.3478 62 31.9517V32.0483C62 37.6522 57.5928 42 51.0309 42H43V22ZM51.0309 37.942C54.7526 37.942 57.201 35.5266 57.201 32.0483V31.9517C57.201 28.4734 54.7526 25.9614 51.0309 25.9614H47.6031V37.942H51.0309Z"
            fill="#B2B2B2"
        />
        <path d="M66 22H81.8012V25.9024H70.6708V30H80.5093V33.9024H70.6708V38.0976H82V42H66.0994L66 22Z" fill="#B2B2B2" />
        <path
            d="M85 39.8152L87.8675 36.6303C89.8132 38.1232 91.8614 39.1185 94.3193 39.1185C96.2651 39.1185 97.3916 38.3223 97.3916 37.2275V37.128C97.3916 35.9336 96.5723 35.3365 93.0904 34.5403C88.7892 33.4455 85.9217 32.3507 85.9217 28.2701V28.1706C85.9217 24.4882 88.994 22 93.5 22C96.5723 22 99.3373 22.8957 101.488 24.5877L99.0301 28.0711C97.1867 26.7773 95.241 26.0806 93.3976 26.0806C91.5542 26.0806 90.6325 26.8768 90.6325 27.872V27.7725C90.6325 29.0664 91.5542 29.564 95.241 30.4597C99.6446 31.5545 102 33.0474 102 36.5308V36.6303C102 40.7109 98.7229 43 94.1145 43C90.8374 43 87.5602 41.9052 85 39.8152Z"
            fill="#B2B2B2"
        />
        <path d="M106 22H111V42H106V22Z" fill="#B2B2B2" />
        <path
            d="M115 32.4512C115 26.6884 119.6 22 126 22C129.8 22 132 22.9767 134.2 24.8326L131.3 28.2512C129.7 26.9814 128.3 26.2 125.8 26.2C122.4 26.2 119.8 29.0326 119.8 32.4512V32.5488C119.8 36.2605 122.4 38.9953 126.2 38.9953C127.9 38.9953 129.4 38.6047 130.6 37.7256V34.893H125.9V31.0837H135V39.7767C132.8 41.5349 129.9 43 126 43C119.4 42.707 115 38.4093 115 32.4512Z"
            fill="#B2B2B2"
        />
        <path d="M139 22H143.392L153.403 34.233V22H158V42H154.016L143.597 29.2816V42H139V22Z" fill="#B2B2B2" />
        <path
            d="M163.197 22H172.639C175.295 22 177.262 22.8155 178.639 24.1408C179.82 25.3641 180.41 26.9951 180.41 28.932V29.034C180.41 32.3981 178.639 34.5388 175.984 35.5583L181 43H175.689L171.262 36.2718H171.164H167.623V43H163V22H163.197ZM172.344 32.0922C174.607 32.0922 175.787 30.8689 175.787 29.1359V29.034C175.787 27.0971 174.508 26.0777 172.246 26.0777H167.721V32.0922H172.344Z"
            fill="#B2B2B2"
        />
        <path
            d="M184 33.9569V22.1005H188.549V33.756C188.549 37.1722 190.231 38.7799 193 38.7799C195.769 38.7799 197.451 37.0718 197.451 33.756V22H202V33.6555C202 39.8852 198.44 43 192.901 43C187.363 43 184 39.9856 184 33.9569Z"
            fill="#B2B2B2"
        />
        <path
            d="M206 39.8152L208.867 36.6303C210.813 38.1232 212.861 39.1185 215.319 39.1185C217.265 39.1185 218.392 38.3223 218.392 37.2275V37.128C218.392 35.9336 217.572 35.3365 214.09 34.5403C209.789 33.4455 206.922 32.3507 206.922 28.2701V28.1706C206.922 24.4882 209.994 22 214.5 22C217.572 22 220.337 22.8957 222.488 24.5877L220.03 28.0711C218.187 26.7773 216.241 26.0806 214.398 26.0806C212.554 26.0806 211.633 26.8768 211.633 27.872V27.7725C211.633 29.0664 212.554 29.564 216.241 30.4597C220.645 31.5545 223 33.0474 223 36.5308V36.6303C223 40.7109 219.723 43 215.114 43C211.94 43 208.56 41.9052 206 39.8152Z"
            fill="#B2B2B2"
        />
        <path d="M226 22H230.678V30.3592H239.322V22H244V43H239.322V34.6408H230.678V43H226V22Z" fill="#B2B2B2" />
        <path
            d="M16 35C15.9024 34.8966 15.9024 35 16 35L15.5122 34.6897L15.4146 34.5862L3.90244 25.8966C3.90244 25.8966 3.80488 25.8966 3.80488 25.7931L3.60976 25.5862L3.5122 25.4828H3.31707L0 23L6.53659 24.0345C6.82927 24.0345 6.92683 24.1379 7.21951 24.2414C7.31707 24.2414 7.5122 24.3448 7.5122 24.3448C7.80488 24.4483 7.90244 24.5517 8.09756 24.6552C8.29268 24.7586 8.39024 24.8621 8.58537 24.9655C8.68293 25.069 8.87805 25.1724 8.87805 25.2759C8.97561 25.3793 9.07317 25.3793 9.17073 25.4828C9.36585 25.5862 9.46342 25.6897 9.46342 25.7931C9.7561 26.1034 9.95122 26.4138 10.2439 26.6207L15.4146 34.3793L15.5122 34.4828L16 35Z"
            fill="#B2B2B2"
        />
        <path
            d="M16.3994 46L15.8963 45.2069L15.7957 45.1078L0 23L3.42073 25.3793L4.02439 25.7759L15.8963 34.1034H15.9969L16.3994 34.4009C16.3994 34.4009 16.5 34.4009 16.5 34.5L17.003 34.1034L33 23L16.9024 45.2069L16.8018 45.306L16.3994 46Z"
            fill="#B2B2B2"
        />
        <path d="M16.6023 32L16.0909 31.125L15.9886 31.0156L12 25.1094L15.9886 25.9844H16.0909L16.6023 26.0938L17.1136 25.9844L21 25L17.1136 31.125V31.2344L16.6023 32Z" fill="#B2B2B2" />
        <path d="M33 23L27.8795 23.7179L25.9337 24.0256C24.3976 24.2308 22.9639 25.0513 22.0422 26.3846L16.6145 34.1795L16.512 34.2821L16 35L16.6145 34.3846L16.7169 34.2821L16 35L29.8253 25.1538L33 23Z" fill="#B2B2B2" />
        <path
            d="M19 6.92019C19 11.4648 11.2449 13.8404 11.2449 18.6948C11.1429 19.831 11.449 20.9671 11.9592 22C11.9592 22 9 19.108 9 16.0094C9 12.9108 11.8571 8.26291 11.8571 8.26291C11.8571 10.3286 12.6735 10.9484 13.4898 11.0516H13.5918C14.5102 11.0516 15.0204 10.3286 15.0204 9.29577C15.0204 8.26291 13.898 7.23005 13.898 5.16432C13.898 3.20188 16.3469 0 16.3469 0C18.0816 2.06573 19 4.44131 19 6.92019Z"
            fill="#B2B2B2"
        />
        <path
            d="M16.2607 23C13.826 23 12 21.0774 12 18.75V18.6488C12 13.4881 19.2025 12.9821 19.2025 6C19.4054 6.30357 21.3329 8.93452 21.3329 11.7679C21.3329 15.3095 17.9852 16.2202 17.9852 17.9405C17.9852 18.6488 18.2895 19.1548 19.304 19.1548C19.4054 19.1548 19.5069 19.1548 19.6083 19.0536C21.5358 18.244 22.8545 16.4226 22.956 14.2976C22.956 14.3988 23.9704 23 16.2607 23Z"
            fill="#B2B2B2"
        />
        <path
            d="M19.1905 18.7106C19.2857 18.7106 19.381 18.7106 19.4762 18.6129C18.5238 18.9062 15 19.7862 15 17.244C15 14.1153 20.2381 13.4308 20.2381 10.7909C20.2381 9.12877 19.8571 7.46661 19 6C19.1905 6.29332 21 8.83545 21 11.5731C21 14.9952 17.8571 15.8752 17.8571 17.5374C17.9524 18.2218 18.3333 18.7106 19.1905 18.7106Z"
            fill="#B2B2B2"
        />
        <path
            d="M16 8.69702C16 11.255 13.1765 11.0503 13 10.948H13.2647C14.0588 10.948 14.5 10.2318 14.5 9.20861C14.5 8.18543 13.5294 7.16225 13.5294 5.11589C13.5294 3.17185 15.6471 0 15.6471 0C14.9412 1.33013 14.5882 2.76258 14.5 4.19503C14.5 6.54834 16 6.75298 16 8.69702Z"
            fill="#B2B2B2"
        />
        <path d="M14.169 52.3235L12 50.7794H14.662L15.5493 48L16.338 50.7794H19L16.831 52.3235L17.6197 55L15.4507 53.3529L13.1831 55L14.169 52.3235Z" fill="#B2B2B2" />
        <path d="M26.169 52.3235L24 50.7794H26.662L27.5493 48L28.338 50.7794H31L28.831 52.3235L29.6197 55L27.4507 53.3529L25.1831 55L26.169 52.3235Z" fill="#B2B2B2" />
        <path d="M3.16901 52.3235L1 50.7794H3.66197L4.5493 48L5.33803 50.7794H8L5.83099 52.3235L6.61972 55L4.4507 53.3529L2.28169 55L3.16901 52.3235Z" fill="#B2B2B2" />
    </g>
    <defs>
        <clipPath id="clip0_10870_56445">
            <rect width="244" height="55" fill="white" />
        </clipPath>
    </defs>
</svg>
