<svg xmlns="http://www.w3.org/2000/svg" width="428" height="559" viewBox="0 0 428 559" fill="none">
    <path
        d="M165.16 511.796C163.16 510.246 161.16 508.736 159.27 507.126C157.38 505.516 155.45 503.856 153.65 502.126C153.571 502.026 153.532 501.9 153.54 501.774C153.548 501.647 153.602 501.527 153.691 501.437C153.781 501.348 153.901 501.294 154.028 501.286C154.154 501.278 154.28 501.317 154.38 501.396C156.15 503.136 158 504.796 159.91 506.396C161.82 507.996 163.81 509.506 165.77 511.056C165.82 511.096 165.863 511.145 165.894 511.202C165.926 511.258 165.946 511.32 165.953 511.384C165.96 511.448 165.955 511.513 165.937 511.575C165.92 511.637 165.89 511.695 165.85 511.746C165.762 511.839 165.642 511.896 165.514 511.906C165.387 511.915 165.26 511.876 165.16 511.796Z"
        fill="black"
    />
    <path
        d="M144.498 490.066C143.351 487.784 142.523 485.354 142.038 482.846C141.563 480.332 141.462 477.761 141.738 475.216C141.755 475.069 141.83 474.935 141.946 474.843C142.063 474.751 142.211 474.709 142.358 474.726C142.43 474.734 142.5 474.756 142.564 474.79C142.628 474.825 142.684 474.872 142.73 474.929C142.776 474.986 142.809 475.051 142.83 475.121C142.85 475.191 142.856 475.264 142.848 475.336C142.574 477.772 142.661 480.236 143.108 482.646C143.572 485.057 144.366 487.392 145.468 489.586C145.531 489.719 145.54 489.871 145.491 490.01C145.442 490.149 145.34 490.263 145.208 490.326C145.075 490.39 144.923 490.398 144.784 490.35C144.645 490.301 144.531 490.199 144.468 490.066H144.498Z"
        fill="black"
    />
    <path
        d="M146.731 460.927C149.295 456.511 152.793 452.708 156.981 449.787C157.114 449.696 157.278 449.661 157.436 449.69C157.515 449.704 157.589 449.734 157.656 449.777C157.723 449.82 157.781 449.877 157.826 449.942C157.872 450.008 157.904 450.082 157.92 450.16C157.937 450.238 157.938 450.318 157.924 450.397C157.91 450.475 157.88 450.55 157.837 450.617C157.793 450.684 157.737 450.742 157.671 450.787C153.615 453.605 150.223 457.273 147.731 461.537C147.694 461.604 147.644 461.662 147.584 461.709C147.523 461.755 147.454 461.789 147.381 461.809C147.307 461.829 147.23 461.833 147.155 461.823C147.079 461.812 147.007 461.786 146.941 461.747C146.872 461.709 146.811 461.657 146.762 461.594C146.714 461.532 146.678 461.46 146.659 461.383C146.639 461.306 146.635 461.226 146.648 461.147C146.66 461.069 146.689 460.994 146.731 460.927Z"
        fill="black"
    />
    <path
        d="M170.478 442.986C175.208 441.256 180.048 439.916 184.868 438.566C184.948 438.544 185.032 438.538 185.115 438.548C185.197 438.558 185.277 438.584 185.349 438.625C185.422 438.666 185.485 438.72 185.537 438.786C185.588 438.851 185.626 438.926 185.648 439.006C185.67 439.086 185.677 439.17 185.667 439.253C185.657 439.335 185.631 439.415 185.59 439.487C185.549 439.56 185.494 439.623 185.429 439.675C185.363 439.726 185.288 439.764 185.208 439.786C180.388 441.126 175.578 442.446 170.908 444.146C170.754 444.201 170.585 444.193 170.437 444.124C170.289 444.054 170.175 443.929 170.118 443.776C170.089 443.701 170.076 443.62 170.078 443.54C170.081 443.459 170.1 443.379 170.133 443.306C170.167 443.232 170.214 443.166 170.274 443.111C170.333 443.057 170.402 443.014 170.478 442.986Z"
        fill="black"
    />
    <path
        d="M199.291 434.366L213.84 430.596C213.926 430.574 214.015 430.568 214.102 430.58C214.19 430.592 214.274 430.621 214.35 430.666C214.427 430.711 214.493 430.77 214.546 430.84C214.6 430.911 214.638 430.991 214.66 431.077C214.706 431.25 214.682 431.435 214.592 431.59C214.502 431.746 214.354 431.86 214.181 431.906L199.681 435.627C199.598 435.648 199.512 435.652 199.427 435.64C199.343 435.628 199.262 435.599 199.188 435.555C199.115 435.511 199.051 435.454 199 435.385C198.949 435.317 198.912 435.239 198.891 435.156C198.847 434.999 198.864 434.83 198.938 434.684C199.012 434.539 199.138 434.425 199.291 434.366Z"
        fill="black"
    />
    <path
        d="M228.548 427.606C233.498 426.776 238.468 426.096 243.458 425.606C243.647 425.586 243.835 425.641 243.982 425.76C244.13 425.88 244.223 426.052 244.243 426.241C244.263 426.429 244.208 426.617 244.088 426.765C243.969 426.912 243.797 427.006 243.608 427.025C238.648 427.519 233.705 428.185 228.778 429.025C228.688 429.041 228.596 429.038 228.507 429.017C228.419 428.997 228.335 428.959 228.26 428.906C228.186 428.853 228.123 428.786 228.075 428.709C228.026 428.632 227.993 428.546 227.978 428.456C227.963 428.366 227.966 428.274 227.986 428.185C228.007 428.096 228.045 428.012 228.098 427.937C228.151 427.863 228.218 427.8 228.295 427.752C228.372 427.703 228.458 427.671 228.548 427.656V427.606Z"
        fill="black"
    />
    <path
        d="M258.428 424.364L273.338 422.934C273.532 422.926 273.721 422.993 273.868 423.12C274.014 423.247 274.106 423.425 274.125 423.618C274.145 423.811 274.089 424.004 273.971 424.158C273.852 424.311 273.68 424.414 273.488 424.444L258.538 425.844C258.442 425.854 258.345 425.844 258.253 425.816C258.161 425.788 258.075 425.742 258.001 425.681C257.926 425.62 257.865 425.544 257.82 425.459C257.775 425.374 257.747 425.28 257.738 425.184C257.719 424.989 257.777 424.795 257.901 424.643C258.024 424.491 258.203 424.394 258.398 424.374L258.428 424.364Z"
        fill="black"
    />
    <path
        d="M288.209 421.136L303.019 418.926C303.228 418.897 303.44 418.951 303.61 419.076C303.78 419.201 303.894 419.387 303.929 419.596C303.944 419.699 303.939 419.804 303.914 419.905C303.888 420.006 303.843 420.102 303.781 420.185C303.719 420.269 303.64 420.339 303.551 420.393C303.461 420.446 303.362 420.481 303.259 420.496L288.398 422.666C288.196 422.695 287.989 422.642 287.825 422.519C287.661 422.397 287.553 422.214 287.523 422.011C287.494 421.808 287.547 421.602 287.67 421.437C287.793 421.273 287.976 421.165 288.179 421.136H288.209Z"
        fill="black"
    />
    <path
        d="M317.79 416.365L332.5 413.515C332.609 413.489 332.723 413.485 332.833 413.505C332.944 413.524 333.049 413.566 333.143 413.628C333.237 413.69 333.317 413.77 333.378 413.864C333.44 413.958 333.481 414.064 333.5 414.175C333.523 414.284 333.525 414.397 333.504 414.506C333.483 414.616 333.441 414.72 333.38 414.813C333.318 414.906 333.239 414.986 333.146 415.048C333.054 415.11 332.949 415.153 332.84 415.175L318.09 417.985C317.982 418.014 317.869 418.021 317.758 418.004C317.648 417.987 317.542 417.947 317.448 417.887C317.354 417.827 317.273 417.747 317.211 417.654C317.15 417.56 317.108 417.455 317.09 417.345C317.064 417.237 317.059 417.125 317.077 417.015C317.096 416.906 317.136 416.801 317.196 416.708C317.256 416.614 317.334 416.534 317.426 416.472C317.517 416.409 317.621 416.366 317.73 416.345L317.79 416.365Z"
        fill="black"
    />
    <path
        d="M347.162 410.367L361.772 407.037C361.881 407.012 361.994 407.009 362.104 407.028C362.214 407.046 362.32 407.086 362.415 407.146C362.509 407.205 362.591 407.283 362.656 407.374C362.721 407.465 362.767 407.568 362.792 407.677C362.817 407.786 362.82 407.899 362.801 408.009C362.783 408.119 362.743 408.225 362.683 408.32C362.624 408.414 362.546 408.496 362.455 408.561C362.364 408.626 362.261 408.672 362.152 408.697L347.512 412.027C347.292 412.076 347.061 412.036 346.871 411.915C346.681 411.794 346.546 411.602 346.497 411.382C346.448 411.162 346.488 410.931 346.609 410.741C346.73 410.551 346.922 410.416 347.142 410.367H347.162Z"
        fill="black"
    />
    <path
        d="M376.288 403.364C381.078 402.014 385.828 400.514 390.488 398.764C390.7 398.7 390.929 398.719 391.127 398.818C391.326 398.917 391.479 399.088 391.555 399.296C391.632 399.504 391.626 399.734 391.539 399.938C391.452 400.142 391.291 400.305 391.088 400.394C386.378 402.154 381.578 403.664 376.748 405.024C376.639 405.054 376.525 405.062 376.412 405.049C376.3 405.035 376.192 404.999 376.093 404.943C375.995 404.888 375.908 404.813 375.839 404.724C375.769 404.635 375.718 404.533 375.688 404.424C375.657 404.315 375.649 404.201 375.663 404.089C375.676 403.976 375.712 403.868 375.768 403.769C375.824 403.671 375.898 403.584 375.987 403.515C376.077 403.445 376.179 403.394 376.288 403.364Z"
        fill="black"
    />
    <path
        d="M404.02 392.663C408.377 390.341 412.443 387.507 416.13 384.223C416.302 384.066 416.531 383.983 416.764 383.993C416.997 384.003 417.217 384.106 417.375 384.278C417.533 384.451 417.616 384.679 417.605 384.912C417.595 385.146 417.493 385.366 417.32 385.523C413.53 388.901 409.35 391.815 404.87 394.203C404.668 394.293 404.44 394.304 404.23 394.233C404.021 394.162 403.846 394.015 403.74 393.821C403.634 393.627 403.605 393.4 403.659 393.185C403.713 392.971 403.845 392.785 404.03 392.663H404.02Z"
        fill="black"
    />
    <path
        d="M424.031 372.237C425.453 367.554 425.852 362.619 425.201 357.767C425.172 357.533 425.237 357.296 425.382 357.109C425.528 356.923 425.741 356.802 425.976 356.772C426.211 356.743 426.447 356.808 426.634 356.954C426.821 357.099 426.942 357.313 426.971 357.547C427.653 362.652 427.226 367.843 425.721 372.767C425.636 372.974 425.476 373.141 425.273 373.236C425.071 373.33 424.84 373.345 424.627 373.277C424.414 373.209 424.234 373.063 424.124 372.868C424.014 372.674 423.98 372.445 424.031 372.227V372.237Z"
        fill="black"
    />
    <path
        d="M420.98 343.755C418.849 339.333 415.951 335.324 412.42 331.915C412.271 331.744 412.191 331.525 412.195 331.3C412.2 331.074 412.287 330.858 412.442 330.693C412.597 330.529 412.807 330.427 413.032 330.409C413.257 330.391 413.481 330.457 413.66 330.595C417.344 334.157 420.37 338.341 422.6 342.955C422.703 343.171 422.717 343.419 422.639 343.646C422.56 343.873 422.395 344.059 422.18 344.165C421.966 344.268 421.72 344.284 421.495 344.207C421.27 344.13 421.085 343.967 420.98 343.755Z"
        fill="black"
    />
    <path
        d="M400.611 322.996C396.397 320.383 391.999 318.08 387.451 316.105C387.332 316.063 387.224 315.996 387.132 315.909C387.041 315.823 386.968 315.718 386.918 315.602C386.868 315.486 386.843 315.362 386.844 315.235C386.844 315.109 386.871 314.985 386.922 314.869C386.973 314.754 387.047 314.65 387.139 314.565C387.232 314.479 387.341 314.414 387.46 314.372C387.579 314.33 387.705 314.314 387.831 314.323C387.957 314.332 388.079 314.367 388.191 314.425C392.819 316.429 397.294 318.769 401.581 321.425C401.786 321.558 401.931 321.767 401.982 322.006C402.034 322.245 401.989 322.495 401.856 322.701C401.723 322.906 401.514 323.05 401.275 323.102C401.036 323.154 400.786 323.108 400.581 322.975L400.611 322.996Z"
        fill="black"
    />
    <path
        d="M373.48 310.945C368.74 309.465 363.92 308.205 359.06 307.105C358.818 307.05 358.609 306.902 358.476 306.693C358.344 306.484 358.3 306.231 358.355 305.99C358.409 305.748 358.557 305.538 358.766 305.406C358.975 305.274 359.228 305.23 359.47 305.285C364.37 306.395 369.23 307.675 374.03 309.175C374.155 309.202 374.274 309.256 374.378 309.332C374.482 309.408 374.569 309.504 374.633 309.616C374.698 309.727 374.739 309.85 374.753 309.978C374.768 310.106 374.755 310.236 374.717 310.359C374.679 310.481 374.616 310.595 374.531 310.692C374.447 310.789 374.343 310.868 374.227 310.923C374.111 310.978 373.984 311.009 373.856 311.012C373.727 311.016 373.599 310.993 373.48 310.945Z"
        fill="black"
    />
    <path
        d="M344.39 304.226L329.59 301.946C329.457 301.939 329.328 301.905 329.209 301.845C329.091 301.785 328.986 301.701 328.902 301.599C328.818 301.496 328.757 301.377 328.722 301.249C328.686 301.121 328.678 300.987 328.698 300.856C328.718 300.725 328.764 300.599 328.836 300.488C328.907 300.376 329 300.28 329.111 300.206C329.221 300.133 329.346 300.083 329.476 300.061C329.607 300.038 329.741 300.043 329.87 300.076L344.73 302.376C344.958 302.432 345.156 302.573 345.286 302.768C345.415 302.964 345.467 303.201 345.431 303.433C345.395 303.665 345.273 303.875 345.089 304.022C344.906 304.169 344.674 304.241 344.44 304.226H344.39Z"
        fill="black"
    />
    <path
        d="M314.733 299.946L307.293 298.946C304.813 298.596 302.293 298.266 299.863 297.886C299.709 297.906 299.553 297.89 299.407 297.839C299.26 297.788 299.128 297.704 299.019 297.594C298.911 297.483 298.83 297.348 298.782 297.201C298.735 297.053 298.722 296.897 298.746 296.744C298.769 296.59 298.828 296.445 298.917 296.318C299.006 296.192 299.124 296.087 299.26 296.014C299.397 295.941 299.548 295.9 299.703 295.895C299.858 295.89 300.012 295.921 300.153 295.986C302.623 296.366 305.093 296.706 307.563 297.056L314.983 298.056C315.111 298.068 315.235 298.105 315.348 298.166C315.461 298.227 315.561 298.311 315.641 298.411C315.721 298.512 315.779 298.628 315.813 298.752C315.847 298.876 315.856 299.005 315.838 299.133C315.82 299.26 315.777 299.382 315.711 299.492C315.645 299.602 315.557 299.698 315.452 299.773C315.348 299.848 315.23 299.901 315.104 299.929C314.979 299.958 314.849 299.96 314.723 299.936L314.733 299.946Z"
        fill="black"
    />
    <path
        d="M285.03 295.605L270.21 293.245C269.957 293.198 269.731 293.056 269.58 292.847C269.429 292.639 269.365 292.38 269.4 292.125C269.449 291.875 269.591 291.654 269.797 291.505C270.003 291.357 270.258 291.292 270.51 291.325L285.31 293.695C285.512 293.784 285.679 293.937 285.785 294.13C285.891 294.324 285.929 294.547 285.895 294.765C285.861 294.983 285.755 295.184 285.595 295.336C285.435 295.487 285.229 295.582 285.01 295.605H285.03Z"
        fill="black"
    />
    <path
        d="M255.409 290.746L240.629 288.066C240.484 288.063 240.341 288.029 240.211 287.966C240.08 287.902 239.965 287.811 239.873 287.698C239.782 287.586 239.716 287.455 239.68 287.314C239.644 287.173 239.639 287.027 239.665 286.884C239.692 286.741 239.749 286.606 239.833 286.488C239.917 286.369 240.026 286.271 240.152 286.199C240.278 286.126 240.418 286.083 240.562 286.07C240.707 286.058 240.853 286.077 240.989 286.126L255.729 288.816C255.944 288.901 256.123 289.058 256.236 289.26C256.348 289.462 256.387 289.697 256.346 289.925C256.305 290.152 256.186 290.359 256.009 290.508C255.833 290.658 255.61 290.742 255.379 290.746H255.409Z"
        fill="black"
    />
    <path
        d="M225.9 285.176L211.21 282.026C210.945 281.97 210.713 281.811 210.565 281.584C210.417 281.357 210.365 281.081 210.42 280.816C210.476 280.551 210.635 280.318 210.862 280.17C211.089 280.022 211.365 279.97 211.63 280.026L226.29 283.226C226.544 283.283 226.766 283.438 226.908 283.656C227.05 283.875 227.101 284.14 227.05 284.396C226.997 284.649 226.847 284.873 226.633 285.018C226.418 285.164 226.156 285.22 225.9 285.176Z"
        fill="black"
    />
    <path
        d="M196.59 278.587L182.05 274.807C181.824 274.717 181.639 274.547 181.529 274.33C181.419 274.112 181.393 273.862 181.454 273.627C181.515 273.391 181.661 273.186 181.862 273.05C182.064 272.914 182.308 272.856 182.55 272.887L197.05 276.647C197.186 276.671 197.315 276.723 197.43 276.799C197.545 276.876 197.643 276.975 197.718 277.091C197.792 277.207 197.842 277.337 197.864 277.474C197.886 277.61 197.879 277.749 197.845 277.883C197.81 278.016 197.748 278.141 197.663 278.25C197.578 278.358 197.471 278.448 197.349 278.513C197.228 278.579 197.094 278.618 196.956 278.629C196.819 278.64 196.68 278.622 196.55 278.577L196.59 278.587Z"
        fill="black"
    />
    <path
        d="M167.613 270.565C162.843 269.015 158.113 267.295 153.463 265.405C153.315 265.38 153.174 265.323 153.051 265.237C152.929 265.151 152.827 265.039 152.753 264.908C152.68 264.777 152.637 264.632 152.627 264.482C152.617 264.333 152.642 264.183 152.698 264.044C152.754 263.905 152.84 263.78 152.951 263.679C153.062 263.578 153.194 263.503 153.337 263.46C153.481 263.417 153.632 263.407 153.78 263.43C153.928 263.453 154.069 263.51 154.193 263.595C158.799 265.468 163.466 267.168 168.193 268.695C168.338 268.714 168.477 268.765 168.601 268.845C168.724 268.924 168.828 269.03 168.906 269.154C168.984 269.278 169.034 269.418 169.052 269.563C169.07 269.709 169.056 269.857 169.01 269.996C168.965 270.135 168.889 270.263 168.789 270.37C168.689 270.477 168.566 270.561 168.43 270.615C168.294 270.669 168.147 270.693 168.001 270.684C167.854 270.675 167.712 270.635 167.583 270.565H167.613Z"
        fill="black"
    />
    <path
        d="M139.733 259.187C135.233 256.941 130.833 254.514 126.533 251.907C126.382 251.748 126.287 251.544 126.264 251.326C126.24 251.108 126.289 250.888 126.403 250.7C126.516 250.513 126.688 250.368 126.893 250.288C127.097 250.208 127.322 250.197 127.533 250.257C131.793 252.837 136.149 255.237 140.603 257.457C140.753 257.488 140.894 257.552 141.016 257.646C141.137 257.74 141.235 257.86 141.302 257.998C141.37 258.136 141.405 258.287 141.404 258.441C141.404 258.594 141.368 258.745 141.3 258.882C141.231 259.02 141.132 259.14 141.01 259.233C140.888 259.326 140.747 259.389 140.596 259.419C140.446 259.448 140.29 259.443 140.142 259.402C139.994 259.362 139.858 259.289 139.743 259.187H139.733Z"
        fill="black"
    />
    <path
        d="M113.97 243.566C109.903 240.606 105.96 237.489 102.14 234.216C102.031 234.035 101.982 233.825 102 233.615C102.017 233.405 102.101 233.206 102.238 233.047C102.376 232.887 102.56 232.775 102.765 232.726C102.97 232.678 103.185 232.695 103.38 232.776C107.153 236.016 111.057 239.096 115.09 242.016C115.219 242.186 115.29 242.394 115.292 242.608C115.295 242.822 115.228 243.031 115.103 243.205C114.978 243.378 114.8 243.507 114.596 243.572C114.392 243.637 114.172 243.635 113.97 243.566Z"
        fill="black"
    />
    <path
        d="M91.1127 223.955C87.566 220.389 84.1594 216.695 80.8927 212.875C80.7569 212.684 80.6973 212.449 80.7257 212.217C80.7541 211.984 80.8684 211.77 81.0462 211.618C81.224 211.465 81.4524 211.384 81.6867 211.391C81.9211 211.398 82.1443 211.492 82.3127 211.655C85.5527 215.435 88.9294 219.102 92.4427 222.655C92.6191 222.832 92.7181 223.071 92.7181 223.32C92.7181 223.57 92.6191 223.809 92.4427 223.985C92.2663 224.162 92.0271 224.261 91.7777 224.261C91.5283 224.261 91.2891 224.162 91.1127 223.985V223.955Z"
        fill="black"
    />
    <path
        d="M71.4923 201.104L62.8724 188.764C62.7353 188.561 62.6826 188.313 62.7255 188.072C62.7685 187.831 62.9037 187.617 63.1024 187.474C63.3042 187.334 63.5531 187.28 63.7947 187.323C64.0364 187.366 64.2512 187.503 64.3924 187.704V187.754L72.9524 199.994V200.044C73.0233 200.143 73.0739 200.255 73.1013 200.373C73.1286 200.492 73.1322 200.615 73.1117 200.735C73.0913 200.855 73.0472 200.969 72.9821 201.072C72.9169 201.175 72.8321 201.264 72.7324 201.334C72.6327 201.405 72.5199 201.456 72.4005 201.483C72.2811 201.511 72.1574 201.514 72.0366 201.494C71.9158 201.474 71.8003 201.429 71.6966 201.364C71.5929 201.299 71.5031 201.214 71.4324 201.114L71.4923 201.104Z"
        fill="black"
    />
    <path
        d="M54.9869 175.944L47.7669 162.744C47.7097 162.639 47.6739 162.524 47.6613 162.405C47.6487 162.286 47.6597 162.166 47.6936 162.051C47.7275 161.936 47.7836 161.829 47.8588 161.736C47.934 161.643 48.0268 161.566 48.1319 161.509C48.2369 161.452 48.3522 161.416 48.4711 161.403C48.59 161.391 48.7103 161.402 48.825 161.436C48.9396 161.47 49.0465 161.526 49.1395 161.601C49.2325 161.676 49.3097 161.769 49.3669 161.874L56.5569 174.984C56.6147 175.09 56.6509 175.206 56.6636 175.325C56.6763 175.445 56.6651 175.566 56.6307 175.681C56.5963 175.797 56.5393 175.904 56.4631 175.997C56.387 176.09 56.293 176.167 56.1869 176.224C56.0822 176.284 55.9667 176.322 55.8471 176.336C55.7276 176.35 55.6064 176.34 55.4908 176.306C55.3751 176.273 55.2674 176.216 55.174 176.14C55.0806 176.064 55.0033 175.97 54.9469 175.864L54.9869 175.944Z"
        fill="black"
    />
    <path
        d="M41.0791 149.287C38.8801 144.755 36.924 140.108 35.2191 135.367C35.1683 135.151 35.1994 134.923 35.3064 134.729C35.4134 134.534 35.5888 134.385 35.7987 134.312C36.0086 134.239 36.2381 134.246 36.4432 134.332C36.6482 134.418 36.8142 134.576 36.9091 134.777C38.6028 139.452 40.5387 144.035 42.7091 148.507C42.8112 148.724 42.8233 148.971 42.7427 149.196C42.7027 149.308 42.6412 149.41 42.5617 149.498C42.4822 149.586 42.3862 149.657 42.2791 149.707C42.063 149.81 41.8151 149.822 41.5901 149.741C41.365 149.66 41.1812 149.494 41.0791 149.277V149.287Z"
        fill="black"
    />
    <path
        d="M31.7197 120.617C31.1645 115.536 31.4653 110.399 32.6097 105.417C32.6614 105.189 32.8016 104.991 32.9995 104.866C33.0975 104.805 33.2066 104.763 33.3208 104.743C33.4349 104.724 33.5518 104.727 33.6647 104.752C33.7777 104.778 33.8844 104.825 33.979 104.892C34.0735 104.959 34.154 105.044 34.2157 105.142C34.2775 105.24 34.3193 105.349 34.3389 105.463C34.3584 105.577 34.3553 105.694 34.3297 105.807C33.2314 110.599 32.9475 115.541 33.4897 120.427C33.5065 120.545 33.4991 120.665 33.468 120.78C33.437 120.896 33.3829 121.003 33.309 121.097C33.2351 121.19 33.143 121.268 33.0383 121.324C32.9336 121.381 32.8184 121.416 32.6997 121.427C32.5822 121.441 32.463 121.432 32.3491 121.4C32.2352 121.367 32.1287 121.313 32.0358 121.24C31.9429 121.166 31.8654 121.075 31.8077 120.972C31.7501 120.869 31.7134 120.755 31.6997 120.637L31.7197 120.617Z"
        fill="black"
    />
    <path
        d="M38.1989 91.2767L40.1989 88.0467L41.1989 86.4267C41.5389 85.8967 41.8989 85.3767 42.2589 84.8567C43.7089 82.7867 45.2589 80.7767 46.8689 78.8567C46.9413 78.7687 47.0305 78.6959 47.1313 78.6426C47.232 78.5894 47.3424 78.5567 47.4559 78.5464C47.5694 78.5362 47.6838 78.5487 47.7925 78.583C47.9012 78.6174 48.0019 78.673 48.0889 78.7467C48.1773 78.82 48.2502 78.91 48.3036 79.0117C48.357 79.1133 48.3898 79.2245 48.4 79.3388C48.4102 79.4531 48.3977 79.5684 48.3632 79.6778C48.3287 79.7873 48.2729 79.8889 48.1989 79.9767C46.6089 81.8667 45.1089 83.8367 43.6889 85.8667C43.3389 86.3767 42.9889 86.8667 42.6889 87.4067L41.6889 88.9867L39.7489 92.1467V92.2067C39.627 92.4028 39.4328 92.5432 39.2083 92.5974C38.9838 92.6517 38.747 92.6155 38.5489 92.4967C38.3521 92.3729 38.2115 92.1769 38.1573 91.9508C38.1031 91.7247 38.1396 91.4863 38.2589 91.2867L38.1989 91.2767Z"
        fill="black"
    />
    <path
        d="M57.69 68.2656C61.6533 65.1107 65.9447 62.3918 70.49 60.1556C70.5905 60.1057 70.6998 60.0761 70.8117 60.0684C70.9236 60.0607 71.036 60.0752 71.1423 60.1109C71.2486 60.1467 71.3468 60.203 71.4314 60.2767C71.5159 60.3505 71.5851 60.4401 71.635 60.5406C71.6849 60.641 71.7146 60.7503 71.7222 60.8623C71.7299 60.9742 71.7154 61.0865 71.6797 61.1928C71.6439 61.2991 71.5876 61.3974 71.5139 61.4819C71.4402 61.5665 71.3505 61.6357 71.25 61.6856C66.8186 63.8753 62.6347 66.5338 58.77 69.6156C58.5885 69.7558 58.3595 69.8197 58.1316 69.7936C57.9037 69.7674 57.695 69.6533 57.55 69.4756C57.4104 69.2957 57.3468 69.0682 57.373 68.842C57.3991 68.6158 57.513 68.4088 57.69 68.2656Z"
        fill="black"
    />
    <path
        d="M84.7168 54.9573C89.6326 53.7321 94.6566 52.9919 99.7168 52.7473C99.8271 52.7414 99.9376 52.7573 100.042 52.794C100.146 52.8308 100.242 52.8877 100.324 52.9615C100.406 53.0353 100.473 53.1246 100.521 53.2243C100.568 53.3239 100.596 53.432 100.602 53.5423C100.608 53.6526 100.592 53.763 100.555 53.8672C100.518 53.9713 100.461 54.0672 100.388 54.1494C100.314 54.2316 100.225 54.2985 100.125 54.3461C100.025 54.3938 99.9172 54.4214 99.8068 54.4273C94.8651 54.6782 89.9591 55.4049 85.1568 56.5973C84.9475 56.631 84.7332 56.5852 84.5558 56.4689C84.3785 56.3527 84.251 56.1743 84.1984 55.9689C84.1458 55.7636 84.1719 55.5459 84.2715 55.3587C84.3711 55.1716 84.5371 55.0284 84.7368 54.9573H84.7168Z"
        fill="black"
    />
    <path
        d="M114.823 53.3651C119.829 53.9833 124.781 54.9862 129.633 56.3651C129.837 56.4234 130.01 56.5605 130.113 56.7462C130.216 56.9318 130.241 57.1508 130.183 57.3551C130.125 57.5593 129.988 57.732 129.802 57.8351C129.616 57.9382 129.397 57.9634 129.193 57.9051C124.418 56.5574 119.547 55.5746 114.623 54.9651C114.407 54.9351 114.211 54.8224 114.077 54.6507C113.943 54.4791 113.88 54.2619 113.903 54.0451C113.917 53.9379 113.951 53.8345 114.005 53.7408C114.058 53.6471 114.13 53.5649 114.216 53.4989C114.301 53.433 114.399 53.3846 114.503 53.3564C114.607 53.3283 114.716 53.321 114.823 53.3351V53.3651Z"
        fill="black"
    />
    <path
        d="M143.829 61.4948L147.249 63.0748C148.399 63.6048 149.479 64.2348 150.599 64.8048L157.269 68.3048C157.439 68.4001 157.567 68.5563 157.626 68.7418C157.686 68.9274 157.672 69.1286 157.589 69.3048C157.496 69.4766 157.34 69.6057 157.153 69.6653C156.967 69.7249 156.765 69.7104 156.589 69.6248L149.979 66.1648C148.869 65.6048 147.789 64.9848 146.649 64.4748L143.269 62.9148C143.081 62.8273 142.935 62.6686 142.864 62.4735C142.793 62.2785 142.802 62.0631 142.889 61.8748C142.977 61.6865 143.136 61.5407 143.331 61.4694C143.526 61.3982 143.741 61.4073 143.929 61.4948H143.829Z"
        fill="black"
    />
    <path
        d="M170.171 76.0358L182.821 84.1158C182.901 84.167 182.97 84.2335 183.025 84.3115C183.079 84.3894 183.118 84.4774 183.138 84.5702C183.159 84.6631 183.161 84.7591 183.144 84.8527C183.127 84.9463 183.092 85.0357 183.041 85.1158C182.99 85.1959 182.923 85.2651 182.845 85.3195C182.767 85.3739 182.68 85.4125 182.587 85.4329C182.494 85.4533 182.398 85.4553 182.304 85.4386C182.211 85.4219 182.121 85.387 182.041 85.3358L169.381 77.3358C169.299 77.2833 169.228 77.2151 169.172 77.1351C169.117 77.0552 169.077 76.9651 169.056 76.8699C169.035 76.7747 169.033 76.6764 169.051 76.5804C169.068 76.4845 169.104 76.3929 169.156 76.3108C169.209 76.2287 169.277 76.1578 169.357 76.1021C169.437 76.0463 169.527 76.0069 169.622 75.986C169.717 75.9651 169.816 75.9632 169.911 75.9803C170.007 75.9974 170.099 76.0333 170.181 76.0858L170.171 76.0358Z"
        fill="black"
    />
    <path
        d="M195.5 92.096L208.5 99.536C208.578 99.58 208.647 99.6389 208.702 99.7095C208.758 99.78 208.799 99.8607 208.823 99.9471C208.847 100.033 208.854 100.124 208.843 100.213C208.832 100.302 208.804 100.388 208.76 100.466C208.716 100.544 208.657 100.613 208.587 100.668C208.516 100.723 208.435 100.764 208.349 100.789C208.263 100.813 208.172 100.82 208.083 100.809C207.994 100.798 207.908 100.77 207.83 100.726L194.76 93.276C194.673 93.2317 194.596 93.1694 194.535 93.0933C194.474 93.0172 194.43 92.929 194.405 92.8345C194.38 92.74 194.376 92.6413 194.393 92.545C194.409 92.4487 194.446 92.357 194.5 92.276C194.592 92.1162 194.744 91.9993 194.922 91.9506C195.1 91.9019 195.289 91.9254 195.45 92.016L195.5 92.096Z"
        fill="black"
    />
    <path
        d="M221.971 105.925C226.565 107.821 231.287 109.395 236.101 110.635C236.186 110.651 236.267 110.685 236.339 110.734C236.411 110.783 236.472 110.846 236.519 110.919C236.565 110.992 236.597 111.075 236.611 111.16C236.625 111.246 236.621 111.334 236.6 111.418C236.579 111.503 236.541 111.582 236.488 111.651C236.435 111.72 236.369 111.778 236.293 111.82C236.218 111.863 236.134 111.89 236.048 111.899C235.961 111.909 235.874 111.9 235.791 111.875C230.911 110.641 226.125 109.06 221.471 107.145C221.317 107.073 221.197 106.945 221.135 106.787C221.073 106.629 221.075 106.453 221.139 106.296C221.203 106.14 221.326 106.013 221.48 105.944C221.635 105.875 221.811 105.868 221.971 105.925Z"
        fill="black"
    />
    <path
        d="M250.652 112.446C251.79 112.285 252.868 111.834 253.782 111.136C254.623 110.398 255.182 109.39 255.362 108.286C255.55 107.122 255.533 105.934 255.312 104.776C255.097 103.578 254.793 102.398 254.402 101.246C254.373 101.1 254.398 100.948 254.473 100.819C254.548 100.69 254.667 100.593 254.809 100.546C254.95 100.5 255.104 100.506 255.241 100.565C255.378 100.624 255.489 100.731 255.552 100.866C255.978 102.079 256.312 103.323 256.552 104.586C256.782 105.889 256.782 107.223 256.552 108.526C256.318 109.911 255.611 111.173 254.552 112.096C253.475 112.933 252.201 113.48 250.852 113.686C250.698 113.696 250.546 113.65 250.424 113.555C250.302 113.461 250.219 113.325 250.19 113.173C250.162 113.022 250.19 112.865 250.27 112.733C250.35 112.6 250.475 112.502 250.622 112.456L250.652 112.446Z"
        fill="black"
    />
    <path
        d="M247.64 88.0563C244.96 83.8563 242.05 79.8063 238.99 75.8663C238.901 75.7477 238.861 75.5986 238.88 75.451C238.898 75.3034 238.974 75.1689 239.09 75.0763C239.149 75.0306 239.215 74.997 239.287 74.9772C239.358 74.9575 239.433 74.9522 239.506 74.9615C239.58 74.9708 239.651 74.9945 239.715 75.0314C239.779 75.0683 239.835 75.1176 239.88 75.1763C242.96 79.1263 245.88 83.1763 248.62 87.4263C248.702 87.5563 248.73 87.7136 248.696 87.8636C248.662 88.0136 248.57 88.1441 248.44 88.2263C248.377 88.2688 248.306 88.2981 248.231 88.3126C248.156 88.3271 248.079 88.3263 248.004 88.3105C247.93 88.2946 247.859 88.264 247.797 88.2203C247.734 88.1767 247.681 88.1209 247.64 88.0563Z"
        fill="black"
    />
    <path
        d="M229.353 64.4448L226.723 61.8548C225.793 61.0448 224.773 60.3048 223.803 59.5248L217.913 54.9048C217.85 54.8654 217.796 54.8132 217.754 54.7516C217.713 54.6899 217.685 54.6203 217.672 54.5472C217.659 54.474 217.662 54.399 217.68 54.3269C217.698 54.2549 217.731 54.1875 217.777 54.129C217.823 54.0705 217.88 54.0223 217.946 53.9876C218.011 53.9528 218.084 53.9321 218.158 53.927C218.232 53.9219 218.306 53.9325 218.376 53.9579C218.446 53.9834 218.509 54.0232 218.563 54.0748L224.493 58.7048C225.493 59.4848 226.493 60.2148 227.433 61.0448L230.163 63.7048C230.266 63.8056 230.325 63.9434 230.327 64.0878C230.329 64.2322 230.273 64.3714 230.173 64.4748C230.072 64.5783 229.934 64.6374 229.79 64.6393C229.645 64.6412 229.506 64.5856 229.403 64.4848L229.353 64.4448Z"
        fill="black"
    />
    <path
        d="M205.588 46.4241C201.375 43.7575 197.075 41.2275 192.688 38.8341C192.592 38.7682 192.524 38.6689 192.497 38.5555C192.47 38.442 192.486 38.3226 192.542 38.2204C192.598 38.1182 192.69 38.0405 192.801 38.0024C192.911 37.9643 193.031 37.9685 193.138 38.0141C197.558 40.3741 201.892 42.8941 206.138 45.5741C206.249 45.646 206.328 45.7581 206.358 45.8868C206.388 46.0155 206.366 46.1508 206.298 46.2641C206.264 46.3214 206.218 46.3711 206.164 46.4103C206.109 46.4495 206.048 46.4774 205.982 46.4923C205.917 46.5072 205.849 46.5089 205.784 46.4972C205.718 46.4855 205.655 46.4606 205.598 46.4241H205.588Z"
        fill="black"
    />
    <path
        d="M179.288 32.1965C174.748 30.1465 170.118 28.2565 165.438 26.5365C165.384 26.5222 165.334 26.497 165.291 26.4624C165.248 26.4278 165.212 26.3846 165.186 26.3355C165.161 26.2864 165.145 26.2326 165.142 26.1773C165.138 26.1221 165.146 26.0666 165.164 26.0145C165.183 25.9624 165.212 25.9147 165.251 25.8746C165.289 25.8344 165.335 25.8026 165.386 25.7812C165.437 25.7597 165.492 25.7491 165.547 25.7501C165.603 25.751 165.657 25.7634 165.708 25.7865C170.421 27.4998 175.068 29.3731 179.648 31.4065C179.752 31.4565 179.832 31.5446 179.873 31.6525C179.914 31.7605 179.912 31.88 179.868 31.9865C179.818 32.088 179.731 32.1665 179.625 32.2056C179.518 32.2447 179.401 32.2415 179.298 32.1965H179.288Z"
        fill="black"
    />
    <path
        d="M151.209 21.864C146.409 20.4773 141.569 19.254 136.689 18.194C136.646 18.1858 136.606 18.169 136.57 18.1446C136.534 18.1203 136.504 18.089 136.48 18.0525C136.457 18.0161 136.441 17.9752 136.434 17.9325C136.427 17.8898 136.429 17.8461 136.439 17.804C136.458 17.7195 136.51 17.6458 136.583 17.5991C136.656 17.5523 136.744 17.5361 136.829 17.554C141.722 18.594 146.582 19.7973 151.409 21.164C151.502 21.1905 151.58 21.2528 151.627 21.3372C151.674 21.4216 151.685 21.5212 151.659 21.614C151.632 21.7068 151.57 21.7853 151.486 21.8322C151.401 21.8791 151.302 21.8905 151.209 21.864Z"
        fill="black"
    />
    <path
        d="M121.948 15.524C117.008 14.804 112.048 14.2473 107.068 13.854C107.001 13.8489 106.939 13.8179 106.894 13.7675C106.849 13.7171 106.826 13.6513 106.828 13.584C106.836 13.516 106.869 13.4533 106.921 13.4088C106.973 13.3642 107.04 13.341 107.108 13.344C112.102 13.7173 117.075 14.254 122.028 14.954C122.067 14.9589 122.103 14.9714 122.137 14.9907C122.17 15.01 122.199 15.0358 122.223 15.0665C122.246 15.0973 122.263 15.1323 122.272 15.1697C122.282 15.207 122.284 15.2459 122.278 15.284C122.266 15.3594 122.224 15.4269 122.163 15.4719C122.101 15.5168 122.024 15.5355 121.948 15.524Z"
        fill="black"
    />
    <path
        d="M92.1168 12.5547L77.1868 11.1347C77.1622 11.1335 77.1381 11.1272 77.1161 11.1163C77.094 11.1055 77.0744 11.0902 77.0585 11.0715C77.0425 11.0527 77.0306 11.0309 77.0235 11.0074C77.0163 10.9839 77.014 10.9591 77.0168 10.9347C77.0192 10.911 77.0264 10.888 77.0378 10.8671C77.0493 10.8462 77.0647 10.8278 77.0833 10.8129C77.1019 10.798 77.1233 10.7869 77.1462 10.7804C77.1691 10.7738 77.1931 10.7719 77.2168 10.7747L92.1568 12.1247C92.1853 12.1259 92.2132 12.1329 92.2389 12.1453C92.2646 12.1577 92.2875 12.1752 92.3062 12.1967C92.3249 12.2182 92.339 12.2433 92.3477 12.2705C92.3564 12.2976 92.3595 12.3263 92.3568 12.3547C92.3543 12.3836 92.346 12.4117 92.3326 12.4375C92.3192 12.4632 92.3007 12.4861 92.2784 12.5047C92.2561 12.5233 92.2303 12.5372 92.2026 12.5458C92.1749 12.5544 92.1457 12.5574 92.1168 12.5547Z"
        fill="black"
    />
    <path
        d="M62.2901 9.83628L47.2901 8.89628C47.2748 8.89634 47.2596 8.8932 47.2456 8.88706C47.2316 8.88092 47.219 8.8719 47.2086 8.8606C47.1982 8.8493 47.1904 8.83597 47.1855 8.82145C47.1806 8.80692 47.1787 8.79154 47.1801 8.77628C47.1814 8.76181 47.1855 8.74774 47.1922 8.73487C47.1989 8.722 47.2082 8.71058 47.2193 8.70128C47.2305 8.69199 47.2434 8.68499 47.2572 8.6807C47.2711 8.67641 47.2857 8.6749 47.3001 8.67627L62.3001 9.54627C62.3223 9.54039 62.3456 9.53969 62.3681 9.54422C62.3907 9.54875 62.4118 9.5584 62.43 9.57241C62.4482 9.58642 62.463 9.60443 62.4731 9.62504C62.4833 9.64565 62.4886 9.6683 62.4886 9.69127C62.4886 9.71425 62.4833 9.73692 62.4731 9.75753C62.463 9.77814 62.4482 9.79614 62.43 9.81015C62.4118 9.82417 62.3907 9.83381 62.3681 9.83834C62.3456 9.84287 62.3223 9.84216 62.3001 9.83628H62.2901Z"
        fill="black"
    />
    <path d="M2.46 5.84656L0 5.22656L2.46 5.83656H2.47L2.46 5.84656Z" fill="black" />
    <path d="M35.2188 6.81536L23.4988 0L35.2088 6.98718L35.2188 6.81536Z" fill="black" />
    <path d="M334.5 253.047L309.5 251.826L235.5 248.211L74.5 240.346L6 237L94 203L405 215.547L334.5 253.047Z" fill="url(#paint0_linear_17875_67317)" />
    <path d="M235.5 275.047V296.047L74.5 288.182V267.182L235.5 275.047Z" fill="#F1EFED" />
    <path d="M235.5 296.047V311.912L74.5 304.047V288.182L235.5 296.047Z" fill="#F1EFED" />
    <path d="M74.5 257.682V251.682L179.75 256.824L112.676 259.547L74.5 257.682Z" fill="#F1EFED" />
    <path d="M235.5 259.547V265.547L112.676 259.547L179.75 256.824L235.5 259.547Z" fill="black" />
    <path d="M405 223.047V330.547L341.5 367.026V256.824L405 223.047Z" fill="#5869DD" />
    <path d="M235.5 365.642V311.912V296.047V275.047V265.547V259.547V248.211L309.5 251.826V369.682L235.5 365.642Z" fill="url(#paint1_linear_17875_67317)" />
    <path d="M334.5 253.047V312.047V371.047L309.5 369.682V251.826L334.5 253.047Z" fill="url(#paint2_linear_17875_67317)" />
    <path d="M235.5 311.912V365.642L74.5 356.852V304.047L235.5 311.912Z" fill="url(#paint3_linear_17875_67317)" />
    <path
        fill-rule="evenodd"
        clip-rule="evenodd"
        d="M235.5 259.547V248.211L74.5 240.346V251.682L179.75 256.824L235.5 259.547ZM74.5 257.682L112.676 259.547L235.5 265.547V275.047L74.5 267.182V257.682Z"
        fill="url(#paint4_linear_17875_67317)"
    />
    <path d="M74.5 304.047V356.852L6 353.112V237L74.5 240.346V251.682V257.682V267.182V288.182V304.047Z" fill="url(#paint5_linear_17875_67317)" />
    <path fill-rule="evenodd" clip-rule="evenodd" d="M334.5 253.047V312.047L341.5 256.824L405 223.047V215.547L334.5 253.047Z" fill="#F1EFED" />
    <path d="M341.5 367.026L334.5 371.047V312.047L341.5 256.824V367.026Z" fill="black" />
    <path
        d="M334.5 253.047L405 215.547M334.5 253.047L309.5 251.826M334.5 253.047V312.047M6 237L94 203L405 215.547M6 237L74.5 240.346M6 237L309.5 251.826M6 237V353.112M6 237L235.5 248.211M334.5 371.047L341.5 367.026M334.5 371.047L6 353.112M334.5 371.047L309.5 369.682M334.5 371.047V312.047M405 215.547V330.547M405 215.547V223.047M405 330.547L341.5 367.026M405 330.547V223.047M405 223.047L341.5 256.824M341.5 367.026V256.824M341.5 256.824L334.5 312.047M235.5 248.211V365.642M235.5 248.211L74.5 240.346M235.5 248.211L309.5 251.826M235.5 248.211V259.547M235.5 365.642V311.912M235.5 365.642L6 353.112M235.5 365.642L309.5 369.682M235.5 365.642L74.5 356.852M74.5 240.346V356.852M74.5 240.346V251.682M74.5 356.852V304.047M74.5 356.852L6 353.112M309.5 251.682V251.826M309.5 369.682V251.826M235.5 259.547V265.547M235.5 259.547L179.75 256.824M74.5 251.682V257.682M74.5 251.682L179.75 256.824M235.5 265.547L112.676 259.547M235.5 265.547V275.047M74.5 257.682L112.676 259.547M74.5 257.682V267.182M235.5 275.047L74.5 267.182M235.5 275.047V296.047M74.5 267.182V288.182M235.5 311.912L74.5 304.047M235.5 311.912V296.047M74.5 304.047V288.182M235.5 296.047L74.5 288.182M179.75 256.824L112.676 259.547"
        stroke="black"
        stroke-width="2"
        stroke-linejoin="round"
    />
    <path
        d="M226.948 319.863L215.956 319.325M82.55 312.806L92.0432 313.27M206.962 318.886L196.969 318.398M182.479 317.689L169.988 317.079M158.496 316.518L145.505 315.883M136.512 315.443L124.52 314.857M114.028 314.345L104.035 313.856"
        stroke="black"
        stroke-width="2"
        stroke-linejoin="round"
    />
    <path
        d="M234 295.344C234 295.344 223 290.335 210.5 288.331C198 286.327 195 303.897 182.5 301.982C170 300.067 168.5 278.985 153.5 276.986C138.5 274.986 138.543 301.734 123.501 300.067C107.505 298.289 109.5 282.821 96 282.821C82.5 282.821 76 288.331 76 288.331"
        stroke="black"
        stroke-width="2"
    />
    <path
        fill-rule="evenodd"
        clip-rule="evenodd"
        d="M274.162 335.27C277.4 336.337 279.179 339.775 278.133 342.948C277.617 344.516 276.509 345.725 275.13 346.42C270.254 342.007 269.17 339.542 270.593 335.163C271.724 334.86 272.959 334.874 274.162 335.27Z"
        fill="black"
    />
    <path d="M270.376 346.764C267.137 345.697 265.359 342.259 266.405 339.085C267.062 337.09 268.678 335.674 270.593 335.163C269.17 339.542 270.254 342.007 275.13 346.42C273.715 347.133 272.016 347.304 270.376 346.764Z" fill="#F1EFED" />
    <path
        d="M275.13 346.42C273.715 347.133 272.016 347.304 270.376 346.764C267.137 345.697 265.359 342.259 266.405 339.085C267.062 337.09 268.678 335.674 270.593 335.163M275.13 346.42C276.509 345.725 277.617 344.516 278.133 342.948C279.179 339.775 277.4 336.337 274.162 335.27C272.959 334.874 271.724 334.86 270.593 335.163M275.13 346.42C270.254 342.007 269.17 339.542 270.593 335.163"
        stroke="black"
        stroke-width="1.57725"
    />
    <path fill-rule="evenodd" clip-rule="evenodd" d="M25.0086 294.047C21.2963 290.337 19 285.21 19 279.547C19 268.225 28.1782 259.047 39.5 259.047C50.8218 259.047 60 268.225 60 279.547L25.0086 294.047Z" fill="#5869DD" />
    <path d="M60 279.547C60 290.869 50.8218 300.047 39.5 300.047C33.8413 300.047 28.7181 297.754 25.0086 294.047L60 279.547Z" fill="black" />
    <path
        d="M39.5 258.047C50.878 258.047 60.1916 266.885 60.9501 278.071L61 278.05V279.547V280.215L60.9897 280.219C60.6345 291.782 51.1492 301.047 39.5 301.047C33.8074 301.047 28.6301 298.833 24.7847 295.222L24.7743 295.226L24.3018 294.754C24.3018 294.754 24.3018 294.754 24.3017 294.754L23.243 293.696L23.2934 293.675C19.9976 289.897 18 284.955 18 279.547C18 267.673 27.6259 258.047 39.5 258.047Z"
        stroke="black"
        stroke-width="2"
    />
    <circle cx="17" cy="17" r="18" transform="matrix(-1 0 0 1 53 262.047)" fill="url(#paint6_linear_17875_67317)" stroke="black" stroke-width="2" />
    <circle cx="4.5" cy="4.5" r="4.5" transform="matrix(-1 0 0 1 56 325.047)" fill="black" />
    <circle cx="3.5" cy="3.5" r="3.5" transform="matrix(-1 0 0 1 280 277.047)" fill="black" />
    <circle cx="3.5" cy="3.5" r="3.5" transform="matrix(-1 0 0 1 271 277.047)" fill="black" />
    <circle cx="3.5" cy="3.5" r="3.5" transform="matrix(-1 0 0 1 271 286.047)" fill="black" />
    <circle cx="3.5" cy="3.5" r="3.5" transform="matrix(-1 0 0 1 280 286.047)" fill="black" />
    <circle cx="4" cy="4" r="4" transform="matrix(-1 0 0 1 34 325.047)" fill="black" />
    <path d="M394.911 294.826C394.925 296.216 395.778 296.951 396.829 296.463C397.871 295.975 398.695 294.48 398.672 293.131C398.648 291.781 397.785 291.046 396.763 291.494C395.731 291.942 394.896 293.426 394.911 294.826Z" fill="black" />
    <path d="M389.233 297.314C389.228 298.765 390.072 299.54 391.113 299.052C392.165 298.584 393.009 297.039 393.004 295.629C393 294.219 392.156 293.444 391.114 293.882C390.091 294.33 389.238 295.874 389.233 297.314Z" fill="black" />
    <path d="M383.546 299.843C383.522 301.344 384.356 302.159 385.408 301.671C386.45 301.183 387.312 299.588 387.327 298.138C387.351 296.667 386.517 295.842 385.475 296.3C384.433 296.758 383.57 298.333 383.546 299.843Z" fill="black" />
    <path d="M394.766 304.338C394.78 305.728 395.662 306.403 396.732 305.844C397.793 305.286 398.646 303.731 398.612 302.382C398.589 301.042 397.707 300.377 396.666 300.895C395.605 301.414 394.752 302.949 394.766 304.338Z" fill="black" />
    <path d="M388.955 307.239C388.95 308.679 389.813 309.404 390.883 308.836C391.964 308.277 392.826 306.692 392.822 305.282C392.808 303.882 391.945 303.157 390.884 303.676C389.833 304.194 388.96 305.789 388.955 307.239Z" fill="black" />
    <path d="M383.135 310.15C383.111 311.661 383.955 312.426 385.035 311.857C386.105 311.299 386.987 309.653 387.001 308.183C387.016 306.723 386.172 305.948 385.111 306.476C384.04 307.005 383.159 308.65 383.135 310.15Z" fill="black" />
    <path d="M394.621 313.861C394.635 315.241 395.536 315.845 396.635 315.226C397.724 314.597 398.587 312.992 398.563 311.642C398.54 310.293 397.629 309.679 396.559 310.277C395.479 310.866 394.607 312.471 394.621 313.861Z" fill="black" />
    <path d="M388.668 317.164C388.663 318.614 389.544 319.269 390.653 318.63C391.743 318.001 392.624 316.356 392.62 314.946C392.615 313.536 391.734 312.881 390.644 313.47C389.554 314.069 388.673 315.724 388.668 317.164Z" fill="black" />
    <path d="M382.714 320.488C382.691 321.998 383.563 322.703 384.652 322.074C385.751 321.435 386.662 319.719 386.666 318.259C386.681 316.789 385.809 316.094 384.728 316.673C383.649 317.271 382.738 318.977 382.714 320.488Z" fill="black" />
    <path d="M394.477 323.393C394.481 324.773 395.4 325.327 396.528 324.628C397.636 323.929 398.528 322.273 398.504 320.924C398.471 319.574 397.551 319.01 396.452 319.679C395.344 320.338 394.462 322.004 394.477 323.393Z" fill="black" />
    <path d="M388.38 327.109C388.375 328.549 389.286 329.144 390.414 328.434C391.532 327.735 392.432 326.019 392.427 324.609C392.423 323.209 391.522 322.605 390.404 323.284C389.296 323.953 388.385 325.659 388.38 327.109Z" fill="black" />
    <path d="M382.294 330.825C382.27 332.305 383.161 332.95 384.279 332.251C385.407 331.541 386.327 329.795 386.341 328.335C386.356 326.864 385.464 326.22 384.346 326.889C383.247 327.558 382.318 329.315 382.294 330.825Z" fill="black" />
    <path
        d="M223.763 334.515C223.804 336.544 223.064 337.783 222.066 338.542C221.039 339.323 219.67 339.644 218.407 339.669C217.292 339.692 216.369 339.161 215.697 338.259C215.017 337.346 214.606 336.062 214.577 334.664C214.549 333.267 214.908 332.017 215.545 331.127C216.174 330.249 217.074 329.71 218.206 329.687C219.478 329.662 220.858 329.904 221.914 330.618C222.934 331.309 223.722 332.488 223.763 334.515Z"
        stroke="black"
        stroke-width="1.19828"
    />
    <path
        d="M222.112 334.512C222.168 337.309 220.408 339.379 218.443 339.419C216.479 339.458 214.636 337.461 214.58 334.664C214.523 331.867 216.284 329.797 218.248 329.757C220.212 329.717 222.055 331.715 222.112 334.512Z"
        stroke="black"
        stroke-width="1.19828"
    />
    <path d="M224.357 335.086L221.476 334.985C221.774 337.625 219.112 339.99 219.112 339.99C219.112 339.99 223.71 339.385 224.357 335.086Z" fill="black" />
    <path
        d="M207.607 333.515C207.648 335.544 206.908 336.783 205.91 337.542C204.883 338.323 203.514 338.644 202.251 338.669C201.136 338.692 200.213 338.161 199.541 337.259C198.86 336.346 198.449 335.062 198.421 333.664C198.393 332.267 198.752 331.017 199.389 330.127C200.017 329.249 200.918 328.71 202.049 328.687C203.321 328.662 204.702 328.904 205.757 329.618C206.778 330.309 207.566 331.488 207.607 333.515Z"
        stroke="black"
        stroke-width="1.19828"
    />
    <path
        d="M205.951 333.512C206.008 336.309 204.247 338.379 202.283 338.419C200.319 338.458 198.476 336.461 198.42 333.664C198.363 330.867 200.124 328.797 202.088 328.757C204.052 328.717 205.895 330.715 205.951 333.512Z"
        stroke="black"
        stroke-width="1.19828"
    />
    <path d="M208.201 334.086L205.32 333.985C205.617 336.625 202.956 338.99 202.956 338.99C202.956 338.99 207.554 338.385 208.201 334.086Z" fill="black" />
    <path
        d="M191.45 332.515C191.491 334.544 190.751 335.783 189.754 336.542C188.727 337.323 187.358 337.644 186.095 337.669C184.979 337.692 184.056 337.161 183.384 336.259C182.704 335.346 182.293 334.062 182.265 332.664C182.237 331.267 182.596 330.017 183.233 329.127C183.861 328.249 184.761 327.71 185.893 327.687C187.165 327.662 188.546 327.904 189.601 328.618C190.622 329.309 191.41 330.488 191.45 332.515Z"
        stroke="black"
        stroke-width="1.19828"
    />
    <path
        d="M189.795 332.512C189.852 335.309 188.091 337.379 186.127 337.419C184.163 337.458 182.32 335.461 182.263 332.664C182.207 329.867 183.967 327.797 185.932 327.757C187.896 327.717 189.739 329.715 189.795 332.512Z"
        stroke="black"
        stroke-width="1.19828"
    />
    <path d="M192.04 333.086L189.159 332.985C189.457 335.625 186.795 337.99 186.795 337.99C186.795 337.99 191.393 337.385 192.04 333.086Z" fill="black" />
    <path
        d="M175.294 331.515C175.335 333.544 174.595 334.783 173.598 335.542C172.57 336.323 171.202 336.644 169.938 336.669C168.823 336.692 167.9 336.161 167.228 335.259C166.548 334.346 166.137 333.062 166.109 331.664C166.08 330.267 166.439 329.017 167.077 328.127C167.705 327.249 168.605 326.71 169.737 326.687C171.009 326.662 172.39 326.904 173.445 327.618C174.466 328.309 175.253 329.488 175.294 331.515Z"
        stroke="black"
        stroke-width="1.19828"
    />
    <path
        d="M173.639 331.516C173.695 334.312 171.935 336.383 169.971 336.423C168.006 336.462 166.164 334.465 166.107 331.668C166.051 328.871 167.811 326.801 169.775 326.761C171.74 326.721 173.582 328.719 173.639 331.516Z"
        stroke="black"
        stroke-width="1.19828"
    />
    <path d="M175.884 332.086L173.003 331.985C173.301 334.625 170.639 336.99 170.639 336.99C170.639 336.99 175.237 336.385 175.884 332.086Z" fill="black" />
    <path
        d="M159.134 330.515C159.175 332.544 158.435 333.783 157.438 334.542C156.41 335.323 155.041 335.644 153.778 335.669C152.663 335.692 151.74 335.161 151.068 334.259C150.388 333.346 149.977 332.062 149.948 330.664C149.92 329.267 150.279 328.017 150.916 327.127C151.545 326.249 152.445 325.71 153.577 325.687C154.849 325.662 156.229 325.904 157.285 326.618C158.306 327.309 159.093 328.488 159.134 330.515Z"
        stroke="black"
        stroke-width="1.19828"
    />
    <path
        d="M157.483 330.516C157.539 333.312 155.779 335.383 153.814 335.423C151.85 335.462 150.007 333.465 149.951 330.668C149.894 327.871 151.655 325.801 153.619 325.761C155.584 325.721 157.426 327.719 157.483 330.516Z"
        stroke="black"
        stroke-width="1.19828"
    />
    <path d="M159.728 331.086L156.847 330.985C157.145 333.625 154.483 335.99 154.483 335.99C154.483 335.99 159.081 335.385 159.728 331.086Z" fill="black" />
    <path
        d="M142.978 329.519C143.019 331.548 142.279 332.787 141.281 333.546C140.254 334.327 138.885 334.648 137.622 334.673C136.507 334.696 135.584 334.165 134.912 333.263C134.231 332.35 133.82 331.066 133.792 329.668C133.764 328.271 134.123 327.021 134.76 326.131C135.388 325.252 136.289 324.714 137.42 324.691C138.692 324.666 140.073 324.908 141.128 325.622C142.149 326.313 142.937 327.492 142.978 329.519Z"
        stroke="black"
        stroke-width="1.19828"
    />
    <path
        d="M141.322 329.516C141.379 332.312 139.619 334.383 137.654 334.423C135.69 334.462 133.847 332.465 133.791 329.668C133.734 326.871 135.495 324.801 137.459 324.761C139.423 324.721 141.266 326.719 141.322 329.516Z"
        stroke="black"
        stroke-width="1.19828"
    />
    <path d="M143.572 330.086L140.691 329.985C140.989 332.625 138.327 334.99 138.327 334.99C138.327 334.99 142.925 334.385 143.572 330.086Z" fill="black" />
    <path
        d="M126.822 328.519C126.863 330.548 126.122 331.787 125.125 332.546C124.098 333.327 122.729 333.648 121.466 333.673C120.35 333.696 119.428 333.165 118.755 332.263C118.075 331.35 117.664 330.066 117.636 328.668C117.608 327.271 117.967 326.021 118.604 325.131C119.232 324.252 120.133 323.714 121.264 323.691C122.536 323.666 123.917 323.908 124.972 324.622C125.993 325.313 126.781 326.492 126.822 328.519Z"
        stroke="black"
        stroke-width="1.19828"
    />
    <path
        d="M125.166 328.516C125.223 331.312 123.462 333.383 121.498 333.423C119.534 333.462 117.691 331.465 117.634 328.668C117.578 325.871 119.338 323.801 121.303 323.761C123.267 323.721 125.11 325.719 125.166 328.516Z"
        stroke="black"
        stroke-width="1.19828"
    />
    <path d="M127.412 329.086L124.53 328.985C124.828 331.625 122.166 333.99 122.166 333.99C122.166 333.99 126.765 333.385 127.412 329.086Z" fill="black" />
    <path
        d="M110.665 327.519C110.706 329.548 109.966 330.787 108.969 331.546C107.942 332.327 106.573 332.648 105.31 332.673C104.194 332.696 103.271 332.165 102.599 331.263C101.919 330.35 101.508 329.066 101.48 327.668C101.451 326.271 101.811 325.021 102.448 324.131C103.076 323.252 103.976 322.714 105.108 322.691C106.38 322.666 107.761 322.908 108.816 323.622C109.837 324.313 110.624 325.492 110.665 327.519Z"
        stroke="black"
        stroke-width="1.19828"
    />
    <path
        d="M109.01 327.516C109.066 330.312 107.306 332.383 105.342 332.423C103.377 332.462 101.535 330.465 101.478 327.668C101.422 324.871 103.182 322.801 105.147 322.761C107.111 322.721 108.953 324.719 109.01 327.516Z"
        stroke="black"
        stroke-width="1.19828"
    />
    <path d="M111.255 328.09L108.374 327.989C108.672 330.629 106.01 332.993 106.01 332.993C106.01 332.993 110.608 332.389 111.255 328.09Z" fill="black" />
    <path
        d="M94.5052 326.519C94.5461 328.548 93.8061 329.787 92.8086 330.546C91.7814 331.327 90.4125 331.648 89.1494 331.673C88.0341 331.696 87.1112 331.165 86.439 330.263C85.7587 329.35 85.3477 328.066 85.3195 326.668C85.2913 325.271 85.6504 324.021 86.2876 323.131C86.9157 322.252 87.8161 321.714 88.9477 321.691C90.2198 321.666 91.6005 321.908 92.6558 322.622C93.6766 323.313 94.4642 324.492 94.5052 326.519Z"
        stroke="black"
        stroke-width="1.19828"
    />
    <path
        d="M92.8537 326.516C92.9102 329.312 91.1498 331.383 89.1855 331.423C87.2211 331.462 85.3785 329.465 85.322 326.668C85.2655 323.871 87.0259 321.801 88.9903 321.761C90.9546 321.721 92.7972 323.719 92.8537 326.516Z"
        stroke="black"
        stroke-width="1.19828"
    />
    <path d="M95.0991 327.09L92.218 326.989C92.5159 329.629 89.854 331.993 89.854 331.993C89.854 331.993 94.452 331.389 95.0991 327.09Z" fill="black" />
    <defs>
        <linearGradient id="paint0_linear_17875_67317" x1="-154.232" y1="169.122" x2="250.556" y2="368.982" gradientUnits="userSpaceOnUse">
            <stop offset="0.180158" stop-color="#D6FFBB" />
            <stop offset="1" stop-color="#5869DD" />
        </linearGradient>
        <linearGradient id="paint1_linear_17875_67317" x1="228.62" y1="403.364" x2="235.814" y2="203.448" gradientUnits="userSpaceOnUse">
            <stop stop-color="#D6FFBB" />
            <stop offset="1" stop-color="#5869DD" />
        </linearGradient>
        <linearGradient id="paint2_linear_17875_67317" x1="308.229" y1="403.364" x2="328.877" y2="248.392" gradientUnits="userSpaceOnUse">
            <stop stop-color="#D6FFBB" />
            <stop offset="1" stop-color="#5869DD" />
        </linearGradient>
        <linearGradient id="paint3_linear_17875_67317" x1="224.806" y1="399.387" x2="236.146" y2="203.48" gradientUnits="userSpaceOnUse">
            <stop stop-color="#D6FFBB" />
            <stop offset="1" stop-color="#5869DD" />
        </linearGradient>
        <linearGradient id="paint4_linear_17875_67317" x1="405" y1="287.024" x2="6" y2="287.024" gradientUnits="userSpaceOnUse">
            <stop stop-color="#D6FFBB" />
            <stop offset="1" stop-color="#5869DD" />
        </linearGradient>
        <linearGradient id="paint5_linear_17875_67317" x1="227.667" y1="402.37" x2="235.897" y2="203.455" gradientUnits="userSpaceOnUse">
            <stop stop-color="#D6FFBB" />
            <stop offset="1" stop-color="#5869DD" />
        </linearGradient>
        <linearGradient id="paint6_linear_17875_67317" x1="7.49999" y1="2.16133e-06" x2="29" y2="53" gradientUnits="userSpaceOnUse">
            <stop stop-color="#D6FFBB" />
            <stop offset="1" stop-color="#5869DD" />
        </linearGradient>
    </defs>
</svg>
