<svg xmlns="http://www.w3.org/2000/svg" width="38" height="38" fill="none">
    <path fill="#F1EFED" d="M30.288 4.661H1v29.288h29.288V4.661Z" />
    <path fill="#5869DD" d="M30.288 4.661v29.288L33.34 37V7.712l-3.05-3.051Z" />
    <path fill="#000" d="M30.288 33.95H1L4.05 37H33.34l-3.05-3.05Z" />
    <path stroke="#000" stroke-width="1.22" d="M30.288 4.661H1v29.288M30.288 4.661v29.288m0-29.288 3.051 3.05V37m-3.05-3.05H1m29.288 0L33.34 37M1 33.95 4.05 37H33.34" />
    <g clip-path="url(#a)">
        <path
            fill="url(#b)"
            fill-rule="evenodd"
            stroke="#000"
            stroke-linejoin="round"
            stroke-width="2"
            d="M36.654 4.92 15.652 25.724c-1 .99-2.621.99-3.622 0l-7.683-7.61 3.622-3.588 5.872 5.816L33.032 1.333l3.622 3.588Z"
            clip-rule="evenodd"
        />
    </g>
    <defs>
        <linearGradient id="b" x1="4.347" x2="36.654" y1="13.9" y2="13.9" gradientUnits="userSpaceOnUse">
            <stop stop-color="#D6FFBB" />
            <stop offset="1" stop-color="#5869DD" />
        </linearGradient>
        <clipPath id="a"><path fill="#fff" d="M3 0h35v28H3z" /></clipPath>
    </defs>
</svg>
