<svg xmlns="http://www.w3.org/2000/svg" width="361" height="192" fill="none">
    <defs>
        <clipPath id="clip0_4198_13809">
            <rect id="svg_1" x="95.2852" y="91.1421" fill="white" height="86.0176" width="169.731" />
        </clipPath>
        <linearGradient y2="1.09124" x2="1.16531" y1="0.38351" x1="-0.01911" id="paint0_linear_4198_13809">
            <stop stop-color="#D6FFBB" />
            <stop stop-color="#5869DD" offset="1" />
        </linearGradient>
        <linearGradient y2="0.93781" x2="1.21421" y1="0.41453" x1="-0.08063" id="paint1_linear_4198_13809">
            <stop stop-color="#D6FFBB" />
            <stop stop-color="#5869DD" offset="1" />
        </linearGradient>
        <linearGradient y2="0.44441" x2="0.82752" y1="0.31478" x1="-0.16291" id="paint2_linear_4198_13809">
            <stop stop-color="#D6FFBB" />
            <stop stop-color="#5869DD" offset="1" />
        </linearGradient>
        <linearGradient y2="0.21027" x2="3.75512" y1="0.21027" x1="-21.15347" id="paint3_linear_4198_13809">
            <stop stop-color="#D6FFBB" />
            <stop stop-color="#5869DD" offset="1" />
        </linearGradient>
        <linearGradient y2="0.65714" x2="1" y1="0.65714" x1="0" id="paint4_linear_4198_13809">
            <stop stop-color="#D6FFBB" />
            <stop stop-color="#5869DD" offset="1" />
        </linearGradient>
    </defs>
    <g>
        <title>Layer 1</title>
        <path id="svg_2" fill="black" d="m0,174.562c3.07206,2.304 6.19787,4.531 9.39281,6.659l-0.06912,0.107c-3.1719,-2.166 -6.29003,-4.408 -9.32369,-6.766z" />
        <path
            id="svg_3"
            fill="black"
            d="m19.2406,187.188c1.6847,0.912 3.415,1.738 5.1841,2.473c1.7418,0.773 3.5862,1.29 5.4759,1.536l0,0.369c-1.924,-0.258 -3.8,-0.796 -5.5681,-1.598c-1.7701,-0.761 -3.5004,-1.612 -5.1841,-2.55l0.0922,-0.23z"
        />
        <path
            id="svg_4"
            fill="black"
            d="m36.0625,183.363c0.1536,-1.897 0.0845,-3.84 0.0691,-5.737c-0.0747,-1.941 0.054,-3.884 0.384,-5.798l0.6068,0.13c-0.3368,1.87 -0.481,3.769 -0.4301,5.668c0,1.92 0.0461,3.84 -0.1306,5.783l-0.4992,-0.046z"
        />
        <path
            id="svg_5"
            fill="black"
            d="m44.668,164.171c1.986,-0.093 3.9674,0.262 5.7985,1.036c1.8057,0.733 3.5367,1.639 5.1687,2.704l-0.4454,0.699c-1.5826,-1.047 -3.262,-1.94 -5.0152,-2.665c-1.7179,-0.738 -3.5767,-1.089 -5.4452,-1.03l-0.0614,-0.744z"
        />
        <path
            id="svg_6"
            fill="black"
            d="m64.7988,174.977c1.4592,1.251 2.8954,2.534 4.37,3.74c0.7296,0.602 1.4994,1.154 2.304,1.651c0.7959,0.508 1.6189,0.972 2.4654,1.39l-0.4378,0.868c-0.8716,-0.44 -1.7201,-0.925 -2.5421,-1.452c-0.8245,-0.527 -1.6146,-1.107 -2.3655,-1.735c-1.49,-1.237 -2.9185,-2.519 -4.3623,-3.779l0.5683,-0.683z"
        />
        <path
            id="svg_7"
            fill="black"
            d="m84.6562,182.91c1.7386,-0.666 3.3435,-1.639 4.7387,-2.872c1.4172,-1.249 2.7203,-2.621 3.8938,-4.101l0.8602,0.706c-1.2243,1.523 -2.5842,2.932 -4.0628,4.209c-1.4922,1.327 -3.2156,2.368 -5.0842,3.072l-0.3457,-1.014z"
        />
        <path
            id="svg_8"
            fill="black"
            d="m99.9766,166.605c1.0984,-1.582 2.2194,-3.149 3.4254,-4.669c0.607,-0.768 1.229,-1.536 1.874,-2.235c0.33,-0.369 0.66,-0.722 1.006,-1.075c0.346,-0.354 0.73,-0.715 0.975,-0.991l0.953,0.814c-0.4,0.43 -0.707,0.691 -1.045,1.044c-0.338,0.354 -0.653,0.684 -0.968,1.03c-0.637,0.698 -1.251,1.428 -1.843,2.165c-1.19,1.483 -2.304,3.072 -3.41,4.608l-0.9674,-0.691z"
        />
        <path id="svg_9" fill="black" d="m115.121,149.494c3.843,0.753 7.547,2.092 10.983,3.97l-0.607,1.183c-3.314,-1.812 -6.885,-3.107 -10.591,-3.84l0.215,-1.313z" />
        <path id="svg_10" fill="black" d="m136.172,159.109c3.275,1.923 6.742,3.496 10.345,4.693l-0.407,1.313c-3.692,-1.232 -7.244,-2.848 -10.598,-4.823l0.66,-1.183z" />
        <path id="svg_11" fill="black" d="m155.961,160.661c2.501,-2.848 4.716,-5.935 6.613,-9.216l1.213,0.768c-1.952,3.369 -4.234,6.536 -6.812,9.454l-1.014,-1.006z" />
        <path id="svg_12" fill="black" d="m168.836,141.699l6.95,-9.209l1.16,0.899l-6.95,9.17l-1.16,-0.86z" />
        <path id="svg_13" fill="black" d="m182.855,123.389l7.12,-9.055l1.19,0.937l-7.134,9.039l-1.176,-0.921z" />
        <path id="svg_14" fill="black" d="m197.059,105.256l3.509,-4.562l0.876,-1.1365l0.937,-1.129l1.866,-2.2503l1.122,1.0215l-1.813,2.1811l-0.899,1.0902l-0.875,1.145l-3.51,4.577l-1.213,-0.937z" />
        <path id="svg_15" fill="black" d="m213.309,88.7749c3.4,-1.9602 7.084,-3.38 10.921,-4.2087l0.322,1.4285c-3.687,0.8028 -7.227,2.1761 -10.491,4.0704l-0.752,-1.2902z" />
        <path id="svg_16" fill="black" d="m235.789,83.2143c3.84,-0.1152 7.726,-0.0001 11.574,0.1766l-0.061,1.4131c-3.84,-0.1613 -7.681,-0.2688 -11.467,-0.1459l-0.046,-1.4438z" />
        <path
            id="svg_17"
            fill="black"
            d="m258.937,84.4507c1.965,0.3818 3.852,1.0905 5.583,2.0967c1.689,1.0626 3.202,2.3814 4.485,3.9092l-1.029,0.9062c-1.193,-1.4184 -2.6,-2.6415 -4.17,-3.625c-1.595,-0.9303 -3.339,-1.5798 -5.154,-1.9201l0.285,-1.367z"
        />
        <path
            id="svg_18"
            fill="black"
            d="m276.233,99.4194c0.681,0.7406 1.288,1.5456 1.813,2.4036c0.566,0.911 0.903,1.947 0.982,3.017c0.079,1.07 -0.102,2.143 -0.529,3.127c-0.095,0.264 -0.208,0.521 -0.338,0.768c-0.101,0.196 -0.244,0.367 -0.42,0.5c-0.175,0.133 -0.378,0.225 -0.594,0.268c-0.405,0.051 -0.813,-0.054 -1.144,-0.291c-0.243,-0.162 -0.465,-0.352 -0.661,-0.569l0.96,-0.914c0.127,0.138 0.269,0.262 0.423,0.369c0.064,0.047 0.137,0.081 0.215,0.1c-0.046,0 0,0 0.076,-0.123c0.092,-0.18 0.174,-0.365 0.246,-0.553c0.342,-0.828 0.484,-1.726 0.415,-2.619c-0.066,-0.857 -0.328,-1.688 -0.768,-2.427c-0.479,-0.78 -1.035,-1.511 -1.659,-2.181l0.983,-0.8756z"
        />
        <path id="svg_19" fill="black" d="m270.762,97.7451c-0.822,-3.7768 -1.427,-7.5975 -1.813,-11.4434l1.229,-0.1306c0.415,3.7941 1.036,7.5629 1.859,11.2899l-1.275,0.2841z" />
        <path id="svg_20" fill="black" d="m268.578,74.7048c0.133,-3.8775 0.627,-7.7342 1.475,-11.5202l1.067,0.2381c-0.805,3.723 -1.262,7.5128 -1.367,11.3205l-1.175,-0.0384z" />
        <path id="svg_21" fill="black" d="m273.836,52.2097c1.666,-3.5023 3.686,-6.8247 6.029,-9.915l0.768,0.576c-2.288,3.0574 -4.252,6.3442 -5.86,9.8075l-0.937,-0.4685z" />
        <path id="svg_22" fill="black" d="m287.66,33.7234c2.838,-2.6209 5.853,-5.0433 9.024,-7.25l0.469,0.6682c-3.122,2.2052 -6.091,4.6197 -8.886,7.227l-0.607,-0.6452z" />
        <path id="svg_23" fill="black" d="m306.477,20.3601c3.371,-1.8739 6.82,-3.5943 10.314,-5.1995l0.253,0.5453c-3.463,1.6436 -6.912,3.3947 -10.206,5.2917l-0.361,-0.6375z" />
        <path id="svg_24" fill="black" d="m327.398,10.6369l10.799,-4.03973l0.115,0.33792l-10.737,4.14731l-0.177,-0.4455z" />
        <path id="svg_25" fill="black" d="m349.164,3.04134l11.113,-3.04134l0.023,0.09984l-11.075,3.15654l-0.061,-0.21504z" />
        <path id="svg_26" fill="black" d="m266.932,177.646l0,3.902l4.638,-3.301l-4.638,-0.601z" />
        <path id="svg_27" fill="black" d="m279.668,104.327c4.056,0.452 7.05,3.998 6.816,8.072c0.549,-6.574 1.715,-10.514 4.099,-14.1798c-2.507,2.8778 -5.559,5.3598 -10.915,6.1078z" />
        <path id="svg_28" fill="black" d="m83.7612,82.4773l195.9068,21.8497l-193.2332,-24.5613c-2.6486,-0.3248 -5.1711,0.508 -7.0615,2.1007l4.3879,0.6109z" />
        <path id="svg_29" fill="#5869DD" d="m296.872,98.5751l0,61.4719l27.286,-48.651c0.752,-1.341 1.189,-2.837 1.25,-4.373c0.939,-23.8754 -3.058,-38.2289 -11.243,-45.6696l-19.347,31.6301c1.389,1.4748 2.181,3.4609 2.054,5.5916z" />
        <path id="svg_30" fill="url(#paint0_linear_4198_13809)" d="m88.8351,66.349l200.9379,24.1537c2.015,0.2158 3.779,1.1356 5.045,2.4808l19.347,-31.6301l-193.096,-21.497c-2.231,-0.2484 -4.459,0.4954 -6.098,2.0294l-26.1359,24.4632z" />
        <path
            id="svg_31"
            fill="url(#paint1_linear_4198_13809)"
            d="m286.484,112.399l-3.039,53.024c-0.234,5.405 -3.886,10.142 -9.25,9.433l-192.4055,-25.43l-3.6223,-0.478c-4.9917,-0.66 -8.53,-5.204 -7.9465,-10.205l5.938,-50.8976c0.2831,-2.4263 1.484,-4.5211 3.2146,-5.979c1.8904,-1.5927 4.4129,-2.4255 7.0615,-2.1007l193.2332,24.5613c5.356,-0.748 8.408,-3.23 10.915,-6.1078c1.122,-1.724 2.512,-3.3874 4.235,-5.2357c-1.266,-1.3452 -3.03,-2.265 -5.045,-2.4808l-200.9379,-24.1537c-4.8896,0 -14.161,7.6673 -16.4236,14.3221c-0.1676,0.4929 -0.248,1.0085 -0.293,1.5271l-5.6401,65.0008c-0.2134,2.459 1.5497,4.65 3.9982,4.968l24.8603,3.224l171.5951,22.255l4.638,0.601l8.582,1.113c2.384,0 4.486,-0.855 6.332,-2.224l0,-64.737z"
        />
        <path id="svg_32" fill="url(#paint2_linear_4198_13809)" d="m83.7612,82.4773l-1.9707,50.2527c-0.1882,4.801 3.3429,8.941 8.1131,9.512l193.5414,23.181l3.039,-53.024c0.234,-4.074 -2.76,-7.62 -6.816,-8.072l-195.9068,-21.8497z" />
        <path
            id="svg_33"
            fill="#5869DD"
            d="m81.7905,132.73l1.9707,-50.2527l-4.3879,-0.6109l-4.659,39.9706l-0.8703,16.906c-0.5834,5.001 2.9543,10.023 7.9455,10.683l192.4055,25.43c5.364,0.709 9.016,-4.028 9.25,-9.433l-193.5414,-23.181c-4.7702,-0.571 -8.3013,-4.711 -8.1131,-9.512z"
        />
        <path
            id="svg_34"
            fill="url(#paint3_linear_4198_13809)"
            d="m296.872,160.047l0,-61.4719c0.127,-2.1307 -0.665,-4.1168 -2.054,-5.5916c-1.463,1.6996 -2.754,3.5366 -4.235,5.2357c-2.384,3.6658 -3.55,7.6058 -4.099,14.1798l0,64.737c5.606,-4.156 8.843,-13.045 10.388,-17.089z"
        />
        <path
            id="svg_35"
            fill="#F1EFED"
            d="m76.1587,87.8454l-5.938,50.8976c-0.5835,5.001 2.9548,9.545 7.9465,10.205l3.6223,0.478c-4.9912,-0.66 -8.5289,-5.682 -7.9455,-10.683l0.8703,-16.906l4.659,-39.9706c-1.7306,1.4579 -2.9315,3.5527 -3.2146,5.979z"
        />
        <path id="svg_36" fill="#5869DD" d="m95.3369,155.391l0,4.656l171.5951,21.501l0,-3.902l-171.5951,-22.255z" />
        <path
            id="svg_37"
            fill="black"
            d="m81.7905,132.73l-0.7674,-0.03l0.7674,0.03zm8.1131,9.512l-0.0913,0.763l0,0l0.0913,-0.763zm189.7644,-37.915l-0.085,0.763l0.085,-0.763zm17.204,-5.7519l-0.767,-0.0458l-0.001,0.0229l0,0.0229l0.768,0zm-7.099,-8.0724l-0.091,0.7626l0.01,0.0011l0.081,-0.7637zm24.392,-29.1493l0.517,-0.5683l-0.184,-0.1675l-0.248,-0.0275l-0.085,0.7633zm-243.9443,77.3896l-0.7629,-0.089l0.7629,0.089zm5.938,-50.8976l-0.7628,-0.089l0.7628,0.089zm10.2761,-8.0797l0.0968,-0.7618l-0.0033,-0.0005l-0.0935,0.7623zm187.7602,95.0903l0.101,-0.761l-0.101,0.761zm-192.4055,-25.43l-0.1007,0.762l0.1007,-0.762zm-3.6223,-0.478l0.1006,-0.762l0,0l-0.1006,0.762zm-11.6888,-1.749l-0.7651,-0.067l0.7651,0.067zm5.6401,-65.0008l-0.7652,-0.0664l0,0l0.7652,0.0664zm0.293,-1.5271l-0.7272,-0.2472l0.7272,0.2472zm-1.9349,71.4959l0.0988,-0.762l0,0l-0.0988,0.762zm209.6754,27.193l-0.099,0.762l0.049,0.006l0.05,0l0,-0.768zm-206.308,-40.617l0.7629,0.089l0.0028,-0.025l0.0013,-0.025l-0.767,-0.039zm5.5293,-56.8766l-0.4949,-0.5874l0.4949,0.5874zm-4.659,39.9706l-0.7629,-0.089l-0.0028,0.025l-0.0013,0.024l0.767,0.04zm40.2567,-79.9512l0.525,0.5608l0,0l-0.525,-0.5608zm-19.6341,113.5052l0.0987,-0.762l-0.0987,0.762zm0,4.656l-0.7681,0l0,0.678l0.6726,0.084l0.0955,-0.762zm171.5951,21.501l-0.095,0.762l0.297,0.037l0.244,-0.174l-0.446,-0.625zm0,-3.902l0.099,-0.762l-0.099,0.762zm-145.863,-137.7896l0.085,-0.7633l-0.085,0.7633zm203.089,71.5396l0.67,0.376l-0.67,-0.376zm1.25,-4.373l-0.768,-0.03l0.768,0.03zm-242.4142,-24.5758l-1.9707,50.2528l1.5349,0.06l1.9707,-50.2526l-1.5349,-0.0602zm6.8185,60.5578l193.5417,23.18l0.182,-1.525l-193.541,-23.181l-0.1827,1.526zm194.3997,22.462l3.039,-53.024l-1.533,-0.088l-3.04,53.024l1.534,0.088zm-4.459,-61.903l-195.9066,-21.85l-0.1703,1.5266l195.9069,21.8494l0.17,-1.526zm7.498,8.879c0.257,-4.482 -3.036,-8.382 -7.498,-8.879l-0.17,1.526c3.65,0.407 6.345,3.598 6.135,7.265l1.533,0.088zm-206.2279,20.257c-0.2039,5.201 3.6214,9.686 8.7892,10.305l0.1827,-1.526c-4.3728,-0.523 -7.6096,-4.318 -7.437,-8.719l-1.5349,-0.06zm216.6169,27.347l0,-61.4719l-1.536,0l0,61.4719l1.536,0zm-7.775,-70.3068l-200.9382,-24.1537l-0.1833,1.525l200.9385,24.1538l0.183,-1.5251zm7.773,8.8807c0.141,-2.3544 -0.736,-4.5444 -2.26,-6.1639l-1.119,1.053c1.253,1.3301 1.96,3.1123 1.846,5.0193l1.533,0.0916zm-2.261,-6.1639c-1.39,-1.477 -3.322,-2.4823 -5.522,-2.7179l-0.163,1.5273c1.83,0.196 3.425,1.0302 4.567,2.2436l1.118,-1.053zm-15.603,12.631c5.595,-0.782 8.802,-3.396 11.388,-6.3642l-1.158,-1.0091c-2.428,2.7863 -5.325,5.1373 -10.442,5.8513l0.212,1.522zm11.388,-6.3642c0.756,-0.8673 1.461,-1.7671 2.15,-2.6494c0.694,-0.8874 1.371,-1.7564 2.088,-2.5897l-1.164,-1.0023c-0.746,0.8662 -1.446,1.7656 -2.134,2.6463c-0.692,0.8859 -1.373,1.7542 -2.098,2.586l1.158,1.0091zm-3.912,13.7392c0.543,-6.502 1.687,-10.303 3.977,-13.825l-1.288,-0.8375c-2.478,3.8105 -3.665,7.8885 -4.22,14.5345l1.531,0.128zm3.977,-13.825c1.087,-1.6711 2.444,-3.2977 4.153,-5.1308l-1.123,-1.0474c-1.738,1.8635 -3.162,3.5637 -4.318,5.3407l1.288,0.8375zm4.247,-5.2537l19.347,-31.6302l-1.311,-0.8015l-19.347,31.6302l1.311,0.8015zm-224.4905,45.4477l5.9381,-50.8976l-1.5257,-0.178l-5.9381,50.8976l1.5257,0.178zm15.3544,-58.3044l193.2331,24.5614l0.194,-1.524l-193.2334,-24.5611l-0.1937,1.5237zm-4.4478,68.1374l-3.6223,-0.479l-0.2012,1.523l3.6222,0.479l0.2013,-1.523zm200.7879,16.725c-0.111,2.549 -1.028,4.905 -2.502,6.525c-1.461,1.604 -3.472,2.498 -5.88,2.18l-0.201,1.522c2.954,0.391 5.451,-0.729 7.216,-2.668c1.751,-1.922 2.777,-4.637 2.901,-7.493l-1.534,-0.066zm-213.2202,-26.736c-0.6321,5.418 3.2011,10.34 8.6088,11.055l0.2012,-1.523c-4.5757,-0.604 -7.8191,-4.77 -7.2843,-9.354l-1.5257,-0.178zm-2.2142,8.611l5.64,-65.0004l-1.5303,-0.1328l-5.64,65.0002l1.5303,0.133zm5.895,-66.3466c1.0695,-3.1457 3.8411,-6.618 6.9989,-9.3204c1.57,-1.3435 3.2093,-2.474 4.7394,-3.2647c1.5452,-0.7986 2.9132,-1.2163 3.9582,-1.2163l0,-1.536c-1.3998,0 -3.0243,0.5406 -4.6634,1.3877c-1.6542,0.8549 -3.391,2.0571 -5.0329,3.4623c-3.266,2.7949 -6.2614,6.4837 -7.4545,9.9929l1.4543,0.4945zm-7.4253,66.2136c-0.249,2.87 1.808,5.426 4.6645,5.797l0.1976,-1.524c-2.0404,-0.264 -3.5097,-2.09 -3.3318,-4.14l-1.5303,-0.133zm230.4407,12.641c-0.776,2.031 -1.955,5.22 -3.633,8.42c-1.684,3.21 -3.83,6.35 -6.494,8.326l0.915,1.234c2.941,-2.181 5.217,-5.563 6.939,-8.847c1.728,-3.295 2.939,-6.572 3.708,-8.585l-1.435,-0.548zm-10.127,16.746c-1.742,1.292 -3.688,2.073 -5.875,2.073l0,1.536c2.58,0 4.84,-0.929 6.79,-2.375l-0.915,-1.234zm-0.311,-64.12l0,64.737l1.536,0l0,-64.737l-1.536,0zm-212.6348,26.255c-0.627,5.374 3.1581,10.813 8.6075,11.534l0.2015,-1.523c-4.5328,-0.6 -7.8233,-5.205 -7.2833,-9.833l-1.5257,-0.178zm13.4471,-59.6506c-2.8693,-0.3519 -5.603,0.5512 -7.6499,2.2756l0.9897,1.1747c1.7341,-1.4609 4.0453,-2.2234 6.4732,-1.9257l0.187,-1.5246zm-7.2609,3.6236l4.3879,0.611l0.2118,-1.5214l-4.3879,-0.6109l-0.2118,1.5213zm-2.3458,5.3074c0.2595,-2.2245 1.3595,-4.1436 2.9465,-5.4807l-0.9897,-1.1747c-1.8741,1.5789 -3.1759,3.8493 -3.4825,6.4774l1.5257,0.178zm-2.3106,50.8476l0.8703,-16.906l-1.534,-0.079l-0.8703,16.907l1.534,0.078zm3.9994,-57.0045l-4.659,39.9705l1.5257,0.178l4.659,-39.9707l-1.5257,-0.1778zm218.9316,78.6445l27.286,-48.65l-1.339,-0.752l-27.287,48.651l1.34,0.751zm-208.182,-93.5123l26.136,-24.4631l-1.05,-1.1215l-26.1357,24.4632l1.0497,1.1214zm6.0756,87.7193l-24.8602,-3.224l-0.1976,1.524l24.8603,3.224l0.1975,-1.524zm-0.8668,0.762l0,4.656l1.5361,0l0,-4.656l-1.5361,0zm0.6726,5.418l171.5956,21.501l0.191,-1.524l-171.5957,-21.501l-0.1909,1.524zm171.7896,16.075l-171.5954,-22.255l-0.1975,1.524l171.5959,22.254l0.197,-1.523zm0.67,4.664l0,-3.902l-1.537,0l0,3.902l1.537,0zm12.55,-2.949l-8.582,-1.113l-0.198,1.523l8.582,1.113l0.198,-1.523zm-8.582,-1.113l-4.638,-0.602l-0.197,1.523l4.637,0.602l0.198,-1.523zm-4.291,4.687l4.637,-3.3l-0.89,-1.251l-4.638,3.3l0.891,1.251zm-146.394,-141.5533l193.096,21.497l0.17,-1.5266l-193.096,-21.497l-0.17,1.5266zm192.665,21.302c7.913,7.1937 11.929,21.2292 10.991,45.0713l1.535,0.06c0.941,-23.9087 -3.037,-38.5802 -11.493,-46.2679l-1.033,1.1366zm-198.153,-19.4751c1.476,-1.3813 3.481,-2.0504 5.488,-1.8269l0.17,-1.5266c-2.455,-0.2734 -4.905,0.5452 -6.708,2.232l1.05,1.1215zm-42.6124,39.818c0.0423,-0.4871 0.1151,-0.9348 0.255,-1.3462l-1.4543,-0.4945c-0.1952,0.5744 -0.2832,1.1577 -0.331,1.7079l1.5303,0.1328zm201.4124,91.8304l-192.4059,-25.43l-0.2013,1.523l192.4062,25.429l0.201,-1.522zm50.532,-62.323c0.809,-1.443 1.282,-3.057 1.347,-4.719l-1.535,-0.06c-0.055,1.41 -0.457,2.788 -1.151,4.027l1.339,0.752z"
        />
        <path id="svg_38" fill="black" d="m275.186,79.9786l0,4.2241l7.872,-10.5602l0,-4.2241l-7.872,10.5602z" />
        <path id="svg_39" fill="black" d="m275.186,84.2027l0,-4.2241l-10.464,-1.4401l3.148,4.6573l7.316,1.0069z" />
        <path id="svg_40" fill="#F1EFED" d="m254.258,77.0985l0,4.2241l13.612,1.8732l-3.148,-4.6573l-10.464,-1.44z" />
        <path id="svg_41" fill="url(#paint4_linear_4198_13809)" d="m275.186,79.9786l7.872,-10.5602l-20.928,-2.8801l-7.872,10.5602l10.464,1.44l10.464,1.4401z" />
        <path
            id="svg_42"
            fill="black"
            d="m254.258,81.3226l-0.768,0l0,0.6696l0.663,0.0912l0.105,-0.7608zm0,-4.2241l-0.616,-0.459l-0.152,0.2043l0,0.2547l0.768,0zm20.928,7.1042l-0.105,0.7608l0.45,0.0618l0.271,-0.3636l-0.616,-0.459zm7.872,-14.7843l0.768,0l0,-0.6696l-0.663,-0.0913l-0.105,0.7609zm0,4.2241l0.616,0.459l0.152,-0.2043l0,-0.2547l-0.768,0zm-20.928,-7.1042l0.105,-0.7608l-0.45,-0.0619l-0.271,0.3637l0.616,0.459zm-7.104,14.7843l0,-4.2241l-1.536,0l0,4.2241l1.536,0zm20.928,2.8801l0,-4.2241l-1.536,0l0,4.2241l1.536,0zm-0.152,-3.7651l7.872,-10.5602l-1.231,-0.918l-7.873,10.5602l1.232,0.918zm8.024,-6.7951l0,-4.2241l-1.536,0l0,4.2241l1.536,0zm-8.024,11.0192l7.872,-10.5602l-1.231,-0.9181l-7.873,10.5602l1.232,0.9181zm-13.777,-17.3625l20.929,2.88l0.209,-1.5217l-20.928,-2.88l-0.21,1.5217zm-7.151,10.2583l7.872,-10.5602l-1.232,-0.918l-7.872,10.5602l1.232,0.918zm-0.721,0.3019l10.464,1.44l0.21,-1.5217l-10.464,-1.44l-0.21,1.5217zm10.464,1.44l10.464,1.44l0.21,-1.5217l-10.464,-1.44l-0.21,1.5217zm-10.464,2.784l13.612,1.8733l0.21,-1.5217l-13.612,-1.8732l-0.21,1.5216zm13.612,1.8733l7.316,1.0068l0.21,-1.5217l-7.316,-1.0068l-0.21,1.5217zm-3.679,-4.9881l3.148,4.6573l1.272,-0.8601l-3.148,-4.6573l-1.272,0.8601z"
        />
        <path
            id="svg_43"
            stroke-width="1.53603"
            stroke="black"
            fill="#F1EFED"
            d="m95.2812,130.03l0,-30.2383c0,-3.6917 3.2325,-6.5499 6.8968,-6.0979l161.439,19.9172c3.079,0.38 5.392,2.996 5.392,6.098l0,30.239c0,3.692 -3.233,6.55 -6.897,6.098l-161.439,-19.918c-3.079,-0.38 -5.3918,-2.995 -5.3918,-6.098z"
        />
        <path
            id="svg_44"
            stroke-width="1.53603"
            stroke="black"
            fill="black"
            d="m95.2812,126.958l0,-30.2383c0,-3.6917 3.2325,-6.5499 6.8968,-6.0979l161.439,19.9172c3.079,0.38 5.392,2.996 5.392,6.098l0,30.239c0,3.692 -3.233,6.55 -6.897,6.098l-161.439,-19.918c-3.079,-0.38 -5.3918,-2.995 -5.3918,-6.098z"
        />
        <g id="svg_45" clip-path="url(#clip0_4198_13809)">
            <path
                id="svg_46"
                fill="#F1EFED"
                d="m30.327,17.847l-0.981,7.617l11.426,1.472l0.981,-7.617l-3.809,-0.491l0.491,-3.808l-3.808,-0.491l-0.491,3.809l-3.809,-0.491zm-7.617,-0.981l3.809,0.49l0.49,-3.808l3.809,0.49l0.491,-3.808l11.425,1.472l-0.49,3.808l3.808,0.491l-0.49,3.809l3.808,0.49l-2.453,19.043l-7.617,-0.981l0.981,-7.617l-11.426,-1.472l-0.981,7.617l-7.617,-0.981l2.453,-19.043zm31.45,-3.692l7.617,0.981l-2.944,22.852l11.426,1.472l2.944,-22.852l7.617,0.981l-2.944,22.852l-3.808,-0.491l-0.491,3.809l-19.043,-2.453l0.491,-3.809l-3.809,-0.491l2.944,-22.851zm37.595,8.715l-2.453,19.043l7.617,0.981l0.491,-3.808l3.809,0.49l1.472,-11.425l-3.809,-0.491l0.491,-3.809l-7.618,-0.981zm-7.126,-4.79l19.043,2.453l-0.491,3.809l3.809,0.491l-0.491,3.808l3.809,0.491l-1.472,11.426l-3.809,-0.491l-0.49,3.809l-3.809,-0.491l-0.491,3.809l-19.043,-2.454l3.435,-26.66zm57.129,7.36l-0.491,3.809l-7.617,-0.982l-2.453,19.043l7.617,0.982l-0.491,3.808l-22.851,-2.944l0.49,-3.808l7.618,0.981l2.453,-19.043l-7.617,-0.981l0.49,-3.809l22.852,2.944zm30.469,3.925l-0.491,3.809l-7.617,-0.981l-2.944,22.851l-7.617,-0.981l2.944,-22.852l-7.618,-0.981l0.491,-3.809l22.852,2.944zm60.937,7.851l-0.491,3.808l-7.617,-0.981l-2.944,22.852l-7.617,-0.982l2.944,-22.851l-7.617,-0.982l0.491,-3.808l22.851,2.944zm30.469,3.925l-0.491,3.809l-7.617,-0.982l-2.453,19.043l7.617,0.982l-0.491,3.808l-22.851,-2.944l0.49,-3.808l7.618,0.981l2.453,-19.043l-7.617,-0.981l0.49,-3.809l22.852,2.944zm3.808,0.491l7.618,0.981l-0.491,3.809l3.809,0.49l-0.491,3.809l3.809,0.491l0.49,-3.809l3.809,0.491l0.49,-3.809l7.618,0.981l-3.435,26.66l-7.617,-0.981l1.472,-11.426l-3.809,-0.49l-0.49,3.808l-3.809,-0.49l0.491,-3.809l-3.809,-0.491l-1.472,11.426l-7.617,-0.981l3.434,-26.66zm30.469,3.925l26.66,3.435l-0.49,3.808l-19.043,-2.453l-0.982,7.617l15.235,1.963l-0.491,3.808l-15.234,-1.962l-0.982,7.617l19.043,2.453l-0.49,3.809l-26.66,-3.435l3.434,-26.66z"
            />
        </g>
    </g>
</svg>
