<svg xmlns="http://www.w3.org/2000/svg" width="432" height="39" fill="none">
    <g>
        <title>Layer 1</title>
        <path
            transform="rotate(-7.34 215.921 19.962)"
            id="svg_1"
            fill="#F1EFED"
            d="m13.75648,-15.04419l-1.3963,10.8379l16.257,2.0944l1.3962,-10.838l-5.419,-0.6981l0.6982,-5.41897l-5.419,-0.69813l-0.6981,5.419l-5.419,-0.6981zm-10.83801,-1.3963l5.41899,0.6981l0.69812,-5.41895l5.419,0.69813l0.6981,-5.41899l16.257,2.09437l-0.6981,5.41899l5.4189,0.69815l-0.6981,5.419l5.419,0.6981l-3.4906,27.0949l-10.838,-1.3962l1.3963,-10.838l-16.257,-2.0944l-1.3963,10.838l-10.83793,-1.3962l3.49062,-27.095zm44.74811,-5.25297l10.838,1.39625l-4.1887,32.51392l16.2569,2.0944l4.1888,-32.51395l10.838,1.39625l-4.1888,32.5139l-5.419,-0.6981l-0.6981,5.419l-27.0949,-3.4906l0.6981,-5.419l-5.419,-0.6981l4.1887,-32.51397zm53.4919,12.40027l-3.4907,27.0949l10.8377,1.3962l0.698,-5.4189l5.419,0.6981l2.095,-16.257l-5.419,-0.6981l0.698,-5.419l-10.838,-1.3962zm-10.14,-6.8153l27.095,3.4906l-0.698,5.419l5.419,0.6982l-0.698,5.4189l5.419,0.6982l-2.095,16.2569l-5.419,-0.6981l-0.698,5.419l-5.419,-0.6981l-0.698,5.419l-27.0948,-3.4907l4.8868,-37.9329zm81.285,10.4719l-0.698,5.419l-10.838,-1.3963l-3.491,27.095l10.838,1.3962l-0.698,5.419l-32.514,-4.1887l0.698,-5.419l10.838,1.3962l3.491,-27.0949l-10.838,-1.3963l0.698,-5.419l32.514,4.1888zm43.352,5.585l-0.698,5.419l-10.838,-1.3963l-4.189,32.5139l-10.838,-1.3962l4.189,-32.5139l-10.838,-1.3963l0.698,-5.419l32.514,4.1888zm86.704,11.17l-0.699,5.4189l-10.838,-1.3962l-4.188,32.5139l-10.838,-1.3962l4.188,-32.514l-10.837,-1.3962l0.698,-5.419l32.514,4.1888zm43.351,5.585l-0.698,5.4189l-10.838,-1.3962l-3.49,27.0949l10.838,1.3963l-0.698,5.419l-32.514,-4.1888l0.698,-5.419l10.838,1.3963l3.49,-27.095l-10.838,-1.3962l0.699,-5.419l32.513,4.1888zm5.419,0.6981l10.838,1.3962l-0.698,5.419l5.419,0.6981l-0.698,5.419l5.419,0.6981l0.698,-5.4189l5.419,0.6981l0.698,-5.419l10.838,1.3962l-4.887,37.933l-10.837,-1.3963l2.094,-16.257l-5.419,-0.6981l-0.698,5.419l-5.419,-0.6981l0.698,-5.419l-5.419,-0.6981l-2.094,16.2569l-10.838,-1.3962l4.886,-37.9329zm43.352,5.585l37.933,4.8868l-0.698,5.419l-27.095,-3.4906l-1.396,10.838l21.676,2.7925l-0.698,5.419l-21.676,-2.7925l-1.396,10.8379l27.095,3.4907l-0.699,5.4189l-37.933,-4.8868l4.887,-37.9329z"
        />
    </g>
</svg>
