<svg xmlns="http://www.w3.org/2000/svg" width="240" height="35" viewBox="0 0 240 35" fill="none">
    <g clip-path="url(#clip0_10870_56488)">
        <path
            d="M46.73 17.3286H43V14.8945L46.9165 14.7606L47.2771 11H50.0124V14.7728H56.4405V17.3286H50.0497V23.0122C49.9448 23.9346 50.2026 24.8615 50.7709 25.6045C51.1092 25.8946 51.5037 26.1152 51.9309 26.2532C52.3581 26.3912 52.8092 26.4437 53.2576 26.4077C53.8252 26.4099 54.3916 26.3569 54.9485 26.2495C55.4391 26.147 55.9212 26.0087 56.3908 25.8357L57 28.2089C56.3144 28.4284 55.6171 28.6112 54.9112 28.7566C54.0923 28.9164 53.2595 28.9979 52.4245 29C51.5147 28.9979 50.6129 28.8329 49.7638 28.5132C49.0774 28.2577 48.4665 27.8395 47.9858 27.2961C47.525 26.7493 47.1937 26.1091 47.016 25.4219C46.8072 24.6268 46.7027 23.8088 46.7052 22.9878L46.73 17.3286Z"
            fill="#B2B2B2"
        />
        <path
            d="M60.0007 22.5135C59.9881 21.4326 60.202 20.3611 60.6288 19.3683C61.0205 18.4814 61.5791 17.6783 62.2742 17.0031C62.9399 16.349 63.736 15.8431 64.6105 15.5186C66.3967 14.8271 68.3761 14.8271 70.1623 15.5186C70.9504 15.8135 71.664 16.2786 72.2523 16.8809C72.8406 17.4832 73.2892 18.2079 73.5663 19.0035C73.9457 20.1754 74.0783 21.4134 73.9557 22.6393C73.9728 22.8663 73.9385 23.0942 73.8552 23.306H63.4675C63.5038 23.8954 63.6608 24.4709 63.9287 24.9969C64.1967 25.5228 64.5699 25.9879 65.025 26.3631C65.9544 27.0811 67.1053 27.4505 68.2782 27.4073C68.9809 27.421 69.6811 27.319 70.3508 27.1054C71.0283 26.8906 71.681 26.6038 72.2977 26.2499L73.4281 28.3383C72.6183 28.8424 71.7492 29.2439 70.8406 29.5335C69.8762 29.8511 68.8663 30.0084 67.8512 29.999C66.8119 30.0151 65.7782 29.8446 64.7989 29.4957C63.8858 29.1892 63.0467 28.6952 62.3351 28.0453C61.6235 27.3954 61.0552 26.604 60.6664 25.7215C60.2127 24.7139 59.9854 23.6187 60.0007 22.5135ZM70.8783 21.2554C70.942 20.2819 70.6269 19.3216 69.9991 18.5757C69.6646 18.2347 69.2596 17.9712 68.8126 17.8039C68.3655 17.6365 67.8873 17.5693 67.4115 17.607C66.9364 17.6046 66.4646 17.6855 66.0173 17.846C65.5583 17.9941 65.1319 18.229 64.7612 18.538C63.9669 19.2336 63.4644 20.2043 63.3544 21.2554H70.8783Z"
            fill="#B2B2B2"
        />
        <path
            d="M77.002 22.5444C76.9901 21.4446 77.2226 20.3554 77.6833 19.3527C78.1078 18.4512 78.721 17.6474 79.4828 16.9937C80.2568 16.3339 81.1569 15.8321 82.1308 15.5177C83.1533 15.1767 84.2257 15.002 85.3057 15.0005C86.3854 14.9884 87.4564 15.1901 88.4549 15.5934C89.2928 15.9336 90.063 16.4162 90.7301 17.0189L89.0848 19.1131C88.5546 18.6991 87.9711 18.3556 87.3495 18.0912C86.4419 17.7443 85.4546 17.649 84.4956 17.8159C83.5366 17.9827 82.6429 18.4053 81.9122 19.0374C81.4531 19.497 81.0952 20.0444 80.8608 20.6455C80.6264 21.2467 80.5205 21.8887 80.5497 22.5318C80.5407 23.2043 80.6629 23.8723 80.9096 24.4997C81.1391 25.0604 81.4799 25.5708 81.9122 26.0009C82.3518 26.4175 82.8719 26.7435 83.4419 26.9597C84.0719 27.1858 84.7377 27.3011 85.4085 27.3003C86.1886 27.3114 86.9614 27.1519 87.6708 26.8335C88.3376 26.5351 88.9672 26.1626 89.5475 25.7234L91 27.8427C90.1794 28.5514 89.2282 29.0995 88.1978 29.4575C87.1947 29.8077 86.139 29.991 85.0743 29.9999C83.9866 30.0039 82.9054 29.8335 81.8737 29.4953C80.9251 29.1885 80.0503 28.6948 79.3029 28.0446C78.5675 27.3853 77.9883 26.5757 77.6062 25.6729C77.1828 24.6657 76.9771 23.5832 77.002 22.4939V22.5444Z"
            fill="#B2B2B2"
        />
        <path
            d="M93 9H96.3151V14.153L96.1032 17.1273C96.7666 16.4775 97.5121 15.9139 98.3216 15.4504C99.1928 14.9605 100.184 14.715 101.188 14.7405C101.869 14.6787 102.555 14.7788 103.189 15.0323C103.822 15.2858 104.384 15.6853 104.827 16.1971C105.675 17.4278 106.083 18.9002 105.986 20.3831V28.951H102.634V20.8115C102.695 19.9546 102.486 19.0999 102.035 18.3635C101.782 18.0797 101.463 17.8602 101.105 17.7238C100.747 17.5874 100.361 17.5381 99.9791 17.5802C99.3315 17.5711 98.6936 17.7362 98.1346 18.0575C97.4715 18.4658 96.8607 18.9507 96.3151 19.5018V29H93V9Z"
            fill="#B2B2B2"
        />
        <path
            d="M112.013 15.3493H114.78L115.069 18.4402H115.157C115.815 17.3919 116.731 16.5127 117.824 15.8785C118.858 15.2899 120.042 14.986 121.245 15.0005C121.747 14.9982 122.248 15.0385 122.742 15.1208C123.178 15.2162 123.6 15.3616 124 15.5537L123.296 18.2598C122.883 18.1277 122.463 18.0193 122.038 17.9351C121.593 17.8608 121.143 17.8285 120.692 17.8389C119.681 17.8506 118.692 18.1295 117.836 18.6447C116.756 19.3577 115.889 20.3277 115.321 21.459V29H112L112.013 15.3493Z"
            fill="#B2B2B2"
        />
        <path
            d="M126.002 22.5388C125.989 21.4543 126.204 20.3792 126.632 19.383C127.024 18.4931 127.584 17.6873 128.281 17.0099C128.949 16.3535 129.747 15.8459 130.624 15.5204C132.415 14.8265 134.399 14.8265 136.19 15.5204C136.973 15.8208 137.681 16.2896 138.264 16.8937C138.847 17.4977 139.291 18.2225 139.565 19.0169C139.946 20.1928 140.079 21.435 139.956 22.665C139.973 22.8928 139.938 23.1215 139.855 23.334H129.44C129.483 23.9153 129.642 24.4821 129.908 25.0004C130.174 25.5187 130.542 25.978 130.989 26.3509C131.921 27.0713 133.075 27.442 134.251 27.3986C134.955 27.4123 135.657 27.31 136.329 27.0957C137.008 26.8802 137.662 26.5924 138.281 26.2373L139.414 28.3327C138.602 28.8385 137.731 29.2413 136.82 29.5319C135.853 29.8506 134.84 30.0084 133.822 29.999C132.78 30.0151 131.744 29.8441 130.762 29.494C129.847 29.1865 129.005 28.6908 128.292 28.0387C127.579 27.3867 127.009 26.5925 126.619 25.7071C126.188 24.7077 125.978 23.6271 126.002 22.5388ZM136.908 21.2765C136.972 20.2997 136.656 19.3361 136.026 18.5878C135.691 18.2456 135.285 17.9812 134.837 17.8133C134.389 17.6454 133.909 17.578 133.432 17.6158C132.956 17.6133 132.483 17.6945 132.034 17.8556C131.574 18.0041 131.146 18.2398 130.775 18.5499C130.408 18.8751 130.097 19.259 129.855 19.686C129.592 20.1755 129.426 20.7112 129.364 21.2638L136.908 21.2765Z"
            fill="#B2B2B2"
        />
        <path d="M142 15H145.363L148.112 22.2647C148.387 22.9543 148.625 23.6561 148.85 24.358L149.525 26.4758H149.638L150.325 24.358C150.55 23.6561 150.8 22.9666 151.062 22.2647L153.813 15H157L151.475 29H147.725L142 15Z" fill="#B2B2B2" />
        <path
            d="M160.025 14.9287H169.533V29H166.176V17.5299H160L160.025 14.9287ZM167.629 12.4514C167.005 12.4662 166.397 12.2497 165.925 11.8445C165.702 11.6404 165.525 11.3908 165.408 11.1128C165.292 10.8348 165.237 10.535 165.249 10.2342C165.238 9.93164 165.293 9.63025 165.409 9.35034C165.526 9.07042 165.702 8.8185 165.925 8.61155C166.403 8.21646 167.006 8 167.629 8C168.252 8 168.855 8.21646 169.333 8.61155C169.554 8.81961 169.728 9.07203 169.842 9.35189C169.957 9.63174 170.01 9.93257 169.997 10.2342C170.014 10.5345 169.963 10.8347 169.848 11.1131C169.733 11.3916 169.557 11.6414 169.333 11.8445C168.858 12.2527 168.246 12.4693 167.617 12.4514H167.629Z"
            fill="#B2B2B2"
        />
        <path
            d="M176.002 22.5192C175.989 21.4391 176.204 20.3683 176.633 19.3761C177.021 18.4835 177.583 17.676 178.285 16.9999C178.955 16.3488 179.754 15.8436 180.63 15.5163C181.498 15.1764 182.422 15.0016 183.354 15.0008C184.333 14.9864 185.305 15.1615 186.217 15.5163C186.999 15.8332 187.708 16.3084 188.297 16.9119C188.864 17.5278 189.294 18.2562 189.558 19.0492C189.856 19.9323 190.005 20.8584 190 21.79V22.6953C189.979 22.9191 189.945 23.1415 189.899 23.3616H179.47C179.513 23.9413 179.676 24.506 179.947 25.0207C180.218 25.5354 180.592 25.9891 181.046 26.3539C181.983 27.0666 183.135 27.4392 184.312 27.41C185.013 27.4111 185.71 27.3095 186.381 27.1082C187.062 26.8818 187.721 26.5913 188.348 26.2407L189.483 28.3404C188.67 28.8442 187.797 29.2454 186.885 29.5348C185.915 29.846 184.902 30.003 183.884 29.9999C182.841 30.0037 181.806 29.8337 180.819 29.497C179.887 29.1821 179.029 28.6816 178.297 28.026C177.579 27.3713 177.011 26.5692 176.633 25.675C176.192 24.6821 175.977 23.6046 176.002 22.5192ZM186.91 21.262C186.978 20.2908 186.666 19.3313 186.04 18.584C185.704 18.2432 185.298 17.9799 184.849 17.8126C184.4 17.6454 183.92 17.5782 183.442 17.6159C182.965 17.6135 182.492 17.6943 182.042 17.8548C181.582 18.0027 181.154 18.2375 180.781 18.5463C180.414 18.8702 180.103 19.2525 179.861 19.6778C179.597 20.1655 179.431 20.699 179.369 21.2494L186.91 21.262Z"
            fill="#B2B2B2"
        />
        <path
            d="M191 15H194.33L195.577 22.2711C195.694 22.9366 195.794 23.6021 195.877 24.2676C195.964 24.9331 196.051 25.5986 196.151 26.2887H196.263C196.363 25.6109 196.475 24.9331 196.588 24.2676C196.7 23.6021 196.837 22.9366 196.987 22.2711L198.346 16.3556H200.841L202.213 22.2711C202.362 22.9366 202.5 23.6021 202.612 24.2676C202.724 24.9331 202.849 25.5986 202.961 26.2887H203.086C203.198 25.6109 203.298 24.9331 203.385 24.2676C203.472 23.6021 203.56 22.9366 203.66 22.2711L204.907 15H208L205.368 29H201.439L200.192 23.1585C200.08 22.493 199.968 21.8275 199.868 21.1743C199.768 20.5211 199.643 19.8187 199.519 19.0792H199.394C199.294 19.6338 199.207 20.2254 199.12 20.8539C199.032 21.4824 198.92 22.2711 198.77 23.1831L197.523 29H193.682L191 15Z"
            fill="#B2B2B2"
        />
        <path
            d="M210.003 22.5188C209.99 21.4385 210.205 20.3677 210.633 19.3754C211.022 18.4827 211.583 17.6752 212.285 16.999C212.959 16.3518 213.756 15.8471 214.63 15.5154C216.429 14.8282 218.418 14.8282 220.217 15.5154C220.999 15.8323 221.708 16.3075 222.297 16.911C222.864 17.527 223.293 18.2554 223.558 19.0485C223.862 19.9302 224.011 20.8574 223.999 21.7895V22.6948C223.988 22.9206 223.949 23.1442 223.886 23.3612H213.458C213.497 23.9394 213.654 24.5034 213.921 25.0182C214.188 25.533 214.558 25.9876 215.009 26.3537C215.945 27.0664 217.097 27.439 218.275 27.4098C218.976 27.4129 219.674 27.3069 220.343 27.0955C221.026 26.8785 221.685 26.592 222.31 26.2405L223.445 28.3403C222.625 28.8318 221.754 29.2323 220.847 29.5347C219.876 29.84 218.864 29.9968 217.846 30C216.8 30.0027 215.76 29.8328 214.769 29.497C213.84 29.1771 212.983 28.6772 212.247 28.0259C211.529 27.3711 210.961 26.569 210.583 25.6747C210.171 24.6744 209.974 23.5995 210.003 22.5188ZM220.923 21.2614C220.987 20.2885 220.67 19.3287 220.04 18.5833C219.704 18.2424 219.298 17.9791 218.849 17.8119C218.4 17.6446 217.92 17.5774 217.442 17.6151C216.965 17.6127 216.492 17.6935 216.043 17.854C215.582 18.0019 215.154 18.2367 214.782 18.5456C214.414 18.8695 214.103 19.2518 213.861 19.6772C213.598 20.1648 213.431 20.6984 213.37 21.2488L220.923 21.2614Z"
            fill="#B2B2B2"
        />
        <path
            d="M228.063 15.3489H230.815L231.103 18.4399H231.191C231.849 17.3942 232.759 16.5157 233.844 15.8781C234.878 15.3017 236.052 14.9988 237.247 15.0001C237.75 14.9983 238.253 15.0385 238.749 15.1203C239.182 15.2158 239.603 15.3611 240 15.5533L239.312 18.2595C238.902 18.1274 238.484 18.019 238.06 17.9348C237.614 17.8609 237.162 17.8286 236.709 17.8385C235.703 17.8503 234.72 18.1292 233.869 18.6444C232.78 19.3427 231.914 20.3168 231.366 21.4588V29H228L228.063 15.3489Z"
            fill="#B2B2B2"
        />
        <path d="M18.5 0L24.2182 11.5221L37 13.3681L27.7438 22.3009L29.899 35L18.4626 29.0159L7.06364 34.9876L9.24377 22.3009L0 13.3681L12.7818 11.5221L18.5 0Z" fill="#B2B2B2" />
    </g>
    <defs>
        <clipPath id="clip0_10870_56488">
            <rect width="240" height="35" fill="white" />
        </clipPath>
    </defs>
</svg>
