<svg width="241" height="197" viewBox="0 0 241 197" fill="none" xmlns="http://www.w3.org/2000/svg">
<path d="M240.664 14.0909C235.862 14.6177 230.949 15.3054 226.077 16.0744L225.825 16.7197C230.697 15.9507 235.568 15.1817 240.37 14.6549L240.664 14.0909Z" fill="black"/>
<path d="M211.014 19.0249C205.961 20.1969 200.796 21.5299 195.714 23.0254L195.589 23.9145C200.67 22.419 205.793 21.0047 210.847 19.8327L211.014 19.0249Z" fill="black"/>
<path d="M180.176 28.0772C175.067 29.8961 169.888 31.9573 164.794 34.181L165.06 35.0733C170.155 32.8496 175.138 30.7869 180.247 28.9679L180.176 28.0772Z" fill="black"/>
<path d="M149.608 41.4193C144.681 43.968 139.684 46.7589 134.926 49.6327L135.542 50.447C140.301 47.5732 145.143 44.8619 150.07 42.3132L149.608 41.4193Z" fill="black"/>
<path d="M120.818 58.5793C116.186 61.6969 111.792 64.8974 107.635 68.1808L108.756 68.8374C112.954 65.6353 117.348 62.4348 121.785 59.3156L120.818 58.5793Z" fill="black"/>
<path d="M95.2928 78.2739L89.4436 83.5662C88.5341 84.4488 87.4285 85.3298 86.519 86.2124L83.7904 88.8602L85.3726 89.2779L88.1012 86.6301C89.0107 85.7475 89.9623 84.9461 90.8719 84.0635L96.5671 78.8508L95.2928 78.2739Z" fill="black"/>
<path d="M73.5064 99.5387C70.3023 103.154 67.1402 106.85 64.3281 110.468L66.3301 110.565C69.1422 106.947 72.1503 103.331 75.3544 99.7158L73.5064 99.5387Z" fill="black"/>
<path d="M56.2564 121.648C53.8363 125.269 51.5003 129.053 49.4722 132.678L51.7401 132.534C53.7682 128.91 55.9923 125.287 58.4124 121.665L56.2564 121.648Z" fill="black"/>
<path d="M43.7802 143.554L39.0678 154.439L41.7556 153.976L46.202 143.331L43.7802 143.554Z" fill="black"/>
<path d="M35.4047 165.091L32.4422 175.586L35.1998 174.88L38.0504 164.546L35.4047 165.091Z" fill="black"/>
<path d="M29.9844 185.924L27.4838 196.18L30.2834 195.556L32.896 185.139L29.9844 185.924Z" fill="black"/>
<path d="M88.1927 140.023L83.4685 103.112L66.3078 95.9313L66.3091 95.9303L66.3035 95.928L68.6659 114.384L34.3364 100.019L34.334 100.001L31.974 81.5631L14.8096 74.3812L19.534 111.293L88.1927 140.023Z" fill="black"/>
<path d="M98.2715 91.8424L83.4726 103.114L83.4685 103.112L88.1927 140.023L102.995 128.749L98.2715 91.8424Z" fill="#F1EFED"/>
<path d="M98.2694 91.8374L81.1102 84.6574L66.3091 95.9303L83.4683 103.11L98.2694 91.8374Z" fill="#F1EFED"/>
<path d="M31.9672 81.5543L46.7673 70.2822L46.7669 70.2793L29.6052 63.0985L14.8028 74.3724L31.9672 81.5543Z" fill="#F1EFED"/>
<path d="M34.3364 100.019L68.6659 114.384L66.2937 95.9151L49.1289 88.7326L34.334 100.001L34.3364 100.019Z" fill="#F1EFED"/>
<path d="M88.1927 140.023L87.8067 140.945C88.1363 141.083 88.5144 141.035 88.7986 140.818L88.1927 140.023ZM66.3035 95.928L66.6895 95.0055C66.36 94.8676 65.9818 94.916 65.6976 95.1324C65.4134 95.3489 65.2663 95.7005 65.3116 96.0549L66.3035 95.928ZM68.6659 114.384L68.2799 115.307C68.6095 115.445 68.9876 115.396 69.2718 115.18C69.556 114.963 69.7032 114.612 69.6578 114.257L68.6659 114.384ZM34.3364 100.019L33.3445 100.146C33.3898 100.501 33.6208 100.804 33.9504 100.942L34.3364 100.019ZM31.974 81.5631L32.9659 81.4361C32.9205 81.0818 32.6896 80.7785 32.36 80.6406L31.974 81.5631ZM14.8096 74.3812L15.1956 73.4587C14.866 73.3208 14.4879 73.3692 14.2037 73.5856C13.9195 73.8021 13.7723 74.1538 13.8177 74.5081L14.8096 74.3812ZM19.534 111.293L18.5421 111.42C18.5874 111.775 18.8184 112.078 19.148 112.216L19.534 111.293ZM31.9672 81.5543L31.5812 82.4768C31.9108 82.6147 32.2889 82.5663 32.5731 82.3498L31.9672 81.5543ZM46.7696 70.2804L47.3755 71.0759C47.6597 70.8595 47.8069 70.5079 47.7615 70.1535C47.7162 69.7992 47.4853 69.4959 47.1558 69.358L46.7696 70.2804ZM29.6052 63.0985L29.9912 62.176C29.6616 62.0381 29.2835 62.0865 28.9993 62.3029L29.6052 63.0985ZM14.8028 74.3724L14.1969 73.5768C13.9127 73.7933 13.7656 74.145 13.8109 74.4993C13.8563 74.8537 14.0873 75.157 14.4168 75.2949L14.8028 74.3724ZM47.7584 70.1492C47.6882 69.6014 47.1872 69.2142 46.6394 69.2844C46.0916 69.3546 45.7044 69.8556 45.7746 70.4034L47.7584 70.1492ZM33.7206 99.211C33.2812 99.5456 33.1963 100.173 33.5309 100.612C33.8656 101.052 34.493 101.137 34.9324 100.802L33.7206 99.211ZM66.2937 95.9151L67.2855 95.7877C67.24 95.4335 67.0091 95.1304 66.6797 94.9926L66.2937 95.9151ZM83.4726 103.114L83.0866 104.036C83.4162 104.174 83.7943 104.126 84.0785 103.909L83.4726 103.114ZM98.275 91.8398L98.8809 92.6353C99.1651 92.4188 99.3123 92.0672 99.2669 91.7128C99.2215 91.3584 98.9905 91.0551 98.6609 90.9172L98.275 91.8398ZM81.1102 84.6574L81.4962 83.7349C81.1666 83.597 80.7885 83.6454 80.5043 83.8618L81.1102 84.6574ZM66.3078 95.9313L65.7019 95.1357C65.4177 95.3522 65.2705 95.7038 65.3159 96.0582C65.3613 96.4126 65.5922 96.7159 65.9218 96.8538L66.3078 95.9313ZM98.2707 91.8365L99.2626 91.7096C99.2173 91.3552 98.9864 91.0519 98.6568 90.914C98.3272 90.7761 97.949 90.8244 97.6648 91.0409L98.2707 91.8365ZM102.995 128.749L103.601 129.544C103.885 129.328 104.032 128.976 103.987 128.622L102.995 128.749ZM65.3116 96.0549L67.674 114.511L69.6578 114.257L67.2954 95.801L65.3116 96.0549ZM69.0519 113.462L34.7224 99.0969L33.9504 100.942L68.2799 115.307L69.0519 113.462ZM32.36 80.6406L15.1956 73.4587L14.4236 75.3037L31.588 82.4856L32.36 80.6406ZM13.8177 74.5081L18.5421 111.42L20.5259 111.166L15.8015 74.2542L13.8177 74.5081ZM19.148 112.216L87.8067 140.945L88.5787 139.1L19.92 110.371L19.148 112.216ZM28.9993 62.3029L14.1969 73.5768L15.4087 75.1679L30.2111 63.894L28.9993 62.3029ZM14.4168 75.2949L31.5812 82.4768L32.3532 80.6318L15.1888 73.4499L14.4168 75.2949ZM48.7429 89.6551L65.9076 96.8376L66.6797 94.9926L49.5149 87.8101L48.7429 89.6551ZM102.389 127.953L87.5868 139.227L88.7986 140.818L103.601 129.544L102.389 127.953ZM89.1846 139.896L84.4604 102.985L82.4766 103.239L87.2008 140.149L89.1846 139.896ZM83.8545 102.189L66.6938 95.0088L65.9218 96.8538L83.0825 104.034L83.8545 102.189ZM66.9137 96.7268L66.915 96.7258L65.7032 95.1347L65.7019 95.1357L66.9137 96.7268ZM66.6951 95.0078L66.6895 95.0055L65.9176 96.8505L65.9231 96.8528L66.6951 95.0078ZM35.3283 99.8925L35.3259 99.8739L33.3421 100.128L33.3445 100.146L35.3283 99.8925ZM35.3259 99.8738L32.9659 81.4361L30.9821 81.6901L33.3421 100.128L35.3259 99.8738ZM48.523 87.9371L33.7281 99.2053L34.9399 100.796L49.7348 89.5282L48.523 87.9371ZM33.7281 99.2053L33.7206 99.211L34.9324 100.802L34.9399 100.796L33.7281 99.2053ZM80.5043 83.8618L65.7032 95.1347L66.915 96.7258L81.7161 85.4529L80.5043 83.8618ZM83.8543 102.188L66.6951 95.0078L65.9231 96.8528L83.0823 104.033L83.8543 102.188ZM83.0826 104.034L83.0866 104.036L83.8585 102.191L83.8545 102.189L83.0826 104.034ZM84.4604 102.985L84.4602 102.983L82.4764 103.237L82.4766 103.239L84.4604 102.985ZM97.6656 91.0469L82.8667 102.318L84.0785 103.909L98.8774 92.638L97.6656 91.0469ZM103.987 128.622L99.2634 91.7155L97.2796 91.9694L102.003 128.876L103.987 128.622ZM97.2788 91.9633L97.2796 91.9693L99.2634 91.7156L99.2626 91.7096L97.2788 91.9633ZM98.8774 92.638L98.8809 92.6353L97.6691 91.0442L97.6656 91.0469L98.8774 92.638ZM98.6554 90.915L81.4962 83.7349L80.7242 85.5799L97.8834 92.7599L98.6554 90.915ZM84.0742 103.906L98.8753 92.633L97.6635 91.0419L82.8624 102.315L84.0742 103.906ZM98.8753 92.633L98.8766 92.632L97.6648 91.0409L97.6635 91.0419L98.8753 92.633ZM98.6609 90.9172L98.6553 90.9149L97.8835 92.76L97.8891 92.7623L98.6609 90.9172ZM32.5731 82.3498L47.3732 71.0777L46.1614 69.4867L31.3613 80.7588L32.5731 82.3498ZM47.7591 70.1551L47.7588 70.1522L45.775 70.4064L45.7754 70.4093L47.7591 70.1551ZM47.1529 69.3568L29.9912 62.176L29.2192 64.021L46.3809 71.2018L47.1529 69.3568ZM47.1558 69.358L47.153 69.3568L46.3807 71.2017L46.3835 71.2028L47.1558 69.358ZM45.7746 70.4034L45.775 70.4064L47.7588 70.1522L47.7584 70.1492L45.7746 70.4034ZM45.7753 70.4092L48.137 88.8596L50.1208 88.6057L47.7592 70.1552L45.7753 70.4092ZM47.3732 71.0777L47.3755 71.0759L46.1637 69.4849L46.1614 69.4867L47.3732 71.0777ZM69.6578 114.257L67.2855 95.7877L65.3018 96.0425L67.6741 114.512L69.6578 114.257ZM48.523 87.9371L33.7206 99.211L34.9324 100.802L49.7348 89.5282L48.523 87.9371Z" fill="black"/>
<path d="M148.123 71.0507L175.636 42.8028L153.725 48.9843L153.699 48.9584L153.694 48.9764L148.105 70.9887L148.123 71.0507Z" fill="black"/>
<path d="M175.636 42.8028L164.93 4.85159L153.699 48.9584L153.725 48.9843L175.636 42.8028Z" fill="#F1EFED"/>
<path d="M164.93 4.85159L137.417 33.0996L153.699 48.9584L164.93 4.85159Z" fill="#F1EFED"/>
<path d="M153.694 48.9764L153.699 48.9584L137.417 33.0996L148.105 70.9887L153.694 48.9764Z" fill="#F1EFED"/>
<path d="M137.417 33.0996L136.7 32.4018C136.451 32.6578 136.357 33.0272 136.454 33.3711L137.417 33.0996ZM164.93 4.85159L165.892 4.58008C165.795 4.23623 165.522 3.97025 165.176 3.88234C164.83 3.79442 164.463 3.89793 164.213 4.15386L164.93 4.85159ZM175.636 42.8028L176.352 43.5005C176.602 43.2446 176.695 42.8751 176.598 42.5313L175.636 42.8028ZM148.123 71.0507L147.16 71.3222C147.257 71.6661 147.531 71.9321 147.877 72.02C148.223 72.1079 148.59 72.0044 148.839 71.7484L148.123 71.0507ZM153.725 48.9843L153.027 49.7007C153.283 49.95 153.653 50.0438 153.997 49.9468L153.725 48.9843ZM153.694 48.9764L152.725 48.7296L152.725 48.7303L153.694 48.9764ZM147.122 70.7967C146.986 71.332 147.31 71.8761 147.846 72.012C148.381 72.1479 148.925 71.8242 149.061 71.2889L147.122 70.7967ZM138.133 33.7973L165.646 5.54931L164.213 4.15386L136.7 32.4018L138.133 33.7973ZM163.967 5.12309L174.673 43.0743L176.598 42.5313L165.892 4.58008L163.967 5.12309ZM174.92 42.105L147.407 70.353L148.839 71.7484L176.352 43.5005L174.92 42.105ZM175.364 41.8403L153.454 48.0219L153.997 49.9468L175.907 43.7652L175.364 41.8403ZM154.423 48.268L154.396 48.242L153.001 49.6747L153.027 49.7007L154.423 48.268ZM152.729 48.7116L152.725 48.7296L154.663 49.2232L154.668 49.2052L152.729 48.7116ZM152.725 48.7303L147.136 70.7426L149.075 71.2347L154.663 49.2225L152.725 48.7303ZM147.143 71.2602L147.16 71.3222L149.085 70.7792L149.068 70.7172L147.143 71.2602ZM147.136 70.7426L147.122 70.7967L149.061 71.2889L149.075 71.2347L147.136 70.7426ZM149.068 70.7172L138.379 32.8281L136.454 33.3711L147.143 71.2602L149.068 70.7172ZM154.668 49.2051L165.899 5.09835L163.961 4.60483L152.729 48.7116L154.668 49.2051ZM154.396 48.242L138.115 32.3832L136.719 33.8159L153.001 49.6747L154.396 48.242Z" fill="black"/>
</svg>
