<svg xmlns="http://www.w3.org/2000/svg" width="338" height="47" fill="none" viewBox="0 0 338 47">
  <path stroke="#8F8E93" stroke-width="2" d="M35 1H1.5v15H35m0-15v15m0-15h33.5M35 16h33.5m0 0V1m0 15H102M68.5 1H102m0 0v15m0-15h33.5M102 16h33.5m0 0V1m0 15H169M135.5 1H169m0 0h33.5M169 1v15m33.5-15H236m-33.5 0v15M236 1h33.5M236 1v15m33.5-15H303m-33.5 0v15M303 1h33.5v15H303m0-15v15m0 0h-33.5m0 0H236m0 0h-33.5m0 0H169M51 31H17.5V16H51m0 15V16m0 15h33.5M51 16h33.5m0 0v15m0-15H118M84.5 31H118m0 0V16m0 15h33.5M118 16h33.5m0 0H185m-33.5 0v15M185 16h33.5M185 16v15m33.5-15H252m-33.5 0v15M252 16h33.5M252 16v15m33.5-15H319v15h-33.5m0-15v15m0 0H252m0 0h-33.5m0 0H185m0 0h-33.5m-83 15H35V31h33.5m0 15V31m0 15H102M68.5 31H102m0 0v15m0-15h33.5M102 46h33.5m0 0V31m0 15H169m-33.5-15H169m0 0h33.5M169 31v15m33.5-15H236m-33.5 0v15M236 31h33.5M236 31v15m33.5-15H303v15h-33.5m0-15v15m0 0H236m0 0h-33.5m0 0H169"/>
  <path fill="url(#a)" stroke="#000" stroke-width="2" d="M95 1h45v45H95z"/>
  <path fill="#000" d="M99 5h4v4h-4zm0 33.375h4v4h-4zM132.125 5h4v4h-4zm0 33.375h4v4h-4z"/>
  <path fill="url(#b)" stroke="#000" stroke-width="2" d="M197 1h45v45h-45z"/>
  <path fill="#000" d="M201 5h4v4h-4zm0 33.375h4v4h-4zM234.125 5h4v4h-4zm0 33.375h4v4h-4z"/>
  <path stroke="#000" stroke-width="2" d="M103 19.938h2.25v3.25h2.25m0 0v1.75h2v-1.75m-2 0h1m1 0h2.5v-3.25h2.25m-4.75 3.25h-1m0 0v-6h1.438v-1.625H112v-1.626h2.938v-1.25h6.687v1.25h2.187v1.626h2.438v1.624m5.75 9.876h-2.25v-3.25h-2.25m0 0v-1.75h-2v1.75m2 0h-1m-1 0H123v3.25h-2.25m4.75-3.25h1m0 0v6h-1.438v1.625H123v1.625h-2.938v1.25h-6.687v-1.25h-2.187v-1.626h-2.438v-1.625"/>
  <path fill="#000" d="M221.75 24.75v12h-4.5v-12h-10v-3.5h4v-3h3.5v-4.5h2.5v-3.5h4.5v3.5h2.5v4.5h3.5v3h4v3.5h-10Z"/>
  <path stroke="#000" stroke-width="2" d="M219.25 10.25h2.5v3.5h2.5v4.5h3.5v3h4v3.5h-10v12h-2.5m.5-26.5h-2.5v3.5h-2.5v4.5h-3.5v3h-4v3.5h10v12h2.5"/>
  <defs>
    <linearGradient id="a" x1="147.705" x2="101.403" y1="37.176" y2="60.48" gradientUnits="userSpaceOnUse">
      <stop stop-color="#D6FFBB"/>
      <stop offset="1" stop-color="#5869DD"/>
    </linearGradient>
    <linearGradient id="b" x1="249.705" x2="203.403" y1="37.176" y2="60.48" gradientUnits="userSpaceOnUse">
      <stop stop-color="#D6FFBB"/>
      <stop offset="1" stop-color="#5869DD"/>
    </linearGradient>
  </defs>
</svg>
