<svg width="371" height="32" viewBox="0 0 371 32" fill="none" xmlns="http://www.w3.org/2000/svg">
<path d="M52.5 31V16M52.5 31H86M52.5 31H19V16M52.5 16H86M52.5 16H68.5M52.5 16H35M86 16V31M86 16H119.5M86 16H68.5M86 31H119.5M119.5 31V16M119.5 31H153M119.5 16H153M153 16V31M153 16H186.5M153 31H186.5M186.5 31H220M186.5 31V16M220 31H253.5M220 31V16M253.5 31H287M253.5 31V16M287 31H320.5M287 31V16M320.5 31V16M320.5 31H354V16M320.5 16H287M320.5 16H303M320.5 16H336.5M287 16H253.5M287 16H303M253.5 16H220M220 16H186.5M336.5 16V1M336.5 16H303M336.5 16H354M336.5 1H303M336.5 1H320.5M336.5 1H354H370V16H354M35 16V1M35 16H68.5M35 16H19M35 1H68.5M35 1H52.5M35 1H19H1.5V16H19M68.5 1V16M68.5 1H102M68.5 1H52.5M68.5 16H102M102 16V1M102 16H135.5M102 1H135.5M135.5 1V16M135.5 1H169M135.5 16H169M169 16H202.5M169 16V1M202.5 16H236M202.5 16V1M236 16H269.5M236 16V1M269.5 16H303M269.5 16V1M303 16V1M303 1H269.5M303 1H320.5M269.5 1H236M236 1H202.5M202.5 1H169M52.5 1H86H119.5H153H186.5H220H253.5H287H320.5" stroke="#8F8E93" stroke-width="2"/>
</svg>
