<svg xmlns="http://www.w3.org/2000/svg" width="511" height="315" viewBox="0 0 511 315" fill="none">
    <path
        d="M67.9619 35.878L82.4619 31.9792C82.5454 31.9577 82.634 31.9697 82.7088 32.0127C82.7835 32.0556 82.8385 32.1262 82.8619 32.2091C82.8809 32.2925 82.8678 32.3799 82.8251 32.454C82.7825 32.5281 82.7135 32.5835 82.6319 32.609L68.0619 36.3779C67.9956 36.3963 67.9247 36.3877 67.8647 36.354C67.8047 36.3203 67.7605 36.2642 67.7419 36.1979C67.7331 36.1623 67.732 36.1253 67.7386 36.0892C67.7452 36.0531 67.7593 36.0189 67.7801 35.9886C67.8009 35.9584 67.8278 35.933 67.8592 35.9139C67.8905 35.8948 67.9255 35.8826 67.9619 35.878V35.878Z"
        fill="black"
    />
    <path
        d="M97.1542 28.8414C102.112 27.961 107.123 27.4164 112.154 27.2114C112.215 27.2087 112.275 27.2179 112.332 27.2386C112.389 27.2593 112.441 27.291 112.485 27.3318C112.53 27.3727 112.566 27.422 112.592 27.4768C112.617 27.5316 112.632 27.591 112.634 27.6514C112.637 27.7122 112.627 27.7728 112.606 27.8297C112.584 27.8867 112.552 27.9387 112.51 27.9826C112.468 28.0265 112.417 28.0615 112.361 28.0853C112.305 28.1092 112.245 28.1215 112.184 28.1214V28.1214C107.203 28.2883 102.239 28.7861 97.3243 29.6114C97.2737 29.62 97.2219 29.6185 97.1719 29.6071C97.1219 29.5956 97.0747 29.5745 97.0329 29.5447C96.9911 29.515 96.9555 29.4773 96.9283 29.4339C96.9011 29.3904 96.8827 29.342 96.8742 29.2914C96.8556 29.1949 96.8741 29.0949 96.9261 29.0115C96.978 28.9281 97.0595 28.8673 97.1542 28.8414V28.8414Z"
        fill="black"
    />
    <path
        d="M127.146 28.6206C128.356 29.0306 129.586 29.3305 130.766 29.8504C131.966 30.3471 133.095 30.9992 134.126 31.7901C135.174 32.5794 136.074 33.5475 136.786 34.6497C137.497 35.7545 138.018 36.9713 138.326 38.2491C138.352 38.3214 138.364 38.3986 138.359 38.4756C138.354 38.5525 138.333 38.6276 138.297 38.6959C138.261 38.7641 138.211 38.8241 138.151 38.8719C138.09 38.9197 138.02 38.9543 137.946 38.9733C137.871 38.9924 137.793 38.9955 137.717 38.9824C137.641 38.9694 137.569 38.9405 137.504 38.8977C137.44 38.8549 137.386 38.799 137.345 38.7338C137.304 38.6686 137.277 38.5954 137.266 38.5191C136.988 37.3611 136.521 36.2566 135.886 35.2496C135.239 34.2469 134.424 33.3639 133.476 32.64C132.517 31.9041 131.468 31.2926 130.356 30.8203C129.246 30.3203 128.036 30.0204 126.876 29.6304H126.816C126.688 29.5852 126.584 29.4914 126.526 29.3696C126.468 29.2477 126.461 29.1078 126.506 28.9805C126.543 28.8481 126.631 28.7358 126.751 28.6683C126.871 28.6009 127.013 28.5837 127.146 28.6206V28.6206Z"
        fill="black"
    />
    <path
        d="M136.068 53.1946C134.096 57.8352 131.7 62.2835 128.908 66.4826C128.874 66.5692 128.821 66.647 128.753 66.7103C128.685 66.7736 128.603 66.8208 128.514 66.8482C128.425 66.8757 128.331 66.8828 128.239 66.869C128.147 66.8553 128.059 66.8209 127.982 66.7686C127.905 66.7163 127.841 66.6473 127.794 66.5668C127.748 66.4863 127.72 66.3963 127.713 66.3035C127.706 66.2107 127.719 66.1175 127.753 66.0308C127.787 65.9441 127.84 65.8661 127.908 65.8027C130.692 61.6832 133.089 57.3153 135.068 52.7546C135.097 52.6835 135.139 52.6187 135.193 52.564C135.247 52.5093 135.311 52.4658 135.381 52.4361C135.452 52.4063 135.528 52.3909 135.605 52.3906C135.681 52.3904 135.757 52.4053 135.828 52.4347C135.954 52.51 136.048 52.629 136.092 52.769C136.137 52.9091 136.128 53.0605 136.068 53.1946Z"
        fill="black"
    />
    <path
        d="M120.069 78.6558L110.289 90.0741C110.229 90.1454 110.155 90.2039 110.071 90.2461C109.988 90.2883 109.897 90.3134 109.804 90.3199C109.711 90.3265 109.617 90.3143 109.529 90.2841C109.44 90.2539 109.359 90.2063 109.289 90.1441C109.216 90.0853 109.155 90.0121 109.111 89.9291C109.067 89.8461 109.041 89.7551 109.033 89.6615C109.026 89.5679 109.038 89.4737 109.068 89.3848C109.098 89.2958 109.146 89.214 109.209 89.1443V89.1443L119.009 77.836C119.064 77.7663 119.133 77.7085 119.211 77.6661C119.289 77.6236 119.375 77.5974 119.463 77.5889C119.552 77.5805 119.641 77.59 119.726 77.6169C119.811 77.6438 119.889 77.6876 119.957 77.7455C120.024 77.8035 120.079 77.8745 120.118 77.9542C120.158 78.0339 120.18 78.1208 120.185 78.2095C120.19 78.2983 120.177 78.3871 120.147 78.4707C120.116 78.5542 120.07 78.6308 120.009 78.6958L120.069 78.6558Z"
        fill="black"
    />
    <path
        d="M100.063 101.108L89.8128 112.056C89.6736 112.206 89.4805 112.295 89.2761 112.302C89.0717 112.31 88.8727 112.236 88.7228 112.096C88.573 111.957 88.4846 111.764 88.4771 111.56C88.4696 111.355 88.5436 111.156 88.6828 111.007L99.0628 100.108C99.1971 99.9786 99.3763 99.9062 99.5628 99.9063C99.7494 99.9062 99.9286 99.9786 100.063 100.108C100.19 100.244 100.261 100.422 100.261 100.608C100.261 100.794 100.19 100.973 100.063 101.108V101.108Z"
        fill="black"
    />
    <path
        d="M79.8656 123.188C78.2756 125.108 76.6056 126.968 75.0856 128.938L70.4956 134.807C70.4281 134.894 70.344 134.967 70.2481 135.022C70.1522 135.077 70.0464 135.113 69.9367 135.127C69.8271 135.14 69.7158 135.133 69.6093 135.104C69.5027 135.074 69.4029 135.024 69.3156 134.957C69.1406 134.817 69.027 134.614 68.9989 134.392C68.9709 134.17 69.0307 133.946 69.1656 133.767V133.767L73.8356 127.848C75.3856 125.848 77.0656 124.018 78.6756 122.089C78.8134 121.927 79.0089 121.827 79.2202 121.808C79.4315 121.789 79.6417 121.854 79.8056 121.989C79.9691 122.127 80.0721 122.323 80.0926 122.536C80.1132 122.749 80.0497 122.962 79.9156 123.129L79.8656 123.188Z"
        fill="black"
    />
    <path
        d="M62.7721 147.473C60.5809 151.841 59.4243 156.655 59.3921 161.541C59.4052 161.663 59.3926 161.786 59.3551 161.902C59.3175 162.018 59.256 162.125 59.1744 162.216C59.0928 162.307 58.993 162.379 58.8815 162.429C58.77 162.479 58.6492 162.504 58.5271 162.504C58.405 162.504 58.2843 162.479 58.1727 162.429C58.0612 162.379 57.9614 162.307 57.8798 162.216C57.7982 162.125 57.7367 162.018 57.6992 161.902C57.6617 161.786 57.649 161.663 57.6621 161.541C57.6086 158.957 57.9217 156.379 58.5921 153.883C59.2481 151.411 60.1284 149.005 61.2221 146.694C61.3196 146.489 61.4941 146.331 61.7077 146.254C61.9212 146.177 62.1564 146.188 62.3621 146.284C62.47 146.332 62.5669 146.401 62.6467 146.488C62.7265 146.575 62.7876 146.678 62.826 146.789C62.8645 146.901 62.8796 147.019 62.8703 147.137C62.861 147.255 62.8276 147.369 62.7721 147.473Z"
        fill="black"
    />
    <path
        d="M64.9147 174.45C65.7947 175.279 66.6247 176.149 67.5847 176.919C68.5447 177.689 69.5047 178.429 70.5247 179.099C72.5572 180.451 74.7257 181.587 76.9947 182.488C77.2148 182.576 77.3912 182.747 77.4849 182.965C77.5787 183.182 77.5822 183.428 77.4947 183.648C77.4071 183.868 77.2358 184.045 77.0182 184.138C76.8007 184.232 76.5548 184.236 76.3347 184.148V184.148C72.7621 182.711 69.4329 180.732 66.4647 178.279C65.4647 177.479 64.5647 176.549 63.6347 175.659C63.5524 175.578 63.4871 175.482 63.4425 175.375C63.398 175.269 63.375 175.155 63.375 175.039C63.375 174.924 63.398 174.81 63.4425 174.703C63.4871 174.597 63.5524 174.5 63.6347 174.42C63.7995 174.256 64.0224 174.164 64.2547 174.164C64.487 174.164 64.7098 174.256 64.8747 174.42L64.9147 174.45Z"
        fill="black"
    />
    <path
        d="M91.3468 185.179C96.2932 185.233 101.23 184.737 106.067 183.7C106.304 183.649 106.552 183.695 106.755 183.827C106.959 183.96 107.101 184.167 107.152 184.404C107.202 184.642 107.156 184.889 107.024 185.093C106.892 185.296 106.684 185.439 106.447 185.489V185.489C101.489 186.559 96.4281 187.072 91.3568 187.019C91.23 187.032 91.1018 187.018 90.9805 186.979C90.8592 186.94 90.7475 186.875 90.6527 186.79C90.5579 186.705 90.4821 186.6 90.4303 186.484C90.3784 186.367 90.3516 186.241 90.3516 186.114C90.3516 185.986 90.3784 185.86 90.4303 185.744C90.4821 185.627 90.5579 185.523 90.6527 185.438C90.7475 185.352 90.8592 185.288 90.9805 185.249C91.1018 185.209 91.23 185.196 91.3568 185.209L91.3468 185.179Z"
        fill="black"
    />
    <path
        d="M120.344 179.666C125.044 178.046 129.674 176.207 134.264 174.247C134.492 174.15 134.75 174.147 134.98 174.239C135.21 174.33 135.395 174.509 135.494 174.737C135.579 174.969 135.574 175.224 135.482 175.453C135.39 175.681 135.216 175.868 134.994 175.977C130.384 177.976 125.704 179.786 120.994 181.426C120.761 181.507 120.505 181.492 120.283 181.384C120.06 181.276 119.89 181.084 119.809 180.851C119.728 180.618 119.743 180.362 119.851 180.139C119.959 179.917 120.151 179.747 120.384 179.666H120.344Z"
        fill="black"
    />
    <path
        d="M147.917 168.109L161.507 161.75C161.724 161.711 161.948 161.745 162.143 161.846C162.339 161.947 162.496 162.11 162.589 162.31C162.683 162.51 162.708 162.734 162.66 162.949C162.613 163.165 162.496 163.358 162.327 163.5L148.727 169.829C148.613 169.89 148.488 169.927 148.359 169.938C148.23 169.949 148.1 169.934 147.978 169.893C147.855 169.852 147.742 169.787 147.646 169.7C147.549 169.614 147.471 169.51 147.417 169.392C147.362 169.275 147.332 169.148 147.329 169.019C147.325 168.89 147.348 168.761 147.395 168.641C147.443 168.521 147.515 168.412 147.606 168.32C147.698 168.229 147.807 168.157 147.927 168.109H147.917Z"
        fill="black"
    />
    <path
        d="M175.327 155.758C177.667 154.838 180.037 153.978 182.457 153.218C183.667 152.838 184.877 152.489 186.117 152.219C187.357 151.949 188.637 151.699 189.897 151.439C190.136 151.426 190.373 151.5 190.562 151.647C190.752 151.794 190.882 152.005 190.93 152.24C190.977 152.475 190.938 152.72 190.82 152.929C190.702 153.138 190.513 153.297 190.287 153.378H190.167C188.977 153.628 187.797 153.798 186.597 154.108C185.397 154.418 184.217 154.748 183.047 155.108C180.687 155.838 178.347 156.687 176.047 157.587C175.922 157.67 175.781 157.724 175.633 157.745C175.485 157.766 175.334 157.754 175.191 157.709C175.049 157.664 174.918 157.587 174.809 157.485C174.7 157.383 174.615 157.258 174.561 157.118C174.506 156.979 174.484 156.83 174.495 156.68C174.506 156.531 174.551 156.387 174.625 156.257C174.7 156.128 174.802 156.016 174.925 155.932C175.048 155.847 175.189 155.791 175.337 155.768L175.327 155.758Z"
        fill="black"
    />
    <path
        d="M201.467 159.652C201.519 162.23 201.284 164.805 200.767 167.331C200.317 169.831 199.767 172.26 199.187 174.71C199.095 174.926 198.931 175.104 198.721 175.211C198.512 175.318 198.271 175.348 198.042 175.296C197.813 175.243 197.61 175.111 197.468 174.924C197.326 174.736 197.255 174.505 197.267 174.27C197.817 171.84 198.387 169.411 198.817 166.991C199.301 164.613 199.522 162.189 199.477 159.762V159.762C199.47 159.631 199.49 159.499 199.534 159.376C199.578 159.252 199.646 159.138 199.734 159.04C199.823 158.943 199.929 158.864 200.048 158.807C200.167 158.751 200.296 158.719 200.427 158.712C200.558 158.706 200.69 158.725 200.813 158.769C200.937 158.813 201.051 158.881 201.149 158.97C201.246 159.058 201.325 159.164 201.382 159.283C201.438 159.402 201.47 159.531 201.477 159.662L201.467 159.652Z"
        fill="black"
    />
    <path
        d="M195.646 189.284C194.506 194.133 193.466 199.002 192.736 203.912C192.646 204.108 192.494 204.271 192.304 204.374C192.114 204.477 191.895 204.516 191.681 204.485C191.467 204.453 191.268 204.353 191.116 204.199C190.964 204.045 190.865 203.846 190.836 203.632C191.566 198.632 192.616 193.723 193.756 188.834C193.755 188.682 193.789 188.533 193.854 188.396C193.919 188.259 194.015 188.139 194.134 188.045C194.252 187.951 194.391 187.885 194.539 187.852C194.687 187.819 194.84 187.82 194.988 187.855C195.135 187.89 195.272 187.959 195.39 188.055C195.507 188.151 195.601 188.272 195.664 188.41C195.728 188.547 195.759 188.697 195.756 188.849C195.753 189 195.715 189.149 195.646 189.284V189.284Z"
        fill="black"
    />
    <path
        d="M191.744 218.69L191.964 222.38C192.084 223.61 192.224 224.829 192.394 226.049C192.733 228.489 193.231 230.903 193.884 233.278C193.937 233.514 193.897 233.761 193.773 233.968C193.649 234.175 193.449 234.326 193.217 234.39C192.984 234.454 192.736 234.427 192.523 234.313C192.31 234.199 192.149 234.007 192.074 233.778C191.398 231.327 190.88 228.836 190.524 226.319C190.344 225.069 190.204 223.81 190.084 222.55L189.854 218.75C189.835 218.621 189.843 218.488 189.878 218.362C189.913 218.235 189.973 218.117 190.056 218.015C190.139 217.914 190.242 217.83 190.358 217.77C190.475 217.71 190.603 217.674 190.734 217.666C190.865 217.658 190.996 217.677 191.119 217.721C191.242 217.766 191.355 217.836 191.45 217.927C191.545 218.018 191.62 218.127 191.67 218.248C191.721 218.369 191.746 218.499 191.744 218.63V218.63V218.69Z"
        fill="black"
    />
    <path
        d="M200.394 246.219C201.954 248.064 203.773 249.674 205.794 250.998C207.825 252.315 210.025 253.351 212.334 254.078C212.564 254.152 212.756 254.315 212.867 254.531C212.977 254.746 212.998 254.997 212.924 255.228C212.849 255.458 212.686 255.65 212.471 255.761C212.255 255.872 212.004 255.892 211.774 255.818C209.304 255.039 206.95 253.932 204.774 252.528C202.602 251.116 200.649 249.395 198.974 247.419C198.813 247.232 198.734 246.989 198.753 246.743C198.771 246.498 198.887 246.27 199.074 246.109C199.166 246.031 199.273 245.971 199.389 245.934C199.504 245.897 199.626 245.884 199.746 245.894C199.867 245.904 199.985 245.938 200.093 245.994C200.2 246.05 200.296 246.126 200.374 246.219H200.394Z"
        fill="black"
    />
    <path
        d="M226.844 255.757C231.786 255.505 236.696 254.813 241.514 253.688C241.627 253.661 241.745 253.657 241.859 253.676C241.974 253.694 242.083 253.736 242.182 253.797C242.28 253.858 242.366 253.939 242.433 254.033C242.5 254.127 242.549 254.234 242.574 254.347C242.601 254.462 242.605 254.58 242.586 254.696C242.566 254.811 242.524 254.922 242.462 255.022C242.4 255.121 242.318 255.207 242.223 255.275C242.127 255.343 242.019 255.391 241.904 255.417C236.978 256.577 231.958 257.293 226.904 257.556C226.666 257.566 226.433 257.48 226.258 257.318C226.082 257.155 225.979 256.93 225.969 256.692C225.96 256.453 226.046 256.221 226.208 256.045C226.371 255.87 226.596 255.766 226.834 255.757H226.844Z"
        fill="black"
    />
    <path
        d="M255.915 249.569C260.625 247.979 265.275 246.209 269.915 244.309C270.122 244.248 270.344 244.266 270.538 244.358C270.732 244.451 270.885 244.613 270.967 244.812C271.049 245.011 271.055 245.233 270.982 245.436C270.91 245.638 270.765 245.807 270.575 245.909C265.945 247.819 261.265 249.619 256.505 251.228C256.394 251.278 256.272 251.305 256.15 251.305C256.027 251.306 255.906 251.281 255.793 251.232C255.681 251.182 255.58 251.11 255.497 251.02C255.414 250.93 255.351 250.823 255.312 250.707C255.273 250.59 255.258 250.467 255.269 250.345C255.28 250.223 255.317 250.104 255.377 249.997C255.436 249.89 255.518 249.797 255.616 249.723C255.714 249.649 255.826 249.596 255.945 249.569H255.915Z"
        fill="black"
    />
    <path
        d="M283.575 238.311L297.065 231.832C297.164 231.774 297.274 231.738 297.387 231.724C297.501 231.711 297.616 231.721 297.726 231.755C297.835 231.788 297.937 231.844 298.024 231.918C298.111 231.993 298.181 232.084 298.231 232.188C298.281 232.291 298.309 232.403 298.313 232.517C298.318 232.632 298.298 232.746 298.256 232.852C298.214 232.959 298.151 233.056 298.07 233.136C297.989 233.217 297.892 233.28 297.785 233.322L284.265 239.871C284.063 239.963 283.833 239.972 283.624 239.897C283.415 239.822 283.244 239.668 283.147 239.468C283.051 239.268 283.036 239.038 283.107 238.828C283.177 238.617 283.327 238.442 283.525 238.341V238.341L283.575 238.311Z"
        fill="black"
    />
    <path
        d="M310.429 225.042L323.699 218.043C323.873 217.954 324.075 217.937 324.262 217.995C324.449 218.052 324.606 218.181 324.699 218.353C324.788 218.527 324.805 218.729 324.747 218.916C324.689 219.103 324.561 219.259 324.389 219.353L311.139 226.352C311.047 226.411 310.944 226.45 310.836 226.467C310.728 226.484 310.618 226.479 310.512 226.451C310.407 226.424 310.308 226.375 310.222 226.307C310.137 226.239 310.066 226.155 310.015 226.058C309.963 225.962 309.932 225.856 309.924 225.747C309.916 225.638 309.93 225.529 309.966 225.426C310.003 225.323 310.06 225.228 310.134 225.149C310.208 225.069 310.299 225.005 310.399 224.962V224.962L310.429 225.042Z"
        fill="black"
    />
    <path
        d="M336.946 211.021L350.246 204.022C350.325 203.981 350.411 203.956 350.5 203.948C350.588 203.94 350.678 203.95 350.762 203.977C350.847 204.004 350.925 204.047 350.993 204.105C351.061 204.163 351.116 204.233 351.157 204.312C351.241 204.472 351.26 204.658 351.207 204.83C351.155 205.003 351.036 205.147 350.876 205.232L337.626 212.231C337.543 212.284 337.449 212.319 337.351 212.334C337.253 212.348 337.153 212.343 337.057 212.317C336.961 212.291 336.872 212.246 336.794 212.184C336.717 212.122 336.653 212.045 336.607 211.958C336.56 211.87 336.533 211.774 336.525 211.675C336.518 211.576 336.531 211.477 336.564 211.383C336.597 211.29 336.649 211.204 336.716 211.131C336.784 211.059 336.866 211.001 336.956 210.961L336.946 211.021Z"
        fill="black"
    />
    <path
        d="M363.728 197.435C368.265 195.273 372.915 193.357 377.658 191.695C377.811 191.645 377.977 191.656 378.122 191.727C378.266 191.798 378.376 191.923 378.428 192.075C378.477 192.228 378.464 192.393 378.393 192.537C378.323 192.68 378.199 192.791 378.048 192.845C373.357 194.517 368.757 196.436 364.268 198.594C364.115 198.667 363.938 198.676 363.778 198.619C363.617 198.562 363.486 198.443 363.413 198.289C363.34 198.136 363.332 197.959 363.389 197.799C363.446 197.639 363.565 197.508 363.718 197.435H363.728Z"
        fill="black"
    />
    <path
        d="M392.647 189.654C395.22 190.024 397.668 191.005 399.787 192.513C401.861 194.07 403.568 196.063 404.787 198.352C404.822 198.412 404.845 198.479 404.854 198.548C404.863 198.617 404.858 198.688 404.839 198.755C404.82 198.822 404.788 198.885 404.745 198.939C404.702 198.994 404.648 199.039 404.587 199.072C404.464 199.138 404.321 199.154 404.186 199.117C404.052 199.08 403.938 198.992 403.867 198.872C402.714 196.731 401.106 194.867 399.157 193.413C397.177 192.014 394.889 191.112 392.487 190.784C392.412 190.773 392.341 190.747 392.277 190.708C392.212 190.67 392.156 190.619 392.111 190.558C392.067 190.498 392.035 190.429 392.017 190.356C391.999 190.284 391.995 190.208 392.007 190.134C392.031 189.985 392.113 189.851 392.234 189.762C392.356 189.672 392.507 189.633 392.657 189.654H392.647Z"
        fill="black"
    />
    <path
        d="M409.488 212.701C410.548 217.59 411.428 222.52 412.918 227.259C412.935 227.311 412.941 227.367 412.937 227.422C412.933 227.477 412.918 227.531 412.893 227.58C412.867 227.629 412.833 227.673 412.791 227.709C412.749 227.744 412.7 227.772 412.648 227.789C412.54 227.824 412.423 227.815 412.322 227.764C412.221 227.714 412.144 227.626 412.108 227.519C410.548 222.719 409.628 217.78 408.528 212.911C408.513 212.845 408.512 212.777 408.524 212.711C408.535 212.645 408.56 212.582 408.596 212.525C408.632 212.469 408.679 212.42 408.735 212.381C408.79 212.343 408.852 212.315 408.918 212.301C408.983 212.287 409.051 212.285 409.117 212.297C409.183 212.309 409.247 212.333 409.303 212.37C409.36 212.406 409.409 212.453 409.447 212.508C409.486 212.563 409.513 212.625 409.528 212.691L409.488 212.701Z"
        fill="black"
    />
    <path
        d="M420.623 239.576C422.554 241.097 424.798 242.172 427.193 242.725C429.608 243.252 432.101 243.327 434.543 242.945C434.581 242.94 434.62 242.942 434.657 242.951C434.695 242.961 434.73 242.978 434.761 243.001C434.791 243.024 434.817 243.053 434.836 243.087C434.856 243.12 434.868 243.157 434.873 243.195C434.882 243.272 434.861 243.349 434.814 243.41C434.768 243.472 434.699 243.513 434.623 243.525C432.112 243.942 429.545 243.888 427.053 243.365C424.554 242.809 422.209 241.71 420.183 240.146C420.145 240.117 420.113 240.081 420.089 240.04C420.065 239.999 420.049 239.953 420.042 239.906C420.036 239.858 420.039 239.81 420.051 239.764C420.063 239.718 420.084 239.674 420.113 239.636C420.142 239.598 420.178 239.566 420.219 239.542C420.261 239.518 420.306 239.502 420.354 239.496C420.401 239.489 420.449 239.492 420.495 239.504C420.542 239.516 420.585 239.537 420.623 239.566V239.576Z"
        fill="black"
    />
    <path
        d="M448.403 237.72C452.715 235.197 456.821 232.339 460.683 229.171C460.699 229.157 460.718 229.147 460.739 229.14C460.759 229.134 460.781 229.132 460.802 229.133C460.823 229.135 460.844 229.141 460.863 229.151C460.882 229.161 460.899 229.175 460.913 229.191C460.927 229.208 460.937 229.226 460.944 229.247C460.95 229.267 460.952 229.289 460.951 229.31C460.949 229.332 460.943 229.352 460.933 229.371C460.923 229.39 460.909 229.407 460.893 229.421C457.038 232.619 452.939 235.511 448.633 238.07C448.581 238.099 448.52 238.107 448.462 238.093C448.404 238.078 448.354 238.041 448.323 237.99C448.307 237.964 448.296 237.936 448.292 237.906C448.287 237.877 448.289 237.847 448.296 237.818C448.304 237.789 448.317 237.761 448.335 237.738C448.354 237.714 448.377 237.694 448.403 237.68V237.72Z"
        fill="black"
    />
    <path
        d="M471.933 219.299L482.553 208.711C482.553 208.711 482.553 208.711 482.553 208.761L472.063 219.439C472.046 219.457 472.023 219.466 471.998 219.466C471.974 219.466 471.95 219.457 471.933 219.439C471.916 219.422 471.906 219.399 471.906 219.374C471.906 219.35 471.916 219.327 471.933 219.309V219.299Z"
        fill="black"
    />
    <path
        d="M39.1872 44.3379L53.5272 39.9392C53.5515 39.9313 53.5771 39.9283 53.6025 39.9303C53.628 39.9323 53.6528 39.9393 53.6756 39.9509C53.6983 39.9626 53.7186 39.9785 53.7351 39.9979C53.7517 40.0174 53.7643 40.0398 53.7722 40.0641C53.78 40.0884 53.7831 40.114 53.781 40.1395C53.779 40.1649 53.772 40.1898 53.7604 40.2125C53.7488 40.2352 53.7328 40.2555 53.7134 40.2721C53.694 40.2886 53.6715 40.3012 53.6472 40.3091V40.3091L39.2772 44.5878C39.2427 44.5974 39.2059 44.5933 39.1743 44.5766C39.1427 44.5599 39.1187 44.5317 39.1072 44.4978C39.0975 44.466 39.1004 44.4316 39.1153 44.4019C39.1302 44.3721 39.1559 44.3492 39.1872 44.3379V44.3379Z"
        fill="black"
    />
    <path
        d="M10.5859 53.4068L24.886 48.8982C24.8947 48.8938 24.9043 48.8912 24.914 48.8907C24.9238 48.8902 24.9336 48.8918 24.9427 48.8953C24.9519 48.8988 24.9602 48.9042 24.9671 48.9112C24.974 48.9181 24.9794 48.9264 24.9829 48.9355C24.9864 48.9446 24.988 48.9544 24.9875 48.9642C24.987 48.974 24.9844 48.9835 24.98 48.9922C24.9756 49.001 24.9694 49.0087 24.9618 49.0149C24.9542 49.021 24.9454 49.0256 24.9359 49.0281V49.0281L10.5859 53.4068Z"
        fill="black"
    />
    <path d="M276.491 71.6578L294.784 86.7859L317.034 78.5104L320.991 55.1068L276.491 71.6578Z" fill="black" />
    <path d="M193.916 190.099L139.038 144.715L116.788 152.99L189.959 213.502L212.19 205.234L212.208 205.227L193.916 190.099Z" fill="black" />
    <path d="M189.959 213.502L184.243 247.309L178.217 283.61L222.553 267.156L204.261 252.028L212.19 205.234L189.959 213.502Z" fill="black" />
    <path d="M281.422 289.142L285.379 265.739L263.129 274.014L281.422 289.142Z" fill="black" />
    <path d="M294.784 86.7859L276.491 71.6578L231.993 88.209L268.578 118.465L313.077 101.914L294.784 86.7859Z" fill="url(#paint0_linear_5616_21529)" />
    <path d="M294.784 86.7859L313.077 101.914L301.207 172.125L390.205 139.022L317.034 78.5104L294.784 86.7859Z" fill="url(#paint1_linear_5616_21529)" />
    <path d="M239.907 41.4019L276.491 71.6578L320.991 55.1068L284.405 24.8508L239.907 41.4019Z" fill="url(#paint2_linear_5616_21529)" />
    <path d="M293.259 218.926L293.256 218.945L293.293 218.932L293.303 218.873L301.207 172.125L313.077 101.914L268.578 118.465L248.797 235.463L293.259 218.926Z" fill="url(#paint3_linear_5616_21529)" />
    <path d="M240.883 282.27L285.345 265.733L293.256 218.945L248.793 235.483L240.883 282.27Z" fill="#5869DD" />
    <path d="M240.846 282.284L248.759 235.477L212.205 205.246L204.404 252.052L222.696 267.18L222.617 267.209L240.846 282.284Z" fill="url(#paint4_linear_5616_21529)" />
    <path d="M116.788 152.99L104.918 223.201L177.987 283.696L189.858 213.485L116.788 152.99Z" fill="url(#paint5_linear_5616_21529)" />
    <path d="M203.321 11.1458L158.822 27.697L158.819 27.7166L231.892 88.1919L231.947 88.1713L231.993 88.209L276.491 71.6578L239.907 41.4019L203.321 11.1458Z" fill="url(#paint6_linear_5616_21529)" />
    <path d="M390.205 139.022L301.207 172.125L293.303 218.873L382.19 185.812L390.205 139.022Z" fill="url(#paint7_linear_5616_21529)" />
    <path d="M370.42 256.04L390.205 139.022L382.19 185.812L293.303 218.873L293.293 218.932L285.379 265.739L281.422 289.142L370.42 256.04Z" fill="url(#paint8_linear_5616_21529)" />
    <path d="M231.993 88.209L212.208 205.227L248.778 235.47L248.797 235.463L268.578 118.465L231.993 88.209Z" fill="url(#paint9_linear_5616_21529)" />
    <path d="M139.038 144.715L193.916 190.099L212.208 205.227L231.993 88.209L231.947 88.1713L231.892 88.1919L158.819 27.7166L139.038 144.715Z" fill="url(#paint10_linear_5616_21529)" />
    <path
        d="M104.918 223.201L159.795 268.585M104.918 223.201L116.788 152.99M104.918 223.201L177.987 283.696M182.045 260.309L184.243 247.309M193.916 190.099L139.038 144.715M193.916 190.099L212.208 205.227M193.916 190.099L248.778 235.47M139.038 144.715L116.788 152.99M139.038 144.715L158.819 27.7166M116.788 152.99L189.959 213.502M116.788 152.99L189.858 213.485M213.666 73.0752L158.819 27.7166M193.882 190.093L212.19 205.234M248.759 235.477L240.846 282.284M248.759 235.477L248.778 235.47M248.759 235.477L212.205 205.246M240.846 282.284L240.883 282.27M240.846 282.284L222.617 267.209M204.261 252.028L212.19 205.234M204.261 252.028L222.553 267.156M204.261 252.028L212.205 205.246M203.321 11.1458L158.822 27.697L158.819 27.7166M203.321 11.1458L313.077 101.914M203.321 11.1458L239.907 41.4019M203.321 11.1458L276.491 71.6578M313.077 101.914L268.578 118.465M313.077 101.914L276.491 71.6578M313.077 101.914L294.784 86.7859M313.077 101.914L301.207 172.125M313.077 101.914L293.303 218.873M268.578 118.465L248.797 235.463M268.578 118.465L231.993 88.209M268.578 118.465L231.947 88.1713M213.7 73.081L231.947 88.1713M248.793 235.483L248.797 235.463M248.793 235.483L248.778 235.47M248.793 235.483L293.256 218.945M248.793 235.483L240.883 282.27M293.293 218.932L281.422 289.142M293.293 218.932L285.379 265.739M293.293 218.932L293.303 218.873M293.293 218.932L293.256 218.945M276.491 71.6578L320.991 55.1068M276.491 71.6578L231.993 88.209M276.491 71.6578L294.784 86.7859M276.491 71.6578L239.907 41.4019M320.991 55.1068L284.405 24.8508L239.907 41.4019M320.991 55.1068L317.034 78.5104M317.034 78.5104L294.784 86.7859M317.034 78.5104L390.205 139.022M301.207 172.125L390.205 139.022M301.207 172.125L293.303 218.873M390.205 139.022L370.42 256.04L281.422 289.142M390.205 139.022L382.19 185.812L293.303 218.873M281.422 289.142L263.129 274.014M281.422 289.142L285.379 265.739M285.379 265.739L240.88 282.29M285.379 265.739L263.129 274.014M240.88 282.29L263.129 274.014M240.88 282.29L240.883 282.27M231.993 88.209L212.208 205.227M231.993 88.209L231.947 88.1713M212.208 205.227L212.19 205.234M212.208 205.227L248.778 235.47M212.208 205.227L212.205 205.246M189.959 213.502L212.19 205.234M189.959 213.502L184.243 247.309M293.192 218.915L293.303 218.873M159.694 268.568L177.987 283.696M171.565 198.357L189.858 213.485M231.892 88.1919L158.788 27.6913L158.819 27.7166M231.892 88.1919L158.819 27.7166M231.892 88.1919L231.947 88.1713M276.39 71.6408L231.947 88.1713M177.987 283.696L189.858 213.485M177.987 283.696L178.217 283.61M189.858 213.485L184.243 247.309M212.19 205.234L212.205 205.246M222.553 267.156L178.217 283.61M222.553 267.156L222.617 267.209M184.243 247.309L178.217 283.61M178.217 283.61L178.197 283.731L222.617 267.209M178.217 283.61L222.617 267.209M248.778 235.47L248.797 235.463M248.797 235.463L293.259 218.926L293.256 218.945M293.256 218.945L285.345 265.733L240.883 282.27M212.205 205.246L204.404 252.052L222.696 267.18L222.617 267.209"
        stroke="black"
        stroke-width="2"
        stroke-miterlimit="10"
        stroke-linecap="round"
        stroke-linejoin="round"
    />
    <path d="M78.2598 42.3744L57.8783 51.5122L55.6021 73.7293L75.9837 64.5915L78.2598 42.3744Z" fill="black" />
    <path d="M55.6021 73.7293L57.8783 51.5122L21.6676 25.3535L19.3915 47.5706L55.6021 73.7293Z" fill="#F1EFED" />
    <path d="M57.8783 51.5122L78.2598 42.3744L42.0492 16.2157L21.6676 25.3535L57.8783 51.5122Z" fill="#F1EFED" />
    <path
        d="M78.2598 42.3744L57.8783 51.5122M78.2598 42.3744L75.9837 64.5915L55.6021 73.7293M78.2598 42.3744L42.0492 16.2157L21.6676 25.3535M57.8783 51.5122L55.6021 73.7293M57.8783 51.5122L21.6676 25.3535M55.6021 73.7293L19.3915 47.5706L21.6676 25.3535"
        stroke="black"
        stroke-width="2"
        stroke-miterlimit="10"
        stroke-linecap="round"
        stroke-linejoin="round"
    />
    <path d="M503.832 225.838L476.967 257.099L470.144 237.653L497.01 206.392L503.832 225.838Z" fill="black" />
    <path d="M497.01 206.392L470.144 237.653L429.635 230.021L456.5 198.76L497.01 206.392Z" fill="#F1EFED" />
    <path d="M470.144 237.653L476.967 257.099L436.458 249.467L429.635 230.021L470.144 237.653Z" fill="#F1EFED" />
    <path
        d="M476.967 257.099L503.832 225.838L497.01 206.392M476.967 257.099L470.144 237.653M476.967 257.099L436.458 249.467L429.635 230.021M470.144 237.653L497.01 206.392M470.144 237.653L429.635 230.021M497.01 206.392L456.5 198.76L429.635 230.021"
        stroke="black"
        stroke-width="2"
        stroke-miterlimit="10"
        stroke-linecap="round"
        stroke-linejoin="round"
    />
    <path d="M32.3582 142.572L46.2998 126.03L38.943 105.687L25.0014 122.229L32.3582 142.572Z" fill="black" />
    <path d="M3.67841 118.437L11.0352 138.78L32.3337 142.581L24.9769 122.238L3.67841 118.437Z" fill="#F1EFED" />
    <path d="M3.67841 118.437L24.9769 122.238L38.9185 105.696L17.62 101.895L3.67841 118.437Z" fill="#F1EFED" />
    <path
        d="M3.67841 118.437L11.0352 138.78L32.3337 142.581L24.9769 122.238M3.67841 118.437L24.9769 122.238M3.67841 118.437L17.62 101.895L38.9185 105.696L24.9769 122.238M32.3582 142.572L46.2998 126.03L38.943 105.687L25.0014 122.229L32.3582 142.572Z"
        stroke="black"
        stroke-width="2"
        stroke-miterlimit="10"
        stroke-linecap="round"
        stroke-linejoin="round"
    />
    <defs>
        <linearGradient id="paint0_linear_5616_21529" x1="308.5" y1="45.8672" x2="214.997" y2="103.863" gradientUnits="userSpaceOnUse">
            <stop stop-color="#D6FFBB" />
            <stop offset="1" stop-color="#5869DD" />
        </linearGradient>
        <linearGradient id="paint1_linear_5616_21529" x1="406" y1="96.8672" x2="289.5" y2="135.368" gradientUnits="userSpaceOnUse">
            <stop stop-color="#D6FFBB" />
            <stop offset="1" stop-color="#5869DD" />
        </linearGradient>
        <linearGradient id="paint2_linear_5616_21529" x1="330" y1="33.3672" x2="246.003" y2="55.8765" gradientUnits="userSpaceOnUse">
            <stop stop-color="#D6FFBB" />
            <stop offset="1" stop-color="#5869DD" />
        </linearGradient>
        <linearGradient id="paint3_linear_5616_21529" x1="301" y1="45.8672" x2="277.48" y2="233.865" gradientUnits="userSpaceOnUse">
            <stop stop-color="#D6FFBB" />
            <stop offset="1" stop-color="#5869DD" />
        </linearGradient>
        <linearGradient id="paint4_linear_5616_21529" x1="163.5" y1="174.367" x2="287.492" y2="262.379" gradientUnits="userSpaceOnUse">
            <stop stop-color="#D6FFBB" />
            <stop offset="1" stop-color="#5869DD" />
        </linearGradient>
        <linearGradient id="paint5_linear_5616_21529" x1="75.5" y1="214.867" x2="292.999" y2="206.352" gradientUnits="userSpaceOnUse">
            <stop stop-color="#D6FFBB" />
            <stop offset="1" stop-color="#5869DD" />
        </linearGradient>
        <linearGradient id="paint6_linear_5616_21529" x1="279" y1="40.3672" x2="185.497" y2="95.3626" gradientUnits="userSpaceOnUse">
            <stop stop-color="#D6FFBB" />
            <stop offset="1" stop-color="#5869DD" />
        </linearGradient>
        <linearGradient id="paint7_linear_5616_21529" x1="426" y1="171.867" x2="284.497" y2="229.86" gradientUnits="userSpaceOnUse">
            <stop stop-color="#D6FFBB" />
            <stop offset="1" stop-color="#5869DD" />
        </linearGradient>
        <linearGradient id="paint8_linear_5616_21529" x1="419" y1="203.867" x2="284.499" y2="229.861" gradientUnits="userSpaceOnUse">
            <stop stop-color="#D6FFBB" />
            <stop offset="1" stop-color="#5869DD" />
        </linearGradient>
        <linearGradient id="paint9_linear_5616_21529" x1="116.5" y1="150.367" x2="290.004" y2="65.8757" gradientUnits="userSpaceOnUse">
            <stop stop-color="#D6FFBB" />
            <stop offset="1" stop-color="#5869DD" />
        </linearGradient>
        <linearGradient id="paint10_linear_5616_21529" x1="110.5" y1="143.367" x2="271.004" y2="51.8751" gradientUnits="userSpaceOnUse">
            <stop stop-color="#D6FFBB" />
            <stop offset="1" stop-color="#5869DD" />
        </linearGradient>
    </defs>
</svg>
