<svg xmlns="http://www.w3.org/2000/svg" width="36" height="33" viewBox="0 0 36 33" fill="none">
    <path d="M0 3.92653H2.00126V22.2503H0V3.92653Z" fill="black" />
    <path d="M33.3543 3.92653H35.3556V22.2503H33.3543V3.92653Z" fill="black" />
    <path d="M2.00126 22.2503H4.00252V24.2136H2.00126V22.2503Z" fill="black" />
    <path d="M12.6746 15.0517H14.6759V17.015H12.6746V15.0517Z" fill="black" />
    <path d="M16.6771 15.0517H18.6784V17.015H16.6771V15.0517Z" fill="black" />
    <path d="M20.6797 15.0517H22.6809V17.015H20.6797V15.0517Z" fill="black" />
    <path d="M10.6734 26.1769H12.6746V28.1401H10.6734V26.1769Z" fill="black" />
    <path d="M12.6746 28.1401H14.6759V30.1034H12.6746V28.1401Z" fill="black" />
    <path d="M14.6759 24.2136H16.6771V32.0667H14.6759V24.2136Z" fill="black" />
    <path d="M16.6771 24.2136H31.353V26.1769H16.6771V24.2136Z" fill="black" />
    <path d="M4.00252 0H31.353V1.96327H4.00252V0Z" fill="black" />
    <path d="M2.00126 1.96327H4.00252V3.92653H2.00126V1.96327Z" fill="black" />
    <path d="M31.353 22.2503H33.3543V24.2136H31.353V22.2503Z" fill="black" />
    <path d="M31.353 1.96327H33.3543V3.92653H31.353V1.96327Z" fill="black" />
    <path d="M4.00252 24.2136H10.6734V26.1769H4.00252V24.2136Z" fill="black" />
    <path
        fill-rule="evenodd"
        clip-rule="evenodd"
        d="M2.00126 3.92653V22.2503H4.00252V24.2136H10.6734V26.1769H12.6746V28.1401H14.6759V24.2136H16.6771H31.353V22.2503H33.3543V3.92653H31.353V1.96327H4.00252V3.92653H2.00126ZM14.6759 15.0517H12.6746V17.015H14.6759V15.0517ZM18.6784 15.0517H16.6771V17.015H18.6784V15.0517ZM22.6809 15.0517H20.6797V17.015H22.6809V15.0517Z"
        fill="#F1EFED"
    />
</svg>
