<svg xmlns="http://www.w3.org/2000/svg" width="39" height="39" viewBox="0 0 39 39" fill="none">
    <circle cx="19.5" cy="19.5" r="19.5" fill="url(#paint0_linear_9660_41868)" />
    <path d="M17.577 20.854L15.7886 22.5127L8.49219 15.7485L10.2806 14.0898L17.577 20.854Z" fill="black" />
    <path d="M15.7677 9L13.9414 10.6931L15.7677 12.3869L17.594 10.6931L15.7677 9Z" fill="black" />
    <path d="M17.597 17.5107L15.8086 15.8528L23.105 9.08789L24.8941 10.7465L17.597 17.5107Z" fill="black" />
    <path d="M28.174 17.562L26.3477 15.8682L28.174 14.1758L30.0003 15.8682L28.174 17.562Z" fill="black" />
    <path d="M20.8516 17.9041L22.6407 16.2461L29.9371 23.0096L28.1479 24.6683L20.8516 17.9041Z" fill="black" />
    <path d="M20.832 28.0662L22.6004 29.7055H22.7171L24.4847 28.0662L22.6591 26.373L20.832 28.0662Z" fill="black" />
    <path d="M13.4922 28.0454L15.2806 29.7041L22.577 22.9392L20.7886 21.2812L13.4922 28.0454Z" fill="black" />
    <path d="M8 22.9548L9.82632 24.6479L11.6526 22.9548L9.82632 21.2617L8 22.9548Z" fill="black" />
    <defs>
        <linearGradient id="paint0_linear_9660_41868" x1="0" y1="19.5" x2="39" y2="19.5" gradientUnits="userSpaceOnUse">
            <stop stop-color="#D6FFBB" />
            <stop offset="1" stop-color="#5869DD" />
        </linearGradient>
    </defs>
</svg>
