<svg xmlns="http://www.w3.org/2000/svg" width="350" height="142" viewBox="0 0 350 142" fill="none">
    <g clip-path="url(#clip0_34705_20281)">
        <path
            d="M96.893 69.9435C99.5763 71.6816 115.932 83.8352 116.056 84.2691C116.118 84.4861 110.59 86.215 103.865 88.1284L91.5704 91.6261L81.561 83.9206C76.061 79.7006 71.5104 76.0704 71.4487 75.8534C71.387 75.6365 76.6251 73.9899 83.1337 72.1382C94.4877 68.908 95.0145 68.8363 96.893 69.9435Z"
            fill="#F1EFED"
        />
        <path
            d="M163.765 52.4818C167.542 54.7685 182.63 65.4852 182.774 65.9914C182.938 66.5699 164.136 71.9193 161.151 72.1432C159.312 72.2754 156.36 70.6919 147.639 65.0431L136.566 57.7185L160.937 50.7849L163.765 52.4818Z"
            fill="#F1EFED"
        />
        <path
            d="M236.105 40.5001L245.917 48.887L241.195 50.6994C233.394 53.7787 223.104 56.628 221.432 56.2439C220.182 55.974 207.499 47.3876 198.862 40.9333C198.17 40.4265 200.857 39.4277 212.139 36.2181L226.313 32.1854L236.105 40.5001Z"
            fill="#F1EFED"
        />
        <path
            d="M286.532 16.6166C289.846 17.5498 309.948 32.1554 308.915 32.9185C308.47 33.2795 303.356 34.8126 297.529 36.3139L286.982 39.0803L274.886 31.1865C268.25 26.8207 262.781 22.9829 262.657 22.549C262.308 21.3196 283.971 15.8598 286.532 16.6166Z"
            fill="#F1EFED"
        />
        <path
            d="M333.236 5.75248C334.238 6.24935 335.708 11.6938 335.263 13.1495C335.117 13.7381 334.189 12.6732 333.179 10.7718L331.355 7.38217L313.575 12.206C303.864 14.8907 295.32 17.0086 294.68 16.9563C293.658 16.9345 293.616 16.7898 294.371 15.8715C295.426 14.6333 332.029 5.07982 333.236 5.75248Z"
            fill="#F1EFED"
        />
        <path d="M337.25 18.2124C337.538 19.2249 337.475 20.1027 337.114 20.2056C336.246 20.4525 334.854 18.5815 335.185 17.5491C335.538 16.0416 336.736 16.4045 337.25 18.2124Z" fill="#F1EFED" />
        <path
            fill-rule="evenodd"
            clip-rule="evenodd"
            d="M335.896 1.08725C336.453 1.39772 339.17 9.84898 343.532 25.1805L333.357 27.9895C333.357 27.9895 331.538 28.3583 325.752 30.0043C319.967 31.6503 317.694 32.4533 320.607 31.7026L282.692 41.864L277.055 43.3325L251.184 49.2647L216.078 59.4086L211.841 60.6249L190.231 65.8242L156.655 74.7511C156.655 74.7511 154.13 75.2653 152.518 75.6189C140.818 78.1846 123.058 84.1531 123.058 84.1531L108.482 88.3303C107.245 88.6695 105.943 89.043 104.639 89.4316L86.3546 93.9603L83.4078 94.8082C83.4078 94.8082 76.7651 96.4636 73.1803 97.3271C69.575 98.1183 66.4447 99.4244 65.1324 100.032C63.8793 100.695 62.5017 101.163 62.5017 101.163L57.2929 103.43L53.3732 105.128C43.0235 106.119 34.5235 96.9119 32.044 88.4712L30.9741 84.7106L32.5969 83.5454C33.0919 84.1863 56.3161 77.8917 144.513 52.9559C256.937 21.1277 334.172 0.248759 335.896 1.08725ZM116.056 84.2691C115.932 83.8352 99.5763 71.6816 96.893 69.9435C95.0145 68.8363 94.4877 68.908 83.1337 72.1382C76.6251 73.9899 71.387 75.6365 71.4487 75.8534C71.5104 76.0704 76.061 79.7006 81.561 83.9206L91.5704 91.6261L103.865 88.1284C110.59 86.215 116.118 84.4861 116.056 84.2691ZM182.774 65.9914C182.63 65.4852 167.542 54.7685 163.765 52.4818L160.937 50.7849L136.566 57.7185L147.639 65.0431C156.36 70.6919 159.312 72.2754 161.151 72.1432C164.136 71.9193 182.938 66.5699 182.774 65.9914ZM245.917 48.887L236.105 40.5001L226.313 32.1854L212.139 36.2181C200.857 39.4277 198.17 40.4265 198.862 40.9333C207.499 47.3876 220.182 55.974 221.432 56.2439C223.104 56.628 233.394 53.7787 241.195 50.6994L245.917 48.887ZM308.915 32.9185C309.948 32.1554 289.846 17.5498 286.532 16.6166C283.971 15.8598 262.308 21.3196 262.657 22.549C262.781 22.9829 268.25 26.8207 274.886 31.1865L286.982 39.0803L297.529 36.3139C303.356 34.8126 308.47 33.2795 308.915 32.9185ZM335.263 13.1495C335.708 11.6938 334.238 6.24935 333.236 5.75248C332.029 5.07982 295.426 14.6333 294.371 15.8715C293.616 16.7898 293.658 16.9345 294.68 16.9563C295.32 17.0086 303.864 14.8907 313.575 12.206L331.355 7.38217L333.179 10.7718C334.189 12.6732 335.117 13.7381 335.263 13.1495ZM337.114 20.2056C337.475 20.1027 337.538 19.2249 337.25 18.2124C336.736 16.4045 335.538 16.0416 335.185 17.5491C334.854 18.5815 336.246 20.4525 337.114 20.2056Z"
            fill="black"
        />
        <path
            d="M33.0896 88.1787C33.1648 96.9757 39.631 103.743 49.8566 105.622L52.6386 106.149L52.4882 122.464L52.2626 138.705L27.6009 139.307C13.9918 139.683 2.71361 139.758 2.41286 139.457C2.11211 139.156 1.88654 127.352 1.88654 113.141C1.88654 94.1937 2.11211 87.0508 2.7888 86.3741C3.69106 85.4719 15.0445 84.4944 26.5483 84.3441L33.0896 84.2689V88.1787Z"
            fill="#F1EFED"
        />
        <path
            d="M114.594 109.607C114.819 109.983 110.985 116.149 106.173 123.367L97.3755 136.449L83.992 136.675L70.6085 136.825L75.2702 129.908C80.9845 121.337 88.5785 111.186 90.0823 109.908C90.7613 109.38 96.7579 109.041 102.651 108.967C104.011 108.95 105.366 108.948 106.649 108.96C110.886 109 114.335 109.205 114.594 109.607Z"
            fill="#F1EFED"
        />
        <path
            d="M80.7589 108.329C83.8417 108.404 84.2176 108.555 82.7138 109.006C80.3078 109.758 62.6386 109.908 60.1574 109.231C59.3611 108.999 58.9308 108.855 58.9118 108.721C58.8876 108.551 59.5228 108.398 60.9093 108.104C62.3378 107.878 66.5484 107.728 70.2326 107.953C73.9168 108.104 78.6537 108.254 80.7589 108.329Z"
            fill="black"
        />
        <path
            d="M179.556 110.284C183.917 110.585 185.722 111.036 185.421 111.637C185.271 112.164 181.436 117.803 177 124.269L168.879 136.073H155.496C148.128 136.073 142.113 135.923 142.113 135.773C142.113 135.547 144.067 132.916 146.473 129.908C148.879 126.901 152.864 121.562 155.27 118.028C157.676 114.494 160.158 111.186 160.834 110.66C162.037 109.682 169.631 109.457 179.556 110.284Z"
            fill="#F1EFED"
        />
        <path
            d="M250.383 111.637C250.383 111.863 248.429 114.795 246.023 118.179C243.541 121.637 240.008 126.825 237.977 129.833C235.346 133.893 233.842 135.472 232.038 135.998C229.331 136.75 207.526 136.675 207.526 135.848C207.526 135.171 211.511 129.607 219.707 118.931L225.647 111.261H238.053C244.82 111.261 250.383 111.412 250.383 111.637Z"
            fill="#F1EFED"
        />
        <path
            d="M316.549 113.442C316.549 114.344 300.985 135.397 299.406 136.6C298.203 137.577 275.947 138.104 275.947 137.126C275.947 136.675 287.526 119.607 290.835 115.171L292.639 112.765H304.594C311.662 112.765 316.549 113.066 316.549 113.442Z"
            fill="#F1EFED"
        />
        <path
            d="M347 126.525C347.301 129.081 347.376 132.239 347.226 133.442L347 135.698L326.775 135.923C313.767 135.998 306.248 135.848 305.722 135.322C305.196 134.795 311.286 134.57 324.669 134.57H344.369V130.51C344.369 125.773 345.045 121.788 345.872 121.788C346.248 121.788 346.7 123.893 347 126.525Z"
            fill="#F1EFED"
        />
        <path d="M80.7589 108.329C83.8417 108.404 84.2176 108.555 82.7138 109.006L102.651 108.967C104.011 108.95 105.366 108.948 106.649 108.96L121.508 108.329H80.7589Z" fill="black" />
        <path d="M52.6386 106.149L58.9118 108.721C58.8876 108.551 59.5228 108.398 60.9093 108.104L52.6386 106.149Z" fill="black" />
        <path
            fill-rule="evenodd"
            clip-rule="evenodd"
            d="M12.9392 83.3666C3.99181 83.7426 1.28504 84.1185 0.758719 84.9456C-0.0683506 86.1486 -0.293915 135.171 0.457967 138.931C0.909096 141.111 0.984284 141.186 6.77377 141.637L12.6385 142.164L15.4956 141.863C16.2475 141.562 25.1949 141.261 35.2701 141.036C45.3453 140.81 53.9168 140.359 54.4431 139.983C54.8942 139.607 55.7965 139.081 56.398 138.855C57.8266 138.254 308.203 138.931 323.993 139.532L335.572 139.983L337.226 139.457L350.008 138.705V111.144H337.508C334.5 111.295 328.44 111.111 325.508 110.961L287.008 110.434H264.008C264.008 110.434 254.293 110.885 254.594 110.434L218.508 109.682C215.951 110.359 192.008 109.144 192.008 109.144L156.508 108.644C156.207 109.171 122.861 108.855 121.508 108.329L106.649 108.96C110.886 109 114.335 109.205 114.594 109.607C114.819 109.983 110.985 116.149 106.173 123.367L97.3755 136.449L83.992 136.675L70.6085 136.825L75.2702 129.908C80.9845 121.337 88.5785 111.186 90.0823 109.908C90.7613 109.38 96.7579 109.041 102.651 108.967L82.7138 109.006C80.3078 109.758 62.6386 109.908 60.1574 109.231C59.3611 108.999 58.9308 108.855 58.9118 108.721L52.6386 106.149L52.4882 122.464L52.2626 138.705L27.6009 139.307C13.9918 139.683 2.71361 139.758 2.41286 139.457C2.11211 139.156 1.88654 127.352 1.88654 113.141C1.88654 94.1937 2.11211 87.0508 2.7888 86.3741C3.69106 85.4719 15.0445 84.4944 26.5483 84.3441L33.0896 84.2689L34.9693 83.5922C34.5934 82.6147 33.0896 82.6147 12.9392 83.3666ZM179.556 110.284C183.917 110.585 185.722 111.036 185.421 111.637C185.271 112.164 181.436 117.803 177 124.269L168.879 136.073H155.496C148.128 136.073 142.113 135.923 142.113 135.773C142.113 135.547 144.067 132.916 146.473 129.908C148.879 126.901 152.864 121.562 155.27 118.028C157.676 114.494 160.158 111.186 160.834 110.66C162.037 109.682 169.631 109.457 179.556 110.284ZM250.383 111.637C250.383 111.863 248.429 114.795 246.023 118.179C243.541 121.637 240.008 126.825 237.977 129.833C235.346 133.893 233.842 135.472 232.038 135.998C229.331 136.75 207.526 136.675 207.526 135.848C207.526 135.171 211.511 129.607 219.707 118.931L225.647 111.261H238.053C244.82 111.261 250.383 111.412 250.383 111.637ZM316.549 113.442C316.549 114.344 300.985 135.397 299.406 136.6C298.203 137.577 275.947 138.104 275.947 137.126C275.947 136.675 287.526 119.607 290.835 115.171L292.639 112.765H304.594C311.662 112.765 316.549 113.066 316.549 113.442ZM347 126.525C347.301 129.081 347.376 132.239 347.226 133.442L347 135.698L326.775 135.923C313.767 135.998 306.248 135.848 305.722 135.322C305.196 134.795 311.286 134.57 324.669 134.57H344.369V130.51C344.369 125.773 345.045 121.788 345.872 121.788C346.248 121.788 346.7 123.893 347 126.525Z"
            fill="black"
        />
        <path
            d="M15.1964 94.3409C11.061 96.1454 10.1588 99.6793 13.1663 102.612C17.0009 106.521 23.3167 103.739 23.3167 98.1755C23.3167 96.7469 22.9408 95.3183 22.5648 95.0928C20.3844 93.7394 17.3768 93.4386 15.1964 94.3409ZM20.4596 95.995C23.3167 98.6266 21.1362 102.988 16.9257 102.988C15.6475 102.988 14.2189 102.612 13.6926 102.085C11.437 99.8296 13.9934 94.7168 17.452 94.7168C18.3543 94.7168 19.7077 95.2431 20.4596 95.995Z"
            fill="black"
        />
        <path d="M20.4596 95.995C23.3167 98.6266 21.1362 102.988 16.9257 102.988C15.6475 102.988 14.2189 102.612 13.6926 102.085C11.437 99.8296 13.9934 94.7168 17.452 94.7168C18.3543 94.7168 19.7077 95.2431 20.4596 95.995Z" fill="black" />
        <path d="M4.06641 107.119C4.06641 111.254 4.14159 112.833 4.29197 110.653C4.44235 108.472 4.44235 105.089 4.29197 103.134C4.14159 101.179 4.06641 102.984 4.06641 107.119Z" fill="black" />
        <path
            d="M32.8649 100.585C31.8122 102.164 40.9852 109.006 44.1431 109.006C47.2258 109.006 48.88 111.111 48.9552 115.246L49.1055 119.156L49.8574 114.72C50.5341 110.735 50.4589 110.134 49.1807 109.231C48.4288 108.705 47.0003 108.254 45.9476 108.254C42.6393 108.254 36.2484 104.795 34.6694 102.239C33.9175 100.886 33.0904 100.134 32.8649 100.585Z"
            fill="black"
        />
        <path
            d="M36.0959 115.993C35.0433 116.52 33.5395 118.174 32.7876 119.602C31.5094 121.933 31.4342 122.61 32.2613 124.565C34.7425 130.655 44.3666 128.399 44.3666 121.707C44.3666 119.377 41.8102 116.144 39.4794 115.467C38.6523 115.241 37.1485 115.467 36.0959 115.993ZM42.3365 118.926C43.6147 120.655 43.7651 121.332 43.0132 122.835C41.8102 125.467 38.7275 127.347 36.4718 126.745C32.7124 125.768 32.1861 121.106 35.4944 118.023C37.6748 115.993 40.4568 116.369 42.3365 118.926Z"
            fill="black"
        />
        <path
            d="M42.3365 118.926C43.6147 120.655 43.7651 121.332 43.0132 122.835C41.8102 125.467 38.7275 127.347 36.4718 126.745C32.7124 125.768 32.1861 121.106 35.4944 118.023C37.6748 115.993 40.4568 116.369 42.3365 118.926Z"
            fill="black"
        />
        <path
            d="M3.76562 127.425C3.76562 132.387 4.06638 135.32 4.66788 135.921C5.1942 136.448 6.92353 136.824 8.57767 136.748L11.6604 136.673L9.10399 136.072C7.7506 135.771 6.32202 135.019 5.94608 134.418C5.57014 133.891 5.26939 130.884 5.26939 127.801C5.26939 124.718 4.89345 121.636 4.51751 121.034C3.99119 120.282 3.76562 122.312 3.76562 127.425Z"
            fill="black"
        />
        <g clip-path="url(#clip1_34705_20281)">
            <path
                d="M328.915 169.078C336.694 166.915 341.247 158.856 339.085 151.078C336.922 143.3 328.863 138.748 321.085 140.911C313.306 143.075 308.753 151.133 310.915 158.911C313.078 166.689 321.137 171.241 328.915 169.078Z"
                fill="#F2EA86"
                stroke="black"
                stroke-width="1.7"
                stroke-miterlimit="10"
            />
        </g>
    </g>
    <defs>
        <clipPath id="clip0_34705_20281">
            <rect width="350" height="142" fill="white" />
        </clipPath>
        <clipPath id="clip1_34705_20281">
            <rect width="36" height="36" fill="white" transform="translate(307 137)" />
        </clipPath>
    </defs>
</svg>
