<svg xmlns="http://www.w3.org/2000/svg" width="104" height="113" viewBox="0 0 104 113" fill="none">
    <path d="M75.0107 82.7878H69.2566V88.7044H75.0107V82.7878Z" fill="#F1EFED" />
    <path d="M75.0107 76.8756H69.2566V82.7878H75.0107V76.8756Z" fill="#F1EFED" />
    <path d="M98.0176 17.7409H92.2682V23.653H98.0176V17.7409Z" fill="#F1EFED" />
    <path d="M92.2682 17.7409H86.5141V23.653H92.2682V17.7409Z" fill="#F1EFED" />
    <path d="M92.2682 23.653H86.5141V29.5651H92.2682L92.2682 23.653Z" fill="#F1EFED" />
    <path d="M86.5141 23.653L80.7601 23.653V29.5651H86.5141V23.653Z" fill="#F1EFED" />
    <path d="M80.7601 29.5651H75.0107V35.4818H80.7601V29.5651Z" fill="#F1EFED" />
    <path d="M86.5141 17.7409H80.7601V23.653L86.5141 23.653V17.7409Z" fill="#F1EFED" />
    <path d="M80.7601 23.653H75.0107V29.5651H80.7601V23.653Z" fill="#F1EFED" />
    <path d="M80.7601 35.4818H75.0107V41.3939H80.7601V35.4818Z" fill="#F1EFED" />
    <path d="M75.0107 35.4818H69.2566V41.3939H75.0107V35.4818Z" fill="#F1EFED" />
    <path d="M92.2682 47.306H86.5141V53.2227H92.2682V47.306Z" fill="#F1EFED" />
    <path d="M92.2682 53.2227H86.5141V59.1348H92.2682V53.2227Z" fill="#F1EFED" />
    <path d="M92.2682 59.1348H86.5141V65.0469H92.2682V59.1348Z" fill="#F1EFED" />
    <path d="M92.2682 65.0469H86.5141V70.9635H92.2682V65.0469Z" fill="#F1EFED" />
    <path d="M86.5141 59.1348H80.7601V65.0469H86.5141V59.1348Z" fill="#F1EFED" />
    <path d="M86.5141 65.0469H80.7601V70.9635H86.5141V65.0469Z" fill="#F1EFED" />
    <path d="M86.5141 53.2227H80.7601V59.1348H86.5141V53.2227Z" fill="#F1EFED" />
    <path d="M86.5141 47.306H80.7601V53.2227H86.5141V47.306Z" fill="#F1EFED" />
    <path d="M80.7601 53.2227H75.0107V59.1348H80.7601V53.2227Z" fill="#F1EFED" />
    <path d="M80.7601 47.306H75.0107V53.2227H80.7601V47.306Z" fill="#F1EFED" />
    <path d="M80.7601 59.1348H75.0107V65.0469H80.7601V59.1348Z" fill="#F1EFED" />
    <path d="M80.7601 65.0469H75.0107V70.9635H80.7601V65.0469Z" fill="#F1EFED" />
    <path d="M92.2682 35.4818H86.5141V41.3939H92.2682V35.4818Z" fill="#F1EFED" />
    <path d="M98.0176 41.3939H92.2682V47.306L98.0176 47.306V41.3939Z" fill="#F1EFED" />
    <path d="M92.2682 41.3939H86.5141V47.306H92.2682V41.3939Z" fill="#F1EFED" />
    <path d="M86.5141 41.3939H80.7601V47.306H86.5141V41.3939Z" fill="#F1EFED" />
    <path d="M80.7601 41.3939H75.0107V47.306H80.7601V41.3939Z" fill="#F1EFED" />
    <path d="M75.0107 41.3939H69.2566V47.306L75.0107 47.306V41.3939Z" fill="#F1EFED" />
    <path d="M40.4956 47.306H34.7416V53.2227H40.4956V47.306Z" fill="#F1EFED" />
    <path d="M46.2451 41.3939H40.4956V47.306L46.2451 47.306V41.3939Z" fill="#F1EFED" />
    <path d="M46.2451 65.0469H40.4956V70.9635H46.2451V65.0469Z" fill="#F1EFED" />
    <path d="M46.2451 59.1348H40.4956V65.0469H46.2451V59.1348Z" fill="#F1EFED" />
    <path d="M46.2451 53.2227H40.4956V59.1348H46.2451V53.2227Z" fill="#F1EFED" />
    <path d="M46.2451 47.306L40.4956 47.306V53.2227H46.2451V47.306Z" fill="#F1EFED" />
    <path d="M57.7531 59.1348H51.9991V65.0469H57.7531V59.1348Z" fill="#F1EFED" />
    <path d="M57.7531 53.2227H51.9991V59.1348H57.7531V53.2227Z" fill="#F1EFED" />
    <path d="M57.7531 47.306H51.9991V53.2227H57.7531V47.306Z" fill="#F1EFED" />
    <path d="M57.7531 65.0469H51.9991V70.9635H57.7531V65.0469Z" fill="#F1EFED" />
    <path d="M51.9991 59.1348H46.2451V65.0469H51.9991V59.1348Z" fill="#F1EFED" />
    <path d="M51.9991 65.0469H46.2451V70.9635H51.9991V65.0469Z" fill="#F1EFED" />
    <path d="M51.9991 47.306L46.2451 47.306V53.2227H51.9991V47.306Z" fill="#F1EFED" />
    <path d="M51.9991 41.3939H46.2451V47.306L51.9991 47.306L51.9991 41.3939Z" fill="#F1EFED" />
    <path d="M51.9991 53.2227H46.2451V59.1348H51.9991V53.2227Z" fill="#F1EFED" />
    <path d="M57.7531 35.4818H51.9991L51.9991 41.3939H57.7531V35.4818Z" fill="#F1EFED" />
    <path d="M63.5026 35.4818H57.7531V41.3939H63.5026V35.4818Z" fill="#F1EFED" />
    <path d="M69.2566 29.5651H63.5026V35.4818H69.2566V29.5651Z" fill="#F1EFED" />
    <path d="M69.2566 23.653H63.5026V29.5651H69.2566V23.653Z" fill="#F1EFED" />
    <path d="M63.5026 29.5651H57.7531V35.4818H63.5026V29.5651Z" fill="#F1EFED" />
    <path d="M63.5026 23.653H57.7531V29.5651H63.5026V23.653Z" fill="#F1EFED" />
    <path d="M69.2566 47.306L63.5026 47.306V53.2227H69.2566V47.306Z" fill="#F1EFED" />
    <path d="M63.5026 53.2227H57.7531V59.1348H63.5026V53.2227Z" fill="#F1EFED" />
    <path d="M63.5026 59.1348H57.7531V65.0469H63.5026V59.1348Z" fill="#F1EFED" />
    <path d="M63.5026 65.0469H57.7531V70.9635H63.5026V65.0469Z" fill="#F1EFED" />
    <path d="M63.5026 70.9635H57.7531V76.8756H63.5026V70.9635Z" fill="#F1EFED" />
    <path d="M63.5026 47.306H57.7531V53.2227H63.5026V47.306Z" fill="#F1EFED" />
    <path d="M57.7531 70.9635H51.9991V76.8756H57.7531V70.9635Z" fill="#F1EFED" />
    <path d="M51.9991 70.9635H46.2451L46.2451 76.8756H51.9991V70.9635Z" fill="#F1EFED" />
    <path d="M46.2451 70.9635H40.4956V76.8756H46.2451L46.2451 70.9635Z" fill="#F1EFED" />
    <path d="M28.9875 82.7878H23.2381V88.7044H28.9875V82.7878Z" fill="#F1EFED" />
    <path d="M34.7416 82.7878H28.9875V88.7044H34.7416V82.7878Z" fill="#F1EFED" />
    <path d="M34.7416 76.8756H28.9875V82.7878H34.7416V76.8756Z" fill="#F1EFED" />
    <path d="M34.7416 88.7044H28.9875V94.6165H34.7416V88.7044Z" fill="#F1EFED" />
    <path d="M40.4956 70.9635H34.7416V76.8756H40.4956V70.9635Z" fill="#F1EFED" />
    <path d="M40.4956 88.7044H34.7416V94.6165H40.4956V88.7044Z" fill="#F1EFED" />
    <path d="M40.4956 76.8756H34.7416V82.7878H40.4956V76.8756Z" fill="#F1EFED" />
    <path d="M40.4956 82.7878H34.7416V88.7044H40.4956V82.7878Z" fill="#F1EFED" />
    <path d="M40.4956 59.1348H34.7416V65.0469H40.4956V59.1348Z" fill="#F1EFED" />
    <path d="M40.4956 53.2227H34.7416V59.1348H40.4956V53.2227Z" fill="#F1EFED" />
    <path d="M40.4956 65.0469H34.7416V70.9635H40.4956V65.0469Z" fill="#F1EFED" />
    <path d="M34.7416 53.2227H28.9875V59.1348H34.7416V53.2227Z" fill="#F1EFED" />
    <path d="M46.2451 88.7044H40.4956V94.6165H46.2451V88.7044Z" fill="#F1EFED" />
    <path d="M23.2381 82.7878H17.4841V88.7044H23.2381V82.7878Z" fill="#8F8E93" />
    <path d="M28.9875 76.8756H23.2381V82.7878H28.9875V76.8756Z" fill="#8F8E93" />
    <path d="M34.7416 65.0469H28.9875V70.9635H34.7416V65.0469Z" fill="#8F8E93" />
    <path d="M34.7416 70.9635H28.9875V76.8756H34.7416V70.9635Z" fill="#8F8E93" />
    <path d="M34.7416 47.306H28.9875V53.2227H34.7416V47.306Z" fill="#8F8E93" />
    <path d="M28.9875 53.2227H23.2381V59.1348H28.9875V53.2227Z" fill="#8F8E93" />
    <path d="M28.9875 47.306H23.2381V53.2227H28.9875V47.306Z" fill="#8F8E93" />
    <path d="M40.4956 41.3939H34.7416V47.306H40.4956V41.3939Z" fill="#8F8E93" />
    <path d="M51.9991 35.4818H46.2451L46.2451 41.3939H51.9991L51.9991 35.4818Z" fill="#8F8E93" />
    <path d="M46.2451 35.4818H40.4956V41.3939H46.2451L46.2451 35.4818Z" fill="#8F8E93" />
    <path d="M57.7531 23.653H51.9991V29.5651H57.7531V23.653Z" fill="#8F8E93" />
    <path d="M57.7531 29.5651H51.9991V35.4818H57.7531V29.5651Z" fill="#8F8E93" />
    <path d="M75.0107 65.0469H69.2566V70.9635H75.0107V65.0469Z" fill="#8F8E93" />
    <path d="M75.0107 59.1348H69.2566V65.0469H75.0107V59.1348Z" fill="#8F8E93" />
    <path d="M69.2566 82.7878H63.5026V88.7044H69.2566V82.7878Z" fill="#8F8E93" />
    <path d="M69.2566 76.8756H63.5026V82.7878H69.2566V76.8756Z" fill="#8F8E93" />
    <path d="M51.9991 82.7878H46.2451L46.2451 88.7044H51.9991V82.7878Z" fill="#8F8E93" />
    <path d="M51.9991 88.7044H46.2451V94.6165H51.9991V88.7044Z" fill="#8F8E93" />
    <path d="M46.2451 82.7878H40.4956V88.7044H46.2451L46.2451 82.7878Z" fill="#8F8E93" />
    <path d="M34.7416 100.529H28.9875V106.445H34.7416V100.529Z" fill="url(#paint0_linear_4068_13641)" />
    <path d="M57.7531 100.529H51.9991V106.445H57.7531V100.529Z" fill="url(#paint1_linear_4068_13641)" />
    <path d="M51.9991 100.529H46.2451V106.445H51.9991V100.529Z" fill="url(#paint2_linear_4068_13641)" />
    <path d="M46.2451 100.529H40.4956V106.445H46.2451V100.529Z" fill="url(#paint3_linear_4068_13641)" />
    <path d="M40.4956 100.529H34.7416V106.445H40.4956V100.529Z" fill="url(#paint4_linear_4068_13641)" />
    <path d="M28.9875 100.529H23.2381V106.445H28.9875V100.529Z" fill="url(#paint5_linear_4068_13641)" />
    <path d="M28.9875 94.6165H23.2381V100.529H28.9875V94.6165Z" fill="url(#paint6_linear_4068_13641)" />
    <path d="M23.2381 100.529H17.4841V106.445H23.2381V100.529Z" fill="url(#paint7_linear_4068_13641)" />
    <path d="M23.2381 94.6165H17.4841V100.529H23.2381V94.6165Z" fill="url(#paint8_linear_4068_13641)" />
    <path d="M11.73 94.6165H5.9806V100.529H11.73V94.6165Z" fill="url(#paint9_linear_4068_13641)" />
    <path d="M17.4841 88.7044H11.73V94.6165H17.4841V88.7044Z" fill="url(#paint10_linear_4068_13641)" />
    <path d="M17.4841 94.6165H11.73V100.529H17.4841V94.6165Z" fill="url(#paint11_linear_4068_13641)" />
    <path d="M86.5141 94.6165H80.7601V100.529H86.5141V94.6165Z" fill="url(#paint12_linear_4068_13641)" />
    <path d="M80.7601 94.6165H75.0107V100.529H80.7601V94.6165Z" fill="url(#paint13_linear_4068_13641)" />
    <path d="M75.0107 94.6165H69.2566V100.529H75.0107V94.6165Z" fill="url(#paint14_linear_4068_13641)" />
    <path d="M69.2566 94.6165H63.5026V100.529H69.2566V94.6165Z" fill="url(#paint15_linear_4068_13641)" />
    <path d="M63.5026 94.6165H57.7531V100.529H63.5026V94.6165Z" fill="url(#paint16_linear_4068_13641)" />
    <path d="M63.5026 88.7044H57.7531V94.6165H63.5026V88.7044Z" fill="url(#paint17_linear_4068_13641)" />
    <path d="M103.772 47.306L98.0176 47.306L98.0176 53.2227H103.772V47.306Z" fill="black" />
    <path d="M103.772 41.3939H98.0176V47.306L103.772 47.306V41.3939Z" fill="black" />
    <path d="M103.772 17.7409H98.0176V23.653H103.772V17.7409Z" fill="black" />
    <path d="M103.772 11.8242H98.0176L98.0176 17.7409H103.772V11.8242Z" fill="black" />
    <path d="M103.772 5.91212H98.0176V11.8242H103.772V5.91212Z" fill="black" />
    <path d="M98.0176 94.6165H92.2682V100.529H98.0176V94.6165Z" fill="black" />
    <path d="M98.0176 65.0469H92.2682V70.9635H98.0176V65.0469Z" fill="black" />
    <path d="M98.0176 59.1348H92.2682V65.0469H98.0176V59.1348Z" fill="black" />
    <path d="M98.0176 53.2227H92.2682V59.1348H98.0176L98.0176 53.2227Z" fill="black" />
    <path d="M98.0176 47.306L92.2682 47.306V53.2227H98.0176L98.0176 47.306Z" fill="black" />
    <path d="M98.0176 35.4818H92.2682V41.3939H98.0176V35.4818Z" fill="black" />
    <path d="M98.0176 29.5651H92.2682V35.4818H98.0176V29.5651Z" fill="black" />
    <path d="M98.0176 23.653H92.2682L92.2682 29.5651H98.0176V23.653Z" fill="black" />
    <path d="M98.0176 11.8242H92.2682V17.7409H98.0176L98.0176 11.8242Z" fill="black" />
    <path d="M98.0176 5.91212H92.2682V11.8242H98.0176V5.91212Z" fill="black" />
    <path d="M98.0176 0H92.2682V5.91212H98.0176L98.0176 0Z" fill="black" />
    <path d="M92.2682 100.529H86.5141V106.445H92.2682L92.2682 100.529Z" fill="black" />
    <path d="M92.2682 94.6165H86.5141V100.529H92.2682V94.6165Z" fill="black" />
    <path d="M92.2682 88.7044H86.5141V94.6165H92.2682L92.2682 88.7044Z" fill="black" />
    <path d="M92.2682 70.9635H86.5141V76.8756H92.2682V70.9635Z" fill="black" />
    <path d="M92.2682 29.5651H86.5141V35.4818H92.2682V29.5651Z" fill="black" />
    <path d="M92.2682 11.8242H86.5141V17.7409H92.2682V11.8242Z" fill="black" />
    <path d="M92.2682 5.91212H86.5141V11.8242H92.2682V5.91212Z" fill="black" />
    <path d="M92.2682 0H86.5141V5.91212H92.2682V0Z" fill="black" />
    <path d="M86.5141 100.529H80.7601V106.445H86.5141V100.529Z" fill="black" />
    <path d="M86.5141 88.7044H80.7601V94.6165H86.5141V88.7044Z" fill="black" />
    <path d="M86.5141 82.7878H80.7601V88.7044H86.5141V82.7878Z" fill="black" />
    <path d="M86.5141 70.9635H80.7601V76.8756H86.5141V70.9635Z" fill="black" />
    <path d="M86.5141 35.4818H80.7601V41.3939H86.5141V35.4818Z" fill="black" />
    <path d="M86.5141 29.5651H80.7601V35.4818H86.5141V29.5651Z" fill="black" />
    <path d="M86.5141 11.8242H80.7601V17.7409H86.5141V11.8242Z" fill="black" />
    <path d="M86.5141 5.91212H80.7601V11.8242H86.5141V5.91212Z" fill="black" />
    <path d="M86.5141 0H80.7601V5.91212H86.5141V0Z" fill="black" />
    <path d="M80.7601 100.529H75.0107V106.445H80.7601V100.529Z" fill="black" />
    <path d="M80.7601 88.7044H75.0107V94.6165H80.7601V88.7044Z" fill="black" />
    <path d="M80.7601 82.7878H75.0107V88.7044H80.7601V82.7878Z" fill="black" />
    <path d="M80.7601 76.8756H75.0107V82.7878H80.7601V76.8756Z" fill="black" />
    <path d="M80.7601 70.9635H75.0107V76.8756H80.7601V70.9635Z" fill="black" />
    <path d="M80.7601 17.7409H75.0107V23.653H80.7601V17.7409Z" fill="black" />
    <path d="M80.7601 11.8242H75.0107V17.7409H80.7601V11.8242Z" fill="black" />
    <path d="M80.7601 5.91212H75.0107V11.8242H80.7601V5.91212Z" fill="black" />
    <path d="M80.7601 0H75.0107V5.91212H80.7601V0Z" fill="black" />
    <path d="M75.0107 100.529H69.2566V106.445H75.0107V100.529Z" fill="black" />
    <path d="M75.0107 88.7044H69.2566V94.6165H75.0107V88.7044Z" fill="black" />
    <path d="M75.0107 70.9635H69.2566V76.8756H75.0107V70.9635Z" fill="black" />
    <path d="M75.0107 53.2227H69.2566V59.1348H75.0107V53.2227Z" fill="black" />
    <path d="M75.0107 47.306L69.2566 47.306V53.2227H75.0107V47.306Z" fill="black" />
    <path d="M75.0107 29.5651H69.2566V35.4818H75.0107V29.5651Z" fill="black" />
    <path d="M75.0107 23.653H69.2566V29.5651H75.0107V23.653Z" fill="black" />
    <path d="M75.0107 17.7409H69.2566V23.653H75.0107V17.7409Z" fill="black" />
    <path d="M75.0107 11.8242H69.2566V17.7409H75.0107V11.8242Z" fill="black" />
    <path d="M75.0107 5.91212H69.2566V11.8242H75.0107V5.91212Z" fill="black" />
    <path d="M75.0107 0H69.2566V5.91212H75.0107V0Z" fill="black" />
    <path d="M69.2566 100.529H63.5026V106.445H69.2566V100.529Z" fill="black" />
    <path d="M69.2566 88.7044H63.5026V94.6165H69.2566V88.7044Z" fill="black" />
    <path d="M69.2566 70.9635H63.5026V76.8756H69.2566V70.9635Z" fill="black" />
    <path d="M69.2566 65.0469H63.5026V70.9635H69.2566V65.0469Z" fill="black" />
    <path d="M69.2566 59.1348H63.5026V65.0469H69.2566V59.1348Z" fill="black" />
    <path d="M69.2566 53.2227H63.5026V59.1348H69.2566V53.2227Z" fill="black" />
    <path d="M69.2566 41.3939H63.5026V47.306L69.2566 47.306V41.3939Z" fill="black" />
    <path d="M69.2566 35.4818H63.5026V41.3939H69.2566V35.4818Z" fill="black" />
    <path d="M69.2566 17.7409H63.5026V23.653H69.2566V17.7409Z" fill="black" />
    <path d="M69.2566 11.8242H63.5026V17.7409H69.2566V11.8242Z" fill="black" />
    <path d="M69.2566 5.91212H63.5026V11.8242H69.2566V5.91212Z" fill="black" />
    <path d="M69.2566 0H63.5026V5.91212H69.2566V0Z" fill="black" />
    <path d="M63.5026 106.445H57.7531V112.357H63.5026V106.445Z" fill="black" />
    <path d="M63.5026 100.529H57.7531V106.445H63.5026V100.529Z" fill="black" />
    <path d="M63.5026 82.7878H57.7531V88.7044H63.5026V82.7878Z" fill="black" />
    <path d="M63.5026 76.8756H57.7531V82.7878H63.5026V76.8756Z" fill="black" />
    <path d="M63.5026 41.3939H57.7531V47.306H63.5026V41.3939Z" fill="black" />
    <path d="M63.5026 17.7409H57.7531V23.653H63.5026V17.7409Z" fill="black" />
    <path d="M63.5026 11.8242H57.7531V17.7409H63.5026V11.8242Z" fill="black" />
    <path d="M63.5026 5.91212H57.7531V11.8242H63.5026V5.91212Z" fill="black" />
    <path d="M63.5026 0H57.7531V5.91212H63.5026V0Z" fill="black" />
    <path d="M57.7531 106.445H51.9991V112.357H57.7531V106.445Z" fill="black" />
    <path d="M57.7531 94.6165H51.9991L51.9991 100.529H57.7531V94.6165Z" fill="black" />
    <path d="M57.7531 88.7044H51.9991V94.6165H57.7531V88.7044Z" fill="black" />
    <path d="M57.7531 82.7878H51.9991V88.7044H57.7531V82.7878Z" fill="black" />
    <path d="M57.7531 76.8756H51.9991L51.9991 82.7878H57.7531V76.8756Z" fill="black" />
    <path d="M57.7531 41.3939H51.9991L51.9991 47.306H57.7531V41.3939Z" fill="black" />
    <path d="M57.7531 17.7409H51.9991V23.653H57.7531V17.7409Z" fill="black" />
    <path d="M57.7531 11.8242H51.9991V17.7409H57.7531V11.8242Z" fill="black" />
    <path d="M57.7531 5.91212H51.9991V11.8242H57.7531V5.91212Z" fill="black" />
    <path d="M57.7531 0H51.9991V5.91212H57.7531V0Z" fill="black" />
    <path d="M51.9991 106.445H46.2451V112.357H51.9991V106.445Z" fill="black" />
    <path d="M51.9991 94.6165H46.2451L46.2451 100.529H51.9991L51.9991 94.6165Z" fill="black" />
    <path d="M51.9991 76.8756H46.2451V82.7878H51.9991L51.9991 76.8756Z" fill="black" />
    <path d="M51.9991 29.5651H46.2451V35.4818H51.9991V29.5651Z" fill="black" />
    <path d="M51.9991 23.653H46.2451V29.5651H51.9991V23.653Z" fill="black" />
    <path d="M51.9991 17.7409H46.2451V23.653H51.9991V17.7409Z" fill="black" />
    <path d="M51.9991 11.8242H46.2451V17.7409H51.9991V11.8242Z" fill="black" />
    <path d="M51.9991 5.91212H46.2451V11.8242H51.9991V5.91212Z" fill="black" />
    <path d="M51.9991 0H46.2451V5.91212H51.9991V0Z" fill="black" />
    <path d="M46.2451 106.445H40.4956V112.357H46.2451V106.445Z" fill="black" />
    <path d="M46.2451 94.6165H40.4956V100.529H46.2451L46.2451 94.6165Z" fill="black" />
    <path d="M46.2451 76.8756H40.4956V82.7878H46.2451V76.8756Z" fill="black" />
    <path d="M46.2451 29.5651H40.4956V35.4818H46.2451V29.5651Z" fill="black" />
    <path d="M46.2451 23.653H40.4956V29.5651H46.2451V23.653Z" fill="black" />
    <path d="M46.2451 17.7409H40.4956V23.653H46.2451V17.7409Z" fill="black" />
    <path d="M46.2451 11.8242H40.4956V17.7409H46.2451V11.8242Z" fill="black" />
    <path d="M46.2451 5.91212H40.4956V11.8242H46.2451V5.91212Z" fill="black" />
    <path d="M46.2451 0H40.4956V5.91212H46.2451V0Z" fill="black" />
    <path d="M40.4956 106.445H34.7416V112.357H40.4956V106.445Z" fill="black" />
    <path d="M40.4956 94.6165H34.7416V100.529H40.4956V94.6165Z" fill="black" />
    <path d="M40.4956 35.4818H34.7416V41.3939H40.4956V35.4818Z" fill="black" />
    <path d="M40.4956 29.5651H34.7416V35.4818H40.4956V29.5651Z" fill="black" />
    <path d="M40.4956 23.653H34.7416V29.5651H40.4956V23.653Z" fill="black" />
    <path d="M40.4956 17.7409H34.7416V23.653H40.4956V17.7409Z" fill="black" />
    <path d="M40.4956 11.8242H34.7416V17.7409H40.4956V11.8242Z" fill="black" />
    <path d="M40.4956 5.91212H34.7416V11.8242H40.4956V5.91212Z" fill="black" />
    <path d="M34.7416 106.445H28.9875V112.357H34.7416V106.445Z" fill="black" />
    <path d="M34.7416 94.6165H28.9875V100.529H34.7416V94.6165Z" fill="black" />
    <path d="M34.7416 59.1348H28.9875V65.0469H34.7416V59.1348Z" fill="black" />
    <path d="M34.7416 41.3939H28.9875V47.306H34.7416V41.3939Z" fill="black" />
    <path d="M34.7416 35.4818H28.9875V41.3939H34.7416V35.4818Z" fill="black" />
    <path d="M34.7416 29.5651H28.9875V35.4818H34.7416V29.5651Z" fill="black" />
    <path d="M34.7416 23.653H28.9875V29.5651H34.7416V23.653Z" fill="black" />
    <path d="M34.7416 17.7409H28.9875V23.653H34.7416V17.7409Z" fill="black" />
    <path d="M34.7416 11.8242H28.9875V17.7409H34.7416V11.8242Z" fill="black" />
    <path d="M34.7416 5.91212H28.9875V11.8242H34.7416V5.91212Z" fill="black" />
    <path d="M28.9875 106.445H23.2381V112.357H28.9875V106.445Z" fill="black" />
    <path d="M28.9875 88.7044H23.2381V94.6165H28.9875V88.7044Z" fill="black" />
    <path d="M28.9875 70.9635H23.2381V76.8756H28.9875V70.9635Z" fill="black" />
    <path d="M28.9875 65.0469H23.2381V70.9635H28.9875V65.0469Z" fill="black" />
    <path d="M28.9875 59.1348H23.2381V65.0469H28.9875V59.1348Z" fill="black" />
    <path d="M28.9875 41.3939H23.2381V47.306H28.9875V41.3939Z" fill="black" />
    <path d="M28.9875 35.4818H23.2381V41.3939H28.9875V35.4818Z" fill="black" />
    <path d="M28.9875 29.5651H23.2381V35.4818H28.9875V29.5651Z" fill="black" />
    <path d="M28.9875 23.653H23.2381V29.5651H28.9875V23.653Z" fill="black" />
    <path d="M28.9875 17.7409H23.2381V23.653H28.9875V17.7409Z" fill="black" />
    <path d="M28.9875 11.8242H23.2381V17.7409H28.9875V11.8242Z" fill="black" />
    <path d="M28.9875 5.91212H23.2381V11.8242H28.9875V5.91212Z" fill="black" />
    <path d="M23.2381 106.445H17.4841V112.357H23.2381V106.445Z" fill="black" />
    <path d="M23.2381 88.7044H17.4841V94.6165H23.2381V88.7044Z" fill="black" />
    <path d="M23.2381 76.8756H17.4841V82.7878H23.2381V76.8756Z" fill="black" />
    <path d="M23.2381 70.9635H17.4841V76.8756H23.2381V70.9635Z" fill="black" />
    <path d="M23.2381 65.0469H17.4841V70.9635H23.2381V65.0469Z" fill="black" />
    <path d="M23.2381 59.1348H17.4841V65.0469H23.2381V59.1348Z" fill="black" />
    <path d="M23.2381 53.2227H17.4841V59.1348H23.2381V53.2227Z" fill="black" />
    <path d="M23.2381 47.306H17.4841V53.2227H23.2381V47.306Z" fill="black" />
    <path d="M23.2381 41.3939H17.4841V47.306H23.2381V41.3939Z" fill="black" />
    <path d="M23.2381 35.4818H17.4841V41.3939H23.2381V35.4818Z" fill="black" />
    <path d="M23.2381 29.5651H17.4841V35.4818H23.2381V29.5651Z" fill="black" />
    <path d="M23.2381 23.653H17.4841V29.5651H23.2381V23.653Z" fill="black" />
    <path d="M23.2381 17.7409H17.4841V23.653H23.2381V17.7409Z" fill="black" />
    <path d="M23.2381 11.8242H17.4841V17.7409H23.2381V11.8242Z" fill="black" />
    <path d="M23.2381 5.91212H17.4841V11.8242H23.2381V5.91212Z" fill="black" />
    <path d="M17.4841 100.529H11.73V106.445H17.4841V100.529Z" fill="black" />
    <path d="M17.4841 82.7878H11.73V88.7044H17.4841V82.7878Z" fill="black" />
    <path d="M17.4841 76.8756H11.73V82.7878H17.4841V76.8756Z" fill="black" />
    <path d="M17.4841 70.9635H11.73V76.8756H17.4841V70.9635Z" fill="black" />
    <path d="M17.4841 65.0469H11.73V70.9635H17.4841V65.0469Z" fill="black" />
    <path d="M17.4841 59.1348H11.73V65.0469H17.4841V59.1348Z" fill="black" />
    <path d="M17.4841 53.2227H11.73V59.1348H17.4841V53.2227Z" fill="black" />
    <path d="M17.4841 47.306H11.73V53.2227H17.4841V47.306Z" fill="black" />
    <path d="M17.4841 41.3939H11.73V47.306H17.4841V41.3939Z" fill="black" />
    <path d="M17.4841 35.4818H11.73V41.3939H17.4841V35.4818Z" fill="black" />
    <path d="M17.4841 29.5651H11.73V35.4818H17.4841V29.5651Z" fill="black" />
    <path d="M17.4841 23.653H11.73V29.5651H17.4841V23.653Z" fill="black" />
    <path d="M17.4841 17.7409H11.73V23.653H17.4841V17.7409Z" fill="black" />
    <path d="M17.4841 11.8242H11.73V17.7409H17.4841V11.8242Z" fill="black" />
    <path d="M11.73 100.529H5.9806V106.445H11.73V100.529Z" fill="black" />
    <path d="M11.73 88.7044H5.9806V94.6165H11.73V88.7044Z" fill="black" />
    <path d="M11.73 70.9635H5.9806V76.8756H11.73V70.9635Z" fill="black" />
    <path d="M11.73 65.0469H5.9806V70.9635H11.73V65.0469Z" fill="black" />
    <path d="M11.73 59.1348H5.9806V65.0469H11.73V59.1348Z" fill="black" />
    <path d="M11.73 53.2227H5.9806V59.1348H11.73V53.2227Z" fill="black" />
    <path d="M11.73 47.306H5.9806V53.2227H11.73V47.306Z" fill="black" />
    <path d="M11.73 41.3939H5.9806V47.306H11.73V41.3939Z" fill="black" />
    <path d="M11.73 35.4818H5.9806V41.3939H11.73V35.4818Z" fill="black" />
    <path d="M11.73 29.5651H5.9806V35.4818H11.73V29.5651Z" fill="black" />
    <path d="M11.73 23.653H5.9806V29.5651H11.73V23.653Z" fill="black" />
    <path d="M11.73 17.7409H5.9806V23.653H11.73V17.7409Z" fill="black" />
    <path d="M5.9806 100.529H0.226562V106.445H5.9806V100.529Z" fill="black" />
    <path d="M5.9806 94.6165H0.226562V100.529H5.9806V94.6165Z" fill="black" />
    <path d="M5.9806 59.1348H0.226562V65.0469H5.9806V59.1348Z" fill="black" />
    <path d="M5.9806 53.2227H0.226562V59.1348H5.9806V53.2227Z" fill="black" />
    <path d="M5.9806 47.306H0.226562V53.2227H5.9806V47.306Z" fill="black" />
    <path d="M5.9806 41.3939H0.226562V47.306H5.9806V41.3939Z" fill="black" />
    <path d="M5.9806 35.4818H0.226562V41.3939H5.9806V35.4818Z" fill="black" />
    <path d="M5.9806 29.5651H0.226562V35.4818H5.9806V29.5651Z" fill="black" />
    <path d="M5.9806 23.653H0.226562V29.5651H5.9806V23.653Z" fill="black" />
    <defs>
        <linearGradient id="paint0_linear_4068_13641" x1="0.226562" y1="56.1787" x2="103.772" y2="56.1787" gradientUnits="userSpaceOnUse">
            <stop stop-color="#D6FFBB" />
            <stop offset="1" stop-color="#5869DD" />
        </linearGradient>
        <linearGradient id="paint1_linear_4068_13641" x1="0.226562" y1="56.1787" x2="103.772" y2="56.1787" gradientUnits="userSpaceOnUse">
            <stop stop-color="#D6FFBB" />
            <stop offset="1" stop-color="#5869DD" />
        </linearGradient>
        <linearGradient id="paint2_linear_4068_13641" x1="0.226562" y1="56.1787" x2="103.772" y2="56.1787" gradientUnits="userSpaceOnUse">
            <stop stop-color="#D6FFBB" />
            <stop offset="1" stop-color="#5869DD" />
        </linearGradient>
        <linearGradient id="paint3_linear_4068_13641" x1="0.226562" y1="56.1787" x2="103.772" y2="56.1787" gradientUnits="userSpaceOnUse">
            <stop stop-color="#D6FFBB" />
            <stop offset="1" stop-color="#5869DD" />
        </linearGradient>
        <linearGradient id="paint4_linear_4068_13641" x1="0.226562" y1="56.1787" x2="103.772" y2="56.1787" gradientUnits="userSpaceOnUse">
            <stop stop-color="#D6FFBB" />
            <stop offset="1" stop-color="#5869DD" />
        </linearGradient>
        <linearGradient id="paint5_linear_4068_13641" x1="0.226562" y1="56.1787" x2="103.772" y2="56.1787" gradientUnits="userSpaceOnUse">
            <stop stop-color="#D6FFBB" />
            <stop offset="1" stop-color="#5869DD" />
        </linearGradient>
        <linearGradient id="paint6_linear_4068_13641" x1="0.226562" y1="56.1787" x2="103.772" y2="56.1787" gradientUnits="userSpaceOnUse">
            <stop stop-color="#D6FFBB" />
            <stop offset="1" stop-color="#5869DD" />
        </linearGradient>
        <linearGradient id="paint7_linear_4068_13641" x1="0.226562" y1="56.1787" x2="103.772" y2="56.1787" gradientUnits="userSpaceOnUse">
            <stop stop-color="#D6FFBB" />
            <stop offset="1" stop-color="#5869DD" />
        </linearGradient>
        <linearGradient id="paint8_linear_4068_13641" x1="0.226562" y1="56.1787" x2="103.772" y2="56.1787" gradientUnits="userSpaceOnUse">
            <stop stop-color="#D6FFBB" />
            <stop offset="1" stop-color="#5869DD" />
        </linearGradient>
        <linearGradient id="paint9_linear_4068_13641" x1="0.226562" y1="56.1787" x2="103.772" y2="56.1787" gradientUnits="userSpaceOnUse">
            <stop stop-color="#D6FFBB" />
            <stop offset="1" stop-color="#5869DD" />
        </linearGradient>
        <linearGradient id="paint10_linear_4068_13641" x1="0.226562" y1="56.1787" x2="103.772" y2="56.1787" gradientUnits="userSpaceOnUse">
            <stop stop-color="#D6FFBB" />
            <stop offset="1" stop-color="#5869DD" />
        </linearGradient>
        <linearGradient id="paint11_linear_4068_13641" x1="0.226562" y1="56.1787" x2="103.772" y2="56.1787" gradientUnits="userSpaceOnUse">
            <stop stop-color="#D6FFBB" />
            <stop offset="1" stop-color="#5869DD" />
        </linearGradient>
        <linearGradient id="paint12_linear_4068_13641" x1="0.226562" y1="56.1787" x2="103.772" y2="56.1787" gradientUnits="userSpaceOnUse">
            <stop stop-color="#D6FFBB" />
            <stop offset="1" stop-color="#5869DD" />
        </linearGradient>
        <linearGradient id="paint13_linear_4068_13641" x1="0.226562" y1="56.1787" x2="103.772" y2="56.1787" gradientUnits="userSpaceOnUse">
            <stop stop-color="#D6FFBB" />
            <stop offset="1" stop-color="#5869DD" />
        </linearGradient>
        <linearGradient id="paint14_linear_4068_13641" x1="0.226562" y1="56.1787" x2="103.772" y2="56.1787" gradientUnits="userSpaceOnUse">
            <stop stop-color="#D6FFBB" />
            <stop offset="1" stop-color="#5869DD" />
        </linearGradient>
        <linearGradient id="paint15_linear_4068_13641" x1="0.226562" y1="56.1787" x2="103.772" y2="56.1787" gradientUnits="userSpaceOnUse">
            <stop stop-color="#D6FFBB" />
            <stop offset="1" stop-color="#5869DD" />
        </linearGradient>
        <linearGradient id="paint16_linear_4068_13641" x1="0.226562" y1="56.1787" x2="103.772" y2="56.1787" gradientUnits="userSpaceOnUse">
            <stop stop-color="#D6FFBB" />
            <stop offset="1" stop-color="#5869DD" />
        </linearGradient>
        <linearGradient id="paint17_linear_4068_13641" x1="0.226562" y1="56.1787" x2="103.772" y2="56.1787" gradientUnits="userSpaceOnUse">
            <stop stop-color="#D6FFBB" />
            <stop offset="1" stop-color="#5869DD" />
        </linearGradient>
    </defs>
</svg>
