<svg xmlns="http://www.w3.org/2000/svg" width="40" height="26" viewBox="0 0 40 26" fill="none">
    <path
        id="Vector"
        d="M16.2091 11.6819C16.2091 11.6819 19.9298 11.4058 19.9298 7.04265C19.9298 2.67923 16.8858 0.549805 13.0299 0.549805H0.341553V24.9332H13.0299C13.0299 24.9332 20.7756 25.1779 20.7756 17.7363C20.7756 17.7363 21.1133 11.6819 16.2091 11.6819ZM13.0299 4.8836C13.0299 4.8836 14.7546 4.8836 14.7546 7.42059C14.7546 9.95718 13.7403 10.325 12.5898 10.325H5.93218V4.8836H13.0299ZM12.6713 20.5994H5.93218V14.0832H13.0299C13.0299 14.0832 15.6005 14.0495 15.6005 17.432C15.6005 20.2839 13.6805 20.5779 12.6713 20.5994ZM31.1059 6.75358C21.7288 6.75358 21.7372 16.1223 21.7372 16.1223C21.7372 16.1223 21.0938 25.4431 31.1059 25.4431C31.1059 25.4431 39.4493 25.9197 39.4493 18.9592H35.1585C35.1585 18.9592 35.3016 21.5804 31.2491 21.5804C31.2491 21.5804 26.9575 21.868 26.9575 17.3382H39.5923C39.5923 17.3382 40.9749 6.75358 31.1059 6.75358ZM26.9104 14.0832C26.9104 14.0832 27.4343 10.325 31.2012 10.325C34.9674 10.325 34.9203 14.0832 34.9203 14.0832H26.9104ZM35.9198 4.98886H25.8598V1.98622H35.9198V4.98886Z"
        fill="black"
    />
</svg>
