<svg xmlns="http://www.w3.org/2000/svg" width="522" height="541" viewBox="0 0 522 541" fill="none">
    <path d="M92.9545 28.1175L106.175 25.7201L92.9545 28.1175Z" fill="black" />
    <path
        d="M119.427 23.6015L132.763 21.739C132.791 21.7372 132.819 21.7468 132.841 21.7659C132.863 21.7851 132.879 21.8125 132.884 21.8432C132.888 21.8596 132.888 21.8765 132.885 21.8929C132.882 21.9094 132.876 21.9249 132.868 21.9385C132.859 21.9521 132.848 21.9636 132.835 21.9721C132.822 21.9805 132.808 21.9859 132.793 21.9878L119.453 23.7604C119.434 23.7613 119.415 23.7538 119.401 23.7395C119.387 23.7251 119.378 23.7052 119.377 23.684C119.376 23.6628 119.383 23.6421 119.396 23.6265C119.408 23.6108 119.426 23.6015 119.445 23.6006L119.427 23.6015Z"
        fill="black"
    />
    <path
        d="M146.047 20.1395L159.407 18.7664C159.434 18.7583 159.463 18.7571 159.49 18.7629C159.518 18.7687 159.544 18.7813 159.567 18.7999C159.59 18.8185 159.609 18.8425 159.623 18.8702C159.636 18.898 159.644 18.9287 159.645 18.9601C159.647 18.9915 159.642 19.0228 159.631 19.0517C159.621 19.0806 159.604 19.1064 159.583 19.1271C159.562 19.1478 159.537 19.163 159.51 19.1714C159.483 19.1799 159.455 19.1814 159.427 19.176L146.063 20.4591C146.025 20.461 145.988 20.4459 145.96 20.4173C145.931 20.3886 145.914 20.3487 145.912 20.3063C145.91 20.2639 145.923 20.2225 145.949 20.1913C145.974 20.16 146.009 20.1414 146.047 20.1395Z"
        fill="black"
    />
    <path
        d="M172.762 17.6239L186.143 16.6903C186.18 16.6806 186.219 16.6802 186.256 16.6891C186.293 16.6979 186.329 16.7159 186.359 16.7416C186.39 16.7674 186.415 16.8003 186.433 16.838C186.451 16.8758 186.462 16.9174 186.464 16.96C186.466 17.0026 186.46 17.045 186.445 17.0843C186.431 17.1237 186.409 17.1589 186.381 17.1875C186.353 17.2161 186.32 17.2374 186.283 17.2499C186.247 17.2623 186.209 17.2657 186.171 17.2596L172.786 18.1133C172.756 18.1161 172.727 18.1124 172.699 18.1024C172.671 18.0924 172.644 18.0763 172.622 18.0551C172.599 18.0339 172.58 18.008 172.567 17.9788C172.553 17.9496 172.544 17.9177 172.542 17.885C172.54 17.8513 172.544 17.8177 172.555 17.7861C172.565 17.7546 172.581 17.7258 172.601 17.7014C172.622 17.677 172.647 17.6576 172.674 17.6443C172.702 17.631 172.732 17.624 172.762 17.6239Z"
        fill="black"
    />
    <path
        d="M199.534 15.9559L212.934 15.4118C212.978 15.4083 213.021 15.4148 213.062 15.431C213.103 15.4472 213.141 15.4728 213.173 15.5061C213.205 15.5394 213.23 15.5796 213.248 15.6243C213.265 15.669 213.274 15.7172 213.274 15.7657C213.279 15.8637 213.249 15.9594 213.19 16.0317C213.131 16.1041 213.049 16.1471 212.962 16.1514L199.557 16.6155C199.479 16.6194 199.403 16.5883 199.344 16.5292C199.286 16.4701 199.251 16.3877 199.247 16.3003C199.242 16.2129 199.269 16.1276 199.321 16.0631C199.374 15.9985 199.447 15.9601 199.525 15.9563L199.534 15.9559Z"
        fill="black"
    />
    <path
        d="M226.353 15.0373L239.769 14.8328C239.876 14.8276 239.981 14.87 240.06 14.9506C240.14 15.0312 240.187 15.1435 240.193 15.2627C240.199 15.3819 240.162 15.4983 240.091 15.5862C240.02 15.6742 239.92 15.7266 239.813 15.7318L226.393 15.8563C226.344 15.8587 226.295 15.8502 226.249 15.8312C226.203 15.8122 226.16 15.7831 226.124 15.7457C226.088 15.7082 226.059 15.6632 226.039 15.6132C226.019 15.5633 226.007 15.5094 226.006 15.4547C226.005 15.3484 226.041 15.2462 226.105 15.1688C226.169 15.0913 226.258 15.0443 226.353 15.0373Z"
        fill="black"
    />
    <path
        d="M253.185 14.7791L266.617 14.8843C266.686 14.8631 266.758 14.8601 266.829 14.8755C266.9 14.8909 266.966 14.9244 267.024 14.9733C267.081 15.0222 267.128 15.0852 267.16 15.1573C267.192 15.2294 267.209 15.3087 267.21 15.389C267.21 15.4692 267.194 15.5483 267.162 15.6199C267.13 15.6916 267.084 15.7539 267.027 15.802C266.97 15.85 266.904 15.8826 266.833 15.8971C266.763 15.9115 266.69 15.9075 266.621 15.8853L253.186 15.7302C253.128 15.7297 253.069 15.7164 253.015 15.6908C252.96 15.6653 252.911 15.6281 252.869 15.5813C252.827 15.5346 252.794 15.4791 252.772 15.4183C252.749 15.3574 252.737 15.2922 252.737 15.2265C252.736 15.1608 252.748 15.0958 252.77 15.0352C252.792 14.9746 252.825 14.9197 252.866 14.8735C252.908 14.8273 252.957 14.7908 253.011 14.7661C253.065 14.7413 253.124 14.7288 253.182 14.7292L253.185 14.7791Z"
        fill="black"
    />
    <path
        d="M280.019 15.1301L293.463 15.475C293.53 15.4768 293.596 15.4934 293.658 15.5239C293.719 15.5544 293.775 15.5981 293.822 15.6526C293.869 15.707 293.905 15.7712 293.93 15.8413C293.955 15.9114 293.967 15.9862 293.966 16.0612C293.965 16.1349 293.951 16.2076 293.924 16.2749C293.898 16.3423 293.86 16.4031 293.813 16.4538C293.766 16.5045 293.71 16.5441 293.648 16.5704C293.587 16.5966 293.521 16.609 293.455 16.6067L280.008 16.2019C279.879 16.1979 279.756 16.1373 279.666 16.033C279.575 15.9288 279.524 15.7893 279.525 15.6448C279.529 15.5029 279.584 15.3692 279.676 15.2729C279.769 15.1765 279.892 15.1252 280.019 15.1301Z"
        fill="black"
    />
    <path
        d="M306.85 15.9636L320.305 16.5381C320.455 16.5534 320.595 16.6347 320.693 16.7641C320.79 16.8936 320.839 17.0607 320.827 17.2285C320.815 17.3964 320.743 17.5514 320.629 17.6593C320.514 17.7672 320.365 17.8193 320.215 17.8041L306.811 17.1869C306.742 17.1844 306.673 17.1666 306.61 17.1345C306.546 17.1025 306.489 17.0568 306.441 17.0001C306.344 16.8856 306.291 16.7332 306.294 16.5764C306.297 16.4196 306.355 16.2712 306.457 16.1639C306.558 16.0567 306.694 15.9993 306.834 16.0044L306.85 15.9636Z"
        fill="black"
    />
    <path
        d="M333.676 17.2069L347.077 17.9643C347.159 17.9611 347.24 17.9769 347.316 18.0106C347.393 18.0443 347.462 18.0952 347.52 18.1602C347.578 18.2251 347.623 18.3026 347.653 18.3878C347.683 18.473 347.697 18.5641 347.694 18.6552C347.691 18.7464 347.671 18.8356 347.636 18.9173C347.6 18.9991 347.55 19.0715 347.488 19.13C347.426 19.1885 347.353 19.2319 347.275 19.2574C347.197 19.2828 347.115 19.2899 347.034 19.278L333.675 18.4784C333.534 18.4572 333.404 18.3775 333.311 18.2551C333.218 18.1327 333.169 17.9764 333.173 17.8169C333.178 17.6574 333.236 17.5061 333.335 17.3929C333.435 17.2797 333.569 17.2128 333.712 17.2051L333.676 17.2069Z"
        fill="black"
    />
    <path
        d="M360.492 18.7813L373.89 19.6691C374.058 19.6811 374.216 19.7669 374.328 19.9078C374.441 20.0487 374.499 20.2331 374.491 20.4207C374.488 20.5131 374.468 20.6036 374.433 20.687C374.398 20.7704 374.349 20.8451 374.288 20.9068C374.227 20.9684 374.155 21.0158 374.077 21.0461C373.999 21.0764 373.917 21.0892 373.834 21.0835L360.433 20.1458C360.353 20.141 360.274 20.1184 360.201 20.0794C360.128 20.0404 360.063 19.9857 360.009 19.9185C359.955 19.8513 359.913 19.773 359.886 19.688C359.859 19.603 359.847 19.513 359.852 19.4233C359.863 19.2439 359.936 19.0771 360.055 18.9576C360.174 18.838 360.331 18.7749 360.492 18.7813Z"
        fill="black"
    />
    <path
        d="M387.291 20.6163L400.694 21.594C400.869 21.6118 401.031 21.7054 401.146 21.8548C401.261 22.0042 401.32 22.1975 401.31 22.3931C401.299 22.5888 401.221 22.7712 401.091 22.9014C400.961 23.0316 400.79 23.0992 400.615 23.0896L387.218 22.0616C387.133 22.0552 387.05 22.0302 386.973 21.988C386.897 21.9458 386.828 21.8873 386.771 21.8157C386.715 21.7441 386.671 21.6608 386.643 21.5707C386.615 21.4806 386.603 21.3854 386.608 21.2905C386.612 21.1956 386.634 21.1028 386.671 21.0176C386.708 20.9324 386.759 20.8563 386.823 20.7937C386.886 20.7311 386.96 20.6832 387.041 20.6528C387.121 20.6223 387.206 20.61 387.291 20.6163Z"
        fill="black"
    />
    <path
        d="M414.09 22.6123L427.48 23.6907C427.573 23.6973 427.665 23.7246 427.749 23.771C427.833 23.8173 427.909 23.8818 427.971 23.9607C428.033 24.0397 428.081 24.1314 428.111 24.2307C428.141 24.33 428.154 24.4348 428.148 24.5391C428.138 24.7506 428.053 24.9482 427.912 25.0884C427.771 25.2285 427.586 25.2998 427.396 25.2866L414.013 24.1679C413.83 24.1517 413.66 24.0556 413.538 23.9004C413.416 23.7451 413.354 23.5433 413.364 23.3386C413.368 23.2369 413.39 23.1374 413.429 23.0457C413.468 22.9541 413.522 22.8721 413.59 22.8045C413.657 22.737 413.736 22.6852 413.822 22.6522C413.908 22.6192 413.999 22.6057 414.09 22.6123Z"
        fill="black"
    />
    <path
        d="M440.877 24.9284L454.249 26.3581C454.352 26.3673 454.453 26.4002 454.544 26.4548C454.636 26.5094 454.717 26.5844 454.782 26.6752C454.847 26.7661 454.894 26.8707 454.922 26.9826C454.949 27.0945 454.955 27.2112 454.94 27.3255C454.933 27.4355 454.905 27.5424 454.86 27.64C454.815 27.7375 454.752 27.8238 454.677 27.8937C454.601 27.9636 454.513 28.0157 454.419 28.0471C454.324 28.0784 454.225 28.0882 454.127 28.0761L440.78 26.6051C440.586 26.5828 440.406 26.475 440.281 26.3055C440.156 26.1361 440.096 25.9188 440.114 25.7015C440.132 25.4842 440.226 25.2847 440.377 25.1469C440.527 25.0091 440.72 24.9442 440.915 24.9666L440.877 24.9284Z"
        fill="black"
    />
    <path
        d="M467.662 28.0968C468.841 28.3345 469.988 28.7501 471.07 29.3321C471.401 29.5232 471.699 29.7802 471.949 30.0901C472.126 30.3067 472.253 30.5678 472.32 30.8507C472.387 31.1336 472.391 31.4298 472.332 31.7134C472.226 32.115 472.053 32.4901 471.822 32.8196C471.648 33.0999 471.461 33.3697 471.262 33.6278C470.478 34.6035 469.592 35.4702 468.622 36.2096C467.686 36.9393 466.715 37.6116 465.713 38.2239C465.624 38.2781 465.527 38.3123 465.426 38.3244C465.326 38.3365 465.224 38.3262 465.126 38.2943C465.029 38.2623 464.937 38.2092 464.858 38.1381C464.778 38.067 464.712 37.9792 464.662 37.8797C464.613 37.7802 464.581 37.671 464.569 37.5584C464.557 37.4457 464.565 37.3317 464.593 37.223C464.62 37.1143 464.667 37.0129 464.73 36.9247C464.792 36.8365 464.87 36.7631 464.959 36.7089C466.881 35.6196 468.625 34.1813 470.122 32.452C470.285 32.2398 470.438 32.0185 470.582 31.7888C470.692 31.6247 470.789 31.4491 470.869 31.2642C470.869 31.2642 470.869 31.2642 470.81 31.1569C470.677 31.0048 470.522 30.8771 470.353 30.7788C469.406 30.2868 468.408 29.9318 467.384 29.7223C467.193 29.6749 467.025 29.5475 466.914 29.3666C466.804 29.1857 466.759 28.9649 466.79 28.7501C466.834 28.5296 466.954 28.3382 467.124 28.2175C467.294 28.0967 467.5 28.0563 467.698 28.105L467.662 28.0968Z"
        fill="black"
    />
    <path
        d="M453.317 44.1147L440.624 48.8693C440.525 48.9139 440.418 48.9351 440.311 48.9319C440.203 48.9286 440.098 48.9008 440 48.8502C439.902 48.7996 439.814 48.7274 439.742 48.6378C439.67 48.5482 439.614 48.4433 439.58 48.3294C439.545 48.2156 439.531 48.0952 439.539 47.9757C439.547 47.8562 439.577 47.7401 439.627 47.6345C439.677 47.5289 439.746 47.4361 439.829 47.3618C439.913 47.2875 440.009 47.2332 440.113 47.2023L452.781 42.4889C452.975 42.4158 453.187 42.4318 453.372 42.5336C453.556 42.6353 453.698 42.8145 453.766 43.0316C453.833 43.2487 453.821 43.4859 453.732 43.6912C453.643 43.8964 453.485 44.0529 453.291 44.126L453.317 44.1147Z"
        fill="black"
    />
    <path
        d="M427.959 53.6729L415.232 58.299C415.134 58.337 415.029 58.3524 414.924 58.3441C414.82 58.3357 414.718 58.3039 414.624 58.2505C414.53 58.1972 414.447 58.1233 414.379 58.0334C414.311 57.9435 414.26 57.8393 414.229 57.7272C414.163 57.5034 414.178 57.2606 414.272 57.0516C414.366 56.8426 414.53 56.6844 414.729 56.6115L427.438 51.9863C427.636 51.9142 427.853 51.9335 428.04 52.0398C428.227 52.1461 428.37 52.3308 428.437 52.5533C428.503 52.7757 428.489 53.0177 428.395 53.226C428.302 53.4342 428.139 53.5917 427.94 53.6638L427.959 53.6729Z"
        fill="black"
    />
    <path
        d="M402.452 62.7374L389.616 66.9683C389.512 67.0136 389.4 67.0341 389.288 67.0286C389.175 67.023 389.065 66.9916 388.964 66.9362C388.862 66.8808 388.772 66.8027 388.699 66.7067C388.625 66.6107 388.57 66.499 388.537 66.3786C388.504 66.2582 388.493 66.1317 388.506 66.0071C388.519 65.8824 388.554 65.7623 388.611 65.6544C388.667 65.5465 388.743 65.453 388.834 65.3799C388.924 65.3068 389.028 65.2556 389.137 65.2296L401.992 61.0178C402.095 60.9716 402.207 60.9502 402.319 60.9549C402.43 60.9596 402.541 60.9903 402.642 61.0451C402.743 61.1 402.833 61.1777 402.906 61.2732C402.979 61.3688 403.034 61.4802 403.067 61.6003C403.1 61.7203 403.11 61.8464 403.096 61.9705C403.083 62.0946 403.047 62.214 402.99 62.321C402.933 62.428 402.856 62.5202 402.765 62.5918C402.674 62.6635 402.57 62.7129 402.461 62.737L402.452 62.7374Z"
        fill="black"
    />
    <path
        d="M376.717 70.9918L363.772 74.7975C363.56 74.8585 363.334 74.8232 363.144 74.6994C362.953 74.5756 362.813 74.3732 362.755 74.1363C362.698 73.9001 362.728 73.6495 362.836 73.4395C362.945 73.2295 363.125 73.0775 363.336 73.0167L376.273 69.2313C376.483 69.1706 376.706 69.2058 376.894 69.3289C377.083 69.4521 377.22 69.6533 377.277 69.8882C377.333 70.1231 377.304 70.3724 377.196 70.5814C377.088 70.7904 376.909 70.942 376.7 71.0026L376.717 70.9918Z"
        fill="black"
    />
    <path
        d="M350.769 78.3863L337.722 81.7565C337.515 81.7866 337.305 81.7294 337.132 81.5961C336.959 81.4628 336.836 81.263 336.787 81.0355C336.738 80.8079 336.766 80.569 336.866 80.3653C336.966 80.1616 337.131 80.0077 337.328 79.9335L350.359 76.5841C350.574 76.5285 350.8 76.5707 350.989 76.7014C351.177 76.832 351.312 77.0405 351.364 77.2809C351.416 77.5213 351.381 77.774 351.266 77.9833C351.151 78.1927 350.966 78.3415 350.752 78.3971L350.769 78.3863Z"
        fill="black"
    />
    <path
        d="M324.619 84.8986L311.478 87.8328C311.29 87.8081 311.114 87.7176 310.974 87.5743C310.833 87.4311 310.737 87.2423 310.698 87.0353C310.659 86.8282 310.68 86.6133 310.757 86.4215C310.834 86.2298 310.964 86.0709 311.128 85.9677L324.296 83.0521C324.404 83.0284 324.515 83.0288 324.624 83.0533C324.732 83.0778 324.836 83.1259 324.928 83.1948C325.02 83.2638 325.1 83.3522 325.162 83.4551C325.224 83.558 325.267 83.6733 325.29 83.7945C325.312 83.9157 325.313 84.0404 325.292 84.1614C325.272 84.2824 325.23 84.3974 325.169 84.4999C325.108 84.6023 325.03 84.6901 324.939 84.7584C324.847 84.8267 324.745 84.874 324.636 84.8977L324.619 84.8986Z"
        fill="black"
    />
    <path
        d="M298.3 90.539L285.084 93.0164C284.859 93.0508 284.63 92.9881 284.443 92.841C284.257 92.6939 284.126 92.4735 284.079 92.2245C284.045 91.9712 284.1 91.7145 284.232 91.507C284.363 91.2995 284.561 91.157 284.785 91.1087L297.975 88.6426C298.1 88.5767 298.236 88.5441 298.375 88.5474C298.513 88.5508 298.649 88.5899 298.772 88.6618C298.895 88.7337 299.002 88.8363 299.084 88.9617C299.167 89.0871 299.222 89.2317 299.246 89.3843C299.27 89.5368 299.262 89.6932 299.223 89.8409C299.184 89.9887 299.114 90.124 299.02 90.236C298.926 90.3481 298.809 90.4338 298.68 90.4866C298.55 90.5394 298.411 90.5578 298.274 90.5403L298.3 90.539Z"
        fill="black"
    />
    <path
        d="M271.837 95.2548L258.51 97.3071C258.275 97.3438 258.035 97.2742 257.843 97.1137C257.652 96.9531 257.524 96.7147 257.489 96.4509C257.453 96.1871 257.513 95.9195 257.654 95.707C257.796 95.4945 258.008 95.3545 258.243 95.3177L271.5 93.2889C271.625 93.2354 271.76 93.2142 271.894 93.2271C272.028 93.24 272.158 93.2866 272.275 93.3633C272.391 93.4401 272.491 93.5451 272.567 93.6705C272.642 93.7959 272.692 93.9384 272.712 94.0875C272.731 94.2366 272.721 94.3884 272.681 94.5316C272.641 94.6747 272.572 94.8055 272.48 94.9143C272.388 95.023 272.275 95.1069 272.149 95.1596C272.024 95.2123 271.889 95.2326 271.755 95.2188L271.837 95.2548Z"
        fill="black"
    />
    <path
        d="M245.255 99.1953L231.916 100.988C231.799 101.003 231.681 100.993 231.567 100.957C231.453 100.922 231.347 100.862 231.253 100.78C231.065 100.616 230.942 100.375 230.911 100.111C230.88 99.8468 230.945 99.5811 231.09 99.3722C231.235 99.1632 231.449 99.0282 231.685 98.9968L245.024 97.2142C245.26 97.1828 245.499 97.2575 245.687 97.422C245.876 97.5865 245.999 97.8272 246.03 98.0912C246.06 98.3553 245.996 98.621 245.851 98.8299C245.706 99.0388 245.492 99.1738 245.256 99.2053L245.255 99.1953Z"
        fill="black"
    />
    <path
        d="M218.647 102.747L205.306 104.5C205.189 104.515 205.071 104.505 204.957 104.469C204.843 104.434 204.737 104.374 204.643 104.292C204.455 104.128 204.332 103.887 204.301 103.623C204.27 103.359 204.335 103.093 204.48 102.884C204.625 102.675 204.839 102.54 205.075 102.509L218.415 100.736C218.651 100.705 218.889 100.779 219.078 100.944C219.266 101.108 219.389 101.349 219.42 101.613C219.451 101.877 219.387 102.143 219.241 102.352C219.096 102.561 218.882 102.696 218.647 102.727L218.647 102.747Z"
        fill="black"
    />
    <path
        d="M192.054 106.258L178.716 108.071C178.59 108.123 178.454 108.143 178.32 108.128C178.185 108.114 178.055 108.065 177.939 107.987C177.823 107.908 177.724 107.801 177.65 107.674C177.576 107.547 177.528 107.404 177.51 107.254C177.492 107.104 177.505 106.952 177.548 106.809C177.59 106.666 177.661 106.536 177.755 106.429C177.849 106.322 177.964 106.24 178.091 106.19C178.217 106.14 178.353 106.123 178.488 106.14L191.825 104.317C192.056 104.289 192.288 104.362 192.473 104.522C192.658 104.681 192.781 104.913 192.816 105.17C192.841 105.426 192.777 105.683 192.637 105.885C192.496 106.088 192.291 106.222 192.063 106.258L192.054 106.258Z"
        fill="black"
    />
    <path
        d="M165.462 109.939L152.184 111.889C151.993 111.856 151.817 111.754 151.68 111.6C151.544 111.446 151.456 111.247 151.428 111.033C151.401 110.82 151.435 110.602 151.528 110.414C151.62 110.226 151.764 110.077 151.939 109.989L165.225 108.018C165.423 108.045 165.607 108.144 165.75 108.3C165.893 108.456 165.986 108.66 166.014 108.88C166.042 109.1 166.004 109.324 165.906 109.515C165.807 109.707 165.655 109.856 165.471 109.939L165.462 109.939Z"
        fill="black"
    />
    <path
        d="M138.92 113.938L125.681 116.126C125.571 116.147 125.458 116.143 125.349 116.114C125.24 116.085 125.137 116.032 125.046 115.958C124.955 115.885 124.877 115.792 124.819 115.685C124.76 115.577 124.721 115.459 124.703 115.335C124.686 115.211 124.691 115.085 124.718 114.964C124.744 114.843 124.793 114.73 124.859 114.63C124.926 114.531 125.01 114.447 125.106 114.385C125.202 114.323 125.309 114.282 125.42 114.267L138.632 112.06C138.757 111.989 138.896 111.953 139.038 111.954C139.179 111.955 139.318 111.993 139.445 112.066C139.571 112.138 139.68 112.243 139.764 112.372C139.847 112.5 139.902 112.649 139.925 112.805C139.947 112.961 139.937 113.121 139.893 113.27C139.85 113.42 139.775 113.556 139.675 113.667C139.576 113.777 139.454 113.86 139.319 113.907C139.185 113.954 139.042 113.965 138.902 113.939L138.92 113.938Z"
        fill="black"
    />
    <path
        d="M112.429 118.435C110.196 118.735 107.981 119.003 105.806 119.389C104.714 119.573 103.633 119.796 102.572 120.058C101.534 120.296 100.52 120.644 99.5434 121.097C99.3427 121.195 99.1147 121.2 98.909 121.11C98.7034 121.021 98.5369 120.845 98.4459 120.62C98.4016 120.509 98.3771 120.39 98.374 120.269C98.3709 120.148 98.3891 120.027 98.4277 119.915C98.4663 119.802 98.5244 119.7 98.5988 119.613C98.6732 119.526 98.7623 119.456 98.8612 119.408C99.9416 118.899 101.065 118.509 102.215 118.243C103.329 117.959 104.446 117.734 105.555 117.54C107.783 117.15 109.998 116.872 112.23 116.573C112.339 116.558 112.449 116.568 112.555 116.601C112.661 116.634 112.76 116.69 112.847 116.766C112.933 116.842 113.006 116.936 113.061 117.042C113.116 117.149 113.151 117.267 113.165 117.388C113.179 117.51 113.172 117.633 113.143 117.751C113.115 117.869 113.066 117.979 112.999 118.075C112.932 118.172 112.849 118.252 112.754 118.312C112.659 118.372 112.555 118.41 112.446 118.425L112.429 118.435Z"
        fill="black"
    />
    <path
        d="M107.898 126.856C112.188 128.185 116.543 129.223 120.94 129.964C121.154 130.003 121.347 130.135 121.476 130.331C121.605 130.528 121.659 130.773 121.627 131.012C121.594 131.251 121.478 131.465 121.304 131.607C121.13 131.749 120.911 131.807 120.697 131.768C116.231 131.016 111.806 129.965 107.447 128.62C107.239 128.549 107.063 128.389 106.957 128.175C106.851 127.961 106.824 127.71 106.881 127.477C106.91 127.361 106.959 127.253 107.025 127.16C107.092 127.066 107.174 126.988 107.268 126.93C107.361 126.873 107.465 126.837 107.571 126.824C107.678 126.811 107.786 126.822 107.889 126.857L107.898 126.856Z"
        fill="black"
    />
    <path
        d="M134.241 132.148L147.547 134.061C147.75 134.095 147.934 134.214 148.063 134.394C148.191 134.574 148.254 134.801 148.239 135.029C148.215 135.257 148.111 135.465 147.951 135.608C147.791 135.75 147.586 135.816 147.381 135.792L134.04 133.9C133.836 133.868 133.65 133.75 133.519 133.57C133.389 133.39 133.325 133.162 133.34 132.933C133.366 132.704 133.469 132.496 133.628 132.351C133.787 132.205 133.991 132.134 134.197 132.15L134.241 132.148Z"
        fill="black"
    />
    <path
        d="M160.848 135.715L174.204 137.185C174.412 137.21 174.603 137.325 174.736 137.507C174.869 137.688 174.933 137.92 174.914 138.152C174.905 138.267 174.876 138.379 174.828 138.481C174.78 138.583 174.714 138.674 174.634 138.747C174.555 138.819 174.462 138.874 174.363 138.906C174.264 138.938 174.16 138.948 174.057 138.935L160.684 137.475C160.58 137.464 160.479 137.43 160.387 137.376C160.295 137.321 160.213 137.247 160.146 137.157C160.079 137.067 160.029 136.964 159.998 136.852C159.967 136.741 159.956 136.624 159.965 136.509C159.985 136.276 160.086 136.063 160.246 135.914C160.406 135.766 160.613 135.695 160.822 135.716L160.848 135.715Z"
        fill="black"
    />
    <path
        d="M187.57 138.516L200.947 139.685C201.048 139.694 201.146 139.725 201.237 139.776C201.327 139.827 201.408 139.898 201.475 139.984C201.541 140.07 201.592 140.17 201.625 140.277C201.657 140.385 201.67 140.498 201.663 140.611C201.656 140.724 201.63 140.834 201.585 140.934C201.54 141.035 201.477 141.125 201.401 141.198C201.325 141.272 201.236 141.327 201.141 141.362C201.045 141.397 200.943 141.411 200.842 141.402L187.449 140.254C187.345 140.244 187.243 140.211 187.15 140.157C187.056 140.103 186.973 140.029 186.906 139.939C186.838 139.849 186.787 139.745 186.755 139.634C186.724 139.522 186.712 139.404 186.722 139.288C186.728 139.171 186.755 139.057 186.802 138.952C186.849 138.848 186.914 138.756 186.994 138.681C187.074 138.606 187.167 138.55 187.267 138.516C187.368 138.482 187.473 138.472 187.578 138.485L187.57 138.516Z"
        fill="black"
    />
    <path
        d="M214.327 140.743L227.722 141.721C227.92 141.74 228.104 141.845 228.235 142.013C228.367 142.181 228.434 142.4 228.424 142.621C228.414 142.843 228.327 143.05 228.181 143.199C228.035 143.348 227.842 143.426 227.643 143.417L214.241 142.45C214.14 142.443 214.042 142.414 213.951 142.365C213.861 142.315 213.78 142.247 213.712 142.162C213.645 142.078 213.593 141.98 213.559 141.874C213.526 141.768 213.511 141.656 213.516 141.544C213.521 141.432 213.546 141.322 213.589 141.222C213.632 141.121 213.693 141.031 213.767 140.956C213.842 140.882 213.929 140.825 214.023 140.789C214.118 140.752 214.218 140.737 214.319 140.744L214.327 140.743Z"
        fill="black"
    />
    <path
        d="M241.121 142.659L254.52 143.566C254.707 143.587 254.881 143.687 255.004 143.847C255.127 144.007 255.191 144.213 255.181 144.422C255.172 144.631 255.09 144.828 254.953 144.969C254.816 145.111 254.635 145.187 254.447 145.182L241.05 144.314C240.952 144.309 240.855 144.282 240.766 144.235C240.677 144.188 240.597 144.122 240.531 144.04C240.464 143.959 240.413 143.864 240.379 143.76C240.346 143.657 240.331 143.547 240.335 143.438C240.347 143.217 240.436 143.01 240.583 142.863C240.729 142.715 240.922 142.639 241.12 142.649L241.121 142.659Z"
        fill="black"
    />
    <path
        d="M267.922 144.504L281.323 145.432C281.504 145.444 281.674 145.537 281.795 145.688C281.917 145.84 281.98 146.039 281.971 146.241C281.962 146.444 281.881 146.633 281.747 146.767C281.612 146.901 281.435 146.97 281.254 146.957L267.856 146.069C267.764 146.064 267.673 146.038 267.59 145.994C267.506 145.95 267.431 145.888 267.369 145.811C267.307 145.735 267.258 145.646 267.226 145.549C267.195 145.452 267.18 145.349 267.184 145.246C267.188 145.143 267.21 145.043 267.249 144.95C267.287 144.857 267.342 144.774 267.41 144.705C267.478 144.636 267.557 144.583 267.643 144.549C267.73 144.514 267.821 144.499 267.913 144.505L267.922 144.504Z"
        fill="black"
    />
    <path
        d="M294.715 146.38C296.954 146.571 299.203 146.632 301.403 146.774L308.098 147.118C308.186 147.116 308.275 147.133 308.357 147.17C308.44 147.207 308.515 147.263 308.578 147.334C308.64 147.404 308.69 147.489 308.722 147.581C308.755 147.674 308.77 147.773 308.767 147.872C308.763 147.971 308.742 148.068 308.704 148.157C308.665 148.245 308.611 148.324 308.544 148.388C308.476 148.452 308.398 148.5 308.313 148.528C308.229 148.556 308.139 148.564 308.051 148.552L301.34 148.229C299.096 148.099 296.856 148.048 294.627 147.866C294.54 147.861 294.454 147.835 294.376 147.792C294.297 147.749 294.226 147.689 294.169 147.615C294.111 147.542 294.067 147.456 294.039 147.363C294.011 147.27 294 147.173 294.006 147.075C294.017 146.88 294.097 146.698 294.228 146.569C294.36 146.441 294.532 146.376 294.707 146.39L294.715 146.38Z"
        fill="black"
    />
    <path
        d="M321.499 147.505L334.938 147.76C335.017 147.762 335.095 147.78 335.168 147.815C335.24 147.85 335.306 147.901 335.362 147.964C335.417 148.028 335.461 148.102 335.491 148.184C335.521 148.266 335.536 148.354 335.535 148.442C335.536 148.53 335.521 148.617 335.492 148.697C335.462 148.778 335.419 148.852 335.363 148.913C335.308 148.974 335.242 149.023 335.17 149.055C335.097 149.088 335.019 149.104 334.941 149.102L321.504 148.887C321.422 148.887 321.34 148.869 321.264 148.834C321.188 148.799 321.119 148.747 321.061 148.682C321.003 148.616 320.957 148.539 320.925 148.454C320.894 148.369 320.878 148.278 320.879 148.187C320.881 148.002 320.948 147.827 321.066 147.7C321.184 147.572 321.343 147.502 321.508 147.505L321.499 147.505Z"
        fill="black"
    />
    <path
        d="M348.311 147.958L361.747 148.134C361.825 148.125 361.905 148.134 361.981 148.162C362.056 148.19 362.126 148.236 362.185 148.296C362.244 148.355 362.292 148.429 362.324 148.51C362.356 148.591 362.373 148.679 362.373 148.768C362.373 148.857 362.356 148.944 362.323 149.025C362.291 149.105 362.243 149.177 362.184 149.235C362.125 149.293 362.055 149.337 361.979 149.363C361.904 149.389 361.824 149.396 361.745 149.385L348.312 149.26C348.159 149.257 348.013 149.187 347.904 149.065C347.796 148.943 347.735 148.778 347.734 148.607C347.735 148.436 347.796 148.272 347.903 148.151C348.011 148.029 348.157 147.96 348.311 147.958Z"
        fill="black"
    />
    <path
        d="M375.144 148.28L388.581 148.476C388.717 148.479 388.847 148.543 388.943 148.652C389.039 148.762 389.092 148.909 389.093 149.061C389.093 149.137 389.08 149.212 389.054 149.282C389.028 149.352 388.989 149.415 388.941 149.467C388.893 149.52 388.835 149.561 388.772 149.589C388.709 149.616 388.642 149.629 388.574 149.627L375.14 149.482C374.998 149.479 374.863 149.414 374.762 149.301C374.661 149.188 374.603 149.036 374.6 148.878C374.6 148.799 374.614 148.721 374.64 148.648C374.667 148.575 374.706 148.509 374.756 148.454C374.806 148.398 374.865 148.355 374.93 148.325C374.995 148.295 375.065 148.28 375.135 148.281L375.144 148.28Z"
        fill="black"
    />
    <path
        d="M401.977 148.763L415.421 149.108C415.483 149.109 415.545 149.123 415.602 149.151C415.66 149.178 415.712 149.218 415.756 149.268C415.8 149.318 415.835 149.377 415.859 149.442C415.883 149.506 415.895 149.576 415.895 149.645C415.892 149.787 415.84 149.922 415.749 150.02C415.659 150.118 415.537 150.172 415.41 150.17L401.966 149.825C401.835 149.818 401.711 149.756 401.619 149.65C401.527 149.545 401.475 149.404 401.473 149.258C401.475 149.111 401.529 148.971 401.623 148.869C401.717 148.767 401.843 148.711 401.975 148.713L401.977 148.763Z"
        fill="black"
    />
    <path
        d="M428.827 149.744C433.318 150.056 437.761 150.48 442.227 150.842C442.331 150.861 442.426 150.923 442.492 151.015C442.558 151.107 442.591 151.224 442.584 151.341C442.577 151.458 442.532 151.568 442.456 151.648C442.38 151.729 442.28 151.775 442.174 151.776C437.683 151.445 433.232 151.051 428.787 150.758C428.668 150.748 428.556 150.688 428.475 150.59C428.393 150.491 428.348 150.362 428.35 150.228C428.354 150.094 428.406 149.968 428.494 149.878C428.582 149.787 428.698 149.74 428.818 149.745L428.827 149.744Z"
        fill="black"
    />
    <path
        d="M455.612 152.031L468.985 153.491C469.03 153.496 469.074 153.511 469.114 153.535C469.154 153.558 469.189 153.591 469.218 153.63C469.247 153.669 469.269 153.714 469.282 153.762C469.296 153.81 469.301 153.861 469.297 153.911C469.293 153.961 469.28 154.01 469.259 154.054C469.238 154.099 469.209 154.138 469.175 154.17C469.14 154.202 469.1 154.226 469.057 154.24C469.014 154.255 468.969 154.26 468.924 154.255L455.565 152.904C455.463 152.892 455.369 152.836 455.303 152.747C455.237 152.659 455.204 152.545 455.211 152.431C455.215 152.375 455.229 152.321 455.252 152.272C455.274 152.223 455.306 152.179 455.344 152.143C455.382 152.108 455.427 152.082 455.474 152.066C455.522 152.05 455.572 152.045 455.622 152.051L455.612 152.031Z"
        fill="black"
    />
    <path
        d="M482.321 155.473L488.947 156.802L490.601 157.132L492.241 157.532L495.54 158.372C495.601 158.4 495.652 158.451 495.683 158.516C495.714 158.581 495.723 158.655 495.709 158.727C495.696 158.798 495.66 158.862 495.608 158.906C495.556 158.95 495.492 158.972 495.426 158.968L492.148 158.187L490.509 157.797L488.855 157.477L482.24 156.198C482.167 156.174 482.104 156.121 482.063 156.049C482.021 155.977 482.005 155.891 482.016 155.807C482.027 155.723 482.066 155.647 482.124 155.593C482.182 155.539 482.256 155.51 482.332 155.513L482.321 155.473Z"
        fill="black"
    />
    <path
        d="M508.431 162.799C510.534 163.724 512.561 164.858 514.486 166.187C515.451 166.861 516.356 167.639 517.186 168.509C518.093 169.343 518.748 170.469 519.062 171.731C519.073 171.787 519.063 171.846 519.036 171.894C519.008 171.942 518.964 171.976 518.914 171.988C518.862 172 518.809 171.989 518.764 171.957C518.719 171.926 518.687 171.877 518.673 171.82C518.368 170.653 517.752 169.614 516.907 168.843C516.088 168.003 515.2 167.252 514.256 166.599C512.349 165.295 510.341 164.187 508.258 163.288C508.2 163.261 508.153 163.21 508.128 163.146C508.103 163.081 508.102 163.009 508.125 162.944C508.148 162.879 508.193 162.827 508.25 162.8C508.308 162.773 508.373 162.772 508.431 162.799Z"
        fill="black"
    />
    <path
        d="M509.774 181.486C505.704 183.547 501.508 185.253 497.365 187.097C497.349 187.104 497.332 187.107 497.316 187.107C497.299 187.106 497.282 187.102 497.267 187.094C497.252 187.087 497.238 187.076 497.226 187.062C497.215 187.049 497.205 187.033 497.199 187.015C497.193 186.998 497.19 186.979 497.19 186.961C497.191 186.942 497.194 186.924 497.201 186.907C497.208 186.889 497.217 186.874 497.229 186.861C497.241 186.848 497.255 186.838 497.271 186.832C501.416 185.007 505.601 183.281 509.636 181.222C509.655 181.211 509.676 181.204 509.697 181.203C509.718 181.201 509.74 181.203 509.76 181.211C509.78 181.218 509.799 181.23 509.816 181.246C509.832 181.261 509.845 181.28 509.855 181.301C509.872 181.346 509.874 181.396 509.86 181.441C509.845 181.487 509.816 181.524 509.777 181.546L509.774 181.486Z"
        fill="black"
    />
    <path
        d="M486.501 194.686C486.415 195.923 486.761 197.154 487.465 198.123C488.136 199.122 488.914 200.026 489.781 200.814C491.53 202.386 493.396 203.789 495.356 205.007C495.362 205.011 495.367 205.017 495.37 205.024C495.374 205.03 495.376 205.038 495.376 205.046C495.376 205.053 495.375 205.061 495.372 205.068C495.37 205.075 495.365 205.082 495.36 205.087C495.35 205.095 495.338 205.1 495.325 205.101C495.312 205.101 495.3 205.098 495.289 205.09C493.329 203.875 491.464 202.475 489.714 200.907C488.83 200.116 488.037 199.206 487.353 198.199C486.615 197.198 486.254 195.918 486.346 194.634C486.351 194.613 486.361 194.595 486.376 194.582C486.391 194.569 486.409 194.562 486.428 194.561C486.446 194.56 486.465 194.566 486.481 194.577C486.497 194.589 486.509 194.606 486.516 194.625L486.501 194.686Z"
        fill="black"
    />
    <path d="M507.457 211.625L511.678 213.731L507.441 211.655L507.457 211.625Z" fill="black" />
    <path d="M26.6387 373.389L305.536 423.006V344.664L178.862 326.299L166.087 324.447L152.657 322.5L143.083 321.112L26.6387 304.23V373.389Z" fill="url(#paint0_linear_1219_4852)" />
    <path d="M409.547 279.7L466.92 243.865L398.919 166.577L409.547 279.7Z" fill="#5869DD" />
    <path d="M139.792 86.2529L191.183 91.0001L263.666 69.5302L260.282 69.2177L212.274 64.7834L139.792 86.2529Z" fill="url(#paint1_linear_1219_4852)" />
    <path
        d="M230.567 253.758L359.331 272.287V151.238C359.331 138.405 349.639 127.644 336.876 126.306L106.028 102.098C91.2297 100.546 78.3444 112.151 78.3444 127.03V231.852L194.788 248.609V230.549L204.363 231.852L217.793 230.886L230.567 226.543V253.758Z"
        fill="url(#paint2_linear_1219_4852)"
    />
    <path d="M78.3444 231.852L26.6387 287.736L143.083 304.618L194.788 248.735V248.609L78.3444 231.852Z" fill="url(#paint3_linear_1219_4852)" />
    <path d="M305.536 328.171L359.331 272.287L230.567 253.758V253.922L178.862 309.806L305.536 328.171Z" fill="url(#paint4_linear_1219_4852)" />
    <path d="M305.536 423.006L352.174 388.594V356.78V315.535L305.536 344.664V423.006Z" fill="#5869DD" />
    <path
        d="M305.536 344.664L352.174 315.535L370.759 303.927V142.098C370.759 129.265 361.067 118.504 348.304 117.166L291.957 111.961L281.626 111.006L173.002 100.972L106.028 94.7857C103.209 94.4901 100.459 94.6719 97.855 95.2629L94.77 96.1767C85.2565 99.6788 78.3444 108.82 78.3444 119.718V127.03C78.3444 112.151 91.2297 100.546 106.028 102.098L336.876 126.306C349.639 127.644 359.331 138.405 359.331 151.238V272.287L305.536 328.171V344.664Z"
        fill="#5869DD"
    />
    <path d="M377.088 370.21V358.051C377.088 349.909 367.825 345.232 361.273 350.066V381.879L377.088 370.21Z" fill="black" />
    <path d="M352.174 356.78V388.594L361.273 381.879V350.066L352.174 356.78Z" fill="#5869DD" />
    <path d="M152.657 322.5L166.087 324.447V307.953L152.657 306.006V322.5Z" fill="black" />
    <path d="M143.083 304.618L152.657 306.006L204.363 250.122L194.788 248.735L143.083 304.618Z" fill="#5869DD" />
    <path d="M166.087 307.953L178.862 309.806L230.567 253.922L217.793 252.07L166.087 307.953Z" fill="#5869DD" />
    <path d="M217.793 230.886V251.92L230.567 253.758V226.543L217.793 230.886Z" fill="#5869DD" />
    <path d="M204.363 249.987V231.852L194.788 230.549V248.609L204.363 249.987Z" fill="#5869DD" />
    <path d="M152.657 306.006L166.087 307.953L217.793 252.07L204.363 250.122L152.657 306.006Z" fill="black" />
    <path d="M217.793 230.886L204.363 231.852V249.987L217.793 251.92V230.886Z" fill="black" />
    <path
        d="M213.029 61.0458L212.274 64.7834L260.282 69.2177C267.396 66.0664 282.178 59.4506 284.384 58.1972C286.59 56.9437 278.341 54.8535 273.941 53.965L228.435 51.8018C226.566 51.713 224.694 51.7795 222.836 52.0007C217.957 52.5817 214.002 56.2294 213.029 61.0458Z"
        fill="url(#paint5_linear_1219_4852)"
    />
    <path
        d="M135.813 85.8854C132.641 85.5924 129.442 85.9067 126.388 86.8114L97.855 95.2629C100.459 94.6719 103.209 94.4901 106.028 94.7857L173.002 100.972V94.9072L191.183 91.0001L139.792 86.2529L135.813 85.8854Z"
        fill="url(#paint6_linear_1219_4852)"
    />
    <path d="M173.002 100.972L281.626 111.006V104.941L173.002 94.9072V100.972Z" fill="black" />
    <path d="M348.304 117.166C361.067 118.504 370.759 129.265 370.759 142.098L395.742 132.755C395.742 119.921 386.05 109.16 373.287 107.822L348.304 117.166Z" fill="#5869DD" />
    <path d="M373.287 107.822L302.638 101.296L281.626 111.006L291.957 111.961L348.304 117.166L373.287 107.822Z" fill="url(#paint7_linear_1219_4852)" />
    <path d="M263.666 97.6957L297.048 100.779V70.5028C297.048 70.5028 296.821 67.7875 291.957 66.5536C287.092 65.3198 263.666 74.649 263.666 74.649V97.6957Z" fill="#5869DD" />
    <path
        d="M297.048 70.5028C297.048 61.8598 290.26 54.7408 281.626 54.3304L273.941 53.965C278.341 54.8535 286.59 56.9437 284.384 58.1972C282.178 59.4506 267.396 66.0664 260.282 69.2177L263.666 69.5302V74.649C263.666 74.649 287.092 65.3198 291.957 66.5536C296.821 67.7875 297.048 70.5028 297.048 70.5028Z"
        fill="black"
    />
    <path d="M263.666 69.5302L191.183 91.0001L263.666 97.6957V74.649V69.5302Z" fill="#5869DD" />
    <path d="M26.6387 304.23L143.083 321.112V304.618L26.6387 287.736V304.23Z" fill="#5869DD" />
    <path d="M178.862 326.299L305.536 344.664V328.171L178.862 309.806V326.299Z" fill="#5869DD" />
    <path d="M166.087 324.447L178.862 326.299V309.806L166.087 307.953V324.447Z" fill="#5869DD" />
    <path d="M143.083 321.112L152.657 322.5V306.006L143.083 304.618V321.112Z" fill="#5869DD" />
    <path d="M281.626 104.941V111.006L302.638 101.296L281.626 104.941Z" fill="black" />
    <path d="M302.638 101.296L297.048 100.779L263.666 97.6957L191.183 91.0001L173.002 94.9072L281.626 104.941L302.638 101.296Z" fill="#F1EFED" />
    <path
        d="M466.92 303.927V243.865L409.547 279.7L398.919 166.577L395.742 132.755L370.759 142.098V303.927L352.174 315.535V356.78L361.273 350.066C367.825 345.232 377.088 349.909 377.088 358.051V370.21L466.92 303.927Z"
        fill="url(#paint8_linear_1219_4852)"
    />
    <path
        d="M26.6387 373.389H25.6387V374.227L26.4635 374.374L26.6387 373.389ZM305.536 423.006L305.361 423.99L305.784 424.066L306.13 423.81L305.536 423.006ZM466.92 303.927L467.514 304.732L467.92 304.432V303.927H466.92ZM466.92 243.865H467.92V243.488L467.671 243.204L466.92 243.865ZM370.759 303.927L371.288 304.775L371.759 304.481V303.927H370.759ZM409.547 279.7L408.551 279.794L408.703 281.406L410.077 280.548L409.547 279.7ZM26.6387 287.736L25.9047 287.057L25.6387 287.345V287.736H26.6387ZM359.331 272.287L360.051 272.981L360.331 272.69V272.287H359.331ZM106.028 102.098L106.133 101.103L106.028 102.098ZM336.876 126.306L336.772 127.3L336.876 126.306ZM106.028 94.7857L105.924 95.7803L105.936 95.7815L106.028 94.7857ZM373.287 107.822L373.391 106.827L373.379 106.826L373.287 107.822ZM263.666 69.5302H264.666V68.6184L263.758 68.5345L263.666 69.5302ZM297.048 100.779L296.956 101.775L297.048 100.779ZM281.626 54.3304L281.579 55.3293L281.626 54.3304ZM213.029 61.0458L212.049 60.8478L212.049 60.8478L213.029 61.0458ZM222.836 52.0007L222.718 51.0077L222.836 52.0007ZM228.435 51.8018L228.387 52.8007L228.435 51.8018ZM126.388 86.8114L126.104 85.8526L126.388 86.8114ZM135.813 85.8854L135.721 86.8812L135.813 85.8854ZM273.941 53.965L273.988 52.9662L273.941 53.965ZM361.273 350.066L360.68 349.261L361.273 350.066ZM143.083 321.112L142.939 322.102H142.939L143.083 321.112ZM166.087 324.447L165.944 325.437L166.087 324.447ZM230.567 253.922L231.301 254.601L231.567 254.314V253.922H230.567ZM194.788 230.549L194.923 229.559L193.788 229.404V230.549H194.788ZM230.567 226.543H231.567V225.147L230.245 225.596L230.567 226.543ZM281.626 111.006L281.534 112.002L281.626 111.006ZM291.957 111.961L292.049 110.965L291.957 111.961ZM173.002 100.972L172.91 101.968L173.002 100.972ZM173.002 94.9072L172.792 93.9295L172.002 94.0992V94.9072H173.002ZM26.4635 374.374L305.361 423.99L305.711 422.021L26.8138 372.405L26.4635 374.374ZM306.13 423.81L352.767 389.398L351.58 387.789L304.942 422.201L306.13 423.81ZM467.92 303.927V243.865H465.92V303.927H467.92ZM306.536 423.006V344.664H304.536V423.006H306.536ZM27.6387 373.389V304.23H25.6387V373.389H27.6387ZM305.68 343.674L26.7822 303.24L26.4952 305.22L305.393 345.654L305.68 343.674ZM353.174 388.594V315.535H351.174V388.594H353.174ZM306.066 345.512L352.703 316.383L351.644 314.687L305.006 343.816L306.066 345.512ZM352.703 316.383L371.288 304.775L370.229 303.079L351.644 314.687L352.703 316.383ZM410.077 280.548L467.45 244.713L466.391 243.017L409.017 278.852L410.077 280.548ZM410.543 279.607L399.915 166.484L397.924 166.671L408.551 279.794L410.543 279.607ZM398.169 167.238L466.17 244.525L467.671 243.204L399.67 165.917L398.169 167.238ZM27.6387 304.23V287.736H25.6387V304.23H27.6387ZM27.3727 288.415L79.0784 232.532L77.6103 231.173L25.9047 287.057L27.3727 288.415ZM306.256 328.865L360.051 272.981L358.61 271.594L304.816 327.478L306.256 328.865ZM306.536 344.664V328.171H304.536V344.664H306.536ZM305.68 327.181L26.7822 286.747L26.4952 288.726L305.393 329.161L305.68 327.181ZM360.331 272.287V151.238H358.331V272.287H360.331ZM79.3444 231.854V231.852H77.3444V231.854H79.3444ZM79.3444 231.852V127.03H77.3444V231.852H79.3444ZM105.924 103.092L336.772 127.3L336.98 125.311L106.133 101.103L105.924 103.092ZM79.3444 127.03C79.3444 112.744 91.7157 101.602 105.924 103.092L106.133 101.103C90.7437 99.4893 77.3444 111.557 77.3444 127.03H79.3444ZM360.331 151.238C360.331 137.893 350.253 126.703 336.98 125.311L336.772 127.3C349.026 128.585 358.331 138.917 358.331 151.238H360.331ZM79.3444 127.03V119.718H77.3444V127.03H79.3444ZM371.759 142.098C371.759 128.753 361.681 117.563 348.408 116.171L348.2 118.16C360.454 119.445 369.759 129.777 369.759 142.098H371.759ZM369.759 142.098V303.927H371.759V142.098H369.759ZM396.742 132.755C396.742 119.409 386.664 108.219 373.391 106.827L373.183 108.816C385.437 110.101 394.742 120.433 394.742 132.755H396.742ZM394.746 132.848L397.924 166.671L399.915 166.484L396.737 132.661L394.746 132.848ZM79.3444 119.718C79.3444 109.257 85.9782 100.479 95.1154 97.1151L94.4245 95.2382C84.5348 98.8789 77.3444 108.383 77.3444 119.718H79.3444ZM373.379 106.826L297.14 99.7836L296.956 101.775L373.195 108.818L373.379 106.826ZM297.14 99.7836L263.758 96.6999L263.574 98.6914L296.956 101.775L297.14 99.7836ZM213.254 64.9814L214.009 61.2438L212.049 60.8478L211.294 64.5854L213.254 64.9814ZM281.579 55.3293C289.679 55.7143 296.048 62.3936 296.048 70.5028H298.048C298.048 61.326 290.84 53.7673 281.674 53.3315L281.579 55.3293ZM214.009 61.2438C214.897 56.8507 218.504 53.5236 222.954 52.9937L222.718 51.0077C217.41 51.6398 213.107 55.6081 212.049 60.8478L214.009 61.2438ZM222.954 52.9937C224.757 52.779 226.574 52.7145 228.387 52.8007L228.482 50.8029C226.559 50.7114 224.63 50.7799 222.718 51.0077L222.954 52.9937ZM126.672 87.7702C129.604 86.9016 132.676 86.5998 135.721 86.8812L135.905 84.8896C132.607 84.5849 129.28 84.9117 126.104 85.8526L126.672 87.7702ZM191.467 91.959L263.95 70.4891L263.382 68.5714L190.899 90.0413L191.467 91.959ZM296.048 70.5028V100.779H298.048V70.5028H296.048ZM228.387 52.8007L273.893 54.9639L273.988 52.9662L228.482 50.8029L228.387 52.8007ZM273.893 54.9639L281.579 55.3293L281.674 53.3315L273.988 52.9662L273.893 54.9639ZM273.743 54.9452C275.927 55.3862 279.041 56.121 281.319 56.8915C282.488 57.2869 283.318 57.6537 283.714 57.9413C283.956 58.1171 283.791 58.0874 283.757 57.8196C283.701 57.3813 284.049 57.2372 283.89 57.3277L284.878 59.0666C285.27 58.8437 285.843 58.3602 285.741 57.5641C285.66 56.9386 285.179 56.5331 284.889 56.3228C284.221 55.8381 283.127 55.3918 281.96 54.9969C279.565 54.1868 276.355 53.4323 274.139 52.9848L273.743 54.9452ZM212.182 65.7792L260.19 70.2134L260.374 68.2219L212.366 63.7877L212.182 65.7792ZM260.19 70.2134L263.574 70.526L263.758 68.5345L260.374 68.2219L260.19 70.2134ZM283.89 57.3277C282.838 57.9255 278.649 59.8677 273.76 62.0851C268.904 64.288 263.432 66.7285 259.877 68.3033L260.687 70.132C264.246 68.5556 269.723 66.1126 274.587 63.9065C279.419 61.7147 283.724 59.7223 284.878 59.0666L283.89 57.3277ZM262.666 69.5302V74.649H264.666V69.5302H262.666ZM262.666 74.649V97.6957H264.666V74.649H262.666ZM263.666 74.649C264.036 75.578 264.036 75.578 264.036 75.578C264.036 75.5779 264.036 75.5778 264.037 75.5777C264.037 75.5774 264.038 75.577 264.04 75.5765C264.042 75.5754 264.047 75.5738 264.052 75.5716C264.063 75.5672 264.08 75.5607 264.102 75.552C264.145 75.5346 264.211 75.5087 264.297 75.475C264.468 75.4075 264.721 75.3084 265.044 75.1826C265.692 74.931 266.622 74.5727 267.755 74.1465C270.02 73.2937 273.089 72.1704 276.306 71.0863C279.528 70.0009 282.881 68.9608 285.721 68.2696C287.141 67.9238 288.414 67.6701 289.467 67.5397C290.551 67.4055 291.293 67.4169 291.711 67.523L292.203 65.5843C291.405 65.3819 290.35 65.415 289.222 65.5548C288.062 65.6984 286.707 65.9711 285.248 66.3264C282.327 67.0374 278.911 68.0983 275.668 69.191C272.421 70.2849 269.329 71.4168 267.05 72.2747C265.91 72.7038 264.973 73.0647 264.32 73.3185C263.993 73.4454 263.738 73.5455 263.564 73.614C263.477 73.6483 263.41 73.6747 263.365 73.6925C263.343 73.7014 263.325 73.7082 263.314 73.7128C263.308 73.7151 263.304 73.7169 263.301 73.7181C263.299 73.7187 263.298 73.7191 263.297 73.7194C263.297 73.7196 263.297 73.7197 263.296 73.7198C263.296 73.7199 263.296 73.7199 263.666 74.649ZM291.711 67.523C293.97 68.0961 295.039 68.981 295.545 69.6147C295.802 69.9369 295.931 70.2153 295.994 70.394C296.026 70.484 296.042 70.5498 296.049 70.5845C296.053 70.6018 296.054 70.6112 296.054 70.6118C296.054 70.6121 296.054 70.6102 296.054 70.606C296.053 70.6038 296.053 70.6011 296.053 70.5978C296.053 70.5962 296.052 70.5944 296.052 70.5924C296.052 70.5915 296.052 70.5904 296.052 70.5894C296.052 70.5889 296.052 70.588 296.052 70.5878C296.052 70.5869 296.052 70.5861 297.048 70.5028C298.045 70.4195 298.045 70.4186 298.045 70.4177C298.045 70.4174 298.044 70.4165 298.044 70.4159C298.044 70.4147 298.044 70.4135 298.044 70.4121C298.044 70.4095 298.044 70.4067 298.043 70.4038C298.043 70.3979 298.042 70.3912 298.041 70.384C298.04 70.3694 298.037 70.3521 298.035 70.3322C298.029 70.2924 298.021 70.2423 298.009 70.1829C297.984 70.0642 297.944 69.9083 297.879 69.7245C297.748 69.3555 297.516 68.8779 297.108 68.3671C296.284 67.3347 294.807 66.2451 292.203 65.5843L291.711 67.523ZM348.654 118.102L373.637 108.758L372.937 106.885L347.954 116.229L348.654 118.102ZM371.109 143.035L396.092 133.691L395.391 131.818L370.408 141.162L371.109 143.035ZM378.088 370.21V358.051H376.088V370.21H378.088ZM377.682 371.015L467.514 304.732L466.327 303.122L376.495 369.405L377.682 371.015ZM352.767 357.585L361.867 350.871L360.68 349.261L351.58 355.976L352.767 357.585ZM378.088 358.051C378.088 349.089 367.891 343.94 360.68 349.261L361.867 350.871C367.758 346.524 376.088 350.73 376.088 358.051H378.088ZM352.767 389.398L361.867 382.684L360.68 381.075L351.58 387.789L352.767 389.398ZM361.867 382.684L377.682 371.015L376.495 369.405L360.68 381.075L361.867 382.684ZM360.273 350.066V381.879H362.273V350.066H360.273ZM144.083 321.112V304.618H142.083V321.112H144.083ZM179.862 326.299V309.806H177.862V326.299H179.862ZM153.657 322.5V306.006H151.657V322.5H153.657ZM167.087 324.447V307.953H165.087V324.447H167.087ZM143.817 305.298L195.522 249.414L194.054 248.055L142.349 303.939L143.817 305.298ZM153.391 306.685L205.097 250.802L203.629 249.443L151.923 305.327L153.391 306.685ZM166.821 308.633L218.527 252.749L217.059 251.39L165.353 307.274L166.821 308.633ZM179.596 310.485L231.301 254.601L229.833 253.243L178.128 309.127L179.596 310.485ZM142.939 322.102L152.514 323.49L152.801 321.51L143.226 320.122L142.939 322.102ZM152.801 305.017L143.226 303.629L142.939 305.608L152.514 306.996L152.801 305.017ZM194.645 249.724L204.219 251.112L204.506 249.133L194.932 247.745L194.645 249.724ZM152.514 306.996L165.944 308.943L166.231 306.964L152.801 305.017L152.514 306.996ZM217.65 253.059L230.424 254.912L230.711 252.932L217.937 251.08L217.65 253.059ZM217.937 251.08L204.506 249.133L204.219 251.112L217.65 253.059L217.937 251.08ZM217.721 229.889L204.291 230.855L204.435 232.85L217.865 231.883L217.721 229.889ZM194.653 231.54L204.228 232.843L204.498 230.862L194.923 229.559L194.653 231.54ZM230.245 225.596L217.471 229.939L218.115 231.833L230.889 227.49L230.245 225.596ZM281.718 110.011L106.12 93.7899L105.936 95.7815L281.534 112.002L281.718 110.011ZM282.626 111.006V104.941H280.626V111.006H282.626ZM348.396 116.17L292.049 110.965L291.865 112.956L348.212 118.161L348.396 116.17ZM292.049 110.965L281.718 110.011L281.534 112.002L291.865 112.956L292.049 110.965ZM174.002 100.972V94.9072H172.002V100.972H174.002ZM281.718 103.945L173.094 93.9114L172.91 95.9029L281.534 105.937L281.718 103.945ZM173.212 95.8848L191.393 91.9778L190.973 90.0224L172.792 93.9295L173.212 95.8848ZM281.797 105.926L302.809 102.281L302.467 100.31L281.455 103.956L281.797 105.926ZM302.219 100.388L281.207 110.099L282.046 111.914L303.058 102.203L302.219 100.388ZM305.68 343.674L179.005 325.309L178.718 327.289L305.393 345.654L305.68 343.674ZM179.005 325.309L166.231 323.457L165.944 325.437L178.718 327.289L179.005 325.309ZM166.231 323.457L152.801 321.51L152.514 323.49L165.944 325.437L166.231 323.457ZM143.226 320.122L26.7822 303.24L26.4952 305.22L142.939 322.102L143.226 320.122ZM351.174 315.535V356.78H353.174V315.535H351.174ZM139.7 87.2487L191.091 91.9959L191.275 90.0044L139.884 85.2572L139.7 87.2487ZM211.99 63.8246L139.508 85.2941L140.076 87.2118L212.558 65.7423L211.99 63.8246ZM140.077 87.2115L140.079 87.2111L139.506 85.2948L139.505 85.2952L140.077 87.2115ZM263.758 96.6999L139.884 85.2572L139.7 87.2487L263.574 98.6914L263.758 96.6999ZM139.884 85.2572L135.905 84.8896L135.721 86.8812L139.7 87.2487L139.884 85.2572ZM230.425 254.748L359.188 273.277L359.473 271.298L230.71 252.768L230.425 254.748ZM78.2019 232.842L194.646 249.599L194.931 247.619L78.4868 230.863L78.2019 232.842ZM195.788 248.609V230.549H193.788V248.609H195.788ZM229.567 226.543V253.758H231.567V226.543H229.567ZM231.567 253.922V253.758H229.567V253.922H231.567ZM195.788 248.735V248.609H193.788V248.735H195.788ZM26.4952 288.726L142.939 305.608L143.226 303.629L26.7822 286.747L26.4952 288.726ZM178.718 310.796L305.393 329.161L305.68 327.181L179.005 308.816L178.718 310.796ZM353.174 388.594V356.78H351.174V388.594H353.174ZM281.718 110.011L173.094 99.9766L172.91 101.968L281.534 112.002L281.718 110.011ZM173.094 99.9766L106.12 93.7899L105.936 95.7815L172.91 101.968L173.094 99.9766ZM106.133 93.7912C103.203 93.484 100.344 93.6728 97.6337 94.2877L98.0763 96.2381C100.575 95.6711 103.215 95.4962 105.924 95.7802L106.133 93.7912ZM97.571 94.3041L94.486 95.2179L95.054 97.1355L98.139 96.2217L97.571 94.3041ZM98.139 96.2217L126.672 87.7702L126.104 85.8526L97.571 94.3041L98.139 96.2217ZM95.1154 97.1151C96.0764 96.7614 97.065 96.4676 98.0763 96.2381L97.6337 94.2877C96.5374 94.5364 95.4659 94.8549 94.4245 95.2382L95.1154 97.1151ZM165.944 308.943L178.718 310.796L179.005 308.816L166.231 306.964L165.944 308.943ZM216.793 230.886V251.92H218.793V230.886H216.793ZM217.651 252.909L230.425 254.748L230.71 252.768L217.935 250.93L217.651 252.909ZM218.793 252.07V251.92H216.793V252.07H218.793ZM205.363 249.987V231.852H203.363V249.987H205.363ZM194.646 249.599L204.22 250.977L204.505 248.997L194.931 247.619L194.646 249.599ZM217.935 250.93L204.505 248.997L204.22 250.977L217.651 252.909L217.935 250.93ZM203.363 249.987V250.122H205.363V249.987H203.363ZM302.73 100.3L297.14 99.7836L296.956 101.775L302.546 102.291L302.73 100.3ZM263.758 96.6999L191.275 90.0044L191.091 91.9959L263.574 98.6914L263.758 96.6999ZM373.379 106.826L302.73 100.3L302.546 102.291L373.195 108.818L373.379 106.826Z"
        fill="black"
    />
    <path d="M295.919 398.434L296.11 384.652L40.7381 341.97V358.769L295.919 398.434Z" fill="black" />
    <path d="M31.8594 313.109V340.486L40.7381 341.97L296.11 384.652L296.632 352.66L31.8594 313.109Z" fill="#5869DD" />
    <path
        d="M31.8594 340.486H30.8594V341.333L31.6945 341.472L31.8594 340.486ZM31.8594 313.109L32.0071 312.12L30.8594 311.948V313.109H31.8594ZM296.632 352.66L297.632 352.677L297.646 351.801L296.78 351.671L296.632 352.66ZM295.919 398.434L295.765 399.422L296.903 399.598L296.919 398.447L295.919 398.434ZM40.7381 358.769H39.7381V359.626L40.5845 359.757L40.7381 358.769ZM32.8594 340.486V313.109H30.8594V340.486H32.8594ZM296.78 351.671L32.0071 312.12L31.7116 314.098L296.484 353.649L296.78 351.671ZM295.632 352.644L295.11 384.635L297.11 384.668L297.632 352.677L295.632 352.644ZM295.11 384.638L294.919 398.42L296.919 398.447L297.11 384.665L295.11 384.638ZM296.073 397.445L40.8917 357.781L40.5845 359.757L295.765 399.422L296.073 397.445ZM31.6945 341.472L40.5733 342.956L40.903 340.984L32.0242 339.5L31.6945 341.472ZM40.5733 342.956L295.945 385.638L296.275 383.665L40.903 340.984L40.5733 342.956ZM41.7381 358.769V341.97H39.7381V358.769H41.7381Z"
        fill="black"
    />
    <path
        fill-rule="evenodd"
        clip-rule="evenodd"
        d="M254.972 142.332L201.201 195.632L180.611 216.04L182.277 234.989C204.373 239.541 225.841 234.654 241.034 225.065C263.5 210.886 268.787 197.317 268.956 179.797C269.035 171.705 267.312 163.642 263.847 156.328C261.231 150.806 258.356 146.185 254.972 142.332Z"
        fill="#5869DD"
    />
    <path d="M173.529 135.494L180.611 216.04L201.201 195.632C200.123 192.287 199.04 189.04 197.992 185.898C186.612 151.781 179.315 129.904 226.628 127.366C208.603 123.643 189.319 126.037 173.529 135.494Z" fill="black" />
    <path d="M254.972 142.332C248.218 134.643 239.434 130.011 226.628 127.366C179.315 129.904 186.612 151.781 197.992 185.898C199.04 189.04 200.123 192.287 201.201 195.632L254.972 142.332Z" fill="#F1EFED" />
    <path
        d="M173.529 135.494L173.015 134.636C172.687 134.833 172.5 135.2 172.533 135.582L173.529 135.494ZM241.034 225.065L241.568 225.911L241.034 225.065ZM182.277 234.989L181.281 235.076C181.32 235.516 181.643 235.879 182.076 235.968L182.277 234.989ZM254.972 142.332L255.723 141.672L254.972 142.332ZM268.956 179.797L267.956 179.788L268.956 179.797ZM197.992 185.898L197.043 186.214L197.992 185.898ZM240.5 224.22C225.523 233.672 204.318 238.509 182.479 234.009L182.076 235.968C204.428 240.574 226.16 235.636 241.568 225.911L240.5 224.22ZM183.274 234.901L181.608 215.953L179.615 216.128L181.281 235.076L183.274 234.901ZM181.608 215.953L174.525 135.407L172.533 135.582L179.615 216.128L181.608 215.953ZM267.956 179.788C267.873 188.446 266.526 196.035 262.486 203.192C258.441 210.358 251.645 217.186 240.5 224.22L241.568 225.911C252.889 218.765 259.969 211.719 264.227 204.176C268.489 196.624 269.871 188.668 269.956 179.807L267.956 179.788ZM174.043 136.352C189.59 127.04 208.612 124.666 226.425 128.345L226.83 126.386C208.593 122.62 189.048 125.033 173.015 134.636L174.043 136.352ZM226.425 128.345C239.079 130.958 247.646 135.507 254.221 142.992L255.723 141.672C248.79 133.779 239.789 129.063 226.83 126.386L226.425 128.345ZM254.221 142.992C257.528 146.758 260.356 151.294 262.944 156.757L264.751 155.9C262.107 150.318 259.184 145.613 255.723 141.672L254.221 142.992ZM262.944 156.757C266.342 163.93 268.033 171.842 267.956 179.788L269.956 179.807C270.036 171.567 268.282 163.355 264.751 155.9L262.944 156.757ZM254.268 141.622L200.497 194.921L201.905 196.342L255.676 143.043L254.268 141.622ZM200.497 194.921L179.907 215.33L181.315 216.75L201.905 196.342L200.497 194.921ZM226.574 126.367C214.69 127.005 206.113 128.86 200.14 131.893C194.118 134.951 190.747 139.208 189.333 144.533C187.937 149.794 188.48 155.997 190.036 162.935C191.594 169.883 194.203 177.699 197.043 186.214L198.94 185.581C196.09 177.038 193.519 169.326 191.987 162.497C190.454 155.659 189.995 149.837 191.266 145.046C192.52 140.321 195.484 136.5 201.046 133.676C206.656 130.827 214.909 128.996 226.681 128.364L226.574 126.367ZM197.043 186.214C198.091 189.357 199.173 192.599 200.249 195.938L202.153 195.325C201.073 191.974 199.988 188.723 198.94 185.581L197.043 186.214ZM262.944 156.757C266.342 163.93 268.033 171.842 267.956 179.788L269.956 179.807C270.036 171.567 268.282 163.355 264.751 155.9L262.944 156.757ZM174.043 136.352C189.59 127.04 208.612 124.666 226.425 128.345L226.83 126.386C208.593 122.62 189.048 125.033 173.015 134.636L174.043 136.352Z"
        fill="black"
    />
    <path d="M282.494 191.669L343.561 198.1L343.579 195.259L285.367 189.128L282.494 191.669Z" fill="#5869DD" />
    <path fill-rule="evenodd" clip-rule="evenodd" d="M285.51 166.428L285.367 189.128L343.579 195.259L343.723 172.559L285.51 166.428Z" fill="#F1EFED" />
    <path d="M282.656 166.127L282.494 191.669L285.367 189.128L285.51 166.428L282.656 166.127Z" fill="#5869DD" />
    <path
        d="M282.656 166.127L282.75 165.232L281.762 165.128L281.756 166.122L282.656 166.127ZM343.723 172.559L344.623 172.565L344.628 171.75L343.817 171.664L343.723 172.559ZM343.561 198.1L343.467 198.995L344.455 199.099L344.461 198.106L343.561 198.1ZM282.494 191.669L281.594 191.663L281.589 192.478L282.4 192.564L282.494 191.669ZM285.51 166.428L285.605 165.533L285.51 166.428ZM343.656 197.205L282.588 190.774L282.4 192.564L343.467 198.995L343.656 197.205ZM283.394 191.674L283.556 166.133L281.756 166.122L281.594 191.663L283.394 191.674ZM283.09 192.343L285.963 189.802L284.77 188.454L281.898 190.994L283.09 192.343ZM343.817 171.664L285.605 165.533L285.416 167.323L343.629 173.454L343.817 171.664ZM284.61 166.422L284.467 189.122L286.267 189.134L286.41 166.434L284.61 166.422ZM285.272 190.023L343.485 196.154L343.674 194.364L285.461 188.233L285.272 190.023ZM344.479 195.265L344.623 172.565L342.823 172.554L342.679 195.254L344.479 195.265ZM342.679 195.254L342.661 198.095L344.461 198.106L344.479 195.265L342.679 195.254ZM282.562 167.022L285.416 167.323L285.605 165.533L282.75 165.232L282.562 167.022Z"
        fill="black"
    />
    <path d="M94.7324 181.498L155.8 187.93L155.818 185.089L155.824 182.233L100.415 176.397L94.7324 181.498Z" fill="black" />
    <path d="M94.7324 181.498L100.415 176.397L100.483 147.412L94.8294 143.327L94.7324 181.498Z" fill="black" />
    <path fill-rule="evenodd" clip-rule="evenodd" d="M100.415 176.397L100.483 147.412L100.552 118.426L155.961 124.262L155.824 182.233L100.415 176.397Z" fill="#5869DD" />
    <path d="M100.552 118.426L97.7487 118.131L94.8942 117.831L94.8294 143.327L100.483 147.412L100.552 118.426Z" fill="#F1EFED" />
    <path
        d="M94.8942 117.831L94.9989 116.836L93.897 116.72L93.8942 117.828L94.8942 117.831ZM155.961 124.262L156.961 124.265L156.964 123.362L156.066 123.268L155.961 124.262ZM155.8 187.93L155.695 188.924L156.793 189.04L156.8 187.936L155.8 187.93ZM94.7324 181.498L93.7324 181.496L93.7301 182.398L94.6277 182.493L94.7324 181.498ZM97.7487 118.131L97.644 119.126L97.7487 118.131ZM155.818 185.089L156.818 185.095L156.818 185.091L155.818 185.089ZM155.824 182.233L156.824 182.235L155.824 182.233ZM100.552 118.426L100.656 117.432V117.432L100.552 118.426ZM100.483 147.412L101.483 147.414L100.483 147.412ZM155.904 186.935L94.8372 180.504L94.6277 182.493L155.695 188.924L155.904 186.935ZM156.066 123.268L97.8535 117.137L97.644 119.126L155.857 125.257L156.066 123.268ZM156.818 185.091L156.961 124.265L154.961 124.26L154.818 185.087L156.818 185.091ZM154.818 185.083L154.8 187.924L156.8 187.936L156.818 185.095L154.818 185.083ZM94.7894 118.825L97.644 119.126L97.8535 117.137L94.9989 116.836L94.7894 118.825ZM156.066 123.268L100.656 117.432L100.447 119.421L155.857 125.257L156.066 123.268ZM100.31 177.392L155.72 183.228L155.929 181.239L100.519 175.403L100.31 177.392ZM156.824 182.235L156.961 124.265L154.961 124.26L154.824 182.231L156.824 182.235ZM156.818 185.091L156.824 182.235L154.824 182.231L154.818 185.087L156.818 185.091ZM99.7466 175.653L94.0644 180.754L95.4004 182.242L101.083 177.141L99.7466 175.653ZM95.7324 181.501L95.8294 143.33L93.8294 143.324L93.7324 181.496L95.7324 181.501ZM95.8294 143.33L95.8942 117.833L93.8942 117.828L93.8294 143.324L95.8294 143.33ZM99.5516 118.424L99.4831 147.409L101.483 147.414L101.552 118.429L99.5516 118.424ZM99.4831 147.409L99.4146 176.395L101.415 176.4L101.483 147.414L99.4831 147.409ZM94.2438 144.138L99.8975 148.222L101.069 146.601L95.415 142.516L94.2438 144.138ZM97.644 119.126L100.447 119.421L100.656 117.432L97.8535 117.137L97.644 119.126Z"
        fill="black"
    />
    <path
        d="M110.192 149.614C109.005 155.761 112.366 162.415 119.097 166.296C123.565 168.871 128.539 169.51 132.809 168.438C134.518 168.009 134.392 165.825 132.804 165.063C130.328 163.874 127.801 162.384 125.322 160.61C120.225 156.963 116.252 153.208 113.743 149.403C112.776 147.938 110.525 147.891 110.192 149.614Z"
        fill="#F1EFED"
        stroke="black"
        stroke-width="1.8"
    />
    <rect x="132.66" y="136.278" width="7.31192" height="7.96477" rx="1.56684" fill="#F1EFED" stroke="black" stroke-width="1.8" />
    <path
        d="M1.66797 498.218C5.12066 425.012 16.5927 394.092 57.0296 347.801C146.662 362.947 179.565 368.17 273.576 383.316C236.209 441.172 232.978 476.872 240.35 540C144.902 524.96 97.1533 515.849 1.66797 498.218Z"
        fill="#F1EFED"
        stroke="black"
        stroke-width="2"
        stroke-linejoin="round"
    />
    <path d="M65.5631 365.037L254.944 393.979C246.141 404.383 240.592 414.518 235.678 428.755L44.0605 397.144C49.1223 382.501 53.5684 375.306 65.5631 365.037Z" fill="#8F8E93" stroke="black" stroke-width="1.8" />
    <path d="M26.8729 442.315C48.3082 443.536 82.8746 450.671 82.8746 450.671C82.8746 450.671 73.477 480.833 72.4291 496.649C51.8793 493.886 40.3269 491.792 17.9941 487.77C19.0812 469.572 19.5591 461.478 26.8729 442.315Z" fill="#8F8E93" />
    <path
        d="M26.8729 442.315C48.3082 443.536 82.8746 450.671 82.8746 450.671M26.8729 442.315C19.5591 461.478 19.0812 469.572 17.9941 487.77M26.8729 442.315C40.0805 463.058 51.2201 475.075 72.4291 496.649M82.8746 450.671C82.8746 450.671 73.477 480.833 72.4291 496.649M82.8746 450.671C56.9466 461.524 42.5023 468.179 17.9941 487.77M72.4291 496.649C51.8793 493.886 40.3269 491.792 17.9941 487.77"
        stroke="black"
        stroke-width="1.8"
    />
    <path d="M178.783 467.403C200.457 470.537 223.947 475.377 223.947 475.377C223.947 475.377 222.38 507.88 222.38 523.817C201.83 521 193.803 519.924 171.471 515.826C172.558 497.281 173.429 486.041 178.783 467.403Z" fill="#8F8E93" />
    <path
        d="M178.783 467.403C200.457 470.537 223.947 475.377 223.947 475.377M178.783 467.403C173.429 486.041 172.558 497.281 171.471 515.826M178.783 467.403C193.434 492.557 203.727 503.924 222.38 523.817M223.947 475.377C223.947 475.377 222.38 507.88 222.38 523.817M223.947 475.377C201.828 492.726 190.675 501.264 171.471 515.826M222.38 523.817C201.83 521 193.803 519.924 171.471 515.826"
        stroke="black"
        stroke-width="1.8"
    />
    <path d="M87.4453 495.772L156.44 508.009" stroke="black" stroke-width="1.8" stroke-linejoin="round" />
    <path d="M88.7207 488.977L157.715 501.214" stroke="black" stroke-width="1.8" stroke-linejoin="round" />
    <path d="M88.6914 482.187L157.686 494.424" stroke="black" stroke-width="1.8" stroke-linejoin="round" />
    <path d="M90.75 475.388L159.744 487.625" stroke="black" stroke-width="1.8" stroke-linejoin="round" />
    <path d="M90.7227 468.599L159.717 480.836" stroke="black" stroke-width="1.8" stroke-linejoin="round" />
    <path d="M92.6152 461.801L161.61 474.038" stroke="black" stroke-width="1.8" stroke-linejoin="round" />
    <path d="M94.9375 455.001L163.932 467.238" stroke="black" stroke-width="1.8" stroke-linejoin="round" />
    <path d="M67.7773 356.163L127.859 365.036" stroke="black" stroke-width="1.8" stroke-linejoin="round" />
    <path d="M32.2168 431.953L72.0993 437.533M34.2881 426.64L72.7048 432.015" stroke="black" stroke-width="1.8" stroke-linejoin="round" />
    <path d="M92.6152 441.921L128.104 447.501M94.4583 437.13L128.643 442.505" stroke="black" stroke-width="1.8" stroke-linejoin="round" />
    <path d="M143.592 450.17L179.215 454.819M145.309 445.333L179.623 449.811" stroke="black" stroke-width="1.8" stroke-linejoin="round" />
    <path d="M191.945 459.689L227.616 463.95M193.609 454.833L227.969 458.938" stroke="black" stroke-width="1.8" stroke-linejoin="round" />
    <path d="M230.431 379.834C232.905 379.814 234.374 380.132 237.061 381.013C235.445 382.477 234.706 383.587 233.548 386.057C231.008 385.395 229.567 385.108 226.919 384.878C227.958 382.612 228.705 381.486 230.431 379.834Z" fill="black" />
    <path d="M240.922 381.34C243.395 381.32 244.864 381.637 247.551 382.518C245.935 383.982 245.196 385.092 244.039 387.562C241.498 386.9 240.057 386.614 237.409 386.384C238.448 384.117 239.196 382.991 240.922 381.34Z" fill="black" />
    <path d="M251.414 382.845C253.887 382.825 255.357 383.142 258.043 384.023C256.427 385.487 255.688 386.597 254.531 389.067C251.99 388.405 250.549 388.119 247.902 387.889C248.94 385.622 249.688 384.496 251.414 382.845Z" fill="black" />
    <path
        fill-rule="evenodd"
        clip-rule="evenodd"
        d="M220.909 447.438C222.788 445.843 223.946 443.66 223.946 441.252C223.946 436.369 219.184 432.411 213.311 432.411C207.437 432.411 202.676 436.369 202.676 441.252C202.676 443.66 203.834 445.843 205.713 447.438C205.711 447.392 205.711 447.346 205.711 447.3C205.711 444.126 209.113 441.553 213.311 441.553C217.508 441.553 220.911 444.126 220.911 447.3C220.911 447.346 220.91 447.392 220.909 447.438ZM214.36 441.553C215.984 441.553 217.3 440.558 217.3 439.331C217.3 438.103 215.984 437.108 214.36 437.108C212.737 437.108 211.421 438.103 211.421 439.331C211.421 440.558 212.737 441.553 214.36 441.553Z"
        fill="#8F8E93"
    />
    <path
        d="M220.909 447.438C222.788 445.843 223.946 443.66 223.946 441.252C223.946 436.369 219.184 432.411 213.311 432.411C207.437 432.411 202.676 436.369 202.676 441.252C202.676 443.66 203.834 445.843 205.713 447.438M220.909 447.438C220.91 447.392 220.911 447.346 220.911 447.3C220.911 444.126 217.508 441.553 213.311 441.553C209.113 441.553 205.711 444.126 205.711 447.3C205.711 447.346 205.711 447.392 205.713 447.438M220.909 447.438C218.979 449.076 216.288 450.093 213.311 450.093C210.334 450.093 207.643 449.076 205.713 447.438M217.3 439.331C217.3 440.558 215.984 441.553 214.36 441.553C212.737 441.553 211.421 440.558 211.421 439.331C211.421 438.103 212.737 437.108 214.36 437.108C215.984 437.108 217.3 438.103 217.3 439.331Z"
        stroke="black"
        stroke-width="1.8"
    />
    <path
        d="M172.284 441.734C175.649 440.097 177.869 437.294 177.869 434.111C177.869 429.061 172.286 424.968 165.399 424.968C158.512 424.968 152.93 429.061 152.93 434.111C152.93 436.684 154.38 439.009 156.713 440.67C156.328 439.846 156.165 438.961 156.273 438.063C156.674 434.747 160.626 432.49 165.137 432.977C163.802 432.526 162.91 431.48 163.042 430.384C163.202 429.059 164.796 428.163 166.603 428.38C168.409 428.598 169.744 429.849 169.584 431.173C169.439 432.378 168.106 433.23 166.506 433.209C170.44 434.126 173.193 437.016 172.826 440.06C172.754 440.656 172.567 441.217 172.284 441.734Z"
        fill="#8F8E93"
    />
    <path
        d="M172.284 441.734C175.649 440.097 177.869 437.294 177.869 434.111C177.869 429.061 172.286 424.968 165.399 424.968C158.512 424.968 152.93 429.061 152.93 434.111C152.93 436.684 154.38 439.009 156.713 440.67M172.284 441.734C172.567 441.217 172.754 440.656 172.826 440.06C173.193 437.016 170.44 434.126 166.506 433.209M172.284 441.734C170.311 442.694 167.944 443.253 165.399 443.253C162.022 443.253 158.959 442.269 156.713 440.67M156.713 440.67C156.328 439.846 156.165 438.961 156.273 438.063C156.674 434.747 160.626 432.49 165.137 432.977M165.137 432.977C163.802 432.526 162.91 431.48 163.042 430.384C163.202 429.059 164.796 428.163 166.603 428.38C168.409 428.598 169.744 429.849 169.584 431.173C169.439 432.378 168.106 433.23 166.506 433.209M165.137 432.977C165.185 432.982 165.233 432.988 165.282 432.994C165.701 433.044 166.109 433.117 166.506 433.209M165.137 432.977C165.415 433.071 165.712 433.139 166.024 433.177C166.187 433.196 166.348 433.207 166.506 433.209"
        stroke="black"
        stroke-width="1.8"
    />
    <path
        fill-rule="evenodd"
        clip-rule="evenodd"
        d="M121.397 431.749C124.823 430.224 127.076 427.639 127.076 424.707C127.076 420.02 121.318 416.22 114.215 416.22C107.112 416.22 101.354 420.02 101.354 424.707C101.354 426.859 102.567 428.823 104.567 430.319C104.483 429.906 104.465 429.485 104.52 429.062C104.92 425.968 109.044 423.952 113.731 424.558C118.418 425.164 121.894 428.162 121.494 431.256C121.472 431.423 121.44 431.588 121.397 431.749ZM113.886 424.226C115.715 424.501 117.346 423.745 117.527 422.538C117.709 421.331 116.373 420.129 114.544 419.854C112.714 419.578 111.084 420.334 110.902 421.541C110.72 422.749 112.056 423.95 113.886 424.226Z"
        fill="#8F8E93"
    />
    <path
        d="M121.397 431.749C124.823 430.224 127.076 427.639 127.076 424.707C127.076 420.02 121.318 416.22 114.215 416.22C107.112 416.22 101.354 420.02 101.354 424.707C101.354 426.859 102.567 428.823 104.567 430.319M121.397 431.749C121.44 431.588 121.472 431.423 121.494 431.256C121.894 428.162 118.418 425.164 113.731 424.558C109.044 423.952 104.92 425.968 104.52 429.062C104.465 429.485 104.483 429.906 104.567 430.319M121.397 431.749C119.346 432.661 116.874 433.194 114.215 433.194C110.372 433.194 106.923 432.082 104.567 430.319M117.527 422.538C117.346 423.745 115.715 424.501 113.886 424.226C112.056 423.95 110.72 422.749 110.902 421.541C111.084 420.334 112.714 419.578 114.544 419.854C116.373 420.129 117.709 421.331 117.527 422.538Z"
        stroke="black"
        stroke-width="1.8"
    />
    <path
        fill-rule="evenodd"
        clip-rule="evenodd"
        d="M57.8075 406.049C50.7377 405.282 44.5978 408.429 44.0936 413.078C43.8348 415.464 45.1111 417.782 47.3708 419.576C47.3731 419.459 47.3806 419.34 47.3934 419.222C47.7319 416.101 51.6534 413.967 56.1523 414.455C60.6512 414.943 64.024 417.868 63.6855 420.989C63.6396 421.413 63.5275 421.818 63.3568 422.202C66.8931 421.052 69.3824 418.743 69.6957 415.854C70.1999 411.205 64.8773 406.815 57.8075 406.049ZM56.4461 414.113C58.2438 414.308 59.8108 413.455 59.9461 412.208C60.0813 410.961 58.7336 409.792 56.9358 409.597C55.1381 409.402 53.5711 410.255 53.4358 411.502C53.3006 412.749 54.6483 413.918 56.4461 414.113Z"
        fill="#8F8E93"
    />
    <path
        d="M63.3568 422.202C63.5275 421.818 63.6396 421.413 63.6855 420.989C64.024 417.868 60.6512 414.943 56.1523 414.455C51.6534 413.967 47.7319 416.101 47.3934 419.222C47.3806 419.34 47.3731 419.459 47.3708 419.576M63.3568 422.202C61.202 422.903 58.6586 423.173 55.9818 422.883C52.5407 422.51 49.5136 421.278 47.3708 419.576M63.3568 422.202C66.8931 421.052 69.3824 418.743 69.6957 415.854C70.1999 411.205 64.8773 406.815 57.8075 406.049C50.7377 405.282 44.5978 408.429 44.0936 413.078C43.8348 415.464 45.1111 417.782 47.3708 419.576M59.9461 412.208C59.8108 413.455 58.2438 414.308 56.4461 414.113C54.6483 413.918 53.3006 412.749 53.4358 411.502C53.5711 410.255 55.1381 409.402 56.9358 409.597C58.7336 409.792 60.0813 410.961 59.9461 412.208Z"
        stroke="black"
        stroke-width="1.8"
    />
    <path
        d="M294.504 185.902C293.61 185.787 292.796 185.479 292.07 184.983C291.349 184.482 290.78 183.844 290.362 183.077C289.944 182.314 289.735 181.494 289.735 180.622C289.728 178.449 289.719 176.275 289.709 174.099C290.224 174.154 290.738 174.212 291.25 174.271C291.264 176.451 291.276 178.63 291.286 180.81C291.286 181.4 291.427 181.954 291.709 182.476C291.991 182.993 292.373 183.421 292.853 183.756C293.344 184.09 293.887 184.299 294.488 184.372C295.094 184.45 295.632 184.382 296.107 184.163C296.587 183.949 296.969 183.615 297.245 183.16C297.517 182.706 297.653 182.178 297.642 181.583C297.618 179.379 297.594 177.175 297.569 174.971C298.081 175.027 298.595 175.082 299.11 175.138C299.138 177.352 299.166 179.563 299.194 181.771C299.209 182.659 299.011 183.437 298.603 184.111C298.201 184.784 297.637 185.286 296.911 185.604C296.201 185.918 295.397 186.017 294.504 185.902Z"
        fill="black"
    />
    <path
        d="M309.827 187.72C308.654 186.021 307.484 184.327 306.317 182.638C305.217 184.045 304.115 185.446 303.011 186.842C302.385 186.762 301.756 186.68 301.126 186.597C302.533 184.866 303.934 183.131 305.33 181.39C303.934 179.374 302.538 177.365 301.142 175.363C301.775 175.432 302.407 175.502 303.038 175.571C304.12 177.135 305.207 178.702 306.297 180.272C307.317 178.942 308.335 177.608 309.352 176.271C309.979 176.341 310.605 176.411 311.232 176.48C309.919 178.172 308.603 179.859 307.284 181.541C308.76 183.672 310.242 185.813 311.728 187.965C311.095 187.885 310.461 187.803 309.827 187.72Z"
        fill="black"
    />
    <path d="M314.146 188.279C313.652 188.212 313.159 188.148 312.668 188.085C314.5 184.492 316.323 180.878 318.137 177.243C318.624 177.298 319.112 177.352 319.599 177.405C317.792 181.05 315.974 184.675 314.146 188.279Z" fill="black" />
    <path
        d="M326.775 190.075C325.882 189.96 325.062 189.642 324.32 189.125C323.589 188.597 322.999 187.929 322.555 187.119C322.116 186.315 321.876 185.448 321.845 184.529C321.761 182.227 321.679 179.927 321.599 177.629C322.111 177.685 322.623 177.741 323.135 177.796C323.222 180.101 323.309 182.408 323.396 184.717C323.417 185.338 323.579 185.923 323.877 186.471C324.179 187.02 324.571 187.469 325.062 187.819C325.558 188.174 326.112 188.388 326.713 188.461C327.313 188.54 327.846 188.461 328.311 188.232C328.786 188.002 329.152 187.641 329.413 187.161C329.669 186.675 329.784 186.122 329.757 185.49C329.653 183.157 329.552 180.826 329.454 178.496C329.966 178.552 330.48 178.609 330.995 178.669C331.096 181.001 331.201 183.338 331.309 185.678C331.35 186.612 331.183 187.443 330.802 188.158C330.421 188.874 329.872 189.401 329.167 189.746C328.467 190.08 327.668 190.19 326.775 190.075Z"
        fill="black"
    />
    <path d="M335.915 179.212C336.114 183.195 336.31 187.178 336.505 191.162C335.986 191.095 335.468 191.029 334.949 190.963C334.757 186.987 334.566 183.012 334.374 179.039C334.89 179.099 335.403 179.156 335.915 179.212Z" fill="black" />
    <path
        d="M163.481 343.749C163.5 344.026 163.508 344.307 163.531 344.588C162.003 344.378 160.479 344.168 158.951 343.953C158.828 341.909 158.701 339.866 158.578 337.817C158.904 337.863 159.229 337.905 159.545 337.951C159.659 339.718 159.768 341.485 159.872 343.247C161.075 343.421 162.273 343.585 163.481 343.749ZM167.184 345.185C166.534 345.093 165.918 344.872 165.357 344.519C164.802 344.166 164.35 343.724 164.007 343.199C163.67 342.675 163.48 342.116 163.439 341.539C163.407 340.946 163.533 340.439 163.817 340.006C164.1 339.563 164.511 339.245 165.04 339.04C165.565 338.831 166.167 338.775 166.818 338.867C167.478 338.954 168.089 339.18 168.65 339.538C169.215 339.891 169.667 340.328 170 340.857C170.347 341.382 170.522 341.931 170.563 342.518C170.595 343.101 170.469 343.618 170.18 344.056C169.897 344.498 169.491 344.817 168.967 345.016C168.438 345.216 167.845 345.272 167.184 345.185ZM167.135 344.341C167.608 344.407 168.023 344.36 168.393 344.209C168.774 344.063 169.066 343.828 169.261 343.508C169.474 343.179 169.565 342.799 169.543 342.375C169.515 341.945 169.384 341.55 169.13 341.164C168.895 340.773 168.566 340.455 168.163 340.191C167.774 339.943 167.336 339.778 166.873 339.711C166.404 339.649 165.984 339.692 165.599 339.843C165.228 339.989 164.941 340.229 164.732 340.553C164.533 340.873 164.447 341.248 164.474 341.672C164.497 342.102 164.633 342.512 164.872 342.898C165.117 343.279 165.446 343.597 165.834 343.855C166.243 344.114 166.676 344.274 167.135 344.341ZM180.993 340.915C180.425 342.866 179.857 344.822 179.294 346.783C178.87 346.721 178.441 346.665 178.017 346.603C177.316 344.858 176.615 343.112 175.908 341.362C175.367 342.938 174.836 344.509 174.305 346.085C173.895 346.034 173.481 345.973 173.077 345.911C172.299 343.776 171.515 341.635 170.737 339.494C171.092 339.546 171.452 339.597 171.822 339.643C172.439 341.418 173.062 343.192 173.679 344.962C174.225 343.351 174.776 341.741 175.328 340.13C175.697 340.181 176.067 340.233 176.437 340.284C177.163 342.074 177.884 343.859 178.6 345.644C179.047 344.023 179.495 342.397 179.943 340.776C180.288 340.817 180.643 340.864 180.993 340.915ZM185.914 342.436C185.941 343.043 185.977 343.65 186.003 344.257C187.108 344.411 188.207 344.569 189.317 344.723C189.33 344.994 189.344 345.271 189.357 345.547C188.252 345.389 187.143 345.235 186.043 345.086C186.088 345.969 186.128 346.853 186.168 347.741C185.842 347.695 185.522 347.654 185.196 347.603C185.094 345.56 185.001 343.506 184.903 341.458C186.431 341.673 187.96 341.884 189.488 342.099C189.497 342.38 189.515 342.662 189.523 342.948C188.32 342.779 187.117 342.605 185.914 342.436ZM191.633 342.396C191.726 344.444 191.824 346.493 191.912 348.551C191.582 348.5 191.261 348.454 190.936 348.417C190.843 346.359 190.755 344.311 190.662 342.263C190.982 342.304 191.308 342.35 191.633 342.396ZM195.74 342.97C196.465 343.068 197.096 343.298 197.646 343.642C198.192 343.99 198.629 344.411 198.932 344.926C199.236 345.421 199.401 345.97 199.422 346.552C199.449 347.13 199.333 347.632 199.064 348.06C198.8 348.483 198.404 348.792 197.88 348.987C197.351 349.176 196.724 349.227 196.004 349.125C195.22 349.012 194.446 348.904 193.667 348.797C193.579 346.744 193.486 344.691 193.393 342.647C194.177 342.75 194.956 342.863 195.74 342.97ZM195.964 348.281C196.477 348.353 196.926 348.325 197.302 348.199C197.673 348.068 197.95 347.852 198.144 347.547C198.338 347.232 198.419 346.853 198.407 346.404C198.384 345.95 198.258 345.544 198.043 345.183C197.823 344.812 197.523 344.514 197.125 344.28C196.741 344.041 196.288 343.886 195.775 343.819C195.322 343.758 194.858 343.696 194.41 343.63C194.471 345.11 194.537 346.601 194.603 348.091C195.062 348.153 195.516 348.219 195.964 348.281ZM201.628 344.625C201.655 345.232 201.681 345.844 201.707 346.46C202.807 346.614 203.916 346.773 205.021 346.922C205.029 347.203 205.038 347.475 205.051 347.751C203.946 347.597 202.842 347.438 201.738 347.28C201.764 347.892 201.785 348.509 201.812 349.125C203.015 349.29 204.213 349.459 205.411 349.628C205.425 349.899 205.438 350.176 205.446 350.452C203.923 350.237 202.399 350.022 200.871 349.806C200.783 347.758 200.7 345.705 200.617 343.652C202.15 343.867 203.679 344.083 205.202 344.298C205.22 344.579 205.229 344.855 205.242 345.132C204.034 344.963 202.831 344.794 201.628 344.625ZM211.451 350.464C211.455 350.745 211.473 351.026 211.481 351.308C209.958 351.092 208.434 350.877 206.901 350.657C206.823 348.609 206.75 346.556 206.676 344.508C206.997 344.554 207.322 344.6 207.648 344.641C207.717 346.413 207.777 348.185 207.847 349.956C209.05 350.121 210.248 350.29 211.451 350.464ZM213.259 345.435C213.337 347.483 213.405 349.536 213.478 351.589C213.148 351.543 212.832 351.502 212.507 351.451C212.434 349.403 212.361 347.35 212.287 345.297C212.613 345.343 212.938 345.389 213.259 345.435ZM220.182 347.258C219.363 347.145 218.545 347.027 217.741 346.909C217.791 348.681 217.856 350.453 217.911 352.215C217.59 352.178 217.265 352.132 216.94 352.081C216.885 350.314 216.825 348.543 216.76 346.776C215.951 346.658 215.138 346.545 214.324 346.433C214.316 346.146 214.308 345.865 214.294 345.579C216.247 345.855 218.194 346.132 220.152 346.409C220.165 346.695 220.173 346.976 220.182 347.258ZM224.304 350.654C224.334 351.483 224.354 352.312 224.375 353.141C224.059 353.095 223.734 353.049 223.408 353.008C223.388 352.179 223.363 351.345 223.333 350.526C222.358 349.164 221.378 347.807 220.398 346.445C220.788 346.501 221.172 346.557 221.567 346.609C222.311 347.663 223.066 348.713 223.815 349.768C224.515 348.923 225.215 348.073 225.906 347.228C226.285 347.28 226.655 347.331 227.035 347.387C226.116 348.473 225.208 349.563 224.304 350.654ZM240.411 349.298C239.779 351.248 239.157 353.209 238.535 355.169C238.106 355.108 237.687 355.046 237.258 354.985C236.606 353.23 235.954 351.475 235.292 349.725C234.712 351.301 234.136 352.877 233.555 354.452C233.136 354.396 232.727 354.335 232.313 354.273C231.594 352.123 230.88 349.983 230.161 347.833C230.521 347.884 230.886 347.935 231.241 347.986C231.813 349.766 232.382 351.545 232.945 353.324C233.55 351.714 234.151 350.104 234.751 348.483C235.116 348.535 235.491 348.591 235.86 348.647C236.537 350.447 237.208 352.236 237.875 354.031C238.377 352.4 238.869 350.775 239.361 349.144C239.716 349.195 240.061 349.246 240.411 349.298ZM242.561 349.6C242.605 351.653 242.648 353.711 242.682 355.763C242.366 355.717 242.036 355.666 241.711 355.625C241.667 353.567 241.628 351.514 241.585 349.462C241.91 349.508 242.241 349.554 242.561 349.6ZM246.64 353.791C246.215 353.729 245.791 353.668 245.367 353.606C245.383 354.455 245.393 355.304 245.418 356.158C245.093 356.111 244.763 356.065 244.447 356.019C244.403 353.961 244.365 351.904 244.321 349.851C245.322 349.999 246.313 350.142 247.309 350.281C247.763 350.347 248.157 350.483 248.481 350.692C248.821 350.886 249.076 351.144 249.247 351.446C249.428 351.738 249.525 352.059 249.523 352.404C249.531 352.863 249.386 353.237 249.088 353.527C248.791 353.807 248.366 353.938 247.813 353.93C248.583 354.896 249.352 355.867 250.127 356.838C249.718 356.777 249.308 356.721 248.904 356.659C248.149 355.698 247.394 354.747 246.64 353.791ZM245.352 352.802C246.003 352.894 246.654 352.986 247.304 353.084C247.694 353.14 247.985 353.092 248.198 352.96C248.411 352.813 248.501 352.577 248.498 352.256C248.5 351.935 248.387 351.673 248.166 351.475C247.96 351.266 247.66 351.136 247.266 351.08C246.615 350.983 245.964 350.896 245.318 350.798C245.329 351.465 245.341 352.131 245.352 352.802ZM251.989 351.786C251.995 352.398 252.007 353.009 252.019 353.621C253.123 353.775 254.228 353.939 255.332 354.098C255.336 354.374 255.339 354.65 255.342 354.927C254.238 354.768 253.134 354.604 252.029 354.445C252.041 355.062 252.043 355.674 252.059 356.291C253.257 356.465 254.46 356.639 255.658 356.808C255.662 357.089 255.665 357.361 255.674 357.637C254.145 357.422 252.622 357.197 251.098 356.977C251.065 354.919 251.026 352.866 250.997 350.813C252.526 351.033 254.054 351.254 255.587 351.474C255.591 351.75 255.594 352.031 255.598 352.308C254.395 352.134 253.192 351.96 251.989 351.786ZM258.034 352.676C258.045 353.278 258.052 353.885 258.059 354.492C259.168 354.65 260.267 354.814 261.377 354.973C261.375 355.249 261.384 355.526 261.387 355.802C260.278 355.643 259.173 355.484 258.069 355.321C258.084 356.209 258.094 357.102 258.104 357.99C257.779 357.944 257.454 357.893 257.133 357.847C257.099 355.794 257.076 353.737 257.052 351.684C258.58 351.904 260.104 352.129 261.637 352.349C261.641 352.626 261.644 352.912 261.648 353.193C260.445 353.024 259.237 352.85 258.034 352.676ZM265.094 356.458C264.67 356.396 264.241 356.335 263.817 356.268C263.828 357.122 263.833 357.971 263.839 358.825C263.518 358.778 263.198 358.732 262.872 358.686C262.848 356.624 262.83 354.566 262.806 352.518C263.802 352.661 264.803 352.805 265.794 352.943C266.252 353.015 266.641 353.15 266.966 353.359C267.3 353.553 267.556 353.801 267.727 354.108C267.903 354.4 267.99 354.721 267.988 355.072C268 355.535 267.851 355.91 267.543 356.194C267.241 356.474 266.821 356.605 266.263 356.597C267.028 357.563 267.792 358.539 268.547 359.505C268.148 359.449 267.739 359.393 267.324 359.331C266.589 358.37 265.839 357.414 265.094 356.458ZM263.812 355.464C264.458 355.561 265.108 355.654 265.754 355.751C266.149 355.807 266.45 355.764 266.658 355.622C266.861 355.48 266.976 355.244 266.968 354.918C266.964 354.592 266.857 354.34 266.641 354.132C266.435 353.924 266.13 353.794 265.735 353.737C265.084 353.645 264.439 353.548 263.788 353.461C263.799 354.132 263.805 354.798 263.812 355.464ZM274.146 358.918C272.923 358.739 271.695 358.555 270.468 358.381C270.243 358.818 270.029 359.252 269.809 359.695C269.454 359.643 269.094 359.587 268.744 359.536C269.751 357.627 270.758 355.722 271.76 353.813C272.129 353.869 272.494 353.921 272.854 353.967C273.889 356.173 274.918 358.379 275.948 360.585C275.568 360.539 275.203 360.483 274.829 360.421C274.604 359.922 274.375 359.417 274.146 358.918ZM273.765 358.052C273.273 356.964 272.785 355.876 272.297 354.793C271.814 355.738 271.335 356.678 270.851 357.623C271.823 357.766 272.789 357.909 273.765 358.052ZM284.995 361.915C284.675 361.864 284.349 361.818 284.024 361.777C284.018 360.085 284.027 358.392 284.026 356.705C283.001 358.239 281.972 359.783 280.947 361.322C279.926 359.496 278.904 357.67 277.877 355.844C277.883 357.521 277.889 359.199 277.895 360.872C277.565 360.825 277.245 360.779 276.919 360.733C276.91 358.671 276.901 356.613 276.897 354.556C277.351 354.622 277.814 354.689 278.273 354.76C279.172 356.363 280.077 357.967 280.971 359.57C281.871 358.228 282.766 356.886 283.662 355.543C284.105 355.61 284.559 355.676 285.003 355.738C285.002 357.795 284.991 359.858 284.995 361.915ZM287.73 356.971C287.732 357.587 287.728 358.199 287.725 358.811C288.825 358.975 289.934 359.138 291.038 359.297C291.042 359.574 291.036 359.855 291.039 360.126C289.935 359.967 288.83 359.809 287.726 359.645C287.718 360.257 287.714 360.869 287.711 361.49C288.919 361.659 290.117 361.838 291.325 362.017C291.324 362.294 291.317 362.565 291.321 362.841C289.797 362.616 288.269 362.396 286.745 362.176C286.746 360.109 286.752 358.051 286.753 355.998C288.281 356.224 289.815 356.444 291.343 356.669C291.342 356.945 291.34 357.221 291.339 357.503C290.136 357.329 288.928 357.15 287.73 356.971Z"
        fill="black"
    />
    <path
        d="M192.122 134.843C190.16 134.59 188.207 134.45 186.326 134.45C183.221 134.45 180.181 134.73 177.227 135.268C171.074 139.477 165.599 144.665 162.637 151.481C162.263 152.341 161.911 153.209 161.581 154.082C155.996 168.888 156.813 185.481 165.287 199.431C177.469 219.487 201.79 228.015 224.858 222.264C227.776 218.912 230.281 215.178 232.294 211.144C211.312 216.667 189.937 210.178 179.781 193.458C172.62 181.669 172.544 167.275 178.23 154.176C181.276 147.161 185.974 140.516 192.122 134.843Z"
        fill="url(#paint9_linear_1219_4852)"
    />
    <path
        d="M217.271 201.563C200.252 201.563 185.95 188.575 185.95 169.465C185.95 155.601 194.779 143.641 205.265 138.12C201.362 136.645 196.716 135.435 192.122 134.843C185.974 140.516 181.276 147.161 178.23 154.176C172.544 167.275 172.62 181.669 179.781 193.458C189.937 210.178 211.312 216.667 232.294 211.144C234.725 206.271 236.437 200.96 237.288 195.358C231.903 200.529 224.912 201.563 217.271 201.563Z"
        fill="url(#paint10_linear_1219_4852)"
    />
    <path
        d="M194.29 165.003C194.29 181.877 208.63 195.556 223.742 195.556C228.861 195.556 233.653 193.986 237.751 191.254C237.85 189.916 237.901 188.564 237.901 187.2C237.901 166.207 225.911 148.078 208.552 139.586C201.213 145.066 194.29 154.404 194.29 165.003Z"
        fill="black"
    />
    <path
        d="M223.742 195.556C208.63 195.556 194.29 181.877 194.29 165.003C194.29 154.404 201.213 145.066 208.552 139.586C207.137 138.894 206.747 138.68 205.265 138.12C194.779 143.641 185.95 155.601 185.95 169.465C185.95 188.575 200.252 201.563 217.271 201.563C224.912 201.563 231.903 200.529 237.288 195.358C237.493 194.006 237.648 192.637 237.751 191.254C233.653 193.986 228.861 195.556 223.742 195.556Z"
        fill="#F1EFED"
    />
    <path
        d="M212.858 232.444C231.823 224.514 245.213 205.199 245.213 182.63C245.213 177.313 244.47 172.177 243.085 167.327C236.754 145.145 217.012 128.966 193.638 128.966C180.983 128.966 169.393 133.708 160.42 141.577C165.53 138.535 171.197 136.366 177.227 135.268C180.181 134.73 183.221 134.45 186.326 134.45C188.207 134.45 190.16 134.59 192.122 134.843C196.716 135.435 201.362 136.645 205.265 138.12C206.747 138.68 207.137 138.894 208.552 139.586C225.911 148.078 237.901 166.207 237.901 187.2C237.901 188.564 237.85 189.916 237.751 191.254C237.648 192.637 237.493 194.006 237.288 195.358C236.437 200.96 234.725 206.271 232.294 211.144C230.281 215.178 227.776 218.912 224.858 222.264C221.394 226.244 217.348 229.683 212.858 232.444Z"
        fill="black"
    />
    <path
        d="M142.062 182.63C142.062 212.268 165.153 236.294 193.638 236.294C195.34 236.294 197.024 236.208 198.685 236.041C203.649 235.539 208.407 234.305 212.858 232.444C217.348 229.683 221.394 226.244 224.858 222.264C201.79 228.015 177.469 219.487 165.287 199.431C156.813 185.481 155.996 168.888 161.581 154.082C161.911 153.209 162.263 152.341 162.637 151.481C165.599 144.665 171.074 139.477 177.227 135.268C171.197 136.366 165.53 138.535 160.42 141.577C153.305 147.816 147.834 156.022 144.782 165.388C143.019 170.8 142.062 176.599 142.062 182.63Z"
        fill="url(#paint11_linear_1219_4852)"
    />
    <path
        d="M212.858 232.444L213.244 233.366V233.366L212.858 232.444ZM243.085 167.327L244.047 167.053L243.085 167.327ZM205.265 138.12L205.618 137.185L205.618 137.185L205.265 138.12ZM179.781 193.458L180.635 192.939L179.781 193.458ZM178.23 154.176L179.147 154.575L178.23 154.176ZM165.287 199.431L164.432 199.95L165.287 199.431ZM161.581 154.082L162.517 154.435L161.581 154.082ZM162.637 151.481L163.554 151.88V151.88L162.637 151.481ZM180.446 133.184L180.97 134.036L180.446 133.184ZM144.782 165.388L143.831 165.078L144.782 165.388ZM198.685 236.041L198.785 237.036L198.685 236.041ZM193.638 235.294C165.743 235.294 143.062 211.754 143.062 182.63H141.062C141.062 212.782 164.564 237.294 193.638 237.294V235.294ZM213.244 233.366C232.585 225.279 246.213 205.598 246.213 182.63H244.213C244.213 204.8 231.061 223.749 212.473 231.521L213.244 233.366ZM193.638 127.966C180.727 127.966 168.906 132.805 159.76 140.825L161.079 142.329C169.881 134.611 181.239 129.966 193.638 129.966V127.966ZM193.638 129.966C216.53 129.966 235.905 145.814 242.124 167.602L244.047 167.053C237.603 144.475 217.493 127.966 193.638 127.966V129.966ZM242.124 167.602C243.483 172.363 244.213 177.407 244.213 182.63H246.213C246.213 177.22 245.456 171.991 244.047 167.053L242.124 167.602ZM223.742 194.556C209.192 194.556 195.29 181.334 195.29 165.003H193.29C193.29 182.42 208.068 196.556 223.742 196.556V194.556ZM217.271 200.563C200.793 200.563 186.95 188.012 186.95 169.465H184.95C184.95 189.138 199.711 202.563 217.271 202.563V200.563ZM208.992 138.688C207.578 137.996 207.15 137.763 205.618 137.185L204.911 139.055C206.345 139.597 206.696 139.791 208.113 140.484L208.992 138.688ZM204.799 137.235C194.031 142.904 184.95 155.179 184.95 169.465H186.95C186.95 156.022 195.526 144.377 205.731 139.005L204.799 137.235ZM217.271 202.563C224.971 202.563 232.303 201.531 237.98 196.079L236.595 194.637C231.503 199.527 224.853 200.563 217.271 200.563V202.563ZM238.276 195.508C238.485 194.131 238.643 192.737 238.748 191.328L236.754 191.18C236.653 192.538 236.5 193.881 236.299 195.208L238.276 195.508ZM237.196 190.422C233.252 193.052 228.652 194.556 223.742 194.556V196.556C229.071 196.556 234.054 194.921 238.306 192.086L237.196 190.422ZM195.29 165.003C195.29 154.833 201.957 145.758 209.15 140.387L207.954 138.785C200.468 144.374 193.29 153.976 193.29 165.003H195.29ZM236.901 187.2C236.901 188.539 236.851 189.866 236.754 191.18L238.748 191.328C238.849 189.965 238.901 188.589 238.901 187.2H236.901ZM208.113 140.484C225.133 148.811 236.901 166.594 236.901 187.2H238.901C238.901 165.819 226.688 147.345 208.992 138.688L208.113 140.484ZM180.635 192.939C173.672 181.474 173.567 167.43 179.147 154.575L177.313 153.778C171.521 167.121 171.569 181.864 178.926 193.977L180.635 192.939ZM166.141 198.912C157.842 185.249 157.03 168.982 162.517 154.435L160.646 153.729C154.963 168.795 155.784 185.712 164.432 199.95L166.141 198.912ZM161.719 151.083C161.339 151.958 160.981 152.84 160.646 153.729L162.517 154.435C162.841 153.577 163.186 152.725 163.554 151.88L161.719 151.083ZM181.344 131.458L179.922 132.332L180.97 134.036L182.391 133.162L181.344 131.458ZM177.048 134.284C170.898 135.404 165.118 137.617 159.908 140.718L160.931 142.436C165.941 139.454 171.496 137.328 177.406 136.252L177.048 134.284ZM159.76 140.825C152.51 147.183 146.939 155.541 143.831 165.078L145.733 165.698C148.73 156.502 154.099 148.45 161.079 142.329L159.76 140.825ZM198.785 237.036C203.85 236.524 208.704 235.265 213.244 233.366L212.473 231.521C208.111 233.345 203.448 234.554 198.584 235.046L198.785 237.036ZM213.382 233.296C217.959 230.482 222.082 226.976 225.613 222.92L224.104 221.607C220.705 225.512 216.737 228.885 212.335 231.592L213.382 233.296ZM224.616 221.293C201.92 226.952 178.069 218.548 166.141 198.912L164.432 199.95C176.869 220.425 201.661 229.078 225.1 223.234L224.616 221.293ZM163.554 151.88C166.41 145.307 171.714 140.251 177.792 136.093L176.663 134.443C170.434 138.703 164.788 144.022 161.719 151.083L163.554 151.88ZM228.881 220.058C227.466 220.526 226.044 220.937 224.616 221.293L225.1 223.234C226.576 222.866 228.047 222.44 229.509 221.957L228.881 220.058ZM177.792 136.093C178.833 135.381 179.895 134.696 180.97 134.036L179.922 132.332C178.823 133.008 177.734 133.71 176.663 134.443L177.792 136.093ZM198.584 235.046C196.957 235.21 195.307 235.294 193.638 235.294V237.294C195.374 237.294 197.091 237.207 198.785 237.036L198.584 235.046ZM143.062 182.63C143.062 176.705 144.002 171.01 145.733 165.698L143.831 165.078C142.036 170.589 141.062 176.493 141.062 182.63H143.062ZM177.406 136.252C180.301 135.725 183.282 135.45 186.326 135.45V133.45C183.161 133.45 180.06 133.736 177.048 134.284L177.406 136.252ZM192.25 133.851C190.252 133.593 188.256 133.45 186.326 133.45V135.45C188.158 135.45 190.068 135.586 191.994 135.835L192.25 133.851ZM225.613 222.92C228.585 219.505 231.138 215.701 233.189 211.59L231.399 210.698C229.424 214.656 226.966 218.319 224.104 221.607L225.613 222.92ZM232.039 210.177C211.372 215.617 190.506 209.188 180.635 192.939L178.926 193.977C189.367 211.167 211.252 217.717 232.548 212.111L232.039 210.177ZM179.147 154.575C182.135 147.691 186.751 141.16 192.8 135.578L191.444 134.108C185.197 139.872 180.416 146.63 177.313 153.778L179.147 154.575ZM237.551 208.437C235.722 209.112 233.882 209.692 232.039 210.177L232.548 212.111C234.453 211.61 236.355 211.011 238.244 210.314L237.551 208.437ZM236.299 195.208C235.465 200.706 233.784 205.917 231.399 210.698L233.189 211.59C235.666 206.625 237.41 201.215 238.276 195.508L236.299 195.208ZM194.985 131.074C193.757 132.05 192.576 133.063 191.444 134.108L192.8 135.578C193.897 134.566 195.04 133.585 196.23 132.639L194.985 131.074ZM191.994 135.835C196.508 136.416 201.078 137.606 204.911 139.055L205.618 137.185C201.646 135.683 196.924 134.453 192.25 133.851L191.994 135.835Z"
        fill="black"
    />
    <path
        d="M220.584 173.774C223.217 174.638 226.09 173.089 227 170.314C227.911 167.539 226.514 164.589 223.881 163.725C223.269 163.524 222.643 163.454 222.032 163.499C223.566 164.813 224.225 167.045 223.527 169.174C222.828 171.303 220.974 172.711 218.96 172.86C219.425 173.259 219.971 173.573 220.584 173.774Z"
        fill="#F1EFED"
        stroke="black"
        stroke-width="1.5"
    />
    <rect x="209.18" y="157.691" width="7.74433" height="8.43579" rx="1.56684" fill="#F1EFED" stroke="black" stroke-width="1.5" />
    <path
        fill-rule="evenodd"
        clip-rule="evenodd"
        d="M312.847 252.746C324.097 252.746 333.216 244.445 333.216 234.205C333.216 230.79 332.201 227.589 330.431 224.841L294.312 241.905C297.524 248.301 304.616 252.746 312.847 252.746Z"
        fill="black"
    />
    <path d="M312.847 215.665C301.598 215.665 292.479 223.966 292.479 234.205C292.479 236.952 293.135 239.56 294.312 241.905L330.431 224.841C326.895 219.351 320.344 215.665 312.847 215.665Z" fill="#F1EFED" />
    <path
        d="M330.431 224.841L331.188 224.354L330.431 224.841ZM294.312 241.905L293.508 242.308L294.312 241.905ZM332.316 234.205C332.316 243.871 323.681 251.846 312.847 251.846V253.646C324.512 253.646 334.116 245.02 334.116 234.205H332.316ZM293.379 234.205C293.379 224.54 302.014 216.565 312.847 216.565V214.765C301.182 214.765 291.579 223.391 291.579 234.205H293.379ZM312.847 216.565C320.051 216.565 326.311 220.107 329.675 225.328L331.188 224.354C327.479 218.596 320.637 214.765 312.847 214.765V216.565ZM329.675 225.328C331.356 227.939 332.316 230.972 332.316 234.205H334.116C334.116 230.607 333.046 227.239 331.188 224.354L329.675 225.328ZM312.847 251.846C304.935 251.846 298.167 247.575 295.117 241.501L293.508 242.308C296.882 249.028 304.296 253.646 312.847 253.646V251.846ZM295.117 241.501C294 239.276 293.379 236.807 293.379 234.205H291.579C291.579 237.098 292.27 239.843 293.508 242.308L295.117 241.501ZM330.047 224.027L293.928 241.091L294.697 242.718L330.816 225.655L330.047 224.027Z"
        fill="black"
    />
    <ellipse cx="309.844" cy="234.205" rx="17.3658" ry="18.5409" fill="#5869DD" stroke="black" stroke-width="1.8" />
    <ellipse cx="308.799" cy="233.683" rx="10.5762" ry="10.7067" fill="url(#paint12_linear_1219_4852)" stroke="black" stroke-width="1.8" />
    <defs>
        <linearGradient id="paint0_linear_1219_4852" x1="112.815" y1="265.803" x2="160.865" y2="474.715" gradientUnits="userSpaceOnUse">
            <stop stop-color="#D6FFBB" />
            <stop offset="1" stop-color="#5869DD" />
        </linearGradient>
        <linearGradient id="paint1_linear_1219_4852" x1="61.6314" y1="137.323" x2="319.638" y2="117.476" gradientUnits="userSpaceOnUse">
            <stop stop-color="#D6FFBB" />
            <stop offset="1" stop-color="#5869DD" />
        </linearGradient>
        <linearGradient id="paint2_linear_1219_4852" x1="5.64061" y1="237.385" x2="313.641" y2="166.14" gradientUnits="userSpaceOnUse">
            <stop stop-color="#D6FFBB" />
            <stop offset="1" stop-color="#5869DD" />
        </linearGradient>
        <linearGradient id="paint3_linear_1219_4852" x1="-19" y1="237" x2="377.641" y2="276.14" gradientUnits="userSpaceOnUse">
            <stop stop-color="#D6FFBB" />
            <stop offset="1" stop-color="#5869DD" />
        </linearGradient>
        <linearGradient id="paint4_linear_1219_4852" x1="26.6387" y1="237.385" x2="466.92" y2="237.385" gradientUnits="userSpaceOnUse">
            <stop stop-color="#D6FFBB" />
            <stop offset="1" stop-color="#5869DD" />
        </linearGradient>
        <linearGradient id="paint5_linear_1219_4852" x1="178.622" y1="51.7637" x2="417.826" y2="136.278" gradientUnits="userSpaceOnUse">
            <stop stop-color="#D6FFBB" />
            <stop offset="1" stop-color="#5869DD" />
        </linearGradient>
        <linearGradient id="paint6_linear_1219_4852" x1="26.6387" y1="237.385" x2="466.92" y2="237.385" gradientUnits="userSpaceOnUse">
            <stop stop-color="#D6FFBB" />
            <stop offset="1" stop-color="#5869DD" />
        </linearGradient>
        <linearGradient id="paint7_linear_1219_4852" x1="26.6387" y1="237.385" x2="466.92" y2="237.385" gradientUnits="userSpaceOnUse">
            <stop stop-color="#D6FFBB" />
            <stop offset="1" stop-color="#5869DD" />
        </linearGradient>
        <linearGradient id="paint8_linear_1219_4852" x1="623.641" y1="356.14" x2="339.641" y2="310.14" gradientUnits="userSpaceOnUse">
            <stop stop-color="#D6FFBB" />
            <stop offset="1" stop-color="#5869DD" />
        </linearGradient>
        <linearGradient id="paint9_linear_1219_4852" x1="267.41" y1="201.563" x2="217.438" y2="125.515" gradientUnits="userSpaceOnUse">
            <stop stop-color="#D6FFBB" />
            <stop offset="1" stop-color="#5869DD" />
        </linearGradient>
        <linearGradient id="paint10_linear_1219_4852" x1="252.786" y1="206.785" x2="179.583" y2="159.374" gradientUnits="userSpaceOnUse">
            <stop stop-color="#D6FFBB" />
            <stop offset="1" stop-color="#5869DD" />
        </linearGradient>
        <linearGradient id="paint11_linear_1219_4852" x1="227.194" y1="199.474" x2="142.063" y2="167.615" gradientUnits="userSpaceOnUse">
            <stop stop-color="#D6FFBB" />
            <stop offset="1" stop-color="#5869DD" />
        </linearGradient>
        <linearGradient id="paint12_linear_1219_4852" x1="298.223" y1="233.683" x2="319.375" y2="233.683" gradientUnits="userSpaceOnUse">
            <stop stop-color="#D6FFBB" />
            <stop offset="1" stop-color="#5869DD" />
        </linearGradient>
    </defs>
</svg>
