<svg xmlns="http://www.w3.org/2000/svg" width="45" height="32" viewBox="0 0 45 32" fill="none">
    <path
        d="M34.8023 2.71343C29.9777 2.73558 26.3092 5.91417 24.9382 10.9792C22.6333 7.44993 20.8361 3.41117 19.806 0L14.7294 0.0258422L14.7924 13.4342C14.8036 16.0886 12.6544 18.252 9.99009 18.263C7.32582 18.2741 5.15438 16.1329 5.14326 13.4785L5.08027 0.0701431L0 0.0922935L0.0629939 13.5007C0.0889325 19.0641 4.55409 23.4721 10.0123 23.4462C15.4743 23.4204 19.8949 18.9718 19.869 13.4084L19.8579 11.1306C20.8806 13.15 22.1627 15.2912 23.5671 17.185L20.4619 32L25.6644 31.9742L27.9026 21.2127C29.9406 22.4679 32.2269 23.2174 34.8912 23.2026C40.4791 23.1767 45.0295 18.6027 44.9999 12.7845C44.9813 7.21735 40.3865 2.68759 34.8023 2.71343ZM34.8727 18.0194C32.842 18.0305 30.8077 17.1518 29.1513 15.7674L29.6479 13.7443V13.6151C30.0184 11.4629 31.1449 7.78957 34.9505 7.77111C37.7519 7.76742 40.0307 10.0157 40.053 12.8066C39.9418 15.7157 37.5406 18.0046 34.8727 18.0194Z"
        fill="black"
    />
</svg>
