<svg xmlns="http://www.w3.org/2000/svg" width="505" height="328" viewBox="0 0 505 328" fill="none">
    <path d="M60.2031 303.503L75.2031 302.953L60.2031 303.503Z" fill="black" />
    <path
        d="M90.1957 302.426L105.196 301.906C105.225 301.908 105.253 301.92 105.275 301.94C105.297 301.96 105.311 301.987 105.316 302.016C105.317 302.032 105.315 302.047 105.31 302.061C105.306 302.076 105.298 302.089 105.287 302.101C105.277 302.112 105.264 302.121 105.25 302.127C105.236 302.133 105.221 302.136 105.206 302.136V302.136L90.2057 302.576C90.1861 302.576 90.1672 302.569 90.1524 302.556C90.1377 302.544 90.1282 302.526 90.1257 302.506C90.1243 302.496 90.125 302.486 90.1279 302.476C90.1307 302.467 90.1357 302.458 90.1423 302.45C90.149 302.443 90.1572 302.436 90.1664 302.432C90.1756 302.428 90.1856 302.426 90.1957 302.426V302.426Z"
        fill="black"
    />
    <path
        d="M120.203 301.396L135.203 300.876C135.228 300.873 135.253 300.876 135.278 300.884C135.302 300.891 135.324 300.904 135.343 300.921C135.362 300.938 135.377 300.959 135.387 300.982C135.397 301.006 135.403 301.031 135.403 301.056C135.403 301.106 135.384 301.154 135.351 301.191C135.318 301.228 135.272 301.251 135.223 301.256V301.256L120.223 301.696C120.203 301.697 120.183 301.695 120.164 301.689C120.146 301.682 120.128 301.672 120.113 301.659C120.099 301.646 120.086 301.631 120.078 301.613C120.069 301.595 120.064 301.576 120.063 301.556C120.062 301.517 120.076 301.479 120.102 301.449C120.128 301.42 120.164 301.401 120.203 301.396Z"
        fill="black"
    />
    <path
        d="M150.195 300.324L165.195 299.734C165.266 299.734 165.334 299.761 165.386 299.809C165.438 299.857 165.47 299.924 165.475 299.994C165.475 300.064 165.448 300.131 165.399 300.182C165.351 300.232 165.284 300.262 165.215 300.264V300.264L150.215 300.774C150.185 300.776 150.155 300.771 150.127 300.761C150.099 300.75 150.074 300.734 150.053 300.714C150.031 300.693 150.014 300.668 150.002 300.641C149.991 300.614 149.985 300.584 149.985 300.554C149.983 300.525 149.988 300.497 149.997 300.469C150.007 300.442 150.022 300.417 150.042 300.396C150.061 300.374 150.085 300.357 150.111 300.345C150.137 300.333 150.166 300.326 150.195 300.324V300.324Z"
        fill="black"
    />
    <path
        d="M180.138 299.109L195.138 298.399C195.229 298.396 195.318 298.429 195.385 298.49C195.452 298.552 195.493 298.638 195.498 298.729C195.501 298.817 195.469 298.903 195.409 298.969C195.349 299.034 195.266 299.073 195.178 299.079V299.079L180.178 299.709C180.139 299.71 180.099 299.703 180.062 299.69C180.025 299.676 179.992 299.655 179.963 299.628C179.934 299.601 179.911 299.569 179.895 299.533C179.878 299.497 179.869 299.458 179.868 299.419C179.865 299.38 179.87 299.342 179.882 299.306C179.894 299.27 179.913 299.236 179.938 299.207C179.964 299.179 179.994 299.155 180.028 299.138C180.063 299.121 180.1 299.111 180.138 299.109Z"
        fill="black"
    />
    <path
        d="M210.1 297.613L225.1 296.743C225.21 296.737 225.318 296.775 225.4 296.848C225.482 296.921 225.532 297.023 225.54 297.133C225.544 297.187 225.537 297.242 225.52 297.294C225.502 297.346 225.475 297.394 225.438 297.435C225.402 297.476 225.358 297.509 225.308 297.533C225.259 297.557 225.205 297.57 225.15 297.573V297.573L210.15 298.373C210.1 298.375 210.05 298.368 210.003 298.352C209.956 298.335 209.913 298.309 209.875 298.276C209.838 298.242 209.808 298.202 209.787 298.157C209.765 298.112 209.753 298.063 209.75 298.013C209.747 297.914 209.782 297.818 209.846 297.744C209.911 297.67 210.002 297.623 210.1 297.613V297.613Z"
        fill="black"
    />
    <path
        d="M240.041 295.78L255.041 294.69C255.106 294.683 255.171 294.69 255.233 294.709C255.295 294.728 255.353 294.76 255.403 294.802C255.452 294.844 255.493 294.895 255.522 294.954C255.551 295.012 255.567 295.075 255.571 295.14C255.58 295.27 255.537 295.397 255.453 295.496C255.369 295.595 255.25 295.657 255.121 295.67L240.121 296.67C240.062 296.676 240.002 296.669 239.945 296.651C239.888 296.632 239.836 296.602 239.791 296.563C239.746 296.524 239.71 296.476 239.684 296.422C239.658 296.368 239.644 296.31 239.641 296.25C239.635 296.136 239.674 296.023 239.748 295.936C239.822 295.848 239.927 295.793 240.041 295.78V295.78Z"
        fill="black"
    />
    <path
        d="M269.95 293.477L284.88 292.127C285.023 292.115 285.165 292.16 285.275 292.252C285.385 292.343 285.455 292.474 285.47 292.617C285.482 292.759 285.437 292.901 285.345 293.011C285.254 293.121 285.123 293.192 284.98 293.207V293.207L270.03 294.507C269.895 294.515 269.761 294.471 269.656 294.384C269.552 294.296 269.486 294.172 269.47 294.037C269.465 293.968 269.473 293.9 269.494 293.834C269.515 293.769 269.549 293.709 269.594 293.657C269.639 293.605 269.693 293.562 269.754 293.531C269.815 293.5 269.882 293.482 269.95 293.477V293.477Z"
        fill="black"
    />
    <path
        d="M299.809 290.741L314.659 288.841C314.812 288.821 314.966 288.862 315.088 288.956C315.21 289.05 315.29 289.188 315.309 289.341C315.329 289.493 315.288 289.647 315.194 289.769C315.1 289.891 314.962 289.971 314.809 289.991V289.991L299.889 291.861C299.742 291.878 299.594 291.836 299.478 291.744C299.362 291.652 299.287 291.518 299.269 291.371C299.252 291.225 299.293 291.079 299.383 290.963C299.473 290.847 299.604 290.771 299.749 290.751L299.809 290.741Z"
        fill="black"
    />
    <path
        d="M329.293 285.86C334.115 284.646 338.831 283.041 343.393 281.061C343.467 281.028 343.548 281.01 343.63 281.008C343.712 281.006 343.793 281.02 343.869 281.05C343.946 281.08 344.015 281.124 344.074 281.181C344.133 281.238 344.18 281.306 344.213 281.381C344.246 281.456 344.264 281.536 344.266 281.618C344.268 281.7 344.253 281.781 344.223 281.857C344.194 281.934 344.149 282.003 344.092 282.062C344.036 282.121 343.968 282.168 343.893 282.201C339.265 284.192 334.482 285.804 329.593 287.019C329.516 287.04 329.437 287.046 329.358 287.035C329.28 287.025 329.205 286.999 329.137 286.959C329.069 286.919 329.009 286.865 328.962 286.802C328.915 286.738 328.881 286.666 328.863 286.589C328.823 286.436 328.846 286.272 328.927 286.136C329.007 285.999 329.139 285.9 329.293 285.86V285.86Z"
        fill="black"
    />
    <path
        d="M346.203 272.482C344.046 271.3 341.795 270.297 339.473 269.483C337.153 268.633 334.773 267.873 332.383 267.173C332.299 267.149 332.222 267.109 332.154 267.054C332.086 267 332.029 266.933 331.988 266.857C331.946 266.781 331.919 266.697 331.91 266.611C331.901 266.524 331.908 266.437 331.933 266.353C331.957 266.269 331.998 266.189 332.053 266.12C332.107 266.051 332.175 265.994 332.253 265.951C332.33 265.908 332.414 265.881 332.502 265.871C332.59 265.862 332.678 265.869 332.763 265.893C335.173 266.613 337.563 267.383 339.933 268.263C342.327 269.114 344.642 270.171 346.853 271.423C346.926 271.465 346.99 271.521 347.041 271.589C347.093 271.656 347.13 271.733 347.152 271.815C347.173 271.896 347.178 271.982 347.166 272.065C347.154 272.149 347.126 272.23 347.083 272.302C346.996 272.448 346.854 272.554 346.69 272.597C346.525 272.64 346.351 272.617 346.203 272.532V272.482Z"
        fill="black"
    />
    <path
        d="M317.882 263.478L310.542 262.019C308.092 261.549 305.662 261.019 303.192 260.619C303.007 260.59 302.84 260.488 302.73 260.336C302.619 260.184 302.573 259.995 302.602 259.809C302.634 259.623 302.738 259.457 302.891 259.346C303.045 259.236 303.235 259.19 303.422 259.219C305.892 259.629 308.342 260.219 310.802 260.649L318.172 262.139C318.26 262.156 318.344 262.192 318.419 262.242C318.493 262.293 318.557 262.357 318.606 262.433C318.656 262.508 318.69 262.592 318.706 262.681C318.722 262.769 318.721 262.86 318.702 262.948C318.685 263.036 318.651 263.12 318.602 263.195C318.553 263.27 318.489 263.335 318.415 263.385C318.34 263.435 318.257 263.47 318.169 263.488C318.081 263.505 317.99 263.506 317.902 263.488L317.882 263.478Z"
        fill="black"
    />
    <path
        d="M288.386 258.239L273.546 256.239C273.448 256.226 273.354 256.193 273.269 256.143C273.183 256.093 273.109 256.027 273.049 255.948C272.99 255.869 272.947 255.779 272.922 255.683C272.897 255.587 272.892 255.488 272.906 255.39C272.92 255.292 272.952 255.197 273.002 255.112C273.053 255.027 273.119 254.952 273.198 254.893C273.277 254.834 273.367 254.79 273.463 254.766C273.559 254.741 273.658 254.736 273.756 254.75V254.75L288.626 256.829C288.721 256.841 288.813 256.873 288.895 256.921C288.978 256.969 289.051 257.033 289.108 257.109C289.166 257.185 289.208 257.272 289.232 257.365C289.255 257.458 289.26 257.554 289.246 257.649C289.234 257.744 289.203 257.835 289.155 257.918C289.107 258.001 289.043 258.073 288.966 258.131C288.89 258.189 288.803 258.231 288.71 258.254C288.617 258.278 288.521 258.283 288.426 258.269L288.386 258.239Z"
        fill="black"
    />
    <path
        d="M258.654 254.501L243.744 253.031C243.536 253.006 243.346 252.901 243.214 252.739C243.081 252.577 243.017 252.369 243.034 252.161C243.043 252.056 243.072 251.955 243.121 251.862C243.17 251.769 243.237 251.687 243.318 251.621C243.399 251.555 243.493 251.506 243.594 251.476C243.694 251.447 243.8 251.438 243.904 251.451V251.451L258.844 252.961C259.048 252.984 259.234 253.085 259.363 253.244C259.492 253.403 259.554 253.607 259.534 253.811C259.511 254.014 259.409 254.201 259.25 254.33C259.091 254.459 258.888 254.52 258.684 254.501H258.654Z"
        fill="black"
    />
    <path
        d="M228.81 251.796L213.86 250.796C213.639 250.781 213.433 250.678 213.286 250.512C213.14 250.345 213.066 250.127 213.08 249.906C213.087 249.796 213.117 249.689 213.166 249.59C213.216 249.491 213.284 249.404 213.368 249.332C213.452 249.26 213.549 249.206 213.654 249.172C213.759 249.139 213.87 249.126 213.98 249.136V249.136L228.98 250.216C229.196 250.234 229.396 250.336 229.536 250.501C229.677 250.666 229.746 250.88 229.73 251.096C229.712 251.31 229.611 251.508 229.448 251.649C229.285 251.789 229.074 251.86 228.86 251.846L228.81 251.796Z"
        fill="black"
    />
    <path
        d="M198.889 249.856L183.889 249.086C183.663 249.073 183.451 248.971 183.299 248.802C183.147 248.634 183.068 248.412 183.079 248.186C183.095 247.96 183.197 247.75 183.365 247.598C183.533 247.447 183.753 247.367 183.979 247.376V247.376L198.979 248.166C199.09 248.171 199.199 248.198 199.3 248.246C199.401 248.293 199.491 248.36 199.565 248.443C199.64 248.526 199.697 248.623 199.734 248.728C199.77 248.833 199.786 248.944 199.779 249.056C199.774 249.167 199.747 249.276 199.699 249.377C199.652 249.477 199.584 249.567 199.502 249.642C199.419 249.716 199.322 249.774 199.217 249.81C199.112 249.847 199 249.862 198.889 249.856V249.856Z"
        fill="black"
    />
    <path
        d="M168.934 248.407L153.934 247.787C153.82 247.784 153.708 247.757 153.604 247.71C153.499 247.663 153.406 247.595 153.328 247.512C153.25 247.428 153.189 247.33 153.149 247.223C153.109 247.116 153.09 247.002 153.094 246.887C153.105 246.656 153.206 246.438 153.377 246.28C153.547 246.123 153.773 246.039 154.004 246.047L169.004 246.687C169.118 246.691 169.23 246.718 169.334 246.765C169.437 246.813 169.53 246.88 169.607 246.964C169.685 247.048 169.744 247.146 169.783 247.253C169.822 247.36 169.84 247.474 169.834 247.587C169.821 247.815 169.72 248.028 169.552 248.181C169.383 248.334 169.162 248.416 168.934 248.407V248.407Z"
        fill="black"
    />
    <path
        d="M138.968 247.186L123.968 246.576C123.733 246.565 123.513 246.463 123.353 246.29C123.194 246.118 123.11 245.89 123.118 245.656C123.122 245.539 123.149 245.425 123.197 245.319C123.245 245.213 123.314 245.117 123.4 245.038C123.486 244.959 123.586 244.898 123.696 244.858C123.805 244.818 123.921 244.8 124.038 244.806V244.806L139.038 245.436C139.153 245.439 139.266 245.466 139.371 245.514C139.476 245.562 139.57 245.63 139.648 245.715C139.726 245.8 139.787 245.899 139.826 246.007C139.866 246.116 139.883 246.231 139.878 246.346C139.874 246.461 139.847 246.574 139.799 246.679C139.751 246.784 139.683 246.878 139.598 246.956C139.514 247.034 139.414 247.095 139.306 247.134C139.198 247.173 139.083 247.191 138.968 247.186V247.186Z"
        fill="black"
    />
    <path
        d="M109.003 245.902L94.0035 245.162C93.779 245.137 93.5722 245.029 93.424 244.858C93.2758 244.688 93.1971 244.468 93.2035 244.242C93.2086 244.124 93.2371 244.009 93.2872 243.902C93.3374 243.795 93.4083 243.7 93.4957 243.62C93.5832 243.541 93.6855 243.48 93.7967 243.441C93.9079 243.402 94.0258 243.385 94.1435 243.392V243.392L109.143 244.152C109.26 244.157 109.374 244.185 109.48 244.235C109.585 244.285 109.68 244.355 109.758 244.441C109.836 244.528 109.896 244.629 109.935 244.739C109.974 244.849 109.99 244.966 109.983 245.082C109.976 245.201 109.945 245.318 109.891 245.425C109.837 245.532 109.762 245.626 109.67 245.703C109.578 245.78 109.472 245.837 109.357 245.871C109.243 245.905 109.122 245.916 109.003 245.902Z"
        fill="black"
    />
    <path
        d="M79.0255 244.306L64.0255 243.306C63.9037 243.297 63.7848 243.264 63.6758 243.209C63.5669 243.153 63.47 243.077 63.3909 242.984C63.3117 242.891 63.252 242.783 63.215 242.666C63.178 242.55 63.1646 242.427 63.1756 242.306C63.1843 242.184 63.2173 242.066 63.2727 241.957C63.3281 241.849 63.4046 241.752 63.4979 241.674C63.5912 241.596 63.6992 241.537 63.8156 241.501C63.932 241.465 64.0544 241.453 64.1756 241.466V241.466L79.1756 242.466C79.2966 242.476 79.4143 242.51 79.5222 242.565C79.63 242.621 79.7257 242.698 79.8038 242.791C79.8819 242.884 79.9408 242.991 79.9771 243.107C80.0135 243.223 80.0265 243.345 80.0156 243.466C80.0068 243.586 79.974 243.704 79.9193 243.812C79.8645 243.919 79.7889 244.015 79.6967 244.093C79.6046 244.171 79.4977 244.231 79.3825 244.267C79.2673 244.303 79.1459 244.317 79.0255 244.306V244.306Z"
        fill="black"
    />
    <path
        d="M49.098 242.092L45.358 241.752C44.718 241.692 44.128 241.642 43.518 241.612L41.648 241.502C39.138 241.362 36.648 241.172 34.108 240.842C33.872 240.81 33.6574 240.688 33.5085 240.502C33.3596 240.316 33.2879 240.08 33.308 239.842C33.3405 239.606 33.4623 239.392 33.6484 239.243C33.8345 239.094 34.0706 239.022 34.308 239.042V239.042C36.758 239.372 39.228 239.562 41.708 239.702L43.5881 239.812C44.2181 239.812 44.878 239.902 45.488 239.962L49.218 240.302C49.3391 240.311 49.4572 240.344 49.5652 240.4C49.6732 240.455 49.7689 240.532 49.8464 240.625C49.924 240.719 49.9818 240.827 50.0164 240.943C50.0511 241.06 50.0618 241.182 50.048 241.302C50.0139 241.528 49.8983 241.732 49.7232 241.878C49.5481 242.024 49.3256 242.1 49.098 242.092Z"
        fill="black"
    />
    <path
        d="M21.4384 232.998C21.5415 232.255 21.7929 231.54 22.1777 230.896C22.5625 230.252 23.0729 229.691 23.6784 229.248C24.7383 228.432 25.9018 227.759 27.1384 227.249C29.504 226.283 31.9414 225.504 34.4284 224.919C34.6698 224.858 34.9253 224.896 35.139 225.023C35.3527 225.151 35.5071 225.358 35.5684 225.599C35.5998 225.718 35.6071 225.843 35.5898 225.965C35.5725 226.088 35.531 226.205 35.4676 226.311C35.4043 226.418 35.3205 226.51 35.221 226.583C35.1216 226.657 35.0085 226.71 34.8884 226.739C32.5 227.292 30.1593 228.034 27.8884 228.958C26.8175 229.402 25.8091 229.984 24.8884 230.688C24.4771 230.973 24.127 231.337 23.8591 231.76C23.5911 232.182 23.4107 232.654 23.3284 233.148C23.2879 233.382 23.165 233.595 22.9816 233.747C22.7983 233.899 22.5667 233.981 22.3284 233.978C22.0808 233.965 21.8483 233.854 21.6816 233.671C21.5149 233.487 21.4275 233.245 21.4384 232.998V232.998Z"
        fill="black"
    />
    <path
        d="M48.9727 221.299L63.6127 217.8C63.8572 217.752 64.1105 217.798 64.3232 217.927C64.5359 218.056 64.6926 218.261 64.7627 218.499C64.8097 218.745 64.7628 218.999 64.6314 219.212C64.5 219.425 64.2935 219.581 64.0527 219.649H64.0027L49.4627 223.118H49.4127C49.2919 223.148 49.1663 223.153 49.0434 223.134C48.9204 223.115 48.8025 223.071 48.6964 223.006C48.5904 222.941 48.4983 222.856 48.4256 222.755C48.3529 222.654 48.3009 222.539 48.2727 222.418C48.2187 222.177 48.2619 221.924 48.3929 221.715C48.5239 221.505 48.7322 221.356 48.9727 221.299V221.299Z"
        fill="black"
    />
    <path
        d="M78.4026 215.046L93.3026 212.966C93.5558 212.94 93.8096 213.011 94.0121 213.165C94.2146 213.319 94.3507 213.545 94.3926 213.796C94.419 214.049 94.3479 214.303 94.1936 214.505C94.0394 214.708 93.8137 214.844 93.5626 214.886V214.886L78.7526 216.945C78.5009 216.972 78.2484 216.902 78.0461 216.75C77.8438 216.598 77.7068 216.375 77.6626 216.125C77.6355 215.887 77.6954 215.646 77.8313 215.448C77.9672 215.249 78.1701 215.107 78.4026 215.046Z"
        fill="black"
    />
    <path
        d="M108.262 211.469L123.262 210.469C123.512 210.468 123.754 210.561 123.939 210.729C124.124 210.898 124.24 211.129 124.262 211.379C124.263 211.629 124.17 211.871 124.002 212.056C123.833 212.241 123.601 212.356 123.352 212.379L108.422 213.379C108.173 213.38 107.933 213.288 107.748 213.122C107.563 212.956 107.447 212.726 107.422 212.479C107.417 212.237 107.499 212.002 107.653 211.816C107.807 211.631 108.024 211.507 108.262 211.469V211.469Z"
        fill="black"
    />
    <path
        d="M138.25 209.747L153.25 209.297C153.515 209.297 153.77 209.402 153.957 209.59C154.145 209.777 154.25 210.032 154.25 210.297C154.25 210.562 154.145 210.816 153.957 211.004C153.77 211.192 153.515 211.297 153.25 211.297L138.25 211.727C137.985 211.727 137.73 211.622 137.543 211.434C137.355 211.246 137.25 210.992 137.25 210.727C137.255 210.465 137.363 210.216 137.55 210.033C137.737 209.849 137.988 209.747 138.25 209.747Z"
        fill="black"
    />
    <path
        d="M168.25 208.99L183.25 208.68C183.515 208.68 183.77 208.785 183.957 208.973C184.145 209.16 184.25 209.414 184.25 209.68C184.25 209.945 184.145 210.199 183.957 210.387C183.77 210.574 183.515 210.68 183.25 210.68L168.25 211C167.985 211 167.73 210.894 167.543 210.707C167.355 210.519 167.25 210.265 167.25 210C167.25 209.734 167.355 209.48 167.543 209.293C167.73 209.105 167.985 209 168.25 209V208.99Z"
        fill="black"
    />
    <path
        d="M198.194 208.247L205.684 207.967L213.164 207.617C213.418 207.617 213.662 207.712 213.848 207.885C214.033 208.058 214.147 208.294 214.164 208.547C214.165 208.801 214.069 209.045 213.897 209.231C213.724 209.416 213.487 209.529 213.234 209.547L205.734 209.897L198.234 210.187C197.979 210.188 197.734 210.091 197.548 209.916C197.362 209.741 197.25 209.502 197.234 209.247C197.234 208.992 197.331 208.746 197.506 208.56C197.68 208.375 197.92 208.262 198.174 208.247H198.194Z"
        fill="black"
    />
    <path
        d="M228.202 206.717L243.132 205.477C243.377 205.475 243.615 205.564 243.799 205.726C243.984 205.888 244.102 206.113 244.132 206.357C244.133 206.602 244.045 206.84 243.882 207.024C243.72 207.209 243.496 207.327 243.252 207.357L228.252 208.617C228.006 208.618 227.768 208.53 227.584 208.367C227.399 208.205 227.281 207.981 227.252 207.737C227.237 207.482 227.32 207.232 227.484 207.037C227.647 206.842 227.879 206.717 228.132 206.687L228.202 206.717Z"
        fill="black"
    />
    <path
        d="M257.978 203.953L272.858 202.144C273.098 202.124 273.337 202.198 273.524 202.351C273.71 202.504 273.83 202.724 273.858 202.964C273.877 203.21 273.803 203.455 273.652 203.651C273.5 203.847 273.281 203.979 273.038 204.023L258.198 205.843C257.948 205.864 257.699 205.79 257.501 205.636C257.303 205.483 257.17 205.26 257.128 205.013C257.109 204.765 257.184 204.518 257.338 204.323C257.491 204.127 257.712 203.995 257.958 203.953V203.953H257.978Z"
        fill="black"
    />
    <path
        d="M287.698 200.074L302.498 197.745C302.619 197.727 302.742 197.732 302.861 197.761C302.979 197.791 303.091 197.843 303.19 197.915C303.288 197.988 303.371 198.079 303.435 198.183C303.498 198.288 303.54 198.404 303.558 198.525C303.578 198.646 303.574 198.769 303.546 198.888C303.518 199.008 303.467 199.12 303.395 199.22C303.324 199.319 303.233 199.403 303.129 199.468C303.025 199.532 302.909 199.575 302.788 199.594L287.958 201.934C287.835 201.954 287.709 201.949 287.588 201.92C287.467 201.891 287.353 201.838 287.253 201.765C287.152 201.691 287.067 201.598 287.003 201.492C286.939 201.385 286.896 201.267 286.878 201.144C286.841 200.899 286.901 200.649 287.048 200.449C287.194 200.248 287.413 200.114 287.658 200.074V200.074H287.698Z"
        fill="black"
    />
    <path
        d="M317.269 195.195L331.999 192.415C332.117 192.392 332.239 192.393 332.357 192.417C332.475 192.441 332.587 192.489 332.686 192.557C332.786 192.625 332.871 192.712 332.937 192.813C333.002 192.914 333.047 193.027 333.069 193.145C333.092 193.263 333.091 193.385 333.067 193.503C333.043 193.621 332.995 193.733 332.928 193.833C332.86 193.932 332.773 194.017 332.672 194.083C332.571 194.148 332.457 194.193 332.339 194.215L317.589 197.014C317.469 197.037 317.346 197.036 317.227 197.011C317.108 196.987 316.995 196.939 316.894 196.87C316.794 196.801 316.708 196.713 316.642 196.611C316.576 196.508 316.531 196.394 316.509 196.274C316.486 196.155 316.487 196.032 316.511 195.913C316.536 195.793 316.584 195.68 316.653 195.58C316.722 195.479 316.81 195.394 316.912 195.327C317.015 195.261 317.129 195.216 317.249 195.195V195.195H317.269Z"
        fill="black"
    />
    <path
        d="M346.683 189.426L361.333 186.257C361.449 186.23 361.57 186.227 361.687 186.248C361.805 186.268 361.917 186.312 362.018 186.376C362.118 186.44 362.205 186.524 362.273 186.622C362.341 186.72 362.388 186.83 362.413 186.947C362.438 187.062 362.44 187.181 362.419 187.298C362.398 187.414 362.354 187.525 362.29 187.624C362.226 187.724 362.143 187.809 362.046 187.877C361.948 187.944 361.839 187.991 361.723 188.016L347.063 191.255C346.826 191.306 346.578 191.261 346.374 191.13C346.17 190.999 346.026 190.792 345.973 190.556C345.948 190.439 345.947 190.318 345.968 190.201C345.99 190.083 346.034 189.971 346.099 189.871C346.164 189.77 346.249 189.684 346.347 189.616C346.445 189.548 346.556 189.501 346.673 189.476V189.476L346.683 189.426Z"
        fill="black"
    />
    <path
        d="M375.539 182.257C379.972 180.08 384.168 177.45 388.059 174.409V174.409C388.152 174.338 388.257 174.286 388.37 174.256C388.482 174.226 388.6 174.219 388.715 174.235C388.83 174.251 388.941 174.289 389.042 174.348C389.142 174.407 389.23 174.485 389.299 174.579C389.371 174.671 389.424 174.777 389.455 174.89C389.485 175.003 389.494 175.121 389.479 175.237C389.464 175.353 389.426 175.465 389.368 175.566C389.31 175.668 389.232 175.757 389.139 175.828C385.144 178.952 380.838 181.656 376.289 183.897C376.183 183.948 376.068 183.977 375.95 183.982C375.833 183.988 375.715 183.97 375.605 183.93C375.494 183.89 375.392 183.829 375.306 183.749C375.219 183.67 375.149 183.574 375.099 183.467C375.047 183.362 375.017 183.247 375.009 183.13C375.002 183.012 375.019 182.895 375.058 182.784C375.097 182.673 375.158 182.571 375.237 182.484C375.317 182.397 375.413 182.327 375.519 182.277V182.277L375.539 182.257Z"
        fill="black"
    />
    <path
        d="M398.959 164.34C402.304 160.743 405.031 156.618 407.029 152.132V152.132C407.073 152.022 407.138 151.923 407.221 151.839C407.304 151.755 407.403 151.689 407.512 151.644C407.621 151.599 407.738 151.577 407.856 151.578C407.974 151.58 408.091 151.605 408.199 151.652C408.306 151.696 408.403 151.76 408.485 151.842C408.567 151.924 408.632 152.021 408.675 152.128C408.719 152.235 408.741 152.35 408.74 152.466C408.739 152.581 408.715 152.696 408.669 152.802C406.597 157.472 403.769 161.77 400.299 165.52C400.142 165.693 399.923 165.798 399.69 165.813C399.457 165.828 399.227 165.751 399.049 165.6C398.874 165.444 398.767 165.225 398.752 164.991C398.737 164.757 398.815 164.527 398.969 164.35V164.35L398.959 164.34Z"
        fill="black"
    />
    <path
        d="M406.755 138.5C406.09 137.517 405.344 136.59 404.525 135.73C403.676 134.868 402.767 134.066 401.805 133.331C399.86 131.868 397.748 130.64 395.515 129.671C395.411 129.626 395.317 129.56 395.239 129.478C395.16 129.396 395.099 129.299 395.058 129.193C395.017 129.087 394.997 128.974 395 128.86C395.003 128.747 395.029 128.635 395.075 128.531C395.167 128.326 395.336 128.165 395.546 128.083C395.755 128.001 395.988 128.004 396.195 128.091C398.552 129.118 400.78 130.417 402.835 131.961C403.867 132.741 404.84 133.596 405.745 134.521C406.647 135.47 407.466 136.493 408.195 137.58C408.33 137.766 408.385 137.997 408.349 138.224C408.314 138.451 408.19 138.654 408.005 138.79C407.821 138.925 407.59 138.982 407.363 138.948C407.137 138.915 406.933 138.793 406.795 138.61L406.755 138.5Z"
        fill="black"
    />
    <path
        d="M381.311 125.783C376.395 125.075 371.437 124.698 366.471 124.653C366.247 124.648 366.034 124.555 365.879 124.394C365.724 124.233 365.638 124.017 365.641 123.793C365.642 123.682 365.665 123.571 365.709 123.469C365.753 123.366 365.817 123.273 365.897 123.195C365.977 123.117 366.071 123.056 366.175 123.014C366.278 122.973 366.389 122.952 366.501 122.953C371.543 123 376.577 123.378 381.571 124.083C381.684 124.101 381.792 124.142 381.889 124.202C381.987 124.262 382.071 124.341 382.138 124.434C382.205 124.527 382.253 124.632 382.279 124.743C382.305 124.855 382.309 124.97 382.291 125.083C382.272 125.196 382.232 125.305 382.172 125.402C382.112 125.499 382.033 125.584 381.94 125.651C381.847 125.718 381.742 125.766 381.631 125.792C381.519 125.818 381.404 125.822 381.291 125.803L381.311 125.783Z"
        fill="black"
    />
    <path
        d="M351.537 125.009L336.607 126.129C336.392 126.143 336.181 126.072 336.019 125.932C335.856 125.792 335.755 125.593 335.737 125.379C335.72 125.163 335.79 124.949 335.93 124.784C336.071 124.619 336.271 124.517 336.487 124.499L351.487 123.339C351.596 123.329 351.706 123.342 351.811 123.376C351.915 123.41 352.012 123.464 352.095 123.536C352.178 123.608 352.245 123.695 352.294 123.794C352.342 123.892 352.371 123.999 352.377 124.109C352.386 124.218 352.374 124.327 352.341 124.431C352.308 124.535 352.254 124.631 352.184 124.714C352.113 124.796 352.026 124.864 351.929 124.913C351.832 124.962 351.725 124.991 351.617 124.999L351.537 125.009Z"
        fill="black"
    />
    <path
        d="M321.628 127.262L306.698 128.422C306.597 128.43 306.495 128.418 306.399 128.387C306.302 128.356 306.213 128.306 306.136 128.24C306.059 128.174 305.995 128.093 305.949 128.003C305.904 127.912 305.876 127.813 305.868 127.712C305.857 127.509 305.925 127.309 306.057 127.155C306.189 127 306.376 126.902 306.578 126.882L321.578 125.682C321.682 125.674 321.787 125.686 321.886 125.719C321.985 125.751 322.076 125.803 322.155 125.87C322.234 125.938 322.299 126.021 322.346 126.114C322.393 126.207 322.421 126.308 322.428 126.412C322.445 126.62 322.379 126.826 322.244 126.986C322.109 127.145 321.916 127.244 321.708 127.262H321.628Z"
        fill="black"
    />
    <path
        d="M291.787 129.941L276.887 131.671C276.792 131.684 276.696 131.678 276.604 131.653C276.511 131.628 276.425 131.585 276.35 131.526C276.274 131.467 276.211 131.394 276.164 131.311C276.118 131.228 276.088 131.136 276.077 131.041C276.064 130.947 276.07 130.851 276.095 130.758C276.12 130.666 276.163 130.58 276.222 130.504C276.281 130.429 276.354 130.366 276.437 130.319C276.52 130.272 276.612 130.243 276.707 130.231L291.617 128.451C291.714 128.439 291.813 128.446 291.907 128.472C292.002 128.498 292.09 128.542 292.168 128.603C292.245 128.663 292.309 128.738 292.357 128.824C292.405 128.91 292.435 129.004 292.447 129.101C292.459 129.2 292.452 129.3 292.425 129.396C292.399 129.492 292.354 129.581 292.292 129.659C292.231 129.738 292.155 129.803 292.068 129.851C291.981 129.9 291.885 129.93 291.787 129.941V129.941Z"
        fill="black"
    />
    <path
        d="M261.975 133.395L247.035 134.895C246.946 134.906 246.855 134.899 246.768 134.874C246.681 134.849 246.6 134.807 246.53 134.75C246.46 134.693 246.402 134.622 246.36 134.542C246.318 134.463 246.293 134.375 246.285 134.285C246.276 134.196 246.284 134.105 246.309 134.019C246.335 133.933 246.377 133.853 246.434 133.783C246.49 133.713 246.56 133.655 246.64 133.613C246.719 133.57 246.806 133.544 246.895 133.535V133.535L261.805 131.995C261.993 131.978 262.18 132.036 262.326 132.156C262.472 132.275 262.565 132.447 262.585 132.635C262.595 132.727 262.586 132.82 262.56 132.909C262.533 132.997 262.489 133.08 262.431 133.151C262.372 133.223 262.3 133.282 262.218 133.326C262.137 133.369 262.047 133.396 261.955 133.405L261.975 133.395Z"
        fill="black"
    />
    <path
        d="M232.019 135.933C231.379 135.933 230.739 135.933 230.089 135.933C229.366 135.924 228.652 135.771 227.989 135.483C227.84 135.41 227.708 135.307 227.6 135.182C227.492 135.056 227.41 134.911 227.359 134.753C227.315 134.583 227.309 134.406 227.34 134.234C227.371 134.061 227.439 133.897 227.539 133.753C227.769 133.433 228.053 133.156 228.379 132.933C228.916 132.558 229.481 132.224 230.069 131.934C232.344 130.804 234.681 129.803 237.069 128.934C237.147 128.903 237.231 128.889 237.316 128.891C237.4 128.893 237.484 128.912 237.561 128.946C237.638 128.98 237.707 129.03 237.765 129.091C237.823 129.153 237.869 129.225 237.899 129.304C237.929 129.383 237.944 129.467 237.942 129.551C237.94 129.636 237.921 129.719 237.887 129.796C237.852 129.873 237.803 129.943 237.741 130.001C237.68 130.059 237.608 130.104 237.529 130.134V130.134C235.204 130.982 232.927 131.957 230.709 133.053C230.18 133.318 229.672 133.622 229.189 133.963C228.996 134.097 228.824 134.259 228.679 134.443C228.619 134.523 228.679 134.443 228.679 134.343C228.679 134.243 228.599 134.253 228.679 134.283C229.177 134.458 229.7 134.552 230.229 134.563C230.819 134.563 231.439 134.563 232.049 134.563C232.225 134.566 232.393 134.637 232.516 134.763C232.639 134.888 232.709 135.057 232.709 135.233C232.71 135.32 232.694 135.406 232.661 135.487C232.629 135.568 232.58 135.641 232.518 135.703C232.457 135.764 232.384 135.813 232.303 135.845C232.222 135.878 232.136 135.894 232.049 135.893L232.019 135.933Z"
        fill="black"
    />
    <path
        d="M251.351 124.263L265.841 120.264C265.917 120.243 265.997 120.237 266.075 120.247C266.154 120.256 266.229 120.281 266.298 120.32C266.367 120.359 266.427 120.412 266.476 120.474C266.524 120.536 266.56 120.608 266.581 120.684C266.621 120.838 266.6 121.001 266.521 121.139C266.443 121.277 266.313 121.38 266.161 121.424V121.424L251.721 125.423C251.561 125.463 251.391 125.44 251.247 125.358C251.104 125.276 250.998 125.141 250.951 124.983C250.93 124.904 250.924 124.822 250.935 124.741C250.946 124.66 250.972 124.582 251.013 124.512C251.054 124.441 251.108 124.379 251.173 124.33C251.238 124.28 251.312 124.244 251.391 124.223L251.351 124.263Z"
        fill="black"
    />
    <path
        d="M280.456 116.844L295.166 113.845C295.312 113.819 295.462 113.85 295.585 113.932C295.709 114.014 295.795 114.141 295.826 114.285C295.853 114.431 295.822 114.581 295.74 114.704C295.658 114.827 295.531 114.914 295.386 114.945V114.945L280.716 117.944C280.567 117.974 280.411 117.943 280.284 117.859C280.157 117.775 280.068 117.644 280.036 117.494C280.02 117.419 280.019 117.342 280.033 117.267C280.047 117.191 280.076 117.12 280.118 117.056C280.159 116.991 280.214 116.936 280.277 116.893C280.34 116.85 280.411 116.82 280.486 116.804L280.456 116.844Z"
        fill="black"
    />
    <path
        d="M309.946 111.261L324.766 108.912C324.901 108.892 325.038 108.926 325.149 109.006C325.259 109.086 325.333 109.207 325.356 109.342C325.376 109.477 325.342 109.614 325.262 109.725C325.181 109.835 325.06 109.91 324.926 109.932V109.932L310.126 112.261C309.985 112.284 309.841 112.251 309.725 112.169C309.609 112.086 309.53 111.961 309.506 111.821C309.485 111.68 309.521 111.536 309.605 111.42C309.689 111.304 309.815 111.226 309.956 111.201L309.946 111.261Z"
        fill="black"
    />
    <path
        d="M339.613 106.723L354.493 104.723C354.551 104.715 354.61 104.718 354.667 104.733C354.723 104.747 354.776 104.773 354.823 104.808C354.87 104.844 354.909 104.888 354.938 104.939C354.967 104.989 354.986 105.045 354.993 105.103C355.008 105.221 354.976 105.34 354.906 105.435C354.835 105.53 354.73 105.594 354.613 105.613L339.763 107.683C339.698 107.696 339.631 107.695 339.566 107.681C339.501 107.666 339.439 107.638 339.386 107.599C339.332 107.559 339.287 107.509 339.254 107.451C339.221 107.394 339.2 107.33 339.193 107.263C339.183 107.2 339.186 107.136 339.202 107.074C339.217 107.012 339.244 106.953 339.283 106.902C339.321 106.851 339.369 106.808 339.424 106.775C339.479 106.743 339.54 106.722 339.603 106.713L339.613 106.723Z"
        fill="black"
    />
    <path
        d="M369.385 102.897L384.305 101.267C384.402 101.259 384.5 101.288 384.576 101.35C384.652 101.411 384.702 101.5 384.715 101.597C384.723 101.695 384.694 101.792 384.632 101.868C384.571 101.945 384.482 101.995 384.385 102.007L369.485 103.727C369.377 103.738 369.27 103.707 369.186 103.639C369.101 103.572 369.047 103.474 369.035 103.367C369.028 103.313 369.031 103.258 369.046 103.206C369.06 103.154 369.085 103.105 369.118 103.062C369.152 103.019 369.194 102.983 369.241 102.957C369.288 102.93 369.341 102.913 369.395 102.907L369.385 102.897Z"
        fill="black"
    />
    <path
        d="M399.199 99.7951L414.199 98.5251C414.238 98.5209 414.277 98.5247 414.315 98.5362C414.352 98.5477 414.387 98.5666 414.417 98.5918C414.447 98.617 414.471 98.648 414.489 98.683C414.506 98.7179 414.517 98.756 414.519 98.7951C414.525 98.8731 414.5 98.9502 414.449 99.0099C414.399 99.0697 414.327 99.1074 414.249 99.1151L399.299 100.465C399.256 100.469 399.212 100.465 399.17 100.452C399.129 100.439 399.09 100.418 399.057 100.39C399.023 100.362 398.995 100.328 398.975 100.289C398.955 100.251 398.943 100.208 398.939 100.165C398.931 100.076 398.957 99.9879 399.013 99.9187C399.07 99.8495 399.151 99.8051 399.239 99.7951H399.199Z"
        fill="black"
    />
    <path
        d="M429.198 97.4266L444.198 96.5166C444.227 96.5138 444.256 96.5171 444.284 96.5264C444.312 96.5357 444.338 96.5508 444.359 96.5705C444.381 96.5903 444.398 96.6144 444.41 96.6413C444.422 96.6682 444.428 96.6972 444.428 96.7266C444.429 96.7555 444.425 96.7844 444.415 96.8116C444.405 96.8388 444.39 96.8638 444.37 96.8851C444.351 96.9065 444.327 96.9238 444.301 96.9361C444.275 96.9483 444.247 96.9553 444.218 96.9566L429.218 97.9566C429.149 97.9595 429.082 97.9364 429.03 97.8918C428.978 97.8473 428.945 97.7846 428.938 97.7166C428.935 97.6482 428.958 97.5812 429.003 97.5292C429.047 97.4772 429.11 97.4441 429.178 97.4366L429.198 97.4266Z"
        fill="black"
    />
    <path
        d="M459.111 95.7809L474.111 95.2109C474.149 95.2109 474.186 95.2253 474.214 95.2513C474.241 95.2773 474.258 95.3129 474.261 95.3509C474.262 95.3701 474.26 95.3894 474.253 95.4076C474.247 95.4257 474.237 95.4424 474.224 95.4565C474.21 95.4705 474.195 95.4818 474.177 95.4894C474.159 95.4971 474.14 95.501 474.121 95.5009L459.121 96.1409C459.097 96.1438 459.073 96.1415 459.05 96.1342C459.027 96.127 459.005 96.1149 458.988 96.0988C458.97 96.0827 458.955 96.063 458.945 96.041C458.936 96.0189 458.931 95.9951 458.931 95.9709C458.928 95.947 458.93 95.9227 458.938 95.8997C458.945 95.8767 458.957 95.8555 458.973 95.8376C458.989 95.8196 459.009 95.8053 459.031 95.7955C459.053 95.7857 459.077 95.7808 459.101 95.7809H459.111Z"
        fill="black"
    />
    <path
        d="M489.091 94.6691L504.091 93.5391C504.108 93.5389 504.125 93.5449 504.138 93.5559C504.15 93.567 504.159 93.5823 504.161 93.5991C504.161 93.5991 504.161 93.6691 504.101 93.6791L489.151 94.8791C489.137 94.8804 489.122 94.8789 489.108 94.8746C489.094 94.8704 489.082 94.8634 489.07 94.8541C489.059 94.8448 489.05 94.8334 489.043 94.8205C489.037 94.8076 489.033 94.7935 489.031 94.7791C489.031 94.7515 489.041 94.725 489.06 94.7046C489.078 94.6843 489.104 94.6716 489.131 94.6691H489.091Z"
        fill="black"
    />
    <path d="M71.5 117.867L96.5 116.646L170.5 113.031L331.5 105.166L400 101.82L419.5 100.867L331.5 66.8672L1 80.3672L71.5 117.867Z" fill="url(#paint0_linear_5646_23496)" />
    <path d="M170.5 139.867V160.867L331.5 153.002V132.002L170.5 139.867Z" fill="#F1EFED" />
    <path d="M170.5 160.867V176.732L331.5 168.867V153.002L170.5 160.867Z" fill="#F1EFED" />
    <path d="M331.5 122.502V116.502L226.25 121.644L293.324 124.367L331.5 122.502Z" fill="#F1EFED" />
    <path d="M170.5 124.367V130.367L293.324 124.367L226.25 121.644L170.5 124.367Z" fill="black" />
    <path d="M1 87.8672V195.367L64.5 231.846V121.644L1 87.8672Z" fill="#5869DD" />
    <path d="M419.5 216.867V100.867L400 101.82V217.932L419.5 216.867Z" fill="url(#paint1_linear_5646_23496)" />
    <path d="M170.5 230.462V176.732V160.867V139.867V130.367V124.367V113.031L96.5 116.646V234.502L170.5 230.462Z" fill="url(#paint2_linear_5646_23496)" />
    <path d="M71.5 117.867V176.867V235.867L96.5 234.502V116.646L71.5 117.867Z" fill="url(#paint3_linear_5646_23496)" />
    <path d="M170.5 176.732V230.462L331.5 221.672V168.867L170.5 176.732Z" fill="url(#paint4_linear_5646_23496)" />
    <path
        fill-rule="evenodd"
        clip-rule="evenodd"
        d="M170.5 124.367V113.031L331.5 105.166V116.502L226.25 121.644L170.5 124.367ZM331.5 122.502L293.324 124.367L170.5 130.367V139.867L331.5 132.002V122.502Z"
        fill="url(#paint5_linear_5646_23496)"
    />
    <path d="M331.5 168.867V221.672L400 217.932V101.82L331.5 105.166V116.502V122.502V132.002V153.002V168.867Z" fill="url(#paint6_linear_5646_23496)" />
    <path fill-rule="evenodd" clip-rule="evenodd" d="M71.5 117.867V176.867L64.5 121.644L1 87.8672V80.3672L71.5 117.867Z" fill="#F1EFED" />
    <path d="M64.5 231.846L71.5 235.867V176.867L64.5 121.644V231.846Z" fill="black" />
    <path
        d="M71.5 117.867L1 80.3672M71.5 117.867L96.5 116.646M71.5 117.867V176.867M419.5 100.867V216.867L400 217.932M419.5 100.867L331.5 66.8672L1 80.3672M419.5 100.867L400 101.82M419.5 100.867L96.5 116.646M71.5 235.867L64.5 231.846M71.5 235.867L400 217.932M71.5 235.867L96.5 234.502M71.5 235.867V176.867M1 80.3672V195.367M1 80.3672V87.8672M1 195.367L64.5 231.846M1 195.367V87.8672M1 87.8672L64.5 121.644M64.5 231.846V121.644M64.5 121.644L71.5 176.867M170.5 113.031V230.462M170.5 113.031L331.5 105.166M170.5 113.031L96.5 116.646M170.5 113.031V124.367M170.5 113.031L400 101.82M170.5 230.462V176.732M170.5 230.462L400 217.932M170.5 230.462L96.5 234.502M170.5 230.462L331.5 221.672M331.5 105.166V221.672M331.5 105.166L400 101.82M331.5 105.166V116.502M331.5 221.672V168.867M331.5 221.672L400 217.932M96.5 116.502V116.646M96.5 234.502V116.646M400 101.82L96.5 116.646M400 101.82V217.932M170.5 124.367V130.367M170.5 124.367L226.25 121.644M331.5 116.502V122.502M331.5 116.502L226.25 121.644M170.5 130.367L293.324 124.367M170.5 130.367V139.867M331.5 122.502L293.324 124.367M331.5 122.502V132.002M170.5 139.867L331.5 132.002M170.5 139.867V160.867M331.5 132.002V153.002M170.5 176.732L331.5 168.867M170.5 176.732V160.867M331.5 168.867V153.002M170.5 160.867L331.5 153.002M226.25 121.644L293.324 124.367"
        stroke="black"
        stroke-width="2"
        stroke-linejoin="round"
    />
    <path
        d="M179.048 184.679L190.041 184.142M323.446 177.623L313.953 178.087M199.034 183.702L209.027 183.214M223.517 182.506L236.008 181.896M247.5 181.334L260.491 180.699M269.484 180.26L281.476 179.674M291.968 179.161L301.961 178.673"
        stroke="black"
        stroke-width="2"
        stroke-linejoin="round"
    />
    <path
        d="M172 160.168C172 160.168 183 155.159 195.5 153.155C208 151.152 211 168.722 223.5 166.806C236 164.891 237.5 143.81 252.5 141.81C267.5 139.81 267.457 166.558 282.499 164.891C298.495 163.113 296.5 147.645 310 147.645C323.5 147.645 330 153.155 330 153.155"
        stroke="black"
        stroke-width="2"
    />
    <path
        fill-rule="evenodd"
        clip-rule="evenodd"
        d="M131.834 200.094C128.596 201.161 126.818 204.599 127.863 207.773C128.379 209.34 129.487 210.55 130.867 211.244C135.742 206.831 136.826 204.366 135.404 199.987C134.272 199.685 133.037 199.698 131.834 200.094Z"
        fill="black"
    />
    <path d="M135.62 211.588C138.859 210.521 140.637 207.083 139.591 203.909C138.934 201.914 137.318 200.499 135.404 199.987C136.826 204.366 135.742 206.831 130.867 211.244C132.281 211.957 133.981 212.128 135.62 211.588Z" fill="#F1EFED" />
    <path
        d="M130.867 211.244C132.281 211.957 133.981 212.128 135.62 211.588C138.859 210.521 140.637 207.083 139.591 203.909C138.934 201.914 137.318 200.499 135.404 199.987M130.867 211.244C129.487 210.55 128.379 209.34 127.863 207.773C126.818 204.599 128.596 201.161 131.834 200.094C133.037 199.698 134.272 199.685 135.404 199.987M130.867 211.244C135.742 206.831 136.826 204.366 135.404 199.987"
        stroke="black"
        stroke-width="1.57725"
    />
    <path fill-rule="evenodd" clip-rule="evenodd" d="M380.991 158.867C384.704 155.157 387 150.03 387 144.367C387 133.045 377.822 123.867 366.5 123.867C355.178 123.867 346 133.045 346 144.367L380.991 158.867Z" fill="#5869DD" />
    <path d="M346 144.367C346 155.689 355.178 164.867 366.5 164.867C372.159 164.867 377.282 162.574 380.991 158.867L346 144.367Z" fill="black" />
    <path
        d="M345 144.367C345 156.241 354.626 165.867 366.5 165.867C372.434 165.867 377.809 163.461 381.698 159.575C385.591 155.685 388 150.306 388 144.367C388 132.493 378.374 122.867 366.5 122.867C354.626 122.867 345 132.493 345 144.367Z"
        stroke="black"
        stroke-width="2"
    />
    <circle cx="370" cy="143.867" r="18" fill="url(#paint7_linear_5646_23496)" stroke="black" stroke-width="2" />
    <circle cx="354.5" cy="194.367" r="4.5" fill="black" />
    <circle cx="129.5" cy="145.367" r="3.5" fill="black" />
    <circle cx="138.5" cy="145.367" r="3.5" fill="black" />
    <circle cx="138.5" cy="154.367" r="3.5" fill="black" />
    <circle cx="129.5" cy="154.367" r="3.5" fill="black" />
    <circle cx="376" cy="193.867" r="4" fill="black" />
    <path d="M11.0894 159.642C11.0753 161.032 10.2224 161.767 9.17069 161.279C8.12901 160.791 7.30483 159.297 7.32827 157.947C7.35171 156.597 8.21461 155.862 9.23699 156.31C10.2694 156.758 11.1037 158.243 11.0894 159.642Z" fill="black" />
    <path d="M16.767 162.131C16.7719 163.581 15.9283 164.356 14.8866 163.868C13.8346 163.4 12.9913 161.855 12.9957 160.445C13.0002 159.035 13.8438 158.26 14.8864 158.698C15.9087 159.146 16.762 160.691 16.767 162.131Z" fill="black" />
    <path d="M22.454 164.66C22.4779 166.16 21.6436 166.976 20.592 166.487C19.5503 165.999 18.6879 164.404 18.673 162.954C18.6486 161.484 19.483 160.658 20.5252 161.116C21.5674 161.574 22.4302 163.149 22.454 164.66Z" fill="black" />
    <path d="M11.2342 169.155C11.2201 170.545 10.3382 171.219 9.26778 170.661C8.20732 170.102 7.35419 168.547 7.38763 167.198C7.4109 165.858 8.29257 165.194 9.33373 165.712C10.3949 166.23 11.2484 167.765 11.2342 169.155Z" fill="black" />
    <path d="M17.0447 172.056C17.0497 173.496 16.187 174.221 15.1167 173.652C14.0363 173.093 13.1737 171.509 13.1781 170.099C13.1924 168.699 14.0552 167.974 15.1163 168.492C16.1675 169.01 17.0399 170.606 17.0447 172.056Z" fill="black" />
    <path d="M22.8651 174.967C22.8888 176.477 22.0454 177.243 20.9651 176.674C19.8947 176.115 19.0131 174.47 18.9986 173C18.984 171.539 19.8276 170.764 20.8886 171.292C21.9595 171.821 22.8411 173.466 22.8651 174.967Z" fill="black" />
    <path d="M11.3789 178.677C11.3649 180.057 10.4643 180.661 9.36488 180.042C8.27564 179.413 7.41338 177.808 7.43682 176.459C7.46026 175.109 8.37106 174.495 9.44083 175.094C10.5208 175.682 11.393 177.288 11.3789 178.677Z" fill="black" />
    <path d="M17.3324 181.981C17.3372 183.431 16.4557 184.086 15.3467 183.446C14.2574 182.817 13.3759 181.172 13.3804 179.762C13.3848 178.352 14.2663 177.697 15.3563 178.286C16.446 178.885 17.3274 180.541 17.3324 181.981Z" fill="black" />
    <path d="M23.2856 185.304C23.3094 186.815 22.437 187.519 21.3478 186.89C20.2487 186.251 19.3384 184.536 19.3337 183.075C19.3192 181.605 20.1914 180.91 21.2716 181.489C22.3513 182.088 23.2618 183.794 23.2856 185.304Z" fill="black" />
    <path d="M11.5234 188.21C11.5194 189.59 10.5996 190.144 9.47163 189.444C8.3636 188.745 7.47222 187.09 7.49566 185.74C7.5291 184.391 8.44903 183.826 9.54758 184.496C10.6563 185.155 11.5375 186.82 11.5234 188.21Z" fill="black" />
    <path d="M17.6198 191.926C17.6248 193.366 16.7143 193.96 15.5865 193.25C14.4684 192.551 13.5681 190.835 13.5726 189.425C13.5769 188.026 14.4775 187.421 15.5959 188.101C16.7044 188.77 17.6149 190.476 17.6198 191.926Z" fill="black" />
    <path d="M23.7062 195.641C23.7305 197.122 22.8391 197.766 21.7211 197.067C20.5933 196.357 19.6734 194.611 19.6588 193.151C19.6443 191.681 20.5356 191.036 21.6542 191.706C22.7527 192.375 23.6824 194.131 23.7062 195.641Z" fill="black" />
    <path
        d="M182.237 199.339C182.196 201.368 182.936 202.607 183.934 203.366C184.961 204.147 186.33 204.468 187.593 204.494C188.708 204.516 189.631 203.985 190.303 203.083C190.983 202.171 191.394 200.886 191.423 199.488C191.451 198.092 191.092 196.842 190.455 195.951C189.826 195.073 188.926 194.534 187.794 194.512C186.522 194.486 185.142 194.729 184.086 195.443C183.066 196.134 182.278 197.312 182.237 199.339Z"
        stroke="black"
        stroke-width="1.19828"
    />
    <path
        d="M183.892 199.336C183.836 202.133 185.596 204.203 187.561 204.243C189.525 204.283 191.368 202.285 191.424 199.488C191.481 196.691 189.72 194.621 187.756 194.581C185.791 194.542 183.949 196.539 183.892 199.336Z"
        stroke="black"
        stroke-width="1.19828"
    />
    <path d="M181.647 199.91L184.528 199.81C184.23 202.449 186.892 204.814 186.892 204.814C186.892 204.814 182.294 204.209 181.647 199.91Z" fill="black" />
    <path
        d="M198.393 198.339C198.352 200.368 199.092 201.607 200.09 202.366C201.117 203.147 202.486 203.468 203.749 203.494C204.864 203.516 205.787 202.985 206.459 202.083C207.14 201.171 207.551 199.886 207.579 198.488C207.607 197.092 207.248 195.842 206.611 194.951C205.983 194.073 205.082 193.534 203.951 193.512C202.679 193.486 201.298 193.729 200.243 194.443C199.222 195.134 198.434 196.312 198.393 198.339Z"
        stroke="black"
        stroke-width="1.19828"
    />
    <path
        d="M200.049 198.336C199.992 201.133 201.753 203.203 203.717 203.243C205.681 203.283 207.524 201.285 207.58 198.488C207.637 195.691 205.876 193.621 203.912 193.581C201.948 193.542 200.105 195.539 200.049 198.336Z"
        stroke="black"
        stroke-width="1.19828"
    />
    <path d="M197.803 198.91L200.684 198.81C200.386 201.449 203.048 203.814 203.048 203.814C203.048 203.814 198.45 203.209 197.803 198.91Z" fill="black" />
    <path
        d="M214.55 197.339C214.509 199.368 215.249 200.607 216.246 201.366C217.273 202.147 218.642 202.468 219.905 202.494C221.021 202.516 221.944 201.985 222.616 201.083C223.296 200.171 223.707 198.886 223.735 197.488C223.763 196.092 223.404 194.842 222.767 193.951C222.139 193.073 221.239 192.534 220.107 192.512C218.835 192.486 217.454 192.729 216.399 193.443C215.378 194.134 214.59 195.312 214.55 197.339Z"
        stroke="black"
        stroke-width="1.19828"
    />
    <path
        d="M216.205 197.336C216.148 200.133 217.909 202.203 219.873 202.243C221.837 202.283 223.68 200.285 223.737 197.488C223.793 194.691 222.033 192.621 220.068 192.581C218.104 192.542 216.261 194.539 216.205 197.336Z"
        stroke="black"
        stroke-width="1.19828"
    />
    <path d="M213.96 197.91L216.841 197.81C216.543 200.449 219.205 202.814 219.205 202.814C219.205 202.814 214.607 202.209 213.96 197.91Z" fill="black" />
    <path
        d="M230.706 196.339C230.665 198.368 231.405 199.607 232.402 200.366C233.43 201.147 234.798 201.468 236.062 201.494C237.177 201.516 238.1 200.985 238.772 200.083C239.452 199.171 239.863 197.886 239.891 196.488C239.92 195.092 239.561 193.842 238.923 192.951C238.295 192.073 237.395 191.534 236.263 191.512C234.991 191.486 233.61 191.729 232.555 192.443C231.534 193.134 230.747 194.312 230.706 196.339Z"
        stroke="black"
        stroke-width="1.19828"
    />
    <path
        d="M232.361 196.336C232.305 199.133 234.065 201.203 236.029 201.243C237.994 201.283 239.836 199.285 239.893 196.488C239.949 193.691 238.189 191.621 236.225 191.581C234.26 191.542 232.418 193.539 232.361 196.336Z"
        stroke="black"
        stroke-width="1.19828"
    />
    <path d="M230.116 196.91L232.997 196.81C232.699 199.449 235.361 201.814 235.361 201.814C235.361 201.814 230.763 201.209 230.116 196.91Z" fill="black" />
    <path
        d="M246.862 195.339C246.821 197.368 247.561 198.607 248.559 199.366C249.586 200.147 250.955 200.468 252.218 200.494C253.333 200.516 254.256 199.985 254.928 199.083C255.608 198.171 256.019 196.886 256.048 195.488C256.076 194.092 255.717 192.842 255.08 191.951C254.451 191.073 253.551 190.534 252.419 190.512C251.147 190.486 249.767 190.729 248.711 191.443C247.691 192.134 246.903 193.312 246.862 195.339Z"
        stroke="black"
        stroke-width="1.19828"
    />
    <path
        d="M248.517 195.336C248.461 198.133 250.221 200.203 252.186 200.243C254.15 200.283 255.993 198.285 256.049 195.488C256.106 192.691 254.345 190.621 252.381 190.581C250.416 190.542 248.574 192.539 248.517 195.336Z"
        stroke="black"
        stroke-width="1.19828"
    />
    <path d="M246.272 195.91L249.153 195.81C248.855 198.449 251.517 200.814 251.517 200.814C251.517 200.814 246.919 200.209 246.272 195.91Z" fill="black" />
    <path
        d="M263.018 194.339C262.977 196.368 263.717 197.607 264.715 198.366C265.742 199.147 267.111 199.468 268.374 199.494C269.489 199.516 270.412 198.985 271.084 198.083C271.765 197.171 272.176 195.886 272.204 194.488C272.232 193.092 271.873 191.842 271.236 190.951C270.608 190.073 269.707 189.534 268.576 189.512C267.304 189.486 265.923 189.729 264.868 190.443C263.847 191.134 263.059 192.312 263.018 194.339Z"
        stroke="black"
        stroke-width="1.19828"
    />
    <path
        d="M264.674 194.336C264.617 197.133 266.378 199.203 268.342 199.243C270.306 199.283 272.149 197.285 272.205 194.488C272.262 191.691 270.501 189.621 268.537 189.581C266.573 189.542 264.73 191.539 264.674 194.336Z"
        stroke="black"
        stroke-width="1.19828"
    />
    <path d="M262.428 194.91L265.309 194.81C265.011 197.449 267.673 199.814 267.673 199.814C267.673 199.814 263.075 199.209 262.428 194.91Z" fill="black" />
    <path
        d="M279.182 193.339C279.141 195.368 279.881 196.607 280.879 197.366C281.906 198.147 283.275 198.468 284.538 198.494C285.653 198.516 286.576 197.985 287.248 197.083C287.929 196.171 288.34 194.886 288.368 193.488C288.396 192.092 288.037 190.842 287.4 189.951C286.772 189.073 285.871 188.534 284.74 188.512C283.468 188.486 282.087 188.729 281.032 189.443C280.011 190.134 279.223 191.312 279.182 193.339Z"
        stroke="black"
        stroke-width="1.19828"
    />
    <path
        d="M280.83 193.336C280.773 196.133 282.534 198.203 284.498 198.243C286.462 198.283 288.305 196.285 288.362 193.488C288.418 190.691 286.658 188.621 284.693 188.581C282.729 188.542 280.886 190.539 280.83 193.336Z"
        stroke="black"
        stroke-width="1.19828"
    />
    <path d="M278.585 193.91L281.466 193.81C281.168 196.449 283.83 198.814 283.83 198.814C283.83 198.814 279.232 198.209 278.585 193.91Z" fill="black" />
    <path
        d="M295.339 192.339C295.298 194.368 296.038 195.607 297.035 196.366C298.062 197.147 299.431 197.468 300.694 197.494C301.81 197.516 302.733 196.985 303.405 196.083C304.085 195.171 304.496 193.886 304.524 192.488C304.552 191.092 304.193 189.842 303.556 188.951C302.928 188.073 302.028 187.534 300.896 187.512C299.624 187.486 298.243 187.729 297.188 188.443C296.167 189.134 295.38 190.312 295.339 192.339Z"
        stroke="black"
        stroke-width="1.19828"
    />
    <path
        d="M296.994 192.336C296.937 195.133 298.698 197.203 300.662 197.243C302.627 197.283 304.469 195.285 304.526 192.488C304.582 189.691 302.822 187.621 300.857 187.581C298.893 187.542 297.05 189.539 296.994 192.336Z"
        stroke="black"
        stroke-width="1.19828"
    />
    <path d="M294.741 192.91L297.622 192.81C297.324 195.449 299.986 197.814 299.986 197.814C299.986 197.814 295.388 197.209 294.741 192.91Z" fill="black" />
    <path
        d="M311.495 191.339C311.454 193.368 312.194 194.607 313.191 195.366C314.219 196.147 315.588 196.468 316.851 196.494C317.966 196.516 318.889 195.985 319.561 195.083C320.241 194.171 320.652 192.886 320.68 191.488C320.709 190.092 320.35 188.842 319.712 187.951C319.084 187.073 318.184 186.534 317.052 186.512C315.78 186.486 314.4 186.729 313.344 187.443C312.323 188.134 311.536 189.312 311.495 191.339Z"
        stroke="black"
        stroke-width="1.19828"
    />
    <path
        d="M313.15 191.336C313.094 194.133 314.854 196.203 316.818 196.243C318.783 196.283 320.625 194.285 320.682 191.488C320.738 188.691 318.978 186.621 317.014 186.581C315.049 186.542 313.207 188.539 313.15 191.336Z"
        stroke="black"
        stroke-width="1.19828"
    />
    <path d="M310.905 191.91L313.786 191.81C313.488 194.449 316.15 196.814 316.15 196.814C316.15 196.814 311.552 196.209 310.905 191.91Z" fill="black" />
    <path d="M424.521 1L415.496 34.7258L443.759 32.3508L424.521 1Z" fill="#F1EFED" />
    <path d="M404.57 32.3508L424.521 60.4192L415.496 34.7258L404.57 32.3508Z" fill="black" />
    <path d="M415.496 34.7258L424.521 60.4192L443.759 32.3508L415.496 34.7258Z" fill="#F1EFED" />
    <path d="M424.521 1L404.57 32.3508L415.496 34.7258L424.521 1Z" fill="#F1EFED" />
    <path
        d="M404.57 32.3508L424.521 1M404.57 32.3508L424.521 60.4192M404.57 32.3508L415.496 34.7258M424.521 1L415.496 34.7258M424.521 1L443.759 32.3508M424.521 60.4192L415.496 34.7258M424.521 60.4192L443.759 32.3508M415.496 34.7258L443.759 32.3508"
        stroke="black"
        stroke-width="2"
        stroke-linejoin="round"
    />
    <path d="M50.4976 296.22L26.8012 324.434L39.976 297.451L50.4976 296.22Z" fill="black" />
    <path d="M38.9618 254L50.4976 296.22L39.976 297.451L38.9618 254Z" fill="black" />
    <path d="M38.9618 254L39.976 297.451L14.5897 290.021L38.9618 254Z" fill="#F1EFED" />
    <path d="M39.976 297.451L26.8012 324.434L14.5897 290.021L39.976 297.451Z" fill="#F1EFED" />
    <path
        d="M50.4976 296.22L38.9618 254M50.4976 296.22L26.8012 324.434M50.4976 296.22L39.976 297.451M38.9618 254L39.976 297.451M38.9618 254L14.5897 290.021M26.8012 324.434L39.976 297.451M26.8012 324.434L14.5897 290.021M39.976 297.451L14.5897 290.021"
        stroke="black"
        stroke-width="2"
        stroke-linejoin="round"
    />
    <path d="M486.033 118.453L464.078 99.1347L480.633 102.457L480.651 102.436L480.655 102.45L486.042 118.407L486.033 118.453Z" fill="black" />
    <path d="M469.833 70.4647L491.787 89.7834L480.651 102.436L469.833 70.4647Z" fill="#F1EFED" />
    <path d="M464.078 99.1347L469.833 70.4647L480.651 102.436L480.633 102.457L464.078 99.1347Z" fill="#F1EFED" />
    <path d="M480.655 102.45L480.651 102.436L491.787 89.7834L486.042 118.407L480.655 102.45Z" fill="#F1EFED" />
    <path
        d="M491.787 89.7834L469.833 70.4647M491.787 89.7834L486.042 118.407M491.787 89.7834L480.651 102.436M469.833 70.4647L464.078 99.1347M469.833 70.4647L480.651 102.436M464.078 99.1347L486.033 118.453L486.042 118.407M464.078 99.1347L480.633 102.457L480.651 102.436M486.055 118.446L486.042 118.407M480.651 102.436L480.655 102.45L486.042 118.407"
        stroke="black"
        stroke-width="2"
        stroke-miterlimit="10"
        stroke-linecap="round"
        stroke-linejoin="round"
    />
    <defs>
        <linearGradient id="paint0_linear_5646_23496" x1="587.562" y1="32.7969" x2="170.172" y2="247.733" gradientUnits="userSpaceOnUse">
            <stop offset="0.180158" stop-color="#D6FFBB" />
            <stop offset="1" stop-color="#5869DD" />
        </linearGradient>
        <linearGradient id="paint1_linear_5646_23496" x1="281" y1="235.867" x2="367.563" y2="-30.2031" gradientUnits="userSpaceOnUse">
            <stop stop-color="#D6FFBB" />
            <stop offset="1" stop-color="#5869DD" />
        </linearGradient>
        <linearGradient id="paint2_linear_5646_23496" x1="186" y1="268.367" x2="179.063" y2="67.2969" gradientUnits="userSpaceOnUse">
            <stop stop-color="#D6FFBB" />
            <stop offset="1" stop-color="#5869DD" />
        </linearGradient>
        <linearGradient id="paint3_linear_5646_23496" x1="102.5" y1="268.367" x2="82.5625" y2="112.297" gradientUnits="userSpaceOnUse">
            <stop stop-color="#D6FFBB" />
            <stop offset="1" stop-color="#5869DD" />
        </linearGradient>
        <linearGradient id="paint4_linear_5646_23496" x1="190" y1="264.367" x2="179.063" y2="67.2969" gradientUnits="userSpaceOnUse">
            <stop stop-color="#D6FFBB" />
            <stop offset="1" stop-color="#5869DD" />
        </linearGradient>
        <linearGradient id="paint5_linear_5646_23496" x1="1" y1="151.367" x2="419.5" y2="151.367" gradientUnits="userSpaceOnUse">
            <stop stop-color="#D6FFBB" />
            <stop offset="1" stop-color="#5869DD" />
        </linearGradient>
        <linearGradient id="paint6_linear_5646_23496" x1="187" y1="267.367" x2="179.063" y2="67.2969" gradientUnits="userSpaceOnUse">
            <stop stop-color="#D6FFBB" />
            <stop offset="1" stop-color="#5869DD" />
        </linearGradient>
        <linearGradient id="paint7_linear_5646_23496" x1="360.5" y1="126.867" x2="382" y2="179.867" gradientUnits="userSpaceOnUse">
            <stop stop-color="#D6FFBB" />
            <stop offset="1" stop-color="#5869DD" />
        </linearGradient>
    </defs>
</svg>
