<svg xmlns="http://www.w3.org/2000/svg" width="361" height="251" viewBox="0 0 361 251" fill="none">
    <path d="M264.305 251.573L311.691 172.137L267.721 185.61L240.54 233.425L264.305 251.573Z" fill="black" />
    <path d="M97.4359 87.4093L57.51 186.432L93.2619 179.42L109.409 142.96L125.095 107.54L97.4359 87.4093Z" fill="black" />
    <path d="M184.591 166.182L179.967 162.413L154.661 167.839L175.406 183.682L184.591 166.182Z" fill="black" />
    <path d="M179.967 162.413L185.415 151.441L168.449 139.093L154.661 167.839L179.967 162.413Z" fill="black" />
    <path d="M190.417 155.082L185.415 151.441L179.967 162.413L184.591 166.182L190.417 155.082Z" fill="black" />
    <path d="M126.118 207.322L151.627 228.984L156.073 220.513L137.584 203.441L126.118 207.322Z" fill="black" />
    <path d="M202.727 66.8001L250.029 99.8506L294.624 93.4696L254.487 67.8785L214.35 42.2874L202.727 66.8001Z" fill="#F1EFED" />
    <path
        fill-rule="evenodd"
        clip-rule="evenodd"
        d="M2.0426 197.315L159.602 338.846L224.211 220.954L270.503 136.484L194.984 83.1311L80.0313 1.92083L2.0426 197.315ZM138.288 254.397L57.51 186.432L97.4359 87.4093L125.095 107.54L133.334 113.536L168.449 139.093L185.415 151.441L190.417 155.082L184.591 166.182L175.406 183.682L175.392 183.708L156.073 220.513L151.627 228.984L138.288 254.397Z"
        fill="url(#paint0_linear_31258_34671)"
    />
    <path d="M154.661 167.839L93.2619 179.42L126.118 207.322L137.584 203.441L154.661 167.839Z" fill="#F1EFED" />
    <path d="M133.334 113.536L125.095 107.54L109.409 142.96L121.344 142.396L133.334 113.536Z" fill="#5869DD" />
    <path
        fill-rule="evenodd"
        clip-rule="evenodd"
        d="M159.602 338.846L264.974 277.748L359.504 119.743L270.503 136.484L224.211 220.954L159.602 338.846ZM311.691 172.137L264.305 251.573L214.473 279.281L240.54 233.425L267.721 185.61L311.691 172.137Z"
        fill="#5869DD"
    />
    <path d="M214.473 279.281L264.305 251.573L240.54 233.425L214.473 279.281Z" fill="url(#paint1_linear_31258_34671)" />
    <path d="M57.51 186.432L138.288 254.397L151.627 228.984L126.118 207.322L93.2619 179.42L57.51 186.432Z" fill="#F1EFED" />
    <path d="M159.53 36.6181L202.727 66.8001L214.35 42.2874L159.53 36.6181Z" fill="black" />
    <path
        fill-rule="evenodd"
        clip-rule="evenodd"
        d="M270.503 136.484L359.504 119.743L205.04 19.6542L80.0313 1.92083L194.984 83.1311L270.503 136.484ZM202.727 66.8001L159.53 36.6181L214.35 42.2874L254.487 67.8785L294.624 93.4696L250.029 99.8506L202.727 66.8001Z"
        fill="url(#paint2_linear_31258_34671)"
    />
    <path d="M154.661 167.839L137.584 203.441L156.073 220.513L175.392 183.708L175.406 183.682L154.661 167.839Z" fill="#5869DD" />
    <path d="M93.2619 179.42L154.661 167.839L121.344 142.396L109.409 142.96L93.2619 179.42Z" fill="#5869DD" />
    <path d="M133.334 113.536L121.344 142.396L154.661 167.839L168.449 139.093L133.334 113.536Z" fill="#F1EFED" />
    <path
        d="M57.51 186.432L138.288 254.397L151.627 228.984M57.51 186.432L97.4359 87.4093L125.095 107.54M57.51 186.432L93.2619 179.42M185.415 151.441L190.417 155.082L184.591 166.182M185.415 151.441L179.967 162.413M185.415 151.441L168.449 139.093M179.967 162.413L184.591 166.182M179.967 162.413L154.661 167.839M184.591 166.182L175.406 183.682M125.095 107.54L133.334 113.536M125.095 107.54L109.409 142.96M93.2619 179.42L154.661 167.839M93.2619 179.42L109.409 142.96M93.2619 179.42L126.118 207.322M154.661 167.839L121.344 142.396M154.661 167.839L137.584 203.441M154.661 167.839L175.406 183.682M154.661 167.839L168.449 139.093M151.627 228.984L126.118 207.322M151.627 228.984L156.073 220.513M133.334 113.536L121.344 142.396M133.334 113.536L168.449 139.093M121.344 142.396L109.409 142.96M121.344 142.396L175.406 183.682M270.503 136.484L359.504 119.743M270.503 136.484L194.984 83.1311L80.0313 1.92083M270.503 136.484L224.211 220.954L159.602 338.846M159.602 338.846L2.0426 197.315L80.0313 1.92083M159.602 338.846L264.974 277.748L359.504 119.743M80.0313 1.92083L205.04 19.6542L359.504 119.743M264.305 251.573L311.691 172.137L267.721 185.61L240.54 233.425M264.305 251.573L214.473 279.281L240.54 233.425M264.305 251.573L240.54 233.425M202.727 66.8001L159.53 36.6181L214.35 42.2874M202.727 66.8001L250.029 99.8506L294.624 93.4696L254.487 67.8785L214.35 42.2874M202.727 66.8001L214.35 42.2874M137.584 203.441L168.449 139.093M137.584 203.441L126.118 207.322M137.584 203.441L156.073 220.513M175.406 183.682L175.392 183.708L156.073 220.513"
        stroke="black"
        stroke-width="2"
    />
    <defs>
        <linearGradient id="paint0_linear_31258_34671" x1="22.3615" y1="-21.4723" x2="236.386" y2="265.943" gradientUnits="userSpaceOnUse">
            <stop stop-color="#D6FFBB" />
            <stop offset="1" stop-color="#5869DD" />
        </linearGradient>
        <linearGradient id="paint1_linear_31258_34671" x1="1.03488" y1="175.999" x2="315.509" y2="198.04" gradientUnits="userSpaceOnUse">
            <stop stop-color="#D6FFBB" />
            <stop offset="1" stop-color="#5869DD" />
        </linearGradient>
        <linearGradient id="paint2_linear_31258_34671" x1="1.03488" y1="175.999" x2="331.508" y2="116.087" gradientUnits="userSpaceOnUse">
            <stop stop-color="#D6FFBB" />
            <stop offset="1" stop-color="#5869DD" />
        </linearGradient>
    </defs>
</svg>
