<svg xmlns="http://www.w3.org/2000/svg" width="375" height="699" viewBox="0 0 375 699" fill="none">
    <g clip-path="url(#clip0_22605_39199)">
        <path
            opacity="0.25"
            fill-rule="evenodd"
            clip-rule="evenodd"
            d="M1180.41 312.735H1007.56L1025.41 288.643H1180.41V312.735ZM972.793 234.876H1007.34V218.279H971.943L972.793 234.876ZM994.198 184.012H1202.52V158.314H994.198V184.012ZM1017.76 205.696H993.803V189.099H1017.76V205.696ZM1047.52 234.876H1202.52V210.784H1047.52V234.876ZM701.352 301.591H958.727V288.493H701.352H698.352V285.493V267.4V264.4H701.352H961.727V270.4H704.352V282.493H961.727H964.727V285.493V304.591V307.591H961.727H701.352V301.591ZM981.972 247.399H1157.32V253.399H981.972V247.399ZM1202.52 125.333H991.718V131.333H1202.52V125.333ZM1033.36 234.876V199.005V196.005H1036.36H1205V202.005H1039.36V234.876H1033.36ZM1202.52 107.13H991.718V113.13H1202.52V107.13ZM991.718 90.0007H1202.52V96.0007H991.718V90.0007ZM-72.5198 136.485H-86.9998L-83.8501 141.256L-77.7573 150.485H-63.2773L-72.5198 136.485ZM-53.727 136.485H-68.2069L-65.0572 141.256L-58.9644 150.485H-44.4845L-53.727 136.485ZM-51.2266 309.935V267.11H-37.7392L-21.0406 284.016V309.935H-51.2266ZM-8.02344 250.634V260.837H-0.583221V254.662L-4.69909 250.634H-8.02344ZM3.66797 260.837V250.634H6.99232L11.1082 254.662V260.837H3.66797ZM15.3594 250.634V260.837H22.7996V254.662L18.6837 250.634H15.3594ZM-24.005 255.737L-24.1949 255.514V255.737H-57.0273V254.126H-25.375L-9.39265 235.33L-8.02267 236.941L-24.005 255.737ZM-48.8804 157.702C-48.9806 157.698 -49.0811 157.7 -49.181 157.707L-49.4494 157.728C-49.5451 157.735 -49.6398 157.748 -49.7326 157.766L-50.001 157.819C-50.085 157.835 -50.1671 157.856 -50.2467 157.881L-50.5151 157.965C-50.5841 157.986 -50.651 158.011 -50.7154 158.039L-50.9838 158.153C-51.038 158.176 -51.0904 158.201 -51.1407 158.228L-51.4091 158.373C-51.4506 158.395 -51.4908 158.418 -51.5294 158.443L-51.7977 158.616C-51.8293 158.636 -51.8598 158.657 -51.8893 158.679L-52.1576 158.878C-52.1816 158.896 -52.2048 158.914 -52.2272 158.933L-52.4956 159.157C-52.5046 159.165 -52.5134 159.172 -52.5221 159.18L-52.5353 159.192L-52.5486 159.204L-52.817 159.451C-52.8309 159.464 -52.8444 159.477 -52.8576 159.49L-53.126 159.758L-53.1371 159.77C-53.1438 159.777 -53.1504 159.784 -53.1569 159.79L-53.4253 160.077C-53.4333 160.086 -53.4412 160.094 -53.4489 160.103L-53.7173 160.406L-53.7349 160.426L-54.0033 160.742L-54.0161 160.757L-54.2845 161.084L-54.2932 161.094L-54.5616 161.428L-54.5667 161.434L-54.8367 161.775L-55.3671 162.445L-55.372 162.452L-55.6313 162.774L-55.8891 163.088L-56.1426 163.387L-56.3907 163.667L-56.6323 163.926L-56.8655 164.16L-57.0879 164.366L-57.2961 164.54L-57.4854 164.682L-57.6497 164.788L-57.7817 164.86L-57.8738 164.899L-57.8956 164.906L-57.9683 164.878L-58.0861 164.819L-58.2392 164.726L-58.4199 164.598L-58.6216 164.435L-58.8391 164.241L-59.0686 164.017L-59.3073 163.767L-59.5532 163.495L-59.8047 163.202L-60.061 162.894L-60.3215 162.572L-60.5839 162.242L-60.5867 162.239L-61.1211 161.562L-61.3933 161.222L-61.4006 161.213L-61.669 160.883L-61.6802 160.87L-61.9486 160.55L-61.9643 160.531L-62.2327 160.223L-62.2429 160.212L-62.2539 160.2L-62.5222 159.907C-62.5314 159.897 -62.5407 159.887 -62.5502 159.877L-62.8186 159.601C-62.8305 159.589 -62.8427 159.577 -62.8553 159.565L-63.1237 159.31C-63.1392 159.295 -63.1552 159.28 -63.1716 159.266L-63.44 159.033C-63.4603 159.015 -63.4812 158.998 -63.5028 158.981L-63.7712 158.772C-63.7977 158.752 -63.8253 158.732 -63.8537 158.712L-64.1221 158.53C-64.157 158.506 -64.1932 158.483 -64.2307 158.461L-64.4991 158.306C-64.5447 158.28 -64.5922 158.255 -64.6413 158.232L-64.9097 158.107C-64.9686 158.079 -65.0299 158.054 -65.093 158.031L-65.3614 157.936C-65.4354 157.909 -65.5119 157.887 -65.5904 157.868L-65.8588 157.804C-65.9471 157.782 -66.0377 157.766 -66.1297 157.755L-66.3981 157.722C-66.4962 157.71 -66.5956 157.704 -66.6952 157.704L-66.9636 157.703C-67.0633 157.703 -67.1629 157.709 -67.2613 157.72L-67.5297 157.751C-67.6222 157.762 -67.7132 157.778 -67.8021 157.799L-68.0705 157.862C-68.1496 157.881 -68.2268 157.903 -68.3014 157.929L-68.5698 158.024C-68.6336 158.046 -68.6955 158.071 -68.755 158.099L-69.0234 158.223C-69.0731 158.246 -69.1211 158.271 -69.1672 158.297L-69.4356 158.451C-69.4736 158.473 -69.5102 158.496 -69.5455 158.52L-69.8139 158.701C-69.8426 158.721 -69.8705 158.741 -69.8974 158.762L-70.1658 158.97C-70.1876 158.987 -70.2088 159.004 -70.2293 159.022L-70.4977 159.254C-70.5143 159.268 -70.5305 159.283 -70.5461 159.298L-70.8145 159.552C-70.8272 159.564 -70.8396 159.577 -70.8516 159.589L-71.12 159.864C-71.1297 159.873 -71.1391 159.883 -71.1483 159.893L-71.4167 160.186C-71.424 160.194 -71.4311 160.202 -71.4381 160.21L-71.7065 160.517L-71.7225 160.536L-71.9909 160.855L-72.0022 160.869L-72.2706 161.198L-72.2781 161.207L-72.5465 161.543L-73.0851 162.225L-73.0878 162.228L-73.3505 162.558L-73.611 162.88L-73.8675 163.19L-74.1192 163.483L-74.3654 163.756L-74.6044 164.007L-74.8343 164.232L-75.0524 164.427L-75.2549 164.591L-75.4366 164.721L-75.591 164.816L-75.7105 164.876L-75.7872 164.906L-75.8062 164.9L-75.8965 164.862L-76.027 164.792L-76.1901 164.687L-76.3784 164.547L-76.5859 164.374L-76.8078 164.169L-77.0406 163.936L-77.2819 163.679L-77.5298 163.399L-77.783 163.101L-78.0407 162.788L-78.3023 162.462L-79.1048 161.449L-79.3781 161.109L-79.3866 161.098L-79.655 160.771L-79.6676 160.756L-79.936 160.44L-79.9535 160.42L-80.2218 160.117C-80.2295 160.108 -80.2372 160.099 -80.2451 160.091L-80.5135 159.803C-80.5235 159.793 -80.5337 159.782 -80.5441 159.772L-80.8125 159.503C-80.8255 159.49 -80.8389 159.477 -80.8526 159.464L-81.121 159.216C-81.138 159.2 -81.1555 159.185 -81.1734 159.17L-81.4418 158.944C-81.464 158.926 -81.4869 158.907 -81.5106 158.89L-81.779 158.689C-81.8081 158.668 -81.8382 158.647 -81.8694 158.626L-82.1378 158.453C-82.176 158.428 -82.2157 158.405 -82.2568 158.382L-82.5251 158.237C-82.5749 158.21 -82.6267 158.185 -82.6803 158.162L-82.9487 158.046C-83.0125 158.018 -83.0788 157.994 -83.147 157.972L-83.4154 157.887C-83.4944 157.862 -83.576 157.841 -83.6593 157.824L-83.9277 157.77C-84.0201 157.752 -84.1144 157.738 -84.2097 157.731L-84.4781 157.709C-84.5778 157.7 -84.6783 157.698 -84.7785 157.702L-85.047 157.712C-85.1452 157.716 -85.2428 157.725 -85.3388 157.74L-85.6072 157.782C-86.566 157.932 -87.1704 158.6 -86.9572 159.273C-86.744 159.947 -85.794 160.372 -84.8352 160.222L-84.7445 160.208L-84.7138 160.218L-84.6217 160.258L-84.4896 160.329L-84.3253 160.435L-84.1361 160.577L-83.9279 160.752L-83.7055 160.957L-83.4723 161.191L-83.2307 161.45L-82.9825 161.73L-82.7291 162.029L-82.4712 162.343L-82.2095 162.669L-81.4066 163.683L-81.4016 163.689L-81.1332 164.023L-81.1245 164.034L-80.8561 164.36L-80.8433 164.375L-80.5749 164.691L-80.5572 164.711L-80.2888 165.014C-80.2811 165.023 -80.2733 165.031 -80.2653 165.04L-79.9969 165.327C-79.9868 165.337 -79.9765 165.348 -79.9659 165.359L-79.6975 165.627C-79.6904 165.634 -79.6832 165.641 -79.6759 165.648L-79.657 165.666L-79.3886 165.913C-79.3715 165.929 -79.3538 165.945 -79.3356 165.96L-79.0672 166.184C-79.0448 166.203 -79.0216 166.221 -78.9976 166.239L-78.7292 166.438C-78.6998 166.46 -78.6693 166.481 -78.6377 166.501L-78.3693 166.674C-78.3307 166.699 -78.2906 166.722 -78.2491 166.745L-77.9806 166.889C-77.9303 166.916 -77.8779 166.941 -77.8238 166.964L-77.5554 167.079C-77.4909 167.106 -77.424 167.131 -77.3551 167.152L-77.0867 167.236C-77.0071 167.261 -76.925 167.282 -76.841 167.298L-76.5726 167.351C-76.4798 167.369 -76.3851 167.382 -76.2893 167.389L-76.0209 167.41C-75.9211 167.417 -75.8205 167.419 -75.7203 167.415L-75.4519 167.404C-75.354 167.399 -75.2567 167.39 -75.161 167.374L-74.8926 167.331C-74.8047 167.317 -74.7185 167.298 -74.6346 167.275L-74.3662 167.2C-74.2928 167.179 -74.2214 167.155 -74.1526 167.128L-73.8842 167.023C-73.8259 167 -73.7695 166.974 -73.7153 166.947L-73.4469 166.811C-73.4019 166.789 -73.3585 166.764 -73.3167 166.739L-73.0483 166.574C-73.0141 166.553 -72.9811 166.532 -72.9492 166.509L-72.6809 166.317C-72.6549 166.299 -72.6298 166.28 -72.6055 166.26L-72.3371 166.043C-72.3281 166.035 -72.3192 166.028 -72.3105 166.021C-72.3001 166.012 -72.2898 166.003 -72.2797 165.994L-72.0113 165.753C-71.9963 165.739 -71.9817 165.726 -71.9675 165.712L-71.6991 165.449C-71.6877 165.438 -71.6765 165.427 -71.6656 165.415L-71.3972 165.134C-71.3885 165.125 -71.38 165.116 -71.3717 165.106L-71.1033 164.808L-71.0913 164.794L-71.0841 164.786L-70.8157 164.474L-70.8016 164.457L-70.5332 164.134L-70.5234 164.122L-70.255 163.79L-70.2489 163.782L-69.9805 163.445L-69.9778 163.441L-69.4455 162.768L-69.4416 162.763L-69.1808 162.437L-68.9218 162.119L-68.667 161.815L-68.4172 161.529L-68.1735 161.264L-67.9376 161.023L-67.7118 160.808L-67.4991 160.624L-67.3037 160.473L-67.1314 160.356L-66.9892 160.275L-66.8848 160.226L-66.8414 160.211L-66.7946 160.228L-66.6884 160.278L-66.5448 160.361L-66.3714 160.479L-66.1752 160.631L-65.9618 160.817L-65.7355 161.032L-65.4993 161.275L-65.2553 161.541L-65.0053 161.828L-64.7503 162.132L-64.4911 162.45L-64.2301 162.777L-64.2263 162.782L-63.6937 163.456L-63.6909 163.459L-63.4225 163.796L-63.4163 163.804L-63.1479 164.136L-63.1379 164.148L-62.8695 164.471L-62.8552 164.488L-62.5868 164.8L-62.5771 164.811L-62.5674 164.822L-62.2989 165.12C-62.2905 165.129 -62.2819 165.138 -62.2731 165.147L-62.0047 165.428L-61.9867 165.447L-61.9708 165.462L-61.7024 165.724L-61.6862 165.74C-61.6823 165.743 -61.6784 165.747 -61.6744 165.751C-61.669 165.756 -61.6636 165.76 -61.6581 165.765L-61.3897 166.005L-61.3729 166.02C-61.3595 166.032 -61.3457 166.043 -61.3317 166.055L-61.0633 166.271C-61.0388 166.291 -61.0133 166.31 -60.9871 166.328L-60.7187 166.519C-60.6865 166.542 -60.6531 166.564 -60.6184 166.585L-60.35 166.748C-60.3078 166.774 -60.2639 166.798 -60.2184 166.821L-59.95 166.955C-59.8952 166.983 -59.8382 167.008 -59.7793 167.031L-59.5109 167.135C-59.4414 167.162 -59.3694 167.186 -59.2953 167.206L-59.027 167.28C-58.9425 167.303 -58.8557 167.321 -58.7672 167.335L-58.4988 167.377C-58.4028 167.392 -58.3052 167.402 -58.207 167.405L-57.9386 167.415C-57.8383 167.419 -57.7379 167.417 -57.6382 167.409L-57.3698 167.387C-57.2744 167.379 -57.1801 167.365 -57.0878 167.347L-56.8193 167.293C-56.736 167.276 -56.6545 167.255 -56.5755 167.23L-56.3071 167.145C-56.2388 167.123 -56.1726 167.099 -56.1087 167.071L-55.8403 166.955C-55.7868 166.932 -55.735 166.907 -55.6852 166.88L-55.4168 166.735C-55.3757 166.713 -55.336 166.689 -55.2979 166.664L-55.0295 166.491C-55.0136 166.48 -54.998 166.47 -54.9827 166.459C-54.9679 166.449 -54.9533 166.438 -54.939 166.428L-54.6706 166.227C-54.647 166.21 -54.624 166.192 -54.6019 166.173L-54.3335 165.948C-54.3155 165.933 -54.298 165.917 -54.281 165.901L-54.0126 165.653L-53.993 165.635L-53.9878 165.63L-53.9726 165.615L-53.7042 165.345C-53.6937 165.335 -53.6835 165.324 -53.6735 165.314L-53.4051 165.026C-53.3972 165.018 -53.3895 165.009 -53.3819 165.001L-53.1135 164.697L-53.1049 164.688L-53.0961 164.677L-52.8277 164.361L-52.8151 164.346L-52.5467 164.019L-52.5382 164.009L-52.2697 163.675L-51.7265 162.988L-51.4648 162.658L-51.4598 162.652L-51.2006 162.329L-50.9431 162.016L-50.6898 161.718L-50.4419 161.438L-50.2006 161.181L-49.9678 160.948L-49.7459 160.744L-49.5385 160.57L-49.3501 160.43L-49.187 160.325L-49.0565 160.255L-48.9662 160.217L-48.9473 160.211L-48.8705 160.241L-48.751 160.301L-48.5966 160.396L-48.4149 160.526L-48.2125 160.69L-47.9944 160.885L-47.7644 161.11L-47.5254 161.361L-47.2793 161.635L-47.0275 161.928L-46.7709 162.237L-46.5105 162.559L-46.2478 162.889L-46.2452 162.893L-45.7104 163.569L-45.7065 163.574L-45.4381 163.91L-45.4306 163.919L-45.1622 164.248L-45.1509 164.262L-44.8825 164.582L-44.8736 164.592L-44.8666 164.6L-44.5982 164.908L-44.5879 164.919L-44.5767 164.931L-44.3083 165.224L-44.2936 165.24L-44.28 165.254L-44.0117 165.528L-44.001 165.539L-43.9837 165.556L-43.9746 165.565L-43.7062 165.819C-43.1215 166.374 -42.0077 166.491 -41.2185 166.08C-40.4293 165.669 -40.2635 164.886 -40.8483 164.331L-41.0977 164.095L-41.3336 163.853L-41.5772 163.588L-41.827 163.302L-42.0818 162.998L-42.3409 162.681L-42.6017 162.354L-42.6056 162.349L-43.1378 161.676L-43.4089 161.335L-43.415 161.328L-43.6834 160.996L-43.6932 160.984L-43.9616 160.66L-43.9757 160.643L-44.2441 160.331C-44.2504 160.324 -44.2568 160.316 -44.2633 160.309L-44.5317 160.011L-44.5416 160L-44.5573 159.983L-44.8257 159.702L-44.8432 159.684L-44.8592 159.668L-45.1276 159.405C-45.1418 159.392 -45.1564 159.378 -45.1714 159.364L-45.4398 159.123C-45.4472 159.117 -45.4547 159.11 -45.4623 159.104L-45.4725 159.095L-45.4887 159.081L-45.4972 159.075L-45.7655 158.857C-45.7898 158.838 -45.8149 158.819 -45.8409 158.8L-46.1093 158.608C-46.1411 158.586 -46.1742 158.564 -46.2084 158.543L-46.4768 158.378C-46.5185 158.353 -46.5619 158.329 -46.6069 158.306L-46.8753 158.17C-46.9295 158.143 -46.9859 158.118 -47.0442 158.095L-47.3126 157.989C-47.3815 157.962 -47.4528 157.938 -47.5262 157.918L-47.7947 157.843C-47.8785 157.819 -47.9648 157.8 -48.0527 157.786L-48.3211 157.743C-48.4167 157.728 -48.514 157.718 -48.612 157.714L-48.8804 157.702ZM-74.5858 190.611V240.485H-66.72L-51.228 221.22V190.611H-74.5858ZM-77.2812 253.505L-65.9551 264.255V318.06H-61.7035V261.865L-74.6112 249.614L-77.2812 253.505ZM345.367 296.771V290.384H-8.02344V276.664H345.367V270.746H-8.02344V267.11H348.783V280.3H-4.60719V286.748H348.783V300.407H-4.60719V307.978H120.05V311.615H-8.02344V296.771H345.367ZM-26.1257 173.942V179.859H13.5V193.58H-38.8954V189.943H10.0838V183.495H-29.542V170.305H1.59566V173.942H-26.1257ZM663.254 188.485H679.432L689.758 170.25H673.58L666.773 182.271L663.254 188.485ZM469.985 301.985H453.807L465.834 286.75H482.012L469.985 301.985ZM475.538 301.985H491.715L503.742 286.75H487.565L475.538 301.985ZM513.45 301.985H497.272L509.299 286.75H525.477L513.45 301.985ZM519.003 301.985H535.18L547.207 286.75H531.029L519.003 301.985ZM556.911 301.985H540.733L552.76 286.75H568.938L556.911 301.985ZM562.467 301.985H600.875V286.75H574.494L562.467 301.985ZM642.258 188.485H658.436L668.762 170.25H652.584L645.777 182.271L642.258 188.485ZM626.125 279.559H609.947V275.416V267.402H626.125V279.559ZM610.371 201.488V244.313H623.858L640.557 227.407V205.308H681.465V201.485H640.555V201.488H610.371ZM655.84 254.696H612.07V256.307H657.02V256.084L657.21 256.307L678.904 230.794L677.534 229.182L655.84 254.696ZM452.109 306.196H599.096V307.807H452.109V306.196ZM599.094 310.809H447.855V312.421H599.094V310.809ZM442.754 315.419H599.094V317.03H442.754V315.419ZM663.284 303.008C663.384 303 663.484 302.999 663.584 303.003L663.853 303.014C663.916 303.017 663.979 303.022 664.042 303.029C664.076 303.034 664.11 303.038 664.144 303.044L664.412 303.087C664.463 303.095 664.514 303.105 664.564 303.117C664.6 303.125 664.635 303.134 664.67 303.143L664.939 303.218C665.012 303.239 665.083 303.263 665.152 303.29L665.421 303.395C665.479 303.418 665.535 303.444 665.59 303.471L665.858 303.607C665.903 303.629 665.946 303.654 665.988 303.679L666.256 303.844L666.271 303.852L666.29 303.865L666.31 303.878L666.323 303.887C666.334 303.894 666.345 303.902 666.356 303.909L666.624 304.101C666.65 304.119 666.675 304.138 666.699 304.158L666.968 304.375L666.99 304.394L667.003 304.405L667.016 304.416L667.025 304.424L667.293 304.665C667.308 304.679 667.323 304.692 667.337 304.706L667.606 304.969C667.617 304.98 667.628 304.991 667.639 305.003L667.908 305.284C667.916 305.293 667.925 305.302 667.933 305.312L668.202 305.61L668.205 305.614L668.221 305.632L668.489 305.944L668.503 305.961L668.772 306.284L668.781 306.296L669.05 306.628L669.056 306.636L669.327 306.977L669.859 307.65L669.863 307.655L670.124 307.981L670.383 308.299L670.638 308.603L670.888 308.889L671.131 309.154L671.367 309.395L671.617 309.632C672.201 310.187 672.036 310.969 671.246 311.38C670.457 311.791 669.343 311.675 668.759 311.12L668.49 310.866C668.478 310.854 668.465 310.841 668.453 310.829L668.185 310.554L668.171 310.54L668.156 310.525L667.888 310.232L667.877 310.22L667.867 310.208L667.598 309.901L667.591 309.893L667.582 309.882L667.314 309.563L667.303 309.549L667.034 309.22L667.027 309.211L666.758 308.875L666.754 308.87L666.22 308.193L666.217 308.19L665.954 307.86L665.694 307.538L665.437 307.228L665.186 306.935L664.939 306.662L664.7 306.411L664.47 306.186L664.252 305.99L664.05 305.827L663.868 305.697L663.714 305.602L663.594 305.542L663.518 305.512L663.499 305.518L663.408 305.556L663.278 305.626L663.115 305.731L662.926 305.871L662.719 306.044L662.497 306.249L662.264 306.482L662.023 306.739L661.775 307.019L661.522 307.317L661.264 307.63L661.005 307.952L661 307.959L660.738 308.289L660.195 308.975L659.927 309.309L659.918 309.32L659.65 309.647L659.637 309.662L659.369 309.978L659.36 309.988L659.351 309.998L659.083 310.301C659.075 310.31 659.068 310.319 659.06 310.327L658.791 310.615C658.781 310.625 658.771 310.636 658.761 310.646L658.492 310.915C658.479 310.928 658.466 310.941 658.452 310.954L658.184 311.202C658.175 311.21 658.167 311.218 658.159 311.225L658.149 311.234L658.131 311.248L657.863 311.474L657.845 311.488L657.837 311.495C657.823 311.506 657.809 311.517 657.794 311.528L657.526 311.729C657.497 311.75 657.467 311.771 657.435 311.791L657.167 311.965C657.129 311.99 657.089 312.013 657.048 312.036L656.78 312.181C656.73 312.208 656.678 312.233 656.625 312.256L656.356 312.372C656.292 312.4 656.226 312.424 656.158 312.446L655.889 312.531C655.81 312.556 655.729 312.577 655.646 312.594L655.377 312.648C655.351 312.653 655.324 312.658 655.297 312.662C655.274 312.666 655.251 312.67 655.229 312.673C655.204 312.676 655.18 312.679 655.155 312.682C655.135 312.684 655.115 312.686 655.095 312.687L654.827 312.709C654.727 312.718 654.626 312.72 654.526 312.716L654.258 312.706C654.16 312.702 654.062 312.693 653.966 312.678L653.698 312.636C653.664 312.631 653.631 312.625 653.599 312.618C653.58 312.615 653.562 312.611 653.543 312.607C653.523 312.602 653.503 312.597 653.482 312.592C653.467 312.588 653.453 312.585 653.438 312.581L653.169 312.507C653.095 312.487 653.023 312.463 652.954 312.436L652.685 312.332C652.627 312.309 652.57 312.283 652.515 312.256L652.246 312.122C652.201 312.099 652.157 312.074 652.115 312.049L651.846 311.886C651.812 311.865 651.778 311.843 651.746 311.82L651.478 311.629C651.463 311.619 651.449 311.608 651.435 311.598C651.424 311.589 651.413 311.58 651.402 311.572L651.133 311.355C651.113 311.339 651.094 311.323 651.075 311.306L650.807 311.066C650.792 311.053 650.777 311.039 650.762 311.025L650.494 310.763C650.482 310.752 650.471 310.741 650.46 310.729L650.192 310.448C650.183 310.439 650.174 310.43 650.166 310.42L649.897 310.123L649.886 310.109L649.878 310.101L649.61 309.789L649.595 309.772L649.327 309.449L649.317 309.437L649.049 309.105L649.042 309.097L648.774 308.76L648.771 308.756L648.239 308.083L648.235 308.078L647.974 307.751L647.715 307.433L647.46 307.129L647.21 306.842L646.966 306.576L646.729 306.333L646.503 306.118L646.29 305.932L646.094 305.779L645.92 305.661L645.776 305.578L645.67 305.529L645.623 305.512L645.58 305.527L645.476 305.576L645.333 305.657L645.161 305.774L644.966 305.925L644.753 306.109L644.527 306.323L644.291 306.565L644.048 306.83L643.798 307.116L643.543 307.42L643.284 307.737L643.023 308.064L643.019 308.069L642.487 308.742L642.484 308.745L642.216 309.083L642.21 309.09L641.942 309.422L641.932 309.434L641.663 309.758L641.649 309.775L641.381 310.087L641.373 310.096L641.362 310.109L641.093 310.407C641.085 310.416 641.076 310.426 641.068 310.435L640.799 310.716C640.788 310.728 640.777 310.739 640.766 310.75L640.497 311.013L640.484 311.026C640.474 311.035 640.464 311.044 640.453 311.054L640.185 311.295C640.167 311.311 640.147 311.327 640.128 311.343L639.859 311.561C639.835 311.58 639.81 311.599 639.784 311.618L639.516 311.81C639.502 311.82 639.487 311.829 639.473 311.839C639.455 311.851 639.436 311.863 639.417 311.875L639.148 312.04C639.106 312.065 639.063 312.089 639.018 312.112L638.75 312.248C638.695 312.275 638.639 312.3 638.581 312.323L638.312 312.429C638.243 312.456 638.172 312.48 638.099 312.5L637.83 312.575C637.746 312.599 637.66 312.618 637.572 312.632L637.304 312.675C637.208 312.69 637.111 312.7 637.013 312.704L636.745 312.716C636.692 312.718 636.64 312.719 636.587 312.718C636.567 312.717 636.548 312.717 636.528 312.716C636.5 312.714 636.472 312.713 636.444 312.711L636.176 312.69C636.146 312.688 636.117 312.685 636.087 312.682C636.053 312.678 636.019 312.673 635.985 312.668C635.954 312.663 635.923 312.658 635.892 312.652L635.624 312.599C635.54 312.583 635.458 312.562 635.378 312.537L635.11 312.453C635.041 312.432 634.974 312.407 634.909 312.379L634.641 312.265C634.62 312.256 634.599 312.246 634.578 312.236C634.555 312.226 634.533 312.215 634.51 312.203L634.484 312.19L634.216 312.045C634.19 312.032 634.165 312.018 634.141 312.003L634.113 311.986L634.096 311.975L633.827 311.802L633.815 311.794L633.788 311.776C633.779 311.77 633.771 311.764 633.762 311.758C633.753 311.752 633.744 311.746 633.736 311.739L633.467 311.54C633.443 311.522 633.42 311.504 633.398 311.485L633.129 311.261L633.108 311.242C633.097 311.233 633.087 311.224 633.076 311.214L632.808 310.967C632.8 310.96 632.793 310.953 632.786 310.946L632.767 310.928L632.499 310.659L632.485 310.646L632.468 310.627L632.2 310.341L632.19 310.331L632.176 310.315L631.908 310.012L631.89 309.992L631.622 309.676L631.609 309.661L631.34 309.334L631.332 309.324L631.063 308.99L631.058 308.984L630.255 307.969L629.994 307.644L629.736 307.33L629.482 307.031L629.234 306.751L628.993 306.492L628.759 306.258L628.537 306.052L628.329 305.878L628.14 305.736L627.975 305.63L627.843 305.558L627.751 305.519L627.72 305.509L627.63 305.523C626.671 305.673 625.721 305.248 625.508 304.574C625.294 303.9 625.899 303.233 626.858 303.083L627.126 303.041C627.222 303.026 627.32 303.016 627.418 303.013L627.686 303.003C627.724 303.001 627.761 303.001 627.798 303.001C627.861 303.001 627.924 303.004 627.987 303.009L628.255 303.031C628.35 303.039 628.445 303.052 628.537 303.071L628.806 303.125C628.84 303.132 628.874 303.139 628.907 303.148C628.931 303.154 628.955 303.16 628.979 303.167C629.003 303.173 629.026 303.18 629.049 303.188L629.318 303.273C629.357 303.285 629.396 303.299 629.433 303.313C629.448 303.319 629.462 303.324 629.475 303.33C629.489 303.335 629.503 303.341 629.516 303.347L629.785 303.463C629.804 303.471 629.824 303.48 629.843 303.489C629.876 303.505 629.908 303.521 629.94 303.538L630.208 303.683L630.227 303.694C630.242 303.702 630.256 303.71 630.27 303.719C630.29 303.73 630.309 303.742 630.327 303.754L630.595 303.927C630.627 303.947 630.657 303.968 630.686 303.99L630.954 304.191C630.978 304.208 631.001 304.226 631.023 304.245L631.291 304.47L631.305 304.482L631.319 304.494L631.328 304.502L631.344 304.517L631.612 304.765L631.633 304.784L631.652 304.803L631.921 305.073L631.937 305.089L631.951 305.104L632.22 305.392C632.228 305.4 632.235 305.409 632.243 305.417L632.511 305.721L632.529 305.741L632.797 306.057L632.81 306.072L633.078 306.399L633.087 306.409L633.36 306.75L634.163 307.763L634.424 308.089L634.682 308.402L634.935 308.7L635.183 308.98L635.424 309.237L635.657 309.47L635.879 309.674L636.086 309.848L636.275 309.988L636.438 310.093L636.568 310.163L636.659 310.201L636.678 310.207L636.754 310.177L636.874 310.116L637.028 310.022L637.21 309.892L637.412 309.728L637.63 309.533L637.86 309.308L638.099 309.057L638.346 308.783L638.597 308.49L638.854 308.181L639.114 307.859L639.377 307.529L639.38 307.525L639.918 306.844L640.187 306.508L640.194 306.499L640.463 306.17L640.474 306.156L640.742 305.836L640.758 305.818L641.027 305.51C641.034 305.502 641.041 305.494 641.048 305.486L641.317 305.194C641.326 305.184 641.335 305.174 641.345 305.164L641.613 304.89C641.625 304.877 641.638 304.865 641.65 304.853L641.919 304.599C641.928 304.589 641.938 304.58 641.948 304.571L641.967 304.555L642.236 304.322C642.256 304.305 642.277 304.287 642.299 304.27L642.568 304.062C642.594 304.042 642.622 304.022 642.651 304.002L642.919 303.82C642.955 303.797 642.991 303.774 643.029 303.752L643.298 303.598C643.324 303.583 643.352 303.568 643.38 303.554C643.4 303.544 643.421 303.534 643.441 303.524L643.71 303.399C643.769 303.372 643.831 303.347 643.895 303.324L644.163 303.23C644.238 303.204 644.315 303.181 644.394 303.163L644.663 303.1C644.711 303.089 644.759 303.079 644.808 303.07C644.83 303.067 644.851 303.063 644.873 303.06C644.894 303.057 644.914 303.055 644.935 303.052L645.204 303.021C645.302 303.009 645.401 303.004 645.501 303.004L645.77 303.005C645.869 303.005 645.969 303.011 646.067 303.023L646.335 303.056C646.427 303.067 646.518 303.083 646.606 303.104L646.874 303.169C646.953 303.188 647.029 303.21 647.103 303.237L647.372 303.332C647.393 303.34 647.413 303.347 647.434 303.355C647.475 303.371 647.516 303.389 647.555 303.407L647.824 303.533C647.873 303.556 647.92 303.581 647.966 303.607L648.234 303.762C648.272 303.784 648.308 303.807 648.343 303.83L648.611 304.013C648.623 304.021 648.634 304.029 648.645 304.037C648.662 304.049 648.678 304.061 648.694 304.073L648.962 304.282C648.974 304.291 648.985 304.3 648.996 304.309C649.006 304.317 649.015 304.325 649.025 304.334L649.293 304.567C649.31 304.581 649.326 304.596 649.341 304.611L649.61 304.866L649.627 304.883L649.636 304.892L649.646 304.902L649.915 305.178L649.927 305.191L649.943 305.207L650.211 305.5L650.222 305.513L650.232 305.524L650.501 305.832L650.516 305.85L650.785 306.17L650.796 306.184L651.064 306.514L651.072 306.523L651.344 306.863L651.878 307.539L651.881 307.543L652.143 307.873L652.404 308.195L652.66 308.503L652.912 308.795L653.158 309.068L653.396 309.318L653.626 309.541L653.843 309.736L654.045 309.898L654.226 310.027L654.379 310.12L654.497 310.179L654.569 310.207L654.591 310.2L654.683 310.16L654.815 310.089L654.979 309.983L655.169 309.841L655.377 309.666L655.599 309.461L655.833 309.227L656.074 308.968L656.322 308.688L656.576 308.389L656.834 308.075L657.093 307.752L657.098 307.746L657.628 307.076L657.898 306.735L657.903 306.729L658.172 306.395L658.18 306.384L658.449 306.058L658.462 306.043L658.73 305.727L658.748 305.706L659.016 305.404L659.025 305.393L659.039 305.378L659.308 305.091L659.32 305.079L659.339 305.059L659.607 304.791C659.615 304.783 659.623 304.776 659.63 304.768L659.648 304.752L659.916 304.505L659.93 304.492C659.943 304.48 659.956 304.469 659.969 304.458L660.238 304.234C660.26 304.215 660.283 304.197 660.307 304.179L660.576 303.98L660.593 303.967L660.605 303.959L660.617 303.95C660.633 303.939 660.65 303.927 660.667 303.917L660.935 303.744C660.974 303.719 661.014 303.696 661.056 303.673L661.324 303.529L661.35 303.516L661.378 303.501C661.395 303.493 661.412 303.485 661.429 303.477C661.446 303.469 661.463 303.461 661.481 303.454L661.749 303.339C661.779 303.327 661.81 303.314 661.841 303.303C661.877 303.29 661.913 303.277 661.95 303.266L662.218 303.182C662.298 303.157 662.38 303.136 662.464 303.12L662.732 303.067C662.825 303.049 662.92 303.036 663.016 303.029L663.284 303.008ZM615.73 313.735C618.489 313.735 620.726 311.105 620.726 307.86C620.726 304.615 618.489 301.985 615.73 301.985C612.971 301.985 610.734 304.615 610.734 307.86C610.734 311.105 612.971 313.735 615.73 313.735ZM981.976 264.403H1157.32V270.403H981.976V264.403ZM559.926 126.052H556.926V129.052V149.552V152.552V171.052H467.242V177.052H556.926V182.052H467.242V188.052H559.926H562.926V185.052V177.052V174.052V155.552H640.28V149.552H562.926V144.067H772.499V138.067H562.926V132.052H640.28V126.052H559.926ZM570.127 188.052H627.098V163.802H570.127V181.123V188.052ZM547.75 230.313H561.93V210.59H547.75V220.678V230.313ZM388.959 312.423H431.953V264.423H388.959V292.994H360.296V312.423H388.959ZM531.539 272.083H479.67V262.448V245.359L503.054 216.359H531.539V272.083ZM589.281 243.391H568.942V231.704V208.309H468.891V202.309H587.934V202.485H589.281V243.391ZM351.109 312.423H138.531V306.423H351.109V312.423ZM544.883 257.184H591.65V251.184H544.883V257.184ZM591.65 271.184H544.883V265.184H591.65V271.184Z"
            fill="url(#paint0_linear_22605_39199)"
        />
        <path
            d="M35 6.00073H-15.7852L-32.4375 28.0317H-77V244.352L-58.7743 259.844M34.5 232.733H-0.994545M-0.994545 232.733H-32.4375M-0.994545 232.733L-23.0315 259.844H-58.7743M-58.7743 259.844V319.001M707.5 6.00073H677.5M677.5 6.00073L640.5 26.5007H605.464V137.501M677.5 6.00073H640.5M701.5 119.501H656L637 137.501H605.464M605.464 244.352V137.501M1192 319.001H605.464V282.95V137.501M1336 282.95H1126L1095 319.001"
            stroke="#8F8E93"
            stroke-width="2"
            stroke-linejoin="round"
        />
        <path
            opacity="0.25"
            fill-rule="evenodd"
            clip-rule="evenodd"
            d="M516.414 692.735H343.557L361.413 668.643H516.414V692.735ZM308.793 614.876H343.344V598.279H307.943L308.793 614.876ZM330.198 564.012H538.52V538.314H330.198V564.012ZM353.758 585.696H329.803V569.099H353.758V585.696ZM383.519 614.876H538.52V590.784H383.519V614.876ZM37.3516 681.591H294.727V668.493H37.3516H34.3516V665.493V647.4V644.4H37.3516H297.727V650.4H40.3516V662.493H297.727H300.727V665.493V684.591V687.591H297.727H37.3516V681.591ZM317.972 627.399H493.316V633.399H317.972V627.399ZM538.52 505.333H327.718V511.333H538.52V505.333ZM369.359 614.876V579.005V576.005H372.359H541V582.005H375.359V614.876H369.359ZM538.52 487.13H327.718V493.13H538.52V487.13ZM327.718 470.001H538.52V476.001H327.718V470.001ZM-736.52 516.485H-751L-747.85 521.256L-741.757 530.485H-727.277L-736.52 516.485ZM-717.727 516.485H-732.207L-729.057 521.256L-722.964 530.485H-708.484L-717.727 516.485ZM-715.227 689.935V647.11H-701.739L-685.041 664.016V689.935H-715.227ZM-672.023 630.634V640.837H-664.583V634.662L-668.699 630.634H-672.023ZM-660.332 640.837V630.634H-657.008L-652.892 634.662V640.837H-660.332ZM-648.641 630.634V640.837H-641.2V634.662L-645.316 630.634H-648.641ZM-688.005 635.737L-688.195 635.514V635.737H-721.027V634.126H-689.375L-673.393 615.33L-672.023 616.941L-688.005 635.737ZM-712.88 537.702C-712.981 537.698 -713.081 537.7 -713.181 537.707L-713.449 537.728C-713.545 537.735 -713.64 537.748 -713.733 537.766L-714.001 537.819C-714.085 537.835 -714.167 537.856 -714.247 537.881L-714.515 537.965C-714.584 537.986 -714.651 538.011 -714.715 538.039L-714.984 538.153C-715.038 538.176 -715.09 538.201 -715.141 538.228L-715.409 538.373C-715.451 538.395 -715.491 538.418 -715.529 538.443L-715.798 538.616C-715.829 538.636 -715.86 538.657 -715.889 538.679L-716.158 538.878C-716.182 538.896 -716.205 538.914 -716.227 538.933L-716.496 539.157C-716.505 539.165 -716.513 539.172 -716.522 539.18L-716.535 539.192L-716.549 539.204L-716.817 539.451C-716.831 539.464 -716.844 539.477 -716.858 539.49L-717.126 539.758L-717.137 539.77C-717.144 539.777 -717.15 539.784 -717.157 539.79L-717.425 540.077C-717.433 540.086 -717.441 540.094 -717.449 540.103L-717.717 540.406L-717.735 540.426L-718.003 540.742L-718.016 540.757L-718.285 541.084L-718.293 541.094L-718.562 541.428L-718.567 541.434L-718.837 541.775L-719.367 542.445L-719.372 542.452L-719.631 542.774L-719.889 543.088L-720.143 543.387L-720.391 543.667L-720.632 543.926L-720.866 544.16L-721.088 544.366L-721.296 544.54L-721.485 544.682L-721.65 544.788L-721.782 544.86L-721.874 544.899L-721.896 544.906L-721.968 544.878L-722.086 544.819L-722.239 544.726L-722.42 544.598L-722.622 544.435L-722.839 544.241L-723.069 544.017L-723.307 543.767L-723.553 543.495L-723.805 543.202L-724.061 542.894L-724.321 542.572L-724.584 542.242L-724.587 542.239L-725.121 541.562L-725.393 541.222L-725.401 541.213L-725.669 540.883L-725.68 540.87L-725.949 540.55L-725.964 540.531L-726.233 540.223L-726.243 540.212L-726.254 540.2L-726.522 539.907C-726.531 539.897 -726.541 539.887 -726.55 539.877L-726.819 539.601C-726.831 539.589 -726.843 539.577 -726.855 539.565L-727.124 539.31C-727.139 539.295 -727.155 539.28 -727.172 539.266L-727.44 539.033C-727.46 539.015 -727.481 538.998 -727.503 538.981L-727.771 538.772C-727.798 538.752 -727.825 538.732 -727.854 538.712L-728.122 538.53C-728.157 538.506 -728.193 538.483 -728.231 538.461L-728.499 538.306C-728.545 538.28 -728.592 538.255 -728.641 538.232L-728.91 538.107C-728.969 538.079 -729.03 538.054 -729.093 538.031L-729.361 537.936C-729.435 537.909 -729.512 537.887 -729.59 537.868L-729.859 537.804C-729.947 537.782 -730.038 537.766 -730.13 537.755L-730.398 537.722C-730.496 537.71 -730.596 537.704 -730.695 537.704L-730.964 537.703C-731.063 537.703 -731.163 537.709 -731.261 537.72L-731.53 537.751C-731.622 537.762 -731.713 537.778 -731.802 537.799L-732.071 537.862C-732.15 537.881 -732.227 537.903 -732.301 537.929L-732.57 538.024C-732.634 538.046 -732.695 538.071 -732.755 538.099L-733.023 538.223C-733.073 538.246 -733.121 538.271 -733.167 538.297L-733.436 538.451C-733.474 538.473 -733.51 538.496 -733.545 538.52L-733.814 538.701C-733.843 538.721 -733.87 538.741 -733.897 538.762L-734.166 538.97C-734.188 538.987 -734.209 539.004 -734.229 539.022L-734.498 539.254C-734.514 539.268 -734.53 539.283 -734.546 539.298L-734.815 539.552C-734.827 539.564 -734.84 539.577 -734.852 539.589L-735.12 539.864C-735.13 539.873 -735.139 539.883 -735.148 539.893L-735.417 540.186C-735.424 540.194 -735.431 540.202 -735.438 540.21L-735.707 540.517L-735.722 540.536L-735.991 540.855L-736.002 540.869L-736.271 541.198L-736.278 541.207L-736.546 541.543L-737.085 542.225L-737.088 542.228L-737.351 542.558L-737.611 542.88L-737.867 543.19L-738.119 543.483L-738.365 543.756L-738.604 544.007L-738.834 544.232L-739.052 544.427L-739.255 544.591L-739.437 544.721L-739.591 544.816L-739.71 544.876L-739.787 544.906L-739.806 544.9L-739.896 544.862L-740.027 544.792L-740.19 544.687L-740.378 544.547L-740.586 544.374L-740.808 544.169L-741.041 543.936L-741.282 543.679L-741.53 543.399L-741.783 543.101L-742.041 542.788L-742.302 542.462L-743.105 541.449L-743.378 541.109L-743.387 541.098L-743.655 540.771L-743.668 540.756L-743.936 540.44L-743.953 540.42L-744.222 540.117C-744.229 540.108 -744.237 540.099 -744.245 540.091L-744.514 539.803C-744.523 539.793 -744.534 539.782 -744.544 539.772L-744.813 539.503C-744.826 539.49 -744.839 539.477 -744.853 539.464L-745.121 539.216C-745.138 539.2 -745.155 539.185 -745.173 539.17L-745.442 538.944C-745.464 538.926 -745.487 538.907 -745.511 538.89L-745.779 538.689C-745.808 538.668 -745.838 538.647 -745.869 538.626L-746.138 538.453C-746.176 538.428 -746.216 538.405 -746.257 538.382L-746.525 538.237C-746.575 538.21 -746.627 538.185 -746.68 538.162L-746.949 538.046C-747.013 538.018 -747.079 537.994 -747.147 537.972L-747.415 537.887C-747.494 537.862 -747.576 537.841 -747.659 537.824L-747.928 537.77C-748.02 537.752 -748.114 537.738 -748.21 537.731L-748.478 537.709C-748.578 537.7 -748.678 537.698 -748.779 537.702L-749.047 537.712C-749.145 537.716 -749.243 537.725 -749.339 537.74L-749.607 537.782C-750.566 537.932 -751.17 538.6 -750.957 539.273C-750.744 539.947 -749.794 540.372 -748.835 540.222L-748.744 540.208L-748.714 540.218L-748.622 540.258L-748.49 540.329L-748.325 540.435L-748.136 540.577L-747.928 540.752L-747.705 540.957L-747.472 541.191L-747.231 541.45L-746.983 541.73L-746.729 542.029L-746.471 542.343L-746.21 542.669L-745.407 543.683L-745.402 543.689L-745.133 544.023L-745.124 544.034L-744.856 544.36L-744.843 544.375L-744.575 544.691L-744.557 544.711L-744.289 545.014C-744.281 545.023 -744.273 545.031 -744.265 545.04L-743.997 545.327C-743.987 545.337 -743.976 545.348 -743.966 545.359L-743.698 545.627C-743.69 545.634 -743.683 545.641 -743.676 545.648L-743.657 545.666L-743.389 545.913C-743.371 545.929 -743.354 545.945 -743.336 545.96L-743.067 546.184C-743.045 546.203 -743.022 546.221 -742.998 546.239L-742.729 546.438C-742.7 546.46 -742.669 546.481 -742.638 546.501L-742.369 546.674C-742.331 546.699 -742.291 546.722 -742.249 546.745L-741.981 546.889C-741.93 546.916 -741.878 546.941 -741.824 546.964L-741.555 547.079C-741.491 547.106 -741.424 547.131 -741.355 547.152L-741.087 547.236C-741.007 547.261 -740.925 547.282 -740.841 547.298L-740.573 547.351C-740.48 547.369 -740.385 547.382 -740.289 547.389L-740.021 547.41C-739.921 547.417 -739.821 547.419 -739.72 547.415L-739.452 547.404C-739.354 547.399 -739.257 547.39 -739.161 547.374L-738.893 547.331C-738.805 547.317 -738.718 547.298 -738.635 547.275L-738.366 547.2C-738.293 547.179 -738.221 547.155 -738.153 547.128L-737.884 547.023C-737.826 547 -737.77 546.974 -737.715 546.947L-737.447 546.811C-737.402 546.789 -737.358 546.764 -737.317 546.739L-737.048 546.574C-737.014 546.553 -736.981 546.532 -736.949 546.509L-736.681 546.317C-736.655 546.299 -736.63 546.28 -736.606 546.26L-736.337 546.043C-736.328 546.035 -736.319 546.028 -736.31 546.021C-736.3 546.012 -736.29 546.003 -736.28 545.994L-736.011 545.753C-735.996 545.739 -735.982 545.726 -735.968 545.712L-735.699 545.449C-735.688 545.438 -735.677 545.427 -735.666 545.415L-735.397 545.134C-735.389 545.125 -735.38 545.116 -735.372 545.106L-735.103 544.808L-735.091 544.794L-735.084 544.786L-734.816 544.474L-734.802 544.457L-734.533 544.134L-734.523 544.122L-734.255 543.79L-734.249 543.782L-733.98 543.445L-733.978 543.441L-733.446 542.768L-733.442 542.763L-733.181 542.437L-732.922 542.119L-732.667 541.815L-732.417 541.529L-732.174 541.264L-731.938 541.023L-731.712 540.808L-731.499 540.624L-731.304 540.473L-731.131 540.356L-730.989 540.275L-730.885 540.226L-730.841 540.211L-730.795 540.228L-730.688 540.278L-730.545 540.361L-730.371 540.479L-730.175 540.631L-729.962 540.817L-729.736 541.032L-729.499 541.275L-729.255 541.541L-729.005 541.828L-728.75 542.132L-728.491 542.45L-728.23 542.777L-728.226 542.782L-727.694 543.456L-727.691 543.459L-727.423 543.796L-727.416 543.804L-727.148 544.136L-727.138 544.148L-726.87 544.471L-726.855 544.488L-726.587 544.8L-726.577 544.811L-726.567 544.822L-726.299 545.12C-726.291 545.129 -726.282 545.138 -726.273 545.147L-726.005 545.428L-725.987 545.447L-725.971 545.462L-725.702 545.724L-725.686 545.74C-725.682 545.743 -725.678 545.747 -725.674 545.751C-725.669 545.756 -725.664 545.76 -725.658 545.765L-725.39 546.005L-725.373 546.02C-725.359 546.032 -725.346 546.043 -725.332 546.055L-725.063 546.271C-725.039 546.291 -725.013 546.31 -724.987 546.328L-724.719 546.519C-724.686 546.542 -724.653 546.564 -724.618 546.585L-724.35 546.748C-724.308 546.774 -724.264 546.798 -724.218 546.821L-723.95 546.955C-723.895 546.983 -723.838 547.008 -723.779 547.031L-723.511 547.135C-723.441 547.162 -723.369 547.186 -723.295 547.206L-723.027 547.28C-722.943 547.303 -722.856 547.321 -722.767 547.335L-722.499 547.377C-722.403 547.392 -722.305 547.402 -722.207 547.405L-721.939 547.415C-721.838 547.419 -721.738 547.417 -721.638 547.409L-721.37 547.387C-721.274 547.379 -721.18 547.365 -721.088 547.347L-720.819 547.293C-720.736 547.276 -720.654 547.255 -720.575 547.23L-720.307 547.145C-720.239 547.123 -720.173 547.099 -720.109 547.071L-719.84 546.955C-719.787 546.932 -719.735 546.907 -719.685 546.88L-719.417 546.735C-719.376 546.713 -719.336 546.689 -719.298 546.664L-719.029 546.491C-719.014 546.48 -718.998 546.47 -718.983 546.459C-718.968 546.449 -718.953 546.438 -718.939 546.428L-718.671 546.227C-718.647 546.21 -718.624 546.192 -718.602 546.173L-718.333 545.948C-718.315 545.933 -718.298 545.917 -718.281 545.901L-718.013 545.653L-717.993 545.635L-717.988 545.63L-717.973 545.615L-717.704 545.345C-717.694 545.335 -717.684 545.324 -717.674 545.314L-717.405 545.026C-717.397 545.018 -717.39 545.009 -717.382 545.001L-717.113 544.697L-717.105 544.688L-717.096 544.677L-716.828 544.361L-716.815 544.346L-716.547 544.019L-716.538 544.009L-716.27 543.675L-715.726 542.988L-715.465 542.658L-715.46 542.652L-715.201 542.329L-714.943 542.016L-714.69 541.718L-714.442 541.438L-714.201 541.181L-713.968 540.948L-713.746 540.744L-713.538 540.57L-713.35 540.43L-713.187 540.325L-713.057 540.255L-712.966 540.217L-712.947 540.211L-712.871 540.241L-712.751 540.301L-712.597 540.396L-712.415 540.526L-712.212 540.69L-711.994 540.885L-711.764 541.11L-711.525 541.361L-711.279 541.635L-711.028 541.928L-710.771 542.237L-710.51 542.559L-710.248 542.889L-710.245 542.893L-709.71 543.569L-709.706 543.574L-709.438 543.91L-709.431 543.919L-709.162 544.248L-709.151 544.262L-708.882 544.582L-708.874 544.592L-708.867 544.6L-708.598 544.908L-708.588 544.919L-708.577 544.931L-708.308 545.224L-708.294 545.24L-708.28 545.254L-708.012 545.528L-708.001 545.539L-707.984 545.556L-707.975 545.565L-707.706 545.819C-707.121 546.374 -706.008 546.491 -705.218 546.08C-704.429 545.669 -704.264 544.886 -704.848 544.331L-705.098 544.095L-705.334 543.853L-705.577 543.588L-705.827 543.302L-706.082 542.998L-706.341 542.681L-706.602 542.354L-706.606 542.349L-707.138 541.676L-707.409 541.335L-707.415 541.328L-707.683 540.996L-707.693 540.984L-707.962 540.66L-707.976 540.643L-708.244 540.331C-708.25 540.324 -708.257 540.316 -708.263 540.309L-708.532 540.011L-708.542 540L-708.557 539.983L-708.826 539.702L-708.843 539.684L-708.859 539.668L-709.128 539.405C-709.142 539.392 -709.156 539.378 -709.171 539.364L-709.44 539.123C-709.447 539.117 -709.455 539.11 -709.462 539.104L-709.472 539.095L-709.489 539.081L-709.497 539.075L-709.766 538.857C-709.79 538.838 -709.815 538.819 -709.841 538.8L-710.109 538.608C-710.141 538.586 -710.174 538.564 -710.208 538.543L-710.477 538.378C-710.519 538.353 -710.562 538.329 -710.607 538.306L-710.875 538.17C-710.93 538.143 -710.986 538.118 -711.044 538.095L-711.313 537.989C-711.381 537.962 -711.453 537.938 -711.526 537.918L-711.795 537.843C-711.879 537.819 -711.965 537.8 -712.053 537.786L-712.321 537.743C-712.417 537.728 -712.514 537.718 -712.612 537.714L-712.88 537.702ZM-738.586 570.611V620.485H-730.72L-715.228 601.22V570.611H-738.586ZM-741.281 633.505L-729.955 644.255V698.06H-725.704V641.865L-738.611 629.614L-741.281 633.505ZM-318.633 676.771V670.384H-672.023V656.664H-318.633V650.746H-672.023V647.11H-315.217V660.3H-668.607V666.748H-315.217V680.407H-668.607V687.978H-543.95V691.615H-672.023V676.771H-318.633ZM-690.126 553.942V559.859H-650.5V573.58H-702.895V569.943H-653.916V563.495H-693.542V550.305H-662.404V553.942H-690.126ZM-0.745972 568.485H15.4316L25.7578 550.25H9.5802L2.77301 562.271L-0.745972 568.485ZM-194.015 681.985H-210.193L-198.166 666.75H-181.988L-194.015 681.985ZM-188.462 681.985H-172.285L-160.258 666.75H-176.435L-188.462 681.985ZM-150.55 681.985H-166.728L-154.701 666.75H-138.523L-150.55 681.985ZM-144.997 681.985H-128.82L-116.793 666.75H-132.971L-144.997 681.985ZM-107.089 681.985H-123.267L-111.24 666.75H-95.0625L-107.089 681.985ZM-101.533 681.985H-63.125V666.75H-89.5063L-101.533 681.985ZM-21.7421 568.485H-5.56445L4.76172 550.25H-11.4159L-18.2231 562.271L-21.7421 568.485ZM-37.875 659.559H-54.0526V655.416V647.402H-37.875V659.559ZM-53.6289 581.488V624.313H-40.1415L-23.4429 607.407V585.308H17.4651V581.485H-23.4453V581.488H-53.6289ZM-8.16016 634.696H-51.9297V636.307H-6.98035V636.084L-6.79016 636.307L14.9044 610.794L13.5344 609.182L-8.16016 634.696ZM-211.891 686.196H-64.9041V687.807H-211.891V686.196ZM-64.9064 690.809H-216.145V692.421H-64.9064V690.809ZM-221.246 695.419H-64.9061V697.03H-221.246V695.419ZM-0.716125 683.008C-0.616333 683 -0.515747 682.999 -0.415527 683.003L-0.147095 683.014C-0.0838623 683.017 -0.020874 683.022 0.041626 683.029C0.0758667 683.034 0.109924 683.038 0.143799 683.044L0.41217 683.087C0.463318 683.095 0.513855 683.105 0.563721 683.117C0.599609 683.125 0.635071 683.134 0.670166 683.143L0.938599 683.218C1.01202 683.239 1.08337 683.263 1.15222 683.29L1.42065 683.395C1.47894 683.418 1.53528 683.444 1.58954 683.471L1.85791 683.607C1.90289 683.629 1.94635 683.654 1.98804 683.679L2.25647 683.844L2.27081 683.852L2.2901 683.865L2.31012 683.878L2.32336 683.887C2.33423 683.894 2.34497 683.902 2.35559 683.909L2.62396 684.101C2.6499 684.119 2.67505 684.138 2.69928 684.158L2.96771 684.375L2.98987 684.394L3.00317 684.405L3.01611 684.416L3.02502 684.424L3.29346 684.665C3.30847 684.679 3.32306 684.692 3.33728 684.706L3.60565 684.969C3.61707 684.98 3.6283 684.991 3.63916 685.003L3.90759 685.284C3.91626 685.293 3.92474 685.302 3.93311 685.312L4.20154 685.61L4.2052 685.614L4.2207 685.632L4.48914 685.944L4.50323 685.961L4.77161 686.284L4.78149 686.296L5.04987 686.628L5.05591 686.636L5.32703 686.977L5.85925 687.65L5.86316 687.655L6.12396 687.981L6.38306 688.299L6.63782 688.603L6.88763 688.889L7.13129 689.154L7.36719 689.395L7.61658 689.632C8.20129 690.187 8.03552 690.969 7.24634 691.38C6.45715 691.791 5.34338 691.675 4.75867 691.12L4.49023 690.866C4.4776 690.854 4.46521 690.841 4.45319 690.829L4.18481 690.554L4.17126 690.54L4.15649 690.525L3.88812 690.232L3.87695 690.22L3.8667 690.208L3.59827 689.901L3.59131 689.893L3.58234 689.882L3.31396 689.563L3.30261 689.549L3.03418 689.22L3.02673 689.211L2.75836 688.875L2.75446 688.87L2.21973 688.193L2.21704 688.19L1.95435 687.86L1.69391 687.538L1.43738 687.228L1.18555 686.935L0.939453 686.662L0.700439 686.411L0.470459 686.186L0.25238 685.99L0.0499268 685.827L-0.131775 685.697L-0.286133 685.602L-0.405701 685.542L-0.482422 685.512L-0.501343 685.518L-0.591675 685.556L-0.722168 685.626L-0.885254 685.731L-1.07361 685.871L-1.28107 686.044L-1.50293 686.249L-1.73578 686.482L-1.97705 686.739L-2.22491 687.019L-2.47827 687.317L-2.73578 687.63L-2.99493 687.952L-3 687.959L-3.2616 688.289L-3.80487 688.975L-4.0733 689.309L-4.08179 689.32L-4.35022 689.647L-4.36279 689.662L-4.63123 689.978L-4.64001 689.988L-4.64862 689.998L-4.91705 690.301C-4.92468 690.31 -4.93237 690.319 -4.94031 690.327L-5.20868 690.615C-5.21869 690.625 -5.22888 690.636 -5.23932 690.646L-5.50769 690.915C-5.52075 690.928 -5.53412 690.941 -5.54779 690.954L-5.81616 691.202C-5.82452 691.21 -5.83295 691.218 -5.84149 691.225L-5.85138 691.234L-5.86865 691.248L-6.13702 691.474L-6.15454 691.488L-6.16284 691.495C-6.17688 691.506 -6.19122 691.517 -6.20581 691.528L-6.47418 691.729C-6.5033 691.75 -6.53345 691.771 -6.56464 691.791L-6.83301 691.965C-6.87122 691.99 -6.91089 692.013 -6.9519 692.036L-7.22034 692.181C-7.27014 692.208 -7.3219 692.233 -7.37549 692.256L-7.64392 692.372C-7.7077 692.4 -7.77393 692.424 -7.84222 692.446L-8.1106 692.531C-8.18964 692.556 -8.27112 692.577 -8.35449 692.594L-8.62292 692.648C-8.64948 692.653 -8.67621 692.658 -8.70306 692.662C-8.72577 692.666 -8.7486 692.67 -8.77148 692.673C-8.79578 692.676 -8.82019 692.679 -8.84467 692.682C-8.86469 692.684 -8.88477 692.686 -8.90491 692.687L-9.17334 692.709C-9.27301 692.718 -9.37354 692.72 -9.47375 692.716L-9.74213 692.706C-9.84033 692.702 -9.93799 692.693 -10.034 692.678L-10.3024 692.636C-10.3356 692.631 -10.3687 692.625 -10.4014 692.618C-10.4199 692.615 -10.4384 692.611 -10.4567 692.607C-10.4771 692.602 -10.4974 692.597 -10.5176 692.592C-10.5325 692.588 -10.5474 692.585 -10.5621 692.581L-10.8305 692.507C-10.9045 692.487 -10.9766 692.463 -11.0461 692.436L-11.3145 692.332C-11.3734 692.309 -11.4304 692.283 -11.4852 692.256L-11.7535 692.122C-11.7991 692.099 -11.843 692.074 -11.8852 692.049L-12.1536 691.886C-12.1882 691.865 -12.2217 691.843 -12.2538 691.82L-12.5222 691.629C-12.5367 691.619 -12.5509 691.608 -12.5648 691.598C-12.5762 691.589 -12.5874 691.58 -12.5984 691.572L-12.8668 691.355C-12.8868 691.339 -12.9061 691.323 -12.9249 691.306L-13.1932 691.066C-13.2084 691.053 -13.2232 691.039 -13.2375 691.025L-13.506 690.763C-13.5176 690.752 -13.5289 690.741 -13.5399 690.729L-13.8083 690.448C-13.8171 690.439 -13.8257 690.43 -13.8341 690.42L-14.1025 690.123L-14.1144 690.109L-14.1219 690.101L-14.3904 689.789L-14.4047 689.772L-14.6731 689.449L-14.683 689.437L-14.9515 689.105L-14.9577 689.097L-15.2261 688.76L-15.2289 688.756L-15.7615 688.083L-15.7653 688.078L-16.0262 687.751L-16.2854 687.433L-16.5405 687.129L-16.7905 686.842L-17.0344 686.576L-17.2707 686.333L-17.497 686.118L-17.7103 685.932L-17.9065 685.779L-18.08 685.661L-18.2236 685.578L-18.3298 685.529L-18.3766 685.512L-18.4199 685.527L-18.5244 685.576L-18.6666 685.657L-18.8389 685.774L-19.0342 685.925L-19.2469 686.109L-19.4728 686.323L-19.7087 686.565L-19.9523 686.83L-20.2021 687.116L-20.457 687.42L-20.7159 687.737L-20.9768 688.064L-20.9807 688.069L-21.5129 688.742L-21.5156 688.745L-21.7841 689.083L-21.7901 689.09L-22.0585 689.422L-22.0683 689.434L-22.3367 689.758L-22.3508 689.775L-22.6193 690.087L-22.627 690.096L-22.6384 690.109L-22.9069 690.407C-22.9152 690.416 -22.9237 690.426 -22.9324 690.435L-23.2008 690.716C-23.2117 690.728 -23.2229 690.739 -23.2343 690.75L-23.5027 691.013L-23.5162 691.026C-23.5261 691.035 -23.5362 691.044 -23.5465 691.054L-23.8149 691.295C-23.8334 691.311 -23.8525 691.327 -23.8723 691.343L-24.1407 691.561C-24.1649 691.58 -24.1901 691.599 -24.216 691.618L-24.4844 691.81C-24.4984 691.82 -24.5126 691.829 -24.527 691.839C-24.5455 691.851 -24.5643 691.863 -24.5835 691.875L-24.8519 692.04C-24.8937 692.065 -24.9371 692.089 -24.982 692.112L-25.2504 692.248C-25.3047 692.275 -25.3611 692.3 -25.4193 692.323L-25.6877 692.429C-25.7566 692.456 -25.8279 692.48 -25.9014 692.5L-26.1697 692.575C-26.2536 692.599 -26.3398 692.618 -26.4278 692.632L-26.6962 692.675C-26.7918 692.69 -26.8891 692.7 -26.9871 692.704L-27.2555 692.716C-27.3079 692.718 -27.3605 692.719 -27.413 692.718C-27.4326 692.717 -27.4523 692.717 -27.4719 692.716C-27.5 692.714 -27.5281 692.713 -27.5561 692.711L-27.8245 692.69C-27.854 692.688 -27.8835 692.685 -27.9128 692.682C-27.9471 692.678 -27.9811 692.673 -28.015 692.668C-28.0461 692.663 -28.077 692.658 -28.1077 692.652L-28.3762 692.599C-28.4601 692.583 -28.5422 692.562 -28.6219 692.537L-28.8903 692.453C-28.9592 692.432 -29.0261 692.407 -29.0906 692.379L-29.3589 692.265C-29.3804 692.256 -29.4015 692.246 -29.4224 692.236C-29.4451 692.226 -29.4675 692.215 -29.4895 692.203L-29.5158 692.19L-29.7842 692.045C-29.8097 692.032 -29.8347 692.018 -29.8591 692.003L-29.8873 691.986L-29.9045 691.975L-30.1729 691.802L-30.1853 691.794L-30.2117 691.776C-30.2205 691.77 -30.2292 691.764 -30.2377 691.758C-30.2467 691.752 -30.2556 691.746 -30.2644 691.739L-30.5328 691.54C-30.5568 691.522 -30.5799 691.504 -30.6024 691.485L-30.8707 691.261L-30.8922 691.242C-30.9029 691.233 -30.9135 691.224 -30.9238 691.214L-31.1921 690.967C-31.1996 690.96 -31.207 690.953 -31.2144 690.946L-31.2327 690.928L-31.5011 690.659L-31.5148 690.646L-31.5321 690.627L-31.8005 690.341L-31.8099 690.331L-31.824 690.315L-32.0924 690.012L-32.11 689.992L-32.3784 689.676L-32.3912 689.661L-32.6596 689.334L-32.6683 689.324L-32.9367 688.99L-32.9418 688.984L-33.7447 687.969L-34.0063 687.644L-34.2642 687.33L-34.5177 687.031L-34.7659 686.751L-35.0074 686.492L-35.2407 686.258L-35.4631 686.052L-35.6712 685.878L-35.8605 685.736L-36.0248 685.63L-36.1568 685.558L-36.249 685.519L-36.2797 685.509L-36.3704 685.523C-37.3291 685.673 -38.2792 685.248 -38.4924 684.574C-38.7056 683.9 -38.1011 683.233 -37.1423 683.083L-36.8739 683.041C-36.778 683.026 -36.6803 683.016 -36.5821 683.013L-36.3137 683.003C-36.2764 683.001 -36.239 683.001 -36.2017 683.001C-36.1387 683.001 -36.0759 683.004 -36.0133 683.009L-35.7449 683.031C-35.6495 683.039 -35.5552 683.052 -35.4629 683.071L-35.1945 683.125C-35.1602 683.132 -35.1262 683.139 -35.0927 683.148C-35.0685 683.154 -35.0447 683.16 -35.021 683.167C-34.9973 683.173 -34.9738 683.18 -34.9506 683.188L-34.6822 683.273C-34.6429 683.285 -34.6044 683.299 -34.5665 683.313C-34.5524 683.319 -34.5385 683.324 -34.5245 683.33C-34.5109 683.335 -34.4973 683.341 -34.4838 683.347L-34.2155 683.463C-34.1956 683.471 -34.176 683.48 -34.1567 683.489C-34.1238 683.505 -34.0917 683.521 -34.0603 683.538L-33.7919 683.683L-33.7728 683.694C-33.7582 683.702 -33.7438 683.71 -33.7296 683.719C-33.7103 683.73 -33.6915 683.742 -33.673 683.754L-33.4046 683.927C-33.3734 683.947 -33.3433 683.968 -33.3141 683.99L-33.0458 684.191C-33.0221 684.208 -32.9991 684.226 -32.977 684.245L-32.7086 684.47L-32.6954 684.482L-32.6808 684.494L-32.672 684.502L-32.6562 684.517L-32.3878 684.765L-32.3672 684.784L-32.3477 684.803L-32.0793 685.073L-32.0629 685.089L-32.0487 685.104L-31.7803 685.392C-31.7723 685.4 -31.7646 685.409 -31.757 685.417L-31.4886 685.721L-31.4712 685.741L-31.2028 686.057L-31.1902 686.072L-30.9218 686.399L-30.9133 686.409L-30.64 686.75L-29.8374 687.763L-29.5759 688.089L-29.3182 688.402L-29.0649 688.7L-28.817 688.98L-28.5757 689.237L-28.3429 689.47L-28.121 689.674L-27.9136 689.848L-27.7252 689.988L-27.5621 690.093L-27.4316 690.163L-27.3413 690.201L-27.3224 690.207L-27.2456 690.177L-27.1261 690.116L-26.9717 690.022L-26.79 689.892L-26.5876 689.728L-26.3695 689.533L-26.1395 689.308L-25.9005 689.057L-25.6544 688.783L-25.4026 688.49L-25.1461 688.181L-24.8857 687.859L-24.6229 687.529L-24.6202 687.525L-24.0816 686.844L-23.8132 686.508L-23.8058 686.499L-23.5374 686.17L-23.526 686.156L-23.2576 685.836L-23.2417 685.818L-22.9733 685.51C-22.9662 685.502 -22.9591 685.494 -22.9518 685.486L-22.6835 685.194C-22.6742 685.184 -22.6648 685.174 -22.6552 685.164L-22.3867 684.89C-22.3747 684.877 -22.3624 684.865 -22.3497 684.853L-22.0813 684.599C-22.0717 684.589 -22.0618 684.58 -22.0518 684.571L-22.0328 684.555L-21.7644 684.322C-21.744 684.305 -21.7228 684.287 -21.7009 684.27L-21.4325 684.062C-21.4056 684.042 -21.3778 684.022 -21.349 684.002L-21.0806 683.82C-21.0453 683.797 -21.0087 683.774 -20.9708 683.752L-20.7024 683.598C-20.6755 683.583 -20.6481 683.568 -20.6201 683.554C-20.5999 683.544 -20.5794 683.534 -20.5586 683.524L-20.2902 683.399C-20.2307 683.372 -20.1688 683.347 -20.105 683.324L-19.8365 683.23C-19.762 683.204 -19.6848 683.181 -19.6057 683.163L-19.3373 683.1C-19.2894 683.089 -19.2409 683.079 -19.1919 683.07C-19.1704 683.067 -19.1487 683.063 -19.127 683.06C-19.1064 683.057 -19.0857 683.055 -19.0649 683.052L-18.7964 683.021C-18.6981 683.009 -18.5985 683.004 -18.4988 683.004L-18.2303 683.005C-18.1307 683.005 -18.0314 683.011 -17.9332 683.023L-17.6649 683.056C-17.5729 683.067 -17.4823 683.083 -17.394 683.104L-17.1255 683.169C-17.0471 683.188 -16.9706 683.21 -16.8966 683.237L-16.6282 683.332C-16.6073 683.34 -16.5866 683.347 -16.5662 683.355C-16.5248 683.371 -16.4843 683.389 -16.4449 683.407L-16.1765 683.533C-16.1273 683.556 -16.0798 683.581 -16.0342 683.607L-15.7659 683.762C-15.7283 683.784 -15.6921 683.807 -15.6573 683.83L-15.3889 684.013C-15.3773 684.021 -15.3658 684.029 -15.3546 684.037C-15.3381 684.049 -15.3221 684.061 -15.3063 684.073L-15.038 684.282C-15.0264 684.291 -15.0151 684.3 -15.004 684.309C-14.9942 684.317 -14.9846 684.325 -14.9752 684.334L-14.7068 684.567C-14.6903 684.581 -14.6743 684.596 -14.6588 684.611L-14.3904 684.866L-14.3732 684.883L-14.3638 684.892L-14.3538 684.902L-14.0854 685.178L-14.0728 685.191L-14.0574 685.207L-13.789 685.5L-13.7778 685.513L-13.7678 685.524L-13.4995 685.832L-13.4837 685.85L-13.2153 686.17L-13.2042 686.184L-12.9357 686.514L-12.9285 686.523L-12.6562 686.863L-12.1218 687.539L-12.119 687.543L-11.8566 687.873L-11.5962 688.195L-11.3398 688.503L-11.0884 688.795L-10.8425 689.068L-10.6038 689.318L-10.3743 689.541L-10.1567 689.736L-9.95508 689.898L-9.77441 690.027L-9.62134 690.12L-9.50342 690.179L-9.43073 690.207L-9.409 690.2L-9.31689 690.16L-9.18488 690.089L-9.02051 689.983L-8.8313 689.841L-8.62311 689.666L-8.4007 689.461L-8.16748 689.227L-7.9259 688.968L-7.6778 688.688L-7.42426 688.389L-7.16644 688.075L-6.90717 687.752L-6.90222 687.746L-6.37189 687.076L-6.10181 686.735L-6.09674 686.729L-5.82837 686.395L-5.8197 686.384L-5.55127 686.058L-5.53845 686.043L-5.27008 685.727L-5.25244 685.706L-4.98407 685.404L-4.97455 685.393L-4.96051 685.378L-4.69208 685.091L-4.6803 685.079L-4.66113 685.059L-4.3927 684.791C-4.38513 684.783 -4.37744 684.776 -4.36957 684.768L-4.35217 684.752L-4.0838 684.505L-4.06964 684.492C-4.05701 684.48 -4.04401 684.469 -4.03076 684.458L-3.76233 684.234C-3.73993 684.215 -3.71674 684.197 -3.69281 684.179L-3.42444 683.98L-3.40735 683.967L-3.3952 683.959L-3.38287 683.95C-3.36652 683.939 -3.34985 683.927 -3.33289 683.917L-3.06451 683.744C-3.02594 683.719 -2.98578 683.696 -2.94421 683.673L-2.67584 683.529L-2.65045 683.516L-2.62152 683.501C-2.60498 683.493 -2.58826 683.485 -2.57135 683.477C-2.55408 683.469 -2.53662 683.461 -2.51898 683.454L-2.25061 683.339C-2.22052 683.327 -2.18988 683.314 -2.15875 683.303C-2.12323 683.29 -2.08704 683.277 -2.05029 683.266L-1.78192 683.182C-1.70227 683.157 -1.62012 683.136 -1.53619 683.12L-1.26776 683.067C-1.17499 683.049 -1.08026 683.036 -0.984497 683.029L-0.716125 683.008ZM-48.27 693.735C-45.5111 693.735 -43.2745 691.105 -43.2745 687.86C-43.2745 684.615 -45.5111 681.985 -48.27 681.985C-51.0291 681.985 -53.2656 684.615 -53.2656 687.86C-53.2656 691.105 -51.0291 693.735 -48.27 693.735ZM317.976 644.403H493.32V650.403H317.976V644.403ZM-104.074 506.052H-107.074V509.052V529.552V532.552V551.052H-196.758V557.052H-107.074V562.052H-196.758V568.052H-104.074H-101.074V565.052V557.052V554.052V535.552H-23.7197V529.552H-101.074V524.067H108.499V518.067H-101.074V512.052H-23.7197V506.052H-104.074ZM-93.8733 568.052H-36.9023V543.802H-93.8733V561.123V568.052ZM-116.25 610.313H-102.07V590.59H-116.25V600.678V610.313ZM-275.041 692.423H-232.047V644.423H-275.041V672.994H-303.704V692.423H-275.041ZM-132.461 652.083H-184.33V642.448V625.359L-160.946 596.359H-132.461V652.083ZM-74.7188 623.391H-95.0577V611.704V588.309H-195.109V582.309H-76.0659V582.485H-74.7188V623.391ZM-312.891 692.423H-525.469V686.423H-312.891V692.423ZM-119.117 637.184H-72.3501V631.184H-119.117V637.184ZM-72.3501 651.184H-119.117V645.184H-72.3501V651.184Z"
            fill="url(#paint1_linear_22605_39199)"
        />
        <path
            d="M43.4973 386.001H13.4973M13.4973 386.001L-23.5027 406.501H-58.5391V517.501M13.4973 386.001H-23.5027M37.4973 499.501H-8.00269L-27.0027 517.501H-58.5391M-58.5391 624.352V517.501M527.997 699.001H-58.5391V662.95V517.501M671.997 662.95H461.997L430.997 699.001"
            stroke="#8F8E93"
            stroke-width="2"
            stroke-linejoin="round"
        />
        <path d="M305 672.626L116.623 672.626L91.2959 649.4M91.2959 649.4L-7.70669 649.4L-57.7098 649.4L-57.347 623.414L6.54968 623.414L17.638 606.782L70.3074 606.782M91.2959 649.4L164.5 649.4" stroke="#8F8E93" stroke-width="2" />
        <path d="M-77 107H-8L16.5 119.5H45.5" stroke="#8F8E93" stroke-width="2" />
        <path d="M16.5 119.5H-23.5" stroke="#8F8E93" stroke-width="2" />
        <circle cx="47.0274" cy="8.02824" r="6" transform="rotate(-90.2602 47.0274 8.02824)" fill="black" />
        <circle cx="40.0274" cy="6.02824" r="5.5" transform="rotate(-90.2602 40.0274 6.02824)" fill="#F0EFED" stroke="black" />
        <circle cx="47.0274" cy="234.027" r="6" transform="rotate(-90.2602 47.0274 234.027)" fill="black" />
        <circle cx="40.0274" cy="232.027" r="5.5" transform="rotate(-90.2602 40.0274 232.027)" fill="#F0EFED" stroke="black" />
        <circle cx="47.0274" cy="387.027" r="6" transform="rotate(-90.2602 47.0274 387.027)" fill="black" />
        <circle cx="40.0274" cy="385.027" r="5.5" transform="rotate(-90.2602 40.0274 385.027)" fill="#F0EFED" stroke="black" />
        <circle cx="47.0274" cy="501.027" r="6" transform="rotate(-90.2602 47.0274 501.027)" fill="black" />
        <circle cx="40.0274" cy="499.027" r="5.5" transform="rotate(-90.2602 40.0274 499.027)" fill="#F0EFED" stroke="black" />
        <circle cx="47.0274" cy="121.027" r="6" transform="rotate(-90.2602 47.0274 121.027)" fill="black" />
        <circle cx="40.0274" cy="119.027" r="5.5" transform="rotate(-90.2602 40.0274 119.027)" fill="#F0EFED" stroke="black" />
    </g>
    <defs>
        <linearGradient id="paint0_linear_22605_39199" x1="1140" y1="318.059" x2="1142.35" y2="78.5662" gradientUnits="userSpaceOnUse">
            <stop stop-color="#F1EFED" />
            <stop offset="0.503125" stop-color="#A9A5A4" stop-opacity="0.07" />
            <stop offset="1" stop-color="#F1EFED" />
        </linearGradient>
        <linearGradient id="paint1_linear_22605_39199" x1="475.998" y1="698.059" x2="478.35" y2="458.566" gradientUnits="userSpaceOnUse">
            <stop stop-color="#F1EFED" />
            <stop offset="0.503125" stop-color="#A9A5A4" stop-opacity="0.07" />
            <stop offset="1" stop-color="#F1EFED" />
        </linearGradient>
        <clipPath id="clip0_22605_39199">
            <rect width="375" height="699" fill="white" />
        </clipPath>
    </defs>
</svg>
