<svg xmlns="http://www.w3.org/2000/svg" width="1681" height="439" viewBox="0 0 1681 439" fill="none">
    <path
        d="M208.533 93H151.748L135.096 123.031H76.5332V239.191M212.033 318.732H172.539M172.539 318.732H141.096M172.539 318.732V345.844H114.759M114.759 345.844H76.5332V239.191M114.759 345.844V418H172.539H607.507M879.033 93H851.033H814.033H778.997V136H793.6V188H778.997V234.5M875.033 206.5H829.533L810.533 234.5H778.997M1402.53 364L1118.27 360.051L1098.53 383H1037.53M607.507 418L636.713 438H778.997L808.203 418H829.533M607.507 418H676.533M778.997 234.5V318H793.6L829.533 318.732V350.866V360.051M1636.53 327.949H1336.53L1304.78 362.642M76.5332 239.191L126.549 238.724M150.502 238.5L126.549 238.724M126.549 238.724V205.5H212.033M851.033 418H829.533M1037.53 383V408.051H1188.53M1037.53 383H973.533M1258.53 408.051H1188.53M1188.53 408.051L1213.53 434.051H1415.53M829.533 418V383V360.051M973.533 383L953.799 360.051H829.533M973.533 383H912.533"
        stroke="#8F8E93"
        stroke-width="2"
        stroke-linejoin="round"
    />
    <path d="M886.029 88.2711C882.79 88.2564 880.152 90.87 880.138 94.1088C880.123 97.3476 882.737 99.9851 885.976 99.9998C889.214 100.015 891.852 97.4009 891.867 94.1621C891.881 90.9233 889.268 88.2858 886.029 88.2711Z" fill="black" />
    <path
        d="M873.813 91.84C873.826 88.8711 876.244 86.4753 879.213 86.4888C882.182 86.5022 884.578 88.9199 884.564 91.8889C884.551 94.8578 882.133 97.2536 879.164 97.2401C876.195 97.2267 873.799 94.8089 873.813 91.84Z"
        fill="#F0EFED"
        stroke="black"
        stroke-width="0.977408"
    />
    <path d="M885.705 201.271C882.466 201.256 879.828 203.87 879.814 207.109C879.799 210.348 882.412 212.985 885.651 213C888.89 213.015 891.528 210.401 891.542 207.162C891.557 203.923 888.943 201.286 885.705 201.271Z" fill="black" />
    <path
        d="M873.489 204.84C873.502 201.871 875.92 199.475 878.889 199.489C881.858 199.502 884.254 201.92 884.24 204.889C884.227 207.858 881.809 210.254 878.84 210.24C875.871 210.227 873.475 207.809 873.489 204.84Z"
        fill="#F0EFED"
        stroke="black"
        stroke-width="0.977408"
    />
    <path d="M220.029 88.2711C216.79 88.2564 214.152 90.87 214.138 94.1088C214.123 97.3476 216.737 99.9851 219.976 99.9998C223.214 100.015 225.852 97.4009 225.867 94.1621C225.881 90.9233 223.268 88.2858 220.029 88.2711Z" fill="black" />
    <path
        d="M207.813 91.84C207.826 88.8711 210.244 86.4753 213.213 86.4888C216.182 86.5022 218.578 88.9199 218.564 91.8889C218.551 94.8578 216.133 97.2536 213.164 97.2401C210.195 97.2267 207.799 94.8089 207.813 91.84Z"
        fill="#F0EFED"
        stroke="black"
        stroke-width="0.977408"
    />
    <path d="M219.705 201.271C216.466 201.256 213.828 203.87 213.814 207.109C213.799 210.348 216.412 212.985 219.651 213C222.89 213.015 225.528 210.401 225.542 207.162C225.557 203.923 222.943 201.286 219.705 201.271Z" fill="black" />
    <path
        d="M207.489 204.84C207.502 201.871 209.92 199.475 212.889 199.489C215.858 199.502 218.254 201.92 218.24 204.889C218.227 207.858 215.809 210.254 212.84 210.24C209.871 210.227 207.475 207.809 207.489 204.84Z"
        fill="#F0EFED"
        stroke="black"
        stroke-width="0.977408"
    />
    <path d="M219.705 314.271C216.466 314.256 213.828 316.87 213.814 320.109C213.799 323.348 216.412 325.985 219.651 326C222.89 326.015 225.528 323.401 225.542 320.162C225.557 316.923 222.943 314.286 219.705 314.271Z" fill="black" />
    <path
        d="M207.489 317.84C207.502 314.871 209.92 312.475 212.889 312.489C215.858 312.502 218.254 314.92 218.24 317.889C218.227 320.858 215.809 323.254 212.84 323.24C209.871 323.227 207.475 320.809 207.489 317.84Z"
        fill="#F0EFED"
        stroke="black"
        stroke-width="0.977408"
    />
    <path d="M86.5332 361.998H102.533V418.998H86.5332V361.998Z" fill="url(#paint0_linear_204_12043)" />
    <path d="M141.783 255.901H147.283V312.901H141.783V255.901Z" fill="url(#paint1_linear_204_12043)" />
    <path d="M172.783 255.303H178.283V312.303H172.783V255.303Z" fill="url(#paint2_linear_204_12043)" />
    <path d="M182.783 255.303H186.033V312.303H182.783V255.303Z" fill="url(#paint3_linear_204_12043)" />
    <path d="M151.533 255.901H164.533V312.901H151.533V255.901Z" fill="url(#paint4_linear_204_12043)" />
    <path d="M92.0332 321.999H108.033V340.803H92.0332V321.999Z" fill="url(#paint5_linear_204_12043)" />
    <path d="M131.283 233.803H147.283V210.999H131.283V233.803Z" fill="url(#paint6_linear_204_12043)" />
    <path d="M92.0332 288.999H116.033L127.033 272.999V244.194H92.0332V288.999Z" fill="url(#paint7_linear_204_12043)" />
    <path d="M108.033 334.999H164.533V340.803L108.033 340.803V334.999Z" fill="url(#paint8_linear_204_12043)" />
    <path d="M119.033 354.401H178.533V327.401H186.033V362.205H119.033V354.401Z" fill="url(#paint9_linear_204_12043)" />
    <path d="M119.033 365.998H178.533V338.998H186.033V373.803H119.033V365.998Z" fill="url(#paint10_linear_204_12043)" />
    <path d="M119.033 378.623H178.533V351.623H186.033V386.428H119.033V378.623Z" fill="url(#paint11_linear_204_12043)" />
    <path d="M147.283 216.249H203.783V210.999L147.283 210.999V216.249Z" fill="url(#paint12_linear_204_12043)" />
    <path d="M58.2832 207.525H114.783V202.526H58.2832V207.525Z" fill="url(#paint13_linear_204_12043)" />
    <path d="M58.2832 213.077H114.783V210.998H58.2832V213.077Z" fill="url(#paint14_linear_204_12043)" />
    <path d="M58.2832 233.803H114.783V217.725H58.2832V233.803Z" fill="url(#paint15_linear_204_12043)" />
    <path d="M160.534 400.151H175.678L162.427 412.455H147.283L160.534 400.151Z" fill="url(#paint16_linear_204_12043)" />
    <path d="M182.778 400.151H197.922L184.671 412.455H169.527L182.778 400.151Z" fill="url(#paint17_linear_204_12043)" />
    <path d="M205.02 400.151H220.164L206.913 412.455H191.77L205.02 400.151Z" fill="url(#paint18_linear_204_12043)" />
    <path d="M123.331 106.195H138.475L129.224 118.499H114.08L123.331 106.195Z" fill="url(#paint19_linear_204_12043)" />
    <path d="M162.427 109.303H147.283L156.534 96.999H171.678L162.427 109.303Z" fill="url(#paint20_linear_204_12043)" />
    <path d="M161.928 112.685H146.784L140.298 121.313H155.441L161.928 112.685Z" fill="url(#paint21_linear_204_12043)" />
    <path d="M199.596 179.373V171.27H0V150.631H199.596V141.73H2.73499V136.26H205.066V156.101H5.46998V165.8H205.066V184.843H0V179.373H199.596Z" fill="url(#paint22_linear_204_12043)" />
    <path
        d="M134.033 406.303C134.033 410.169 130.899 413.303 127.033 413.303C123.167 413.303 120.033 410.169 120.033 406.303C120.033 402.437 123.167 399.303 127.033 399.303C130.899 399.303 134.033 402.437 134.033 406.303Z"
        fill="url(#paint23_linear_204_12043)"
    />
    <path
        d="M106.033 306.999C106.033 310.865 102.899 313.999 99.0332 313.999C95.1672 313.999 92.0332 310.865 92.0332 306.999C92.0332 303.133 95.1672 299.999 99.0332 299.999C102.899 299.999 106.033 303.133 106.033 306.999Z"
        fill="url(#paint24_linear_204_12043)"
    />
    <path d="M69.7773 118.499H126.277V115.499H69.7773V118.499Z" fill="url(#paint25_linear_204_12043)" />
    <path d="M198.98 96.999H159.48V99.999H198.98V96.999Z" fill="url(#paint26_linear_204_12043)" />
    <path d="M781.533 141.999H788.533V181.999H781.533V141.999Z" fill="url(#paint27_linear_204_12043)" />
    <path d="M797.631 141.999H800.434V181.999H797.631V141.999Z" fill="url(#paint28_linear_204_12043)" />
    <path d="M838.533 366.998H845.533V406.998H838.533V366.998Z" fill="url(#paint29_linear_204_12043)" />
    <path d="M817.533 322.499H824.533V362.498H817.533V322.499Z" fill="url(#paint30_linear_204_12043)" />
    <path d="M805.033 346.998H812.033V386.998H805.033V346.998Z" fill="url(#paint31_linear_204_12043)" />
    <path d="M817.533 370.248H824.533V410.248H817.533V370.248Z" fill="url(#paint32_linear_204_12043)" />
    <path d="M1068.42 394.998H1257.93V399.998H1068.42V394.998Z" fill="url(#paint33_linear_204_12043)" />
    <path d="M1444.53 335.748H1539.67V342.748H1444.53V335.748Z" fill="url(#paint34_linear_204_12043)" />
    <path d="M1022.78 386.998H1029.78V406.998H1022.78V386.998Z" fill="url(#paint35_linear_204_12043)" />
    <path d="M1471.78 346.998H1478.78V366.998H1471.78V346.998Z" fill="url(#paint36_linear_204_12043)" />
    <path d="M1012.03 386.998H1015.53V406.998H1012.03V386.998Z" fill="url(#paint37_linear_204_12043)" />
    <path d="M1461.03 346.998H1464.53V366.998H1461.03V346.998Z" fill="url(#paint38_linear_204_12043)" />
    <path d="M995.533 386.998H1004.78V406.998H995.533V386.998Z" fill="url(#paint39_linear_204_12043)" />
    <path d="M1444.53 346.998H1453.78V366.998H1444.53V346.998Z" fill="url(#paint40_linear_204_12043)" />
    <path d="M968.033 362.498H1099.53L1086.53 377.998H981.033L968.033 362.498Z" fill="url(#paint41_linear_204_12043)" />
    <path d="M1344.03 335.748H1435.53V356.998H1324.03L1344.03 335.748Z" fill="url(#paint42_linear_204_12043)" />
    <path d="M1183.03 415.137H1070.53V436.387H1202.03L1183.03 415.137Z" fill="url(#paint43_linear_204_12043)" />
    <path d="M601.418 423.789H265.918V437.998H617.418L601.418 423.789Z" fill="url(#paint44_linear_204_12043)" />
    <path d="M1297.78 353.123H1185.28V331.873H1316.78L1297.78 353.123Z" fill="url(#paint45_linear_204_12043)" />
    <path d="M800.284 218.194H815.428L806.177 230.499H791.033L800.284 218.194Z" fill="url(#paint46_linear_204_12043)" />
    <path d="M1124.28 364.998H1139.43L1130.18 377.303H1115.03L1124.28 364.998Z" fill="url(#paint47_linear_204_12043)" />
    <path d="M1218.19 427.442H1233.34L1224.09 415.137H1208.94L1218.19 427.442Z" fill="url(#paint48_linear_204_12043)" />
    <path d="M1155.59 364.998H1170.73L1161.48 377.303H1146.34L1155.59 364.998Z" fill="url(#paint49_linear_204_12043)" />
    <path d="M1249.5 427.442H1264.64L1255.39 415.137H1240.24L1249.5 427.442Z" fill="url(#paint50_linear_204_12043)" />
    <path d="M1186.89 364.998H1202.03L1192.78 377.303H1177.64L1186.89 364.998Z" fill="url(#paint51_linear_204_12043)" />
    <path d="M1280.8 427.442H1295.94L1286.69 415.137H1271.55L1280.8 427.442Z" fill="url(#paint52_linear_204_12043)" />
    <path d="M776.282 433.914H761.138L771.389 421.61H786.533L776.282 433.914Z" fill="url(#paint53_linear_204_12043)" />
    <path d="M648.782 421.61H633.638L643.889 433.914H659.033L648.782 421.61Z" fill="url(#paint54_linear_204_12043)" />
    <path d="M1218.19 364.998H1233.34L1224.09 377.303H1208.94L1218.19 364.998Z" fill="url(#paint55_linear_204_12043)" />
    <path d="M1249.5 364.998H1264.64L1255.39 377.303H1240.24L1249.5 364.998Z" fill="url(#paint56_linear_204_12043)" />
    <path fill-rule="evenodd" clip-rule="evenodd" d="M788.533 226.499V195.999H784.533V230.499H802.033V226.499H788.533Z" fill="url(#paint57_linear_204_12043)" />
    <path fill-rule="evenodd" clip-rule="evenodd" d="M785.533 126.999V96.4988H781.533V130.999H799.033V126.999H785.533Z" fill="url(#paint58_linear_204_12043)" />
    <path d="M785.033 292.064H812.119L824.533 274.007V241.499H785.033V292.064Z" fill="url(#paint59_linear_204_12043)" />
    <path d="M793.283 116.999H820.369L832.783 110.393V98.4991H793.283V116.999Z" fill="url(#paint60_linear_204_12043)" />
    <path d="M1038.13 345.528V337.426H838.533V316.787H1038.13V307.886H786.533V302.416H1043.6V322.257H844.003V331.956H1043.6V350.998H838.533V345.528H1038.13Z" fill="url(#paint61_linear_204_12043)" />
    <path d="M1534.2 415.819V407.717H1334.6V387.078H1534.2V378.177H1334.6V372.707H1539.67V392.548H1340.07V402.247H1539.67V421.289H1334.6V415.819H1534.2Z" fill="url(#paint62_linear_204_12043)" />
    <path
        d="M806.033 201.999C806.033 205.865 802.899 208.999 799.033 208.999C795.167 208.999 792.033 205.865 792.033 201.999C792.033 198.133 795.167 194.999 799.033 194.999C802.899 194.999 806.033 198.133 806.033 201.999Z"
        fill="url(#paint63_linear_204_12043)"
    />
    <path
        d="M1057.6 396.998C1057.6 400.864 1054.47 403.998 1050.6 403.998C1046.73 403.998 1043.6 400.864 1043.6 396.998C1043.6 393.132 1046.73 389.998 1050.6 389.998C1054.47 389.998 1057.6 393.132 1057.6 396.998Z"
        fill="url(#paint64_linear_204_12043)"
    />
    <path
        d="M1516.6 357.998C1516.6 361.864 1513.47 364.998 1509.6 364.998C1505.73 364.998 1502.6 361.864 1502.6 357.998C1502.6 354.132 1505.73 350.998 1509.6 350.998C1513.47 350.998 1516.6 354.132 1516.6 357.998Z"
        fill="url(#paint65_linear_204_12043)"
    />
    <path d="M677.254 424.762H744.918V427.762H677.254V424.762Z" fill="url(#paint66_linear_204_12043)" />
    <path d="M668.033 430.914H754.139V433.914H668.033V430.914Z" fill="url(#paint67_linear_204_12043)" />
    <path d="M1416.1 295.537H1528.6V316.787H1397.1L1416.1 295.537Z" fill="url(#paint68_linear_204_12043)" />
    <path d="M1429 132.53V124.427H1628.6V87.7882H1429V78.8872H1680.6V73.4172H1423.53V93.2582H1623.13V118.957H1423.53V138H1628.6V132.53H1429Z" fill="url(#paint69_linear_204_12043)" />
    <path d="M1509.6 150.749H1516.6V190.749H1509.6V150.749Z" fill="url(#paint70_linear_204_12043)" />
    <path d="M1491.6 175.249H1498.6V215.249H1491.6V175.249Z" fill="url(#paint71_linear_204_12043)" />
    <path d="M1509.6 198.499H1516.6V238.499H1509.6V198.499Z" fill="url(#paint72_linear_204_12043)" />
    <path d="M1429 227.847H1434.5V284.847H1429V227.847Z" fill="url(#paint73_linear_204_12043)" />
    <path d="M1460 227.249H1465.5V284.249H1460V227.249Z" fill="url(#paint74_linear_204_12043)" />
    <path d="M1470 227.249H1473.25V284.249H1470V227.249Z" fill="url(#paint75_linear_204_12043)" />
    <path d="M1438.75 227.847H1451.75V284.847H1438.75V227.847Z" fill="url(#paint76_linear_204_12043)" />
    <path d="M1596.1 282.787H1483.6V250.537H1615.1L1596.1 282.787Z" fill="url(#paint77_linear_204_12043)" />
    <path
        d="M1501.6 234.249C1501.6 238.115 1498.47 241.249 1494.6 241.249C1490.73 241.249 1487.6 238.115 1487.6 234.249C1487.6 230.383 1490.73 227.249 1494.6 227.249C1498.47 227.249 1501.6 230.383 1501.6 234.249Z"
        fill="url(#paint78_linear_204_12043)"
    />
    <path d="M1457.5 202.944H1442.36L1451.61 215.249H1466.75L1457.5 202.944Z" fill="url(#paint79_linear_204_12043)" />
    <path fill-rule="evenodd" clip-rule="evenodd" d="M1469.25 211.249V180.749H1473.25V215.249H1455.75V211.249H1469.25Z" fill="url(#paint80_linear_204_12043)" />
    <path
        d="M1451.75 186.749C1451.75 190.615 1454.89 193.749 1458.75 193.749C1462.62 193.749 1465.75 190.615 1465.75 186.749C1465.75 182.883 1462.62 179.749 1458.75 179.749C1454.89 179.749 1451.75 182.883 1451.75 186.749Z"
        fill="url(#paint81_linear_204_12043)"
    />
    <path d="M1453.1 150.749H1494.6V167.787H1433.1L1453.1 150.749Z" fill="url(#paint82_linear_204_12043)" />
    <path d="M1451.61 102.248H1546.74V109.248H1451.61V102.248Z" fill="url(#paint83_linear_204_12043)" />
    <defs>
        <linearGradient id="paint0_linear_204_12043" x1="587.971" y1="534.53" x2="574.457" y2="-22.1566" gradientUnits="userSpaceOnUse">
            <stop offset="0.121234" stop-color="#F1EFED" />
            <stop offset="0.488143" stop-color="#DDDDDD" stop-opacity="0.22" />
            <stop offset="1" stop-color="#F1EFED" />
        </linearGradient>
        <linearGradient id="paint1_linear_204_12043" x1="587.971" y1="534.53" x2="574.457" y2="-22.1566" gradientUnits="userSpaceOnUse">
            <stop offset="0.121234" stop-color="#F1EFED" />
            <stop offset="0.488143" stop-color="#DDDDDD" stop-opacity="0.22" />
            <stop offset="1" stop-color="#F1EFED" />
        </linearGradient>
        <linearGradient id="paint2_linear_204_12043" x1="587.971" y1="534.53" x2="574.457" y2="-22.1566" gradientUnits="userSpaceOnUse">
            <stop offset="0.121234" stop-color="#F1EFED" />
            <stop offset="0.488143" stop-color="#DDDDDD" stop-opacity="0.22" />
            <stop offset="1" stop-color="#F1EFED" />
        </linearGradient>
        <linearGradient id="paint3_linear_204_12043" x1="587.971" y1="534.53" x2="574.457" y2="-22.1566" gradientUnits="userSpaceOnUse">
            <stop offset="0.121234" stop-color="#F1EFED" />
            <stop offset="0.488143" stop-color="#DDDDDD" stop-opacity="0.22" />
            <stop offset="1" stop-color="#F1EFED" />
        </linearGradient>
        <linearGradient id="paint4_linear_204_12043" x1="587.971" y1="534.53" x2="574.457" y2="-22.1566" gradientUnits="userSpaceOnUse">
            <stop offset="0.121234" stop-color="#F1EFED" />
            <stop offset="0.488143" stop-color="#DDDDDD" stop-opacity="0.22" />
            <stop offset="1" stop-color="#F1EFED" />
        </linearGradient>
        <linearGradient id="paint5_linear_204_12043" x1="587.971" y1="534.53" x2="574.457" y2="-22.1566" gradientUnits="userSpaceOnUse">
            <stop offset="0.121234" stop-color="#F1EFED" />
            <stop offset="0.488143" stop-color="#DDDDDD" stop-opacity="0.22" />
            <stop offset="1" stop-color="#F1EFED" />
        </linearGradient>
        <linearGradient id="paint6_linear_204_12043" x1="587.971" y1="534.53" x2="574.457" y2="-22.1566" gradientUnits="userSpaceOnUse">
            <stop offset="0.121234" stop-color="#F1EFED" />
            <stop offset="0.488143" stop-color="#DDDDDD" stop-opacity="0.22" />
            <stop offset="1" stop-color="#F1EFED" />
        </linearGradient>
        <linearGradient id="paint7_linear_204_12043" x1="587.971" y1="534.53" x2="574.457" y2="-22.1566" gradientUnits="userSpaceOnUse">
            <stop offset="0.121234" stop-color="#F1EFED" />
            <stop offset="0.488143" stop-color="#DDDDDD" stop-opacity="0.22" />
            <stop offset="1" stop-color="#F1EFED" />
        </linearGradient>
        <linearGradient id="paint8_linear_204_12043" x1="587.971" y1="534.53" x2="574.457" y2="-22.1566" gradientUnits="userSpaceOnUse">
            <stop offset="0.121234" stop-color="#F1EFED" />
            <stop offset="0.488143" stop-color="#DDDDDD" stop-opacity="0.22" />
            <stop offset="1" stop-color="#F1EFED" />
        </linearGradient>
        <linearGradient id="paint9_linear_204_12043" x1="587.971" y1="534.53" x2="574.457" y2="-22.1566" gradientUnits="userSpaceOnUse">
            <stop offset="0.121234" stop-color="#F1EFED" />
            <stop offset="0.488143" stop-color="#DDDDDD" stop-opacity="0.22" />
            <stop offset="1" stop-color="#F1EFED" />
        </linearGradient>
        <linearGradient id="paint10_linear_204_12043" x1="587.971" y1="534.53" x2="574.457" y2="-22.1566" gradientUnits="userSpaceOnUse">
            <stop offset="0.121234" stop-color="#F1EFED" />
            <stop offset="0.488143" stop-color="#DDDDDD" stop-opacity="0.22" />
            <stop offset="1" stop-color="#F1EFED" />
        </linearGradient>
        <linearGradient id="paint11_linear_204_12043" x1="587.971" y1="534.53" x2="574.457" y2="-22.1566" gradientUnits="userSpaceOnUse">
            <stop offset="0.121234" stop-color="#F1EFED" />
            <stop offset="0.488143" stop-color="#DDDDDD" stop-opacity="0.22" />
            <stop offset="1" stop-color="#F1EFED" />
        </linearGradient>
        <linearGradient id="paint12_linear_204_12043" x1="587.971" y1="534.53" x2="574.457" y2="-22.1566" gradientUnits="userSpaceOnUse">
            <stop offset="0.121234" stop-color="#F1EFED" />
            <stop offset="0.488143" stop-color="#DDDDDD" stop-opacity="0.22" />
            <stop offset="1" stop-color="#F1EFED" />
        </linearGradient>
        <linearGradient id="paint13_linear_204_12043" x1="587.971" y1="534.53" x2="574.457" y2="-22.1566" gradientUnits="userSpaceOnUse">
            <stop offset="0.121234" stop-color="#F1EFED" />
            <stop offset="0.488143" stop-color="#DDDDDD" stop-opacity="0.22" />
            <stop offset="1" stop-color="#F1EFED" />
        </linearGradient>
        <linearGradient id="paint14_linear_204_12043" x1="587.971" y1="534.53" x2="574.457" y2="-22.1566" gradientUnits="userSpaceOnUse">
            <stop offset="0.121234" stop-color="#F1EFED" />
            <stop offset="0.488143" stop-color="#DDDDDD" stop-opacity="0.22" />
            <stop offset="1" stop-color="#F1EFED" />
        </linearGradient>
        <linearGradient id="paint15_linear_204_12043" x1="587.971" y1="534.53" x2="574.457" y2="-22.1566" gradientUnits="userSpaceOnUse">
            <stop offset="0.121234" stop-color="#F1EFED" />
            <stop offset="0.488143" stop-color="#DDDDDD" stop-opacity="0.22" />
            <stop offset="1" stop-color="#F1EFED" />
        </linearGradient>
        <linearGradient id="paint16_linear_204_12043" x1="587.971" y1="534.53" x2="574.457" y2="-22.1566" gradientUnits="userSpaceOnUse">
            <stop offset="0.121234" stop-color="#F1EFED" />
            <stop offset="0.488143" stop-color="#DDDDDD" stop-opacity="0.22" />
            <stop offset="1" stop-color="#F1EFED" />
        </linearGradient>
        <linearGradient id="paint17_linear_204_12043" x1="587.971" y1="534.53" x2="574.457" y2="-22.1566" gradientUnits="userSpaceOnUse">
            <stop offset="0.121234" stop-color="#F1EFED" />
            <stop offset="0.488143" stop-color="#DDDDDD" stop-opacity="0.22" />
            <stop offset="1" stop-color="#F1EFED" />
        </linearGradient>
        <linearGradient id="paint18_linear_204_12043" x1="587.971" y1="534.53" x2="574.457" y2="-22.1566" gradientUnits="userSpaceOnUse">
            <stop offset="0.121234" stop-color="#F1EFED" />
            <stop offset="0.488143" stop-color="#DDDDDD" stop-opacity="0.22" />
            <stop offset="1" stop-color="#F1EFED" />
        </linearGradient>
        <linearGradient id="paint19_linear_204_12043" x1="587.971" y1="534.53" x2="574.457" y2="-22.1566" gradientUnits="userSpaceOnUse">
            <stop offset="0.121234" stop-color="#F1EFED" />
            <stop offset="0.488143" stop-color="#DDDDDD" stop-opacity="0.22" />
            <stop offset="1" stop-color="#F1EFED" />
        </linearGradient>
        <linearGradient id="paint20_linear_204_12043" x1="587.971" y1="534.53" x2="574.457" y2="-22.1566" gradientUnits="userSpaceOnUse">
            <stop offset="0.121234" stop-color="#F1EFED" />
            <stop offset="0.488143" stop-color="#DDDDDD" stop-opacity="0.22" />
            <stop offset="1" stop-color="#F1EFED" />
        </linearGradient>
        <linearGradient id="paint21_linear_204_12043" x1="587.971" y1="534.53" x2="574.457" y2="-22.1566" gradientUnits="userSpaceOnUse">
            <stop offset="0.121234" stop-color="#F1EFED" />
            <stop offset="0.488143" stop-color="#DDDDDD" stop-opacity="0.22" />
            <stop offset="1" stop-color="#F1EFED" />
        </linearGradient>
        <linearGradient id="paint22_linear_204_12043" x1="587.971" y1="534.53" x2="574.457" y2="-22.1566" gradientUnits="userSpaceOnUse">
            <stop offset="0.121234" stop-color="#F1EFED" />
            <stop offset="0.488143" stop-color="#DDDDDD" stop-opacity="0.22" />
            <stop offset="1" stop-color="#F1EFED" />
        </linearGradient>
        <linearGradient id="paint23_linear_204_12043" x1="587.971" y1="534.53" x2="574.457" y2="-22.1566" gradientUnits="userSpaceOnUse">
            <stop offset="0.121234" stop-color="#F1EFED" />
            <stop offset="0.488143" stop-color="#DDDDDD" stop-opacity="0.22" />
            <stop offset="1" stop-color="#F1EFED" />
        </linearGradient>
        <linearGradient id="paint24_linear_204_12043" x1="587.971" y1="534.53" x2="574.457" y2="-22.1566" gradientUnits="userSpaceOnUse">
            <stop offset="0.121234" stop-color="#F1EFED" />
            <stop offset="0.488143" stop-color="#DDDDDD" stop-opacity="0.22" />
            <stop offset="1" stop-color="#F1EFED" />
        </linearGradient>
        <linearGradient id="paint25_linear_204_12043" x1="587.971" y1="534.53" x2="574.457" y2="-22.1566" gradientUnits="userSpaceOnUse">
            <stop offset="0.121234" stop-color="#F1EFED" />
            <stop offset="0.488143" stop-color="#DDDDDD" stop-opacity="0.22" />
            <stop offset="1" stop-color="#F1EFED" />
        </linearGradient>
        <linearGradient id="paint26_linear_204_12043" x1="587.971" y1="534.53" x2="574.457" y2="-22.1566" gradientUnits="userSpaceOnUse">
            <stop offset="0.121234" stop-color="#F1EFED" />
            <stop offset="0.488143" stop-color="#DDDDDD" stop-opacity="0.22" />
            <stop offset="1" stop-color="#F1EFED" />
        </linearGradient>
        <linearGradient id="paint27_linear_204_12043" x1="587.971" y1="534.53" x2="574.457" y2="-22.1566" gradientUnits="userSpaceOnUse">
            <stop offset="0.121234" stop-color="#F1EFED" />
            <stop offset="0.488143" stop-color="#DDDDDD" stop-opacity="0.22" />
            <stop offset="1" stop-color="#F1EFED" />
        </linearGradient>
        <linearGradient id="paint28_linear_204_12043" x1="587.971" y1="534.53" x2="574.457" y2="-22.1566" gradientUnits="userSpaceOnUse">
            <stop offset="0.121234" stop-color="#F1EFED" />
            <stop offset="0.488143" stop-color="#DDDDDD" stop-opacity="0.22" />
            <stop offset="1" stop-color="#F1EFED" />
        </linearGradient>
        <linearGradient id="paint29_linear_204_12043" x1="587.971" y1="534.53" x2="574.457" y2="-22.1566" gradientUnits="userSpaceOnUse">
            <stop offset="0.121234" stop-color="#F1EFED" />
            <stop offset="0.488143" stop-color="#DDDDDD" stop-opacity="0.22" />
            <stop offset="1" stop-color="#F1EFED" />
        </linearGradient>
        <linearGradient id="paint30_linear_204_12043" x1="587.971" y1="534.53" x2="574.457" y2="-22.1566" gradientUnits="userSpaceOnUse">
            <stop offset="0.121234" stop-color="#F1EFED" />
            <stop offset="0.488143" stop-color="#DDDDDD" stop-opacity="0.22" />
            <stop offset="1" stop-color="#F1EFED" />
        </linearGradient>
        <linearGradient id="paint31_linear_204_12043" x1="587.971" y1="534.53" x2="574.457" y2="-22.1566" gradientUnits="userSpaceOnUse">
            <stop offset="0.121234" stop-color="#F1EFED" />
            <stop offset="0.488143" stop-color="#DDDDDD" stop-opacity="0.22" />
            <stop offset="1" stop-color="#F1EFED" />
        </linearGradient>
        <linearGradient id="paint32_linear_204_12043" x1="587.971" y1="534.53" x2="574.457" y2="-22.1566" gradientUnits="userSpaceOnUse">
            <stop offset="0.121234" stop-color="#F1EFED" />
            <stop offset="0.488143" stop-color="#DDDDDD" stop-opacity="0.22" />
            <stop offset="1" stop-color="#F1EFED" />
        </linearGradient>
        <linearGradient id="paint33_linear_204_12043" x1="587.971" y1="534.53" x2="574.457" y2="-22.1566" gradientUnits="userSpaceOnUse">
            <stop offset="0.121234" stop-color="#F1EFED" />
            <stop offset="0.488143" stop-color="#DDDDDD" stop-opacity="0.22" />
            <stop offset="1" stop-color="#F1EFED" />
        </linearGradient>
        <linearGradient id="paint34_linear_204_12043" x1="587.971" y1="534.53" x2="574.457" y2="-22.1566" gradientUnits="userSpaceOnUse">
            <stop offset="0.121234" stop-color="#F1EFED" />
            <stop offset="0.488143" stop-color="#DDDDDD" stop-opacity="0.22" />
            <stop offset="1" stop-color="#F1EFED" />
        </linearGradient>
        <linearGradient id="paint35_linear_204_12043" x1="587.971" y1="534.53" x2="574.457" y2="-22.1566" gradientUnits="userSpaceOnUse">
            <stop offset="0.121234" stop-color="#F1EFED" />
            <stop offset="0.488143" stop-color="#DDDDDD" stop-opacity="0.22" />
            <stop offset="1" stop-color="#F1EFED" />
        </linearGradient>
        <linearGradient id="paint36_linear_204_12043" x1="587.971" y1="534.53" x2="574.457" y2="-22.1566" gradientUnits="userSpaceOnUse">
            <stop offset="0.121234" stop-color="#F1EFED" />
            <stop offset="0.488143" stop-color="#DDDDDD" stop-opacity="0.22" />
            <stop offset="1" stop-color="#F1EFED" />
        </linearGradient>
        <linearGradient id="paint37_linear_204_12043" x1="587.971" y1="534.53" x2="574.457" y2="-22.1566" gradientUnits="userSpaceOnUse">
            <stop offset="0.121234" stop-color="#F1EFED" />
            <stop offset="0.488143" stop-color="#DDDDDD" stop-opacity="0.22" />
            <stop offset="1" stop-color="#F1EFED" />
        </linearGradient>
        <linearGradient id="paint38_linear_204_12043" x1="587.971" y1="534.53" x2="574.457" y2="-22.1566" gradientUnits="userSpaceOnUse">
            <stop offset="0.121234" stop-color="#F1EFED" />
            <stop offset="0.488143" stop-color="#DDDDDD" stop-opacity="0.22" />
            <stop offset="1" stop-color="#F1EFED" />
        </linearGradient>
        <linearGradient id="paint39_linear_204_12043" x1="587.971" y1="534.53" x2="574.457" y2="-22.1566" gradientUnits="userSpaceOnUse">
            <stop offset="0.121234" stop-color="#F1EFED" />
            <stop offset="0.488143" stop-color="#DDDDDD" stop-opacity="0.22" />
            <stop offset="1" stop-color="#F1EFED" />
        </linearGradient>
        <linearGradient id="paint40_linear_204_12043" x1="587.971" y1="534.53" x2="574.457" y2="-22.1566" gradientUnits="userSpaceOnUse">
            <stop offset="0.121234" stop-color="#F1EFED" />
            <stop offset="0.488143" stop-color="#DDDDDD" stop-opacity="0.22" />
            <stop offset="1" stop-color="#F1EFED" />
        </linearGradient>
        <linearGradient id="paint41_linear_204_12043" x1="587.971" y1="534.53" x2="574.457" y2="-22.1566" gradientUnits="userSpaceOnUse">
            <stop offset="0.121234" stop-color="#F1EFED" />
            <stop offset="0.488143" stop-color="#DDDDDD" stop-opacity="0.22" />
            <stop offset="1" stop-color="#F1EFED" />
        </linearGradient>
        <linearGradient id="paint42_linear_204_12043" x1="587.971" y1="534.53" x2="574.457" y2="-22.1566" gradientUnits="userSpaceOnUse">
            <stop offset="0.121234" stop-color="#F1EFED" />
            <stop offset="0.488143" stop-color="#DDDDDD" stop-opacity="0.22" />
            <stop offset="1" stop-color="#F1EFED" />
        </linearGradient>
        <linearGradient id="paint43_linear_204_12043" x1="587.971" y1="534.53" x2="574.457" y2="-22.1566" gradientUnits="userSpaceOnUse">
            <stop offset="0.121234" stop-color="#F1EFED" />
            <stop offset="0.488143" stop-color="#DDDDDD" stop-opacity="0.22" />
            <stop offset="1" stop-color="#F1EFED" />
        </linearGradient>
        <linearGradient id="paint44_linear_204_12043" x1="587.971" y1="534.53" x2="574.457" y2="-22.1566" gradientUnits="userSpaceOnUse">
            <stop offset="0.121234" stop-color="#F1EFED" />
            <stop offset="0.488143" stop-color="#DDDDDD" stop-opacity="0.22" />
            <stop offset="1" stop-color="#F1EFED" />
        </linearGradient>
        <linearGradient id="paint45_linear_204_12043" x1="587.971" y1="534.53" x2="574.457" y2="-22.1566" gradientUnits="userSpaceOnUse">
            <stop offset="0.121234" stop-color="#F1EFED" />
            <stop offset="0.488143" stop-color="#DDDDDD" stop-opacity="0.22" />
            <stop offset="1" stop-color="#F1EFED" />
        </linearGradient>
        <linearGradient id="paint46_linear_204_12043" x1="587.971" y1="534.53" x2="574.457" y2="-22.1566" gradientUnits="userSpaceOnUse">
            <stop offset="0.121234" stop-color="#F1EFED" />
            <stop offset="0.488143" stop-color="#DDDDDD" stop-opacity="0.22" />
            <stop offset="1" stop-color="#F1EFED" />
        </linearGradient>
        <linearGradient id="paint47_linear_204_12043" x1="587.971" y1="534.53" x2="574.457" y2="-22.1566" gradientUnits="userSpaceOnUse">
            <stop offset="0.121234" stop-color="#F1EFED" />
            <stop offset="0.488143" stop-color="#DDDDDD" stop-opacity="0.22" />
            <stop offset="1" stop-color="#F1EFED" />
        </linearGradient>
        <linearGradient id="paint48_linear_204_12043" x1="587.971" y1="534.53" x2="574.457" y2="-22.1566" gradientUnits="userSpaceOnUse">
            <stop offset="0.121234" stop-color="#F1EFED" />
            <stop offset="0.488143" stop-color="#DDDDDD" stop-opacity="0.22" />
            <stop offset="1" stop-color="#F1EFED" />
        </linearGradient>
        <linearGradient id="paint49_linear_204_12043" x1="587.971" y1="534.53" x2="574.457" y2="-22.1566" gradientUnits="userSpaceOnUse">
            <stop offset="0.121234" stop-color="#F1EFED" />
            <stop offset="0.488143" stop-color="#DDDDDD" stop-opacity="0.22" />
            <stop offset="1" stop-color="#F1EFED" />
        </linearGradient>
        <linearGradient id="paint50_linear_204_12043" x1="587.971" y1="534.53" x2="574.457" y2="-22.1566" gradientUnits="userSpaceOnUse">
            <stop offset="0.121234" stop-color="#F1EFED" />
            <stop offset="0.488143" stop-color="#DDDDDD" stop-opacity="0.22" />
            <stop offset="1" stop-color="#F1EFED" />
        </linearGradient>
        <linearGradient id="paint51_linear_204_12043" x1="587.971" y1="534.53" x2="574.457" y2="-22.1566" gradientUnits="userSpaceOnUse">
            <stop offset="0.121234" stop-color="#F1EFED" />
            <stop offset="0.488143" stop-color="#DDDDDD" stop-opacity="0.22" />
            <stop offset="1" stop-color="#F1EFED" />
        </linearGradient>
        <linearGradient id="paint52_linear_204_12043" x1="587.971" y1="534.53" x2="574.457" y2="-22.1566" gradientUnits="userSpaceOnUse">
            <stop offset="0.121234" stop-color="#F1EFED" />
            <stop offset="0.488143" stop-color="#DDDDDD" stop-opacity="0.22" />
            <stop offset="1" stop-color="#F1EFED" />
        </linearGradient>
        <linearGradient id="paint53_linear_204_12043" x1="587.971" y1="534.53" x2="574.457" y2="-22.1566" gradientUnits="userSpaceOnUse">
            <stop offset="0.121234" stop-color="#F1EFED" />
            <stop offset="0.488143" stop-color="#DDDDDD" stop-opacity="0.22" />
            <stop offset="1" stop-color="#F1EFED" />
        </linearGradient>
        <linearGradient id="paint54_linear_204_12043" x1="587.971" y1="534.53" x2="574.457" y2="-22.1566" gradientUnits="userSpaceOnUse">
            <stop offset="0.121234" stop-color="#F1EFED" />
            <stop offset="0.488143" stop-color="#DDDDDD" stop-opacity="0.22" />
            <stop offset="1" stop-color="#F1EFED" />
        </linearGradient>
        <linearGradient id="paint55_linear_204_12043" x1="587.971" y1="534.53" x2="574.457" y2="-22.1566" gradientUnits="userSpaceOnUse">
            <stop offset="0.121234" stop-color="#F1EFED" />
            <stop offset="0.488143" stop-color="#DDDDDD" stop-opacity="0.22" />
            <stop offset="1" stop-color="#F1EFED" />
        </linearGradient>
        <linearGradient id="paint56_linear_204_12043" x1="587.971" y1="534.53" x2="574.457" y2="-22.1566" gradientUnits="userSpaceOnUse">
            <stop offset="0.121234" stop-color="#F1EFED" />
            <stop offset="0.488143" stop-color="#DDDDDD" stop-opacity="0.22" />
            <stop offset="1" stop-color="#F1EFED" />
        </linearGradient>
        <linearGradient id="paint57_linear_204_12043" x1="587.971" y1="534.53" x2="574.457" y2="-22.1566" gradientUnits="userSpaceOnUse">
            <stop offset="0.121234" stop-color="#F1EFED" />
            <stop offset="0.488143" stop-color="#DDDDDD" stop-opacity="0.22" />
            <stop offset="1" stop-color="#F1EFED" />
        </linearGradient>
        <linearGradient id="paint58_linear_204_12043" x1="587.971" y1="534.53" x2="574.457" y2="-22.1566" gradientUnits="userSpaceOnUse">
            <stop offset="0.121234" stop-color="#F1EFED" />
            <stop offset="0.488143" stop-color="#DDDDDD" stop-opacity="0.22" />
            <stop offset="1" stop-color="#F1EFED" />
        </linearGradient>
        <linearGradient id="paint59_linear_204_12043" x1="587.971" y1="534.53" x2="574.457" y2="-22.1566" gradientUnits="userSpaceOnUse">
            <stop offset="0.121234" stop-color="#F1EFED" />
            <stop offset="0.488143" stop-color="#DDDDDD" stop-opacity="0.22" />
            <stop offset="1" stop-color="#F1EFED" />
        </linearGradient>
        <linearGradient id="paint60_linear_204_12043" x1="587.971" y1="534.53" x2="574.457" y2="-22.1566" gradientUnits="userSpaceOnUse">
            <stop offset="0.121234" stop-color="#F1EFED" />
            <stop offset="0.488143" stop-color="#DDDDDD" stop-opacity="0.22" />
            <stop offset="1" stop-color="#F1EFED" />
        </linearGradient>
        <linearGradient id="paint61_linear_204_12043" x1="587.971" y1="534.53" x2="574.457" y2="-22.1566" gradientUnits="userSpaceOnUse">
            <stop offset="0.121234" stop-color="#F1EFED" />
            <stop offset="0.488143" stop-color="#DDDDDD" stop-opacity="0.22" />
            <stop offset="1" stop-color="#F1EFED" />
        </linearGradient>
        <linearGradient id="paint62_linear_204_12043" x1="587.971" y1="534.53" x2="574.457" y2="-22.1566" gradientUnits="userSpaceOnUse">
            <stop offset="0.121234" stop-color="#F1EFED" />
            <stop offset="0.488143" stop-color="#DDDDDD" stop-opacity="0.22" />
            <stop offset="1" stop-color="#F1EFED" />
        </linearGradient>
        <linearGradient id="paint63_linear_204_12043" x1="587.971" y1="534.53" x2="574.457" y2="-22.1566" gradientUnits="userSpaceOnUse">
            <stop offset="0.121234" stop-color="#F1EFED" />
            <stop offset="0.488143" stop-color="#DDDDDD" stop-opacity="0.22" />
            <stop offset="1" stop-color="#F1EFED" />
        </linearGradient>
        <linearGradient id="paint64_linear_204_12043" x1="587.971" y1="534.53" x2="574.457" y2="-22.1566" gradientUnits="userSpaceOnUse">
            <stop offset="0.121234" stop-color="#F1EFED" />
            <stop offset="0.488143" stop-color="#DDDDDD" stop-opacity="0.22" />
            <stop offset="1" stop-color="#F1EFED" />
        </linearGradient>
        <linearGradient id="paint65_linear_204_12043" x1="587.971" y1="534.53" x2="574.457" y2="-22.1566" gradientUnits="userSpaceOnUse">
            <stop offset="0.121234" stop-color="#F1EFED" />
            <stop offset="0.488143" stop-color="#DDDDDD" stop-opacity="0.22" />
            <stop offset="1" stop-color="#F1EFED" />
        </linearGradient>
        <linearGradient id="paint66_linear_204_12043" x1="587.971" y1="534.53" x2="574.457" y2="-22.1566" gradientUnits="userSpaceOnUse">
            <stop offset="0.121234" stop-color="#F1EFED" />
            <stop offset="0.488143" stop-color="#DDDDDD" stop-opacity="0.22" />
            <stop offset="1" stop-color="#F1EFED" />
        </linearGradient>
        <linearGradient id="paint67_linear_204_12043" x1="587.971" y1="534.53" x2="574.457" y2="-22.1566" gradientUnits="userSpaceOnUse">
            <stop offset="0.121234" stop-color="#F1EFED" />
            <stop offset="0.488143" stop-color="#DDDDDD" stop-opacity="0.22" />
            <stop offset="1" stop-color="#F1EFED" />
        </linearGradient>
        <linearGradient id="paint68_linear_204_12043" x1="587.971" y1="534.53" x2="574.457" y2="-22.1566" gradientUnits="userSpaceOnUse">
            <stop offset="0.121234" stop-color="#F1EFED" />
            <stop offset="0.488143" stop-color="#DDDDDD" stop-opacity="0.22" />
            <stop offset="1" stop-color="#F1EFED" />
        </linearGradient>
        <linearGradient id="paint69_linear_204_12043" x1="587.971" y1="534.53" x2="574.457" y2="-22.1566" gradientUnits="userSpaceOnUse">
            <stop offset="0.121234" stop-color="#F1EFED" />
            <stop offset="0.488143" stop-color="#DDDDDD" stop-opacity="0.22" />
            <stop offset="1" stop-color="#F1EFED" />
        </linearGradient>
        <linearGradient id="paint70_linear_204_12043" x1="587.971" y1="534.53" x2="574.457" y2="-22.1566" gradientUnits="userSpaceOnUse">
            <stop offset="0.121234" stop-color="#F1EFED" />
            <stop offset="0.488143" stop-color="#DDDDDD" stop-opacity="0.22" />
            <stop offset="1" stop-color="#F1EFED" />
        </linearGradient>
        <linearGradient id="paint71_linear_204_12043" x1="587.971" y1="534.53" x2="574.457" y2="-22.1566" gradientUnits="userSpaceOnUse">
            <stop offset="0.121234" stop-color="#F1EFED" />
            <stop offset="0.488143" stop-color="#DDDDDD" stop-opacity="0.22" />
            <stop offset="1" stop-color="#F1EFED" />
        </linearGradient>
        <linearGradient id="paint72_linear_204_12043" x1="587.971" y1="534.53" x2="574.457" y2="-22.1566" gradientUnits="userSpaceOnUse">
            <stop offset="0.121234" stop-color="#F1EFED" />
            <stop offset="0.488143" stop-color="#DDDDDD" stop-opacity="0.22" />
            <stop offset="1" stop-color="#F1EFED" />
        </linearGradient>
        <linearGradient id="paint73_linear_204_12043" x1="587.971" y1="534.53" x2="574.457" y2="-22.1566" gradientUnits="userSpaceOnUse">
            <stop offset="0.121234" stop-color="#F1EFED" />
            <stop offset="0.488143" stop-color="#DDDDDD" stop-opacity="0.22" />
            <stop offset="1" stop-color="#F1EFED" />
        </linearGradient>
        <linearGradient id="paint74_linear_204_12043" x1="587.971" y1="534.53" x2="574.457" y2="-22.1566" gradientUnits="userSpaceOnUse">
            <stop offset="0.121234" stop-color="#F1EFED" />
            <stop offset="0.488143" stop-color="#DDDDDD" stop-opacity="0.22" />
            <stop offset="1" stop-color="#F1EFED" />
        </linearGradient>
        <linearGradient id="paint75_linear_204_12043" x1="587.971" y1="534.53" x2="574.457" y2="-22.1566" gradientUnits="userSpaceOnUse">
            <stop offset="0.121234" stop-color="#F1EFED" />
            <stop offset="0.488143" stop-color="#DDDDDD" stop-opacity="0.22" />
            <stop offset="1" stop-color="#F1EFED" />
        </linearGradient>
        <linearGradient id="paint76_linear_204_12043" x1="587.971" y1="534.53" x2="574.457" y2="-22.1566" gradientUnits="userSpaceOnUse">
            <stop offset="0.121234" stop-color="#F1EFED" />
            <stop offset="0.488143" stop-color="#DDDDDD" stop-opacity="0.22" />
            <stop offset="1" stop-color="#F1EFED" />
        </linearGradient>
        <linearGradient id="paint77_linear_204_12043" x1="587.971" y1="534.53" x2="574.457" y2="-22.1566" gradientUnits="userSpaceOnUse">
            <stop offset="0.121234" stop-color="#F1EFED" />
            <stop offset="0.488143" stop-color="#DDDDDD" stop-opacity="0.22" />
            <stop offset="1" stop-color="#F1EFED" />
        </linearGradient>
        <linearGradient id="paint78_linear_204_12043" x1="587.971" y1="534.53" x2="574.457" y2="-22.1566" gradientUnits="userSpaceOnUse">
            <stop offset="0.121234" stop-color="#F1EFED" />
            <stop offset="0.488143" stop-color="#DDDDDD" stop-opacity="0.22" />
            <stop offset="1" stop-color="#F1EFED" />
        </linearGradient>
        <linearGradient id="paint79_linear_204_12043" x1="587.971" y1="534.53" x2="574.457" y2="-22.1566" gradientUnits="userSpaceOnUse">
            <stop offset="0.121234" stop-color="#F1EFED" />
            <stop offset="0.488143" stop-color="#DDDDDD" stop-opacity="0.22" />
            <stop offset="1" stop-color="#F1EFED" />
        </linearGradient>
        <linearGradient id="paint80_linear_204_12043" x1="587.971" y1="534.53" x2="574.457" y2="-22.1566" gradientUnits="userSpaceOnUse">
            <stop offset="0.121234" stop-color="#F1EFED" />
            <stop offset="0.488143" stop-color="#DDDDDD" stop-opacity="0.22" />
            <stop offset="1" stop-color="#F1EFED" />
        </linearGradient>
        <linearGradient id="paint81_linear_204_12043" x1="587.971" y1="534.53" x2="574.457" y2="-22.1566" gradientUnits="userSpaceOnUse">
            <stop offset="0.121234" stop-color="#F1EFED" />
            <stop offset="0.488143" stop-color="#DDDDDD" stop-opacity="0.22" />
            <stop offset="1" stop-color="#F1EFED" />
        </linearGradient>
        <linearGradient id="paint82_linear_204_12043" x1="587.971" y1="534.53" x2="574.457" y2="-22.1566" gradientUnits="userSpaceOnUse">
            <stop offset="0.121234" stop-color="#F1EFED" />
            <stop offset="0.488143" stop-color="#DDDDDD" stop-opacity="0.22" />
            <stop offset="1" stop-color="#F1EFED" />
        </linearGradient>
        <linearGradient id="paint83_linear_204_12043" x1="587.971" y1="534.53" x2="574.457" y2="-22.1566" gradientUnits="userSpaceOnUse">
            <stop offset="0.121234" stop-color="#F1EFED" />
            <stop offset="0.488143" stop-color="#DDDDDD" stop-opacity="0.22" />
            <stop offset="1" stop-color="#F1EFED" />
        </linearGradient>
    </defs>
</svg>
