<svg width="26" height="25" viewBox="0 0 26 25" fill="none" xmlns="http://www.w3.org/2000/svg">
<mask id="path-1-inside-1_4481_7050" fill="white">
<path d="M24.9362 9.56404C25.2724 9.31786 25.0983 8.78522 24.6816 8.78522L16.8328 8.78522L9.41641 14.2148L6.99168 21.7344C6.86344 22.1321 7.31937 22.4613 7.65654 22.2145L13.7454 17.7568C13.897 17.6459 14.103 17.6459 14.2546 17.7568L20.3435 22.2145C20.6806 22.4613 21.1366 22.1321 21.0083 21.7344L18.6791 14.511C18.6221 14.3342 18.6848 14.1407 18.8347 14.0309L24.9362 9.56404Z"/>
<path d="M16.8328 8.78522L14.4102 1.27223C14.2818 0.873895 13.7182 0.873894 13.5898 1.27223L11.2635 8.48646C11.2061 8.66453 11.0404 8.78522 10.8533 8.78522L3.31844 8.78522C2.90169 8.78522 2.72755 9.31786 3.06383 9.56405L9.41641 14.2148L16.8328 8.78522Z"/>
</mask>
<path d="M24.9362 9.56404C25.2724 9.31786 25.0983 8.78522 24.6816 8.78522L16.8328 8.78522L9.41641 14.2148L6.99168 21.7344C6.86344 22.1321 7.31937 22.4613 7.65654 22.2145L13.7454 17.7568C13.897 17.6459 14.103 17.6459 14.2546 17.7568L20.3435 22.2145C20.6806 22.4613 21.1366 22.1321 21.0083 21.7344L18.6791 14.511C18.6221 14.3342 18.6848 14.1407 18.8347 14.0309L24.9362 9.56404Z" fill="black"/>
<path d="M9.67103 14.5626L17.0874 9.13301L16.5782 8.43742L9.16179 13.867L9.67103 14.5626ZM16.8328 8.78522L16.0123 9.04978L16.205 9.64729H16.8328V8.78522ZM9.41641 14.2148L10.2369 14.4793L10.4279 13.8869L9.92565 13.5192L9.41641 14.2148ZM10.8533 8.78522V9.64729V8.78522ZM11.2635 8.48646L10.443 8.2219L11.2635 8.48646ZM7.65654 22.2145L8.16577 22.9101L7.65654 22.2145ZM6.99168 21.7344L6.17121 21.4699L6.99168 21.7344ZM21.0083 21.7344L20.1879 21.999L21.0083 21.7344ZM20.3435 22.2145L19.8342 22.9101L20.3435 22.2145ZM18.8347 14.0309L18.3255 13.3353L18.8347 14.0309ZM18.6791 14.511L17.8586 14.7756L18.6791 14.511ZM24.6816 8.78522V9.64729V8.78522ZM24.9362 9.56404L24.4269 8.86846L24.9362 9.56404ZM14.2546 17.7568L14.7639 17.0613L14.2546 17.7568ZM13.7454 17.7568L13.2361 17.0613L13.7454 17.7568ZM14.4102 1.27223L13.5898 1.53679L14.4102 1.27223ZM13.5898 1.53679L16.0123 9.04978L17.6533 8.52065L15.2307 1.00767L13.5898 1.53679ZM16.8328 9.64729H24.6816V7.92315L16.8328 7.92315V9.64729ZM24.4269 8.86846L18.3255 13.3353L19.344 14.7265L25.4454 10.2596L24.4269 8.86846ZM17.8586 14.7756L20.1879 21.999L21.8288 21.4699L19.4996 14.2464L17.8586 14.7756ZM20.8527 21.5189L14.7639 17.0613L13.7454 18.4524L19.8342 22.9101L20.8527 21.5189ZM13.2361 17.0613L7.1473 21.5189L8.16577 22.9101L14.2546 18.4524L13.2361 17.0613ZM7.81215 21.999L10.2369 14.4793L8.59594 13.9502L6.17121 21.4699L7.81215 21.999ZM9.92565 13.5192L3.57306 8.86846L2.55459 10.2596L8.90717 14.9104L9.92565 13.5192ZM3.31844 9.64729H10.8533V7.92315L3.31844 7.92315L3.31844 9.64729ZM12.084 8.75103L14.4102 1.53679L12.7693 1.00767L10.443 8.2219L12.084 8.75103ZM10.8533 9.64729C11.4146 9.64729 11.9117 9.28521 12.084 8.75103L10.443 8.2219C10.5005 8.04384 10.6662 7.92315 10.8533 7.92315V9.64729ZM3.57306 8.86846C3.90933 9.11464 3.73521 9.64729 3.31844 9.64729L3.31844 7.92315C2.06816 7.92315 1.54577 9.52108 2.55459 10.2596L3.57306 8.86846ZM7.1473 21.5189C7.48445 21.2721 7.94039 21.6013 7.81215 21.999L6.17121 21.4699C5.78649 22.663 7.1543 23.6506 8.16577 22.9101L7.1473 21.5189ZM20.1879 21.999C20.0596 21.6013 20.5155 21.2721 20.8527 21.5189L19.8342 22.9101C20.8457 23.6506 22.2135 22.6629 21.8288 21.4699L20.1879 21.999ZM18.3255 13.3353C17.8757 13.6646 17.6876 14.245 17.8586 14.7756L19.4996 14.2464C19.5566 14.4233 19.4939 14.6168 19.344 14.7265L18.3255 13.3353ZM24.6816 9.64729C24.2648 9.64729 24.0907 9.11465 24.4269 8.86846L25.4454 10.2596C26.4542 9.52107 25.9318 7.92315 24.6816 7.92315V9.64729ZM14.7639 17.0613C14.309 16.7283 13.691 16.7283 13.2361 17.0613L14.2546 18.4524C14.103 18.5634 13.897 18.5634 13.7454 18.4524L14.7639 17.0613ZM15.2307 1.00767C14.8454 -0.187341 13.1546 -0.187346 12.7693 1.00767L14.4102 1.53679C14.2818 1.93513 13.7182 1.93513 13.5898 1.53679L15.2307 1.00767Z" fill="black" mask="url(#path-1-inside-1_4481_7050)"/>
<path d="M7.2347 21.6523L5.48978 21.5308L7.19598 18.9561L7.2347 21.6523Z" fill="black"/>
<path d="M18.7653 21.6523L20.5102 21.5308L18.804 18.9561L18.7653 21.6523Z" fill="black"/>
<path d="M11.9146 1.0565L14.1562 1.32062L13.1285 4.34467L11.9146 1.0565Z" fill="black"/>
<path d="M12.5 1.39486L14.7997 8.47265C14.9151 8.82784 15.2461 9.06832 15.6196 9.06832H23.0616L17.0409 13.4426C16.7387 13.6622 16.6123 14.0513 16.7277 14.4065L19.0274 21.4843L13.0067 17.1099C12.7046 16.8904 12.2954 16.8904 11.9933 17.1099L5.97256 21.4842L8.27227 14.4065C8.38768 14.0513 8.26125 13.6622 7.95911 13.4426L1.93838 9.06832H9.38041C9.75388 9.06832 10.0849 8.82784 10.2003 8.47265L12.5 1.39486Z" fill="#F2EA86" stroke="black" stroke-width="0.862069"/>
</svg>
