<svg width="403" height="206" viewBox="0 0 403 206" fill="none" xmlns="http://www.w3.org/2000/svg">
<path d="M44.1282 8.41016L36.2334 10.7616L44.1282 8.41016Z" fill="black"/>
<path d="M14.1022 49.4196C13.0444 50.2935 12.0459 51.2369 11.1135 52.2435C10.6465 52.7435 10.196 53.2654 9.773 53.8038C9.34996 54.3422 8.97638 54.9026 8.57532 55.452C8.5712 55.4566 8.56612 55.4604 8.56043 55.463C8.55475 55.4655 8.5486 55.4669 8.54236 55.4669C8.53612 55.4669 8.52995 55.4655 8.52427 55.463C8.51859 55.4604 8.51352 55.4566 8.5094 55.452C8.50458 55.4474 8.50073 55.4418 8.49811 55.4357C8.49549 55.4295 8.49414 55.4229 8.49414 55.4163C8.49414 55.4096 8.49549 55.403 8.49811 55.3968C8.50073 55.3907 8.50458 55.3852 8.5094 55.3806C8.91046 54.8312 9.30051 54.2818 9.71255 53.7324C10.1246 53.183 10.5916 52.672 11.0641 52.1721C11.9941 51.1684 12.9907 50.2286 14.0473 49.3592C14.0509 49.3555 14.0551 49.3526 14.0599 49.3507C14.0646 49.3487 14.0696 49.3477 14.0747 49.3477C14.0799 49.3477 14.0849 49.3487 14.0896 49.3507C14.0944 49.3526 14.0986 49.3555 14.1022 49.3592C14.1099 49.3674 14.1143 49.3782 14.1143 49.3894C14.1143 49.4007 14.1099 49.4115 14.1022 49.4196Z" fill="black"/>
<path d="M6.25678 63.1711C6.36643 63.8423 6.63588 64.4773 7.04241 65.0225C7.46701 65.554 8.00347 65.9854 8.61367 66.2861C9.22705 66.5825 9.87751 66.795 10.5475 66.9179C11.2178 67.0498 11.9045 67.1157 12.5803 67.2201C12.5895 67.2207 12.5984 67.2233 12.6066 67.2276C12.6147 67.2319 12.6219 67.2379 12.6276 67.2451C12.6333 67.2524 12.6374 67.2608 12.6397 67.2697C12.6419 67.2786 12.6423 67.2879 12.6407 67.297C12.6394 67.3064 12.6362 67.3155 12.6313 67.3237C12.6264 67.3319 12.6199 67.339 12.6122 67.3446C12.6046 67.3502 12.5959 67.3543 12.5866 67.3565C12.5773 67.3587 12.5677 67.359 12.5583 67.3575C11.8771 67.2531 11.1958 67.1816 10.5146 67.0498C9.83429 66.9242 9.17438 66.7061 8.55324 66.4015C7.92502 66.0974 7.37448 65.654 6.94352 65.1049C6.52635 64.5429 6.24947 63.8893 6.13591 63.1985C6.13433 63.1909 6.13438 63.183 6.13608 63.1754C6.13778 63.1678 6.14108 63.1607 6.14576 63.1544C6.15043 63.1482 6.15638 63.143 6.16321 63.1393C6.17004 63.1355 6.17759 63.1332 6.18536 63.1326C6.19991 63.129 6.21528 63.131 6.22848 63.1381C6.24168 63.1452 6.25177 63.1569 6.25678 63.1711Z" fill="black"/>
<path d="M20.8006 39.6093L29.0415 39.2742C29.0532 39.2726 29.0651 39.2736 29.0764 39.277C29.0877 39.2804 29.0981 39.2862 29.107 39.2941C29.1158 39.3019 29.1229 39.3115 29.1277 39.3223C29.1325 39.3331 29.135 39.3448 29.1348 39.3566C29.1349 39.3804 29.1258 39.4034 29.1095 39.4208C29.0931 39.4381 29.0707 39.4486 29.0469 39.45L20.806 39.7686C20.7955 39.7694 20.7849 39.768 20.7749 39.7644C20.7649 39.7609 20.7558 39.7554 20.7481 39.7481C20.7403 39.7409 20.7342 39.7322 20.73 39.7225C20.7258 39.7128 20.7236 39.7023 20.7236 39.6917C20.7236 39.6708 20.7315 39.6506 20.7458 39.6353C20.7601 39.62 20.7797 39.6107 20.8006 39.6093Z" fill="black"/>
<path d="M37.2487 38.6543L39.3035 38.506C39.9902 38.4456 40.6769 38.4236 41.3637 38.4126L45.4896 38.3027C45.5188 38.3027 45.5467 38.3143 45.5673 38.3349C45.5879 38.3555 45.5995 38.3835 45.5995 38.4126C45.6002 38.4268 45.5981 38.4409 45.5932 38.4542C45.5883 38.4676 45.5807 38.4797 45.5709 38.49C45.5612 38.5003 45.5494 38.5085 45.5364 38.5141C45.5233 38.5196 45.5093 38.5225 45.4951 38.5225L41.3857 38.6214C40.6989 38.6214 40.0122 38.6543 39.3309 38.7148L37.2762 38.8521C37.2632 38.8537 37.25 38.8526 37.2374 38.849C37.2248 38.8454 37.2131 38.8393 37.2029 38.8311C37.1927 38.823 37.1842 38.8128 37.1779 38.8013C37.1716 38.7899 37.1677 38.7772 37.1663 38.7642C37.1644 38.739 37.1717 38.714 37.1869 38.6938C37.202 38.6736 37.224 38.6596 37.2487 38.6543Z" fill="black"/>
<path d="M53.7257 38.6978L61.9337 39.4285C61.951 39.4299 61.9679 39.4347 61.9834 39.4426C61.9988 39.4506 62.0126 39.4615 62.0238 39.4748C62.0351 39.488 62.0436 39.5034 62.0488 39.52C62.0541 39.5366 62.0561 39.554 62.0545 39.5713C62.0504 39.6054 62.0332 39.6364 62.0065 39.658C61.9798 39.6795 61.9458 39.6898 61.9117 39.6867L53.7093 38.9395C53.6767 38.9367 53.6465 38.9214 53.625 38.8969C53.6035 38.8723 53.5924 38.8403 53.5939 38.8077C53.5953 38.7918 53.5998 38.7763 53.6072 38.7622C53.6146 38.748 53.6247 38.7355 53.6369 38.7253C53.6492 38.7151 53.6633 38.7074 53.6786 38.7027C53.6938 38.6979 53.7099 38.6963 53.7257 38.6978Z" fill="black"/>
<path d="M70.1458 40.0333C72.891 40.1712 75.6414 40.1712 78.3867 40.0333C78.4266 40.0318 78.4655 40.0458 78.4952 40.0725C78.525 40.0992 78.5432 40.1363 78.546 40.1762C78.5475 40.2161 78.5335 40.255 78.5068 40.2847C78.4802 40.3145 78.443 40.3327 78.4032 40.3355C75.6562 40.4728 72.9092 40.4399 70.1623 40.3025C70.1253 40.2997 70.091 40.2827 70.0664 40.255C70.0418 40.2273 70.0289 40.1912 70.0304 40.1542C70.0327 40.1238 70.0455 40.0952 70.0665 40.0731C70.0875 40.0511 70.1155 40.037 70.1458 40.0333Z" fill="black"/>
<path d="M86.5674 39.2193L94.7259 38.0656C94.768 38.0638 94.8092 38.0777 94.8416 38.1045C94.874 38.1314 94.8954 38.1692 94.9015 38.2109C94.9076 38.2525 94.8981 38.295 94.8749 38.33C94.8516 38.3651 94.8161 38.3902 94.7753 38.4007L86.6059 39.538C86.5638 39.5427 86.5215 39.5311 86.4877 39.5056C86.454 39.48 86.4313 39.4424 86.4246 39.4006C86.4215 39.3797 86.4226 39.3583 86.4278 39.3378C86.4331 39.3173 86.4424 39.298 86.4552 39.2811C86.468 39.2642 86.484 39.2501 86.5023 39.2395C86.5206 39.2289 86.5409 39.222 86.5619 39.2193H86.5674Z" fill="black"/>
<path d="M102.868 36.8632L111.054 35.8743C111.079 35.8704 111.104 35.8717 111.128 35.878C111.152 35.8843 111.175 35.8956 111.195 35.9111C111.214 35.9265 111.23 35.9459 111.242 35.9679C111.254 35.99 111.261 36.0142 111.263 36.0391C111.269 36.0893 111.255 36.1399 111.225 36.1801C111.194 36.2202 111.148 36.2465 111.098 36.2533L102.923 37.2203C102.9 37.2241 102.876 37.2232 102.852 37.2175C102.829 37.2117 102.807 37.2014 102.788 37.187C102.769 37.1726 102.754 37.1545 102.742 37.1338C102.73 37.113 102.723 37.0901 102.72 37.0664C102.715 37.0202 102.727 36.9737 102.755 36.9361C102.782 36.8985 102.823 36.8725 102.868 36.8632Z" fill="black"/>
<path d="M119.29 35.3467C120.669 35.3467 122.037 35.3137 123.416 35.3467H127.541C127.597 35.3467 127.65 35.3687 127.689 35.4078C127.728 35.447 127.75 35.5001 127.75 35.5555C127.749 35.6113 127.726 35.6644 127.686 35.7034C127.646 35.7424 127.592 35.7642 127.536 35.7642L123.416 35.7368C122.042 35.7368 120.67 35.7368 119.301 35.7368C119.248 35.7383 119.196 35.719 119.157 35.6831C119.118 35.6472 119.095 35.5974 119.092 35.5445C119.094 35.4929 119.116 35.4441 119.153 35.4076C119.189 35.371 119.238 35.3493 119.29 35.3467Z" fill="black"/>
<path d="M135.782 35.4954L144.023 35.8031C144.053 35.8045 144.083 35.8118 144.111 35.8248C144.138 35.8377 144.163 35.8559 144.183 35.8783C144.204 35.9008 144.219 35.9271 144.23 35.9556C144.24 35.9842 144.244 36.0145 144.243 36.0448C144.242 36.0749 144.235 36.1045 144.223 36.1319C144.211 36.1593 144.193 36.184 144.171 36.2045C144.149 36.225 144.123 36.2408 144.095 36.2512C144.067 36.2615 144.037 36.266 144.007 36.2646L135.766 35.9349C135.737 35.9335 135.709 35.9264 135.682 35.9141C135.656 35.9017 135.633 35.8843 135.613 35.8629C135.594 35.8414 135.579 35.8164 135.569 35.7891C135.56 35.7619 135.555 35.733 135.557 35.7042C135.558 35.6756 135.564 35.6474 135.576 35.6213C135.588 35.5952 135.605 35.5717 135.626 35.5522C135.647 35.5328 135.671 35.5177 135.698 35.508C135.725 35.4982 135.754 35.4939 135.782 35.4954Z" fill="black"/>
<path d="M152.259 36.3141L160.472 37.0668C160.538 37.0751 160.598 37.1081 160.64 37.1592C160.681 37.2104 160.702 37.2756 160.697 37.3415C160.695 37.3745 160.685 37.4067 160.67 37.436C160.655 37.4653 160.633 37.4913 160.608 37.5123C160.582 37.5333 160.553 37.549 160.521 37.5583C160.489 37.5677 160.456 37.5705 160.423 37.5667L152.22 36.7921C152.157 36.7852 152.099 36.7536 152.059 36.7042C152.019 36.6549 152 36.5917 152.006 36.5284C152.012 36.4667 152.041 36.4096 152.089 36.3695C152.136 36.3294 152.197 36.3095 152.259 36.3141Z" fill="black"/>
<path d="M168.653 38.1263L176.79 39.5218C176.826 39.5279 176.86 39.5411 176.891 39.5606C176.922 39.58 176.949 39.6054 176.97 39.6353C176.991 39.6651 177.007 39.6988 177.015 39.7345C177.023 39.7702 177.024 39.8071 177.018 39.8432C177.012 39.8793 176.998 39.9138 176.979 39.9448C176.959 39.9757 176.934 40.0026 176.904 40.0238C176.874 40.0449 176.841 40.06 176.805 40.0682C176.769 40.0763 176.732 40.0773 176.696 40.0712L168.576 38.6428C168.514 38.6246 168.461 38.5843 168.427 38.5295C168.393 38.4747 168.38 38.4092 168.39 38.3454C168.401 38.2817 168.435 38.2242 168.486 38.1838C168.536 38.1434 168.6 38.123 168.664 38.1263H168.653Z" fill="black"/>
<path d="M184.866 41.1811L186.882 41.6042L188.915 41.9723L192.969 42.703C193.006 42.7095 193.041 42.7233 193.072 42.7435C193.103 42.7637 193.13 42.7899 193.151 42.8206C193.172 42.8513 193.187 42.8858 193.194 42.9222C193.202 42.9586 193.202 42.9961 193.195 43.0326C193.189 43.0696 193.175 43.1051 193.156 43.1369C193.136 43.1687 193.109 43.1962 193.079 43.2177C193.048 43.2393 193.013 43.2544 192.977 43.2622C192.94 43.2701 192.902 43.2704 192.865 43.2633L188.805 42.5271L186.772 42.1536L184.756 41.7305C184.684 41.7147 184.621 41.6713 184.581 41.6096C184.541 41.5479 184.527 41.473 184.542 41.4009C184.548 41.365 184.562 41.3309 184.582 41.3003C184.602 41.2698 184.628 41.2436 184.658 41.2231C184.688 41.2027 184.722 41.1884 184.758 41.1812C184.793 41.174 184.83 41.174 184.866 41.1811Z" fill="black"/>
<path d="M200.974 44.7965C202.285 45.277 203.543 45.8939 204.726 46.637C205.941 47.3772 206.974 48.3818 207.748 49.5762C207.788 49.6433 207.801 49.7237 207.782 49.7999C207.764 49.8761 207.716 49.9418 207.649 49.9828C207.616 50.0036 207.579 50.0176 207.54 50.0239C207.502 50.0302 207.462 50.0287 207.425 50.0195C207.387 50.0103 207.351 49.9935 207.32 49.9702C207.288 49.9469 207.262 49.9176 207.242 49.8839C206.517 48.7661 205.547 47.827 204.407 47.1369C203.261 46.4147 202.042 45.8144 200.77 45.3459C200.698 45.319 200.638 45.2642 200.606 45.1936C200.573 45.123 200.57 45.0424 200.597 44.9696C200.624 44.8967 200.679 44.8376 200.75 44.8051C200.82 44.7727 200.901 44.7696 200.974 44.7965Z" fill="black"/>
<path d="M208.424 57.8602C207.987 59.2105 207.276 60.4562 206.336 61.5192C205.398 62.5654 204.32 63.4769 203.133 64.2277C203.064 64.271 202.981 64.2856 202.902 64.2681C202.823 64.2506 202.754 64.2025 202.71 64.1343C202.688 64.1006 202.672 64.0627 202.665 64.023C202.658 63.9833 202.659 63.9425 202.667 63.9031C202.676 63.8636 202.692 63.8263 202.716 63.7934C202.739 63.7604 202.769 63.7325 202.803 63.7113C203.945 62.9953 204.981 62.1224 205.88 61.1181C206.77 60.1202 207.446 58.9494 207.863 57.6789C207.875 57.6411 207.894 57.606 207.92 57.5758C207.945 57.5455 207.977 57.5207 208.012 57.5028C208.048 57.4849 208.086 57.4742 208.126 57.4714C208.165 57.4687 208.205 57.4738 208.242 57.4866C208.315 57.5139 208.374 57.5679 208.407 57.6373C208.441 57.7068 208.447 57.7866 208.424 57.8602Z" fill="black"/>
<path d="M195.661 67.8281L188.091 71.086C188.013 71.1195 187.925 71.1207 187.846 71.0893C187.767 71.0579 187.704 70.9964 187.671 70.9185C187.637 70.8405 187.636 70.7524 187.667 70.6736C187.699 70.5948 187.76 70.5317 187.838 70.4982L195.409 67.2568C195.446 67.2405 195.487 67.2319 195.527 67.2315C195.568 67.231 195.609 67.2386 195.647 67.254C195.684 67.2693 195.719 67.292 195.748 67.3208C195.777 67.3496 195.8 67.3838 195.815 67.4216C195.847 67.4961 195.849 67.5801 195.82 67.6559C195.792 67.7317 195.735 67.7935 195.661 67.8281Z" fill="black"/>
<path d="M180.514 74.2817L172.911 77.4737C172.87 77.4903 172.828 77.4988 172.784 77.4988C172.741 77.4989 172.698 77.4903 172.658 77.4737C172.618 77.4572 172.581 77.4329 172.551 77.4022C172.52 77.3716 172.496 77.3352 172.479 77.2951C172.463 77.2551 172.454 77.2122 172.454 77.1688C172.454 77.1255 172.463 77.0826 172.479 77.0425C172.496 77.0025 172.52 76.9661 172.551 76.9354C172.581 76.9048 172.618 76.8805 172.658 76.8639L180.261 73.6884C180.338 73.6646 180.421 73.6701 180.494 73.7038C180.566 73.7376 180.624 73.7971 180.656 73.871C180.687 73.9448 180.69 74.0277 180.664 74.1036C180.638 74.1794 180.584 74.2429 180.514 74.2817Z" fill="black"/>
<path d="M165.307 80.6772L157.731 83.9187C157.69 83.9367 157.646 83.9465 157.601 83.9474C157.556 83.9483 157.511 83.9404 157.47 83.9241C157.428 83.9077 157.39 83.8833 157.357 83.8522C157.325 83.8211 157.299 83.784 157.281 83.7428C157.263 83.7017 157.253 83.6575 157.252 83.6126C157.251 83.5677 157.259 83.523 157.275 83.4812C157.292 83.4394 157.316 83.4011 157.347 83.3687C157.378 83.3363 157.415 83.3104 157.457 83.2923L165.038 80.0619C165.079 80.0439 165.122 80.0342 165.166 80.0333C165.21 80.0324 165.254 80.0404 165.295 80.0568C165.336 80.0732 165.373 80.0976 165.405 80.1287C165.436 80.1598 165.461 80.1969 165.478 80.2377C165.511 80.3188 165.513 80.4098 165.481 80.4917C165.449 80.5736 165.387 80.6401 165.307 80.6772Z" fill="black"/>
<path d="M150.181 87.2153L142.671 90.5996C142.586 90.6375 142.489 90.6399 142.402 90.6064C142.315 90.573 142.245 90.5063 142.207 90.421C142.169 90.3358 142.167 90.239 142.2 90.1519C142.234 90.0649 142.3 89.9947 142.386 89.9568L149.912 86.578C149.995 86.5468 150.087 86.5483 150.168 86.5825C150.25 86.6166 150.315 86.6806 150.351 86.7615C150.387 86.8423 150.39 86.9338 150.361 87.0172C150.331 87.1006 150.271 87.1695 150.192 87.2098L150.181 87.2153Z" fill="black"/>
<path d="M135.211 94.0891L127.821 97.7151C127.778 97.7412 127.73 97.758 127.68 97.7646C127.63 97.7711 127.58 97.7672 127.531 97.7531C127.483 97.739 127.438 97.715 127.4 97.6826C127.361 97.6502 127.33 97.6102 127.308 97.565C127.285 97.5198 127.273 97.4706 127.271 97.4203C127.269 97.37 127.277 97.3198 127.295 97.273C127.314 97.2261 127.342 97.1836 127.377 97.1481C127.413 97.1126 127.456 97.0849 127.503 97.0668L134.914 93.4463C134.956 93.4257 135.002 93.4137 135.049 93.4108C135.096 93.408 135.143 93.4144 135.187 93.4297C135.231 93.445 135.272 93.4689 135.307 93.5C135.343 93.5311 135.371 93.5689 135.392 93.6111C135.412 93.6533 135.424 93.6991 135.427 93.746C135.43 93.7929 135.424 93.8398 135.408 93.8842C135.393 93.9286 135.369 93.9695 135.338 94.0047C135.307 94.0398 135.269 94.0685 135.227 94.0891H135.211Z" fill="black"/>
<path d="M120.515 101.511L113.34 105.533C113.252 105.58 113.149 105.591 113.054 105.563C112.958 105.536 112.877 105.471 112.829 105.385C112.781 105.299 112.77 105.197 112.796 105.103C112.823 105.008 112.886 104.928 112.972 104.879L120.18 100.852C120.264 100.804 120.364 100.792 120.458 100.818C120.552 100.844 120.631 100.905 120.68 100.989C120.727 101.076 120.739 101.177 120.712 101.272C120.685 101.366 120.622 101.446 120.537 101.495L120.515 101.511Z" fill="black"/>
<path d="M106.345 109.866C104.059 111.372 101.818 112.948 99.6587 114.629C99.6187 114.662 99.5725 114.686 99.5229 114.701C99.4733 114.715 99.4213 114.719 99.37 114.713C99.3188 114.707 99.2692 114.691 99.2245 114.665C99.1797 114.639 99.1405 114.605 99.1093 114.564C99.076 114.524 99.0511 114.478 99.0363 114.428C99.0215 114.378 99.017 114.326 99.0232 114.275C99.0294 114.223 99.0461 114.173 99.0722 114.129C99.0984 114.084 99.1334 114.045 99.1753 114.014C101.373 112.322 103.614 110.718 105.916 109.223C106.001 109.168 106.104 109.149 106.203 109.169C106.302 109.19 106.388 109.249 106.444 109.333C106.499 109.418 106.519 109.521 106.498 109.62C106.477 109.719 106.418 109.805 106.334 109.861L106.345 109.866Z" fill="black"/>
<path d="M92.0616 117.992C91.3694 118.096 90.6772 118.179 89.974 118.223C89.6278 118.223 89.2762 118.256 88.9191 118.223H88.6444H88.4961C88.4195 118.217 88.3438 118.203 88.2708 118.179C88.2708 118.179 88.2708 118.179 88.128 118.091C88.0769 118.042 88.0386 117.982 88.0165 117.914C87.9945 117.847 87.9894 117.776 88.0016 117.706C88.03 117.609 88.0899 117.524 88.1719 117.465C88.2039 117.44 88.239 117.42 88.2763 117.404L88.4027 117.377H88.5565H88.8312C90.2431 117.294 91.6111 117.327 92.9901 117.377C93.0421 117.377 93.0935 117.387 93.1415 117.407C93.1895 117.427 93.2331 117.456 93.2698 117.493C93.3066 117.529 93.3357 117.573 93.3556 117.621C93.3755 117.669 93.3857 117.72 93.3857 117.772C93.3857 117.824 93.3755 117.876 93.3556 117.924C93.3357 117.972 93.3066 118.015 93.2698 118.052C93.2331 118.089 93.1895 118.118 93.1415 118.138C93.0935 118.158 93.0421 118.168 92.9901 118.168C91.6221 118.14 90.2432 118.113 88.9081 118.168H88.6664H88.5675L88.6444 118.124C88.6815 118.092 88.7114 118.052 88.7322 118.008C88.753 117.963 88.7643 117.915 88.7653 117.866C88.7798 117.801 88.7773 117.733 88.7581 117.67C88.7388 117.606 88.7035 117.549 88.6554 117.503C88.5071 117.399 88.5565 117.443 88.54 117.432C88.5235 117.421 88.54 117.432 88.573 117.432H88.6829H88.9246C89.2488 117.432 89.5894 117.432 89.9245 117.404C90.5948 117.366 91.265 117.289 91.9353 117.184C92.038 117.168 92.1429 117.194 92.2269 117.255C92.3108 117.316 92.367 117.409 92.383 117.511C92.3991 117.614 92.3736 117.719 92.3123 117.803C92.251 117.887 92.1589 117.943 92.0561 117.959L92.0616 117.992Z" fill="black"/>
<path d="M101.227 117.475L109.467 117.338C109.521 117.338 109.574 117.348 109.623 117.369C109.672 117.389 109.717 117.419 109.755 117.457C109.793 117.495 109.823 117.54 109.843 117.589C109.863 117.638 109.874 117.691 109.874 117.744C109.874 117.798 109.863 117.851 109.843 117.9C109.823 117.949 109.793 117.994 109.755 118.032C109.717 118.07 109.672 118.1 109.623 118.12C109.574 118.14 109.521 118.151 109.467 118.151L101.227 118.283C101.128 118.271 101.036 118.224 100.97 118.149C100.904 118.075 100.867 117.979 100.867 117.879C100.867 117.779 100.904 117.683 100.97 117.609C101.036 117.534 101.128 117.487 101.227 117.475Z" fill="black"/>
<path d="M117.68 116.997L125.921 116.585C125.976 116.582 126.032 116.59 126.084 116.608C126.136 116.627 126.184 116.656 126.225 116.693C126.266 116.73 126.299 116.776 126.322 116.826C126.345 116.876 126.358 116.93 126.361 116.986C126.364 117.04 126.356 117.095 126.337 117.146C126.319 117.198 126.29 117.245 126.254 117.285C126.217 117.326 126.172 117.359 126.123 117.382C126.073 117.405 126.02 117.418 125.965 117.42L117.724 117.826C117.621 117.82 117.524 117.776 117.452 117.703C117.379 117.629 117.336 117.532 117.332 117.429C117.327 117.326 117.36 117.225 117.426 117.145C117.491 117.065 117.584 117.012 117.686 116.997H117.68Z" fill="black"/>
<path d="M134.151 116.218L142.392 116.031C142.498 116.043 142.596 116.094 142.667 116.173C142.738 116.253 142.777 116.356 142.777 116.463C142.777 116.569 142.738 116.672 142.667 116.752C142.596 116.831 142.498 116.882 142.392 116.894L134.151 117.064C134.095 117.066 134.039 117.056 133.987 117.036C133.935 117.015 133.887 116.985 133.847 116.946C133.806 116.907 133.774 116.861 133.752 116.809C133.729 116.758 133.718 116.703 133.717 116.647C133.715 116.589 133.726 116.533 133.747 116.479C133.768 116.426 133.8 116.378 133.841 116.338C133.882 116.298 133.93 116.267 133.983 116.246C134.037 116.225 134.094 116.216 134.151 116.218Z" fill="black"/>
<path d="M150.654 116.157L158.895 116.415C159.004 116.428 159.104 116.479 159.177 116.561C159.25 116.643 159.291 116.748 159.291 116.858C159.291 116.967 159.25 117.073 159.177 117.154C159.104 117.236 159.004 117.288 158.895 117.3L150.654 117.031C150.547 117.019 150.448 116.967 150.376 116.887C150.303 116.806 150.264 116.702 150.264 116.594C150.264 116.486 150.303 116.382 150.376 116.301C150.448 116.221 150.547 116.169 150.654 116.157Z" fill="black"/>
<path d="M167.131 116.717L175.4 117.057C175.459 117.059 175.518 117.072 175.572 117.096C175.626 117.121 175.675 117.156 175.715 117.199C175.756 117.243 175.787 117.294 175.807 117.35C175.828 117.406 175.837 117.465 175.834 117.524C175.832 117.584 175.818 117.643 175.793 117.697C175.768 117.751 175.732 117.8 175.688 117.84C175.644 117.881 175.593 117.912 175.537 117.932C175.481 117.952 175.421 117.961 175.361 117.958L167.12 117.607C167.062 117.605 167.004 117.592 166.95 117.568C166.897 117.544 166.849 117.51 166.809 117.466C166.769 117.423 166.738 117.373 166.718 117.318C166.698 117.263 166.689 117.204 166.692 117.145C166.697 117.032 166.746 116.924 166.827 116.845C166.909 116.765 167.018 116.719 167.131 116.717Z" fill="black"/>
<path d="M183.636 117.438L191.877 117.861C191.937 117.864 191.997 117.879 192.052 117.905C192.106 117.93 192.156 117.967 192.197 118.012C192.237 118.057 192.269 118.109 192.289 118.166C192.31 118.223 192.319 118.284 192.316 118.345C192.313 118.405 192.298 118.465 192.273 118.519C192.247 118.574 192.21 118.624 192.165 118.664C192.121 118.705 192.068 118.737 192.011 118.757C191.954 118.778 191.893 118.787 191.833 118.784L183.592 118.35C183.532 118.347 183.473 118.332 183.419 118.307C183.365 118.281 183.316 118.245 183.276 118.201C183.194 118.111 183.152 117.993 183.158 117.872C183.161 117.812 183.175 117.753 183.201 117.699C183.226 117.645 183.262 117.596 183.307 117.556C183.396 117.475 183.515 117.432 183.636 117.438Z" fill="black"/>
<path d="M200.1 118.338L208.341 118.887C208.403 118.891 208.462 118.907 208.518 118.934C208.573 118.962 208.622 118.999 208.663 119.045C208.703 119.092 208.734 119.145 208.754 119.203C208.774 119.262 208.782 119.323 208.778 119.384C208.774 119.446 208.758 119.506 208.731 119.561C208.704 119.616 208.666 119.665 208.62 119.706C208.574 119.746 208.52 119.777 208.462 119.797C208.404 119.817 208.342 119.825 208.281 119.821L200.04 119.272C199.924 119.254 199.82 119.194 199.747 119.103C199.673 119.012 199.637 118.897 199.645 118.78C199.652 118.663 199.703 118.554 199.788 118.473C199.872 118.392 199.984 118.346 200.1 118.343V118.338Z" fill="black"/>
<path d="M216.548 119.514L224.789 120.228C224.854 120.229 224.917 120.244 224.976 120.271C225.035 120.298 225.087 120.337 225.13 120.385C225.173 120.433 225.206 120.49 225.226 120.551C225.246 120.612 225.254 120.677 225.248 120.742C225.243 120.806 225.224 120.868 225.193 120.925C225.163 120.982 225.121 121.032 225.07 121.072C225.019 121.112 224.961 121.141 224.898 121.157C224.836 121.174 224.771 121.177 224.707 121.167L216.499 120.453C216.375 120.442 216.261 120.383 216.181 120.287C216.101 120.192 216.062 120.069 216.073 119.945C216.084 119.821 216.144 119.707 216.239 119.627C216.334 119.547 216.457 119.508 216.581 119.519L216.548 119.514Z" fill="black"/>
<path d="M232.976 121.058L241.162 122.123C241.226 122.131 241.287 122.151 241.343 122.183C241.399 122.215 241.448 122.258 241.486 122.309C241.525 122.361 241.552 122.42 241.567 122.482C241.582 122.545 241.585 122.609 241.574 122.673C241.566 122.736 241.545 122.798 241.513 122.853C241.481 122.908 241.438 122.957 241.386 122.995C241.335 123.034 241.277 123.061 241.214 123.077C241.152 123.092 241.088 123.095 241.024 123.085L232.866 122.019C232.804 122.011 232.745 121.99 232.691 121.959C232.637 121.928 232.59 121.886 232.552 121.837C232.514 121.787 232.487 121.731 232.471 121.671C232.455 121.611 232.451 121.548 232.459 121.486C232.468 121.424 232.488 121.365 232.519 121.311C232.551 121.257 232.592 121.21 232.642 121.172C232.691 121.135 232.748 121.107 232.808 121.091C232.868 121.075 232.931 121.071 232.992 121.08L232.976 121.058Z" fill="black"/>
<path d="M249.309 123.601L257.33 125.541C257.454 125.57 257.561 125.648 257.628 125.757C257.694 125.866 257.715 125.996 257.685 126.12C257.655 126.244 257.577 126.351 257.468 126.417C257.36 126.484 257.229 126.504 257.105 126.474L249.111 124.535C248.992 124.502 248.89 124.423 248.827 124.317C248.765 124.21 248.746 124.082 248.775 123.962C248.804 123.841 248.879 123.737 248.984 123.671C249.089 123.604 249.215 123.581 249.337 123.607L249.309 123.601Z" fill="black"/>
<path d="M265.269 127.87C267.898 128.739 270.467 129.78 272.96 130.985C273.074 131.042 273.161 131.141 273.202 131.261C273.243 131.382 273.235 131.513 273.18 131.628C273.153 131.685 273.115 131.737 273.068 131.779C273.021 131.821 272.965 131.854 272.905 131.874C272.845 131.895 272.782 131.903 272.719 131.898C272.655 131.894 272.594 131.877 272.537 131.848C270.079 130.663 267.547 129.639 264.956 128.782C264.846 128.733 264.759 128.645 264.71 128.535C264.662 128.424 264.657 128.3 264.695 128.186C264.734 128.072 264.813 127.977 264.918 127.918C265.023 127.86 265.146 127.843 265.263 127.87H265.269Z" fill="black"/>
<path d="M279.993 135.491C281.063 136.413 282.02 137.459 282.844 138.606C283.677 139.774 284.307 141.074 284.707 142.452C284.724 142.513 284.729 142.577 284.722 142.641C284.714 142.704 284.694 142.765 284.663 142.821C284.632 142.876 284.59 142.925 284.54 142.965C284.49 143.004 284.433 143.033 284.372 143.051C284.31 143.068 284.246 143.073 284.183 143.066C284.12 143.058 284.058 143.038 284.003 143.007C283.947 142.976 283.898 142.934 283.859 142.884C283.819 142.834 283.79 142.777 283.773 142.715C283.404 141.446 282.822 140.247 282.053 139.172C281.275 138.084 280.37 137.094 279.356 136.222C279.307 136.181 279.267 136.13 279.238 136.073C279.21 136.017 279.192 135.955 279.188 135.891C279.183 135.828 279.191 135.764 279.212 135.704C279.232 135.644 279.264 135.588 279.306 135.54C279.391 135.443 279.511 135.384 279.639 135.374C279.768 135.365 279.895 135.407 279.993 135.491Z" fill="black"/>
<path d="M283.097 150.675C281.59 153.047 279.705 155.156 277.515 156.916C277.414 156.999 277.285 157.039 277.155 157.027C277.025 157.014 276.906 156.951 276.823 156.85C276.74 156.75 276.7 156.62 276.712 156.49C276.725 156.361 276.788 156.241 276.888 156.158C278.995 154.471 280.809 152.447 282.256 150.17C282.289 150.115 282.333 150.067 282.385 150.029C282.437 149.992 282.495 149.964 282.558 149.95C282.62 149.935 282.685 149.933 282.748 149.943C282.811 149.953 282.872 149.976 282.926 150.01C283.035 150.079 283.112 150.188 283.142 150.313C283.172 150.438 283.152 150.57 283.086 150.681L283.097 150.675Z" fill="black"/>
<path d="M270.39 161.234C267.918 162.472 265.395 163.593 262.82 164.597C262.7 164.635 262.571 164.626 262.458 164.572C262.345 164.518 262.256 164.424 262.21 164.307C262.164 164.191 262.164 164.061 262.21 163.945C262.256 163.828 262.344 163.733 262.457 163.679C265.001 162.679 267.506 161.575 269.951 160.383C270.009 160.354 270.071 160.337 270.136 160.332C270.2 160.328 270.265 160.336 270.326 160.356C270.387 160.377 270.444 160.409 270.493 160.451C270.541 160.494 270.581 160.545 270.61 160.603C270.639 160.66 270.656 160.723 270.661 160.788C270.665 160.852 270.657 160.917 270.637 160.978C270.616 161.039 270.584 161.096 270.542 161.144C270.5 161.193 270.448 161.233 270.39 161.262V161.234Z" fill="black"/>
<path d="M255.018 167.35L247.073 169.63C246.952 169.651 246.826 169.627 246.721 169.562C246.616 169.496 246.539 169.394 246.505 169.276C246.471 169.157 246.482 169.029 246.536 168.918C246.59 168.807 246.684 168.72 246.799 168.674L254.699 166.41C254.821 166.388 254.946 166.412 255.051 166.478C255.156 166.543 255.233 166.645 255.268 166.764C255.302 166.883 255.291 167.01 255.236 167.122C255.182 167.233 255.088 167.32 254.974 167.366L255.018 167.35Z" fill="black"/>
<path d="M239.058 171.613C237.723 171.921 236.388 172.24 235.042 172.536L231.004 173.41C230.939 173.423 230.872 173.424 230.807 173.412C230.743 173.4 230.681 173.375 230.625 173.34C230.513 173.267 230.435 173.153 230.407 173.022C230.38 172.892 230.405 172.756 230.478 172.644C230.55 172.532 230.664 172.454 230.795 172.426L234.811 171.564L238.821 170.641C238.885 170.625 238.952 170.623 239.016 170.633C239.081 170.644 239.143 170.667 239.199 170.702C239.255 170.737 239.303 170.782 239.341 170.836C239.379 170.89 239.406 170.95 239.42 171.014C239.45 171.142 239.429 171.276 239.361 171.388C239.293 171.5 239.184 171.581 239.058 171.613Z" fill="black"/>
<path d="M222.877 174.887L214.708 176.102C214.579 176.114 214.45 176.077 214.347 175.997C214.245 175.917 214.177 175.801 214.158 175.673C214.144 175.544 214.18 175.415 214.259 175.313C214.338 175.211 214.453 175.143 214.581 175.124L222.718 173.904C222.848 173.891 222.978 173.928 223.08 174.009C223.183 174.089 223.251 174.206 223.269 174.335C223.288 174.465 223.256 174.596 223.179 174.702C223.103 174.808 222.989 174.88 222.861 174.904L222.877 174.887Z" fill="black"/>
<path d="M206.511 177.025L198.27 177.777C198.204 177.783 198.137 177.776 198.073 177.757C198.009 177.737 197.95 177.705 197.899 177.662C197.848 177.62 197.805 177.567 197.774 177.508C197.743 177.449 197.724 177.385 197.718 177.318C197.712 177.252 197.719 177.185 197.739 177.121C197.758 177.058 197.79 176.999 197.833 176.947C197.876 176.896 197.928 176.854 197.987 176.823C198.046 176.792 198.11 176.772 198.177 176.766L206.374 176.025C206.508 176.012 206.641 176.054 206.745 176.14C206.848 176.226 206.913 176.349 206.926 176.483C206.938 176.617 206.897 176.751 206.811 176.854C206.725 176.958 206.601 177.023 206.467 177.036L206.511 177.025Z" fill="black"/>
<path d="M190.063 178.364L181.822 178.809C181.755 178.813 181.688 178.803 181.625 178.781C181.561 178.759 181.503 178.724 181.453 178.679C181.403 178.634 181.362 178.58 181.333 178.519C181.304 178.459 181.288 178.393 181.284 178.326C181.28 178.259 181.29 178.192 181.312 178.128C181.335 178.065 181.369 178.007 181.414 177.957C181.459 177.907 181.513 177.866 181.574 177.837C181.635 177.808 181.7 177.791 181.767 177.788L190.008 177.343C190.075 177.339 190.143 177.349 190.206 177.371C190.269 177.393 190.328 177.428 190.378 177.473C190.428 177.518 190.468 177.572 190.497 177.633C190.526 177.693 190.543 177.759 190.547 177.826C190.55 177.893 190.541 177.96 190.518 178.024C190.496 178.087 190.461 178.145 190.416 178.195C190.372 178.245 190.317 178.286 190.257 178.315C190.196 178.344 190.13 178.361 190.063 178.364Z" fill="black"/>
<path d="M173.592 179.14L165.351 179.365C165.214 179.365 165.083 179.311 164.986 179.214C164.889 179.117 164.835 178.986 164.835 178.849C164.835 178.712 164.889 178.58 164.986 178.483C165.083 178.387 165.214 178.332 165.351 178.332L173.592 178.112C173.661 178.108 173.731 178.117 173.796 178.14C173.862 178.163 173.922 178.199 173.973 178.246C174.024 178.292 174.066 178.349 174.095 178.412C174.124 178.475 174.14 178.543 174.142 178.612C174.136 178.754 174.076 178.888 173.973 178.987C173.871 179.085 173.734 179.14 173.592 179.14Z" fill="black"/>
<path d="M157.105 179.502L148.864 179.573C148.754 179.537 148.659 179.467 148.591 179.373C148.523 179.28 148.486 179.167 148.486 179.051C148.486 178.935 148.523 178.823 148.591 178.729C148.659 178.635 148.754 178.565 148.864 178.529L157.105 178.469C157.242 178.469 157.373 178.523 157.47 178.62C157.567 178.717 157.622 178.848 157.622 178.985C157.622 179.122 157.567 179.253 157.47 179.35C157.373 179.447 157.242 179.502 157.105 179.502Z" fill="black"/>
<path d="M140.617 179.58L132.376 179.53C132.294 179.557 132.206 179.565 132.12 179.551C132.034 179.538 131.953 179.504 131.882 179.453C131.812 179.402 131.755 179.336 131.715 179.258C131.676 179.181 131.655 179.095 131.655 179.008C131.655 178.922 131.676 178.836 131.715 178.759C131.755 178.681 131.812 178.614 131.882 178.563C131.953 178.512 132.034 178.479 132.12 178.466C132.206 178.452 132.294 178.459 132.376 178.486L140.617 178.536C140.7 178.509 140.787 178.502 140.873 178.515C140.959 178.528 141.04 178.562 141.111 178.613C141.181 178.664 141.238 178.731 141.278 178.808C141.317 178.885 141.338 178.971 141.338 179.058C141.338 179.145 141.317 179.23 141.278 179.308C141.238 179.385 141.181 179.452 141.111 179.503C141.04 179.554 140.959 179.587 140.873 179.601C140.787 179.614 140.7 179.607 140.617 179.58Z" fill="black"/>
<path d="M124.13 179.441L115.889 179.32C115.775 179.287 115.674 179.218 115.603 179.123C115.532 179.028 115.493 178.912 115.493 178.793C115.493 178.674 115.532 178.558 115.603 178.463C115.674 178.368 115.775 178.299 115.889 178.266L124.13 178.392C124.212 178.366 124.299 178.361 124.384 178.375C124.469 178.389 124.549 178.423 124.618 178.474C124.688 178.525 124.744 178.592 124.783 178.669C124.822 178.746 124.842 178.831 124.842 178.917C124.842 179.003 124.822 179.088 124.783 179.164C124.744 179.241 124.688 179.308 124.618 179.359C124.549 179.41 124.469 179.444 124.384 179.458C124.299 179.473 124.212 179.467 124.13 179.441Z" fill="black"/>
<path d="M107.654 179.172L99.4129 179.001C99.2941 178.972 99.1887 178.903 99.1133 178.806C99.038 178.71 98.9971 178.591 98.9971 178.468C98.9971 178.346 99.038 178.227 99.1133 178.13C99.1887 178.034 99.2941 177.965 99.4129 177.936L107.654 178.111C107.735 178.089 107.821 178.086 107.904 178.102C107.986 178.119 108.064 178.154 108.132 178.205C108.199 178.256 108.253 178.322 108.29 178.398C108.328 178.474 108.347 178.557 108.347 178.642C108.347 178.726 108.328 178.809 108.29 178.885C108.253 178.961 108.199 179.027 108.132 179.078C108.064 179.129 107.986 179.164 107.904 179.181C107.821 179.197 107.735 179.194 107.654 179.172Z" fill="black"/>
<path d="M91.1711 178.815L82.9302 178.623C82.8487 178.641 82.7642 178.64 82.683 178.621C82.6019 178.601 82.5262 178.564 82.4618 178.511C82.3974 178.457 82.3459 178.39 82.3113 178.315C82.2766 178.239 82.2598 178.156 82.2619 178.072C82.2641 177.989 82.2852 177.907 82.3237 177.833C82.3622 177.759 82.417 177.695 82.4841 177.645C82.5512 177.595 82.6287 177.562 82.7107 177.546C82.7928 177.531 82.8772 177.535 82.9576 177.557L91.1985 177.749C91.3173 177.779 91.4228 177.848 91.4981 177.944C91.5735 178.041 91.6144 178.16 91.6144 178.282C91.6144 178.405 91.5735 178.524 91.4981 178.62C91.4228 178.717 91.3173 178.785 91.1985 178.815H91.1711Z" fill="black"/>
<path d="M74.6955 178.431L66.4545 178.238C66.3137 178.231 66.1809 178.17 66.0837 178.068C65.9865 177.966 65.9324 177.83 65.9326 177.689C65.9326 177.543 65.9905 177.404 66.0935 177.301C66.1966 177.198 66.3363 177.14 66.482 177.14L74.7229 177.337C74.8034 177.319 74.8869 177.319 74.9674 177.337C75.0478 177.356 75.1231 177.392 75.1876 177.444C75.2521 177.495 75.3042 177.56 75.34 177.635C75.3758 177.709 75.3944 177.791 75.3944 177.873C75.3944 177.956 75.3758 178.037 75.34 178.111C75.3042 178.186 75.2521 178.251 75.1876 178.303C75.1231 178.354 75.0478 178.39 74.9674 178.409C74.8869 178.427 74.8034 178.427 74.7229 178.409L74.6955 178.431Z" fill="black"/>
<path d="M58.219 178.058L49.9781 177.893C49.8324 177.893 49.6927 177.835 49.5896 177.732C49.4866 177.629 49.4287 177.489 49.4287 177.343C49.4287 177.198 49.4866 177.058 49.5896 176.955C49.6927 176.852 49.8324 176.794 49.9781 176.794L58.219 176.964C58.3647 176.964 58.5045 177.022 58.6075 177.125C58.7105 177.228 58.7684 177.368 58.7684 177.514C58.767 177.658 58.7084 177.797 58.6056 177.899C58.5027 178 58.3638 178.058 58.219 178.058Z" fill="black"/>
<path d="M41.7434 177.75L33.5025 177.629C33.3568 177.629 33.2171 177.571 33.114 177.468C33.011 177.365 32.9531 177.225 32.9531 177.08C32.9531 176.934 33.011 176.794 33.114 176.691C33.2171 176.588 33.3568 176.53 33.5025 176.53L41.7434 176.657C41.8891 176.657 42.0289 176.715 42.1319 176.818C42.2349 176.921 42.2928 177.06 42.2928 177.206C42.2928 177.352 42.2349 177.491 42.1319 177.595C42.0289 177.698 41.8891 177.755 41.7434 177.755V177.75Z" fill="black"/>
<path d="M25.2659 177.531L17.025 177.476C16.8793 177.476 16.7395 177.418 16.6365 177.315C16.5335 177.212 16.4756 177.072 16.4756 176.926C16.4756 176.781 16.5335 176.641 16.6365 176.538C16.7395 176.435 16.8793 176.377 17.025 176.377L25.2659 176.437C25.4116 176.437 25.5513 176.495 25.6544 176.598C25.7574 176.701 25.8153 176.841 25.8153 176.987C25.8138 177.132 25.7553 177.27 25.6524 177.372C25.5496 177.474 25.4106 177.531 25.2659 177.531Z" fill="black"/>
<path d="M8.7903 205.458L0.549394 205.491C0.403685 205.491 0.263953 205.433 0.160922 205.33C0.0578903 205.227 0 205.087 0 204.941C0 204.796 0.0578903 204.656 0.160922 204.553C0.263953 204.45 0.403685 204.392 0.549394 204.392L8.7903 204.354C8.936 204.354 9.07575 204.411 9.17879 204.514C9.28182 204.617 9.33969 204.757 9.33969 204.903C9.33969 205.049 9.28182 205.188 9.17879 205.291C9.07575 205.394 8.936 205.452 8.7903 205.452V205.458Z" fill="black"/>
<path fill-rule="evenodd" clip-rule="evenodd" d="M45.9192 43.2726C48.019 53.199 76.1713 58.6808 108.799 55.5166C120.764 54.3563 131.669 52.1944 140.579 49.4322C151.516 46.0417 159.447 41.7466 162.642 37.2885C163.943 35.474 164.46 33.6325 164.075 31.814L101.195 19.57C94.1099 20.2571 87.3964 21.2954 81.2486 22.6017C70.8397 24.8132 62.0527 27.7928 55.8303 31.1362C48.8036 34.9118 45.0474 39.1513 45.9192 43.2726Z" fill="black"/>
<path d="M101.195 19.57C133.823 16.4058 161.975 21.8877 164.075 31.814L101.195 19.57Z" fill="#F1EFED"/>
<path d="M55.8303 31.1362L56.1399 31.6151L55.8303 31.1362ZM140.579 49.4322L140.359 48.916L140.579 49.4322ZM81.2486 22.6017L81.4227 23.1299L81.2486 22.6017ZM162.642 37.2885L162.172 36.95L162.642 37.2885ZM108.685 54.9791C92.4107 56.5574 77.2736 55.9766 65.9642 53.7744C60.306 52.6726 55.6387 51.1712 52.2729 49.3533C48.8939 47.5282 46.9375 45.4482 46.4661 43.2196L45.3724 43.3256C45.9509 46.0601 48.3009 48.3878 51.8106 50.2834C55.3336 52.1863 60.1373 53.7187 65.8581 54.8327C77.3068 57.062 92.5598 57.64 108.913 56.0541L108.685 54.9791ZM101.309 20.1075C117.583 18.5292 132.721 19.1101 144.03 21.3122C149.688 22.414 154.355 23.9154 157.721 25.7333C161.1 27.5584 163.057 29.6384 163.528 31.8671L164.622 31.761C164.043 29.0265 161.693 26.6988 158.184 24.8032C154.661 22.9003 149.857 21.3679 144.136 20.2539C132.687 18.0246 117.434 17.4466 101.081 19.0325L101.309 20.1075ZM46.4661 43.2196C46.0746 41.3691 46.7059 39.4245 48.362 37.4402C50.0173 35.4568 52.6553 33.4874 56.1399 31.6151L55.5208 30.6573C51.9787 32.5606 49.2251 34.5987 47.4636 36.7093C45.703 38.8189 44.892 41.0548 45.3724 43.3256L46.4661 43.2196ZM140.359 48.916C131.487 51.6663 120.618 53.8218 108.685 54.9791L108.913 56.0541C120.909 54.8907 131.851 52.7226 140.799 49.9483L140.359 48.916ZM56.1399 31.6151C62.3069 28.3015 71.0435 25.3351 81.4227 23.1299L81.0745 22.0734C70.6358 24.2913 61.7985 27.2842 55.5208 30.6573L56.1399 31.6151ZM81.4227 23.1299C87.5498 21.828 94.2432 20.7927 101.309 20.1075L101.081 19.0325C93.9767 19.7215 87.2429 20.7629 81.0745 22.0734L81.4227 23.1299ZM163.528 31.8671C163.874 33.5008 163.423 35.2057 162.172 36.95L163.113 37.627C164.464 35.7424 165.046 33.7642 164.622 31.761L163.528 31.8671ZM162.172 36.95C160.632 39.0982 157.92 41.2451 154.2 43.2838C150.488 45.3185 145.804 47.228 140.359 48.916L140.799 49.9483C146.291 48.2459 151.041 46.3125 154.827 44.2376C158.606 42.1666 161.457 39.9369 163.113 37.627L162.172 36.95ZM164.128 31.2849L101.248 19.0409L101.142 20.0992L164.022 32.3432L164.128 31.2849Z" fill="black"/>
<path fill-rule="evenodd" clip-rule="evenodd" d="M73.0606 131.088C74.074 142.453 107.664 150.67 148.086 149.441C168.592 148.817 186.917 145.883 199.864 141.658C212.439 137.555 219.941 132.236 219.441 126.636L186.792 110.736C184.606 110.377 182.337 110.052 179.995 109.763C169.37 108.454 157.237 107.893 144.416 108.283C103.994 109.512 72.0471 119.722 73.0606 131.088Z" fill="black"/>
<path d="M186.792 110.736C205.961 113.887 218.82 119.67 219.441 126.636L186.792 110.736Z" fill="#F1EFED"/>
<path d="M199.864 141.658L199.665 141.137L199.864 141.658ZM179.995 109.763L180.031 109.22L179.995 109.763ZM186.792 110.736L186.851 110.196L186.792 110.736ZM148.037 148.894C127.862 149.507 109.412 147.762 95.8973 144.456C89.1361 142.802 83.6423 140.765 79.7907 138.459C75.9172 136.139 73.838 133.631 73.6097 131.071L72.5114 131.104C72.7898 134.227 75.2895 137.008 79.2624 139.388C83.257 141.78 88.8771 143.851 95.6929 145.519C109.332 148.855 127.888 150.604 148.135 149.988L148.037 148.894ZM73.6097 131.071C73.3814 128.511 75.0034 125.891 78.4433 123.349C81.8639 120.821 86.9657 118.462 93.3961 116.406C106.249 112.299 124.289 109.444 144.465 108.83L144.367 107.736C124.121 108.352 105.976 111.216 93.0039 115.362C86.5215 117.434 81.3002 119.835 77.7527 122.457C74.2244 125.064 72.233 127.982 72.5114 131.104L73.6097 131.071ZM218.892 126.653C219.117 129.176 217.546 131.757 214.207 134.265C210.885 136.76 205.926 139.094 199.665 141.137L200.063 142.179C206.376 140.119 211.456 137.742 214.904 135.152C218.335 132.575 220.265 129.697 219.991 126.62L218.892 126.653ZM199.665 141.137C186.778 145.342 168.507 148.271 148.037 148.894L148.135 149.988C168.676 149.363 187.055 146.424 200.063 142.179L199.665 141.137ZM144.465 108.83C157.26 108.441 169.365 109.001 179.959 110.307L180.031 109.22C169.376 107.906 157.214 107.345 144.367 107.736L144.465 108.83ZM179.959 110.307C182.294 110.594 184.555 110.918 186.733 111.276L186.851 110.196C184.657 109.836 182.381 109.51 180.031 109.22L179.959 110.307ZM186.733 111.276C196.292 112.847 204.239 115.069 209.858 117.747C212.668 119.085 214.868 120.526 216.397 122.033C217.922 123.538 218.752 125.083 218.892 126.653L219.991 126.62C219.82 124.706 218.81 122.917 217.151 121.279C215.494 119.645 213.166 118.136 210.287 116.764C204.529 114.021 196.462 111.776 186.851 110.196L186.733 111.276ZM219.661 126.147L187.012 110.248L186.573 111.225L219.222 127.125L219.661 126.147Z" fill="black"/>
<path fill-rule="evenodd" clip-rule="evenodd" d="M310.16 89.1795C356.4 90.857 394.408 85.4651 395.052 77.1363C395.697 68.8075 358.734 60.6958 312.493 59.0183C302.808 58.667 293.484 58.6258 284.79 58.8567L227.601 71.4913C228.231 79.6676 264.715 87.5309 310.16 89.1795Z" fill="black"/>
<path d="M227.601 71.0615C227.59 71.2049 227.59 71.3481 227.601 71.4913L284.79 58.8567C251.971 59.7283 228.11 64.4772 227.601 71.0615Z" fill="#F1EFED"/>
<path d="M227.601 71.4913L227.052 71.5552L227.601 71.4913ZM394.503 77.1164C394.44 77.9364 393.912 78.799 392.785 79.6899C391.66 80.5786 390.004 81.4407 387.842 82.256C383.523 83.8849 377.314 85.2803 369.649 86.3677C354.328 88.5412 333.3 89.4697 310.202 88.6317L310.118 89.7273C333.26 90.5668 354.356 89.6381 369.76 87.4528C377.458 86.3608 383.761 84.9514 388.195 83.2792C390.41 82.444 392.19 81.5315 393.448 80.5378C394.703 79.5461 395.504 78.4183 395.601 77.1562L394.503 77.1164ZM312.451 59.5661C335.549 60.404 356.315 62.8487 371.215 66.1186C378.67 67.7545 384.629 69.5912 388.672 71.5235C390.696 72.4907 392.21 73.4678 393.191 74.4329C394.175 75.4003 394.567 76.2963 394.503 77.1164L395.601 77.1562C395.699 75.8941 395.076 74.7146 393.981 73.6377C392.884 72.5585 391.255 71.5223 389.181 70.5316C385.03 68.548 378.98 66.6904 371.494 65.0476C356.513 61.76 335.678 59.3101 312.536 58.4706L312.451 59.5661ZM310.202 88.6317C287.502 87.8082 267.053 85.4328 252.212 82.2472C244.788 80.6537 238.79 78.8623 234.621 76.9722C232.535 76.0264 230.931 75.0669 229.838 74.1127C228.738 73.1526 228.213 72.2508 228.15 71.4273L227.052 71.5552C227.146 72.7759 227.9 73.9084 229.093 74.9497C230.293 75.9969 231.998 77.006 234.131 77.973C238.4 79.9084 244.482 81.7189 251.938 83.3193C266.858 86.5216 287.373 88.9021 310.118 89.7273L310.202 88.6317ZM228.15 71.4273C228.141 71.3116 228.141 71.1964 228.15 71.0815L227.052 71.0416C227.039 71.2133 227.039 71.3846 227.052 71.5552L228.15 71.4273ZM228.15 71.0815C228.2 70.432 228.539 69.7591 229.24 69.0621C229.943 68.3619 230.984 67.6661 232.364 66.9891C235.122 65.6353 239.124 64.4089 244.171 63.3531C254.257 61.2434 268.39 59.84 284.782 59.4046L284.797 58.3088C268.37 58.745 254.164 60.1519 243.987 62.2806C238.903 63.3441 234.794 64.5939 231.909 66.0096C230.467 66.7173 229.304 67.4796 228.477 68.3028C227.647 69.1292 227.129 70.045 227.052 71.0416L228.15 71.0815ZM284.782 59.4046C293.465 59.174 302.777 59.2151 312.451 59.5661L312.536 58.4706C302.84 58.1188 293.504 58.0775 284.797 58.3088L284.782 59.4046ZM227.699 72.0262L284.888 59.3916L284.691 58.3218L227.503 70.9564L227.699 72.0262Z" fill="black"/>
<ellipse rx="58.4728" ry="18.8849" transform="matrix(0.973745 -0.227641 0.410796 0.911727 102.349 30.5286)" fill="#F1EFED" stroke="black" stroke-width="1.09879" stroke-linejoin="round"/>
<ellipse rx="70.6832" ry="22.5489" transform="matrix(0.980371 -0.197163 0.507949 0.861387 138.315 118.185)" fill="#F1EFED" stroke="black" stroke-width="1.09879" stroke-linejoin="round"/>
<ellipse rx="82.6289" ry="20.437" transform="matrix(0.986843 0.161679 -0.329826 0.944042 314.717 63.2763)" fill="#F1EFED" stroke="black" stroke-width="1.09879" stroke-linejoin="round"/>
<path d="M78.854 128.468C78.7181 127.68 78.7797 126.931 79.0388 126.22C79.3045 125.501 79.7286 124.9 80.3112 124.418C80.8924 123.928 81.5772 123.615 82.3656 123.479C82.9726 123.375 83.5607 123.395 84.1296 123.541C84.6972 123.678 85.2076 123.931 85.6608 124.299C86.1205 124.659 86.4899 125.106 86.7691 125.643L85.4564 125.869C85.121 125.383 84.7028 125.029 84.2018 124.807C83.7073 124.575 83.1604 124.511 82.5613 124.615C82.0015 124.711 81.5168 124.937 81.1071 125.291C80.6974 125.646 80.4 126.087 80.2148 126.614C80.0362 127.132 79.9965 127.679 80.0957 128.254C80.1949 128.83 80.416 129.336 80.7591 129.772C81.1087 130.198 81.5359 130.51 82.0407 130.708C82.5455 130.905 83.0778 130.955 83.6376 130.858C84.2367 130.755 84.7312 130.516 85.1211 130.14C85.5175 129.755 85.7923 129.277 85.9457 128.707L87.2583 128.481C87.1748 129.08 86.9773 129.629 86.6657 130.129C86.3607 130.62 85.9645 131.03 85.477 131.357C84.9882 131.677 84.4403 131.889 83.8332 131.994C83.0449 132.13 82.2955 132.068 81.5852 131.809C80.8735 131.542 80.2727 131.118 79.7829 130.537C79.2995 129.946 78.9899 129.257 78.854 128.468ZM91.566 124.329C92.0627 124.243 92.5258 124.269 92.9553 124.406C93.3927 124.542 93.7617 124.799 94.0624 125.177C94.3616 125.548 94.5629 126.032 94.6662 126.632L95.2308 129.907L94.1074 130.101L93.5469 126.849C93.4572 126.329 93.2321 125.941 92.8716 125.687C92.5112 125.432 92.0984 125.345 91.6332 125.425C91.3179 125.48 91.0444 125.612 90.8128 125.822C90.5811 126.033 90.4149 126.293 90.314 126.603C90.2197 126.903 90.2004 127.215 90.2561 127.538L90.7962 130.672L89.6728 130.865L88.2357 122.528L89.3 122.345L89.8545 125.561C90.0356 125.246 90.2774 124.977 90.58 124.754C90.8825 124.532 91.2112 124.39 91.566 124.329ZM99.5733 122.949C99.7625 122.916 99.9419 122.897 100.112 122.892L100.301 123.992C100.154 123.985 99.9264 124.008 99.6189 124.061C99.272 124.121 98.9782 124.253 98.7373 124.456C98.5043 124.659 98.336 124.907 98.2324 125.201C98.1354 125.486 98.114 125.786 98.1684 126.101L98.7208 129.306L97.5974 129.499L96.5782 123.587L97.6425 123.403L97.7994 124.314C97.9658 123.96 98.2029 123.664 98.5106 123.424C98.8249 123.175 99.1791 123.017 99.5733 122.949ZM105.199 128.311C104.616 128.411 104.061 128.369 103.534 128.184C103.005 127.991 102.563 127.686 102.207 127.268C101.849 126.843 101.622 126.346 101.524 125.778C101.426 125.211 101.475 124.671 101.671 124.158C101.865 123.637 102.18 123.202 102.614 122.851C103.048 122.492 103.556 122.262 104.139 122.161C104.715 122.062 105.263 122.11 105.784 122.304C106.311 122.489 106.753 122.795 107.11 123.22C107.466 123.638 107.693 124.13 107.791 124.698C107.889 125.266 107.841 125.81 107.646 126.33C107.451 126.843 107.136 127.279 106.703 127.638C106.276 127.987 105.775 128.212 105.199 128.311ZM105.02 127.27C105.383 127.208 105.699 127.064 105.968 126.839C106.237 126.606 106.431 126.321 106.552 125.983C106.671 125.638 106.698 125.276 106.632 124.898C106.567 124.519 106.421 124.191 106.195 123.914C105.967 123.628 105.688 123.425 105.359 123.303C105.028 123.173 104.681 123.14 104.319 123.202C103.948 123.266 103.625 123.415 103.349 123.649C103.079 123.875 102.885 124.16 102.765 124.505C102.645 124.842 102.617 125.2 102.683 125.579C102.748 125.957 102.894 126.289 103.122 126.574C103.349 126.852 103.627 127.056 103.958 127.185C104.295 127.306 104.649 127.334 105.02 127.27ZM116.481 120.034C116.954 119.953 117.393 119.982 117.799 120.124C118.213 120.263 118.562 120.524 118.847 120.905C119.138 121.277 119.336 121.762 119.439 122.361L120.004 125.637L118.88 125.831L118.32 122.579C118.23 122.058 118.009 121.67 117.656 121.415C117.312 121.157 116.915 121.068 116.465 121.145C115.976 121.229 115.612 121.471 115.372 121.869C115.132 122.268 115.056 122.719 115.143 123.224L115.687 126.381L114.564 126.575L114.003 123.323C113.914 122.802 113.692 122.414 113.34 122.159C112.995 121.901 112.598 121.812 112.149 121.889C111.66 121.973 111.296 122.215 111.056 122.613C110.816 123.012 110.74 123.463 110.827 123.968L111.371 127.125L110.248 127.319L109.228 121.406L110.293 121.223L110.454 122.157C110.611 121.797 110.839 121.494 111.137 121.248C111.444 121 111.786 120.843 112.164 120.778C112.629 120.698 113.065 120.728 113.471 120.87C113.883 121.001 114.226 121.247 114.499 121.606C114.665 121.204 114.923 120.863 115.272 120.583C115.629 120.295 116.031 120.112 116.481 120.034ZM123.82 118.769C124.427 118.664 124.977 118.704 125.472 118.886C125.974 119.068 126.388 119.378 126.716 119.816C127.042 120.247 127.26 120.782 127.37 121.421C127.398 121.586 127.415 121.709 127.421 121.789L122.573 122.625C122.73 123.069 123.008 123.41 123.407 123.65C123.812 123.881 124.247 123.956 124.712 123.876C125.477 123.744 125.973 123.37 126.199 122.755L127.358 122.555C127.264 123.14 126.992 123.653 126.54 124.096C126.088 124.532 125.538 124.805 124.892 124.916C124.316 125.016 123.773 124.975 123.263 124.795C122.752 124.607 122.326 124.303 121.986 123.883C121.644 123.455 121.423 122.949 121.322 122.366C121.222 121.782 121.262 121.236 121.442 120.726C121.62 120.208 121.916 119.779 122.328 119.44C122.747 119.092 123.244 118.868 123.82 118.769ZM123.967 119.767C123.502 119.847 123.125 120.062 122.837 120.412C122.556 120.761 122.415 121.171 122.415 121.641L126.046 121.016C125.917 120.551 125.658 120.206 125.271 119.98C124.891 119.754 124.456 119.682 123.967 119.767ZM135.176 116.812C135.784 116.707 136.334 116.746 136.828 116.929C137.33 117.11 137.745 117.42 138.072 117.859C138.398 118.29 138.616 118.824 138.726 119.463C138.755 119.629 138.772 119.751 138.778 119.832L133.929 120.667C134.087 121.111 134.365 121.453 134.764 121.693C135.169 121.923 135.604 121.998 136.069 121.918C136.834 121.786 137.329 121.413 137.556 120.797L138.715 120.597C138.621 121.182 138.348 121.696 137.897 122.139C137.444 122.574 136.895 122.847 136.248 122.959C135.673 123.058 135.13 123.018 134.62 122.838C134.109 122.65 133.683 122.346 133.343 121.925C133.001 121.497 132.78 120.991 132.679 120.408C132.579 119.825 132.618 119.278 132.798 118.768C132.977 118.25 133.272 117.822 133.685 117.483C134.104 117.134 134.601 116.911 135.176 116.812ZM135.324 117.809C134.859 117.889 134.482 118.104 134.193 118.454C133.912 118.803 133.772 119.213 133.772 119.684L137.402 119.058C137.274 118.593 137.015 118.248 136.627 118.023C136.247 117.796 135.813 117.725 135.324 117.809ZM144.914 121.343L142.814 119.404L141.473 121.936L140.113 122.171L141.961 118.759L139.189 116.242L140.584 116.001L142.569 117.839L143.789 115.449L145.184 115.208L143.421 118.471L146.31 121.103L144.914 121.343ZM148.607 115.714L149.145 118.836C149.189 119.088 149.281 119.271 149.423 119.385C149.572 119.497 149.796 119.528 150.096 119.476C150.38 119.427 150.616 119.362 150.805 119.281L150.982 120.309C150.782 120.417 150.528 120.497 150.22 120.55C148.967 120.767 148.234 120.26 148.022 119.03L147.484 115.908L146.301 116.112L146.118 115.047L147.3 114.844L147.035 113.306L148.159 113.113L148.424 114.65L150.079 114.364L150.263 115.429L148.607 115.714ZM154.331 113.51C154.938 113.405 155.488 113.444 155.983 113.627C156.485 113.808 156.899 114.118 157.227 114.557C157.553 114.988 157.771 115.523 157.881 116.161C157.909 116.327 157.926 116.45 157.932 116.53L153.084 117.366C153.241 117.809 153.519 118.151 153.918 118.391C154.323 118.621 154.758 118.697 155.223 118.617C155.988 118.485 156.484 118.111 156.71 117.496L157.869 117.296C157.775 117.88 157.502 118.394 157.051 118.837C156.599 119.272 156.049 119.546 155.403 119.657C154.827 119.756 154.284 119.716 153.774 119.536C153.263 119.348 152.837 119.044 152.497 118.624C152.155 118.196 151.934 117.69 151.833 117.106C151.733 116.523 151.773 115.976 151.953 115.466C152.131 114.948 152.427 114.52 152.839 114.181C153.258 113.833 153.755 113.609 154.331 113.51ZM154.478 114.507C154.013 114.587 153.636 114.803 153.348 115.153C153.067 115.502 152.926 115.911 152.926 116.382L156.557 115.756C156.428 115.292 156.169 114.946 155.782 114.721C155.402 114.494 154.967 114.423 154.478 114.507ZM162.302 112.136C162.783 112.053 163.23 112.081 163.644 112.221C164.066 112.36 164.423 112.619 164.716 112.998C165.015 113.369 165.216 113.854 165.32 114.453L165.884 117.729L164.761 117.922L164.2 114.67C164.111 114.15 163.885 113.763 163.525 113.508C163.165 113.254 162.752 113.166 162.287 113.247C161.948 113.305 161.662 113.439 161.431 113.65C161.206 113.851 161.046 114.102 160.951 114.402C160.865 114.701 160.85 115.012 160.905 115.336L161.45 118.493L160.326 118.687L159.307 112.774L160.371 112.59L160.534 113.536C160.699 113.175 160.935 112.871 161.241 112.623C161.554 112.366 161.908 112.204 162.302 112.136ZM170.352 117.08C169.611 117.208 168.955 117.143 168.382 116.884C167.817 116.616 167.441 116.178 167.255 115.568L168.378 115.375C168.539 115.696 168.772 115.916 169.076 116.034C169.387 116.143 169.771 116.158 170.228 116.079C170.654 116.005 170.986 115.879 171.223 115.7C171.458 115.514 171.557 115.31 171.519 115.089C171.481 114.868 171.361 114.711 171.157 114.616C170.961 114.512 170.615 114.461 170.121 114.466L169.426 114.463C167.964 114.456 167.156 114.007 167.002 113.116C166.913 112.595 167.069 112.138 167.472 111.744C167.874 111.342 168.445 111.077 169.186 110.949C169.856 110.834 170.455 110.893 170.982 111.127C171.508 111.353 171.882 111.731 172.103 112.261L170.909 112.467C170.773 112.246 170.561 112.096 170.271 112.016C169.98 111.929 169.673 111.913 169.349 111.968C168.94 112.039 168.623 112.158 168.401 112.327C168.184 112.486 168.095 112.672 168.131 112.885C168.164 113.074 168.282 113.216 168.485 113.311C168.687 113.398 168.994 113.438 169.407 113.432L170.113 113.432C170.94 113.427 171.546 113.55 171.93 113.801C172.313 114.043 172.546 114.409 172.631 114.897C172.72 115.418 172.561 115.88 172.151 116.283C171.748 116.677 171.149 116.943 170.352 117.08ZM174.963 110.075L175.982 115.988L174.859 116.182L173.84 110.269L174.963 110.075ZM174.626 107.698L174.85 108.999L173.597 109.215L173.373 107.914L174.626 107.698ZM181.098 115.228C180.515 115.329 179.959 115.286 179.432 115.101C178.904 114.908 178.461 114.603 178.105 114.185C177.748 113.76 177.52 113.263 177.422 112.696C177.325 112.128 177.374 111.588 177.569 111.075C177.764 110.554 178.078 110.119 178.513 109.768C178.946 109.409 179.455 109.179 180.038 109.079C180.614 108.979 181.162 109.027 181.682 109.221C182.209 109.407 182.652 109.712 183.009 110.137C183.365 110.555 183.592 111.048 183.69 111.615C183.788 112.183 183.74 112.727 183.545 113.247C183.349 113.76 183.035 114.196 182.602 114.555C182.175 114.904 181.674 115.129 181.098 115.228ZM180.919 114.187C181.281 114.125 181.597 113.981 181.867 113.756C182.135 113.523 182.33 113.238 182.45 112.9C182.569 112.555 182.596 112.193 182.531 111.815C182.466 111.437 182.32 111.109 182.094 110.831C181.866 110.545 181.587 110.342 181.258 110.22C180.927 110.09 180.58 110.057 180.217 110.119C179.847 110.183 179.524 110.332 179.247 110.567C178.978 110.792 178.783 111.077 178.664 111.422C178.544 111.759 178.516 112.117 178.581 112.496C178.647 112.874 178.793 113.206 179.021 113.492C179.247 113.769 179.526 113.973 179.857 114.102C180.194 114.223 180.548 114.251 180.919 114.187ZM188.122 107.685C188.603 107.602 189.05 107.631 189.464 107.77C189.886 107.909 190.243 108.168 190.536 108.548C190.835 108.918 191.036 109.403 191.14 110.002L191.704 113.278L190.581 113.472L190.02 110.22C189.931 109.699 189.705 109.312 189.345 109.057C188.985 108.803 188.572 108.716 188.107 108.796C187.768 108.854 187.482 108.989 187.251 109.199C187.026 109.4 186.866 109.651 186.771 109.952C186.685 110.251 186.67 110.562 186.725 110.885L187.27 114.042L186.146 114.236L185.127 108.323L186.191 108.14L186.354 109.086C186.519 108.725 186.755 108.42 187.061 108.172C187.374 107.916 187.728 107.753 188.122 107.685ZM196.172 112.63C195.431 112.757 194.775 112.692 194.202 112.433C193.637 112.166 193.261 111.727 193.075 111.118L194.198 110.924C194.359 111.245 194.592 111.465 194.896 111.583C195.207 111.692 195.591 111.707 196.048 111.628C196.474 111.555 196.806 111.429 197.043 111.25C197.278 111.063 197.377 110.859 197.339 110.638C197.301 110.418 197.181 110.26 196.977 110.165C196.781 110.061 196.435 110.011 195.941 110.015L195.246 110.013C193.784 110.005 192.976 109.556 192.822 108.665C192.733 108.145 192.889 107.687 193.292 107.293C193.694 106.891 194.265 106.626 195.006 106.499C195.676 106.383 196.275 106.442 196.802 106.676C197.328 106.902 197.702 107.28 197.923 107.81L196.729 108.016C196.593 107.796 196.381 107.646 196.091 107.566C195.8 107.478 195.493 107.462 195.169 107.518C194.76 107.588 194.443 107.708 194.221 107.876C194.004 108.035 193.915 108.221 193.951 108.434C193.984 108.623 194.102 108.765 194.305 108.86C194.507 108.947 194.814 108.987 195.227 108.981L195.933 108.981C196.76 108.977 197.366 109.099 197.75 109.35C198.133 109.592 198.366 109.958 198.451 110.447C198.54 110.967 198.381 111.429 197.971 111.832C197.568 112.227 196.969 112.492 196.172 112.63Z" fill="black"/>
<path d="M247.383 51.9883C247.656 51.2364 248.09 50.5823 248.686 50.0262C249.291 49.4638 249.982 49.0586 250.758 48.8106C251.537 48.5551 252.321 48.4917 253.11 48.6202C253.718 48.7192 254.246 48.9245 254.693 49.2362C255.143 49.5404 255.482 49.9301 255.711 50.4054C255.95 50.8744 256.062 51.3944 256.047 51.9653L254.732 51.7513C254.671 51.2077 254.467 50.7563 254.12 50.3973C253.785 50.0321 253.317 49.8006 252.717 49.7029C252.156 49.6117 251.599 49.6604 251.046 49.849C250.492 50.0376 249.998 50.3394 249.563 50.7543C249.138 51.163 248.826 51.6419 248.627 52.1907C248.427 52.7396 248.374 53.2646 248.468 53.7657C248.573 54.2606 248.806 54.6769 249.169 55.0146C249.531 55.3523 249.993 55.5668 250.553 55.6581C251.153 55.7558 251.726 55.6977 252.272 55.484C252.829 55.264 253.321 54.9221 253.749 54.4582L255.064 54.6722C254.685 55.184 254.228 55.6152 253.691 55.9657C253.164 56.3101 252.595 56.552 251.984 56.6914C251.376 56.8233 250.768 56.8398 250.16 56.7408C249.37 56.6123 248.716 56.3186 248.197 55.8598C247.68 55.3935 247.345 54.8212 247.19 54.1429C247.045 53.4584 247.11 52.7402 247.383 51.9883ZM263.451 52.8124L261.403 58.4517L260.337 58.2781L260.664 57.3758C260.331 57.6481 259.957 57.85 259.541 57.9814C259.136 58.1066 258.736 58.137 258.341 58.0728C257.86 57.9944 257.461 57.8259 257.145 57.5674C256.837 57.3102 256.64 56.9675 256.553 56.5392C256.476 56.1047 256.542 55.6017 256.75 55.0303L257.885 51.9061L259.01 52.0893L257.883 55.1909C257.703 55.6872 257.713 56.107 257.915 56.4504C258.116 56.7937 258.45 57.0033 258.916 57.0792C259.255 57.1345 259.579 57.1075 259.886 56.9982C260.204 56.8828 260.478 56.7044 260.708 56.463C260.945 56.223 261.12 55.9489 261.232 55.6406L262.326 52.6292L263.451 52.8124ZM265.935 59.309C265.193 59.1881 264.625 58.9205 264.232 58.5061C263.849 58.0855 263.727 57.5718 263.864 56.9649L264.989 57.1481C264.974 57.4881 265.076 57.7596 265.295 57.9625C265.525 58.1591 265.868 58.2947 266.326 58.3693C266.753 58.4387 267.119 58.4307 267.426 58.3453C267.736 58.2524 267.929 58.1007 268.006 57.8901C268.082 57.6796 268.052 57.4994 267.914 57.3495C267.786 57.1934 267.496 57.0385 267.041 56.8849L266.407 56.6622C265.073 56.1902 264.561 55.5294 264.869 54.6798C265.05 54.1835 265.423 53.8223 265.991 53.5961C266.561 53.3623 267.217 53.3059 267.959 53.4267C268.63 53.536 269.148 53.7796 269.512 54.1575C269.88 54.5278 270.031 54.9865 269.966 55.5334L268.77 55.3386C268.757 55.0976 268.638 54.8951 268.413 54.7311C268.191 54.5596 267.919 54.4475 267.595 54.3948C267.184 54.3279 266.835 54.3347 266.546 54.4152C266.268 54.4894 266.092 54.628 266.019 54.831C265.953 55.0115 265.989 55.1767 266.127 55.3265C266.268 55.4689 266.529 55.6029 266.909 55.7286L267.555 55.9533C268.314 56.2122 268.806 56.5153 269.031 56.8625C269.259 57.2022 269.289 57.6052 269.119 58.0714C268.939 58.5676 268.56 58.932 267.982 59.1644C267.415 59.3906 266.732 59.4388 265.935 59.309ZM273.612 55.5417L272.53 58.5192C272.443 58.7598 272.435 58.9537 272.507 59.1008C272.587 59.2492 272.777 59.3478 273.077 59.3967C273.362 59.4429 273.611 59.4596 273.824 59.4466L273.468 60.4278C273.23 60.4608 272.957 60.4522 272.649 60.4021C271.394 60.1977 270.979 59.509 271.405 58.336L272.487 55.3585L271.303 55.1657L271.671 54.1506L272.856 54.3434L273.389 52.8772L274.514 53.0604L273.981 54.5266L275.639 54.7965L275.27 55.8116L273.612 55.5417ZM277.946 61.2645C277.362 61.1693 276.875 60.9547 276.487 60.6207C276.101 60.2791 275.85 59.864 275.735 59.3754C275.622 58.8792 275.665 58.3605 275.861 57.8191C276.058 57.2777 276.375 56.8077 276.813 56.4091C277.253 56.0029 277.76 55.7112 278.335 55.534C278.912 55.3492 279.493 55.3044 280.077 55.3996C280.654 55.4934 281.131 55.7105 281.509 56.0508C281.898 56.3848 282.148 56.7999 282.261 57.2961C282.376 57.7847 282.335 58.2997 282.139 58.8411C281.942 59.3824 281.623 59.8562 281.183 60.2624C280.746 60.661 280.238 60.9527 279.661 61.1374C279.094 61.316 278.523 61.3583 277.946 61.2645ZM278.307 60.2719C278.67 60.3311 279.032 60.3023 279.392 60.1858C279.755 60.0617 280.076 59.8672 280.357 59.6022C280.64 59.3297 280.847 59.013 280.978 58.6521C281.109 58.2912 281.141 57.95 281.074 57.6284C281.009 57.2994 280.857 57.0277 280.617 56.8135C280.38 56.5917 280.08 56.4512 279.717 56.3921C279.345 56.3317 278.974 56.3629 278.604 56.4857C278.244 56.6022 277.922 56.7968 277.639 57.0692C277.359 57.3342 277.153 57.6472 277.022 58.0081C276.891 58.369 276.857 58.714 276.922 59.043C276.989 59.3645 277.141 59.6362 277.378 59.858C277.626 60.0735 277.936 60.2115 278.307 60.2719ZM292.438 57.4119C292.912 57.489 293.298 57.6555 293.599 57.9114C293.907 58.1686 294.095 58.5138 294.163 58.9471C294.242 59.374 294.178 59.8733 293.97 60.4447L292.835 63.5689L291.71 63.3857L292.837 60.2841C293.017 59.7878 293.011 59.3687 292.817 59.0266C292.631 58.6858 292.314 58.4787 291.863 58.4054C291.374 58.3257 290.919 58.4269 290.499 58.7089C290.079 58.9909 289.781 59.3725 289.606 59.8537L288.512 62.8651L287.387 62.6819L288.514 59.5803C288.694 59.084 288.687 58.6649 288.494 58.3228C288.308 57.982 287.99 57.7749 287.54 57.7016C287.051 57.6219 286.596 57.7231 286.176 58.0051C285.755 58.2871 285.458 58.6687 285.283 59.1499L284.189 62.1613L283.064 61.9781L285.113 56.3388L286.179 56.5123L285.855 57.4033C286.18 57.1298 286.541 56.9298 286.939 56.8033C287.344 56.6781 287.736 56.6464 288.115 56.7081C288.581 56.7839 288.964 56.9498 289.264 57.2057C289.574 57.4554 289.764 57.7849 289.833 58.1943C290.187 57.8857 290.595 57.6614 291.056 57.5213C291.527 57.3751 291.988 57.3386 292.438 57.4119ZM304.941 57.1776C305.825 57.3216 306.528 57.6192 307.05 58.0705C307.58 58.5231 307.909 59.0784 308.038 59.7365C308.169 60.3871 308.1 61.0846 307.829 61.8289C307.559 62.5733 307.141 63.218 306.575 63.763C306.012 64.3004 305.339 64.6887 304.558 64.9279C303.785 65.1684 302.956 65.2166 302.072 65.0727L299.23 64.6099L302.098 56.7149L304.941 57.1776ZM302.465 63.9899C303.089 64.0915 303.676 64.0636 304.227 63.9064C304.778 63.7491 305.253 63.4761 305.654 63.0874C306.065 62.6924 306.375 62.2055 306.586 61.6265C306.796 61.0475 306.853 60.5232 306.756 60.0534C306.67 59.5775 306.436 59.185 306.055 58.8761C305.673 58.5672 305.171 58.3619 304.547 58.2604L302.889 57.9904L300.807 63.72L302.465 63.9899ZM313.06 60.7691C313.668 60.8681 314.152 61.0783 314.512 61.3997C314.879 61.7224 315.102 62.133 315.18 62.6315C315.261 63.1225 315.191 63.6725 314.97 64.2815C314.912 64.4394 314.866 64.5554 314.831 64.6293L309.975 63.8387C309.895 64.2877 309.977 64.6833 310.221 65.0256C310.475 65.3616 310.835 65.5676 311.301 65.6434C312.067 65.7681 312.709 65.5899 313.227 65.1087L314.387 65.2977C314.007 65.7932 313.498 66.1683 312.862 66.4231C312.229 66.6704 311.588 66.7413 310.941 66.6359C310.364 66.5421 309.888 66.3332 309.512 66.0092C309.139 65.6777 308.903 65.2689 308.804 64.7829C308.707 64.2893 308.76 63.7643 308.962 63.2079C309.164 62.6515 309.476 62.1727 309.898 61.7715C310.322 61.3628 310.809 61.0716 311.357 60.8981C311.916 60.7182 312.483 60.6753 313.06 60.7691ZM312.692 61.7127C312.226 61.6368 311.773 61.7104 311.332 61.9333C310.899 62.1575 310.564 62.4812 310.327 62.9045L313.963 63.4965C314.08 63.0376 314.017 62.6452 313.776 62.3192C313.543 61.9945 313.181 61.7924 312.692 61.7127ZM318.035 67.7909C317.293 67.67 316.725 67.4024 316.332 66.988C315.949 66.5674 315.827 66.0536 315.964 65.4468L317.089 65.6299C317.074 65.97 317.176 66.2414 317.395 66.4443C317.625 66.641 317.968 66.7766 318.426 66.8512C318.853 66.9206 319.219 66.9126 319.526 66.8272C319.836 66.7343 320.029 66.5825 320.106 66.372C320.182 66.1615 320.152 65.9813 320.014 65.8314C319.886 65.6753 319.596 65.5204 319.141 65.3668L318.507 65.1441C317.173 64.6721 316.661 64.0113 316.969 63.1616C317.15 62.6654 317.523 62.3041 318.091 62.0779C318.661 61.8442 319.317 61.7878 320.059 61.9086C320.73 62.0179 321.248 62.2614 321.613 62.6393C321.98 63.0097 322.131 63.4684 322.066 64.0153L320.87 63.8205C320.857 63.5795 320.738 63.377 320.513 63.213C320.291 63.0415 320.019 62.9293 319.695 62.8766C319.284 62.8098 318.935 62.8166 318.646 62.8971C318.368 62.9713 318.192 63.1099 318.119 63.3129C318.053 63.4934 318.089 63.6585 318.227 63.8084C318.368 63.9508 318.629 64.0848 319.009 64.2105L319.655 64.4351C320.414 64.6941 320.906 64.9972 321.131 65.3444C321.359 65.6841 321.389 66.0871 321.219 66.5532C321.039 67.0495 320.66 67.4139 320.082 67.6463C319.515 67.8725 318.832 67.9207 318.035 67.7909ZM325.503 66.1157L324.423 66.7045L323.735 68.5993L322.61 68.4162L325.498 60.4647L326.624 60.6479L324.874 65.4639L328.543 63.4093L330.036 63.6523L326.614 65.5083L328.235 69.3321L326.731 69.0872L325.503 66.1157ZM332.99 65.2083L331.908 68.1859C331.821 68.4265 331.813 68.6204 331.885 68.7675C331.965 68.9159 332.155 69.0145 332.455 69.0633C332.739 69.1096 332.988 69.1263 333.202 69.1133L332.845 70.0945C332.608 70.1275 332.335 70.1189 332.027 70.0688C330.771 69.8644 330.357 69.1757 330.783 68.0027L331.865 65.0251L330.68 64.8323L331.049 63.8172L332.234 64.0101L332.766 62.5438L333.891 62.727L333.359 64.1933L335.017 64.4632L334.648 65.4783L332.99 65.2083ZM337.324 70.9311C336.74 70.836 336.253 70.6214 335.864 70.2873C335.478 69.9458 335.228 69.5307 335.112 69.042C335 68.5459 335.042 68.0272 335.239 67.4858C335.436 66.9444 335.753 66.4744 336.19 66.0758C336.63 65.6696 337.138 65.3779 337.712 65.2007C338.29 65.0159 338.871 64.9711 339.455 65.0662C340.031 65.1601 340.509 65.3771 340.887 65.7174C341.275 66.0515 341.526 66.4666 341.638 66.9627C341.754 67.4514 341.713 67.9664 341.516 68.5077C341.32 69.0491 341.001 69.5229 340.561 69.929C340.123 70.3277 339.616 70.6194 339.039 70.8041C338.472 70.9826 337.9 71.025 337.324 70.9311ZM337.685 69.9386C338.048 69.9977 338.409 69.969 338.77 69.8524C339.132 69.7284 339.454 69.5338 339.734 69.2689C340.017 68.9964 340.224 68.6797 340.355 68.3188C340.487 67.9578 340.519 67.6166 340.451 67.2951C340.387 66.9661 340.235 66.6944 339.995 66.4801C339.758 66.2583 339.457 66.1179 339.094 66.0588C338.723 65.9983 338.352 66.0295 337.981 66.1523C337.621 66.2689 337.3 66.4634 337.017 66.7359C336.736 67.0009 336.531 67.3138 336.4 67.6747C336.268 68.0357 336.235 68.3806 336.3 68.7097C336.367 69.0312 336.519 69.3029 336.756 69.5247C337.004 69.7402 337.313 69.8782 337.685 69.9386ZM347.658 66.4017C348.179 66.4866 348.607 66.6915 348.94 67.0166C349.276 67.3341 349.486 67.7346 349.57 68.2181C349.653 68.7016 349.593 69.2253 349.388 69.7892C349.183 70.3532 348.878 70.837 348.472 71.2408C348.066 71.6446 347.603 71.9396 347.084 72.1258C346.567 72.3045 346.048 72.3515 345.527 72.2666C345.132 72.2024 344.791 72.0592 344.504 71.8372C344.219 71.6077 344.009 71.3227 343.874 70.9821L342.87 73.7453L341.745 73.5622L344.49 66.0055L345.556 66.179L345.224 67.0926C345.595 66.8104 345.99 66.608 346.411 66.4854C346.832 66.3628 347.248 66.3349 347.658 66.4017ZM345.698 71.2433C346.046 71.2998 346.388 71.2679 346.724 71.1475C347.061 71.027 347.361 70.833 347.626 70.5655C347.893 70.2905 348.093 69.9687 348.227 69.6003C348.361 69.2318 348.402 68.8881 348.351 68.5692C348.302 68.2427 348.17 67.9743 347.954 67.7639C347.737 67.5534 347.455 67.42 347.108 67.3634C346.761 67.3068 346.415 67.3381 346.07 67.4573C345.726 67.5764 345.42 67.7735 345.153 68.0486C344.889 68.3161 344.689 68.6341 344.556 69.0025C344.422 69.371 344.379 69.7184 344.428 70.0449C344.479 70.3638 344.617 70.6292 344.841 70.8409C345.065 71.0526 345.351 71.1867 345.698 71.2433ZM361.67 68.8024L359.621 74.4417L358.496 74.2585L358.803 73.4126C358.449 73.6735 358.067 73.8622 357.657 73.9785C357.249 74.0874 356.848 74.1097 356.454 74.0454C355.932 73.9606 355.504 73.7594 355.167 73.4418C354.834 73.1168 354.625 72.7125 354.542 72.229C354.458 71.7455 354.519 71.2218 354.724 70.6579C354.929 70.094 355.234 69.6101 355.64 69.2063C356.046 68.8026 356.507 68.5113 357.024 68.3326C357.543 68.1464 358.063 68.0957 358.584 68.1805C358.995 68.2474 359.345 68.3999 359.635 68.6382C359.925 68.8766 360.137 69.1779 360.272 69.5424L360.604 68.6288L361.67 68.8024ZM357.004 73.0837C357.351 73.1403 357.697 73.109 358.041 72.9899C358.386 72.8707 358.69 72.6774 358.955 72.4099C359.222 72.1348 359.422 71.8131 359.556 71.4446C359.69 71.0762 359.731 70.7325 359.68 70.4135C359.631 70.0871 359.495 69.818 359.271 69.6063C359.046 69.3946 358.761 69.2605 358.413 69.2039C358.066 69.1473 357.724 69.1793 357.387 69.2997C357.051 69.4201 356.749 69.6179 356.482 69.8929C356.217 70.1605 356.018 70.4784 355.884 70.8469C355.751 71.2153 355.708 71.5628 355.757 71.8892C355.808 72.2082 355.942 72.4729 356.158 72.6833C356.374 72.8937 356.656 73.0272 357.004 73.0837ZM367.328 69.604C367.849 69.6888 368.277 69.8938 368.61 70.2189C368.946 70.5364 369.156 70.9369 369.24 71.4204C369.323 71.9039 369.263 72.4276 369.058 72.9915C368.853 73.5554 368.548 74.0393 368.142 74.4431C367.736 74.8468 367.273 75.1418 366.754 75.3281C366.237 75.5068 365.718 75.5537 365.197 75.4689C364.802 75.4046 364.461 75.2615 364.174 75.0395C363.889 74.81 363.679 74.525 363.544 74.1843L362.54 76.9476L361.415 76.7644L364.16 69.2077L365.226 69.3813L364.894 70.2948C365.264 70.0127 365.66 69.8103 366.081 69.6876C366.502 69.565 366.917 69.5371 367.328 69.604ZM365.368 74.4455C365.716 74.5021 366.058 74.4701 366.394 74.3497C366.731 74.2293 367.031 74.0353 367.296 73.7678C367.563 73.4927 367.763 73.171 367.897 72.8025C368.031 72.4341 368.072 72.0904 368.021 71.7715C367.972 71.445 367.84 71.1765 367.623 70.9661C367.407 70.7557 367.125 70.6222 366.778 70.5657C366.431 70.5091 366.085 70.5404 365.74 70.6595C365.396 70.7787 365.09 70.9758 364.823 71.2508C364.558 71.5184 364.359 71.8364 364.225 72.2048C364.092 72.5732 364.049 72.9207 364.098 73.2472C364.149 73.5661 364.287 73.8314 364.511 74.0431C364.735 74.2548 365.021 74.389 365.368 74.4455ZM375.207 70.8867C375.728 70.9715 376.156 71.1765 376.489 71.5016C376.825 71.8191 377.035 72.2196 377.119 72.7031C377.202 73.1866 377.142 73.7103 376.937 74.2742C376.732 74.8381 376.427 75.322 376.021 75.7258C375.615 76.1296 375.152 76.4246 374.633 76.6108C374.116 76.7895 373.597 76.8364 373.076 76.7516C372.681 76.6873 372.34 76.5442 372.053 76.3222C371.769 76.0927 371.558 75.8077 371.423 75.4671L370.419 78.2303L369.294 78.0471L372.039 70.4904L373.105 70.664L372.773 71.5776C373.144 71.2954 373.539 71.093 373.96 70.9704C374.381 70.8477 374.797 70.8199 375.207 70.8867ZM373.247 75.7282C373.595 75.7848 373.937 75.7529 374.273 75.6324C374.61 75.512 374.91 75.318 375.175 75.0505C375.442 74.7754 375.642 74.4537 375.776 74.0852C375.91 73.7168 375.951 73.3731 375.9 73.0542C375.851 72.7277 375.719 72.4592 375.503 72.2488C375.286 72.0384 375.004 71.9049 374.657 71.8484C374.31 71.7918 373.964 71.8231 373.619 71.9422C373.275 72.0614 372.969 72.2585 372.702 72.5335C372.438 72.8011 372.238 73.1191 372.105 73.4875C371.971 73.8559 371.928 74.2034 371.977 74.5299C372.028 74.8488 372.166 75.1141 372.39 75.3258C372.614 75.5375 372.9 75.6717 373.247 75.7282ZM379.971 77.874C379.229 77.7532 378.661 77.4856 378.268 77.0712C377.886 76.6506 377.763 76.1368 377.9 75.53L379.025 75.7131C379.01 76.0532 379.112 76.3246 379.331 76.5275C379.561 76.7242 379.905 76.8598 380.363 76.9344C380.789 77.0038 381.156 76.9958 381.463 76.9104C381.772 76.8175 381.965 76.6657 382.042 76.4552C382.118 76.2447 382.088 76.0644 381.95 75.9146C381.823 75.7585 381.532 75.6036 381.077 75.45L380.443 75.2273C379.109 74.7553 378.597 74.0945 378.906 73.2448C379.086 72.7486 379.46 72.3873 380.027 72.1611C380.597 71.9274 381.253 71.871 381.995 71.9918C382.666 72.1011 383.184 72.3446 383.549 72.7225C383.916 73.0929 384.067 73.5515 384.002 74.0985L382.806 73.9037C382.793 73.6627 382.674 73.4602 382.45 73.2962C382.228 73.1247 381.955 73.0125 381.631 72.9598C381.22 72.893 380.871 72.8998 380.582 72.9803C380.304 73.0545 380.129 73.1931 380.055 73.3961C379.989 73.5766 380.025 73.7417 380.163 73.8916C380.304 74.034 380.565 74.168 380.946 74.2937L381.592 74.5183C382.351 74.7773 382.843 75.0804 383.068 75.4276C383.295 75.7673 383.325 76.1703 383.155 76.6364C382.975 77.1327 382.596 77.497 382.018 77.7295C381.451 77.9557 380.768 78.0039 379.971 77.874Z" fill="black"/>
<path d="M67.823 38.053C68.251 38.1701 68.5985 38.3668 68.8655 38.643C69.1307 38.9114 69.3089 39.2486 69.4 39.6545C69.4999 40.0994 69.4839 40.5212 69.352 40.9197C69.2261 41.3087 68.9869 41.6494 68.6344 41.9417C68.2818 42.234 67.8284 42.4424 67.2742 42.5668L63.5977 43.392L61.758 35.1959L65.4228 34.3733C65.9536 34.2542 66.4322 34.2493 66.8585 34.3585C67.2847 34.4678 67.6331 34.6684 67.9036 34.9603C68.1819 35.2504 68.3684 35.6062 68.463 36.0277C68.5506 36.418 68.5427 36.7846 68.4393 37.1276C68.3359 37.4705 68.1305 37.779 67.823 38.053ZM66.1685 37.9693C66.6368 37.8642 66.9636 37.6761 67.1487 37.4049C67.3399 37.1243 67.3881 36.7732 67.2935 36.3517C67.1131 35.5477 66.5506 35.2517 65.6061 35.4637L63.1707 36.0103L63.7331 38.516L66.1685 37.9693ZM66.9739 41.5027C67.4579 41.3941 67.8002 41.2025 68.0009 40.9278C68.2017 40.6532 68.2547 40.3051 68.1601 39.8836C68.069 39.4777 67.8758 39.2013 67.5804 39.0544C67.2833 38.8997 66.8928 38.8767 66.4089 38.9853L63.9617 39.5346L64.5268 42.052L66.9739 41.5027ZM73.6125 34.8718C73.7998 34.8298 73.9781 34.8021 74.1473 34.7887L74.3917 35.8776C74.2442 35.8779 74.0182 35.9122 73.7138 35.9806C73.3703 36.0576 73.0834 36.204 72.8531 36.4197C72.6305 36.6337 72.4749 36.89 72.3861 37.1886C72.3034 37.4778 72.2971 37.7785 72.3672 38.0907L73.0794 41.2637L71.9671 41.5134L70.6531 35.6591L71.7068 35.4225L71.9092 36.3241C72.0577 35.9628 72.2796 35.6547 72.575 35.3999C72.8764 35.1354 73.2222 34.9594 73.6125 34.8718ZM79.5 39.9456C78.9224 40.0752 78.3657 40.0608 77.83 39.9023C77.2925 39.7359 76.8355 39.4532 76.4589 39.054C76.0806 38.6469 75.8284 38.1624 75.7022 37.6004C75.5761 37.0384 75.5979 36.4964 75.7677 35.9746C75.9358 35.4449 76.2281 34.9939 76.6447 34.6217C77.0596 34.2416 77.5558 33.9867 78.1334 33.8571C78.7032 33.7292 79.253 33.7492 79.7827 33.9173C80.3184 34.0758 80.7754 34.3586 81.1537 34.7656C81.5303 35.1649 81.7817 35.6455 81.9078 36.2075C82.034 36.7695 82.013 37.3154 81.8449 37.845C81.6751 38.3669 81.3828 38.8179 80.9679 39.1979C80.5592 39.5685 80.0699 39.8177 79.5 39.9456ZM79.2688 38.9152C79.6278 38.8346 79.9364 38.6752 80.1945 38.4369C80.4508 38.1907 80.6306 37.8962 80.734 37.5532C80.8357 37.2025 80.8445 36.8397 80.7604 36.4651C80.6763 36.0904 80.5142 35.7701 80.2741 35.5042C80.0323 35.2305 79.7438 35.0411 79.4087 34.936C79.0717 34.823 78.7238 34.8068 78.3647 34.8874C77.9978 34.9698 77.6823 35.1349 77.4182 35.3827C77.1601 35.621 76.9803 35.9156 76.8786 36.2664C76.7752 36.6093 76.7656 36.9682 76.8497 37.3428C76.9338 37.7175 77.0967 38.0417 77.3385 38.3154C77.5786 38.5813 77.8671 38.7707 78.204 38.8836C78.547 38.987 78.9019 38.9976 79.2688 38.9152ZM91.4851 30.9832L91.0194 37.237L89.6612 37.5418L87.1975 33.3599L86.7106 38.2041L85.3875 38.5011L82.3055 33.0436L83.5115 32.7729L85.7998 37.1049L86.2981 32.1474L87.5276 31.8715L90.0708 36.1339L90.2908 31.2512L91.4851 30.9832ZM96.4721 36.1361C95.7384 36.3007 95.0793 36.2683 94.4948 36.0387C93.9164 35.7996 93.5189 35.3805 93.3025 34.7813L94.4148 34.5317C94.5916 34.8445 94.835 35.0523 95.145 35.1549C95.4611 35.2479 95.8455 35.2436 96.2982 35.142C96.7197 35.0474 97.0444 34.9048 97.2722 34.7143C97.4982 34.516 97.5867 34.3076 97.5377 34.089C97.4886 33.8704 97.3603 33.7189 97.1527 33.6343C96.9512 33.5401 96.6036 33.5074 96.11 33.5363L95.4163 33.569C93.9552 33.6346 93.1256 33.2263 92.9276 32.3443C92.812 31.8291 92.9455 31.3646 93.3282 30.9507C93.7091 30.5291 94.2664 30.2359 95.0001 30.0712C95.6636 29.9223 96.2646 29.9514 96.803 30.1585C97.3397 30.3578 97.7318 30.7166 97.9793 31.235L96.7968 31.5004C96.6505 31.2873 96.4307 31.148 96.1373 31.0827C95.8421 31.0096 95.5345 31.0089 95.2144 31.0808C94.8085 31.1719 94.4986 31.307 94.2847 31.4862C94.0768 31.6559 93.9965 31.8461 94.0438 32.0568C94.0858 32.2442 94.2106 32.3802 94.4182 32.4647C94.624 32.5415 94.933 32.5665 95.3451 32.5396L96.0505 32.5042C96.8765 32.4582 97.4875 32.5506 97.8837 32.7815C98.2781 33.0045 98.5297 33.358 98.6383 33.842C98.7539 34.3571 98.6174 34.8264 98.2287 35.2498C97.846 35.6637 97.2605 35.9591 96.4721 36.1361ZM102.115 28.4742C102.716 28.3393 103.268 28.3507 103.771 28.5084C104.281 28.6644 104.711 28.9533 105.06 29.3751C105.407 29.7891 105.652 30.3123 105.793 30.9446C105.83 31.1085 105.854 31.2303 105.863 31.3102L101.063 32.3877C101.242 32.8229 101.537 33.1503 101.947 33.3698C102.363 33.5798 102.802 33.6331 103.262 33.5297C104.019 33.3597 104.496 32.9617 104.691 32.3357L105.839 32.0781C105.774 32.6666 105.528 33.1934 105.099 33.6585C104.669 34.1159 104.134 34.4164 103.493 34.5601C102.924 34.688 102.38 34.6748 101.861 34.5206C101.341 34.3586 100.901 34.0762 100.54 33.6735C100.177 33.2629 99.9307 32.7688 99.801 32.1912C99.6714 31.6136 99.6837 31.0656 99.8379 30.5472C99.9904 30.0211 100.264 29.5784 100.659 29.2192C101.06 28.8504 101.545 28.6021 102.115 28.4742ZM102.313 29.463C101.852 29.5663 101.486 29.8001 101.215 30.1642C100.952 30.5266 100.833 30.943 100.856 31.4132L104.451 30.6064C104.299 30.1486 104.024 29.8168 103.625 29.6111C103.234 29.4037 102.796 29.3543 102.313 29.463ZM110.008 26.7026C110.195 26.6606 110.373 26.6329 110.542 26.6195L110.787 27.7084C110.639 27.7087 110.413 27.743 110.109 27.8114C109.766 27.8885 109.479 28.0348 109.248 28.2505C109.026 28.4645 108.87 28.7208 108.781 29.0195C108.699 29.3086 108.692 29.6093 108.762 29.9215L109.475 33.0945L108.362 33.3442L107.048 27.4899L108.102 27.2533L108.304 28.1549C108.453 27.7936 108.675 27.4855 108.97 27.2307C109.272 26.9662 109.617 26.7902 110.008 26.7026ZM121.516 24.2424L122.83 30.0968L121.718 30.3464L121.521 29.4683C121.349 29.8348 121.111 30.1464 120.808 30.403C120.503 30.6519 120.156 30.8201 119.766 30.9077C119.25 31.0233 118.753 30.9996 118.274 30.8367C117.793 30.6659 117.379 30.3774 117.034 29.9711C116.689 29.5649 116.45 29.0691 116.319 28.4836C116.188 27.8982 116.191 27.3481 116.33 26.8332C116.468 26.3184 116.72 25.8848 117.083 25.5326C117.445 25.1726 117.884 24.9348 118.399 24.8192C118.805 24.728 119.204 24.7367 119.598 24.8452C119.991 24.9537 120.35 25.1478 120.675 25.4274L120.463 24.479L121.516 24.2424ZM119.722 29.8353C120.065 29.7582 120.358 29.6022 120.6 29.3674C120.843 29.1326 121.008 28.8455 121.096 28.506C121.182 28.1587 121.182 27.7939 121.096 27.4114C121.01 27.0289 120.855 26.703 120.631 26.4336C120.404 26.1564 120.132 25.9635 119.812 25.8548C119.492 25.7462 119.161 25.7304 118.818 25.8075C118.474 25.8846 118.185 26.0396 117.95 26.2727C117.716 26.5057 117.555 26.7959 117.469 27.1432C117.382 27.4826 117.381 27.8436 117.466 28.2261C117.552 28.6086 117.708 28.9384 117.934 29.2156C118.159 29.485 118.427 29.6749 118.739 29.7853C119.051 29.8957 119.378 29.9123 119.722 29.8353ZM127.043 22.879C127.558 22.7634 128.056 22.7909 128.537 22.9617C129.016 23.1247 129.429 23.4093 129.774 23.8155C130.119 24.2218 130.358 24.7176 130.489 25.303C130.621 25.8885 130.617 26.4386 130.478 26.9535C130.34 27.4683 130.09 27.9057 129.728 28.2658C129.364 28.618 128.924 28.8519 128.409 28.9675C128.019 29.0551 127.633 29.0516 127.251 28.957C126.867 28.8545 126.519 28.6743 126.207 28.4164L126.851 31.285L125.739 31.5347L123.978 23.6899L125.032 23.4534L125.245 24.4018C125.419 24.0101 125.661 23.6811 125.97 23.4149C126.279 23.1488 126.637 22.9701 127.043 22.879ZM127.991 27.9792C128.334 27.9021 128.623 27.747 128.858 27.514C129.092 27.2809 129.254 26.9947 129.341 26.6552C129.428 26.3079 129.428 25.9431 129.342 25.5606C129.256 25.1781 129.101 24.8522 128.876 24.5828C128.65 24.3056 128.381 24.1118 128.069 24.0014C127.758 23.891 127.43 23.8743 127.087 23.9514C126.743 24.0285 126.45 24.1844 126.208 24.4193C125.965 24.6541 125.801 24.9451 125.715 25.2924C125.627 25.6318 125.626 25.9928 125.712 26.3753C125.798 26.7578 125.954 27.0876 126.18 27.3648C126.405 27.6342 126.677 27.8232 126.996 27.9319C127.316 28.0405 127.647 28.0563 127.991 27.9792ZM134.832 21.1307C135.347 21.0151 135.845 21.0426 136.326 21.2134C136.805 21.3764 137.218 21.661 137.563 22.0672C137.908 22.4735 138.147 22.9693 138.278 23.5547C138.41 24.1402 138.406 24.6903 138.267 25.2052C138.129 25.72 137.879 26.1574 137.517 26.5174C137.153 26.8696 136.713 27.1036 136.198 27.2192C135.808 27.3068 135.422 27.3033 135.04 27.2087C134.656 27.1062 134.308 26.926 133.996 26.6681L134.64 29.5367L133.528 29.7864L131.767 21.9416L132.821 21.7051L133.034 22.6535C133.208 22.2618 133.45 21.9328 133.759 21.6666C134.068 21.4004 134.426 21.2218 134.832 21.1307ZM135.78 26.2309C136.123 26.1538 136.412 25.9987 136.647 25.7657C136.881 25.5326 137.043 25.2464 137.131 24.9069C137.217 24.5596 137.217 24.1948 137.131 23.8123C137.045 23.4298 136.89 23.1039 136.665 22.8345C136.439 22.5573 136.17 22.3635 135.858 22.2531C135.547 22.1427 135.219 22.126 134.876 22.2031C134.532 22.2802 134.239 22.4361 133.997 22.6709C133.754 22.9057 133.59 23.1968 133.504 23.5441C133.416 23.8835 133.415 24.2445 133.501 24.627C133.587 25.0095 133.743 25.3393 133.969 25.6165C134.194 25.8859 134.466 26.0749 134.785 26.1835C135.105 26.2922 135.436 26.308 135.78 26.2309ZM143.014 25.6893C142.28 25.854 141.621 25.8216 141.037 25.592C140.458 25.3529 140.061 24.9338 139.844 24.3346L140.957 24.085C141.134 24.3978 141.377 24.6056 141.687 24.7082C142.003 24.8012 142.387 24.7969 142.84 24.6953C143.262 24.6007 143.586 24.4581 143.814 24.2676C144.04 24.0693 144.129 23.8608 144.08 23.6423C144.031 23.4237 143.902 23.2721 143.695 23.1875C143.493 23.0934 143.146 23.0607 142.652 23.0895L141.958 23.1223C140.497 23.1878 139.668 22.7796 139.47 21.8976C139.354 21.3824 139.487 20.9179 139.87 20.504C140.251 20.0824 140.808 19.7892 141.542 19.6245C142.206 19.4756 142.807 19.5046 143.345 19.7118C143.882 19.9111 144.274 20.2699 144.521 20.7883L143.339 21.0537C143.193 20.8406 142.973 20.7013 142.679 20.636C142.384 20.5629 142.076 20.5622 141.756 20.6341C141.351 20.7252 141.041 20.8603 140.827 21.0395C140.619 21.2092 140.538 21.3994 140.586 21.6101C140.628 21.7975 140.753 21.9334 140.96 22.018C141.166 22.0948 141.475 22.1198 141.887 22.0929L142.592 22.0575C143.418 22.0115 144.03 22.1039 144.426 22.3348C144.82 22.5578 145.072 22.9113 145.18 23.3952C145.296 23.9104 145.159 24.3797 144.771 24.8031C144.388 25.217 143.802 25.5124 143.014 25.6893Z" fill="black"/>
</svg>
