<svg xmlns="http://www.w3.org/2000/svg" width="340" height="280" viewBox="0 0 340 280" fill="none">
    <path d="M28.0594 36.9166L34.912 37.0005L35.0898 37.3782L28.2965 37.2107L28.0594 36.9166Z" fill="black" />
    <path d="M49.1762 37.7526L64 40.0621L64.293 40.6432L49.4692 38.3337L49.1762 37.7526Z" fill="black" />
    <path d="M80.2395 43.6633C85.4647 44.9612 90.7872 46.4551 96.0498 48.0333L96.222 48.7897C90.9594 47.2115 85.6968 45.6333 80.4716 44.3354L80.2395 43.6633Z" fill="black" />
    <path d="M111.45 53.3665C116.978 55.3818 122.601 57.6009 128.095 60.0012L128.059 61.0657C122.565 58.6654 117.006 56.3557 111.479 54.3404L111.45 53.3665Z" fill="black" />
    <path d="M144.579 68.1853C150.097 71.0113 155.648 74.133 161.07 77.4359L160.588 78.4565C155.166 75.1536 149.841 72.0558 144.323 69.2298L144.579 68.1853Z" fill="black" />
    <path d="M176.158 87.3699C181.269 90.9974 186.405 94.9302 191.244 98.9415L190.335 99.8834C185.496 95.8721 180.52 92.0527 175.409 88.4251L176.158 87.3699Z" fill="black" />
    <path d="M204.8 111.083C209.549 115.333 214.018 119.637 218.207 123.993L216.849 124.539C212.601 120.266 208.132 115.962 203.603 111.743L204.8 111.083Z" fill="black" />
    <path d="M230.271 136.674L235.951 143.545C236.824 144.681 237.918 145.844 238.791 146.98L241.41 150.388L239.562 150.625L236.943 147.218C236.07 146.082 235.136 145.031 234.262 143.895L228.742 137.138L230.271 136.674Z" fill="black" />
    <path d="M250.434 164.273C253.34 168.633 256.19 173.073 258.676 177.376L256.513 177.171C254.027 172.868 251.331 168.537 248.424 164.177L250.434 164.273Z" fill="black" />
    <path d="M266.305 191.666C268.371 195.85 270.325 200.192 271.975 204.317L269.59 203.807C267.941 199.681 266.083 195.526 264.017 191.342L266.305 191.666Z" fill="black" />
    <path d="M277.298 217.144L281.117 229.798L278.192 228.814L274.637 216.468L277.298 217.144Z" fill="black" />
    <path d="M283.109 241.493L284.402 253.76L281.496 252.611L280.296 240.54L283.109 241.493Z" fill="black" />
    <path d="M285.465 266.745L286.459 278.68L283.454 277.58L282.363 265.447L285.465 266.745Z" fill="black" />
    <path d="M189.169 177.13L207.449 191.827L203.853 214.997L185.573 200.3L189.169 177.13Z" fill="black" />
    <path d="M254.826 151.708L232.94 160.178L214.651 145.474L218.248 122.301L254.826 151.708Z" fill="black" />
    <path d="M196.338 130.765L178.047 116.059L181.644 92.8816L199.936 107.588L196.338 130.765Z" fill="black" />
    <path d="M218.255 122.291L240.131 113.825L295.006 157.943L207.456 191.824L189.17 177.123L189.169 177.13L189.158 177.121L232.94 160.178L232.943 160.18L254.832 151.709L218.251 122.299L218.254 122.298L218.255 122.291Z" fill="#F1EFED" />
    <path d="M203.865 214.999L207.462 191.829L207.456 191.824L295.006 157.943L291.409 181.12L203.865 214.999Z" fill="#F1EFED" />
    <path d="M199.963 107.592L221.852 99.1207L218.255 122.291L218.242 122.296L218.248 122.301L196.366 130.769L199.963 107.592Z" fill="#F1EFED" />
    <path d="M221.852 99.1207L199.963 107.592L181.671 92.8858L203.561 84.4148L221.852 99.1207Z" fill="#F1EFED" />
    <path
        d="M189.158 177.121L188.532 177.9C188.253 177.676 188.115 177.321 188.17 176.967C188.225 176.614 188.464 176.317 188.798 176.188L189.158 177.121ZM254.826 151.708L255.452 150.928C255.731 151.152 255.869 151.508 255.814 151.861C255.759 152.214 255.52 152.511 255.187 152.64L254.826 151.708ZM218.242 122.296L217.616 123.075C217.337 122.851 217.199 122.496 217.254 122.143C217.309 121.789 217.548 121.492 217.881 121.363L218.242 122.296ZM240.131 113.825L239.771 112.892C240.103 112.763 240.48 112.822 240.758 113.045L240.131 113.825ZM295.006 157.943L295.633 157.163C295.911 157.387 296.049 157.743 295.994 158.096L295.006 157.943ZM207.462 191.829L208.089 191.05C208.367 191.274 208.505 191.629 208.45 191.982L207.462 191.829ZM203.864 215.006L204.852 215.159C204.797 215.512 204.559 215.809 204.226 215.938C203.893 216.067 203.516 216.009 203.238 215.785L203.864 215.006ZM185.573 200.3L184.946 201.079C184.668 200.855 184.53 200.5 184.585 200.146L185.573 200.3ZM189.17 177.123L188.182 176.969C188.237 176.617 188.476 176.32 188.809 176.19C189.142 176.061 189.519 176.12 189.797 176.343L189.17 177.123ZM203.852 215.004L204.213 215.937C203.879 216.065 203.503 216.007 203.225 215.783C202.947 215.559 202.809 215.203 202.864 214.85L203.852 215.004ZM291.409 181.12L292.397 181.273C292.342 181.626 292.103 181.923 291.77 182.052L291.409 181.12ZM218.248 122.297L217.26 122.143C217.315 121.79 217.554 121.493 217.887 121.364C218.22 121.235 218.597 121.294 218.875 121.518L218.248 122.297ZM214.651 145.474L214.024 146.253C213.746 146.029 213.608 145.674 213.663 145.32L214.651 145.474ZM232.943 160.18L233.304 161.112C232.971 161.241 232.595 161.183 232.317 160.96L232.943 160.18ZM254.832 151.709L255.459 150.929C255.737 151.153 255.875 151.509 255.82 151.862C255.766 152.215 255.526 152.512 255.193 152.641L254.832 151.709ZM221.852 99.1207L222.478 98.3413C222.757 98.5653 222.895 98.9208 222.84 99.274L221.852 99.1207ZM196.366 130.769L196.726 131.701C196.393 131.83 196.017 131.772 195.738 131.548C195.46 131.324 195.323 130.968 195.377 130.615L196.366 130.769ZM218.254 122.298L219.242 122.451C219.19 122.785 218.973 123.071 218.664 123.21L218.254 122.298ZM203.561 84.4148L203.2 83.4822C203.533 83.3534 203.909 83.4118 204.187 83.6354L203.561 84.4148ZM181.671 92.8858L181.045 93.6651C180.766 93.4412 180.628 93.0856 180.683 92.7324C180.738 92.3793 180.977 92.0822 181.31 91.9532L181.671 92.8858ZM196.338 130.765L197.327 130.918C197.272 131.271 197.033 131.568 196.7 131.697C196.367 131.826 195.99 131.768 195.712 131.544L196.338 130.765ZM178.047 116.059L177.42 116.838C177.141 116.614 177.004 116.258 177.058 115.905L178.047 116.059ZM181.644 92.8816L180.656 92.7282C180.711 92.3753 180.95 92.0783 181.283 91.9492C181.616 91.8201 181.992 91.8784 182.271 92.1022L181.644 92.8816ZM199.936 107.588L200.563 106.808C200.841 107.032 200.979 107.388 200.924 107.741L199.936 107.588ZM240.758 113.045L295.633 157.163L294.38 158.722L239.505 114.604L240.758 113.045ZM290.421 180.966L294.018 157.789L295.994 158.096L292.397 181.273L290.421 180.966ZM232.582 159.247L254.471 150.776L255.193 152.641L233.304 161.112L232.582 159.247ZM222.213 100.053L200.324 108.524L199.602 106.659L221.491 98.1881L222.213 100.053ZM200.951 107.745L197.354 130.922L195.377 130.615L198.975 107.438L200.951 107.745ZM221.225 99.9L202.934 85.1941L204.187 83.6354L222.478 98.3413L221.225 99.9ZM203.921 85.3474L182.032 93.8184L181.31 91.9532L203.2 83.4822L203.921 85.3474ZM182.298 92.1064L200.59 106.812L199.336 108.371L181.045 93.6651L182.298 92.1064ZM195.712 131.544L177.42 116.838L178.673 115.279L196.965 129.985L195.712 131.544ZM177.058 115.905L180.656 92.7282L182.632 93.0349L179.035 116.212L177.058 115.905ZM182.271 92.1022L200.563 106.808L199.309 108.367L181.017 93.6609L182.271 92.1022ZM200.924 107.741L197.327 130.918L195.35 130.611L198.948 107.434L200.924 107.741ZM189.796 176.35L208.076 191.047L206.823 192.606L188.543 177.909L189.796 176.35ZM208.438 191.98L204.841 215.15L202.865 214.844L206.461 191.673L208.438 191.98ZM203.226 215.776L184.946 201.079L186.2 199.52L204.48 214.218L203.226 215.776ZM184.585 200.146L188.181 176.976L190.158 177.283L186.561 200.453L184.585 200.146ZM203.238 215.785L203.227 215.776L204.479 214.217L204.49 214.226L203.238 215.785ZM204.841 215.15L204.84 215.157L202.864 214.85L202.865 214.844L204.841 215.15ZM188.181 176.976L188.182 176.969L190.159 177.276L190.158 177.283L188.181 176.976ZM188.543 177.909L188.532 177.9L189.785 176.342L189.796 176.351L188.543 177.909ZM255.187 152.64L233.301 161.11L232.579 159.245L254.465 150.775L255.187 152.64ZM232.313 160.957L214.024 146.253L215.278 144.694L233.567 159.398L232.313 160.957ZM213.663 145.32L217.26 122.147L219.236 122.454L215.639 145.627L213.663 145.32ZM218.874 121.521L255.452 150.928L254.199 152.487L217.621 123.08L218.874 121.521ZM219.237 122.45L219.236 122.454L217.26 122.147L217.26 122.143L219.237 122.45ZM217.621 123.08L217.616 123.075L218.868 121.516L218.874 121.521L217.621 123.08ZM196.005 129.836L217.887 121.368L218.609 123.233L196.726 131.701L196.005 129.836ZM233.566 159.398L233.569 159.4L232.317 160.96L232.314 160.957L233.566 159.398ZM188.798 176.188L232.579 159.245L233.301 161.11L189.519 178.054L188.798 176.188ZM217.894 121.358L239.771 112.892L240.492 114.757L218.616 123.223L217.894 121.358ZM295.367 158.875L207.817 192.757L207.095 190.892L294.645 157.01L295.367 158.875ZM206.829 192.604L188.544 177.902L189.797 176.343L208.083 191.045L206.829 192.604ZM254.206 152.488L217.625 123.078L218.878 121.52L255.459 150.929L254.206 152.488ZM217.841 121.387L217.844 121.386L218.664 123.21L218.661 123.211L217.841 121.387ZM217.266 122.144L217.267 122.137L219.243 122.444L219.242 122.451L217.266 122.144ZM217.837 121.389L217.841 121.387L218.662 123.211L218.658 123.212L217.837 121.389ZM217.624 123.078L217.622 123.076L218.875 121.518L218.878 121.52L217.624 123.078ZM208.083 191.045L208.089 191.05L206.835 192.608L206.829 192.603L208.083 191.045ZM207.817 192.757L207.81 192.759L207.089 190.894L207.095 190.892L207.817 192.757ZM217.267 122.137L220.863 98.9673L222.84 99.274L219.243 122.444L217.267 122.137ZM217.881 121.363L217.894 121.358L218.616 123.223L218.603 123.228L217.881 121.363ZM202.877 214.845L206.473 191.675L208.45 191.982L204.853 215.152L202.877 214.845ZM291.77 182.052L204.226 215.931L203.504 214.066L291.048 180.187L291.77 182.052ZM203.491 214.071L203.505 214.066L204.226 215.931L204.213 215.937L203.491 214.071ZM204.853 215.152L204.852 215.159L202.876 214.852L202.877 214.845L204.853 215.152Z"
        fill="black"
    />
</svg>
