<svg xmlns="http://www.w3.org/2000/svg" width="47" height="52" viewBox="0 0 47 52" fill="none">
    <circle cx="23.5" cy="28.5" r="23" fill="#F1EFED" stroke="black" />
    <path
        d="M27.7 8.8L24.4 5.5L27.7 2.2C28.1 1.8 28.1 1.2 27.7 0.8C27.3 0.4 26.7 0.4 26.3 0.8L22.3 4.8C21.9 5.2 21.9 5.8 22.3 6.2L26.3 10.2C26.5 10.4 26.7 10.5 27 10.5C27.3 10.5 27.5 10.4 27.7 10.2C28.1 9.8 28.1 9.2 27.7 8.8ZM19 0.5C18.4 0.5 18 0.9 18 1.5V9.5C18 10.1 18.4 10.5 19 10.5C19.6 10.5 20 10.1 20 9.5V1.5C20 0.9 19.6 0.5 19 0.5Z"
        fill="black"
    />
</svg>
