<svg xmlns="http://www.w3.org/2000/svg" width="32" height="32" viewBox="0 0 32 32" fill="none">
    <path d="M32 28.8013C32 30.5689 30.5557 32 28.7745 32H3.2255C1.44431 32 0 30.5671 0 28.8013V3.19871C0 1.43289 1.44431 0 3.2255 0H28.7745C30.5576 0 32 1.43289 32 3.19871V28.8013Z" fill="black" />
    <path d="M11 8.1691C11 9.36708 10.0367 10.3382 8.45306 10.3382C6.96327 10.3382 6 9.36708 6 8.1691C6 6.94301 6.99388 6 8.51633 6C10.0367 6 10.9694 6.94113 11 8.1691ZM6.12449 26V12.048H10.8449V26H6.12449Z" fill="#F1EFED" />
    <path
        d="M13.1113 16.6753C13.1113 14.9678 13.0566 13.54 13 12.3073H16.6666L16.8619 14.2116H16.9458C17.5006 13.3155 18.8621 12 21.1398 12C23.9176 12 26 13.8767 26 17.908V26H21.7786V18.4121C21.7786 16.6477 21.1672 15.4443 19.6396 15.4443C18.4734 15.4443 17.7799 16.2557 17.4733 17.0396C17.3619 17.3192 17.3345 17.7111 17.3345 18.103V26H13.1113V16.6753Z"
        fill="#F1EFED"
    />
</svg>
