<svg xmlns="http://www.w3.org/2000/svg" width="126" height="32" viewBox="0 0 126 32" fill="none">
    <path d="M14.7968 18.3212L12.0329 20.8846L0.756656 10.4309L3.52057 7.8675L14.7968 18.3212Z" fill="black" />
    <path d="M12.0079 0L9.18541 2.61663L12.0079 5.23433L14.8304 2.61663L12.0079 0Z" fill="black" />
    <path d="M14.8343 13.1525L12.0704 10.5902L23.3466 0.13542L26.1117 2.6988L14.8343 13.1525Z" fill="black" />
    <path d="M31.1775 13.2336L28.355 10.6159L31.1775 8.00031L34 10.6159L31.1775 13.2336Z" fill="black" />
    <path d="M19.8643 13.7607L22.6293 11.1984L33.9055 21.651L31.1405 24.2144L19.8643 13.7607Z" fill="black" />
    <path d="M19.8292 29.4664L22.5621 32H22.7424L25.4742 29.4664L22.6528 26.8498L19.8292 29.4664Z" fill="black" />
    <path d="M8.48745 29.4366L11.2514 32L22.5276 21.5452L19.7636 18.9829L8.48745 29.4366Z" fill="black" />
    <path d="M0 21.5679L2.8225 24.1845L5.64499 21.5679L2.8225 18.9513L0 21.5679Z" fill="black" />
    <path
        d="M43.72 16.2711C43.72 15.2044 43.9707 14.2338 44.472 13.3591C44.984 12.4738 45.6773 11.7804 46.552 11.2791C47.4267 10.7671 48.3973 10.5111 49.464 10.5111C50.2853 10.5111 51.0533 10.6711 51.768 10.9911C52.4827 11.3004 53.096 11.7484 53.608 12.3351C54.1307 12.9111 54.5147 13.5831 54.76 14.3511H52.984C52.6533 13.6364 52.184 13.0764 51.576 12.6711C50.9787 12.2551 50.2747 12.0471 49.464 12.0471C48.7067 12.0471 48.0187 12.2338 47.4 12.6071C46.7813 12.9804 46.2907 13.4924 45.928 14.1431C45.576 14.7831 45.4 15.4924 45.4 16.2711C45.4 17.0498 45.576 17.7644 45.928 18.4151C46.2907 19.0551 46.7813 19.5618 47.4 19.9351C48.0187 20.3084 48.7067 20.4951 49.464 20.4951C50.2747 20.4951 50.9787 20.2924 51.576 19.8871C52.184 19.4711 52.6533 18.9058 52.984 18.1911H54.76C54.5147 18.9591 54.1307 19.6364 53.608 20.2231C53.096 20.7991 52.4827 21.2471 51.768 21.5671C51.0533 21.8764 50.2853 22.0311 49.464 22.0311C48.3973 22.0311 47.4267 21.7804 46.552 21.2791C45.6773 20.7671 44.984 20.0738 44.472 19.1991C43.9707 18.3138 43.72 17.3378 43.72 16.2711Z"
        fill="black"
    />
    <path
        d="M67.1525 16.1111V21.8711H65.7125V19.9831C65.2752 20.6124 64.7098 21.1138 64.0165 21.4871C63.3338 21.8498 62.5552 22.0311 61.6805 22.0311C60.6352 22.0311 59.6805 21.7804 58.8165 21.2791C57.9525 20.7671 57.2698 20.0738 56.7685 19.1991C56.2778 18.3138 56.0325 17.3378 56.0325 16.2711C56.0325 15.2044 56.2832 14.2338 56.7845 13.3591C57.2965 12.4738 57.9898 11.7804 58.8645 11.2791C59.7392 10.7671 60.7098 10.5111 61.7765 10.5111C62.8965 10.5111 63.9045 10.8151 64.8005 11.4231C65.7072 12.0311 66.3578 12.8471 66.7525 13.8711H64.9285C64.5978 13.3058 64.1605 12.8631 63.6165 12.5431C63.0725 12.2124 62.4592 12.0471 61.7765 12.0471C61.0192 12.0471 60.3312 12.2338 59.7125 12.6071C59.0938 12.9804 58.6032 13.4924 58.2405 14.1431C57.8885 14.7831 57.7125 15.4924 57.7125 16.2711C57.7125 17.0498 57.8885 17.7644 58.2405 18.4151C58.5925 19.0551 59.0725 19.5618 59.6805 19.9351C60.2885 20.3084 60.9605 20.4951 61.6965 20.4951C62.6885 20.4951 63.5152 20.2178 64.1765 19.6631C64.8485 19.0978 65.2912 18.3991 65.5045 17.5671H61.5205V16.1111H67.1525Z"
        fill="black"
    />
    <path
        d="M73.6256 22.0311C72.3243 22.0311 71.2256 21.7111 70.3296 21.0711C69.4443 20.4204 68.9056 19.5191 68.7136 18.3671H70.3136C70.5803 19.1031 70.9803 19.6418 71.5136 19.9831C72.0576 20.3244 72.7776 20.4951 73.6736 20.4951C74.5376 20.4951 75.2363 20.3404 75.7696 20.0311C76.303 19.7111 76.5696 19.3004 76.5696 18.7991C76.5696 18.3618 76.3723 18.0098 75.9776 17.7431C75.583 17.4658 74.9323 17.2364 74.0256 17.0551L72.8096 16.8311C71.5403 16.6071 70.591 16.2231 69.9616 15.6791C69.3323 15.1244 69.0176 14.4418 69.0176 13.6311C69.0176 13.0124 69.2043 12.4684 69.5776 11.9991C69.951 11.5298 70.4736 11.1671 71.1456 10.9111C71.8176 10.6444 72.591 10.5111 73.4656 10.5111C74.607 10.5111 75.599 10.7938 76.4416 11.3591C77.2843 11.9138 77.839 12.6978 78.1056 13.7111H76.4256C76.2123 13.1671 75.8283 12.7564 75.2736 12.4791C74.7296 12.1911 74.1003 12.0471 73.3856 12.0471C72.543 12.0471 71.8763 12.1964 71.3856 12.4951C70.9056 12.7831 70.6656 13.1831 70.6656 13.6951C70.6656 14.1111 70.8576 14.4471 71.2416 14.7031C71.6363 14.9591 72.255 15.1618 73.0976 15.3111L74.3136 15.5191C75.6576 15.7431 76.6443 16.1271 77.2736 16.6711C77.903 17.2151 78.2176 17.9138 78.2176 18.7671C78.2176 19.4071 78.0203 19.9724 77.6256 20.4631C77.2416 20.9538 76.703 21.3378 76.0096 21.6151C75.3163 21.8924 74.5216 22.0311 73.6256 22.0311Z"
        fill="black"
    />
    <path d="M84.4631 16.3511V17.7911H79.8231V16.3511H84.4631Z" fill="black" />
    <path
        d="M88.8581 15.3111V19.5351C88.8581 19.8764 88.9381 20.1378 89.0981 20.3191C89.2688 20.5004 89.5568 20.5911 89.9621 20.5911C90.3461 20.5911 90.6715 20.5591 90.9381 20.4951V21.8871C90.6501 21.9831 90.2981 22.0311 89.8821 22.0311C88.1861 22.0311 87.3381 21.1991 87.3381 19.5351V15.3111H85.7381V13.8711H87.3381V11.7911H88.8581V13.8711H91.0981V15.3111H88.8581Z"
        fill="black"
    />
    <path
        d="M96.0779 13.7111C96.8992 13.7111 97.6139 13.8871 98.2219 14.2391C98.8405 14.5911 99.3152 15.0924 99.6459 15.7431C99.9765 16.3831 100.142 17.1351 100.142 17.9991C100.142 18.2231 100.137 18.3884 100.126 18.4951H93.5659C93.6725 19.1138 93.9605 19.6258 94.4299 20.0311C94.9099 20.4258 95.4645 20.6231 96.0939 20.6231C97.1285 20.6231 97.8645 20.2444 98.3019 19.4871H99.8699C99.6139 20.2338 99.1392 20.8471 98.4459 21.3271C97.7525 21.7964 96.9685 22.0311 96.0939 22.0311C95.3152 22.0311 94.6112 21.8551 93.9819 21.5031C93.3525 21.1404 92.8619 20.6444 92.5099 20.0151C92.1579 19.3751 91.9819 18.6604 91.9819 17.8711C91.9819 17.0818 92.1579 16.3724 92.5099 15.7431C92.8619 15.1031 93.3472 14.6071 93.9659 14.2551C94.5952 13.8924 95.2992 13.7111 96.0779 13.7111ZM96.0459 15.0551C95.4165 15.0551 94.8725 15.2524 94.4139 15.6471C93.9659 16.0418 93.6885 16.5484 93.5819 17.1671H98.4939C98.4299 16.5271 98.1685 16.0151 97.7099 15.6311C97.2619 15.2471 96.7072 15.0551 96.0459 15.0551Z"
        fill="black"
    />
    <path
        d="M109.341 13.8711V21.8711H107.821V20.6711C107.491 21.0978 107.091 21.4338 106.621 21.6791C106.152 21.9138 105.651 22.0311 105.117 22.0311C104.413 22.0311 103.773 21.8551 103.197 21.5031C102.621 21.1404 102.168 20.6444 101.837 20.0151C101.507 19.3858 101.341 18.6711 101.341 17.8711C101.341 17.0711 101.507 16.3564 101.837 15.7271C102.168 15.0978 102.621 14.6071 103.197 14.2551C103.773 13.8924 104.413 13.7111 105.117 13.7111C105.672 13.7111 106.189 13.8391 106.669 14.0951C107.149 14.3511 107.56 14.7084 107.901 15.1671V13.8711H109.341ZM105.373 20.6231C105.843 20.6231 106.269 20.5058 106.653 20.2711C107.037 20.0364 107.336 19.7111 107.549 19.2951C107.763 18.8684 107.869 18.3938 107.869 17.8711C107.869 17.3484 107.763 16.8791 107.549 16.4631C107.336 16.0364 107.037 15.7058 106.653 15.4711C106.269 15.2364 105.843 15.1191 105.373 15.1191C104.904 15.1191 104.483 15.2364 104.109 15.4711C103.736 15.7058 103.443 16.0364 103.229 16.4631C103.016 16.8791 102.909 17.3484 102.909 17.8711C102.909 18.3938 103.016 18.8684 103.229 19.2951C103.443 19.7111 103.736 20.0364 104.109 20.2711C104.483 20.5058 104.904 20.6231 105.373 20.6231Z"
        fill="black"
    />
    <path
        d="M121.745 13.7111C122.385 13.7111 122.956 13.8498 123.457 14.1271C123.969 14.4044 124.369 14.8258 124.657 15.3911C124.956 15.9458 125.105 16.6284 125.105 17.4391V21.8711H123.585V17.4711C123.585 16.7671 123.382 16.2071 122.977 15.7911C122.582 15.3751 122.081 15.1671 121.473 15.1671C120.812 15.1671 120.278 15.4018 119.873 15.8711C119.468 16.3404 119.265 16.9164 119.265 17.5991V21.8711H117.745V17.4711C117.745 16.7671 117.542 16.2071 117.137 15.7911C116.742 15.3751 116.241 15.1671 115.633 15.1671C114.972 15.1671 114.438 15.4018 114.033 15.8711C113.628 16.3404 113.425 16.9164 113.425 17.5991V21.8711H111.905V13.8711H113.345V15.1351C113.633 14.6978 114.001 14.3511 114.449 14.0951C114.908 13.8391 115.393 13.7111 115.905 13.7111C116.534 13.7111 117.1 13.8498 117.601 14.1271C118.113 14.3938 118.508 14.7938 118.785 15.3271C119.094 14.8364 119.51 14.4471 120.033 14.1591C120.566 13.8604 121.137 13.7111 121.745 13.7111Z"
        fill="black"
    />
</svg>
