<svg xmlns="http://www.w3.org/2000/svg" width="20" height="20" viewBox="0 0 20 20" fill="none">
    <path
        d="M14.5258 12.7987L14.4308 12.9283L14.5445 13.042L14.6771 12.9094L14.5445 13.0421L14.5447 13.0423L14.5455 13.043L14.5483 13.0459L14.5598 13.0573L14.6043 13.1018L14.7732 13.2707L15.3762 13.8737L17.2059 15.7034L19.0357 17.5332L19.6387 18.1362L19.7348 18.2323L18.2324 19.7347L13.0422 14.5444L12.9285 14.4308L12.7988 14.5258C11.4852 15.4877 9.8727 16.0625 8.12498 16.0625C3.74857 16.0625 0.1875 12.5014 0.1875 8.12498C0.1875 3.74857 3.74854 0.1875 8.12494 0.1875C12.5014 0.1875 16.0624 3.74857 16.0624 8.12498C16.0624 9.8727 15.4877 11.4851 14.5258 12.7987ZM2.31251 8.12498C2.31251 11.3303 4.91963 13.9375 8.12498 13.9375C11.3303 13.9375 13.9375 11.3303 13.9375 8.12498C13.9375 4.91963 11.3303 2.31251 8.12498 2.31251C4.91963 2.31251 2.31251 4.91963 2.31251 8.12498Z"
        fill="black"
        stroke="#F1EFED"
        stroke-width="0.375"
    />
</svg>
