<svg width="54" height="109" viewBox="0 0 54 109" fill="none" xmlns="http://www.w3.org/2000/svg">
<path d="M19.875 1V2.375H17.25V3.9375H15.3125V5.625H13.8125V7.375H11.625V9.125H9.375V11.0625H7.0625V14.375H8.875V16.625H10.125H18.1875H26.9375H29.75H30.75V15V9.875H32.1875V6.9375H34.3125V4.6875H37.3125H39.9375V1H19.875Z" fill="#5869DD"/>
<path d="M48.1875 36.125H49.6875V30.375H37.0625V29.4375H35.8125H33.125V31.25H28.5625V32.75H26.9375V36.125H48.1875Z" fill="black"/>
<path d="M26.9375 16.625V22.75H32.1875V20.5H29.75V16.625H26.9375Z" fill="black"/>
<path d="M7.0625 14.375H5.5V20.875V22.75H4.1875V24.4375H2.6875V29.4375H1V35.1875H10.125V16.625H8.875V14.375H7.0625Z" fill="black"/>
<path d="M41.3125 15.125H51.1875V12.125H48.1875H38.5625V8.6875H37.3125V6.9375V4.6875H34.3125V6.9375H32.1875V9.875H30.75V15H33.125L38.5625 15.083L41.3125 15.125Z" fill="black"/>
<path d="M48.1875 12.125V7.25H47V3.9375H43.75V2.375H41.8125V1H39.9375V4.6875H37.3125V6.9375V8.6875H38.5625V12.125H48.1875Z" fill="url(#paint0_linear_14456_6592)"/>
<path d="M25.5625 44.625H28.5625H31.5H35.0625V42.5H38.1875V41.125H41.3125V39.375H45.3125V38.125H48.1875V36.125H26.9375V32.75H28.5625V31.25H33.125V29.4375H35.8125H37.0625V30.375H49.6875H51.1875V28H52.8125V24H50.3125V22.75H48.1875V20.875H41.3125V15.125L38.5625 15.083L33.125 15H30.75V16.625H29.75V20.5H32.1875V22.75H26.9375V16.625H18.1875V26.3125H20.75V28.375H18.1875V26.3125V16.625H10.125V35.1875H12.75V37H14.125V39.375H16.0625H19.5625V41.125H25.5625V44.625Z" fill="#F1EFED"/>
<path d="M20.75 26.3125H18.1875V28.375H20.75V26.3125Z" fill="black"/>
<path d="M32.1875 58.5V61.5H28.5625V75H32.1875H35.375H38.5625V72H42V65.5V61.5H38.5625V58.5H32.1875Z" fill="#F1EFED"/>
<path d="M25.5625 44.625V41.125H19.5625V39.375H16.0625V41.125H15.0625V44.625H12.75V48V65H9.375V78H12.75V81.5H15.3125V88H19.5625V92H22V94H24V97H33V95V92.5H28.5625V90H25.5625V88H23V85.5H26.5V83H29.75V79H32.1875V75H28.5625H24V72H19.5625V68.5H16.0625V50H18.1875V47H20.75V44.625H25.5625Z" fill="#5869DD"/>
<path d="M38.5625 72V75H35.375V78H38.1875V80H41.3125V82H45.3125V77H48.1875V69H45.3125V65.5H42V72H38.5625Z" fill="#5869DD"/>
<path d="M43 84.5H45.3125V82H41.3125V80H38.1875V78H35.375V75H32.1875V79H29.75V83H26.5V85.5H23V88H25.5625V90H28.5625V92.5H33V95H35.0625H37.0625V97.5H42V92.5H39.5V91V88H43V84.5Z" fill="url(#paint1_linear_14456_6592)"/>
<path d="M19.5625 97H17V99H15.0625V104.5H21V108H38.1875V102.5H33V97H24V94H22V92H19.5625V97Z" fill="url(#paint2_linear_14456_6592)"/>
<path d="M12.75 48H9.375V65H12.75V48Z" fill="url(#paint3_linear_14456_6592)"/>
<path d="M18.1875 50H16.0625V68.5H19.5625V72H24V75H28.5625V61.5H32.1875V58.5H29.75V52H28.5625V48H25.5625V44.625H20.75V47H18.1875V50Z" fill="url(#paint4_linear_14456_6592)"/>
<path d="M28.5625 44.625H25.5625V48H28.5625V52H29.75V58.5H32.1875H38.5625V55.5H35.8125V51H33V48H31.5V44.625H28.5625Z" fill="#5869DD"/>
<path d="M38.5625 61.5H42V53H40.5V49H38.3125V46.5H36.0625V44.625H35.0625H31.5V48H33V51H35.8125V55.5H38.5625V58.5V61.5Z" fill="url(#paint5_linear_14456_6592)"/>
<path d="M25.5625 44.625H28.5625H31.5M25.5625 44.625V41.125H19.5625V39.375H16.0625M25.5625 44.625H20.75V47H18.1875V50H16.0625V68.5H19.5625V72H24V75H28.5625M25.5625 44.625V48H28.5625V52H29.75V58.5H32.1875M16.0625 39.375V41.125H15.0625V44.625H12.75V48M16.0625 39.375H14.125V37H12.75V35.1875H10.125M35.0625 44.625V42.5H38.1875V41.125H41.3125V39.375H45.3125V38.125H48.1875V36.125M35.0625 44.625H31.5M35.0625 44.625H36.0625V46.5H38.3125V49H40.5V53H42V61.5M48.1875 36.125H49.6875V30.375M48.1875 36.125H26.9375V32.75H28.5625V31.25H33.125V29.4375H35.8125H37.0625V30.375H49.6875M49.6875 30.375H51.1875V28H52.8125V24H50.3125V22.75H48.1875V20.875H41.3125V15.125M41.3125 15.125H51.1875V12.125H48.1875M41.3125 15.125L38.5625 15.083L33.125 15H30.75M48.1875 12.125V7.25H47V3.9375H43.75V2.375H41.8125V1H39.9375M48.1875 12.125H38.5625V8.6875H37.3125V6.9375V4.6875M7.0625 14.375V11.0625H9.375V9.125H11.625V7.375H13.8125V5.625H15.3125V3.9375H17.25V2.375H19.875V1H39.9375M7.0625 14.375H5.5V20.875V22.75H4.1875V24.4375H2.6875V29.4375H1V35.1875H10.125M7.0625 14.375H8.875V16.625H10.125M10.125 35.1875V16.625M10.125 16.625H18.1875M30.75 15V16.625H29.75M30.75 15V9.875H32.1875V6.9375H34.3125V4.6875H37.3125M18.1875 16.625V26.3125M18.1875 16.625H26.9375M18.1875 26.3125H20.75V28.375M18.1875 26.3125V28.375M20.75 28.375H22.5H18.1875M20.75 28.375H18.1875M26.9375 16.625V22.75H32.1875V20.5H29.75V16.625M26.9375 16.625H29.75M37.3125 4.6875H39.9375V1M12.75 48H9.375V65M12.75 48V65H9.375M33 97V102.5H38.1875V108H21V104.5H15.0625V99H17V97H19.5625V92M33 97H24V94H22V92H19.5625M33 97V95M19.5625 92V88H15.3125V81.5H12.75V78H9.375V65M32.1875 58.5V61.5H28.5625V75M32.1875 58.5H38.5625M28.5625 75H32.1875M42 61.5H38.5625V58.5M42 61.5V65.5M38.5625 58.5V55.5H35.8125V51H33V48H31.5V44.625M42 65.5V72H38.5625V75H35.375M42 65.5H45.3125V69H48.1875V77H45.3125V82M33 95H35.0625H37.0625V97.5H42V92.5H39.5V91V88H43V84.5H45.3125V82M33 95V92.5H28.5625V90H25.5625V88H23V85.5H26.5V83H29.75V79H32.1875V75M32.1875 75H35.375M35.375 75V78H38.1875V80H41.3125V82H45.3125" stroke="black" stroke-width="2"/>
<defs>
<linearGradient id="paint0_linear_14456_6592" x1="33.5808" y1="40.1708" x2="59.1752" y2="41.1781" gradientUnits="userSpaceOnUse">
<stop stop-color="#D6FFBB"/>
<stop offset="1" stop-color="#5869DD"/>
</linearGradient>
<linearGradient id="paint1_linear_14456_6592" x1="0.999999" y1="54.5" x2="53" y2="64.5" gradientUnits="userSpaceOnUse">
<stop offset="0.16102" stop-color="#D6FFBB"/>
<stop offset="1" stop-color="#5869DD"/>
</linearGradient>
<linearGradient id="paint2_linear_14456_6592" x1="1" y1="54.5" x2="52.8125" y2="54.5" gradientUnits="userSpaceOnUse">
<stop stop-color="#D6FFBB"/>
<stop offset="1" stop-color="#5869DD"/>
</linearGradient>
<linearGradient id="paint3_linear_14456_6592" x1="1" y1="54.5" x2="52.8125" y2="54.5" gradientUnits="userSpaceOnUse">
<stop stop-color="#D6FFBB"/>
<stop offset="1" stop-color="#5869DD"/>
</linearGradient>
<linearGradient id="paint4_linear_14456_6592" x1="1" y1="54.5" x2="52.8125" y2="54.5" gradientUnits="userSpaceOnUse">
<stop stop-color="#D6FFBB"/>
<stop offset="1" stop-color="#5869DD"/>
</linearGradient>
<linearGradient id="paint5_linear_14456_6592" x1="27" y1="54" x2="52.8125" y2="54.5" gradientUnits="userSpaceOnUse">
<stop stop-color="#D6FFBB"/>
<stop offset="1" stop-color="#5869DD"/>
</linearGradient>
</defs>
</svg>
