<svg width="304" height="32" viewBox="0 0 304 32" fill="none" xmlns="http://www.w3.org/2000/svg">
<path d="M52 16H18.5V1H52M52 16V1M52 16H85.5M52 1H85.5M85.5 1V16M85.5 1H119M85.5 16H119M119 16V1M119 16H152.5M119 1H152.5M152.5 1H186M152.5 1V16M186 1H219.5M186 1V16M219.5 1H253M219.5 1V16M253 1H286.5V16H253M253 1V16M253 16H219.5M219.5 16H186M186 16H152.5M34.5 31H1V16H34.5M34.5 31V16M34.5 31H68M34.5 16H68M68 16V31M68 16H101.5M68 31H101.5M101.5 31V16M101.5 31H135M101.5 16H135M135 16H168.5M135 16V31M168.5 16H202M168.5 16V31M202 16H235.5M202 16V31M235.5 16H269M235.5 16V31M269 16H302.5V31H269M269 16V31M269 31H235.5M235.5 31H202M202 31H168.5M168.5 31H135M18.5 31H52H85.5H119H152.5H186H219.5H253H286.5" stroke="#8F8E93" stroke-width="2"/>
</svg>
