<svg xmlns="http://www.w3.org/2000/svg" width="240" height="418" fill="none" viewBox="0 0 240 418">
    <path
        fill="#000"
        d="M232.584 180.052c-3.781-.155-7.583-.063-11.355.41a.74.74 0 0 0-.64.826.74.74 0 0 0 .825.64c3.674-.469 7.399-.563 11.113-.411a.733.733 0 1 0 .057-1.465ZM210.154 183.23c-3.556 1.42-6.901 3.421-9.754 6.009a.752.752 0 0 0-.056 1.059.754.754 0 0 0 1.058.056c2.705-2.466 5.893-4.375 9.298-5.744a.743.743 0 1 0-.556-1.378l.01-.002ZM193.498 198.39c-1.733 3.424-2.89 7.095-3.636 10.82a.738.738 0 0 0 .579.872.739.739 0 0 0 .872-.58c.73-3.622 1.856-7.164 3.519-10.438a.747.747 0 1 0-1.334-.674ZM188.708 220.518c-.065 3.789.146 7.565.543 11.319a.73.73 0 0 0 1.451-.159c-.39-3.706-.588-7.431-.524-11.143a.738.738 0 0 0-.721-.746.738.738 0 0 0-.746.722l-.003.007ZM190.96 243.026a167.16 167.16 0 0 0 2.583 10.998.72.72 0 0 0 .877.506.72.72 0 0 0 .506-.877 163.79 163.79 0 0 1-2.552-10.902.723.723 0 0 0-1.418.282l.004-.007ZM196.818 264.829l3.836 10.612a.71.71 0 0 0 .905.427.711.711 0 0 0 .427-.905l-.008-.031-3.802-10.549-.015-.035a.713.713 0 0 0-1.343.481ZM205 285.858l3.964 8.452.03-.667-1.016 1.64-.007.013a.697.697 0 1 0 1.186.736l1.033-1.656a.673.673 0 0 0 .041-.642l-.012-.024-3.94-8.404-.012-.024a.697.697 0 0 0-.93-.338.705.705 0 0 0-.338.931l.001-.017ZM201.469 304.342c-2.343 2.891-4.847 5.654-7.534 8.226a.686.686 0 0 0-.021.966c.259.271.696.28.966.021a90.062 90.062 0 0 0 7.656-8.346.687.687 0 1 0-1.067-.867ZM185.34 319.64c-3.052 2.109-6.29 3.939-9.71 5.334a.678.678 0 0 0-.368.878.672.672 0 0 0 .879.369c3.529-1.436 6.854-3.311 9.976-5.466a.688.688 0 0 0 .174-.947.689.689 0 0 0-.947-.175l-.004.007ZM164.957 327.646c-3.66.339-7.375.04-10.936-.872a.662.662 0 1 0-.325 1.284 33.463 33.463 0 0 0 11.383.922.671.671 0 0 0 .607-.723.671.671 0 0 0-.723-.608l-.006-.003ZM143.902 322.432c-3.158-1.925-6.066-4.253-8.746-6.812a.653.653 0 0 0-.9.944c2.734 2.616 5.713 5.002 8.96 6.997a.666.666 0 0 0 .904-.215.665.665 0 0 0-.215-.903l-.003-.011ZM127.716 307.309c-2.288-2.939-4.399-6.018-6.374-9.184a.632.632 0 0 0-.878-.203.633.633 0 0 0-.204.878c1.99 3.2 4.122 6.318 6.437 9.299a.644.644 0 1 0 1.019-.79ZM115.81 288.384l-2.472-5.037-1.234-2.513c-.417-.838-.785-1.7-1.182-2.544l-.013-.007a.614.614 0 0 0-.818-.308.622.622 0 0 0-.301.822c.392.85.757 1.719 1.181 2.561l1.24 2.533 2.475 5.074a.63.63 0 0 0 .847.289.63.63 0 0 0 .289-.846l-.012-.024ZM106.563 267.96a161.467 161.467 0 0 1-3.726-10.575.589.589 0 0 0-.73-.386.589.589 0 0 0-.386.73 159.722 159.722 0 0 0 3.718 10.665c.122.313.47.461.779.345a.606.606 0 0 0 .345-.779ZM100 246.56c-.76-3.651-1.313-7.346-1.534-11.059a.555.555 0 0 0-.584-.519.555.555 0 0 0-.52.584c.219 3.78.768 7.525 1.518 11.223a.57.57 0 0 0 .673.44.578.578 0 0 0 .446-.669ZM99.035 224.421c.68-3.625 1.943-7.165 4.065-10.167a.51.51 0 0 0-.122-.72.51.51 0 0 0-.72.122c-2.237 3.142-3.56 6.83-4.27 10.568a.539.539 0 0 0 .427.627.539.539 0 0 0 .626-.427l-.006-.003ZM111.619 207.648c3.424-1.297 7.194-1.59 10.849-1.126a.49.49 0 0 0 .543-.415.487.487 0 0 0-.415-.542c-3.778-.491-7.709-.205-11.321 1.149a.506.506 0 0 0-.294.644c.095.254.39.389.644.294l-.006-.004ZM132.927 209.952c3.234 1.779 6.168 4.139 8.486 7.009a.45.45 0 1 0 .706-.563c-2.393-2.982-5.409-5.423-8.736-7.265a.463.463 0 0 0-.633.18.463.463 0 0 0 .181.633l-.004.006ZM146.035 226.852c.326 1.807.393 3.656.22 5.487-.18 1.827-.591 3.651-1.133 5.416a.412.412 0 0 0 .271.52.42.42 0 0 0 .524-.278c.562-1.814.986-3.674 1.183-5.577a21.38 21.38 0 0 0-.206-5.721.43.43 0 0 0-.5-.35.43.43 0 0 0-.349.5l-.01.003ZM140.185 247.684c-2.125 3.051-4.642 5.824-7.405 8.317a.376.376 0 0 0-.026.54.376.376 0 0 0 .54.025c2.811-2.517 5.375-5.324 7.552-8.423a.402.402 0 0 0-.094-.557.402.402 0 0 0-.557.095l-.01.003ZM123.814 262.645a70.627 70.627 0 0 1-9.979 5.049.335.335 0 0 0-.18.433.323.323 0 0 0 .426.177 71.611 71.611 0 0 0 10.106-5.045.358.358 0 1 0-.373-.614ZM103.199 271.209a84.713 84.713 0 0 1-11.023 2.013.265.265 0 0 0-.233.298c.018.149.15.251.294.24a84.088 84.088 0 0 0 11.109-1.964.297.297 0 0 0-.144-.577l-.003-.01ZM80.98 273.772a91.262 91.262 0 0 1-11.187-.826.206.206 0 1 0-.055.41 94.88 94.88 0 0 0 11.237.89.236.236 0 0 0 .24-.235.236.236 0 0 0-.235-.239ZM58.776 270.823a102.914 102.914 0 0 1-10.714-3.341.146.146 0 0 0-.19.089.146.146 0 0 0 .09.19 106.159 106.159 0 0 0 10.732 3.414c.1.022.194-.036.22-.125a.183.183 0 0 0-.125-.219l-.013-.008ZM37.739 263.042a122.074 122.074 0 0 1-9.848-5.413.086.086 0 0 0-.123.033.087.087 0 0 0 .033.123 122.81 122.81 0 0 0 9.837 5.476c.059.034.128.004.161-.054.034-.059.005-.128-.054-.161l-.006-.004ZM18.565 251.356a146.789 146.789 0 0 1-8.799-7.007.039.039 0 0 0-.043.001.04.04 0 0 0 0 .043 146.39 146.39 0 0 0 8.762 7.056c.026.015.063.01.085-.012a.073.073 0 0 0-.012-.085l.007.004Z"
    />
    <path fill="#5869DD" d="M96.918 114.604c1.641-3.423 3.47-4.667 8.505-4.99a3.718 3.718 0 0 1 1.668.294l27.643 47.389-3.03 2.266-34.786-44.959Z" />
    <path fill="url(#a)" d="m142.486 126.88 7.108 33.772-12.202 6.22-5.688-7.309 3.03-2.266-27.643-47.389 32.627 13.69c1.418.595 2.464 1.834 2.768 3.282Z" />
    <path fill="#5869DD" fill-rule="evenodd" d="m109.327 181.178 3.695-1.883-44.953-19.914c-1.236 3.594-1.043 5.275 1.246 7.544l40.012 14.253Z" clip-rule="evenodd" />
    <path fill="url(#b)" d="m68.07 159.381 28.848-44.777 34.786 44.959 5.688 7.309-24.37 12.423-44.953-19.914Z" />
    <path
        stroke="#000"
        stroke-linejoin="round"
        stroke-width="1.5"
        d="m107.091 109.908 32.627 13.69c1.418.595 2.464 1.834 2.768 3.282l7.108 33.772-12.202 6.22m-30.301-56.964a3.718 3.718 0 0 0-1.668-.294c-5.035.323-6.864 1.567-8.505 4.99m10.173-4.696 27.643 47.389-3.03 2.266m-34.786-44.959L68.07 159.381m28.85-44.777 34.785 44.959m-63.635-.182c-1.236 3.594-1.043 5.275 1.246 7.544l40.012 14.253 3.695-1.883m-44.953-19.914 44.953 19.914m18.682-19.732 5.688 7.309m-24.37 12.423 24.37-12.423"
    />
    <path
        fill="url(#c)"
        fill-rule="evenodd"
        d="M143.718 177.349c.696-.903 1.373-1.782 2.019-2.639 3.066-4.414 5.007-8.289 4.12-11.509-.432-1.571-1.536-2.985-3.509-4.231-5.594-3.533-11.041-1.375-16.345 3.572-2.219 2.069-4.413 4.626-6.582 7.459-2.062 3.082-6.91 7.129-7.618 9.453l26.117 11.618c.791-.666.586-3.438.382-6.2-.192-2.593-.384-5.178.25-6.006.393-.513.782-1.018 1.166-1.517Z"
        clip-rule="evenodd"
    />
    <path
        fill="#000"
        d="M115.803 179.454c.926-3.038 4.785-9.211 6.933-12.017-.234.306.032.675.322 1.078.336.466.704.977.363 1.486-2.062 3.082-6.91 7.129-7.618 9.453ZM149.178 157.624c4.877 4.89 1.698 10.273-3.441 17.086 3.066-4.414 5.007-8.289 4.12-11.509l-.679-5.577Z"
    />
    <path
        fill="#F1EFED"
        fill-rule="evenodd"
        d="M129.105 160.149c5.816-5.601 12.146-8.513 18.328-4.003.67.489 1.249.981 1.745 1.478l.679 5.577c-.432-1.571-1.536-2.985-3.509-4.231-5.594-3.533-11.041-1.375-16.345 3.572l-.898-2.393Z"
        clip-rule="evenodd"
    />
    <path fill="#000" d="M123.058 168.515c-.29-.403-.556-.772-.322-1.078 2.025-2.644 4.16-5.16 6.369-7.288l.898 2.393c-2.219 2.069-4.413 4.626-6.582 7.459.341-.509-.027-1.02-.363-1.486Z" />
    <path
        stroke="#000"
        stroke-width="1.5"
        d="M122.736 167.437c-2.148 2.806-6.007 8.979-6.933 12.017m6.933-12.017c-.234.306.032.675.322 1.078.336.466.704.977.363 1.486m-.685-2.564c2.025-2.644 4.16-5.16 6.369-7.288m-13.302 19.305 26.117 11.618c.791-.666.586-3.438.382-6.2-.192-2.593-.384-5.178.25-6.006.393-.513.782-1.018 1.166-1.517.696-.903 1.373-1.782 2.019-2.639m-29.934 4.744c.708-2.324 5.556-6.371 7.618-9.453m0 0c2.169-2.833 4.363-5.39 6.582-7.459m10.81 18.778c1.773-2.316 3.474-4.523 4.924-6.61m0 0c5.139-6.813 8.318-12.196 3.441-17.086m-3.441 17.086c3.066-4.414 5.007-8.289 4.12-11.509m-.679-5.577a14.699 14.699 0 0 0-1.745-1.478c-6.182-4.51-12.512-1.598-18.328 4.003m20.073-2.525.679 5.577m0 0c-.432-1.571-1.536-2.985-3.509-4.231-5.594-3.533-11.041-1.375-16.345 3.572m-.898-2.393.898 2.393"
    />
    <path fill="#D9D9D9" d="M147.332 177.939c2.673-2.536 5.725-3.86 6.964-3.056.044.028.085.059.124.092 1.148.988-.163 3.916-2.929 6.54-2.767 2.625-6.198 5.328-7.347 4.34-1.148-.987.422-5.292 3.188-7.916Z" />
    <path fill="#000" d="M140.053 164.228c-1.21-1.04-4.433.244-7.199 2.868-2.767 2.625-4.156 6.544-2.946 7.584l14.236 11.175c-1.148-.987.422-5.292 3.188-7.916 2.673-2.536 5.725-3.86 6.964-3.056l-14.243-10.655Z" />
    <path
        stroke="#000"
        stroke-width="1.5"
        d="M154.42 174.975c1.148.988-.163 3.916-2.929 6.54-2.767 2.625-6.198 5.328-7.347 4.34m10.276-10.88-.124-.092m.124.092a1.137 1.137 0 0 0-.124-.092m-10.152 10.972c-1.148-.987.422-5.292 3.188-7.916 2.673-2.536 5.725-3.86 6.964-3.056m-10.152 10.972-14.236-11.175c-1.21-1.04.179-4.959 2.946-7.584 2.766-2.624 5.989-3.908 7.199-2.868l14.243 10.655"
    />
    <path fill="#5869DD" fill-rule="evenodd" d="M129.972 219.069c-7.993-6.351-10.852-17.156-8.293-27.56l40.889 26.188c-10 7.819-23.315 8.747-32.596 1.372Z" clip-rule="evenodd" />
    <path fill="url(#d)" d="M166.184 171.772c11.291 8.971 12.337 26.831 2.338 39.892a33.516 33.516 0 0 1-5.954 6.033l-40.889-26.188c1.056-4.293 3.035-8.517 5.955-12.332 10-13.061 24.262-18.758 38.55-7.405Z" />
    <path
        stroke="#000"
        stroke-width="1.5"
        d="M121.679 191.509c1.056-4.293 3.035-8.517 5.955-12.332 10-13.061 24.262-18.758 38.55-7.405 11.291 8.971 12.337 26.831 2.338 39.892a33.516 33.516 0 0 1-5.954 6.033m-40.889-26.188c-2.559 10.404.3 21.209 8.293 27.56 9.281 7.375 22.596 6.447 32.596-1.372m-40.889-26.188 40.889 26.188"
    />
    <ellipse cx="23.23" cy="26.161" fill="#000" stroke="#000" stroke-width="1.5" rx="23.23" ry="26.161" transform="matrix(-.81393 -.58096 -.5713 .82074 188.18 191.328)" />
    <path fill="#5869DD" d="m182.385 319.179 57.607-84.09 30.008 9.52-55.78 81.424-31.835-6.854Z" />
    <path fill="url(#e)" d="m158.801 162.703 81.191 72.386-57.607 84.09-78.602-76.165 55.018-80.311Z" />
    <path fill="url(#f)" d="m239.992 235.089-81.191-72.386 30.008 9.52L270 244.609l-30.008-9.52Z" />
    <path
        stroke="#000"
        stroke-linejoin="round"
        stroke-width="1.5"
        d="m182.385 319.179 57.607-84.09m-57.607 84.09 31.835 6.854L270 244.609m-87.615 74.57-78.602-76.165 55.018-80.311m0 0 81.191 72.386m-81.191-72.386 30.008 9.52L270 244.609m-30.008-9.52 30.008 9.52"
    />
    <path fill="#000" fill-rule="evenodd" d="m204.918 318.333.03.01-.03-.01Z" clip-rule="evenodd" />
    <path fill="#000" d="m189.625 314.538 12.124-18.364 10.052 3.189 12.512 4.176-4.298 4.448-15.067 10.356-.03-.01c-1.255-.403-13.144-1.968-15.293-3.795Z" />
    <path
        stroke="#000"
        stroke-linejoin="round"
        stroke-width="1.5"
        d="m204.948 318.343 15.067-10.356 4.298-4.448-12.512-4.176-10.052-3.189-12.124 18.364c2.149 1.827 14.038 3.392 15.293 3.795m.03.01-.03-.01m.03.01-.03-.01m-9.027-3.051 9.027 3.051"
    />
    <path fill="#000" d="m226.313 236.262-46.228 67.48-.842-5.655 21.03-30.698 10.32-9.864 15.72-21.263Z" />
    <path fill="#000" d="m180.085 303.742-63.078-61.121 4.846-.144 57.39 55.61.842 5.655Z" />
    <path fill="#F1EFED" d="m117.007 242.621 44.152-64.448.864 5.667-40.17 58.637-4.846.144Z" />
    <path fill="#5869DD" d="m161.159 178.173 65.154 58.089-5.01.429-59.28-52.851-.864-5.667Z" />
    <path fill="#5869DD" d="m179.243 298.087 42.06-61.396 5.01-.429-15.72 21.263-10.32 9.864-21.03 30.698Z" />
    <path
        stroke="#000"
        stroke-linejoin="round"
        stroke-width="1.5"
        d="m180.085 303.742 46.228-67.48m-46.228 67.48-63.078-61.121m63.078 61.121-.842-5.655m-18.084-119.914 65.154 58.089m-65.154-58.089-44.152 64.448m44.152-64.448.864 5.667m64.29 52.422-5.01.429m5.01-.429-15.72 21.263-10.32 9.864-21.03 30.698m-62.236-55.466 4.846-.144m57.39 55.61 42.06-61.396m-42.06 61.396-57.39-55.61m40.17-58.637 59.28 52.851m-59.28-52.851-40.17 58.637"
    />
    <path fill="#F1EFED" fill-rule="evenodd" d="m144.773 237.145-7.675 11.204-2.186-2.118 7.603-11.099 2.258 2.013Z" clip-rule="evenodd" />
    <path fill="#000" d="m146.258 238.469-8.721 12.731-3.624-3.511.999-1.458 2.186 2.118 7.675-11.204 1.485 1.324Z" />
    <path stroke="#000" stroke-linejoin="round" stroke-width="1.5" d="m144.773 237.145-7.675 11.204-2.186-2.118m9.861-9.086-2.258-2.013-7.603 11.099m9.861-9.086 1.485 1.324-8.721 12.731-3.624-3.511.999-1.458" />
    <path fill="url(#g)" stroke="#000" stroke-linejoin="round" stroke-width="1.5" d="m192.241 315.603 12.125-18.363 20.459 6.596-11.267 16.446-21.317-4.679Z" />
    <path
        fill="#000"
        d="M211.057 235.716c-.621 1.076-.106 2.536 1.149 3.261 1.256.724 2.778.439 3.399-.637.621-1.077.106-2.537-1.15-3.261-1.255-.725-2.648-.662-3.398.637ZM176.051 287.388c-.621 1.076-.106 2.536 1.15 3.26 1.255.725 2.777.44 3.398-.637.621-1.076.106-2.536-1.15-3.26-1.255-.725-2.648-.662-3.398.637ZM212.118 316.42a1.125 1.125 0 1 0 1.537-.412c-.538-.31-1.162-.237-1.537.412ZM196.501 313.475a1.126 1.126 0 1 0 1.537-.412c-.538-.311-1.162-.238-1.537.412ZM204.648 300.858a1.125 1.125 0 1 0 1.536-.412c-.538-.311-1.162-.238-1.536.412ZM219.515 305.1a1.125 1.125 0 1 0 1.536-.412c-.538-.311-1.161-.238-1.536.412ZM161.573 189.414a1.875 1.875 0 1 0 2.561-.687c-.897-.517-1.78-.666-2.561.687ZM126.942 240.438a1.875 1.875 0 1 0 2.561-.688c-.897-.517-1.78-.666-2.561.688ZM266.428 235.831l-30.008-9.521 7.743-11.302-1.193-21.06 4.896-2.262-1.612 24.528 20.174 19.617Z"
    />
    <path fill="url(#h)" d="M209.556 176.823c56.482-14.275 55.291-23.166 38.31 14.863l-4.896 2.262 1.193 21.06-7.743 11.302-50.124-44.689 5.963-8.704 17.297 3.906Z" />
    <path
        stroke="#000"
        stroke-linejoin="round"
        stroke-width="1.5"
        d="m236.42 226.31 30.008 9.521-20.174-19.617 1.612-24.528M236.42 226.31l-50.124-44.689 5.963-8.704m44.161 53.393 7.743-11.302-1.193-21.06m4.896-2.262c16.981-38.029 18.172-29.138-38.31-14.863l-17.297-3.906m55.607 18.769-4.896 2.262m-50.711-21.031 23.426 5.289 22.767-9.445 20.097-7.82-15.579 33.007"
    />
    <path fill="#000" stroke="#000" stroke-linejoin="round" stroke-width="1.5" d="m237.374 187.134-8.722 12.73-3.624-3.511 8.602-12.557 3.744 3.338Z" />
    <path
        fill="#000"
        d="M252.801 88.356c20.657 11.918 28.899 37.471 20.979 60.593-1.159 3.383-5.765 4.925-7.628 8.154-3.495 6.058-4.832 12.995-9.885 17.133l-3.875-2.235c4.96-4.193 9.346-9.37 12.841-15.428 4.852-8.409 7.376-17.456 7.754-26.265.744-17.303-6.79-33.69-21.223-42.533.347.189.693.382 1.037.58Z"
    />
    <path
        fill="#5869DD"
        fill-rule="evenodd"
        d="M272.987 130.308c.744-17.303-6.79-33.69-21.223-42.533-23.541-12.804-50.633-1.41-65.014 23.517a155.95 155.95 0 0 1-2.186 3.64c-2.504 4.08-4.498 7.328-5.323 12.376 29.986-70.248 90.793-46.08 80.917 17.678l12.829-14.678Z"
        clip-rule="evenodd"
    />
    <path fill="#000" d="M265.233 156.573c-3.495 6.058-7.881 11.235-12.841 15.428 3.958-9.604 6.471-18.65 7.766-27.015l12.829-14.678c-.378 8.809-2.902 17.856-7.754 26.265Z" />
    <path
        stroke="#000"
        stroke-width="1.5"
        d="M186.75 111.292c14.593-25.294 41.471-37.117 64.041-24.096.328.19.652.382.973.579m-65.014 23.517c14.381-24.927 41.473-36.32 65.014-23.517m-65.014 23.517a155.95 155.95 0 0 1-2.186 3.64c-2.504 4.08-4.498 7.328-5.323 12.376 29.986-70.248 90.793-46.08 80.917 17.678m-8.394-57.211c.347.189.693.382 1.037.58 20.657 11.919 28.899 37.472 20.979 60.594-1.159 3.383-5.765 4.925-7.628 8.154-3.495 6.058-4.832 12.995-9.885 17.133l-3.875-2.235m-.628-84.226c14.433 8.842 21.967 25.23 21.223 42.533m-20.595 41.693c4.96-4.193 9.346-9.37 12.841-15.428 4.852-8.409 7.376-17.456 7.754-26.265m-20.595 41.693c3.958-9.604 6.471-18.65 7.766-27.015m12.829-14.678-12.829 14.678"
    />
    <path
        fill="#000"
        d="M225.807 164.155c-1.597-2.787-4.021-16.9.926-19.734-1.339 14.574.441 20.021 9.351 23.478-6.757 2.36-9.387-2.19-10.277-3.744ZM195.895 160.73c1.759-3.049 13.605-16.827 18.152-14.204.423.244.741.606.968 1.064-8.289 3.371-19.481 15.664-16.742 21.774-6.038-4.176-3.408-6.85-2.378-8.634ZM182.292 139.744c-3.087-10.128 3.223-12.078 5.187-12.676 2.258-.689 10.579-.451 15.491 1.888-14.817.981-22.278 2.281-18.91 14.016a8.81 8.81 0 0 1-1.768-3.228ZM215.846 138.905c-3.229-1.863-4.42-5.845-2.66-8.895 1.759-3.049 5.803-4.011 9.032-2.148-7.658.516-9.736 6.369-4.241 11.854a7.112 7.112 0 0 1-2.131-.811ZM235.148 116.706c-2.287 1.954-4.472 3.047-6.009 2.161-2.969-1.713-.749-9.22 1.639-15.074-2.405 12.319-1.225 15.022 6.091 11.308a29.601 29.601 0 0 1-1.721 1.605ZM234.704 132.505c-.664-2.18.879-4.418 3.265-6.431-2.142 5.186-.609 7.812 5.554 12.136-4.081-.979-7.929-2.785-8.819-5.705Z"
    />
    <path
        fill="url(#i)"
        fill-rule="evenodd"
        d="M184.377 111.657c-14.593 25.295-9.702 53.716 12.004 66.239 21.707 12.523 48.11 2.158 62.704-23.136 14.593-25.294 11.101-54.639-10.606-67.163-21.706-12.523-49.509-1.234-64.102 24.06Zm28.809 18.353c-1.76 3.05-.569 7.032 2.66 8.895a7.112 7.112 0 0 0 2.131.811c2.708.552 5.515-.555 6.902-2.959 1.759-3.05.568-7.032-2.661-8.895-3.229-1.863-7.273-.901-9.032 2.148Zm29.821-35.18c-5.847-3.373-7.273-.9-9.032 2.15-.611 1.057-1.928 3.702-3.197 6.813-2.388 5.854-4.608 13.361-1.639 15.074 1.537.886 3.722-.207 6.009-2.161a29.601 29.601 0 0 0 1.721-1.605c3.94-3.956 7.782-9.613 8.799-11.375 1.76-3.05.568-7.032-2.661-8.895Zm-42.827 75.733c3.229 1.863 7.273.901 9.032-2.149 1.596-2.766 8.015-16.361 5.803-20.824-.227-.458-.545-.82-.968-1.064-4.547-2.623-16.393 11.155-18.152 14.204-1.03 1.784-3.66 4.458 2.378 8.634.559.387 1.191.786 1.907 1.199Zm8.112-75.517c-11.405 2.65-9.938 9.09-9.473 11.09.438 1.884 3.635 6.938 7.45 10.349 1.307 1.168 2.686 2.144 4.051 2.733 1.27.549 2.527.763 3.704.49 5.851-1.36 4.373-16.196 3.591-20.302a14.921 14.921 0 0 0-.11-.53c-.473-2.035-2.383-3.471-4.859-3.949a10.328 10.328 0 0 0-3.552-.038c-.266.042-.534.095-.802.157Zm-20.813 32.022c-1.964.598-8.274 2.548-5.187 12.676a8.81 8.81 0 0 0 1.768 3.228c1.604 1.838 3.854 2.722 5.933 2.088 3.073-.936 18.181-7.243 16.519-12.697-.441-1.446-1.77-2.563-3.542-3.407-4.912-2.339-13.233-2.577-15.491-1.888Zm51.841 39.322c3.513-2.012 5.065-5.903 3.468-8.691-1.597-2.787-11.109-16.112-16.055-13.278-4.947 2.834-2.523 16.947-.926 19.734.89 1.554 3.52 6.104 10.277 3.744.988-.345 2.064-.837 3.236-1.509Zm14.744-27.515c1.964-.598 8.273-2.551 4.86-13.751-1.306-4.283-4.855-6.995-7.928-6.059-1.734.529-7.284 2.82-11.461 5.8-.55.392-1.076.796-1.566 1.209-2.386 2.013-3.929 4.251-3.265 6.431.89 2.92 4.738 4.726 8.819 5.705 1.745.419 3.534.687 5.152.826 2.409.207 4.441.128 5.389-.161Z"
        clip-rule="evenodd"
    />
    <path
        fill="#000"
        d="M198.819 106.136c-.465-2-1.932-8.44 9.473-11.09.268-.063.536-.115.802-.157a10.328 10.328 0 0 1 3.552.038c-3.174 1.131-5.693 2.253-7.482 3.613-4.388 3.336-4.386 8.103 1.105 17.945-3.815-3.411-7.012-8.465-7.45-10.349Z"
    />
    <path fill="#000" d="M212.646 94.927c2.476.478 4.386 1.914 4.859 3.95.034.147.071.325.11.529-4.846-3.296-7.578-2.485-12.451-.866 1.789-1.36 4.308-2.482 7.482-3.613Z" />
    <path
        stroke="#000"
        stroke-width="1.5"
        d="M222.218 127.862c3.229 1.863 4.42 5.845 2.661 8.895-1.387 2.404-4.194 3.511-6.902 2.959m4.241-11.854c-3.229-1.863-7.273-.901-9.032 2.148-1.76 3.05-.569 7.032 2.66 8.895a7.112 7.112 0 0 0 2.131.811m4.241-11.854c-7.658.516-9.736 6.369-4.241 11.854m8.756 4.705c4.946-2.834 14.458 10.491 16.055 13.278 1.597 2.788.045 6.679-3.468 8.691-1.172.672-2.248 1.164-3.236 1.509m-9.351-23.478c-4.947 2.834-2.523 16.947-.926 19.734.89 1.554 3.52 6.104 10.277 3.744m-9.351-23.478c-1.339 14.574.441 20.021 9.351 23.478m-1.38-35.394c-.664-2.18.879-4.418 3.265-6.431m-3.265 6.431c-.801-2.628 1.606-5.339 4.831-7.64m-4.831 7.64c.89 2.92 4.738 4.726 8.819 5.705m-5.554-12.136c-2.142 5.186-.609 7.812 5.554 12.136m-5.554-12.136c.49-.413 1.016-.817 1.566-1.209m-8.757-21.072c-2.388 5.854-4.608 13.361-1.639 15.074 1.537.886 3.722-.207 6.009-2.161a29.601 29.601 0 0 0 1.721-1.605m-6.091-11.308c1.269-3.111 2.586-5.756 3.197-6.814 1.759-3.05 3.185-5.522 9.032-2.148 3.229 1.862 4.421 5.845 2.661 8.895-1.017 1.762-4.859 7.419-8.799 11.375m-6.091-11.308c-2.405 12.319-1.225 15.022 6.091 11.308m-21.854 32.489c2.212 4.463-4.207 18.058-5.803 20.824-1.759 3.05-5.803 4.012-9.032 2.149a27.424 27.424 0 0 1-1.907-1.199m16.742-21.774c-.227-.458-.545-.82-.968-1.064-4.547-2.623-16.393 11.155-18.152 14.204-1.03 1.784-3.66 4.458 2.378 8.634m16.742-21.774c-8.289 3.371-19.481 15.664-16.742 21.774m-14.213-26.392a8.81 8.81 0 0 1-1.768-3.228c-3.087-10.128 3.223-12.078 5.187-12.676 2.258-.689 10.579-.451 15.491 1.888m-18.91 14.016c1.604 1.838 3.854 2.722 5.933 2.088 3.073-.936 18.181-7.243 16.519-12.697-.441-1.446-1.77-2.563-3.542-3.407m-18.91 14.016c-3.368-11.735 4.093-13.035 18.91-14.016m36.565-4.091c4.177-2.98 9.727-5.271 11.461-5.8 3.073-.936 6.622 1.776 7.928 6.059 3.413 11.2-2.896 13.153-4.86 13.751-.948.289-2.98.368-5.389.161a35.426 35.426 0 0 1-5.152-.826m-30.877-43.283a10.328 10.328 0 0 0-3.552-.038c-.266.042-.534.095-.802.157-11.405 2.65-9.938 9.09-9.473 11.09.438 1.884 3.635 6.938 7.45 10.349m6.377-21.558c2.476.478 4.386 1.914 4.859 3.95.034.147.071.325.11.529m-4.969-4.479c-3.174 1.131-5.693 2.253-7.482 3.613m1.105 17.945c1.307 1.168 2.686 2.144 4.051 2.733 1.27.549 2.527.763 3.704.49 5.851-1.36 4.373-16.196 3.591-20.302m-11.346 17.079c-5.491-9.842-5.493-14.609-1.105-17.945m12.451.866c-4.846-3.296-7.578-2.485-12.451-.866m-20.787 13.117c-14.593 25.295-9.702 53.716 12.004 66.239 21.707 12.523 48.11 2.158 62.704-23.136 14.593-25.294 11.101-54.639-10.606-67.163-21.706-12.523-49.509-1.234-64.102 24.06Z"
    />
    <path
        fill="#000"
        d="M292.722 225.662c-1.706-2.984-4.285-18.101 1.011-21.142-1.447 15.615.452 21.448 9.984 25.143-7.234 2.536-10.044-2.336-10.995-4.001ZM260.715 222.024c1.886-3.269 14.577-18.042 19.441-15.236.452.261.792.648 1.035 1.139-8.874 3.62-20.864 16.802-17.939 23.345-6.458-4.468-3.64-7.335-2.537-9.248ZM246.18 199.555c-3.293-10.848 3.462-12.944 5.564-13.587 2.417-.739 11.321-.493 16.576 2.008-15.858 1.066-23.844 2.466-20.251 15.036a9.422 9.422 0 0 1-1.889-3.457ZM282.089 198.622c-3.454-1.993-4.724-6.258-2.838-9.527 1.886-3.269 6.215-4.304 9.668-2.312-8.196.562-10.425 6.834-4.551 12.704a7.591 7.591 0 0 1-2.279-.865ZM302.768 174.818c-2.45 2.096-4.789 3.27-6.433 2.322-3.175-1.833-.793-9.877 1.769-16.151-2.586 13.201-1.326 16.095 6.508 12.108a31.76 31.76 0 0 1-1.844 1.721ZM302.276 191.745c-.708-2.335.945-4.734 3.501-6.893-2.298 5.558-.66 8.37 5.931 12.996-4.366-1.045-8.482-2.975-9.432-6.103Z"
    />
    <path
        fill="url(#j)"
        fill-rule="evenodd"
        d="M249.089 169.837c-15.643 27.114-10.437 57.557 12.779 70.952 19.455 11.224 51.483 2.263 67.126-24.851 15.643-27.114 11.936-58.55-11.28-71.944-23.216-13.395-52.981-1.271-68.625 25.843Zm30.162 19.258c-1.886 3.269-.616 7.534 2.838 9.527a7.591 7.591 0 0 0 2.279.865c2.898.589 5.903-.599 7.39-3.177 1.886-3.269.615-7.534-2.839-9.527-3.453-1.992-7.782-.957-9.668 2.312Zm31.95-37.721c-6.254-3.608-7.783-.958-9.669 2.311-.654 1.135-2.066 3.969-3.428 7.304-2.562 6.274-4.944 14.318-1.769 16.151 1.644.948 3.983-.226 6.433-2.322a31.76 31.76 0 0 0 1.844-1.721c4.22-4.243 8.337-10.307 9.427-12.196 1.886-3.269.615-7.534-2.838-9.527Zm-45.911 81.18c3.454 1.992 7.783.957 9.669-2.312 1.71-2.964 8.594-17.536 6.232-22.315-.243-.491-.583-.878-1.035-1.139-4.864-2.806-17.555 11.967-19.441 15.236-1.103 1.913-3.921 4.78 2.537 9.248.597.413 1.274.84 2.038 1.282Zm8.76-80.914c-12.208 2.852-10.645 9.75-10.149 11.891.467 2.019 3.883 7.429 7.962 11.08 1.397 1.25 2.872 2.294 4.333 2.925 1.357.586 2.703.815 3.963.52 6.262-1.463 4.696-17.355 3.864-21.754a14.75 14.75 0 0 0-.118-.567c-.504-2.18-2.546-3.717-5.196-4.226a11.055 11.055 0 0 0-3.801-.037 12.02 12.02 0 0 0-.858.168Zm-22.306 34.328c-2.102.643-8.857 2.739-5.564 13.587a9.422 9.422 0 0 0 1.889 3.457c1.714 1.966 4.121 2.911 6.347 2.23 3.289-1.006 19.463-7.779 17.69-13.62-.47-1.549-1.891-2.744-3.786-3.646-5.255-2.501-14.159-2.747-16.576-2.008Zm55.437 42.075c3.761-2.16 5.427-6.33 3.721-9.314-1.706-2.985-11.872-17.251-17.169-14.209-5.296 3.041-2.717 18.158-1.011 21.142.951 1.665 3.761 6.537 10.995 4.001 1.058-.37 2.21-.899 3.464-1.62Zm15.807-29.493c2.102-.643 8.856-2.742 5.215-14.738-1.393-4.587-5.188-7.489-8.477-6.483-1.857.568-7.799 3.029-12.272 6.226-.588.42-1.152.854-1.677 1.297-2.556 2.159-4.209 4.558-3.501 6.893.95 3.128 5.066 5.058 9.432 6.103 1.868.447 3.781.732 5.512.879 2.579.22 4.753.134 5.768-.177Z"
        clip-rule="evenodd"
    />
    <path
        fill="#000"
        d="M263.901 163.531c-.496-2.141-2.059-9.039 10.149-11.891.287-.067.573-.123.858-.168a11.055 11.055 0 0 1 3.801.037c-3.398 1.215-6.094 2.42-8.01 3.878-4.7 3.578-4.702 8.686 1.164 19.224-4.079-3.651-7.495-9.061-7.962-11.08Z"
    />
    <path fill="#000" d="M278.709 151.509c2.65.509 4.692 2.046 5.196 4.226.037.158.076.348.118.567-5.183-3.526-8.107-2.654-13.324-.915 1.916-1.458 4.612-2.663 8.01-3.878Z" />
    <path
        stroke="#000"
        stroke-width="1.5"
        d="M288.919 186.783c3.454 1.993 4.725 6.258 2.839 9.527-1.487 2.578-4.492 3.766-7.39 3.177m4.551-12.704c-3.453-1.992-7.782-.957-9.668 2.312-1.886 3.269-.616 7.534 2.838 9.527a7.591 7.591 0 0 0 2.279.865m4.551-12.704c-8.196.562-10.425 6.834-4.551 12.704m9.365 5.033c5.297-3.042 15.463 11.224 17.169 14.209 1.706 2.984.04 7.154-3.721 9.314-1.254.721-2.406 1.25-3.464 1.62m-9.984-25.143c-5.296 3.041-2.717 18.158-1.011 21.142.951 1.665 3.761 6.537 10.995 4.001m-9.984-25.143c-1.447 15.615.452 21.448 9.984 25.143m-1.441-37.918c-.708-2.335.945-4.734 3.501-6.893m-3.501 6.893c-.854-2.815 1.724-5.722 5.178-8.19m-5.178 8.19c.95 3.128 5.066 5.058 9.432 6.103m-5.931-12.996c-2.298 5.558-.66 8.37 5.931 12.996m-5.931-12.996a26.413 26.413 0 0 1 1.677-1.297m-9.35-22.566c-2.562 6.274-4.944 14.318-1.769 16.151 1.644.948 3.983-.226 6.433-2.322a31.76 31.76 0 0 0 1.844-1.721m-6.508-12.108c1.362-3.335 2.774-6.169 3.428-7.304 1.886-3.269 3.415-5.919 9.669-2.311 3.453 1.993 4.724 6.258 2.838 9.527-1.09 1.889-5.207 7.953-9.427 12.196m-6.508-12.108c-2.586 13.201-1.326 16.095 6.508 12.108m-23.421 34.83c2.362 4.779-4.522 19.351-6.232 22.315-1.886 3.269-6.215 4.304-9.669 2.312a29.958 29.958 0 0 1-2.038-1.282m17.939-23.345c-.243-.491-.583-.878-1.035-1.139-4.864-2.806-17.555 11.967-19.441 15.236-1.103 1.913-3.921 4.78 2.537 9.248m17.939-23.345c-8.874 3.62-20.864 16.802-17.939 23.345m-15.183-28.26a9.422 9.422 0 0 1-1.889-3.457c-3.293-10.848 3.462-12.944 5.564-13.587 2.417-.739 11.321-.493 16.576 2.008m-20.251 15.036c1.714 1.966 4.121 2.911 6.347 2.23 3.289-1.006 19.463-7.779 17.69-13.62-.47-1.549-1.891-2.744-3.786-3.646m-20.251 15.036c-3.593-12.57 4.393-13.97 20.251-15.036m39.134-4.421c4.473-3.197 10.415-5.658 12.272-6.226 3.289-1.006 7.084 1.896 8.477 6.483 3.641 11.996-3.113 14.095-5.215 14.738-1.015.311-3.189.397-5.768.177a37.836 37.836 0 0 1-5.512-.879m-32.999-46.339a11.055 11.055 0 0 0-3.801-.037 12.02 12.02 0 0 0-.858.168c-12.208 2.852-10.645 9.75-10.149 11.891.467 2.019 3.883 7.429 7.962 11.08m6.846-23.102c2.65.509 4.692 2.046 5.196 4.226.037.158.076.348.118.567m-5.314-4.793c-3.398 1.215-6.094 2.42-8.01 3.878m1.164 19.224c1.397 1.25 2.872 2.294 4.333 2.925 1.357.586 2.703.815 3.963.52 6.262-1.463 4.696-17.355 3.864-21.754m-12.16 18.309c-5.866-10.538-5.864-15.646-1.164-19.224m13.324.915c-5.183-3.526-8.107-2.654-13.324-.915m-21.61 14.45c-15.643 27.114-10.437 57.557 12.779 70.952 19.455 11.224 51.483 2.263 67.126-24.851 15.643-27.114 11.936-58.55-11.28-71.944-23.216-13.395-52.981-1.271-68.625 25.843Z"
    />
    <path
        fill="#000"
        d="M231.987 217.482c-.621 1.076-.107 2.536 1.149 3.26 1.256.725 2.777.439 3.398-.637s.107-2.536-1.149-3.261c-1.256-.724-2.649-.662-3.398.638ZM190.374 180.055a1.875 1.875 0 1 0 2.561-.687c-.897-.518-1.78-.667-2.561.687Z"
    />
    <circle cx="4.125" cy="4.125" r="4.125" fill="#000" stroke="#000" stroke-width="1.125" transform="scale(-1 1) rotate(-29.983 247.658 506.738)" />
    <circle cx="3.375" cy="3.375" r="3.375" fill="#5869DD" stroke="#000" stroke-width="1.125" transform="scale(-1 1) rotate(-29.983 247.931 502.16)" />
    <path fill="#000" d="M118.349 202.255c-2.105-2.267-.752-7.608 3.168-12.208 4.073-4.778 9.373-6.947 11.839-4.846 2.466 2.102 1.164 7.679-2.908 12.457-4.072 4.778-9.373 6.947-11.839 4.846l-.26-.249Z" />
    <path
        fill="url(#k)"
        d="M133.356 185.201c-2.466-2.101-7.766.068-11.839 4.846-3.92 4.6-5.273 9.941-3.168 12.208l-9.834-9.425-.289-.277c-1.777-1.914-1.314-5.787.967-9.616a20.378 20.378 0 0 1 1.99-2.768c4.072-4.778 9.48-6.856 12.078-4.642l10.095 9.674Z"
    />
    <path fill="#F1EFED" d="M106.442 190.843c-2.598-2.214-1.404-7.883 2.668-12.661s9.48-6.856 12.078-4.641l2.073 1.986c-2.598-2.214-8.006-.136-12.078 4.642a20.378 20.378 0 0 0-1.99 2.768c-2.281 3.829-2.744 7.702-.967 9.616l-1.784-1.71Z" />
    <path
        stroke="#000"
        stroke-width="1.5"
        d="M121.188 173.541c-2.598-2.215-8.006-.137-12.078 4.641-4.072 4.778-5.266 10.447-2.668 12.661l1.784 1.71m12.962-19.012 12.168 11.66m-12.168-11.66 2.073 1.986m-4.652 26.977c2.466 2.101 7.767-.068 11.839-4.846 4.072-4.778 5.374-10.355 2.908-12.457m-14.747 17.303-.26-.249m.26.249a3.601 3.601 0 0 1-.26-.249m15.007-17.054c-2.466-2.101-7.766.068-11.839 4.846-3.92 4.6-5.273 9.941-3.168 12.208m15.007-17.054-10.095-9.674m-14.746 17.303a3.437 3.437 0 0 1-.289-.277m.289.277 9.834 9.425m-9.834-9.425-.289-.277m15.035-17.026c-2.598-2.214-8.006-.136-12.078 4.642a20.378 20.378 0 0 0-1.99 2.768c-2.281 3.829-2.744 7.702-.967 9.616m10.123 9.702-10.123-9.702"
    />
    <path fill="#D9D9D9" d="M136.579 204.824c-1.828 2.594-2.515 5.382-1.598 6.364.032.035.066.067.102.097 1.067.883 3.465-.577 5.357-3.262 1.892-2.685 2.562-5.578 1.495-6.461-1.066-.883-3.464.577-5.356 3.262Z" />
    <path fill="#5869DD" d="M123.178 200.054c-1.124-.931-.501-3.862 1.392-6.547 1.892-2.685 4.336-4.107 5.46-3.176l11.905 11.231c-1.066-.883-3.464.577-5.356 3.262-1.828 2.594-2.515 5.382-1.598 6.364l-11.803-11.134Z" />
    <path
        stroke="#000"
        stroke-width="1.5"
        d="M135.083 211.285c1.067.883 3.465-.577 5.357-3.262 1.892-2.685 2.562-5.578 1.495-6.461m-6.852 9.723-.102-.097m.102.097a1.036 1.036 0 0 1-.102-.097m6.954-9.626c-1.066-.883-3.464.577-5.356 3.262-1.828 2.594-2.515 5.382-1.598 6.364m6.954-9.626-11.905-11.231c-1.124-.931-3.568.491-5.46 3.176-1.893 2.685-2.516 5.616-1.392 6.547l11.803 11.134"
    />
    <path fill="#000" d="m223.988 269.582-7.958 12.293-8.933.475 8.708-13.592 8.183.824ZM203.512 249.543l-7.808-1.474c-2.366-1.571-2.587-2.375-3.235-4.898l7.806 1.475h.002c.648 2.522.869 3.326 3.235 4.897Z" />
    <path fill="#5869DD" d="m223.988 269.582-8.183-.824-20.101-20.689 7.808 1.474 20.476 20.039ZM192.469 243.171l-53.98-49.759 7.806 1.474 53.98 49.76-7.806-1.475Z" />
    <path fill="url(#l)" d="m215.805 268.758-8.708 13.592-20.101-20.689-20.75-9.807-41.217-37.994 13.457-20.448h.003l53.98 49.759c.648 2.523.869 3.327 3.235 4.898l20.101 20.689Z" />
    <path
        stroke="#000"
        stroke-linejoin="round"
        stroke-width="1.5"
        d="m223.988 269.582-7.958 12.293-8.933.475m16.891-12.768-8.183-.824m8.183.824-20.476-20.039m3.585 32.807 8.708-13.592m-8.708 13.592-20.101-20.689-20.75-9.807-41.217-37.994m90.776 54.898-20.101-20.689m0 0 7.808 1.474m-7.808-1.474c-2.366-1.571-2.587-2.375-3.235-4.898m11.043 6.372c-2.366-1.571-2.587-2.375-3.235-4.897h-.002m-7.806-1.475 7.806 1.475m-7.806-1.475-53.98-49.759m61.787 51.235-.001-.001m-75.246-30.786 13.458-20.449.002.001m-13.46 20.448 13.457-20.448h.003m61.786 51.234-53.98-49.76-7.806-1.474"
    />
    <path fill="#000" d="m226.52 293.257-6.697-6.316c-.702-.753-.422-2.523.568-4.475l6.634 6.258c-.97 1.971-1.208 3.781-.505 4.533Z" />
    <path fill="#5869DD" d="M233.474 283.631c-1.066-.883 2.5 4.047.608 6.732-.429.609-1.105 4.167-7.057-1.639l-6.634-6.258c.303-.598.673-1.213 1.102-1.822 1.892-2.685 4.29-4.145 5.357-3.262l6.624 6.249Z" />
    <path
        fill="#F1EFED"
        d="M214.716 282.123c-1.123-.931-.5-3.862 1.392-6.547 1.892-2.685 4.337-4.107 5.46-3.176l5.282 4.982c-1.067-.883-3.465.577-5.357 3.262a14.809 14.809 0 0 0-1.102 1.822c-.99 1.952-1.27 3.722-.568 4.475l-5.107-4.818Z"
    />
    <path
        stroke="#000"
        stroke-width="1.5"
        d="M214.716 282.123c-1.123-.931-.5-3.862 1.392-6.547 1.892-2.685 4.337-4.107 5.46-3.176m-6.852 9.723 11.804 11.134m-11.804-11.134 5.107 4.818m1.745-14.541 11.906 11.231M221.568 272.4l5.282 4.982m6.624 6.249c-1.066-.883 2.5 4.047.608 6.732-.429.609-1.105 4.167-7.057-1.639m6.449-5.093-6.624-6.249m-.33 15.875.102.097a1.036 1.036 0 0 1-.102-.097Zm0 0c-.703-.752-.465-2.562.505-4.533m-.505 4.533-6.697-6.316m7.027-9.559c-1.067-.883-3.465.577-5.357 3.262a14.809 14.809 0 0 0-1.102 1.822m-.568 4.475c-.702-.753-.422-2.523.568-4.475m0 0 6.634 6.258"
    />
    <path fill="url(#m)" d="M234.62 290.723c3.381-4.032 6.71-5.703 8.961-6.292.732-.192 1.319-.144 1.705.18-1.532-1.49-7.659-6.743-17.439 3.142-6.395 7.827-.389 14.217.945 15.887-.978-1.727 1.65-7.935 5.828-12.917Z" />
    <path
        fill="#000"
        fill-rule="evenodd"
        d="M243.581 284.431c-2.251.589-5.58 2.26-8.961 6.292-4.178 4.982-6.806 11.19-5.828 12.917.071.126.159.234.266.323 0 0-.099-.113-.266-.323 5.935-2.164 16.902-16.88 14.789-19.209Zm0 0c.732-.192 1.319-.144 1.705.18 0 0-.643-.097-1.705-.18Z"
        clip-rule="evenodd"
    />
    <path fill="#F1EFED" d="M240.019 296.675c4.482-5.344 6.84-10.746 5.267-12.064 0 0-.643-.097-1.705-.18 2.113 2.329-8.854 17.045-14.789 19.209.167.21.266.323.266.323 1.572 1.319 6.48-1.945 10.961-7.288Z" />
    <path
        stroke="#000"
        stroke-width="1.5"
        d="M245.286 284.611c1.573 1.318-.785 6.72-5.267 12.064-4.481 5.343-9.389 8.607-10.961 7.288m16.228-19.352s-.643-.097-1.705-.18m1.705.18c-.386-.324-.973-.372-1.705-.18m1.705.18c-1.532-1.49-7.659-6.743-17.439 3.142-6.395 7.827-.389 14.217.945 15.887m.266.323s-.099-.113-.266-.323m.266.323a1.147 1.147 0 0 1-.266-.323m14.789-19.209c-2.251.589-5.58 2.26-8.961 6.292-4.178 4.982-6.806 11.19-5.828 12.917m14.789-19.209c2.113 2.329-8.854 17.045-14.789 19.209"
    />
    <ellipse cx="3" cy="3.375" fill="#000" stroke="#000" stroke-width="1.2" rx="3" ry="3.375" transform="scale(-1 1) rotate(-29.983 384.078 506.188)" />
    <ellipse cx="2.625" cy="3.375" fill="url(#n)" stroke="#000" stroke-width="1.2" rx="2.625" ry="3.375" transform="scale(-1 1) rotate(-29.983 383.328 503.384)" />
    <path fill="#000" stroke="#000" stroke-linejoin="round" stroke-width="1.5" d="M245.729 260.913c1.013.585 8.916-6.946 5.232-9.071 0 0-4.392-3.322-7.432 1.167-3.041 4.489 2.2 7.904 2.2 7.904Z" />
    <ellipse cx="3.75" cy="4.875" stroke="#000" stroke-width="1.2" rx="3.75" ry="4.875" transform="scale(-1 1) rotate(-31.437 440.3 530.504)" />
    <ellipse cx="3.75" cy="4.875" fill="url(#o)" stroke="#000" stroke-width="1.2" rx="3.75" ry="4.875" transform="scale(-1 1) rotate(-31.437 440.641 531.846)" />
    <path
        stroke="#000"
        stroke-width=".75"
        d="M209.081 311.419c.916-1.5.733-3.282-.41-3.981a1.942 1.942 0 0 0-.956-.28m1.366 4.261c-1.367.077-2.154.087-4.575-1.557m4.575 1.557c-.705 1.152-1.854 1.802-2.867 1.725m-1.708-3.282c.097-.329.241-.658.435-.974.683-1.117 1.784-1.763 2.774-1.73m-3.209 2.704c-.362 1.229-.058 2.456.845 3.007.264.162.558.252.863.275m1.501-5.986c1.187 2.607.473 3.854-1.501 5.986"
    />
    <path
        fill="#000"
        d="M205.773 276.397a1.125 1.125 0 1 0 1.536-.412c-.538-.311-1.162-.238-1.536.412ZM210.919 268.975a1.126 1.126 0 1 0 1.537-.412c-.538-.311-1.162-.238-1.537.412ZM138.835 198.811a1.126 1.126 0 1 0 1.537-.412c-.538-.311-1.162-.238-1.537.412ZM128.267 212.623a1.125 1.125 0 1 0 1.536-.412c-.538-.31-1.161-.237-1.536.412Z"
    />
    <ellipse cx="9.75" cy="10.125" fill="#5869DD" stroke="#000" stroke-width="1.5" rx="9.75" ry="10.125" transform="scale(-1 1) rotate(-29.983 314.393 397.28)" />
    <path
        fill="#000"
        d="M134.7 208.98c-2.484 4.306-1.443 9.558 2.324 11.731.797.46 1.653.746 2.529.869a7.722 7.722 0 0 0 3.107-.214 9.045 9.045 0 0 0 3.19-1.623 10.066 10.066 0 0 0 2.493-2.892 10.063 10.063 0 0 0 1.255-3.605 9.045 9.045 0 0 0-.191-3.574c-.503-1.906-1.658-3.554-3.388-4.552-3.767-2.173-8.835-.445-11.319 3.86Z"
    />
    <path
        stroke="#000"
        stroke-width="1.5"
        d="M148.343 216.851a10.063 10.063 0 0 0 1.255-3.605m-1.255 3.605 1.255-3.605m-1.255 3.605 2.873 2.524m-2.873-2.524a10.066 10.066 0 0 1-2.493 2.892m3.748-6.497 3.13.507m-3.13-.507a9.045 9.045 0 0 0-.191-3.574m-1.414 13.038-2.143-2.967m0 0a9.045 9.045 0 0 1-3.19 1.623m1.885 2.819-1.885-2.819m0 0a7.722 7.722 0 0 1-3.107.214m.157 1.98-.157-1.98m0 0a6.986 6.986 0 0 1-2.529-.869c-3.767-2.173-4.808-7.425-2.324-11.731 2.484-4.305 7.552-6.033 11.319-3.86 1.73.998 2.885 2.646 3.388 4.552m0 0 2.44-.324"
    />
    <ellipse cx="7.125" cy="7.875" fill="url(#p)" rx="7.125" ry="7.875" transform="scale(-1 1) rotate(-29.983 316.338 387.754)" />
    <ellipse cx="5.806" cy="6.629" fill="#5869DD" stroke="#000" stroke-width=".75" rx="5.806" ry="6.629" transform="scale(-1 1) rotate(-24.816 430.812 495.533)" />
    <ellipse cx="4.817" cy="5.381" fill="#000" rx="4.817" ry="5.381" transform="scale(-1 1) rotate(-24.816 433.248 491.651)" />
    <path
        fill="url(#q)"
        stroke="#000"
        stroke-linecap="round"
        stroke-linejoin="round"
        stroke-width=".75"
        d="M158.364 234.747c1.424.499 1.942.263 2.561-.687-.73-3.631-.918-5.023-.337-8.421-.925-.669-1.519-.613-2.699.175-.881 3.595-.543 5.467.475 8.933Z"
    />
    <defs>
        <linearGradient id="a" x1="128.692" x2="126.886" y1="102.826" y2="154.879" gradientUnits="userSpaceOnUse">
            <stop stop-color="#D6FFBB" />
            <stop offset="1" stop-color="#5869DD" />
        </linearGradient>
        <linearGradient id="b" x1="64.919" x2="93.608" y1="75.266" y2="169.883" gradientUnits="userSpaceOnUse">
            <stop stop-color="#D6FFBB" />
            <stop offset="1" stop-color="#5869DD" />
        </linearGradient>
        <linearGradient id="c" x1="150.415" x2="133.702" y1="115.113" y2="166.943" gradientUnits="userSpaceOnUse">
            <stop stop-color="#D6FFBB" />
            <stop offset="1" stop-color="#5869DD" />
        </linearGradient>
        <linearGradient id="d" x1="164.587" x2="135.017" y1="102.402" y2="183.739" gradientUnits="userSpaceOnUse">
            <stop stop-color="#D6FFBB" />
            <stop offset="1" stop-color="#5869DD" />
        </linearGradient>
        <linearGradient id="e" x1="141.812" x2="202.312" y1="87.094" y2="303.4" gradientUnits="userSpaceOnUse">
            <stop stop-color="#D6FFBB" />
            <stop offset="1" stop-color="#5869DD" />
        </linearGradient>
        <linearGradient id="f" x1="178.788" x2="239.693" y1="266.883" y2="217.599" gradientUnits="userSpaceOnUse">
            <stop stop-color="#D6FFBB" />
            <stop offset="1" stop-color="#5869DD" />
        </linearGradient>
        <linearGradient id="g" x1="249.423" x2="198.314" y1="305.04" y2="314.084" gradientUnits="userSpaceOnUse">
            <stop stop-color="#D6FFBB" />
            <stop offset="1" stop-color="#5869DD" />
        </linearGradient>
        <linearGradient id="h" x1="179.47" x2="254.491" y1="193.367" y2="181.736" gradientUnits="userSpaceOnUse">
            <stop stop-color="#D6FFBB" />
            <stop offset="1" stop-color="#5869DD" />
        </linearGradient>
        <linearGradient id="i" x1="151.994" x2="297.239" y1="158.781" y2="106.637" gradientUnits="userSpaceOnUse">
            <stop stop-color="#D6FFBB" />
            <stop offset="1" stop-color="#5869DD" />
        </linearGradient>
        <linearGradient id="j" x1="214.386" x2="369.997" y1="220.355" y2="164.683" gradientUnits="userSpaceOnUse">
            <stop stop-color="#D6FFBB" />
            <stop offset="1" stop-color="#5869DD" />
        </linearGradient>
        <linearGradient id="k" x1="132.297" x2="107.25" y1="195.172" y2="180.721" gradientUnits="userSpaceOnUse">
            <stop stop-color="#D6FFBB" />
            <stop offset="1" stop-color="#5869DD" />
        </linearGradient>
        <linearGradient id="l" x1="134.663" x2="204.537" y1="139.256" y2="289.417" gradientUnits="userSpaceOnUse">
            <stop stop-color="#D6FFBB" />
            <stop offset="1" stop-color="#5869DD" />
        </linearGradient>
        <linearGradient id="m" x1="256.42" x2="225.174" y1="277.901" y2="286.283" gradientUnits="userSpaceOnUse">
            <stop stop-color="#D6FFBB" />
            <stop offset="1" stop-color="#5869DD" />
        </linearGradient>
        <linearGradient id="n" x1="26.25" x2="-3.757" y1="10.607" y2="1.702" gradientUnits="userSpaceOnUse">
            <stop stop-color="#D6FFBB" />
            <stop offset="1" stop-color="#5869DD" />
        </linearGradient>
        <linearGradient id="o" x1="-8.916" x2="7.5" y1="-3.418" y2="4.875" gradientUnits="userSpaceOnUse">
            <stop stop-color="#D6FFBB" />
            <stop offset="1" stop-color="#5869DD" />
        </linearGradient>
        <linearGradient id="p" x1="19.125" x2="-2.25" y1="10.5" y2="7.5" gradientUnits="userSpaceOnUse">
            <stop stop-color="#D6FFBB" />
            <stop offset="1" stop-color="#5869DD" />
        </linearGradient>
        <linearGradient id="q" x1="165.072" x2="159.25" y1="220.868" y2="233.96" gradientUnits="userSpaceOnUse">
            <stop stop-color="#D6FFBB" />
            <stop offset="1" stop-color="#5869DD" />
        </linearGradient>
    </defs>
</svg>
