<svg width="60" height="60" viewBox="0 0 60 60" fill="none" xmlns="http://www.w3.org/2000/svg">
  <path d="M49 19.5V15.5H45.5V11H42V8H37V4H33.5V1H26.5V4H23V8H18V11H14.5V15.5H11V19.5H14.5H17V20.75H19.75V22.875H21.75V26.5H24.25H36H38.5V22.875H40.5V20.75H43.25V19.5H45.75H49Z" fill="#5869DD"/>
  <path d="M26.5 38H33.5H37V41.5H43H49H53V39H56.5V36H59V27.75H56.5V24H53V19.5H49.25H49H45.75V31.375H44V33.25H36V26.5H24.25V33.25H16.25V31.375H14.5V19.5H11H7V24H3.5V27.75H1V36H3.5V39H7V41.5H11H17H23V38H26.5Z" fill="#5869DD"/>
  <path d="M42.75 49.25H43H48.75V51.25H52.75V54H55.25V58.75H29V55.75H33.25V54H38V52.5H42.75V49.25Z" fill="black"/>
  <path d="M12 47.375H16.75V49.25H18.5V52.5H20.75V55.125H22.75V58.75H12V57.625H9.625V55.75H6.75V54H4.5V48H6.75V45.75H12V47.375Z" fill="black"/>
  <path d="M14.5 19.5V31.375H16.25V33.25H24.25V26.5H21.75V22.875H19.75V20.75H17V19.5H14.5Z" fill="#F1EFED"/>
  <path d="M45.75 31.375V19.5H43.25V20.75H40.5V22.875H38.5V26.5H36V33.25H44V31.375H45.75Z" fill="#F1EFED"/>
  <path d="M33.5 38H26.5H23V41.5H17V49.25H18.5V52.5H20.75V55.125H22.75V58.75H29V55.75H33.25V54H38V52.5H42.75V49.25H43V41.5H37V38H33.5Z" fill="#F1EFED"/>
  <path d="M26.5 38H37M26.5 38H33.5M26.5 38H23M37 38V41.5H43M37 38H33.5M53 19.5V24H56.5V27.75H59V36H56.5V39H53V41.5H49H43M53 19.5H49M53 19.5H49.25M49 19.5V15.5H45.5V11H42V8H37V4H33.5V1H26.5V4H23V8H18V11H14.5V15.5H11V19.5M49 19.5H45.75M49 19.5H49.25M33.5 38H23M23 38V41.5H17M11 19.5H7V24H3.5V27.75H1V36H3.5V39H7V41.5H11H17M11 19.5H14.5M17 41.5V49.25H18.5M29 58.75H55.25V54H52.75V51.25H48.75V49.25H43M29 58.75V55.75H33.25V54H38V52.5H42.75V49.25H43M29 58.75H22.75M43 41.5V49.25M22.75 58.75H12V57.625H9.625V55.75H6.75V54H4.5V48H6.75V45.75H12V47.375H16.75V49.25H18.5M22.75 58.75V55.125H20.75V52.5H18.5V49.25M14.5 19.5V31.375H16.25V33.25H24.25V26.5M14.5 19.5H17V20.75H19.75V22.875M24.25 26.5H21.75V22.875H19.75M24.25 26.5H36M19.75 22.875V29.75M49.25 19.5H45.75M45.75 19.5V31.375H44V33.25H36V26.5M45.75 19.5H43.25V20.75H40.5V22.875M36 26.5H38.5V22.875H40.5M40.5 22.875V29.75" stroke="black" stroke-width="2"/>
</svg>
