<svg xmlns="http://www.w3.org/2000/svg" width="16" height="22" viewBox="0 0 16 22" fill="none">
    <path
        d="M7.99991 15.2304C9.16353 15.2304 10.1593 14.8161 10.9878 13.988C11.8162 13.1598 12.2304 12.1635 12.2304 11V4.23089C12.2304 3.06736 11.8165 2.07147 10.9878 1.24289C10.1593 0.414498 9.16353 0 7.99991 0C6.83644 0 5.8405 0.414498 5.01197 1.24289C4.18339 2.07133 3.76917 3.06736 3.76917 4.23089V11C3.76917 12.1635 4.18357 13.1598 5.01197 13.988C5.84036 14.8161 6.83644 15.2304 7.99991 15.2304Z"
        fill="#272C2F"
    />
    <path
        d="M15.3638 8.71275C15.1968 8.54526 14.9981 8.46149 14.7689 8.46149C14.54 8.46149 14.3417 8.54526 14.174 8.71275C14.0067 8.8802 13.923 9.07849 13.923 9.30757V11C13.923 12.6306 13.3433 14.0254 12.1842 15.1844C11.0255 16.3435 9.63059 16.923 7.99987 16.923C6.3692 16.923 4.97441 16.3435 3.81529 15.1844C2.65631 14.0257 2.07686 12.6307 2.07686 11V9.30757C2.07686 9.07849 1.99309 8.8802 1.82569 8.71275C1.65819 8.54526 1.46009 8.46149 1.23078 8.46149C1.00146 8.46149 0.803127 8.54526 0.635725 8.71275C0.468185 8.8802 0.38446 9.07849 0.38446 9.30757V11C0.38446 12.9479 1.03462 14.6425 2.33456 16.0834C3.63455 17.5244 5.24091 18.3507 7.15369 18.5621V20.3075H3.76912C3.53995 20.3075 3.34166 20.3913 3.17421 20.5588C3.00672 20.7262 2.92295 20.9245 2.92295 21.1537C2.92295 21.3825 3.00672 21.5813 3.17421 21.7486C3.34166 21.916 3.53995 22 3.76912 22H12.2304C12.4595 22 12.6581 21.916 12.8253 21.7486C12.993 21.5813 13.0768 21.3826 13.0768 21.1537C13.0768 20.9246 12.993 20.7262 12.8253 20.5588C12.6581 20.3913 12.4596 20.3075 12.2304 20.3075H8.84623V18.5621C10.7587 18.3507 12.3649 17.5244 13.665 16.0834C14.9652 14.6425 15.6155 12.9479 15.6155 11V9.30757C15.6155 9.07853 15.5316 8.88038 15.3638 8.71275Z"
        fill="#272C2F"
    />
</svg>
