<svg xmlns="http://www.w3.org/2000/svg" width="429" height="364" viewBox="0 0 429 364" fill="none">
    <path
        d="M48.3594 41.2794C50.2794 36.6494 53.1394 32.4594 56.4894 28.7494C56.4994 28.7294 56.5294 28.7294 56.5494 28.7494C56.5694 28.7594 56.5694 28.7894 56.5494 28.8094C53.1894 32.4994 50.3094 36.6694 48.3594 41.2894V41.2794Z"
        fill="black"
    />
    <path
        d="M67.7792 18.8999C71.8792 16.0199 76.2292 13.5199 80.7392 11.3399C80.7992 11.3099 80.8692 11.3399 80.8992 11.3999C80.9292 11.4599 80.8992 11.5299 80.8392 11.5599C76.3292 13.7099 71.9692 16.1799 67.8692 19.0299C67.8292 19.0599 67.7792 19.0499 67.7592 19.0099C67.7392 18.9699 67.7392 18.9199 67.7792 18.8999Z"
        fill="black"
    />
    <path
        d="M94.6579 5.74778C99.4179 4.18778 104.278 2.92778 109.188 1.98778C109.298 1.96778 109.398 2.03778 109.418 2.14778C109.438 2.25778 109.368 2.35778 109.258 2.37778C104.348 3.29778 99.4979 4.52778 94.7479 6.05778C94.6679 6.08778 94.5779 6.03778 94.5479 5.95778C94.5179 5.87778 94.5679 5.78778 94.6479 5.75778L94.6579 5.74778Z"
        fill="black"
    />
    <path
        d="M124.097 0.137965C129.097 -0.122035 134.137 -0.032035 139.117 0.557965C139.267 0.577965 139.377 0.717965 139.357 0.867965C139.337 1.01796 139.197 1.12796 139.047 1.10796C134.097 0.507965 129.097 0.377965 124.117 0.617965C123.987 0.617965 123.877 0.527965 123.867 0.387965C123.867 0.257965 123.957 0.147965 124.097 0.137965Z"
        fill="black"
    />
    <path
        d="M153.76 3.98276C158.46 5.75276 162.95 8.25276 166.7 11.6528C166.85 11.7828 166.86 12.0128 166.73 12.1528C166.6 12.3028 166.37 12.3128 166.23 12.1828C162.57 8.83276 158.18 6.35276 153.54 4.58276C153.38 4.52276 153.29 4.33276 153.36 4.17276C153.42 4.01276 153.61 3.92276 153.77 3.99276L153.76 3.98276Z"
        fill="black"
    />
    <path
        d="M175.141 24.0981C176.901 28.8581 177.521 33.9681 177.371 38.9981C177.371 39.2381 177.161 39.4281 176.921 39.4181C176.681 39.4181 176.491 39.2081 176.501 38.9681C176.671 34.0181 176.091 29.0181 174.401 24.3681C174.321 24.1581 174.431 23.9381 174.641 23.8581C174.851 23.7881 175.071 23.8881 175.151 24.0981H175.141Z"
        fill="black"
    />
    <path
        d="M175.028 53.8885C173.718 58.7485 171.988 63.4785 169.988 68.0785C169.878 68.3385 169.578 68.4585 169.318 68.3385C169.058 68.2285 168.938 67.9285 169.058 67.6685C171.048 63.0985 172.788 58.4285 174.108 53.6285C174.178 53.3785 174.438 53.2285 174.698 53.2985C174.948 53.3685 175.098 53.6285 175.028 53.8785V53.8885Z"
        fill="black"
    />
    <path
        d="M163.308 81.5557C160.878 85.9457 158.278 90.2357 155.558 94.4357C155.388 94.6957 155.048 94.7657 154.788 94.5957C154.528 94.4257 154.458 94.0857 154.628 93.8257C157.348 89.6457 159.948 85.3857 162.378 81.0257C162.518 80.7657 162.848 80.6757 163.098 80.8157C163.348 80.9557 163.448 81.2857 163.308 81.5357V81.5557Z"
        fill="black"
    />
    <path
        d="M128.599 130.528L118.929 142.018C118.699 142.288 118.299 142.328 118.019 142.098C117.749 141.868 117.709 141.468 117.939 141.188L117.949 141.168L127.639 129.738H127.649C127.869 129.468 128.259 129.428 128.519 129.658C128.779 129.878 128.819 130.268 128.589 130.528H128.599Z"
        fill="black"
    />
    <path
        d="M108.919 153.215L98.5187 164.065C98.2587 164.335 97.8188 164.345 97.5488 164.085C97.2788 163.825 97.2688 163.385 97.5288 163.115L97.5488 163.095L107.939 152.315L107.959 152.295C108.209 152.035 108.639 152.025 108.899 152.275C109.159 152.525 109.169 152.945 108.919 153.215Z"
        fill="black"
    />
    <path
        d="M87.6682 174.483L76.2682 184.303C75.9582 184.563 75.4982 184.533 75.2382 184.223C74.9782 183.913 75.0082 183.453 75.3182 183.193L75.3582 183.163L86.7282 173.433L86.7582 173.403C87.0582 173.153 87.5082 173.183 87.7582 173.483C88.0082 173.783 87.9782 174.223 87.6782 174.483H87.6682Z"
        fill="black"
    />
    <path
        d="M64.1894 193.284C60.0394 196.114 55.7394 198.744 51.2794 201.084C50.8994 201.284 50.4294 201.134 50.2294 200.754C50.0294 200.374 50.1794 199.904 50.5594 199.704C54.9694 197.414 59.2194 194.824 63.3394 192.034C63.6894 191.804 64.1494 191.894 64.3894 192.234C64.6194 192.584 64.5294 193.044 64.1894 193.284Z"
        fill="black"
    />
    <path
        d="M37.3096 206.909C32.4696 208.359 27.3896 209.279 22.2496 209.049C21.7996 209.029 21.4496 208.649 21.4696 208.189C21.4896 207.739 21.8696 207.389 22.3296 207.409C27.2096 207.649 32.1196 206.779 36.8496 205.379C37.2696 205.249 37.7196 205.489 37.8496 205.909C37.9796 206.329 37.7396 206.779 37.3096 206.909Z"
        fill="black"
    />
    <path
        d="M7.83925 203.995C5.79925 202.365 4.07925 200.355 2.76925 198.105C1.45925 195.855 0.549247 193.395 0.0192473 190.865C-0.0807527 190.405 0.219247 189.955 0.679247 189.855C1.13925 189.755 1.58925 190.055 1.68925 190.515C2.17925 192.885 3.02925 195.175 4.23925 197.245C5.44925 199.325 7.02925 201.175 8.89925 202.665C9.25925 202.955 9.31925 203.485 9.02925 203.855C8.73925 204.215 8.20925 204.275 7.83925 203.985V203.995Z"
        fill="black"
    />
    <path
        d="M0.790186 175.634C2.11019 170.714 4.18019 166.034 6.71019 161.654C6.95019 161.244 7.48019 161.094 7.89019 161.334C8.30019 161.574 8.45019 162.104 8.21019 162.514C5.74019 166.784 3.72019 171.324 2.45019 176.064C2.33019 176.524 1.86019 176.794 1.40019 176.674C0.940186 176.554 0.670186 176.084 0.790186 175.624V175.634Z"
        fill="black"
    />
    <path
        d="M15.6411 149.415C19.0111 145.645 22.7211 142.195 26.6911 139.065C27.0711 138.765 27.6311 138.825 27.9311 139.215C28.2311 139.595 28.1711 140.155 27.7811 140.455C23.8911 143.515 20.2511 146.895 16.9511 150.585C16.6311 150.945 16.0811 150.975 15.7211 150.655C15.3611 150.335 15.3311 149.785 15.6511 149.425L15.6411 149.415Z"
        fill="black"
    />
    <path
        d="M39.2667 130.676C43.6567 128.206 48.2267 126.046 52.9167 124.196C53.3767 124.016 53.8967 124.236 54.0767 124.696C54.2567 125.156 54.0367 125.676 53.5767 125.856C48.9667 127.676 44.4667 129.796 40.1367 132.226C39.7067 132.466 39.1667 132.316 38.9267 131.886C38.6867 131.456 38.8367 130.916 39.2667 130.676Z"
        fill="black"
    />
    <path
        d="M67.2693 119.496C72.1393 118.216 77.0693 117.196 82.0393 116.426C82.5393 116.346 82.9993 116.686 83.0793 117.186C83.1593 117.686 82.8193 118.146 82.3193 118.226C77.4093 118.986 72.5293 119.986 67.7293 121.246C67.2493 121.376 66.7493 121.086 66.6293 120.606C66.5093 120.126 66.7893 119.626 67.2693 119.506V119.496Z"
        fill="black"
    />
    <path
        d="M97.0179 114.802C102.038 114.472 107.058 114.362 112.078 114.422C112.588 114.422 112.998 114.852 112.988 115.362C112.988 115.872 112.558 116.282 112.048 116.272C107.068 116.202 102.088 116.312 97.1279 116.632C96.6179 116.662 96.1879 116.282 96.1579 115.772C96.1279 115.262 96.5079 114.832 97.0179 114.802Z"
        fill="black"
    />
    <path
        d="M156.931 119.269L171.631 122.469C172.141 122.579 172.471 123.089 172.361 123.609C172.251 124.119 171.741 124.449 171.221 124.339H171.181L156.571 121.139H156.531C156.021 121.019 155.701 120.509 155.811 119.999C155.921 119.489 156.431 119.169 156.941 119.279L156.931 119.269Z"
        fill="black"
    />
    <path
        d="M186.169 126.339C190.979 127.769 195.749 129.369 200.449 131.189C200.949 131.379 201.199 131.939 200.999 132.439C200.809 132.939 200.249 133.189 199.749 132.989C195.119 131.189 190.389 129.609 185.619 128.179C185.109 128.029 184.819 127.489 184.969 126.979C185.119 126.469 185.659 126.179 186.169 126.329V126.339Z"
        fill="black"
    />
    <path
        d="M214.229 137.37C218.699 139.71 223.029 142.35 227.069 145.41C227.499 145.74 227.589 146.36 227.259 146.79C226.929 147.22 226.309 147.31 225.879 146.98C221.949 143.99 217.709 141.4 213.319 139.1C212.839 138.85 212.659 138.26 212.909 137.78C213.159 137.3 213.749 137.12 214.229 137.37Z"
        fill="black"
    />
    <path
        d="M238.019 155.981C241.179 159.991 243.709 164.531 245.279 169.421C245.449 169.951 245.159 170.511 244.639 170.681C244.119 170.851 243.549 170.561 243.379 170.041C241.899 165.391 239.489 161.061 236.469 157.211C236.129 156.781 236.209 156.161 236.639 155.821C237.069 155.481 237.689 155.561 238.029 155.991L238.019 155.981Z"
        fill="black"
    />
    <path
        d="M247.149 184.591C246.869 189.701 245.759 194.711 244.139 199.511C243.969 200.031 243.409 200.301 242.889 200.131C242.369 199.961 242.099 199.401 242.269 198.881C243.839 194.211 244.899 189.371 245.159 184.481C245.189 183.931 245.659 183.511 246.209 183.541C246.759 183.571 247.179 184.041 247.149 184.591Z"
        fill="black"
    />
    <path
        d="M237.94 213.337C235.49 217.757 232.73 221.977 229.77 226.047C229.45 226.477 228.85 226.577 228.41 226.257C227.98 225.937 227.88 225.337 228.2 224.897C231.12 220.877 233.83 216.707 236.23 212.377C236.49 211.907 237.09 211.737 237.56 211.997C238.03 212.257 238.2 212.857 237.94 213.327V213.337Z"
        fill="black"
    />
    <path
        d="M220.34 237.831C217.03 241.611 213.58 245.271 210.03 248.811C209.66 249.181 209.05 249.181 208.68 248.811C208.31 248.441 208.31 247.831 208.68 247.461C212.2 243.941 215.62 240.321 218.89 236.571C219.24 236.171 219.85 236.131 220.25 236.481C220.65 236.831 220.69 237.441 220.34 237.841V237.831Z"
        fill="black"
    />
    <path
        d="M199.049 259.105L187.549 268.805C187.149 269.145 186.559 269.085 186.219 268.695C185.879 268.305 185.939 267.705 186.329 267.365L186.359 267.335L197.779 257.685L197.819 257.655C198.219 257.315 198.819 257.365 199.159 257.765C199.499 258.165 199.449 258.765 199.049 259.105Z"
        fill="black"
    />
    <path
        d="M175.588 277.938L165.378 285.058L165.788 284.268L165.868 286.838V286.858C165.888 287.368 165.488 287.798 164.968 287.818C164.458 287.838 164.028 287.438 164.008 286.918L163.918 284.318C163.908 283.998 164.058 283.718 164.298 283.548L164.328 283.528L174.478 276.448L174.508 276.428C174.928 276.128 175.518 276.238 175.808 276.658C176.098 277.078 175.998 277.668 175.578 277.958L175.588 277.938Z"
        fill="black"
    />
    <path
        d="M167.349 301.639C168.129 306.539 169.179 311.399 170.569 316.159C170.709 316.639 170.429 317.149 169.949 317.289C169.469 317.429 168.959 317.149 168.819 316.669C167.409 311.829 166.329 306.899 165.539 301.929C165.459 301.429 165.799 300.959 166.299 300.879C166.799 300.799 167.269 301.139 167.349 301.639Z"
        fill="black"
    />
    <path
        d="M175.78 330.057C177.9 334.527 180.42 338.797 183.44 342.687C183.74 343.077 183.67 343.637 183.28 343.947C182.89 344.257 182.33 344.177 182.02 343.787C178.9 339.777 176.31 335.397 174.14 330.827C173.93 330.377 174.12 329.837 174.57 329.617C175.02 329.407 175.56 329.597 175.78 330.047V330.057Z"
        fill="black"
    />
    <path
        d="M193.987 352.886C197.987 355.716 202.477 357.846 207.197 359.166C207.667 359.296 207.937 359.786 207.807 360.256C207.677 360.726 207.187 360.996 206.717 360.866C201.807 359.506 197.127 357.286 192.957 354.346C192.557 354.066 192.457 353.506 192.737 353.106C193.017 352.706 193.577 352.606 193.977 352.886H193.987Z"
        fill="black"
    />
    <path
        d="M221.778 360.892C226.708 360.772 231.618 360.022 236.418 358.852C236.888 358.742 237.348 359.022 237.468 359.492C237.578 359.962 237.298 360.422 236.828 360.542C231.928 361.742 226.898 362.512 221.818 362.652C221.338 362.662 220.938 362.282 220.918 361.802C220.908 361.322 221.288 360.922 221.768 360.902L221.778 360.892Z"
        fill="black"
    />
    <path
        d="M250.55 354.211C255.15 352.341 259.64 350.191 264.03 347.851C264.45 347.631 264.96 347.781 265.18 348.201C265.4 348.621 265.25 349.131 264.83 349.351C260.4 351.721 255.86 353.901 251.2 355.801C250.76 355.981 250.26 355.771 250.08 355.331C249.9 354.891 250.11 354.391 250.55 354.211Z"
        fill="black"
    />
    <path
        d="M276.908 340.291L283.118 336.121L286.218 334.041C287.258 333.351 288.258 332.601 289.278 331.891H289.298C289.668 331.621 290.188 331.711 290.448 332.081C290.708 332.451 290.618 332.971 290.248 333.231C289.228 333.951 288.228 334.711 287.178 335.401L284.058 337.501L277.818 341.711C277.428 341.971 276.908 341.871 276.648 341.481C276.388 341.091 276.488 340.571 276.878 340.311L276.908 340.291Z"
        fill="black"
    />
    <path
        d="M301.2 322.857C305.09 319.737 308.89 316.507 312.55 313.127C312.87 312.837 313.36 312.857 313.65 313.167C313.94 313.487 313.92 313.977 313.61 314.267C309.93 317.687 306.12 320.957 302.21 324.107C301.86 324.387 301.36 324.327 301.08 323.987C300.8 323.647 300.86 323.137 301.2 322.857Z"
        fill="black"
    />
    <path
        d="M323.04 302.517C326.35 298.807 329.45 294.907 332.18 290.767C332.4 290.427 332.86 290.337 333.2 290.557C333.54 290.777 333.63 291.237 333.41 291.577C330.64 295.797 327.51 299.757 324.18 303.527C323.9 303.837 323.42 303.867 323.11 303.587C322.8 303.307 322.77 302.827 323.04 302.517Z"
        fill="black"
    />
    <path
        d="M338.901 277.594C340.531 272.954 341.431 268.024 340.981 263.144C340.941 262.764 341.221 262.424 341.601 262.394C341.981 262.354 342.321 262.634 342.351 263.014C342.841 268.134 341.911 273.274 340.241 278.064C340.111 278.434 339.701 278.634 339.331 278.504C338.961 278.374 338.761 277.964 338.891 277.594H338.901Z"
        fill="black"
    />
    <path
        d="M335.548 249.837C332.458 246.057 328.298 243.207 323.768 241.307C323.438 241.167 323.288 240.787 323.418 240.467C323.558 240.137 323.928 239.987 324.258 240.117C328.948 242.067 333.298 245.017 336.568 248.987C336.798 249.267 336.758 249.697 336.478 249.927C336.198 250.157 335.768 250.117 335.538 249.837H335.548Z"
        fill="black"
    />
    <path
        d="M309.401 238.304C304.481 238.204 299.521 238.974 294.931 240.744C294.621 240.864 294.271 240.714 294.151 240.404C294.031 240.094 294.181 239.744 294.491 239.624C299.241 237.774 304.351 236.964 309.421 237.054C309.761 237.054 310.041 237.344 310.031 237.684C310.031 238.024 309.741 238.304 309.401 238.294V238.304Z"
        fill="black"
    />
    <path
        d="M283 249.089C281.42 250.959 280.11 253.049 279.09 255.279C278.08 257.509 277.34 259.889 276.79 262.289C276.72 262.589 276.43 262.779 276.13 262.709C275.83 262.639 275.64 262.339 275.71 262.039C276.27 259.569 277.02 257.139 278.06 254.809C279.11 252.489 280.48 250.299 282.11 248.339C282.31 248.099 282.68 248.059 282.92 248.269C283.16 248.469 283.2 248.839 282.99 249.079L283 249.089Z"
        fill="black"
    />
    <path
        d="M275.877 277.04C276.297 281.98 277.357 286.86 278.887 291.58C278.977 291.85 278.827 292.14 278.557 292.22C278.287 292.31 277.997 292.16 277.917 291.89C276.347 287.11 275.257 282.16 274.807 277.13C274.777 276.84 274.997 276.58 275.287 276.55C275.577 276.52 275.837 276.74 275.867 277.03L275.877 277.04Z"
        fill="black"
    />
    <path
        d="M284.818 305.226C287.198 309.596 289.938 313.766 292.978 317.706C293.128 317.896 293.088 318.176 292.898 318.326C292.708 318.476 292.428 318.436 292.288 318.246C289.198 314.286 286.408 310.086 283.978 305.686C283.848 305.456 283.938 305.166 284.168 305.036C284.398 304.906 284.688 304.996 284.818 305.226Z"
        fill="black"
    />
    <path
        d="M302.92 328.851C306.49 332.321 310.31 335.551 314.31 338.521C314.47 338.641 314.5 338.861 314.38 339.021C314.26 339.181 314.04 339.211 313.88 339.101C309.83 336.141 305.98 332.911 302.36 329.431C302.2 329.281 302.2 329.021 302.35 328.871C302.5 328.711 302.76 328.711 302.91 328.861L302.92 328.851Z"
        fill="black"
    />
    <path
        d="M326.871 346.62C331.221 349.06 335.721 351.23 340.341 353.12C340.481 353.18 340.551 353.34 340.491 353.48C340.431 353.62 340.271 353.69 340.131 353.63C335.491 351.75 330.951 349.59 326.561 347.17C326.411 347.08 326.351 346.89 326.441 346.74C326.531 346.59 326.721 346.53 326.871 346.62Z"
        fill="black"
    />
    <path
        d="M354.481 358.007C359.281 359.367 364.161 360.457 369.081 361.287C369.191 361.307 369.261 361.407 369.241 361.517C369.221 361.627 369.121 361.697 369.011 361.677C364.071 360.867 359.171 359.797 354.341 358.467C354.211 358.427 354.141 358.297 354.171 358.177C354.211 358.047 354.341 357.977 354.461 358.007H354.481Z"
        fill="black"
    />
    <path
        d="M383.961 363.039C388.941 363.379 393.941 363.469 398.941 363.349C399.011 363.349 399.061 363.399 399.061 363.469C399.061 363.539 399.011 363.589 398.941 363.589C393.941 363.739 388.931 363.669 383.931 363.359C383.841 363.359 383.781 363.279 383.781 363.189C383.781 363.099 383.861 363.039 383.951 363.039H383.961Z"
        fill="black"
    />
    <path
        d="M413.888 362.324C418.858 361.774 423.798 361.024 428.718 360.094C428.738 360.094 428.758 360.104 428.768 360.124C428.768 360.144 428.758 360.164 428.738 360.174C423.828 361.134 418.888 361.904 413.918 362.484C413.878 362.484 413.838 362.454 413.828 362.414C413.828 362.374 413.858 362.334 413.898 362.324H413.888Z"
        fill="black"
    />
    <path d="M414.518 152.182C414.904 147.135 413.62 144.48 408.021 140.753C407.394 140.335 406.661 140.077 405.898 139.981L342.398 176.29L344.387 180.927L414.518 152.182Z" fill="#5869DD" />
    <path d="M353.712 135.997L323 170.264L332.948 185.578L344.387 180.927L342.398 176.29L405.898 139.981L359.096 134.051C357.062 133.793 355.028 134.528 353.712 135.997Z" fill="url(#paint0_linear_30263_15729)" />
    <path fill-rule="evenodd" clip-rule="evenodd" d="M355.827 220.8L352.815 216.163L418 223.118C417.033 228.091 415.69 229.906 411.534 231L355.827 220.8Z" fill="#5869DD" />
    <path d="M418 223.118L414.518 152.182L344.387 180.927L332.948 185.578L352.815 216.163L418 223.118Z" fill="url(#paint1_linear_30263_15729)" />
    <path
        d="M405.898 139.981L359.096 134.051C357.062 133.793 355.028 134.528 353.712 135.997L323 170.264L332.948 185.578M405.898 139.981C406.661 140.077 407.394 140.335 408.021 140.753C413.62 144.48 414.904 147.135 414.518 152.182M405.898 139.981L342.398 176.29L344.387 180.927M414.518 152.182L418 223.118M414.518 152.182L344.387 180.927M418 223.118C417.033 228.091 415.69 229.906 411.534 231L355.827 220.8L352.815 216.163M418 223.118L352.815 216.163M344.387 180.927L332.948 185.578M352.815 216.163L332.948 185.578"
        stroke="black"
        stroke-width="2"
        stroke-linejoin="round"
    />
    <path
        fill-rule="evenodd"
        clip-rule="evenodd"
        d="M318.662 193.459C318.46 191.952 318.264 190.485 318.089 189.066C317.489 181.924 317.83 176.156 320.999 173.028C322.544 171.502 324.762 170.604 327.872 170.48C336.685 170.128 341.539 176.249 344.368 185.496C345.552 189.364 346.382 193.779 346.999 198.496C347.327 203.43 350.229 211.334 349.499 214.49L311.594 210.505C311.124 209.209 313.208 206.144 315.285 203.09C317.235 200.223 319.178 197.366 318.998 195.988C318.886 195.133 318.773 194.29 318.662 193.459Z"
        fill="url(#paint2_linear_30263_15729)"
    />
    <path d="M349.499 214.49C350.454 210.364 350.11 200.664 349.499 195.992C349.565 196.501 349.012 196.75 348.409 197.022C347.711 197.337 346.945 197.682 346.999 198.496C347.327 203.43 350.229 211.334 349.499 214.49Z" fill="black" />
    <path d="M325.499 167.04C316.608 169.438 316.694 177.773 318.089 189.066C317.489 181.924 317.83 176.156 320.999 173.028L325.499 167.04Z" fill="black" />
    <path
        fill-rule="evenodd"
        clip-rule="evenodd"
        d="M346.999 183.331C344.015 172.987 338.645 165.406 328.499 166.496C327.401 166.614 326.403 166.796 325.499 167.04L320.999 173.028C322.544 171.502 324.762 170.604 327.872 170.48C336.685 170.128 341.539 176.249 344.368 185.496L346.999 183.331Z"
        fill="#F1EFED"
    />
    <path
        d="M348.409 197.022C349.012 196.75 349.565 196.501 349.499 195.992C348.922 191.589 348.133 187.26 346.999 183.331L344.368 185.496C345.552 189.364 346.382 193.779 346.999 198.496C346.945 197.682 347.711 197.337 348.409 197.022Z"
        fill="black"
    />
    <path
        d="M349.499 195.992C350.11 200.664 350.454 210.364 349.499 214.49M349.499 195.992C349.565 196.501 349.012 196.75 348.409 197.022C347.711 197.337 346.945 197.682 346.999 198.496M349.499 195.992C348.922 191.589 348.133 187.26 346.999 183.331M349.499 214.49L311.594 210.505C311.124 209.209 313.208 206.144 315.285 203.09C317.235 200.223 319.178 197.366 318.998 195.988C318.886 195.133 318.773 194.29 318.662 193.459C318.46 191.952 318.264 190.485 318.089 189.066M349.499 214.49C350.229 211.334 347.327 203.43 346.999 198.496M346.999 198.496C346.382 193.779 345.552 189.364 344.368 185.496M319.371 199.98C318.866 196.124 318.373 192.442 318.089 189.066M318.089 189.066C316.694 177.773 316.608 169.438 325.499 167.04M318.089 189.066C317.489 181.924 317.83 176.156 320.999 173.028M325.499 167.04C326.403 166.796 327.401 166.614 328.499 166.496C338.645 165.406 344.015 172.987 346.999 183.331M325.499 167.04L320.999 173.028M320.999 173.028C322.544 171.502 324.762 170.604 327.872 170.48C336.685 170.128 341.539 176.249 344.368 185.496M346.999 183.331L344.368 185.496"
        stroke="black"
        stroke-width="2"
    />
    <path
        d="M314.094 191.733C312.698 187.024 310.055 183.461 308.088 183.563C308.019 183.567 307.951 183.575 307.884 183.587C305.899 183.963 305.463 188.218 306.909 193.093C308.355 197.967 310.517 203.375 312.501 203C314.486 202.624 315.54 196.607 314.094 191.733Z"
        fill="#D9D9D9"
    />
    <path
        d="M331.637 180.749C333.728 180.353 336.595 183.984 338.041 188.858C339.486 193.732 338.479 199.184 336.389 199.58L312.501 203C314.486 202.624 315.54 196.607 314.094 191.733C312.698 187.024 310.055 183.461 308.088 183.563L331.637 180.749Z"
        fill="black"
    />
    <path
        d="M307.884 183.587C305.899 183.963 305.463 188.218 306.909 193.093C308.355 197.967 310.517 203.375 312.501 203M307.884 183.587L308.088 183.563M307.884 183.587C307.951 183.575 308.019 183.567 308.088 183.563M312.501 203C314.486 202.624 315.54 196.607 314.094 191.733C312.698 187.024 310.055 183.461 308.088 183.563M312.501 203L336.389 199.58C338.479 199.184 339.486 193.732 338.041 188.858C336.595 183.984 333.728 180.353 331.637 180.749L308.088 183.563"
        stroke="black"
        stroke-width="2"
    />
    <path fill-rule="evenodd" clip-rule="evenodd" d="M306.74 250.802C320.202 248.793 330.704 238.219 334.681 224.498L270.01 227.498C276.348 243.191 291.107 253.134 306.74 250.802Z" fill="#5869DD" />
    <path
        d="M296.434 172.049C277.417 174.887 264.307 194.817 267.153 216.564C267.66 220.434 268.637 224.101 270.01 227.498L334.681 224.498C336.322 218.837 336.852 212.64 336.021 206.287C333.175 184.541 320.5 168.458 296.434 172.049Z"
        fill="url(#paint3_linear_30263_15729)"
    />
    <path
        d="M334.681 224.498C336.322 218.837 336.852 212.64 336.021 206.287C333.175 184.541 320.5 168.458 296.434 172.049C277.417 174.887 264.307 194.817 267.153 216.564C267.66 220.434 268.637 224.101 270.01 227.498M334.681 224.498C330.704 238.219 320.202 248.793 306.74 250.802C291.107 253.134 276.348 243.191 270.01 227.498M334.681 224.498L270.01 227.498"
        stroke="black"
        stroke-width="2"
    />
    <ellipse cx="30.9731" cy="34.8813" rx="30.9731" ry="34.8813" transform="matrix(0.995337 -0.096455 0.0846855 0.996408 258 179.977)" fill="black" stroke="black" stroke-width="2" />
    <path d="M179.5 331.5L169 196L128 187L138.167 318.204L179.5 331.5Z" fill="#5869DD" />
    <path d="M311 166.5L169 196L179.5 331.5L321.028 295.911L311 166.5Z" fill="url(#paint4_linear_30263_15729)" />
    <path d="M169 196L311 166.5L270 157.5L128 187L169 196Z" fill="url(#paint5_linear_30263_15729)" />
    <path d="M179.5 331.5L169 196M179.5 331.5L138.167 318.204L128 187M179.5 331.5L321.028 295.911L311 166.5M311 166.5L169 196M311 166.5L270 157.5L128 187M169 196L128 187" stroke="black" stroke-width="2" stroke-linejoin="round" />
    <path fill-rule="evenodd" clip-rule="evenodd" d="M154.042 315.508L154 315.5C154.013 315.502 154.027 315.505 154.042 315.508Z" fill="black" />
    <path d="M174.233 321.316L172.466 292.029L158.733 289.015L141.5 285.5L143.5 293.5L154 315.5C154.013 315.502 154.027 315.505 154.042 315.508C155.76 315.88 170.532 321.994 174.233 321.316Z" fill="black" />
    <path
        d="M154 315.5L143.5 293.5L141.5 285.5L158.733 289.015L172.466 292.029L174.233 321.316C170.532 321.994 155.76 315.88 154.042 315.508M154 315.5L154.042 315.508M154 315.5C154.013 315.502 154.027 315.505 154.042 315.508M166.5 318L154.042 315.508"
        stroke="black"
        stroke-width="2"
        stroke-linejoin="round"
    />
    <path d="M184.016 206.47L192.442 315.206L197.182 309.236L193.349 259.77L188.002 241.502L184.016 206.47Z" fill="black" />
    <path d="M192.442 315.206L306.016 286.647L300.516 283.252L197.182 309.236L192.442 315.206Z" fill="black" />
    <path d="M306.016 286.647L297.968 182.797L293.194 188.766L300.516 283.252L306.016 286.647Z" fill="#F1EFED" />
    <path d="M297.968 182.797L184.016 206.47L189.516 210.304L293.194 188.766L297.968 182.797Z" fill="#5869DD" />
    <path d="M197.182 309.236L189.516 210.304L184.016 206.47L188.002 241.502L193.349 259.77L197.182 309.236Z" fill="#5869DD" />
    <path
        d="M192.442 315.206L184.016 206.47M192.442 315.206L306.016 286.647M192.442 315.206L197.182 309.236M297.968 182.797L184.016 206.47M297.968 182.797L306.016 286.647M297.968 182.797L293.194 188.766M184.016 206.47L189.516 210.304M184.016 206.47L188.002 241.502L193.349 259.77L197.182 309.236M306.016 286.647L300.516 283.252M197.182 309.236L189.516 210.304M197.182 309.236L300.516 283.252M293.194 188.766L189.516 210.304M293.194 188.766L300.516 283.252"
        stroke="black"
        stroke-width="2"
        stroke-linejoin="round"
    />
    <path fill-rule="evenodd" clip-rule="evenodd" d="M277.597 261.82L278.996 279.874L282.932 278.884L281.547 261L277.597 261.82Z" fill="#F1EFED" />
    <path d="M275 262.36L276.59 282.874L283.114 281.233L282.932 278.884L278.996 279.874L277.597 261.82L275 262.36Z" fill="black" />
    <path d="M277.597 261.82L278.996 279.874L282.932 278.884M277.597 261.82L281.547 261L282.932 278.884M277.597 261.82L275 262.36L276.59 282.874L283.114 281.233L282.932 278.884" stroke="black" stroke-width="2" stroke-linejoin="round" />
    <path d="M170.501 320.801L168.733 291.514L140.711 285.5L142.764 312L170.501 320.801Z" fill="url(#paint6_linear_30263_15729)" stroke="black" stroke-width="2" stroke-linejoin="round" />
    <path d="M202 216C202 217.657 200.433 219 198.5 219C196.567 219 195 217.657 195 216C195 214.343 196.567 213 198.5 213C200.433 213 202 214 202 216Z" fill="black" />
    <path d="M208 299C208 300.657 206.433 302 204.5 302C202.567 302 201 300.657 201 299C201 297.343 202.567 296 204.5 296C206.433 296 208 297 208 299Z" fill="black" />
    <path d="M147 308.5C147 309.328 146.328 310 145.5 310C144.672 310 144 309.328 144 308.5C144 307.672 144.672 307 145.5 307C146.328 307 147 307.5 147 308.5Z" fill="black" />
    <path d="M167 315.5C167 316.328 166.328 317 165.5 317C164.672 317 164 316.328 164 315.5C164 314.672 164.672 314 165.5 314C166.328 314 167 314.5 167 315.5Z" fill="black" />
    <path d="M166 295.5C166 296.328 165.328 297 164.5 297C163.672 297 163 296.328 163 295.5C163 294.672 163.672 294 164.5 294C165.328 294 166 294.5 166 295.5Z" fill="black" />
    <path d="M146 290.5C146 291.328 145.328 292 144.5 292C143.672 292 143 291.328 143 290.5C143 289.672 143.672 289 144.5 289C145.328 289 146 289.5 146 290.5Z" fill="black" />
    <path d="M290 195.5C290 196.881 288.881 198 287.5 198C286.119 198 285 196.881 285 195.5C285 194.119 286.119 193 287.5 193C288.881 193 290 193.417 290 195.5Z" fill="black" />
    <path d="M296 277.5C296 278.881 294.881 280 293.5 280C292.119 280 291 278.881 291 277.5C291 276.119 292.119 275 293.5 275C294.881 275 296 275.417 296 277.5Z" fill="black" />
    <path d="M137.977 179.24L178.977 188.24L177.565 170.027L192.977 146.5L188.829 140.626L174.347 170.027L137.977 179.24Z" fill="black" />
    <path d="M242.977 148.986C187.257 94.8649 194.557 85.3912 188.829 140.626L192.977 146.5L177.565 170.027L178.977 188.24L266.643 170.027L265.556 156.001L242.977 148.986Z" fill="url(#paint7_linear_30263_15729)" />
    <path
        d="M178.977 188.24L137.977 179.24L174.347 170.027L188.829 140.626M178.977 188.24L266.643 170.027L265.556 156.001M178.977 188.24L177.565 170.027L192.977 146.5M188.829 140.626C194.557 85.3912 187.257 94.8649 242.977 148.986L265.556 156.001M188.829 140.626L192.977 146.5M265.556 156.001L234.976 146.501L214.977 120.422L196.977 98L192.977 146.5"
        stroke="black"
        stroke-width="2"
        stroke-linejoin="round"
    />
    <path
        fill-rule="evenodd"
        clip-rule="evenodd"
        d="M67.4771 118C72.4763 159.971 93.4801 188.985 145.979 186.974C122.976 178.337 105.984 165.191 95.4677 150C92.3469 145.492 89.7964 140.804 87.8283 136C78.5808 126.71 74.0193 115.949 73.2249 105C72.9148 100.726 73.1787 96.4229 73.9621 92.1675C78.1919 69.1887 97.5667 47.5976 123.477 39.4067C89.1958 45.1066 63.1159 81.3856 67.4771 118Z"
        fill="black"
    />
    <path d="M138.978 38.963C133.682 38.3935 128.492 38.5729 123.477 39.4067C97.8178 47.5182 78.568 68.7716 74.0893 91.5L79.5657 109.519L83.0472 112C83.0881 84.5066 101.617 56.7524 138.978 38.963Z" fill="#5869DD" />
    <path
        d="M73.2249 105C74.0193 115.949 78.5808 126.71 87.8283 136C84.6317 128.198 83.0351 120.11 83.0472 112L79.5657 109.519L74.0893 91.5C74.0454 91.7224 74.003 91.9449 73.9621 92.1675C73.1787 96.4229 72.9148 100.726 73.2249 105Z"
        fill="black"
    />
    <path
        d="M87.8283 136C89.7964 140.804 92.3469 145.492 95.4677 150C105.984 165.191 122.976 178.337 145.979 186.974C93.4801 188.985 72.4763 159.971 67.4771 118C63.1159 81.3856 89.1958 45.1066 123.477 39.4067M87.8283 136C78.5808 126.71 74.0193 115.949 73.2249 105C72.9148 100.726 73.1787 96.4229 73.9621 92.1675M87.8283 136C84.6317 128.198 83.0351 120.11 83.0472 112M123.477 39.4067C128.492 38.5729 133.682 38.3935 138.978 38.963C101.617 56.7524 83.0881 84.5066 83.0472 112M123.477 39.4067C97.8178 47.5182 78.568 68.7716 74.0893 91.5M123.477 39.4067C97.5667 47.5976 78.1919 69.1887 73.9621 92.1675M83.0472 112L79.5657 109.519L74.0893 91.5M74.0893 91.5C74.0454 91.7224 74.003 91.9449 73.9621 92.1675"
        stroke="black"
        stroke-width="2"
        stroke-linejoin="round"
    />
    <path d="M203.977 142.36L205.566 162.874L212.091 161.233L210.523 141L203.977 142.36Z" fill="black" stroke="black" stroke-width="2" stroke-linejoin="round" />
    <path
        d="M251.977 18C220.179 18 193.633 42.0199 187.374 74C186.458 78.6797 190.751 83.5298 190.751 88.5C190.751 97.825 187.672 106.727 190.75 114.874H196.714C193.78 106.727 192.164 97.825 192.164 88.5C192.164 75.5555 195.277 63.4259 200.71 53C211.381 32.521 231.001 18.6154 253.561 18.0199C253.034 18.0067 252.506 18 251.977 18Z"
        fill="black"
    />
    <path
        fill-rule="evenodd"
        clip-rule="evenodd"
        d="M200.71 53C211.381 32.521 231.001 18.6154 253.561 18.0199C289.28 18.9186 312.977 50.1295 312.977 88.5C312.977 90.5238 313.028 92.3922 313.076 94.1608C313.249 100.541 313.387 105.621 310.977 112C323.153 10.8908 236.824 -1.71554 205.746 78.5L200.71 53Z"
        fill="#5869DD"
    />
    <path d="M192.164 88.5C192.164 97.825 193.78 106.727 196.714 114.874C198.542 101.145 201.669 89.0238 205.746 78.5L200.71 53C195.277 63.4259 192.164 75.5555 192.164 88.5Z" fill="black" />
    <path
        d="M312.977 88.5C312.977 49.5639 289.813 18 255.071 18C254.566 18 254.063 18.0067 253.561 18.0199M312.977 88.5C312.977 50.1295 289.28 18.9186 253.561 18.0199M312.977 88.5C312.977 90.5238 313.028 92.3922 313.076 94.1608C313.249 100.541 313.387 105.621 310.977 112C323.153 10.8908 236.824 -1.71554 205.746 78.5M253.561 18.0199C253.034 18.0067 252.506 18 251.977 18C220.179 18 193.633 42.0199 187.374 74C186.458 78.6797 190.751 83.5298 190.751 88.5C190.751 97.825 187.672 106.727 190.75 114.874H196.714M253.561 18.0199C231.001 18.6154 211.381 32.521 200.71 53M196.714 114.874C193.78 106.727 192.164 97.825 192.164 88.5C192.164 75.5555 195.277 63.4259 200.71 53M196.714 114.874C198.542 101.145 201.669 89.0238 205.746 78.5M200.71 53L205.746 78.5"
        stroke="black"
        stroke-width="2"
    />
    <path d="M232.649 123.524C236.351 121.369 248.553 106.686 244.729 100.116C236.564 117.84 230.879 122.944 218.285 121C224.516 128.228 230.585 124.726 232.649 123.524Z" fill="black" />
    <path d="M269.477 139.5C269.477 134.806 264.977 111 257.977 111C257.325 111 256.717 111.206 256.15 111.584C263.477 121 268.211 142.655 260.977 147.887C270.733 147.087 269.477 142.246 269.477 139.5Z" fill="black" />
    <path d="M299.17 124.327C309.483 114.686 303.495 108.23 301.626 106.23C299.476 103.93 289.709 98.6612 282.477 98.0892C298.935 109.095 306.686 115.567 294.977 126.877C296.448 126.373 297.894 125.519 299.17 124.327Z" fill="black" />
    <path d="M260.977 101C265.947 101 269.977 97.1944 269.977 92.5C269.977 87.8056 265.947 84 260.977 84C269.477 89.6993 267.977 97.843 257.977 100.516C258.915 100.83 259.925 101 260.977 101Z" fill="black" />
    <path d="M253.477 62.5C254.816 66.2812 256.611 69 258.977 69C263.547 69 265.986 58.8513 267.128 50.5C261.697 66.3299 258.533 68.6647 252.558 59.5C252.838 60.5489 253.143 61.5575 253.477 62.5Z" fill="black" />
    <path d="M243.463 81.0428C245.683 78.9679 245.392 75.3555 243.977 71.4405C242.996 78.8565 239.475 80.8686 229.477 81.7557C234.842 83.3442 240.489 83.8228 243.463 81.0428Z" fill="black" />
    <path
        fill-rule="evenodd"
        clip-rule="evenodd"
        d="M315.477 90.5C315.477 129.436 290.89 159 257.477 159C224.063 159 200.477 129.436 200.477 90.5C200.477 51.5639 224.063 20 257.477 20C290.89 20 315.477 51.5639 315.477 90.5ZM269.977 92.5C269.977 97.1944 265.947 101 260.977 101C259.925 101 258.915 100.83 257.977 100.516C254.481 99.3495 251.977 96.201 251.977 92.5C251.977 87.8056 256.006 84 260.977 84C265.947 84 269.977 87.8056 269.977 92.5ZM258.977 32C267.977 32 267.977 35.8056 267.977 40.5C267.977 42.1293 267.736 46.0607 267.128 50.5C265.986 58.8513 263.547 69 258.977 69C256.611 69 254.816 66.2812 253.477 62.5C253.143 61.5575 252.838 60.5489 252.558 59.5C250.644 52.3055 249.977 43.2125 249.977 40.5C249.977 35.8056 254.006 32 258.977 32ZM257.977 148C253.006 148 248.977 144.194 248.977 139.5C248.977 135.242 250.622 115.265 256.15 111.584C256.717 111.206 257.325 111 257.977 111C264.977 111 269.477 134.806 269.477 139.5C269.477 142.246 270.733 147.087 260.977 147.887C260.074 147.961 259.077 148 257.977 148ZM298.926 55.3801C310.331 66.0411 304.346 72.5003 302.477 74.5C300.715 76.3842 293.656 80.0903 286.977 81.4878C284.689 81.9664 282.447 82.1742 280.477 81.9455C278.645 81.7329 277.05 81.143 275.873 80.0428C270.022 74.5739 281.614 58.4248 285.253 54.2032C285.434 53.9935 285.595 53.8132 285.734 53.6652C287.636 51.6305 290.798 51.2435 293.977 52.3424C295.385 52.8295 296.797 53.6084 298.104 54.6652C298.383 54.8909 298.657 55.1292 298.926 55.3801ZM301.626 106.23C303.495 108.23 309.483 114.686 299.17 124.327C297.894 125.519 296.448 126.373 294.977 126.877C291.9 127.93 288.712 127.452 286.734 125.335C283.809 122.206 270.563 104.855 276.117 99.6639C277.589 98.2878 279.868 97.8828 282.477 98.0892C289.709 98.6612 299.476 103.93 301.626 106.23ZM215.553 117.101C212.838 112.436 213.637 106.908 217.339 104.753C221.04 102.598 240.904 93.5469 244.729 100.116C248.553 106.686 236.351 121.369 232.649 123.524C230.585 124.726 224.516 128.228 218.285 121C217.374 119.943 216.459 118.657 215.553 117.101ZM216.859 75.5C214.99 73.5003 209.004 67.0411 220.41 56.3801C224.771 52.3039 230.677 51.5361 233.602 54.6652C235.252 56.4309 240.136 62.7752 242.974 69C243.348 69.8191 243.686 70.6362 243.977 71.4405C245.392 75.3555 245.683 78.9679 243.463 81.0428C240.489 83.8228 234.842 83.3442 229.477 81.7557C227.181 81.0763 224.938 80.1937 222.977 79.2762C220.055 77.9096 217.761 76.4656 216.859 75.5Z"
        fill="url(#paint8_linear_30263_15729)"
    />
    <path
        d="M302.477 74.5C304.346 72.5003 310.331 66.0411 298.926 55.3801C298.657 55.1292 298.383 54.8909 298.104 54.6652C296.797 53.6084 295.385 52.8295 293.977 52.3424C296.889 55.7634 299.05 58.7375 300.21 61.5C303.055 68.2763 299.876 73.7802 286.977 81.4878C293.656 80.0903 300.715 76.3842 302.477 74.5Z"
        fill="black"
    />
    <path d="M293.977 52.3424C290.798 51.2435 287.636 51.6305 285.734 53.6652C285.595 53.8132 285.434 53.9935 285.253 54.2032C293.046 53.6263 295.661 56.3829 300.21 61.5C299.05 58.7375 296.889 55.7634 293.977 52.3424Z" fill="black" />
    <path
        d="M260.977 84C256.006 84 251.977 87.8056 251.977 92.5C251.977 96.201 254.481 99.3495 257.977 100.516M260.977 84C265.947 84 269.977 87.8056 269.977 92.5C269.977 97.1944 265.947 101 260.977 101C259.925 101 258.915 100.83 257.977 100.516M260.977 84C269.477 89.6993 267.977 97.843 257.977 100.516M244.729 100.116C240.904 93.5469 221.04 102.598 217.339 104.753C213.637 106.908 212.838 112.436 215.553 117.101C216.459 118.657 217.374 119.943 218.285 121M244.729 100.116C248.553 106.686 236.351 121.369 232.649 123.524C230.585 124.726 224.516 128.228 218.285 121M244.729 100.116C236.564 117.84 230.879 122.944 218.285 121M243.463 81.0428C245.683 78.9679 245.392 75.3555 243.977 71.4405M243.463 81.0428C246.139 78.5416 245.166 73.8064 242.974 69M243.463 81.0428C240.489 83.8228 234.842 83.3442 229.477 81.7557M243.977 71.4405C242.996 78.8565 239.475 80.8686 229.477 81.7557M243.977 71.4405C243.686 70.6362 243.348 69.8191 242.974 69M267.128 50.5C265.986 58.8513 263.547 69 258.977 69C256.611 69 254.816 66.2812 253.477 62.5C253.143 61.5575 252.838 60.5489 252.558 59.5M267.128 50.5C267.736 46.0607 267.977 42.1293 267.977 40.5C267.977 35.8056 267.977 32 258.977 32C254.006 32 249.977 35.8056 249.977 40.5C249.977 43.2125 250.644 52.3055 252.558 59.5M267.128 50.5C261.697 66.3299 258.533 68.6647 252.558 59.5M256.15 111.584C250.622 115.265 248.977 135.242 248.977 139.5C248.977 144.194 253.006 148 257.977 148C259.077 148 260.074 147.961 260.977 147.887M256.15 111.584C256.717 111.206 257.325 111 257.977 111C264.977 111 269.477 134.806 269.477 139.5C269.477 142.246 270.733 147.087 260.977 147.887M256.15 111.584C263.477 121 268.211 142.655 260.977 147.887M294.977 126.877C296.448 126.373 297.894 125.519 299.17 124.327C309.483 114.686 303.495 108.23 301.626 106.23C299.476 103.93 289.709 98.6612 282.477 98.0892M294.977 126.877C291.9 127.93 288.712 127.452 286.734 125.335C283.809 122.206 270.563 104.855 276.117 99.6639C277.589 98.2878 279.868 97.8828 282.477 98.0892M294.977 126.877C306.686 115.567 298.935 109.095 282.477 98.0892M242.974 69C240.136 62.7752 235.252 56.4309 233.602 54.6652C230.677 51.5361 224.771 52.3039 220.41 56.3801C209.004 67.0411 214.99 73.5003 216.859 75.5C217.761 76.4656 220.055 77.9096 222.977 79.2762C224.938 80.1937 227.181 81.0763 229.477 81.7557M293.977 52.3424C295.385 52.8295 296.797 53.6084 298.104 54.6652C298.383 54.8908 298.657 55.1292 298.926 55.3801C310.331 66.0411 304.346 72.5003 302.477 74.5C300.715 76.3842 293.656 80.0903 286.977 81.4878M293.977 52.3424C290.798 51.2435 287.636 51.6305 285.734 53.6652C285.595 53.8132 285.434 53.9935 285.253 54.2032M293.977 52.3424C296.889 55.7634 299.05 58.7375 300.21 61.5M286.977 81.4878C284.689 81.9664 282.447 82.1742 280.477 81.9455C278.645 81.7329 277.05 81.143 275.873 80.0428C270.022 74.5739 281.614 58.4248 285.253 54.2032M286.977 81.4878C299.876 73.7802 303.055 68.2763 300.21 61.5M285.253 54.2032C293.046 53.6263 295.661 56.3829 300.21 61.5M315.477 90.5C315.477 129.436 290.89 159 257.477 159C224.063 159 200.477 129.436 200.477 90.5C200.477 51.5639 224.063 20 257.477 20C290.89 20 315.477 51.5639 315.477 90.5Z"
        stroke="black"
        stroke-width="2"
    />
    <path d="M114.387 149.972C118.347 147.662 131.398 131.922 127.307 124.88C118.574 143.879 112.494 149.35 99.0234 147.266C105.688 155.015 112.18 151.26 114.387 149.972Z" fill="black" />
    <path d="M153.777 167.097C153.777 162.065 148.964 136.547 141.477 136.547C140.78 136.547 140.129 136.768 139.523 137.173C147.359 147.266 152.423 170.479 144.685 176.087C155.121 175.229 153.777 170.041 153.777 167.097Z" fill="black" />
    <path d="M185.535 150.832C196.566 140.498 190.161 133.577 188.162 131.434C185.863 128.969 175.416 123.32 167.681 122.707C185.284 134.504 193.575 141.443 181.05 153.566C182.624 153.026 184.171 152.11 185.535 150.832Z" fill="black" />
    <path d="M144.685 125.827C150.002 125.827 154.311 121.748 154.311 116.716C154.311 111.684 150.002 107.604 144.685 107.604C153.777 113.714 152.172 122.443 141.477 125.309C142.48 125.645 143.56 125.827 144.685 125.827Z" fill="black" />
    <path d="M136.664 84.5575C138.096 88.6108 140.016 91.5252 142.546 91.5252C147.435 91.5252 150.043 80.6464 151.265 71.6942C145.456 88.663 142.072 91.1658 135.682 81.3417C135.98 82.4661 136.307 83.5472 136.664 84.5575Z" fill="black" />
    <path d="M125.953 104.434C128.327 102.21 128.016 98.3379 126.503 94.1413C125.454 102.091 121.688 104.248 110.994 105.199C116.733 106.901 122.772 107.414 125.953 104.434Z" fill="black" />
    <path
        fill-rule="evenodd"
        clip-rule="evenodd"
        d="M201.977 114.572C201.977 156.309 175.679 188 139.942 188C109.994 188 78.9766 156.309 78.9766 114.572C78.9766 72.8347 104.204 39 139.942 39C175.679 39 201.977 72.8347 201.977 114.572ZM154.311 116.716C154.311 121.748 150.002 125.827 144.685 125.827C143.56 125.827 142.48 125.645 141.477 125.309C137.738 124.058 135.059 120.683 135.059 116.716C135.059 111.684 139.369 107.604 144.685 107.604C150.002 107.604 154.311 111.684 154.311 116.716ZM142.546 51.8633C152.172 51.8633 152.172 55.9427 152.172 60.9748C152.172 62.7213 151.915 66.9356 151.265 71.6942C150.043 80.6464 147.435 91.5252 142.546 91.5252C140.016 91.5252 138.096 88.6108 136.664 84.5575C136.307 83.5472 135.98 82.4661 135.682 81.3417C133.634 73.6297 132.92 63.8824 132.92 60.9748C132.92 55.9427 137.23 51.8633 142.546 51.8633ZM141.477 176.209C136.16 176.209 131.85 172.129 131.85 167.097C131.85 162.533 133.61 141.118 139.523 137.173C140.129 136.768 140.78 136.547 141.477 136.547C148.964 136.547 153.777 162.065 153.777 167.097C153.777 170.041 155.121 175.229 144.685 176.087C143.72 176.166 142.654 176.209 141.477 176.209ZM185.274 76.9254C197.473 88.3534 191.071 95.2773 189.072 97.4209C187.189 99.4406 179.638 103.413 172.494 104.911C170.048 105.424 167.649 105.647 165.542 105.402C163.583 105.174 161.876 104.542 160.618 103.362C154.36 97.5001 166.758 80.1892 170.651 75.6638C170.844 75.4391 171.017 75.2458 171.165 75.0871C173.199 72.906 176.581 72.4912 179.981 73.6692C181.488 74.1913 182.998 75.0263 184.395 76.1591C184.694 76.401 184.987 76.6565 185.274 76.9254ZM188.162 131.434C190.161 133.577 196.566 140.498 185.535 150.832C184.171 152.11 182.624 153.026 181.05 153.566C177.76 154.695 174.35 154.182 172.234 151.913C169.106 148.559 154.939 129.959 160.878 124.395C162.453 122.92 164.891 122.486 167.681 122.707C175.416 123.32 185.863 128.969 188.162 131.434ZM96.1022 143.087C93.1976 138.087 94.0524 132.16 98.0116 129.85C101.971 127.54 123.217 117.838 127.307 124.88C131.398 131.922 118.347 147.662 114.387 149.972C112.18 151.26 105.688 155.015 99.0234 147.266C98.0491 146.133 97.0711 144.755 96.1022 143.087ZM97.4985 98.4928C95.4993 96.3493 89.0977 89.4253 101.296 77.9974C105.961 73.6279 112.278 72.8048 115.406 76.1591C117.171 78.0518 122.395 84.8525 125.431 91.5252C125.83 92.4032 126.192 93.2791 126.503 94.1413C128.016 98.3379 128.327 102.21 125.953 104.434C122.772 107.414 116.733 106.901 110.994 105.199C108.539 104.47 106.139 103.524 104.042 102.541C100.917 101.076 98.4639 99.5278 97.4985 98.4928Z"
        fill="url(#paint9_linear_30263_15729)"
    />
    <path
        d="M189.072 97.4209C191.071 95.2773 197.473 88.3534 185.274 76.9254C184.987 76.6565 184.694 76.401 184.395 76.1591C182.998 75.0263 181.488 74.1913 179.981 73.6692C183.096 77.3363 185.407 80.5243 186.648 83.4856C189.691 90.7494 186.291 96.6493 172.494 104.911C179.638 103.413 187.189 99.4406 189.072 97.4209Z"
        fill="black"
    />
    <path d="M179.981 73.6692C176.581 72.4912 173.199 72.906 171.165 75.0871C171.017 75.2458 170.844 75.4391 170.651 75.6638C178.986 75.0454 181.782 78.0004 186.648 83.4856C185.407 80.5243 183.096 77.3363 179.981 73.6692Z" fill="black" />
    <path
        d="M144.685 107.604C139.369 107.604 135.059 111.684 135.059 116.716C135.059 120.683 137.738 124.058 141.477 125.309M144.685 107.604C150.002 107.604 154.311 111.684 154.311 116.716C154.311 121.748 150.002 125.827 144.685 125.827C143.56 125.827 142.48 125.645 141.477 125.309M144.685 107.604C153.777 113.714 152.172 122.443 141.477 125.309M127.307 124.88C123.217 117.838 101.971 127.54 98.0116 129.85C94.0524 132.16 93.1976 138.087 96.1022 143.087C97.0711 144.755 98.0491 146.133 99.0234 147.266M127.307 124.88C131.398 131.922 118.346 147.662 114.387 149.972C112.18 151.26 105.688 155.015 99.0234 147.266M127.307 124.88C118.574 143.879 112.494 149.35 99.0234 147.266M125.953 104.434C128.327 102.21 128.016 98.3379 126.503 94.1413M125.953 104.434C128.815 101.753 127.775 96.6774 125.431 91.5252M125.953 104.434C122.772 107.414 116.733 106.901 110.994 105.199M126.503 94.1413C125.454 102.091 121.688 104.248 110.994 105.199M126.503 94.1413C126.192 93.2791 125.83 92.4032 125.431 91.5252M151.265 71.6942C150.043 80.6464 147.435 91.5252 142.546 91.5252C140.016 91.5252 138.096 88.6108 136.664 84.5575C136.307 83.5472 135.98 82.4661 135.682 81.3417M151.265 71.6942C151.915 66.9356 152.172 62.7213 152.172 60.9748C152.172 55.9427 152.172 51.8633 142.546 51.8633C137.23 51.8633 132.92 55.9427 132.92 60.9748C132.92 63.8824 133.634 73.6297 135.682 81.3417M151.265 71.6942C145.456 88.663 142.072 91.1658 135.682 81.3417M139.523 137.173C133.61 141.118 131.85 162.533 131.85 167.097C131.85 172.129 136.16 176.209 141.477 176.209C142.654 176.209 143.72 176.166 144.685 176.087M139.523 137.173C140.129 136.768 140.78 136.547 141.477 136.547C148.964 136.547 153.777 162.065 153.777 167.097C153.777 170.041 155.121 175.229 144.685 176.087M139.523 137.173C147.359 147.266 152.423 170.479 144.685 176.087M181.05 153.566C182.624 153.026 184.171 152.11 185.535 150.832C196.566 140.498 190.161 133.577 188.162 131.434C185.863 128.969 175.416 123.32 167.681 122.707M181.05 153.566C177.76 154.695 174.35 154.182 172.234 151.913C169.106 148.559 154.939 129.959 160.878 124.395C162.453 122.92 164.891 122.486 167.681 122.707M181.05 153.566C193.575 141.443 185.284 134.504 167.681 122.707M125.431 91.5252C122.395 84.8525 117.171 78.0518 115.406 76.1591C112.278 72.8048 105.961 73.6279 101.296 77.9974C89.0977 89.4253 95.4993 96.3493 97.4985 98.4928C98.4639 99.5278 100.917 101.076 104.042 102.541C106.139 103.524 108.539 104.47 110.994 105.199M179.981 73.6692C181.488 74.1913 182.998 75.0263 184.395 76.1591C184.694 76.401 184.987 76.6565 185.274 76.9254C197.473 88.3534 191.071 95.2773 189.072 97.4209C187.189 99.4406 179.638 103.413 172.494 104.911M179.981 73.6692C176.581 72.4912 173.199 72.906 171.165 75.0871C171.017 75.2458 170.844 75.4391 170.651 75.6638M179.981 73.6692C183.096 77.3363 185.407 80.5243 186.648 83.4856M172.494 104.911C170.048 105.424 167.649 105.647 165.542 105.402C163.583 105.174 161.876 104.542 160.618 103.362C154.36 97.5001 166.758 80.1892 170.651 75.6638M172.494 104.911C186.291 96.6493 189.691 90.7494 186.648 83.4856M170.651 75.6638C178.986 75.0454 181.782 78.0004 186.648 83.4856M201.977 114.572C201.977 156.309 175.679 188 139.942 188C109.994 188 78.9766 156.309 78.9766 114.572C78.9766 72.8347 104.204 39 139.942 39C175.679 39 201.977 72.8347 201.977 114.572Z"
        stroke="black"
        stroke-width="2"
    />
    <path d="M189.977 181C189.977 182.657 188.41 184 186.477 184C184.544 184 182.977 182.657 182.977 181C182.977 179.343 184.544 178 186.477 178C188.41 178 189.977 179 189.977 181Z" fill="black" />
    <path d="M262.977 165.5C262.977 166.881 261.857 168 260.477 168C259.096 168 257.977 166.881 257.977 165.5C257.977 164.119 259.096 163 260.477 163C261.857 163 262.977 163.417 262.977 165.5Z" fill="black" />
    <circle cx="226.477" cy="164.5" r="5.5" fill="black" stroke="black" stroke-width="1.5" />
    <circle cx="228.477" cy="164.5" r="4.5" fill="#5869DD" stroke="black" stroke-width="1.5" />
    <path
        d="M331.365 239.129C335.307 237.914 337.303 230.844 335.841 222.92C334.321 214.688 329.646 208.651 325.397 209.435C321.149 210.22 318.937 217.528 320.456 225.759C321.975 233.991 326.651 240.028 330.899 239.244L331.365 239.129Z"
        fill="black"
    />
    <path
        d="M325.397 209.435C329.646 208.651 334.321 214.688 335.841 222.92C337.303 230.844 335.307 237.914 331.365 239.129L349.003 234.797L349.521 234.67C352.849 233.644 354.895 228.863 354.812 222.92C354.791 221.469 354.644 219.949 354.358 218.397C352.838 210.166 347.978 204.163 343.501 204.989L325.397 209.435Z"
        fill="url(#paint10_linear_30263_15729)"
    />
    <path
        d="M352.721 233.884C357.198 233.058 359.595 225.715 358.076 217.484C356.556 209.253 351.696 203.25 347.219 204.076L343.501 204.989C347.978 204.163 352.838 210.166 354.358 218.397C354.644 219.949 354.791 221.469 354.812 222.92C354.895 228.863 352.849 233.644 349.521 234.67L352.721 233.884Z"
        fill="#F1EFED"
    />
    <path
        d="M347.219 204.076C351.696 203.25 356.556 209.253 358.076 217.484C359.595 225.715 357.198 233.058 352.721 233.884L349.521 234.67M347.219 204.076L325.397 209.435M347.219 204.076L343.501 204.989M330.899 239.244C326.651 240.028 321.975 233.991 320.456 225.759C318.937 217.528 321.149 210.22 325.397 209.435M330.899 239.244L331.365 239.129M330.899 239.244C331.057 239.214 331.213 239.176 331.365 239.129M325.397 209.435C329.646 208.651 334.321 214.688 335.841 222.92C337.303 230.844 335.307 237.914 331.365 239.129M325.397 209.435L343.501 204.989M349.003 234.797C349.179 234.765 349.351 234.722 349.521 234.67M349.003 234.797L331.365 239.129M349.003 234.797L349.521 234.67M343.501 204.989C347.978 204.163 352.838 210.166 354.358 218.397C354.644 219.949 354.791 221.469 354.812 222.92C354.895 228.863 352.849 233.644 349.521 234.67M331.365 239.129L349.521 234.67"
        stroke="black"
        stroke-width="2"
    />
    <path
        d="M308.597 229.952C308.98 234.166 307.915 237.843 306.201 238.367C306.141 238.385 306.08 238.4 306.019 238.41C304.199 238.72 302.402 235.435 302.006 231.074C301.61 226.712 302.764 222.925 304.584 222.615C306.404 222.306 308.201 225.59 308.597 229.952Z"
        fill="#D9D9D9"
    />
    <path
        d="M327.252 233.373C329.17 233.046 330.403 229.246 330.007 224.884C329.611 220.523 327.735 217.252 325.817 217.578L304.584 222.615C306.404 222.306 308.201 225.59 308.597 229.952C308.98 234.166 307.915 237.843 306.201 238.367L327.252 233.373Z"
        fill="#5869DD"
    />
    <path
        d="M306.019 238.41C304.199 238.72 302.402 235.435 302.006 231.074C301.61 226.712 302.764 222.925 304.584 222.615M306.019 238.41L306.201 238.367M306.019 238.41C306.08 238.4 306.141 238.385 306.201 238.367M304.584 222.615C306.404 222.306 308.201 225.59 308.597 229.952C308.98 234.166 307.915 237.843 306.201 238.367M304.584 222.615L325.817 217.578C327.735 217.252 329.611 220.523 330.007 224.884C330.403 229.246 329.17 233.046 327.252 233.373L306.201 238.367"
        stroke="black"
        stroke-width="2"
    />
    <path d="M164.5 246.499L165.5 265.999L175.5 272.499L174.5 250.999L164.5 246.499Z" fill="black" />
    <path d="M201.5 236.999L211.5 240.499C215.28 240.261 216.07 239.48 218.5 236.999L208.502 233.5L208.5 233.499C206.07 235.98 205.28 236.761 201.5 236.999Z" fill="black" />
    <path d="M164.5 246.499L174.5 250.999L211.5 240.499L201.5 236.999L164.5 246.499Z" fill="#5869DD" />
    <path d="M218.5 236.999L313.997 215.5L304 212L208.502 233.5L218.5 236.999Z" fill="#5869DD" />
    <path d="M174.5 250.999L175.5 272.499L212.5 261.999L243 264.499L315.917 248.083L314 215.501L313.997 215.5L218.5 236.999C216.07 239.48 215.28 240.261 211.5 240.499L174.5 250.999Z" fill="url(#paint11_linear_30263_15729)" />
    <path
        d="M164.5 246.499L165.5 265.999L175.5 272.499M164.5 246.499L174.5 250.999M164.5 246.499L201.5 236.999M175.5 272.499L174.5 250.999M175.5 272.499L212.5 261.999L243 264.499L315.917 248.083M174.5 250.999L211.5 240.499M211.5 240.499L201.5 236.999M211.5 240.499C215.28 240.261 216.07 239.48 218.5 236.999M201.5 236.999C205.28 236.761 206.07 235.98 208.5 233.499L208.502 233.5M218.5 236.999L208.502 233.5M218.5 236.999L313.997 215.5M208.5 233.5L208.502 233.5M315.917 248.083L314 215.499L313.997 215.5M315.917 248.083L314 215.501L313.997 215.5M208.502 233.5L304 212L313.997 215.5"
        stroke="black"
        stroke-width="2"
        stroke-linejoin="round"
    />
    <path d="M145.804 272.15L157.747 269.316C159.059 268.916 159.915 266.685 160.072 263.771L148.24 266.578C148.047 269.5 147.116 271.749 145.804 272.15Z" fill="black" />
    <path
        d="M144.187 256.399C146.007 256.089 138.603 259.407 138.999 263.769C139.089 264.757 137.499 269.316 148.24 266.578L160.072 263.771C160.121 262.878 160.103 261.921 160.014 260.932C159.617 256.571 157.821 253.286 156.001 253.596L144.187 256.399Z"
        fill="#5869DD"
    />
    <path
        d="M166.855 267.156C168.773 266.829 170.006 263.029 169.61 258.667C169.214 254.306 167.338 251.035 165.42 251.361L156.001 253.596C157.821 253.286 159.617 256.571 160.014 260.932C160.103 261.921 160.121 262.878 160.072 263.771C159.915 266.685 159.059 268.916 157.747 269.316L166.855 267.156Z"
        fill="#F1EFED"
    />
    <path
        d="M166.855 267.156C168.773 266.829 170.006 263.029 169.61 258.667C169.214 254.306 167.338 251.035 165.42 251.361M166.855 267.156L145.804 272.15M166.855 267.156L157.747 269.316M165.42 251.361L144.187 256.399M165.42 251.361L156.001 253.596M144.187 256.399C146.007 256.089 138.603 259.407 138.999 263.769C139.089 264.757 137.499 269.316 148.24 266.578M144.187 256.399L156.001 253.596M145.804 272.15L145.622 272.193C145.683 272.183 145.744 272.168 145.804 272.15ZM145.804 272.15C147.116 271.749 148.047 269.5 148.24 266.578M145.804 272.15L157.747 269.316M156.001 253.596C157.821 253.286 159.617 256.571 160.014 260.932C160.103 261.921 160.121 262.878 160.072 263.771M157.747 269.316C159.059 268.916 159.915 266.685 160.072 263.771M160.072 263.771L148.24 266.578"
        stroke="black"
        stroke-width="2"
    />
    <path
        d="M138.133 263.83C136.915 256.921 134.184 252.772 131.976 250.593C131.258 249.883 130.548 249.547 129.887 249.664C132.649 248.965 143.225 246.98 147.933 264.913C150.103 278.213 138.91 281.592 136.257 282.632C138.537 281.288 139.639 272.368 138.133 263.83Z"
        fill="url(#paint12_linear_30263_15729)"
    />
    <path
        fill-rule="evenodd"
        clip-rule="evenodd"
        d="M131.976 250.593C134.184 252.772 136.915 256.921 138.133 263.83C139.639 272.368 138.537 281.288 136.257 282.632C136.091 282.729 135.917 282.795 135.735 282.827C135.735 282.827 135.924 282.762 136.257 282.632C130.844 276.177 127.983 251.875 131.976 250.593ZM131.976 250.593C131.258 249.883 130.548 249.547 129.887 249.664C129.887 249.664 130.694 249.981 131.976 250.593Z"
        fill="black"
    />
    <path
        d="M127.931 267.106C126.316 257.948 127.192 250.139 129.887 249.664C129.887 249.664 130.694 249.981 131.976 250.593C127.983 251.875 130.844 276.177 136.257 282.632C135.924 282.762 135.735 282.827 135.735 282.827C133.04 283.302 129.546 276.264 127.931 267.106Z"
        fill="#F1EFED"
    />
    <path
        d="M129.887 249.664C127.192 250.139 126.316 257.948 127.931 267.106C129.546 276.264 133.04 283.302 135.735 282.827M129.887 249.664C129.887 249.664 130.694 249.981 131.976 250.593M129.887 249.664C130.548 249.547 131.258 249.883 131.976 250.593M129.887 249.664C132.649 248.965 143.225 246.98 147.933 264.913C150.103 278.213 138.91 281.592 136.257 282.632M135.735 282.827C135.735 282.827 135.924 282.762 136.257 282.632M135.735 282.827C135.917 282.795 136.091 282.729 136.257 282.632M131.976 250.593C134.184 252.772 136.915 256.921 138.133 263.83C139.639 272.368 138.537 281.288 136.257 282.632M131.976 250.593C127.983 251.875 130.844 276.177 136.257 282.632"
        stroke="black"
        stroke-width="2"
    />
    <ellipse cx="201" cy="254.5" rx="4" ry="4.5" fill="black" stroke="black" stroke-width="1.6" />
    <ellipse cx="202.5" cy="254.5" rx="3.5" ry="4.5" fill="url(#paint13_linear_30263_15729)" stroke="black" stroke-width="1.6" />
    <path d="M145.169 222C143.608 222 139.5 208.037 145.17 208.037C145.17 208.037 152.455 207.128 152.976 214.338C153.496 221.548 145.169 222 145.169 222Z" fill="black" stroke="black" stroke-width="2" stroke-linejoin="round" />
    <path d="M147.5 209.5H142.5L142 218.5H147.5C150.5 216 149.5 210 147.5 209.5Z" fill="#5869DD" stroke="black" stroke-width="2" stroke-linejoin="round" />
    <path d="M137.162 215.718C138.132 220.593 139.005 224.49 142.351 223.862C140.414 222.192 137.522 209.508 138.839 206.208C135.395 206.855 136.151 210.644 137.089 215.35L137.162 215.718Z" fill="black" />
    <path d="M142.351 223.862C145.697 223.234 144.998 219.227 144.028 214.352L143.955 213.985C143.022 209.281 142.283 205.561 138.839 206.208C137.522 209.508 140.414 222.192 142.351 223.862Z" fill="url(#paint14_linear_30263_15729)" />
    <path
        d="M144.028 214.352C144.998 219.227 145.697 223.234 142.351 223.862M144.028 214.352C144.003 214.229 143.979 214.106 143.955 213.985M144.028 214.352L143.955 213.985M142.351 223.862C139.005 224.49 138.132 220.593 137.162 215.718M142.351 223.862C140.414 222.192 137.522 209.508 138.839 206.208M137.162 215.718C137.138 215.595 137.114 215.472 137.089 215.35M137.162 215.718L137.089 215.35M138.839 206.208C142.283 205.561 143.022 209.281 143.955 213.985M138.839 206.208C135.395 206.855 136.151 210.644 137.089 215.35"
        stroke="black"
        stroke-width="1.5"
    />
    <ellipse cx="158.163" cy="304.621" rx="5" ry="6.5" transform="rotate(-1.45448 158.163 304.621)" stroke="black" stroke-width="1.6" />
    <ellipse cx="157.163" cy="304.621" rx="5" ry="6.5" transform="rotate(-1.45448 157.163 304.621)" fill="url(#paint15_linear_30263_15729)" stroke="black" stroke-width="1.6" />
    <path
        d="M153.838 304.75C153.779 302.407 155.178 300.471 156.964 300.426C157.42 300.414 157.856 300.527 158.255 300.74M153.838 304.75C155.365 305.75 156.267 306.286 160.159 306M153.838 304.75C153.884 306.55 154.777 308.067 155.999 308.653M160.159 306C160.266 305.556 160.318 305.08 160.306 304.586C160.261 302.84 159.42 301.362 158.255 300.74M160.159 306C159.758 307.662 158.589 308.875 157.18 308.911C156.766 308.921 156.368 308.829 155.999 308.653M158.255 300.74C155.147 302.96 155.14 304.875 155.999 308.653"
        stroke="black"
    />
    <path d="M181 266.5C181 267.328 180.328 268 179.5 268C178.672 268 178 267.328 178 266.5C178 265.672 178.672 265 179.5 265C180.328 265 181 265.5 181 266.5Z" fill="black" />
    <path d="M180 254.5C180 255.328 179.328 256 178.5 256C177.672 256 177 255.328 177 254.5C177 253.672 177.672 253 178.5 253C179.328 253 180 253.5 180 254.5Z" fill="black" />
    <path d="M310 221.5C310 222.328 309.328 223 308.5 223C307.672 223 307 222.328 307 221.5C307 220.672 307.672 220 308.5 220C309.328 220 310 220.5 310 221.5Z" fill="black" />
    <path d="M313 244.5C313 245.328 312.328 246 311.5 246C310.672 246 310 245.328 310 244.5C310 243.672 310.672 243 311.5 243C312.328 243 313 243.5 313 244.5Z" fill="black" />
    <ellipse cx="295" cy="236.5" rx="13" ry="13.5" fill="#5869DD" stroke="black" stroke-width="2" />
    <path
        d="M308 236C308 242.627 303.299 248 297.5 248C296.273 248 295.095 247.759 294 247.317C292.719 246.8 291.553 246.007 290.555 245C289.46 243.896 288.569 242.535 287.952 241C287.341 239.478 287 237.784 287 236C287 234.216 287.341 232.522 287.952 231C288.569 229.465 289.46 228.104 290.555 227C292.406 225.133 294.837 224 297.5 224C303.299 224 308 229.373 308 236Z"
        fill="black"
    />
    <path
        d="M287 236C287 234.216 287.341 232.522 287.952 231M287 236L287.952 231M287 236L282 237M287 236C287 237.784 287.341 239.478 287.952 241M287.952 231L284 229.5M287.952 231C288.569 229.465 289.46 228.104 290.555 227M283.5 243L287.952 241M287.952 241C288.569 242.535 289.46 243.896 290.555 245M286.5 247L290.555 245M290.555 245C291.553 246.007 292.719 246.8 294 247.317M292.5 249.5L294 247.317M294 247.317C295.095 247.759 296.273 248 297.5 248C303.299 248 308 242.627 308 236C308 229.373 303.299 224 297.5 224C294.837 224 292.406 225.133 290.555 227M290.555 227L287.952 225"
        stroke="black"
        stroke-width="2"
    />
    <ellipse cx="297.5" cy="236.5" rx="9.5" ry="10.5" fill="url(#paint16_linear_30263_15729)" />
    <ellipse cx="264.508" cy="243.5" rx="7.742" ry="8.83869" transform="rotate(5.16691 264.508 243.5)" fill="#5869DD" stroke="black" />
    <ellipse cx="265.043" cy="243.724" rx="6.42272" ry="7.17497" transform="rotate(5.16691 265.043 243.724)" fill="black" />
    <path
        d="M263.5 249.997C261.523 249.625 261.082 249.007 261 247.497C264.262 243.791 265.407 242.309 267 237.997C268.514 237.841 269.163 238.301 270 239.997C268.622 244.736 266.985 246.673 263.5 249.997Z"
        fill="url(#paint17_linear_30263_15729)"
        stroke="black"
        stroke-linecap="round"
        stroke-linejoin="round"
    />
    <defs>
        <linearGradient id="paint0_linear_30263_15729" x1="385.67" y1="117.409" x2="353.072" y2="178.727" gradientUnits="userSpaceOnUse">
            <stop stop-color="#D6FFBB" />
            <stop offset="1" stop-color="#5869DD" />
        </linearGradient>
        <linearGradient id="paint1_linear_30263_15729" x1="477.686" y1="128.072" x2="381.508" y2="218.229" gradientUnits="userSpaceOnUse">
            <stop stop-color="#D6FFBB" />
            <stop offset="1" stop-color="#5869DD" />
        </linearGradient>
        <linearGradient id="paint2_linear_30263_15729" x1="352.397" y1="117.12" x2="337.163" y2="188.114" gradientUnits="userSpaceOnUse">
            <stop stop-color="#D6FFBB" />
            <stop offset="1" stop-color="#5869DD" />
        </linearGradient>
        <linearGradient id="paint3_linear_30263_15729" x1="344.5" y1="92.998" x2="324.455" y2="206.637" gradientUnits="userSpaceOnUse">
            <stop stop-color="#D6FFBB" />
            <stop offset="1" stop-color="#5869DD" />
        </linearGradient>
        <linearGradient id="paint4_linear_30263_15729" x1="381" y1="90.5" x2="167" y2="300" gradientUnits="userSpaceOnUse">
            <stop stop-color="#D6FFBB" />
            <stop offset="1" stop-color="#5869DD" />
        </linearGradient>
        <linearGradient id="paint5_linear_30263_15729" x1="218.5" y1="273.5" x2="181" y2="176" gradientUnits="userSpaceOnUse">
            <stop stop-color="#D6FFBB" />
            <stop offset="1" stop-color="#5869DD" />
        </linearGradient>
        <linearGradient id="paint6_linear_30263_15729" x1="111.5" y1="270.5" x2="164.5" y2="315" gradientUnits="userSpaceOnUse">
            <stop stop-color="#D6FFBB" />
            <stop offset="1" stop-color="#5869DD" />
        </linearGradient>
        <linearGradient id="paint7_linear_30263_15729" x1="266.699" y1="188.141" x2="187.808" y2="124.72" gradientUnits="userSpaceOnUse">
            <stop stop-color="#D6FFBB" />
            <stop offset="1" stop-color="#5869DD" />
        </linearGradient>
        <linearGradient id="paint8_linear_30263_15729" x1="321.477" y1="166.5" x2="188.477" y2="9.5" gradientUnits="userSpaceOnUse">
            <stop stop-color="#D6FFBB" />
            <stop offset="1" stop-color="#5869DD" />
        </linearGradient>
        <linearGradient id="paint9_linear_30263_15729" x1="208.394" y1="196.04" x2="65.7739" y2="28.0569" gradientUnits="userSpaceOnUse">
            <stop stop-color="#D6FFBB" />
            <stop offset="1" stop-color="#5869DD" />
        </linearGradient>
        <linearGradient id="paint10_linear_30263_15729" x1="319.977" y1="221.656" x2="358.532" y2="221.656" gradientUnits="userSpaceOnUse">
            <stop stop-color="#D6FFBB" />
            <stop offset="1" stop-color="#5869DD" />
        </linearGradient>
        <linearGradient id="paint11_linear_30263_15729" x1="354.5" y1="155.504" x2="173.748" y2="282.366" gradientUnits="userSpaceOnUse">
            <stop stop-color="#D6FFBB" />
            <stop offset="1" stop-color="#5869DD" />
        </linearGradient>
        <linearGradient id="paint12_linear_30263_15729" x1="121.5" y1="234.496" x2="152" y2="264.996" gradientUnits="userSpaceOnUse">
            <stop stop-color="#D6FFBB" />
            <stop offset="1" stop-color="#5869DD" />
        </linearGradient>
        <linearGradient id="paint13_linear_30263_15729" x1="234" y1="264.143" x2="193.991" y2="252.269" gradientUnits="userSpaceOnUse">
            <stop stop-color="#D6FFBB" />
            <stop offset="1" stop-color="#5869DD" />
        </linearGradient>
        <linearGradient id="paint14_linear_30263_15729" x1="137.162" y1="215.718" x2="144.028" y2="214.352" gradientUnits="userSpaceOnUse">
            <stop stop-color="#D6FFBB" />
            <stop offset="1" stop-color="#5869DD" />
        </linearGradient>
        <linearGradient id="paint15_linear_30263_15729" x1="140.275" y1="293.564" x2="162.163" y2="304.621" gradientUnits="userSpaceOnUse">
            <stop stop-color="#D6FFBB" />
            <stop offset="1" stop-color="#5869DD" />
        </linearGradient>
        <linearGradient id="paint16_linear_30263_15729" x1="313.5" y1="240" x2="285" y2="236" gradientUnits="userSpaceOnUse">
            <stop stop-color="#D6FFBB" />
            <stop offset="1" stop-color="#5869DD" />
        </linearGradient>
        <linearGradient id="paint17_linear_30263_15729" x1="265" y1="229.498" x2="263" y2="248.498" gradientUnits="userSpaceOnUse">
            <stop stop-color="#D6FFBB" />
            <stop offset="1" stop-color="#5869DD" />
        </linearGradient>
    </defs>
</svg>
