<svg xmlns="http://www.w3.org/2000/svg" width="93" height="96" viewBox="0 0 93 96" fill="none">
    <path d="M92.213 59.6436H86.7859V65.6079H92.213V59.6436Z" fill="black" />
    <path d="M92.213 53.6792H86.7859V59.6436H92.213V53.6792Z" fill="black" />
    <path d="M92.213 47.7148H86.7859V53.6792H92.213V47.7148Z" fill="black" />
    <path d="M92.213 41.7505H86.7859V47.7148H92.213V41.7505Z" fill="black" />
    <path d="M92.213 35.7861H86.7859V41.7505H92.213V35.7861Z" fill="black" />
    <path d="M92.213 29.8218H86.7859V35.7861H92.213V29.8218Z" fill="black" />
    <path d="M92.213 23.8574H86.7859V29.8218H92.213V23.8574Z" fill="black" />
    <path d="M92.213 17.8931H86.7859V23.8574H92.213V17.8931Z" fill="black" />
    <path d="M92.213 11.9287H86.7859V17.8931H92.213V11.9287Z" fill="black" />
    <path d="M92.213 5.96436H86.7859V11.9287H92.213V5.96436Z" fill="black" />
    <path d="M92.213 0H86.7859V5.96436H92.213V0Z" fill="black" />
    <path d="M86.7859 65.6079H81.3631V71.5723H86.7859V65.6079Z" fill="black" />
    <path d="M86.7859 59.6436H81.3631V65.6079H86.7859V59.6436Z" fill="#5869DD" />
    <path d="M86.7859 53.6792H81.3631V59.6436H86.7859V53.6792Z" fill="#F1EFED" />
    <path d="M86.7859 47.7148H81.3631V53.6792H86.7859V47.7148Z" fill="#5869DD" />
    <path d="M86.7859 41.7505H81.3631V47.7148H86.7859V41.7505Z" fill="#5869DD" />
    <path d="M86.7859 35.7861H81.3631V41.7505H86.7859V35.7861Z" fill="#5869DD" />
    <path d="M86.7859 29.8218H81.3631V35.7861H86.7859V29.8218Z" fill="#5869DD" />
    <path d="M86.7859 23.8574H81.3631V29.8218H86.7859V23.8574Z" fill="#5869DD" />
    <path d="M86.7859 17.8931H81.3631V23.8574H86.7859V17.8931Z" fill="#5869DD" />
    <path d="M86.7859 11.9287H81.3631V17.8931H86.7859V11.9287Z" fill="#5869DD" />
    <path d="M86.7859 5.96436H81.3631V11.9287H86.7859V5.96436Z" fill="#8F8E93" />
    <path d="M86.7859 0H81.3631V5.96436H86.7859V0Z" fill="#8F8E93" />
    <path d="M81.3631 71.5723H75.9403V77.5366H81.3631V71.5723Z" fill="black" />
    <path d="M81.3631 65.6079H75.9403V71.5723H81.3631V65.6079Z" fill="#5869DD" />
    <path d="M81.3631 59.6436H75.9403V65.6079H81.3631V59.6436Z" fill="#F1EFED" />
    <path d="M81.3631 53.6792H75.9403V59.6436H81.3631V53.6792Z" fill="#F1EFED" />
    <path d="M81.3631 47.7148H75.9403V53.6792H81.3631V47.7148Z" fill="#F1EFED" />
    <path d="M81.3631 41.7505H75.9403V47.7148H81.3631V41.7505Z" fill="#F1EFED" />
    <path d="M81.3631 35.7861H75.9403V41.7505H81.3631V35.7861Z" fill="#F1EFED" />
    <path d="M81.3631 29.8218H75.9403V35.7861H81.3631V29.8218Z" fill="#F1EFED" />
    <path d="M81.3631 23.8574H75.9403V29.8218H81.3631V23.8574Z" fill="#5869DD" />
    <path d="M81.3631 17.8931H75.9403V23.8574H81.3631V17.8931Z" fill="#5869DD" />
    <path d="M81.3631 11.9287H75.9403V17.8931H81.3631V11.9287Z" fill="#8F8E93" />
    <path d="M81.3631 5.96436H75.9403V11.9287H81.3631V5.96436Z" fill="url(#paint0_linear_4068_13648)" />
    <path d="M81.3631 0H75.9403V5.96436H81.3631V0Z" fill="#8F8E93" />
    <path d="M75.9403 77.5366H70.5133V83.501H75.9403V77.5366Z" fill="black" />
    <path d="M75.9403 71.5723H70.5133V77.5366H75.9403V71.5723Z" fill="#5869DD" />
    <path d="M75.9403 65.6079H70.5133V71.5723H75.9403V65.6079Z" fill="#F1EFED" />
    <path d="M75.9403 59.6436H70.5133V65.6079H75.9403V59.6436Z" fill="#5869DD" />
    <path d="M75.9403 53.6792H70.5133V59.6436H75.9403V53.6792Z" fill="#5869DD" />
    <path d="M75.9403 47.7148H70.5133V53.6792H75.9403V47.7148Z" fill="#5869DD" />
    <path d="M75.9403 41.7505H70.5133V47.7148H75.9403V41.7505Z" fill="#5869DD" />
    <path d="M75.9403 35.7861H70.5133V41.7505H75.9403V35.7861Z" fill="#F1EFED" />
    <path d="M75.9403 29.8218H70.5133V35.7861H75.9403V29.8218Z" fill="#5869DD" />
    <path d="M75.9403 23.8574H70.5133V29.8218H75.9403V23.8574Z" fill="#5869DD" />
    <path d="M75.9403 17.8931H70.5133V23.8574H75.9403V17.8931Z" fill="#8F8E93" />
    <path d="M75.9403 11.9287H70.5133V17.8931H75.9403V11.9287Z" fill="url(#paint1_linear_4068_13648)" />
    <path d="M75.9403 5.96436H70.5133V11.9287H75.9403V5.96436Z" fill="url(#paint2_linear_4068_13648)" />
    <path d="M75.9403 0H70.5133V5.96436H75.9403V0Z" fill="#8F8E93" />
    <path d="M70.5133 83.501L65.0905 83.501V89.4653H70.5133L70.5133 83.501Z" fill="black" />
    <path d="M70.5133 77.5366H65.0905V83.501L70.5133 83.501V77.5366Z" fill="#5869DD" />
    <path d="M70.5133 71.5723H65.0905V77.5366H70.5133V71.5723Z" fill="#5869DD" />
    <path d="M70.5133 65.6079H65.0905V71.5723H70.5133V65.6079Z" fill="#5869DD" />
    <path d="M70.5133 59.6436H65.0905V65.6079H70.5133V59.6436Z" fill="#5869DD" />
    <path d="M70.5133 53.6792H65.0905V59.6436H70.5133V53.6792Z" fill="#5869DD" />
    <path d="M70.5133 47.7148H65.0905V53.6792H70.5133V47.7148Z" fill="#5869DD" />
    <path d="M70.5133 41.7505H65.0905V47.7148H70.5133V41.7505Z" fill="#5869DD" />
    <path d="M70.5133 35.7861H65.0905V41.7505H70.5133V35.7861Z" fill="#5869DD" />
    <path d="M70.5133 29.8218H65.0905V35.7861H70.5133V29.8218Z" fill="#5869DD" />
    <path d="M70.5133 23.8574H65.0905V29.8218H70.5133V23.8574Z" fill="#8F8E93" />
    <path d="M70.5133 17.8931H65.0905V23.8574H70.5133V17.8931Z" fill="url(#paint3_linear_4068_13648)" />
    <path d="M70.5133 11.9287H65.0905V17.8931H70.5133V11.9287Z" fill="url(#paint4_linear_4068_13648)" />
    <path d="M70.5133 5.96436H65.0905V11.9287H70.5133V5.96436Z" fill="url(#paint5_linear_4068_13648)" />
    <path d="M70.5133 0H65.0905V5.96436H70.5133V0Z" fill="#8F8E93" />
    <path d="M65.0905 89.4653H59.6677V95.4297H65.0905V89.4653Z" fill="black" />
    <path d="M65.0905 83.501H59.6677V89.4653H65.0905V83.501Z" fill="#8F8E93" />
    <path d="M65.0905 77.5366H59.6677V83.501H65.0905V77.5366Z" fill="#8F8E93" />
    <path d="M65.0905 71.5723H59.6677V77.5366H65.0905V71.5723Z" fill="#8F8E93" />
    <path d="M65.0905 65.6079H59.6677V71.5723H65.0905V65.6079Z" fill="#8F8E93" />
    <path d="M65.0905 59.6436H59.6677V65.6079H65.0905V59.6436Z" fill="#8F8E93" />
    <path d="M65.0905 53.6792H59.6677V59.6436H65.0905V53.6792Z" fill="#8F8E93" />
    <path d="M65.0905 47.7148H59.6677V53.6792H65.0905V47.7148Z" fill="#8F8E93" />
    <path d="M65.0905 41.7505H59.6677V47.7148H65.0905V41.7505Z" fill="#8F8E93" />
    <path d="M65.0905 35.7861H59.6677V41.7505H65.0905V35.7861Z" fill="#8F8E93" />
    <path d="M65.0905 29.8218H59.6677V35.7861H65.0905V29.8218Z" fill="#8F8E93" />
    <path d="M65.0905 23.8574H59.6677V29.8218H65.0905V23.8574Z" fill="url(#paint6_linear_4068_13648)" />
    <path d="M65.0905 17.8931H59.6677V23.8574H65.0905V17.8931Z" fill="url(#paint7_linear_4068_13648)" />
    <path d="M65.0905 11.9287H59.6677V17.8931H65.0905V11.9287Z" fill="url(#paint8_linear_4068_13648)" />
    <path d="M65.0905 5.96436H59.6677V11.9287H65.0905V5.96436Z" fill="url(#paint9_linear_4068_13648)" />
    <path d="M65.0905 0H59.6677V5.96436H65.0905V0Z" fill="#8F8E93" />
    <path d="M59.6677 89.4653H54.2407V95.4297H59.6677V89.4653Z" fill="black" />
    <path d="M59.6677 83.501H54.2407V89.4653H59.6677V83.501Z" fill="#8F8E93" />
    <path d="M59.6677 77.5366H54.2407V83.501H59.6677V77.5366Z" fill="url(#paint10_linear_4068_13648)" />
    <path d="M59.6677 71.5723H54.2407V77.5366H59.6677V71.5723Z" fill="url(#paint11_linear_4068_13648)" />
    <path d="M59.6677 65.6079H54.2407V71.5723H59.6677V65.6079Z" fill="url(#paint12_linear_4068_13648)" />
    <path d="M59.6677 59.6436H54.2407V65.6079H59.6677V59.6436Z" fill="url(#paint13_linear_4068_13648)" />
    <path d="M59.6677 53.6792H54.2407V59.6436H59.6677V53.6792Z" fill="url(#paint14_linear_4068_13648)" />
    <path d="M59.6677 47.7148H54.2407V53.6792H59.6677V47.7148Z" fill="url(#paint15_linear_4068_13648)" />
    <path d="M59.6677 41.7505H54.2407V47.7148H59.6677V41.7505Z" fill="url(#paint16_linear_4068_13648)" />
    <path d="M59.6677 35.7861H54.2407V41.7505H59.6677V35.7861Z" fill="url(#paint17_linear_4068_13648)" />
    <path d="M59.6677 29.8218H54.2407V35.7861H59.6677V29.8218Z" fill="#8F8E93" />
    <path d="M59.6677 23.8574H54.2407V29.8218H59.6677V23.8574Z" fill="url(#paint18_linear_4068_13648)" />
    <path d="M59.6677 17.8931H54.2407V23.8574H59.6677V17.8931Z" fill="url(#paint19_linear_4068_13648)" />
    <path d="M59.6677 11.9287H54.2407V17.8931H59.6677V11.9287Z" fill="url(#paint20_linear_4068_13648)" />
    <path d="M59.6677 5.96436H54.2407V11.9287H59.6677V5.96436Z" fill="#F1EFED" />
    <path d="M59.6677 0H54.2407V5.96436H59.6677V0Z" fill="#8F8E93" />
    <path d="M54.2407 89.4653H48.8179V95.4297H54.2407V89.4653Z" fill="black" />
    <path d="M54.2407 83.501H48.8179V89.4653H54.2407V83.501Z" fill="#8F8E93" />
    <path d="M54.2407 77.5366H48.8179V83.501H54.2407V77.5366Z" fill="url(#paint21_linear_4068_13648)" />
    <path d="M54.2407 71.5723H48.8179V77.5366H54.2407V71.5723Z" fill="url(#paint22_linear_4068_13648)" />
    <path d="M54.2407 65.6079H48.8179V71.5723H54.2407V65.6079Z" fill="url(#paint23_linear_4068_13648)" />
    <path d="M54.2407 59.6436H48.8179V65.6079H54.2407V59.6436Z" fill="url(#paint24_linear_4068_13648)" />
    <path d="M54.2407 53.6792H48.8179V59.6436H54.2407V53.6792Z" fill="url(#paint25_linear_4068_13648)" />
    <path d="M54.2407 47.7148H48.8179V53.6792H54.2407V47.7148Z" fill="url(#paint26_linear_4068_13648)" />
    <path d="M54.2407 41.7505H48.8179V47.7148H54.2407V41.7505Z" fill="url(#paint27_linear_4068_13648)" />
    <path d="M54.2407 35.7861H48.8179V41.7505H54.2407V35.7861Z" fill="url(#paint28_linear_4068_13648)" />
    <path d="M54.2407 29.8218H48.8179V35.7861H54.2407V29.8218Z" fill="#8F8E93" />
    <path d="M54.2407 23.8574H48.8179V29.8218H54.2407V23.8574Z" fill="url(#paint29_linear_4068_13648)" />
    <path d="M54.2407 17.8931H48.8179V23.8574H54.2407V17.8931Z" fill="url(#paint30_linear_4068_13648)" />
    <path d="M54.2407 11.9287H48.8179V17.8931H54.2407V11.9287Z" fill="#F1EFED" />
    <path d="M54.2407 5.96436H48.8179V11.9287H54.2407V5.96436Z" fill="#F1EFED" />
    <path d="M54.2407 0H48.8179V5.96436H54.2407V0Z" fill="#8F8E93" />
    <path d="M48.8179 89.4653H43.3951V95.4297H48.8179V89.4653Z" fill="black" />
    <path d="M48.8179 83.501H43.3951V89.4653H48.8179V83.501Z" fill="#8F8E93" />
    <path d="M48.8179 77.5366H43.3951V83.501H48.8179V77.5366Z" fill="url(#paint31_linear_4068_13648)" />
    <path d="M48.8179 71.5723H43.3951V77.5366H48.8179V71.5723Z" fill="#F1EFED" />
    <path d="M48.8179 65.6079H43.3951V71.5723H48.8179V65.6079Z" fill="url(#paint32_linear_4068_13648)" />
    <path d="M48.8179 59.6436H43.3951V65.6079H48.8179V59.6436Z" fill="url(#paint33_linear_4068_13648)" />
    <path d="M48.8179 53.6792H43.3951V59.6436H48.8179V53.6792Z" fill="url(#paint34_linear_4068_13648)" />
    <path d="M48.8179 47.7148H43.3951V53.6792H48.8179V47.7148Z" fill="url(#paint35_linear_4068_13648)" />
    <path d="M48.8179 41.7505H43.3951V47.7148H48.8179V41.7505Z" fill="url(#paint36_linear_4068_13648)" />
    <path d="M48.8179 35.7861H43.3951V41.7505H48.8179V35.7861Z" fill="url(#paint37_linear_4068_13648)" />
    <path d="M48.8179 29.8218H43.3951V35.7861H48.8179V29.8218Z" fill="#8F8E93" />
    <path d="M48.8179 23.8574H43.3951V29.8218H48.8179V23.8574Z" fill="url(#paint38_linear_4068_13648)" />
    <path d="M48.8179 17.8931H43.3951V23.8574H48.8179V17.8931Z" fill="#F1EFED" />
    <path d="M48.8179 11.9287H43.3951V17.8931H48.8179V11.9287Z" fill="url(#paint39_linear_4068_13648)" />
    <path d="M48.8179 5.96436H43.3951V11.9287H48.8179V5.96436Z" fill="#F1EFED" />
    <path d="M48.8179 0H43.3951V5.96436H48.8179V0Z" fill="#8F8E93" />
    <path d="M43.3951 89.4653H37.9681V95.4297H43.3951V89.4653Z" fill="black" />
    <path d="M43.3951 83.501H37.9681V89.4653H43.3951V83.501Z" fill="#8F8E93" />
    <path d="M43.3951 77.5366H37.9681V83.501H43.3951V77.5366Z" fill="url(#paint40_linear_4068_13648)" />
    <path d="M43.3951 71.5723H37.9681V77.5366H43.3951V71.5723Z" fill="#F1EFED" />
    <path d="M43.3951 65.6079H37.9681V71.5723H43.3951V65.6079Z" fill="#F1EFED" />
    <path d="M43.3951 59.6436H37.9681V65.6079H43.3951V59.6436Z" fill="#F1EFED" />
    <path d="M43.3951 53.6792H37.9681V59.6436H43.3951V53.6792Z" fill="url(#paint41_linear_4068_13648)" />
    <path d="M43.3951 47.7148H37.9681V53.6792H43.3951V47.7148Z" fill="url(#paint42_linear_4068_13648)" />
    <path d="M43.3951 41.7505H37.9681V47.7148H43.3951V41.7505Z" fill="url(#paint43_linear_4068_13648)" />
    <path d="M43.3951 35.7861H37.9681V41.7505H43.3951V35.7861Z" fill="url(#paint44_linear_4068_13648)" />
    <path d="M43.3951 29.8218H37.9681V35.7861H43.3951V29.8218Z" fill="#8F8E93" />
    <path d="M43.3951 23.8574H37.9681V29.8218H43.3951V23.8574Z" fill="#F1EFED" />
    <path d="M43.3951 17.8931H37.9681V23.8574H43.3951V17.8931Z" fill="url(#paint45_linear_4068_13648)" />
    <path d="M43.3951 11.9287H37.9681V17.8931H43.3951V11.9287Z" fill="url(#paint46_linear_4068_13648)" />
    <path d="M43.3951 5.96436H37.9681V11.9287H43.3951V5.96436Z" fill="#F1EFED" />
    <path d="M43.3951 0H37.9681V5.96436H43.3951V0Z" fill="#8F8E93" />
    <path d="M37.9681 89.4653H32.5453V95.4297H37.9681V89.4653Z" fill="black" />
    <path d="M37.9681 83.501H32.5453V89.4653H37.9681V83.501Z" fill="#8F8E93" />
    <path d="M37.9681 77.5366H32.5453V83.501H37.9681V77.5366Z" fill="url(#paint47_linear_4068_13648)" />
    <path d="M37.9681 71.5723H32.5453V77.5366H37.9681V71.5723Z" fill="url(#paint48_linear_4068_13648)" />
    <path d="M37.9681 65.6079H32.5453V71.5723H37.9681V65.6079Z" fill="url(#paint49_linear_4068_13648)" />
    <path d="M37.9681 59.6436H32.5453V65.6079H37.9681V59.6436Z" fill="#F1EFED" />
    <path d="M37.9681 53.6792H32.5453V59.6436H37.9681V53.6792Z" fill="#F1EFED" />
    <path d="M37.9681 47.7148H32.5453V53.6792H37.9681V47.7148Z" fill="#F1EFED" />
    <path d="M37.9681 41.7505H32.5453V47.7148H37.9681V41.7505Z" fill="url(#paint50_linear_4068_13648)" />
    <path d="M37.9681 35.7861H32.5453V41.7505H37.9681V35.7861Z" fill="url(#paint51_linear_4068_13648)" />
    <path d="M37.9681 29.8218H32.5453V35.7861H37.9681V29.8218Z" fill="#8F8E93" />
    <path d="M37.9681 23.8574H32.5453V29.8218H37.9681V23.8574Z" fill="#F1EFED" />
    <path d="M37.9681 17.8931H32.5453V23.8574H37.9681V17.8931Z" fill="url(#paint52_linear_4068_13648)" />
    <path d="M37.9681 11.9287H32.5453V17.8931H37.9681V11.9287Z" fill="#F1EFED" />
    <path d="M37.9681 5.96436H32.5453V11.9287H37.9681V5.96436Z" fill="url(#paint53_linear_4068_13648)" />
    <path d="M37.9681 0H32.5453V5.96436H37.9681V0Z" fill="#8F8E93" />
    <path d="M32.5453 89.4653H27.1224V95.4297H32.5453V89.4653Z" fill="black" />
    <path d="M32.5453 83.501H27.1224V89.4653H32.5453V83.501Z" fill="#8F8E93" />
    <path d="M32.5453 77.5366H27.1224V83.501H32.5453V77.5366Z" fill="url(#paint54_linear_4068_13648)" />
    <path d="M32.5453 71.5723H27.1224V77.5366H32.5453V71.5723Z" fill="url(#paint55_linear_4068_13648)" />
    <path d="M32.5453 65.6079H27.1224V71.5723H32.5453V65.6079Z" fill="url(#paint56_linear_4068_13648)" />
    <path d="M32.5453 59.6436H27.1224V65.6079H32.5453V59.6436Z" fill="#F1EFED" />
    <path d="M32.5453 53.6792H27.1224V59.6436H32.5453V53.6792Z" fill="url(#paint57_linear_4068_13648)" />
    <path d="M32.5453 47.7148H27.1224V53.6792H32.5453V47.7148Z" fill="#F1EFED" />
    <path d="M32.5453 41.7505H27.1224V47.7148H32.5453V41.7505Z" fill="#F1EFED" />
    <path d="M32.5453 35.7861H27.1224V41.7505H32.5453V35.7861Z" fill="url(#paint58_linear_4068_13648)" />
    <path d="M32.5453 29.8218H27.1224V35.7861H32.5453V29.8218Z" fill="#8F8E93" />
    <path d="M32.5453 23.8574H27.1224V29.8218H32.5453V23.8574Z" fill="#F1EFED" />
    <path d="M32.5453 17.8931H27.1224V23.8574H32.5453V17.8931Z" fill="#F1EFED" />
    <path d="M32.5453 11.9287H27.1224V17.8931H32.5453V11.9287Z" fill="url(#paint59_linear_4068_13648)" />
    <path d="M32.5453 5.96436H27.1224V11.9287H32.5453V5.96436Z" fill="url(#paint60_linear_4068_13648)" />
    <path d="M32.5453 0H27.1224V5.96436H32.5453V0Z" fill="#8F8E93" />
    <path d="M27.1224 89.4653H21.6954V95.4297H27.1224V89.4653Z" fill="black" />
    <path d="M27.1224 83.501H21.6954V89.4653H27.1224V83.501Z" fill="#8F8E93" />
    <path d="M27.1224 77.5366H21.6954V83.501H27.1224V77.5366Z" fill="url(#paint61_linear_4068_13648)" />
    <path d="M27.1224 71.5723H21.6954V77.5366H27.1224V71.5723Z" fill="url(#paint62_linear_4068_13648)" />
    <path d="M27.1224 65.6079H21.6954V71.5723H27.1224V65.6079Z" fill="url(#paint63_linear_4068_13648)" />
    <path d="M27.1224 59.6436H21.6954V65.6079H27.1224V59.6436Z" fill="#F1EFED" />
    <path d="M27.1224 53.6792H21.6954V59.6436H27.1224V53.6792Z" fill="#F1EFED" />
    <path d="M27.1224 47.7148H21.6954V53.6792H27.1224V47.7148Z" fill="#F1EFED" />
    <path d="M27.1224 41.7505H21.6954V47.7148H27.1224V41.7505Z" fill="url(#paint64_linear_4068_13648)" />
    <path d="M27.1224 35.7861H21.6954V41.7505H27.1224V35.7861Z" fill="url(#paint65_linear_4068_13648)" />
    <path d="M27.1224 29.8218H21.6954V35.7861H27.1224V29.8218Z" fill="#8F8E93" />
    <path d="M27.1224 23.8574H21.6954V29.8218H27.1224V23.8574Z" fill="#F1EFED" />
    <path d="M27.1224 17.8931H21.6954V23.8574H27.1224V17.8931Z" fill="url(#paint66_linear_4068_13648)" />
    <path d="M27.1224 11.9287H21.6954V17.8931H27.1224V11.9287Z" fill="url(#paint67_linear_4068_13648)" />
    <path d="M27.1224 5.96436H21.6954V11.9287H27.1224V5.96436Z" fill="url(#paint68_linear_4068_13648)" />
    <path d="M27.1224 0H21.6954V5.96436H27.1224V0Z" fill="#8F8E93" />
    <path d="M21.6954 89.4653H16.2726V95.4297H21.6954V89.4653Z" fill="black" />
    <path d="M21.6954 83.501H16.2726V89.4653H21.6954V83.501Z" fill="#8F8E93" />
    <path d="M21.6954 77.5366H16.2726V83.501H21.6954V77.5366Z" fill="url(#paint69_linear_4068_13648)" />
    <path d="M21.6954 71.5723H16.2726V77.5366H21.6954V71.5723Z" fill="#F1EFED" />
    <path d="M21.6954 65.6079H16.2726V71.5723H21.6954V65.6079Z" fill="#F1EFED" />
    <path d="M21.6954 59.6436H16.2726V65.6079H21.6954V59.6436Z" fill="#F1EFED" />
    <path d="M21.6954 53.6792H16.2726V59.6436H21.6954V53.6792Z" fill="url(#paint70_linear_4068_13648)" />
    <path d="M21.6954 47.7148H16.2726V53.6792H21.6954V47.7148Z" fill="url(#paint71_linear_4068_13648)" />
    <path d="M21.6954 41.7505H16.2726V47.7148H21.6954V41.7505Z" fill="url(#paint72_linear_4068_13648)" />
    <path d="M21.6954 35.7861H16.2726V41.7505H21.6954V35.7861Z" fill="url(#paint73_linear_4068_13648)" />
    <path d="M21.6954 29.8218H16.2726V35.7861H21.6954V29.8218Z" fill="#8F8E93" />
    <path d="M21.6954 23.8574H16.2726V29.8218H21.6954V23.8574Z" fill="url(#paint74_linear_4068_13648)" />
    <path d="M21.6954 17.8931H16.2726V23.8574H21.6954V17.8931Z" fill="url(#paint75_linear_4068_13648)" />
    <path d="M21.6954 11.9287H16.2726V17.8931H21.6954V11.9287Z" fill="url(#paint76_linear_4068_13648)" />
    <path d="M21.6954 5.96436H16.2726V11.9287H21.6954V5.96436Z" fill="#8F8E93" />
    <path d="M16.2726 89.4653H10.8498V95.4297H16.2726V89.4653Z" fill="black" />
    <path d="M16.2726 83.501H10.8498V89.4653H16.2726V83.501Z" fill="#8F8E93" />
    <path d="M16.2726 77.5366H10.8498V83.501H16.2726V77.5366Z" fill="url(#paint77_linear_4068_13648)" />
    <path d="M16.2726 71.5723H10.8498V77.5366H16.2726V71.5723Z" fill="#F1EFED" />
    <path d="M16.2726 65.6079H10.8498V71.5723H16.2726V65.6079Z" fill="url(#paint78_linear_4068_13648)" />
    <path d="M16.2726 59.6436H10.8498V65.6079H16.2726V59.6436Z" fill="url(#paint79_linear_4068_13648)" />
    <path d="M16.2726 53.6792H10.8498V59.6436H16.2726V53.6792Z" fill="url(#paint80_linear_4068_13648)" />
    <path d="M16.2726 47.7148H10.8498V53.6792H16.2726V47.7148Z" fill="url(#paint81_linear_4068_13648)" />
    <path d="M16.2726 41.7505H10.8498V47.7148H16.2726V41.7505Z" fill="url(#paint82_linear_4068_13648)" />
    <path d="M16.2726 35.7861H10.8498V41.7505H16.2726V35.7861Z" fill="url(#paint83_linear_4068_13648)" />
    <path d="M16.2726 29.8218H10.8498V35.7861H16.2726V29.8218Z" fill="#8F8E93" />
    <path d="M16.2726 23.8574H10.8498V29.8218H16.2726V23.8574Z" fill="url(#paint84_linear_4068_13648)" />
    <path d="M16.2726 17.8931H10.8498V23.8574H16.2726V17.8931Z" fill="url(#paint85_linear_4068_13648)" />
    <path d="M16.2726 11.9287H10.8498V17.8931H16.2726V11.9287Z" fill="#8F8E93" />
    <path d="M10.8498 89.4653H5.42281V95.4297H10.8498V89.4653Z" fill="black" />
    <path d="M10.8498 83.501H5.42281V89.4653H10.8498V83.501Z" fill="#8F8E93" />
    <path d="M10.8498 77.5366H5.42281V83.501H10.8498V77.5366Z" fill="url(#paint86_linear_4068_13648)" />
    <path d="M10.8498 71.5723H5.42281V77.5366H10.8498V71.5723Z" fill="url(#paint87_linear_4068_13648)" />
    <path d="M10.8498 65.6079H5.42281V71.5723H10.8498V65.6079Z" fill="url(#paint88_linear_4068_13648)" />
    <path d="M10.8498 59.6436H5.42281V65.6079H10.8498V59.6436Z" fill="url(#paint89_linear_4068_13648)" />
    <path d="M10.8498 53.6792H5.42281V59.6436H10.8498V53.6792Z" fill="url(#paint90_linear_4068_13648)" />
    <path d="M10.8498 47.7148H5.42281V53.6792H10.8498V47.7148Z" fill="url(#paint91_linear_4068_13648)" />
    <path d="M10.8498 41.7505H5.42281V47.7148H10.8498V41.7505Z" fill="url(#paint92_linear_4068_13648)" />
    <path d="M10.8498 35.7861H5.42281V41.7505H10.8498V35.7861Z" fill="url(#paint93_linear_4068_13648)" />
    <path d="M10.8498 29.8218H5.42281V35.7861H10.8498V29.8218Z" fill="#8F8E93" />
    <path d="M10.8498 23.8574H5.42281V29.8218H10.8498V23.8574Z" fill="url(#paint94_linear_4068_13648)" />
    <path d="M10.8498 17.8931H5.42281V23.8574H10.8498V17.8931Z" fill="#8F8E93" />
    <path d="M5.42281 89.4653H0V95.4297H5.42281V89.4653Z" fill="black" />
    <path d="M5.42281 83.501H0V89.4653H5.42281V83.501Z" fill="#8F8E93" />
    <path d="M5.42281 77.5366H0V83.501H5.42281V77.5366Z" fill="#8F8E93" />
    <path d="M5.42281 71.5723H0V77.5366H5.42281V71.5723Z" fill="#8F8E93" />
    <path d="M5.42281 65.6079H0V71.5723H5.42281V65.6079Z" fill="#8F8E93" />
    <path d="M5.42281 59.6436H0V65.6079H5.42281V59.6436Z" fill="#8F8E93" />
    <path d="M5.42281 53.6792H0V59.6436H5.42281V53.6792Z" fill="#8F8E93" />
    <path d="M5.42281 47.7148H0V53.6792H5.42281V47.7148Z" fill="#8F8E93" />
    <path d="M5.42281 41.7505H0V47.7148H5.42281V41.7505Z" fill="#8F8E93" />
    <path d="M5.42281 35.7861H0V41.7505H5.42281V35.7861Z" fill="#8F8E93" />
    <path d="M5.42281 29.8218H0V35.7861H5.42281V29.8218Z" fill="#8F8E93" />
    <path d="M5.42281 23.8574H0V29.8218H5.42281V23.8574Z" fill="#8F8E93" />
    <defs>
        <linearGradient id="paint0_linear_4068_13648" x1="7.63885" y1="62.4461" x2="82.5347" y2="17.1535" gradientUnits="userSpaceOnUse">
            <stop stop-color="#D6FFBB" />
            <stop offset="1" stop-color="#5869DD" />
        </linearGradient>
        <linearGradient id="paint1_linear_4068_13648" x1="7.63885" y1="62.4461" x2="82.5347" y2="17.1535" gradientUnits="userSpaceOnUse">
            <stop stop-color="#D6FFBB" />
            <stop offset="1" stop-color="#5869DD" />
        </linearGradient>
        <linearGradient id="paint2_linear_4068_13648" x1="7.63885" y1="62.4461" x2="82.5347" y2="17.1535" gradientUnits="userSpaceOnUse">
            <stop stop-color="#D6FFBB" />
            <stop offset="1" stop-color="#5869DD" />
        </linearGradient>
        <linearGradient id="paint3_linear_4068_13648" x1="7.63885" y1="62.4461" x2="82.5347" y2="17.1535" gradientUnits="userSpaceOnUse">
            <stop stop-color="#D6FFBB" />
            <stop offset="1" stop-color="#5869DD" />
        </linearGradient>
        <linearGradient id="paint4_linear_4068_13648" x1="7.63885" y1="62.4461" x2="82.5347" y2="17.1535" gradientUnits="userSpaceOnUse">
            <stop stop-color="#D6FFBB" />
            <stop offset="1" stop-color="#5869DD" />
        </linearGradient>
        <linearGradient id="paint5_linear_4068_13648" x1="7.63885" y1="62.4461" x2="82.5347" y2="17.1535" gradientUnits="userSpaceOnUse">
            <stop stop-color="#D6FFBB" />
            <stop offset="1" stop-color="#5869DD" />
        </linearGradient>
        <linearGradient id="paint6_linear_4068_13648" x1="7.63885" y1="62.4461" x2="82.5347" y2="17.1535" gradientUnits="userSpaceOnUse">
            <stop stop-color="#D6FFBB" />
            <stop offset="1" stop-color="#5869DD" />
        </linearGradient>
        <linearGradient id="paint7_linear_4068_13648" x1="7.63885" y1="62.4461" x2="82.5347" y2="17.1535" gradientUnits="userSpaceOnUse">
            <stop stop-color="#D6FFBB" />
            <stop offset="1" stop-color="#5869DD" />
        </linearGradient>
        <linearGradient id="paint8_linear_4068_13648" x1="7.63885" y1="62.4461" x2="82.5347" y2="17.1535" gradientUnits="userSpaceOnUse">
            <stop stop-color="#D6FFBB" />
            <stop offset="1" stop-color="#5869DD" />
        </linearGradient>
        <linearGradient id="paint9_linear_4068_13648" x1="7.63885" y1="62.4461" x2="82.5347" y2="17.1535" gradientUnits="userSpaceOnUse">
            <stop stop-color="#D6FFBB" />
            <stop offset="1" stop-color="#5869DD" />
        </linearGradient>
        <linearGradient id="paint10_linear_4068_13648" x1="0" y1="47.7148" x2="92.213" y2="47.7148" gradientUnits="userSpaceOnUse">
            <stop stop-color="#D6FFBB" />
            <stop offset="1" stop-color="#5869DD" />
        </linearGradient>
        <linearGradient id="paint11_linear_4068_13648" x1="0" y1="47.7148" x2="92.213" y2="47.7148" gradientUnits="userSpaceOnUse">
            <stop stop-color="#D6FFBB" />
            <stop offset="1" stop-color="#5869DD" />
        </linearGradient>
        <linearGradient id="paint12_linear_4068_13648" x1="0" y1="47.7148" x2="92.213" y2="47.7148" gradientUnits="userSpaceOnUse">
            <stop stop-color="#D6FFBB" />
            <stop offset="1" stop-color="#5869DD" />
        </linearGradient>
        <linearGradient id="paint13_linear_4068_13648" x1="0" y1="47.7148" x2="92.213" y2="47.7148" gradientUnits="userSpaceOnUse">
            <stop stop-color="#D6FFBB" />
            <stop offset="1" stop-color="#5869DD" />
        </linearGradient>
        <linearGradient id="paint14_linear_4068_13648" x1="0" y1="47.7148" x2="92.213" y2="47.7148" gradientUnits="userSpaceOnUse">
            <stop stop-color="#D6FFBB" />
            <stop offset="1" stop-color="#5869DD" />
        </linearGradient>
        <linearGradient id="paint15_linear_4068_13648" x1="0" y1="47.7148" x2="92.213" y2="47.7148" gradientUnits="userSpaceOnUse">
            <stop stop-color="#D6FFBB" />
            <stop offset="1" stop-color="#5869DD" />
        </linearGradient>
        <linearGradient id="paint16_linear_4068_13648" x1="0" y1="47.7148" x2="92.213" y2="47.7148" gradientUnits="userSpaceOnUse">
            <stop stop-color="#D6FFBB" />
            <stop offset="1" stop-color="#5869DD" />
        </linearGradient>
        <linearGradient id="paint17_linear_4068_13648" x1="0" y1="47.7148" x2="92.213" y2="47.7148" gradientUnits="userSpaceOnUse">
            <stop stop-color="#D6FFBB" />
            <stop offset="1" stop-color="#5869DD" />
        </linearGradient>
        <linearGradient id="paint18_linear_4068_13648" x1="7.63885" y1="62.4461" x2="82.5347" y2="17.1535" gradientUnits="userSpaceOnUse">
            <stop stop-color="#D6FFBB" />
            <stop offset="1" stop-color="#5869DD" />
        </linearGradient>
        <linearGradient id="paint19_linear_4068_13648" x1="7.63885" y1="62.4461" x2="82.5347" y2="17.1535" gradientUnits="userSpaceOnUse">
            <stop stop-color="#D6FFBB" />
            <stop offset="1" stop-color="#5869DD" />
        </linearGradient>
        <linearGradient id="paint20_linear_4068_13648" x1="7.63885" y1="62.4461" x2="82.5347" y2="17.1535" gradientUnits="userSpaceOnUse">
            <stop stop-color="#D6FFBB" />
            <stop offset="1" stop-color="#5869DD" />
        </linearGradient>
        <linearGradient id="paint21_linear_4068_13648" x1="0" y1="47.7148" x2="92.213" y2="47.7148" gradientUnits="userSpaceOnUse">
            <stop stop-color="#D6FFBB" />
            <stop offset="1" stop-color="#5869DD" />
        </linearGradient>
        <linearGradient id="paint22_linear_4068_13648" x1="0" y1="47.7148" x2="92.213" y2="47.7148" gradientUnits="userSpaceOnUse">
            <stop stop-color="#D6FFBB" />
            <stop offset="1" stop-color="#5869DD" />
        </linearGradient>
        <linearGradient id="paint23_linear_4068_13648" x1="0" y1="47.7148" x2="92.213" y2="47.7148" gradientUnits="userSpaceOnUse">
            <stop stop-color="#D6FFBB" />
            <stop offset="1" stop-color="#5869DD" />
        </linearGradient>
        <linearGradient id="paint24_linear_4068_13648" x1="0" y1="47.7148" x2="92.213" y2="47.7148" gradientUnits="userSpaceOnUse">
            <stop stop-color="#D6FFBB" />
            <stop offset="1" stop-color="#5869DD" />
        </linearGradient>
        <linearGradient id="paint25_linear_4068_13648" x1="0" y1="47.7148" x2="92.213" y2="47.7148" gradientUnits="userSpaceOnUse">
            <stop stop-color="#D6FFBB" />
            <stop offset="1" stop-color="#5869DD" />
        </linearGradient>
        <linearGradient id="paint26_linear_4068_13648" x1="0" y1="47.7148" x2="92.213" y2="47.7148" gradientUnits="userSpaceOnUse">
            <stop stop-color="#D6FFBB" />
            <stop offset="1" stop-color="#5869DD" />
        </linearGradient>
        <linearGradient id="paint27_linear_4068_13648" x1="0" y1="47.7148" x2="92.213" y2="47.7148" gradientUnits="userSpaceOnUse">
            <stop stop-color="#D6FFBB" />
            <stop offset="1" stop-color="#5869DD" />
        </linearGradient>
        <linearGradient id="paint28_linear_4068_13648" x1="0" y1="47.7148" x2="92.213" y2="47.7148" gradientUnits="userSpaceOnUse">
            <stop stop-color="#D6FFBB" />
            <stop offset="1" stop-color="#5869DD" />
        </linearGradient>
        <linearGradient id="paint29_linear_4068_13648" x1="7.63885" y1="62.4461" x2="82.5347" y2="17.1535" gradientUnits="userSpaceOnUse">
            <stop stop-color="#D6FFBB" />
            <stop offset="1" stop-color="#5869DD" />
        </linearGradient>
        <linearGradient id="paint30_linear_4068_13648" x1="7.63885" y1="62.4461" x2="82.5347" y2="17.1535" gradientUnits="userSpaceOnUse">
            <stop stop-color="#D6FFBB" />
            <stop offset="1" stop-color="#5869DD" />
        </linearGradient>
        <linearGradient id="paint31_linear_4068_13648" x1="0" y1="47.7148" x2="92.213" y2="47.7148" gradientUnits="userSpaceOnUse">
            <stop stop-color="#D6FFBB" />
            <stop offset="1" stop-color="#5869DD" />
        </linearGradient>
        <linearGradient id="paint32_linear_4068_13648" x1="0" y1="47.7148" x2="92.213" y2="47.7148" gradientUnits="userSpaceOnUse">
            <stop stop-color="#D6FFBB" />
            <stop offset="1" stop-color="#5869DD" />
        </linearGradient>
        <linearGradient id="paint33_linear_4068_13648" x1="0" y1="47.7148" x2="92.213" y2="47.7148" gradientUnits="userSpaceOnUse">
            <stop stop-color="#D6FFBB" />
            <stop offset="1" stop-color="#5869DD" />
        </linearGradient>
        <linearGradient id="paint34_linear_4068_13648" x1="0" y1="47.7148" x2="92.213" y2="47.7148" gradientUnits="userSpaceOnUse">
            <stop stop-color="#D6FFBB" />
            <stop offset="1" stop-color="#5869DD" />
        </linearGradient>
        <linearGradient id="paint35_linear_4068_13648" x1="0" y1="47.7148" x2="92.213" y2="47.7148" gradientUnits="userSpaceOnUse">
            <stop stop-color="#D6FFBB" />
            <stop offset="1" stop-color="#5869DD" />
        </linearGradient>
        <linearGradient id="paint36_linear_4068_13648" x1="0" y1="47.7148" x2="92.213" y2="47.7148" gradientUnits="userSpaceOnUse">
            <stop stop-color="#D6FFBB" />
            <stop offset="1" stop-color="#5869DD" />
        </linearGradient>
        <linearGradient id="paint37_linear_4068_13648" x1="0" y1="47.7148" x2="92.213" y2="47.7148" gradientUnits="userSpaceOnUse">
            <stop stop-color="#D6FFBB" />
            <stop offset="1" stop-color="#5869DD" />
        </linearGradient>
        <linearGradient id="paint38_linear_4068_13648" x1="7.63885" y1="62.4461" x2="82.5347" y2="17.1535" gradientUnits="userSpaceOnUse">
            <stop stop-color="#D6FFBB" />
            <stop offset="1" stop-color="#5869DD" />
        </linearGradient>
        <linearGradient id="paint39_linear_4068_13648" x1="7.63885" y1="62.4461" x2="82.5347" y2="17.1535" gradientUnits="userSpaceOnUse">
            <stop stop-color="#D6FFBB" />
            <stop offset="1" stop-color="#5869DD" />
        </linearGradient>
        <linearGradient id="paint40_linear_4068_13648" x1="0" y1="47.7148" x2="92.213" y2="47.7148" gradientUnits="userSpaceOnUse">
            <stop stop-color="#D6FFBB" />
            <stop offset="1" stop-color="#5869DD" />
        </linearGradient>
        <linearGradient id="paint41_linear_4068_13648" x1="0" y1="47.7148" x2="92.213" y2="47.7148" gradientUnits="userSpaceOnUse">
            <stop stop-color="#D6FFBB" />
            <stop offset="1" stop-color="#5869DD" />
        </linearGradient>
        <linearGradient id="paint42_linear_4068_13648" x1="0" y1="47.7148" x2="92.213" y2="47.7148" gradientUnits="userSpaceOnUse">
            <stop stop-color="#D6FFBB" />
            <stop offset="1" stop-color="#5869DD" />
        </linearGradient>
        <linearGradient id="paint43_linear_4068_13648" x1="0" y1="47.7148" x2="92.213" y2="47.7148" gradientUnits="userSpaceOnUse">
            <stop stop-color="#D6FFBB" />
            <stop offset="1" stop-color="#5869DD" />
        </linearGradient>
        <linearGradient id="paint44_linear_4068_13648" x1="0" y1="47.7148" x2="92.213" y2="47.7148" gradientUnits="userSpaceOnUse">
            <stop stop-color="#D6FFBB" />
            <stop offset="1" stop-color="#5869DD" />
        </linearGradient>
        <linearGradient id="paint45_linear_4068_13648" x1="7.63885" y1="62.4461" x2="82.5347" y2="17.1535" gradientUnits="userSpaceOnUse">
            <stop stop-color="#D6FFBB" />
            <stop offset="1" stop-color="#5869DD" />
        </linearGradient>
        <linearGradient id="paint46_linear_4068_13648" x1="7.63885" y1="62.4461" x2="82.5347" y2="17.1535" gradientUnits="userSpaceOnUse">
            <stop stop-color="#D6FFBB" />
            <stop offset="1" stop-color="#5869DD" />
        </linearGradient>
        <linearGradient id="paint47_linear_4068_13648" x1="0" y1="47.7148" x2="92.213" y2="47.7148" gradientUnits="userSpaceOnUse">
            <stop stop-color="#D6FFBB" />
            <stop offset="1" stop-color="#5869DD" />
        </linearGradient>
        <linearGradient id="paint48_linear_4068_13648" x1="0" y1="47.7148" x2="92.213" y2="47.7148" gradientUnits="userSpaceOnUse">
            <stop stop-color="#D6FFBB" />
            <stop offset="1" stop-color="#5869DD" />
        </linearGradient>
        <linearGradient id="paint49_linear_4068_13648" x1="0" y1="47.7148" x2="92.213" y2="47.7148" gradientUnits="userSpaceOnUse">
            <stop stop-color="#D6FFBB" />
            <stop offset="1" stop-color="#5869DD" />
        </linearGradient>
        <linearGradient id="paint50_linear_4068_13648" x1="0" y1="47.7148" x2="92.213" y2="47.7148" gradientUnits="userSpaceOnUse">
            <stop stop-color="#D6FFBB" />
            <stop offset="1" stop-color="#5869DD" />
        </linearGradient>
        <linearGradient id="paint51_linear_4068_13648" x1="0" y1="47.7148" x2="92.213" y2="47.7148" gradientUnits="userSpaceOnUse">
            <stop stop-color="#D6FFBB" />
            <stop offset="1" stop-color="#5869DD" />
        </linearGradient>
        <linearGradient id="paint52_linear_4068_13648" x1="7.63885" y1="62.4461" x2="82.5347" y2="17.1535" gradientUnits="userSpaceOnUse">
            <stop stop-color="#D6FFBB" />
            <stop offset="1" stop-color="#5869DD" />
        </linearGradient>
        <linearGradient id="paint53_linear_4068_13648" x1="7.63885" y1="62.4461" x2="82.5347" y2="17.1535" gradientUnits="userSpaceOnUse">
            <stop stop-color="#D6FFBB" />
            <stop offset="1" stop-color="#5869DD" />
        </linearGradient>
        <linearGradient id="paint54_linear_4068_13648" x1="0" y1="47.7148" x2="92.213" y2="47.7148" gradientUnits="userSpaceOnUse">
            <stop stop-color="#D6FFBB" />
            <stop offset="1" stop-color="#5869DD" />
        </linearGradient>
        <linearGradient id="paint55_linear_4068_13648" x1="0" y1="47.7148" x2="92.213" y2="47.7148" gradientUnits="userSpaceOnUse">
            <stop stop-color="#D6FFBB" />
            <stop offset="1" stop-color="#5869DD" />
        </linearGradient>
        <linearGradient id="paint56_linear_4068_13648" x1="0" y1="47.7148" x2="92.213" y2="47.7148" gradientUnits="userSpaceOnUse">
            <stop stop-color="#D6FFBB" />
            <stop offset="1" stop-color="#5869DD" />
        </linearGradient>
        <linearGradient id="paint57_linear_4068_13648" x1="0" y1="47.7148" x2="92.213" y2="47.7148" gradientUnits="userSpaceOnUse">
            <stop stop-color="#D6FFBB" />
            <stop offset="1" stop-color="#5869DD" />
        </linearGradient>
        <linearGradient id="paint58_linear_4068_13648" x1="0" y1="47.7148" x2="92.213" y2="47.7148" gradientUnits="userSpaceOnUse">
            <stop stop-color="#D6FFBB" />
            <stop offset="1" stop-color="#5869DD" />
        </linearGradient>
        <linearGradient id="paint59_linear_4068_13648" x1="7.63885" y1="62.4461" x2="82.5347" y2="17.1535" gradientUnits="userSpaceOnUse">
            <stop stop-color="#D6FFBB" />
            <stop offset="1" stop-color="#5869DD" />
        </linearGradient>
        <linearGradient id="paint60_linear_4068_13648" x1="7.63885" y1="62.4461" x2="82.5347" y2="17.1535" gradientUnits="userSpaceOnUse">
            <stop stop-color="#D6FFBB" />
            <stop offset="1" stop-color="#5869DD" />
        </linearGradient>
        <linearGradient id="paint61_linear_4068_13648" x1="0" y1="47.7148" x2="92.213" y2="47.7148" gradientUnits="userSpaceOnUse">
            <stop stop-color="#D6FFBB" />
            <stop offset="1" stop-color="#5869DD" />
        </linearGradient>
        <linearGradient id="paint62_linear_4068_13648" x1="0" y1="47.7148" x2="92.213" y2="47.7148" gradientUnits="userSpaceOnUse">
            <stop stop-color="#D6FFBB" />
            <stop offset="1" stop-color="#5869DD" />
        </linearGradient>
        <linearGradient id="paint63_linear_4068_13648" x1="0" y1="47.7148" x2="92.213" y2="47.7148" gradientUnits="userSpaceOnUse">
            <stop stop-color="#D6FFBB" />
            <stop offset="1" stop-color="#5869DD" />
        </linearGradient>
        <linearGradient id="paint64_linear_4068_13648" x1="0" y1="47.7148" x2="92.213" y2="47.7148" gradientUnits="userSpaceOnUse">
            <stop stop-color="#D6FFBB" />
            <stop offset="1" stop-color="#5869DD" />
        </linearGradient>
        <linearGradient id="paint65_linear_4068_13648" x1="0" y1="47.7148" x2="92.213" y2="47.7148" gradientUnits="userSpaceOnUse">
            <stop stop-color="#D6FFBB" />
            <stop offset="1" stop-color="#5869DD" />
        </linearGradient>
        <linearGradient id="paint66_linear_4068_13648" x1="7.63885" y1="62.4461" x2="82.5347" y2="17.1535" gradientUnits="userSpaceOnUse">
            <stop stop-color="#D6FFBB" />
            <stop offset="1" stop-color="#5869DD" />
        </linearGradient>
        <linearGradient id="paint67_linear_4068_13648" x1="7.63885" y1="62.4461" x2="82.5347" y2="17.1535" gradientUnits="userSpaceOnUse">
            <stop stop-color="#D6FFBB" />
            <stop offset="1" stop-color="#5869DD" />
        </linearGradient>
        <linearGradient id="paint68_linear_4068_13648" x1="7.63885" y1="62.4461" x2="82.5347" y2="17.1535" gradientUnits="userSpaceOnUse">
            <stop stop-color="#D6FFBB" />
            <stop offset="1" stop-color="#5869DD" />
        </linearGradient>
        <linearGradient id="paint69_linear_4068_13648" x1="0" y1="47.7148" x2="92.213" y2="47.7148" gradientUnits="userSpaceOnUse">
            <stop stop-color="#D6FFBB" />
            <stop offset="1" stop-color="#5869DD" />
        </linearGradient>
        <linearGradient id="paint70_linear_4068_13648" x1="0" y1="47.7148" x2="92.213" y2="47.7148" gradientUnits="userSpaceOnUse">
            <stop stop-color="#D6FFBB" />
            <stop offset="1" stop-color="#5869DD" />
        </linearGradient>
        <linearGradient id="paint71_linear_4068_13648" x1="0" y1="47.7148" x2="92.213" y2="47.7148" gradientUnits="userSpaceOnUse">
            <stop stop-color="#D6FFBB" />
            <stop offset="1" stop-color="#5869DD" />
        </linearGradient>
        <linearGradient id="paint72_linear_4068_13648" x1="0" y1="47.7148" x2="92.213" y2="47.7148" gradientUnits="userSpaceOnUse">
            <stop stop-color="#D6FFBB" />
            <stop offset="1" stop-color="#5869DD" />
        </linearGradient>
        <linearGradient id="paint73_linear_4068_13648" x1="0" y1="47.7148" x2="92.213" y2="47.7148" gradientUnits="userSpaceOnUse">
            <stop stop-color="#D6FFBB" />
            <stop offset="1" stop-color="#5869DD" />
        </linearGradient>
        <linearGradient id="paint74_linear_4068_13648" x1="7.63885" y1="62.4461" x2="82.5347" y2="17.1535" gradientUnits="userSpaceOnUse">
            <stop stop-color="#D6FFBB" />
            <stop offset="1" stop-color="#5869DD" />
        </linearGradient>
        <linearGradient id="paint75_linear_4068_13648" x1="7.63885" y1="62.4461" x2="82.5347" y2="17.1535" gradientUnits="userSpaceOnUse">
            <stop stop-color="#D6FFBB" />
            <stop offset="1" stop-color="#5869DD" />
        </linearGradient>
        <linearGradient id="paint76_linear_4068_13648" x1="7.63885" y1="62.4461" x2="82.5347" y2="17.1535" gradientUnits="userSpaceOnUse">
            <stop stop-color="#D6FFBB" />
            <stop offset="1" stop-color="#5869DD" />
        </linearGradient>
        <linearGradient id="paint77_linear_4068_13648" x1="0" y1="47.7148" x2="92.213" y2="47.7148" gradientUnits="userSpaceOnUse">
            <stop stop-color="#D6FFBB" />
            <stop offset="1" stop-color="#5869DD" />
        </linearGradient>
        <linearGradient id="paint78_linear_4068_13648" x1="0" y1="47.7148" x2="92.213" y2="47.7148" gradientUnits="userSpaceOnUse">
            <stop stop-color="#D6FFBB" />
            <stop offset="1" stop-color="#5869DD" />
        </linearGradient>
        <linearGradient id="paint79_linear_4068_13648" x1="0" y1="47.7148" x2="92.213" y2="47.7148" gradientUnits="userSpaceOnUse">
            <stop stop-color="#D6FFBB" />
            <stop offset="1" stop-color="#5869DD" />
        </linearGradient>
        <linearGradient id="paint80_linear_4068_13648" x1="0" y1="47.7148" x2="92.213" y2="47.7148" gradientUnits="userSpaceOnUse">
            <stop stop-color="#D6FFBB" />
            <stop offset="1" stop-color="#5869DD" />
        </linearGradient>
        <linearGradient id="paint81_linear_4068_13648" x1="0" y1="47.7148" x2="92.213" y2="47.7148" gradientUnits="userSpaceOnUse">
            <stop stop-color="#D6FFBB" />
            <stop offset="1" stop-color="#5869DD" />
        </linearGradient>
        <linearGradient id="paint82_linear_4068_13648" x1="0" y1="47.7148" x2="92.213" y2="47.7148" gradientUnits="userSpaceOnUse">
            <stop stop-color="#D6FFBB" />
            <stop offset="1" stop-color="#5869DD" />
        </linearGradient>
        <linearGradient id="paint83_linear_4068_13648" x1="0" y1="47.7148" x2="92.213" y2="47.7148" gradientUnits="userSpaceOnUse">
            <stop stop-color="#D6FFBB" />
            <stop offset="1" stop-color="#5869DD" />
        </linearGradient>
        <linearGradient id="paint84_linear_4068_13648" x1="7.63885" y1="62.4461" x2="82.5347" y2="17.1535" gradientUnits="userSpaceOnUse">
            <stop stop-color="#D6FFBB" />
            <stop offset="1" stop-color="#5869DD" />
        </linearGradient>
        <linearGradient id="paint85_linear_4068_13648" x1="7.63885" y1="62.4461" x2="82.5347" y2="17.1535" gradientUnits="userSpaceOnUse">
            <stop stop-color="#D6FFBB" />
            <stop offset="1" stop-color="#5869DD" />
        </linearGradient>
        <linearGradient id="paint86_linear_4068_13648" x1="0" y1="47.7148" x2="92.213" y2="47.7148" gradientUnits="userSpaceOnUse">
            <stop stop-color="#D6FFBB" />
            <stop offset="1" stop-color="#5869DD" />
        </linearGradient>
        <linearGradient id="paint87_linear_4068_13648" x1="0" y1="47.7148" x2="92.213" y2="47.7148" gradientUnits="userSpaceOnUse">
            <stop stop-color="#D6FFBB" />
            <stop offset="1" stop-color="#5869DD" />
        </linearGradient>
        <linearGradient id="paint88_linear_4068_13648" x1="0" y1="47.7148" x2="92.213" y2="47.7148" gradientUnits="userSpaceOnUse">
            <stop stop-color="#D6FFBB" />
            <stop offset="1" stop-color="#5869DD" />
        </linearGradient>
        <linearGradient id="paint89_linear_4068_13648" x1="0" y1="47.7148" x2="92.213" y2="47.7148" gradientUnits="userSpaceOnUse">
            <stop stop-color="#D6FFBB" />
            <stop offset="1" stop-color="#5869DD" />
        </linearGradient>
        <linearGradient id="paint90_linear_4068_13648" x1="0" y1="47.7148" x2="92.213" y2="47.7148" gradientUnits="userSpaceOnUse">
            <stop stop-color="#D6FFBB" />
            <stop offset="1" stop-color="#5869DD" />
        </linearGradient>
        <linearGradient id="paint91_linear_4068_13648" x1="0" y1="47.7148" x2="92.213" y2="47.7148" gradientUnits="userSpaceOnUse">
            <stop stop-color="#D6FFBB" />
            <stop offset="1" stop-color="#5869DD" />
        </linearGradient>
        <linearGradient id="paint92_linear_4068_13648" x1="0" y1="47.7148" x2="92.213" y2="47.7148" gradientUnits="userSpaceOnUse">
            <stop stop-color="#D6FFBB" />
            <stop offset="1" stop-color="#5869DD" />
        </linearGradient>
        <linearGradient id="paint93_linear_4068_13648" x1="0" y1="47.7148" x2="92.213" y2="47.7148" gradientUnits="userSpaceOnUse">
            <stop stop-color="#D6FFBB" />
            <stop offset="1" stop-color="#5869DD" />
        </linearGradient>
        <linearGradient id="paint94_linear_4068_13648" x1="7.63885" y1="62.4461" x2="82.5347" y2="17.1535" gradientUnits="userSpaceOnUse">
            <stop stop-color="#D6FFBB" />
            <stop offset="1" stop-color="#5869DD" />
        </linearGradient>
    </defs>
</svg>
