<svg xmlns="http://www.w3.org/2000/svg" width="1446" height="155" fill="none" viewBox="0 0 1446 155">
  <path stroke="url(#a)" stroke-width="2" d="M6.5 77.5H30m0 0V62m0 15.5v18M30 62H0m30 0h37.5M30 116.25H0m30 0h16.5m-16.5 0V95.5m0 20.75v19.375m16.5-19.375V104.5h-8v-9H30m16.5 20.75h14m0 0V95.5h7v-21m-7 41.75h25m-25 0V139H52v16m15.5-80.5V62m0 12.5h7v3h11M67.5 62h18m0 15.5V62m0 15.5v18m0-33.5h43m-43 54.25V155m0-38.75h31m-31 0V95.5M30 135.625V155m0-19.375H10.5V130m134-13.75V80m0 36.25v19.375m0-19.375h-16m16 0h16M144.5 80h-16m16 0h16m-32 0V62m0 18v15.5h-12v10.375M128.5 62h32m-44 54.25v-10.375m0 10.375h12m-12-10.375h-18V95.5h-13m59 40.125V155m0-19.375h-16m16 0h16m-32 0V116.25m0 19.375h-12V155M608 77.5h-23.5v27H578m30-27V62m0 15.5v18m0-33.5h-30m30 0h37.5M608 116.25h-30m30 0h16.5m-16.5 0V95.5m0 20.75v19.375m-30-19.375h-30m30 0V104.5m46.5 11.75V104.5h-8v-9H608m16.5 20.75h14m0 0V95.5h7v-21m-7 41.75h25m-25 0V139H630v16m15.5-80.5V62m0 12.5h7v3h11m-18-15.5h18m0 15.5V62m0 15.5v18m0-33.5h43m-43 54.25V155m0-38.75h31m-31 0V95.5M608 135.625V155m0-19.375h-19.5V130m134-13.75V80m0 36.25v19.375m0-19.375h-16m16 0h16M722.5 80h-16m16 0h16m-32 0V62m0 18v15.5h-12v10.375M706.5 62h32m-44 54.25v-10.375m0 10.375h12m-12-10.375h-18V95.5h-13m59 40.125V155m0-19.375h-16m16 0h16m-32 0V116.25m0 19.375h-12V155M578 62h-30m30 0v42.5m0 0h-15.5v-9H548m638-18h-23.5v27h-6.5m30-27V62m0 15.5v18m0-33.5h-30m30 0h37.5m-37.5 54.25h-30m30 0h16.5m-16.5 0V95.5m0 20.75v19.375m-30-19.375h-30m30 0V104.5m46.5 11.75V104.5h-8v-9h-8.5m16.5 20.75h14m0 0V95.5h7v-21m-7 41.75h25m-25 0V139h-8.5v16m15.5-80.5V62m0 12.5h7v3h11m-18-15.5h18m0 15.5V62m0 15.5v18m0-33.5h43m-43 54.25V155m0-38.75h31m-31 0V95.5m-55.5 40.125V155m0-19.375h-19.5V130m134-13.75V80m0 36.25v19.375m0-19.375h-16m16 0h16m-16-36.25h-16m16 0h16m-32 0V62m0 18v15.5h-12v10.375m12-43.875h32m-44 54.25v-10.375m0 10.375h12m-12-10.375h-18V95.5h-13m59 40.125V155m0-19.375h-16m16 0h16m-32 0V116.25m0 19.375h-12V155M1156 62h-30m30 0v42.5m0 0h-15.5v-9H1126M259 62h30m-30 0h-37.5m37.5 0v33.5m0 20.75h30m-30 0h-16.5m16.5 0V95.5m0 20.75v19.375m30-19.375V104.5m0 11.75V80h16m-16 36.25v19.375m0-19.375h16m-62.5 0V104.5h8v-9h8.5m-16.5 20.75h-14M259 95.5h14.5v9H289m-60.5 11.75V95.5h-7v-21m7 41.75h-25m25 0V139h8.5v16m-15.5-80.5V62m0 12.5h-7v3h-11m18-15.5h-18m0 15.5V62m0 15.5v18m0-33.5h-43m43 54.25V155m0-38.75h-31m31 0V95.5m55.5 40.125V155m0-19.375h19.5V146m-118-66V62m0 18v15.5h12v10.375m0 10.375v-10.375m0 10.375h-12m12-10.375h18V95.5h13m-43 40.125V116.25m0 19.375h12V155M289 62v42.5m0-42.5h16m532 0h30m-30 0h-37.5m37.5 0v33.5m0 20.75h30m-30 0h-16.5m16.5 0V95.5m0 20.75v19.375m30-19.375V104.5m0 11.75V80h16m-16 36.25v19.375m0-19.375h16m-62.5 0V104.5h8v-9h8.5m-16.5 20.75h-14M837 95.5h14.5v9H867m-60.5 11.75V95.5h-7v-21m7 41.75h-25m25 0V139h8.5v16m-15.5-80.5V62m0 12.5h-7v3h-11m18-15.5h-18m0 15.5V62m0 15.5v18m0-33.5h-43m43 54.25V155m0-38.75h-31m31 0V95.5m55.5 40.125V155m0-19.375h19.5V146m-118-66V62m0 18v15.5h12v10.375m0 10.375v-10.375m0 10.375h-12m12-10.375h18V95.5h13m-43 40.125V116.25m0 19.375h12V155M867 62v42.5m0-42.5h16m532 0h30v42.5M1415 62h-37.5m37.5 0v33.5m0 20.75h30V104.5m-30 11.75h-16.5m16.5 0V95.5m0 20.75v19.375m-16.5-19.375V104.5h8v-9h8.5m-16.5 20.75h-14M1415 95.5h14.5v9h15.5m-60.5 11.75V95.5h-7v-21m7 41.75h-25m25 0V139h8.5v16m-15.5-80.5V62m0 12.5h-7v3h-11m18-15.5h-18m0 15.5V62m0 15.5v18m0-33.5h-43m43 54.25V155m0-38.75h-31m31 0V95.5m55.5 40.125V155m0-19.375h19.5V146m-118-66V62m0 18v15.5h12v10.375m0 10.375v-10.375m0 10.375h-12m12-10.375h18V95.5h13m-43 40.125V116.25m0 19.375h12V155m-925-93h30m-30 0H366m37.5 0v33.5m0 20.75h30m-30 0H387m16.5 0V95.5m0 20.75v19.375m30-19.375V104.5m0 11.75V80h16m-16 36.25v19.375m0-19.375h16m-62.5 0V104.5h8v-9h8.5M387 116.25h-14m30.5-20.75H418v9h15.5M373 116.25V95.5h-7v-21m7 41.75h-25m25 0V139h8.5v16M366 74.5V62m0 12.5h-7v3h-11M366 62h-18m0 15.5V62m0 15.5v18m0-33.5h-43m43 54.25V155m0-38.75h-31m31 0V95.5m55.5 40.125V155m0-19.375H423V146M305 80V62m0 18v15.5h12v10.375m0 10.375v-10.375m0 10.375h-12m12-10.375h18V95.5h13m-59 40.125V155m0-19.375h16m0 0V116.25m0 19.375h12V155m116.5-93v42.5m0-42.5h16m532 0h30m-30 0H944m37.5 0v33.5m0 20.75h30m-30 0H965m16.5 0V95.5m0 20.75v19.375m30-19.375V104.5m0 11.75V80h16m-16 36.25v19.375m0-19.375h16m-62.5 0V104.5h8v-9h8.5M965 116.25h-14m30.5-20.75H996v9h15.5M951 116.25V95.5h-7v-21m7 41.75h-25m25 0V139h8.5v16M944 74.5V62m0 12.5h-7v3h-11M944 62h-18m0 15.5V62m0 15.5v18m0-33.5h-43m43 54.25V155m0-38.75h-31m31 0V95.5m55.5 40.125V155m0-19.375h19.5V146M883 80V62m0 18v15.5h12v10.375m0 10.375v-10.375m0 10.375h-12m12-10.375h18V95.5h13m-59 40.125V155m0-19.375h16m0 0V116.25m0 19.375h12V155m116.5-93v42.5m0-42.5h16M548 62h-37.5m37.5 0v33.5m0 20.75h-16.5m16.5 0V95.5m0 20.75v19.375m-16.5-19.375V104.5h8v-9h8.5m-16.5 20.75h-14m0 0V95.5h-7v-21m7 41.75h-25m25 0V139h8.5v16m-15.5-80.5V62m0 12.5h-7v3h-11m18-15.5h-18m0 15.5V62m0 15.5v18m0-33.5h-43m43 54.25V155m0-38.75h-31m31 0V95.5m55.5 40.125V155m0-19.375h19.5V146m-118-66V62m0 18v15.5h12v10.375m0 10.375v-10.375m0 10.375h-12m12-10.375h18V95.5h13m-59 40.125V155m0-19.375h16m0 0V116.25m0 19.375h12V155M1126 62h-37.5m37.5 0v33.5m0 20.75h-16.5m16.5 0V95.5m0 20.75v19.375m-16.5-19.375V104.5h8v-9h8.5m-16.5 20.75h-14m0 0V95.5h-7v-21m7 41.75h-25m25 0V139h8.5v16m-15.5-80.5V62m0 12.5h-7v3h-11m18-15.5h-18m0 15.5V62m0 15.5v18m0-33.5h-43m43 54.25V155m0-38.75h-31m31 0V95.5m55.5 40.125V155m0-19.375h19.5V146m-118-66V62m0 18v15.5h12v10.375m0 10.375v-10.375m0 10.375h-12m12-10.375h18V95.5h13m-59 40.125V155m0-19.375h16m0 0V116.25m0 19.375h12V155"/>
  <g clip-path="url(#b)">
    <path stroke="#000" stroke-width="2" d="M-36 62h1550"/>
    <path fill="#5869DD" d="M581 60.5h-70V19h3.75v-7H518V5.5h3V9h3V5.5h3.75V3H532v-4h8V.75h6.75V5.5h3.5V9h6.25v5.25l2 1.25v5h3.75v2H567V24h7v2.5h3v4h4v3h2.25V37h3.5v9.25h-3.5V50H581v10.5Z"/>
    <path stroke="#000" stroke-width="2" d="M527.75 19H532v-3.5m17 11h-2.25v-4m0 0H540m6.75 0V19m-19 41.5H581V50h2.25v-3.75h3.5V37h-3.5v-3.5H581v-3h-4v-4h-3V24h-7v-1.5h-4.75v-2h-3.75v-5l-2-1.25V9h-6.25V5.5h-3.5V.75H540V-1h-8v4h-4.25v2.5H524V9h-3V5.5h-3V12h-3.25v7H511v41.5h16.75Z"/>
    <path fill="url(#c)" d="M401 51v11h139.25V49H543v-4h2.5v-4h3.5v-5.5h-11V41h-3.5V27h-6v5.5H523v-8h-4v-7h-4.5V9H509v3.5h-4v-6h-5V1h-15v5.5h-6v11h-4.5V27H468V12.5h-9.5v-6H451V1h-15v5.5h-5v6h-7V22h-5.5v5H406v5.5h-2.5V38H393v7h3v6h5Z"/>
    <path stroke="#000" stroke-width="2" d="M434 27v-3.75h3.25m0 0v-3m0 3h3.5M451 16v4.25h3.5M501 17.5v2.75h3.75v3h3M492 22h-7v3m-84 37V51h-5v-6h-3v-7h10.5v-5.5h2.5V27h12.5v-5h5.5v-9.5h7v-6h5V1h15v5.5h7.5v6h9.5V27h6.5v-9.5h4.5v-11h6V1h15v5.5h5v6h4V9h5.5v8.5h4.5v7h4v8h5.5V27h6v14h3.5v-5.5h11V41h-3.5v4H543v4h-2.75v13H401Z"/>
    <path fill="url(#d)" d="M1438 61.5h-70V20h3.75v-7h3.25V6.5h3V10h3V6.5h3.75V4h4.25V0h8v1.75h6.75V6.5h3.5V10h6.25v5.25l2 1.25v5h3.75v2h4.75V25h7v2.5h3v4h4v3h2.25V38h3.5v9.25h-3.5V51H1438v10.5Z"/>
    <path stroke="#000" stroke-width="2" d="M1384.75 20h4.25v-3.5m17 11h-2.25v-4m0 0H1397m6.75 0V20m-19 41.5H1438V51h2.25v-3.75h3.5V38h-3.5v-3.5H1438v-3h-4v-4h-3V25h-7v-1.5h-4.75v-2h-3.75v-5l-2-1.25V10h-6.25V6.5h-3.5V1.75H1397V0h-8v4h-4.25v2.5H1381V10h-3V6.5h-3V13h-3.25v7H1368v41.5h16.75Z"/>
    <path fill="#5869DD" d="M1258 50v11h139.25V48h2.75v-4h2.5v-4h3.5v-5.5h-11V40h-3.5V26h-6v5.5h-5.5v-8h-4v-7h-4.5V8h-5.5v3.5h-4v-6h-5V0h-15v5.5h-6v11h-4.5V26h-6.5V11.5h-9.5v-6h-7.5V0h-15v5.5h-5v6h-7V21h-5.5v5H1263v5.5h-2.5V37H1250v7h3v6h5Z"/>
    <path stroke="#000" stroke-width="2" d="M1291 26v-3.75h3.25m0 0v-3m0 3h3.5M1308 15v4.25h3.5m46.5-2.75v2.75h3.75v3h3M1349 21h-7v3m-84 37V50h-5v-6h-3v-7h10.5v-5.5h2.5V26h12.5v-5h5.5v-9.5h7v-6h5V0h15v5.5h7.5v6h9.5V26h6.5v-9.5h4.5v-11h6V0h15v5.5h5v6h4V8h5.5v8.5h4.5v7h4v8h5.5V26h6v14h3.5v-5.5h11V40h-3.5v4h-2.5v4h-2.75v13H1258Z"/>
  </g>
  <defs>
    <linearGradient id="a" x1="722.5" x2="722.5" y1="62" y2="155" gradientUnits="userSpaceOnUse">
      <stop stop-color="#8F8E93"/>
      <stop offset="1" stop-color="#F1EFED"/>
    </linearGradient>
    <linearGradient id="c" x1="419.456" x2="553.12" y1="112.051" y2="-27.361" gradientUnits="userSpaceOnUse">
      <stop stop-color="#5869DD"/>
      <stop offset="1" stop-color="#D6FFBB"/>
    </linearGradient>
    <linearGradient id="d" x1="1436" x2="1391.87" y1="-15.5" y2="80.162" gradientUnits="userSpaceOnUse">
      <stop stop-color="#D6FFBB"/>
      <stop offset="1" stop-color="#5869DD"/>
    </linearGradient>
    <clipPath id="b">
      <path fill="#fff" d="M0 0h1443v62H0z" transform="translate(1)"/>
    </clipPath>
  </defs>
</svg>
