<svg width="1706" height="492" viewBox="0 0 1706 492" fill="none" xmlns="http://www.w3.org/2000/svg">
<path fill-rule="evenodd" clip-rule="evenodd" d="M1516.2 4.07051L1414.5 114.209V130.035V133.035H1411.5H1327V127.035H1408.5V113.035V111.862L1409.3 111L1511.8 0L1516.2 4.07051ZM1445.87 139.785H1511.5V44.7852H1494.5L1423.46 120.357V139.785H1445.87ZM1327 293.509H1394V259.786H1327V283.874V293.509ZM1389.77 375.785H1339.21H1305.5V356.357H1339.21V307.785H1389.77V375.785ZM1423.46 392.647H1406.78V383.012V358.924H1423.46V392.647ZM1535 463.285H1468V456.357V439.035H1535V463.285ZM1574 307.285H1406V331.285H1574V307.285ZM1561 259.785H1675V275.285H1561V259.785ZM1356.73 420.535H1333.73V436.035H1356.73V420.535ZM1406 259.785H1531V282.285H1406V259.785ZM1577 160.285H1330V177.285H1577H1580V180.285V197.285V200.285H1577H1330V213.285H1577H1580V216.285V234.285V237.285H1577H1327V231.285H1574V219.285H1327H1324V216.285V197.285V194.285H1327H1574V183.285H1327H1324V180.285V157.285V154.285H1327H1577V160.285ZM1543 259.785V293.285V296.285H1540H1404V290.285H1537V259.785H1543ZM1327 251.285H1577V245.285H1327V251.285ZM1654 346.785H1404V340.785H1654V346.785ZM1459 407.285V413.301H1706V419.301H1459V424.785H1550.5V430.785H1459V449.285V452.285V460.285V463.285H1456H1327V457.285H1453V452.285H1327V446.285H1453V427.785V424.785V404.285V401.285H1456H1550.5V407.285H1459ZM1507 375.785H1452V369.785H1507V375.785ZM1452 389.785H1507V383.785H1452V389.785ZM1420.09 419.785H1448.63L1434.54 436.785H1406L1420.09 419.785ZM1398.69 421.856C1398.77 421.846 1398.86 421.844 1398.94 421.849L1399.2 421.865C1399.28 421.87 1399.36 421.882 1399.44 421.9L1399.7 421.959C1399.78 421.976 1399.85 421.999 1399.92 422.027L1400.18 422.13C1400.21 422.142 1400.24 422.156 1400.27 422.171C1400.3 422.185 1400.33 422.2 1400.36 422.215L1400.62 422.36C1400.66 422.388 1400.71 422.418 1400.76 422.451L1401.02 422.636C1401.05 422.664 1401.09 422.693 1401.13 422.723L1401.38 422.948C1401.41 422.973 1401.44 423 1401.47 423.027L1401.73 423.289C1401.75 423.311 1401.77 423.334 1401.79 423.358L1402.05 423.655C1402.06 423.674 1402.08 423.694 1402.1 423.714L1402.35 424.044L1402.37 424.06C1402.37 424.071 1402.38 424.082 1402.39 424.093L1402.65 424.452C1402.66 424.465 1402.67 424.479 1402.68 424.493L1402.94 424.878C1402.94 424.889 1402.95 424.9 1402.96 424.911L1403.22 425.319L1403.22 425.333L1403.23 425.346L1403.49 425.773L1403.5 425.793L1403.76 426.236L1403.77 426.25L1404.03 426.704L1404.03 426.714L1404.29 427.175L1404.29 427.179L1404.55 427.643L1404.55 427.644L1404.8 428.102L1404.81 428.108L1405.06 428.55L1405.06 428.561L1405.31 428.992L1405.56 429.41L1405.8 429.805L1406.04 430.173L1406.27 430.509L1406.51 430.836C1407 431.502 1406.86 432.441 1406.2 432.934C1405.53 433.427 1404.59 433.288 1404.1 432.622L1403.84 432.273L1403.83 432.253L1403.81 432.23L1403.55 431.854C1403.54 431.842 1403.53 431.83 1403.53 431.818L1403.27 431.418L1403.26 431.401L1403.25 431.389L1402.99 430.969L1402.98 430.946L1402.72 430.509L1402.71 430.492L1402.45 430.042L1402.45 430.031L1402.19 429.571L1402.19 429.566L1401.93 429.101L1401.93 429.1L1401.67 428.639L1401.67 428.635L1401.42 428.187L1401.41 428.177L1401.16 427.74L1400.92 427.314L1400.67 426.91L1400.43 426.531L1400.2 426.183L1399.97 425.869L1399.76 425.593L1399.55 425.36L1399.37 425.172L1399.21 425.031L1399.08 424.936L1398.98 424.881L1398.92 424.858L1398.89 424.852L1398.89 424.852L1398.88 424.853L1398.84 424.862L1398.77 424.893L1398.66 424.959L1398.52 425.067L1398.35 425.222L1398.16 425.424L1397.96 425.669L1397.74 425.957L1397.51 426.281L1397.27 426.639L1397.03 427.025L1396.79 427.436L1396.54 427.867L1396.29 428.31L1396.28 428.317L1396.03 428.77L1396.03 428.773L1395.77 429.235L1395.77 429.238L1395.51 429.701L1395.51 429.709L1395.25 430.166L1395.24 430.178L1394.99 430.625L1394.98 430.644L1394.72 431.076L1394.7 431.101L1394.44 431.516L1394.44 431.528L1394.42 431.546L1394.17 431.94C1394.16 431.952 1394.15 431.965 1394.14 431.978L1393.88 432.346C1393.87 432.362 1393.86 432.377 1393.85 432.392L1393.59 432.732C1393.58 432.751 1393.56 432.769 1393.55 432.787L1393.29 433.096C1393.28 433.106 1393.27 433.116 1393.26 433.126C1393.25 433.138 1393.24 433.15 1393.23 433.161L1392.97 433.435C1392.96 433.447 1392.95 433.459 1392.94 433.471C1392.92 433.484 1392.91 433.498 1392.9 433.511L1392.64 433.749C1392.61 433.778 1392.57 433.806 1392.54 433.833L1392.28 434.032C1392.25 434.051 1392.23 434.07 1392.2 434.087C1392.18 434.099 1392.17 434.111 1392.15 434.122L1391.89 434.281C1391.86 434.298 1391.83 434.315 1391.8 434.331C1391.78 434.344 1391.75 434.357 1391.72 434.369L1391.46 434.486C1391.4 434.516 1391.33 434.541 1391.26 434.561L1391 434.635C1390.97 434.644 1390.94 434.651 1390.91 434.658C1390.88 434.664 1390.85 434.669 1390.83 434.674C1390.8 434.677 1390.78 434.68 1390.76 434.683L1390.5 434.713C1390.42 434.723 1390.34 434.725 1390.25 434.721L1389.99 434.707C1389.95 434.705 1389.91 434.701 1389.86 434.695C1389.84 434.692 1389.82 434.688 1389.8 434.684C1389.78 434.681 1389.76 434.677 1389.75 434.673L1389.49 434.616C1389.41 434.599 1389.34 434.577 1389.27 434.549L1389.01 434.449C1388.95 434.424 1388.89 434.396 1388.83 434.364L1388.57 434.221C1388.56 434.213 1388.55 434.206 1388.53 434.198C1388.5 434.177 1388.46 434.154 1388.43 434.13L1388.17 433.946C1388.13 433.919 1388.09 433.889 1388.06 433.859L1387.8 433.635C1387.79 433.624 1387.78 433.613 1387.76 433.602C1387.75 433.587 1387.73 433.572 1387.72 433.556L1387.46 433.296C1387.44 433.273 1387.41 433.25 1387.39 433.226L1387.14 432.931C1387.12 432.911 1387.1 432.892 1387.09 432.871L1386.83 432.543L1386.82 432.533C1386.81 432.52 1386.8 432.507 1386.79 432.493L1386.53 432.136C1386.52 432.122 1386.51 432.108 1386.5 432.094L1386.25 431.71C1386.24 431.699 1386.23 431.688 1386.22 431.677L1385.97 431.27L1385.96 431.252L1385.95 431.243L1385.69 430.816L1385.68 430.796L1385.42 430.354L1385.41 430.339L1385.15 429.885L1385.15 429.876L1384.89 429.414L1384.89 429.41L1384.63 428.946L1384.63 428.945L1384.38 428.487L1384.37 428.482L1384.12 428.033L1383.87 427.595L1383.62 427.177L1383.38 426.781L1383.14 426.412L1382.91 426.074L1382.69 425.773L1382.48 425.511L1382.28 425.292L1382.1 425.12L1381.95 424.994L1381.83 424.913L1381.74 424.871L1381.7 424.855L1381.68 424.852L1381.67 424.852L1381.66 424.854L1381.61 424.87L1381.53 424.911L1381.41 424.99L1381.26 425.114L1381.08 425.284L1380.89 425.501L1380.67 425.761L1380.45 426.061L1380.22 426.397L1379.98 426.764L1379.74 427.159L1379.49 427.577L1379.24 428.014L1378.99 428.462L1378.99 428.465L1378.74 428.925L1378.73 428.926L1378.48 429.391L1378.47 429.395L1378.22 429.856L1378.21 429.865L1377.95 430.32L1377.94 430.334L1377.69 430.777L1377.67 430.797L1377.42 431.224L1377.41 431.237L1377.4 431.251L1377.14 431.659C1377.14 431.67 1377.13 431.681 1377.12 431.692L1376.86 432.077L1376.85 432.098L1376.83 432.118L1376.58 432.477C1376.56 432.494 1376.55 432.51 1376.54 432.526L1376.28 432.856C1376.27 432.866 1376.27 432.875 1376.26 432.885C1376.25 432.895 1376.24 432.905 1376.23 432.915L1375.97 433.212C1375.95 433.235 1375.93 433.258 1375.91 433.281L1375.65 433.543C1375.63 433.57 1375.6 433.596 1375.57 433.622L1375.31 433.847C1375.28 433.877 1375.24 433.906 1375.2 433.933L1374.94 434.119C1374.9 434.152 1374.85 434.182 1374.8 434.21L1374.54 434.355C1374.48 434.387 1374.42 434.416 1374.36 434.44L1374.1 434.543C1374.03 434.571 1373.96 434.593 1373.89 434.61L1373.63 434.67C1373.55 434.688 1373.47 434.7 1373.38 434.705L1373.13 434.72C1373.04 434.726 1372.96 434.723 1372.87 434.714L1372.61 434.686C1372.53 434.677 1372.45 434.662 1372.37 434.64L1372.12 434.568C1372.05 434.548 1371.98 434.523 1371.91 434.494L1371.65 434.379C1371.59 434.353 1371.54 434.323 1371.48 434.29L1371.22 434.134C1371.2 434.119 1371.18 434.104 1371.15 434.088C1371.13 434.074 1371.11 434.059 1371.09 434.043L1370.83 433.846C1370.81 433.832 1370.8 433.817 1370.78 433.802C1370.76 433.789 1370.75 433.775 1370.73 433.761L1370.47 433.525C1370.45 433.501 1370.42 433.475 1370.4 433.449L1370.14 433.176C1370.13 433.164 1370.11 433.151 1370.1 433.138C1370.1 433.129 1370.09 433.12 1370.08 433.111L1369.82 432.804C1369.82 432.796 1369.81 432.788 1369.8 432.78C1369.79 432.769 1369.79 432.759 1369.78 432.748L1369.52 432.409C1369.51 432.394 1369.5 432.378 1369.48 432.363L1369.23 431.996C1369.22 431.989 1369.22 431.982 1369.21 431.975L1369.2 431.957L1368.94 431.565L1368.93 431.552L1368.92 431.534L1368.66 431.12L1368.65 431.095L1368.39 430.663L1368.38 430.645L1368.12 430.198L1368.12 430.185L1367.86 429.728L1367.85 429.721L1367.59 429.258L1367.59 429.255L1367.34 428.792L1367.33 428.79L1367.08 428.333L1366.83 427.885L1366.58 427.454L1366.33 427.042L1366.09 426.654L1365.86 426.295L1365.63 425.97L1365.41 425.681L1365.2 425.433L1365.01 425.23L1364.84 425.073L1364.7 424.963L1364.59 424.895L1364.52 424.863L1364.48 424.853L1364.47 424.852L1364.46 424.852L1364.33 424.882C1363.52 425.062 1362.72 424.552 1362.54 423.744C1362.36 422.935 1362.87 422.134 1363.67 421.954L1363.93 421.896C1364.01 421.878 1364.1 421.867 1364.18 421.863L1364.44 421.849C1364.52 421.845 1364.61 421.847 1364.69 421.857L1364.95 421.887C1365.03 421.897 1365.11 421.913 1365.19 421.935L1365.44 422.008C1365.51 422.029 1365.58 422.054 1365.65 422.084L1365.91 422.2C1365.97 422.226 1366.02 422.256 1366.08 422.289L1366.33 422.448C1366.38 422.475 1366.42 422.505 1366.46 422.538L1366.72 422.737C1366.76 422.763 1366.79 422.792 1366.82 422.821L1367.08 423.059C1367.11 423.083 1367.13 423.108 1367.16 423.134L1367.42 423.409C1367.44 423.43 1367.45 423.452 1367.47 423.474L1367.73 423.782C1367.75 423.8 1367.76 423.819 1367.78 423.838L1368.03 424.178C1368.04 424.185 1368.04 424.192 1368.05 424.199C1368.06 424.207 1368.06 424.215 1368.07 424.224L1368.33 424.592L1368.34 424.611L1368.35 424.63L1368.61 425.024C1368.62 425.034 1368.62 425.044 1368.63 425.054L1368.89 425.469L1368.9 425.493L1369.16 425.926L1369.17 425.944L1369.43 426.392L1369.44 426.404L1369.69 426.861L1369.7 426.869L1369.96 427.332L1369.96 427.334L1370.21 427.797L1370.22 427.8L1370.47 428.256L1370.72 428.703L1370.97 429.134L1371.22 429.545L1371.46 429.931L1371.69 430.289L1371.92 430.613L1372.14 430.9L1372.35 431.146L1372.54 431.348L1372.71 431.503L1372.85 431.611L1372.96 431.676L1373.03 431.708L1373.06 431.717L1373.07 431.718L1373.08 431.718L1373.1 431.712L1373.16 431.689L1373.26 431.634L1373.39 431.539L1373.56 431.398L1373.74 431.21L1373.94 430.976L1374.16 430.701L1374.38 430.387L1374.62 430.039L1374.86 429.66L1375.1 429.256L1375.35 428.83L1375.6 428.388L1375.85 427.935L1375.86 427.931L1376.11 427.47L1376.11 427.469L1376.37 427.004L1376.37 426.998L1376.63 426.539L1376.64 426.528L1376.9 426.078L1376.91 426.061L1377.16 425.624L1377.18 425.601L1377.44 425.181L1377.44 425.17L1377.45 425.152L1377.71 424.752C1377.72 424.744 1377.72 424.737 1377.73 424.729L1377.74 424.716L1377.99 424.34L1378.01 424.32L1378.03 424.296L1378.28 423.948C1378.3 423.93 1378.31 423.913 1378.32 423.895L1378.58 423.577C1378.6 423.556 1378.62 423.535 1378.64 423.515L1378.89 423.231C1378.9 423.221 1378.91 423.212 1378.92 423.203C1378.93 423.187 1378.95 423.173 1378.96 423.158L1379.22 422.91C1379.25 422.881 1379.28 422.854 1379.32 422.827L1379.57 422.617C1379.6 422.597 1379.62 422.578 1379.65 422.56C1379.66 422.549 1379.68 422.538 1379.69 422.528L1379.95 422.357C1380 422.324 1380.06 422.294 1380.11 422.267L1380.37 422.138C1380.43 422.107 1380.5 422.08 1380.56 422.058L1380.82 421.971C1380.9 421.946 1380.97 421.927 1381.05 421.914L1381.31 421.872C1381.39 421.858 1381.48 421.851 1381.56 421.851L1381.82 421.852C1381.9 421.852 1381.99 421.86 1382.07 421.874L1382.33 421.919C1382.4 421.932 1382.48 421.952 1382.55 421.977L1382.81 422.065C1382.88 422.088 1382.94 422.115 1383.01 422.147L1383.26 422.277C1383.3 422.294 1383.33 422.312 1383.36 422.332C1383.38 422.343 1383.4 422.355 1383.42 422.368L1383.68 422.54C1383.7 422.556 1383.72 422.573 1383.75 422.59C1383.76 422.603 1383.78 422.616 1383.8 422.629L1384.05 422.841C1384.07 422.856 1384.09 422.871 1384.11 422.886C1384.12 422.898 1384.13 422.91 1384.15 422.923L1384.4 423.173C1384.42 423.186 1384.43 423.2 1384.45 423.215C1384.46 423.225 1384.47 423.235 1384.47 423.245L1384.73 423.531C1384.75 423.551 1384.77 423.572 1384.79 423.593L1385.04 423.912C1385.06 423.929 1385.07 423.946 1385.08 423.964L1385.34 424.314L1385.35 424.325C1385.36 424.336 1385.37 424.346 1385.37 424.357L1385.63 424.734C1385.64 424.746 1385.65 424.758 1385.65 424.77L1385.91 425.171C1385.92 425.18 1385.92 425.19 1385.93 425.199L1386.19 425.62L1386.2 425.643L1386.46 426.081L1386.47 426.097L1386.73 426.548L1386.73 426.559L1386.99 427.018L1387 427.024L1387.25 427.488L1387.25 427.489L1387.51 427.95L1387.51 427.954L1387.77 428.407L1388.02 428.849L1388.26 429.273L1388.51 429.677L1388.75 430.054L1388.98 430.401L1389.21 430.713L1389.42 430.987L1389.62 431.219L1389.81 431.405L1389.97 431.544L1390.1 431.637L1390.19 431.69L1390.25 431.712L1390.28 431.718L1390.28 431.718L1390.29 431.717L1390.33 431.707L1390.4 431.674L1390.51 431.607L1390.65 431.497L1390.82 431.34L1391.02 431.137L1391.22 430.889L1391.44 430.6L1391.67 430.274L1391.91 429.916L1392.15 429.528L1392.39 429.116L1392.64 428.684L1392.89 428.241L1392.9 428.234L1393.15 427.78L1393.15 427.778L1393.41 427.315L1393.41 427.312L1393.67 426.849L1393.67 426.841L1393.93 426.385L1393.94 426.372L1394.2 425.925L1394.21 425.907L1394.46 425.475L1394.48 425.45L1394.74 425.036L1394.75 425.023L1394.76 425.005L1395.02 424.613C1395.02 424.6 1395.03 424.587 1395.04 424.574L1395.3 424.207C1395.31 424.191 1395.32 424.176 1395.33 424.16L1395.59 423.822C1395.61 423.803 1395.62 423.784 1395.64 423.766L1395.89 423.459C1395.9 423.453 1395.9 423.447 1395.91 423.441C1395.92 423.425 1395.94 423.409 1395.95 423.393L1396.21 423.121C1396.24 423.094 1396.26 423.069 1396.29 423.045L1396.55 422.809C1396.58 422.779 1396.61 422.751 1396.65 422.724L1396.91 422.527C1396.95 422.494 1396.99 422.464 1397.04 422.436L1397.3 422.28C1397.35 422.246 1397.41 422.217 1397.47 422.191L1397.72 422.076C1397.78 422.051 1397.84 422.029 1397.9 422.011C1397.91 422.008 1397.92 422.005 1397.93 422.002L1398.19 421.93C1398.27 421.908 1398.35 421.893 1398.43 421.884L1398.69 421.856Z" fill="url(#paint0_linear_204_7852)"/>
<path fill-rule="evenodd" clip-rule="evenodd" d="M551.371 180.035H834.349V197.035H551.371H548.371V200.035V217.035V220.035H551.371H834.349V233.035H551.371H548.371V236.035V254.035V257.035H551.371H837.349V251.035H554.371V239.035H837.349H840.349V236.035V217.035V214.035H837.349H554.371V203.035H837.349H840.349V200.035V177.035V174.035H837.349H551.371V180.035ZM716.094 302.535H846.5V318.035H716.094V302.535ZM501.724 350.035H730.529V374.035H501.724V350.035ZM730.965 329.785H704.655V345.285H730.965V329.785ZM501.724 302.535H671.966V325.035H501.724V302.535ZM837.349 291.035H551.371V285.035H837.349V291.035ZM501.724 405.035H733.253V399.035H501.724V405.035ZM687.223 302.535V336.035V339.035H684.223H499V333.035H681.223V302.535H687.223ZM501.724 422.035H733.253V416.035H501.724V422.035ZM733.253 438.035H501.724V432.035H733.253V438.035ZM760.707 348.035H812.183H846.5V374.035H812.183V439.035H760.707V348.035Z" fill="url(#paint1_linear_204_7852)"/>
<path d="M3 439.035H253V462.035H3V479.035H253" stroke="url(#paint2_linear_204_7852)" stroke-width="6"/>
<path d="M1302.5 453.035H920.5V470.035H1302.5" stroke="url(#paint3_linear_204_7852)" stroke-width="6"/>
<path fill-rule="evenodd" clip-rule="evenodd" d="M153 136.318H209V159.818H166L153 146.818V136.318ZM62.4766 173.596H107.977V177.596H62.4766C61.372 177.596 60.4766 178.491 60.4766 179.596V187.596C60.4766 188.7 61.372 189.596 62.4766 189.596H107.977V193.596H64.9766V197.596H109.977C111.081 197.596 111.977 196.7 111.977 195.596V187.596C111.977 186.491 111.081 185.596 109.977 185.596H64.4766V181.596H109.977C111.081 181.596 111.977 180.7 111.977 179.596V171.596C111.977 170.491 111.081 169.596 109.977 169.596H62.4766V173.596ZM197.292 170.105C197.376 170.095 197.461 170.093 197.545 170.098L197.803 170.114C197.886 170.119 197.968 170.131 198.049 170.149L198.307 170.208C198.381 170.225 198.454 170.248 198.524 170.276L198.783 170.379C198.845 170.403 198.905 170.432 198.963 170.464L199.221 170.609C199.27 170.637 199.318 170.667 199.363 170.7L199.622 170.885C199.659 170.913 199.696 170.942 199.731 170.972L199.989 171.197C200.018 171.222 200.046 171.249 200.073 171.276L200.331 171.538L200.347 171.554L200.355 171.563L200.369 171.578C200.377 171.587 200.386 171.597 200.395 171.607L200.653 171.904C200.669 171.923 200.686 171.943 200.701 171.963L200.959 172.293C200.972 172.309 200.984 172.325 200.996 172.342L201.255 172.701C201.264 172.714 201.274 172.728 201.283 172.742L201.541 173.127L201.551 173.143L201.562 173.16L201.821 173.568L201.829 173.582L201.837 173.595L202.095 174.022L202.107 174.042L202.365 174.485L202.373 174.499L202.631 174.953L202.637 174.963L202.895 175.424L202.897 175.428L203.155 175.892L203.155 175.893L203.409 176.351L203.413 176.357L203.661 176.799L203.668 176.81L203.915 177.241L204.161 177.66L204.404 178.054L204.641 178.422L204.872 178.758L205.114 179.085C205.607 179.751 205.467 180.69 204.802 181.183C204.136 181.676 203.197 181.537 202.703 180.871L202.445 180.522C202.435 180.508 202.424 180.493 202.414 180.479L202.156 180.103C202.148 180.091 202.14 180.079 202.132 180.067L201.874 179.667L201.863 179.65L201.856 179.638L201.598 179.218L201.584 179.195L201.326 178.758L201.317 178.741L201.058 178.291L201.052 178.28L200.794 177.82L200.791 177.815L200.533 177.35L200.532 177.349L200.276 176.888L200.274 176.884L200.023 176.436L200.018 176.427L199.769 175.989L199.521 175.563L199.277 175.159L199.037 174.78L198.804 174.432L198.578 174.118L198.363 173.842L198.16 173.609L197.975 173.421L197.813 173.28L197.681 173.185L197.583 173.13L197.525 173.107L197.499 173.101L197.492 173.101L197.482 173.102L197.447 173.111L197.378 173.142L197.27 173.208L197.128 173.316L196.958 173.471L196.768 173.673L196.561 173.918L196.342 174.206L196.114 174.53L195.879 174.888L195.638 175.274L195.393 175.685L195.143 176.116L194.893 176.559L194.889 176.566L194.636 177.019L194.635 177.022L194.378 177.484L194.377 177.487L194.119 177.95L194.115 177.958L193.857 178.415L193.849 178.427L193.591 178.874L193.581 178.893L193.322 179.326L193.308 179.35L193.05 179.765C193.043 179.775 193.037 179.785 193.03 179.795L192.772 180.189C192.763 180.201 192.755 180.214 192.746 180.227L192.488 180.595L192.478 180.609C192.47 180.62 192.462 180.631 192.454 180.641L192.196 180.981C192.19 180.989 192.183 180.998 192.177 181.006C192.168 181.016 192.16 181.026 192.152 181.037L191.894 181.345C191.875 181.367 191.855 181.389 191.836 181.41L191.577 181.684C191.553 181.711 191.527 181.736 191.501 181.76L191.243 181.998C191.211 182.027 191.177 182.055 191.143 182.082L190.885 182.281C190.843 182.313 190.799 182.344 190.754 182.371L190.496 182.53C190.442 182.563 190.386 182.592 190.328 182.618L190.07 182.735C190.003 182.765 189.935 182.79 189.864 182.81L189.606 182.884C189.528 182.906 189.449 182.922 189.368 182.932L189.11 182.962C189.026 182.972 188.941 182.974 188.857 182.97L188.599 182.956C188.516 182.952 188.434 182.94 188.353 182.922L188.094 182.865C188.02 182.848 187.947 182.826 187.875 182.798L187.617 182.698C187.555 182.673 187.494 182.645 187.435 182.613L187.177 182.47C187.128 182.442 187.08 182.412 187.033 182.379L186.775 182.195C186.737 182.168 186.7 182.139 186.664 182.108L186.406 181.884C186.377 181.859 186.349 181.833 186.321 181.805L186.063 181.545C186.041 181.522 186.02 181.499 185.999 181.475L185.741 181.18L185.722 181.158L185.704 181.135L185.692 181.12L185.434 180.792C185.421 180.776 185.409 180.759 185.396 180.742L185.138 180.385L185.123 180.363L185.11 180.343L184.852 179.959L184.839 179.94L184.83 179.926L184.572 179.519L184.566 179.51L184.555 179.492L184.297 179.065L184.285 179.045L184.027 178.603L184.018 178.588L183.76 178.134L183.755 178.125L183.497 177.664L183.494 177.659L183.237 177.195L183.236 177.194L182.982 176.736L182.979 176.731L182.727 176.282L182.476 175.844L182.229 175.426L181.987 175.03L181.749 174.661L181.518 174.323L181.296 174.022L181.084 173.76L180.887 173.541L180.709 173.369L180.556 173.243L180.434 173.162L180.35 173.12L180.303 173.104L180.286 173.101L180.28 173.101L180.264 173.103L180.219 173.119L180.136 173.16L180.016 173.239L179.864 173.363L179.687 173.533L179.491 173.75L179.28 174.01L179.057 174.31L178.827 174.646L178.589 175.013L178.347 175.408L178.1 175.827L177.85 176.263L177.598 176.711L177.597 176.714L177.341 177.174L177.34 177.175L177.082 177.64L177.08 177.644L176.822 178.105L176.817 178.114L176.559 178.569L176.55 178.583L176.292 179.026L176.28 179.046L176.022 179.473C176.017 179.482 176.012 179.491 176.006 179.5L175.748 179.908C175.741 179.919 175.734 179.93 175.726 179.941L175.468 180.326C175.459 180.34 175.45 180.354 175.44 180.367L175.182 180.726L175.166 180.747C175.159 180.756 175.152 180.766 175.145 180.775L174.887 181.105C174.871 181.125 174.855 181.144 174.838 181.164L174.58 181.461L174.562 181.482C174.553 181.492 174.544 181.502 174.534 181.511L174.517 181.53L174.259 181.792C174.241 181.81 174.222 181.828 174.204 181.845C174.194 181.854 174.185 181.862 174.175 181.871L173.917 182.096C173.882 182.126 173.845 182.155 173.807 182.183L173.549 182.368C173.503 182.401 173.456 182.431 173.406 182.459L173.148 182.604C173.09 182.636 173.03 182.665 172.968 182.689L172.71 182.792C172.639 182.82 172.566 182.842 172.492 182.859L172.234 182.919C172.154 182.937 172.071 182.949 171.989 182.954L171.731 182.969C171.646 182.975 171.561 182.972 171.477 182.963L171.219 182.935C171.138 182.926 171.058 182.911 170.98 182.889L170.722 182.817C170.651 182.797 170.582 182.772 170.515 182.743L170.257 182.628C170.198 182.602 170.142 182.572 170.088 182.539L169.829 182.383C169.784 182.355 169.74 182.325 169.697 182.292L169.439 182.095C169.404 182.068 169.37 182.04 169.338 182.01L169.079 181.774C169.053 181.75 169.027 181.724 169.002 181.698L168.744 181.426L168.732 181.412L168.723 181.403C168.71 181.389 168.698 181.374 168.685 181.36L168.427 181.053C168.412 181.035 168.397 181.016 168.383 180.997L168.124 180.658C168.118 180.65 168.111 180.641 168.105 180.632L168.09 180.612L167.832 180.245C167.823 180.232 167.815 180.219 167.806 180.206L167.548 179.814L167.537 179.798L167.528 179.783L167.27 179.369L167.255 179.344L166.997 178.912L166.986 178.894L166.728 178.447L166.721 178.434L166.462 177.977L166.458 177.97L166.2 177.507L166.199 177.504L165.942 177.041L165.94 177.039L165.686 176.582L165.433 176.134L165.184 175.703L164.938 175.291L164.697 174.903L164.462 174.544L164.233 174.219L164.014 173.93L163.807 173.682L163.615 173.479L163.445 173.322L163.302 173.212L163.192 173.144L163.121 173.112L163.085 173.102L163.074 173.101L163.068 173.101L162.931 173.131C162.122 173.311 161.321 172.801 161.141 171.993C160.961 171.184 161.471 170.383 162.28 170.203L162.538 170.145C162.619 170.127 162.701 170.116 162.784 170.112L163.042 170.098C163.127 170.094 163.212 170.096 163.296 170.106L163.554 170.136C163.634 170.146 163.714 170.162 163.792 170.184L164.05 170.257C164.12 170.278 164.189 170.303 164.256 170.333L164.514 170.449C164.571 170.475 164.627 170.505 164.681 170.538L164.939 170.697C164.984 170.724 165.028 170.754 165.07 170.787L165.328 170.986C165.363 171.012 165.396 171.041 165.428 171.07L165.687 171.308C165.696 171.316 165.704 171.325 165.713 171.333C165.721 171.341 165.73 171.349 165.738 171.358C165.746 171.366 165.755 171.375 165.763 171.383L166.021 171.658C166.041 171.679 166.06 171.701 166.079 171.723L166.337 172.031C166.352 172.05 166.367 172.068 166.381 172.087L166.64 172.427L166.649 172.439L166.663 172.458L166.673 172.473L166.931 172.841C166.94 172.854 166.949 172.866 166.957 172.879L167.215 173.273C167.222 173.283 167.229 173.293 167.235 173.303L167.493 173.718L167.508 173.742L167.766 174.175L167.777 174.193L168.035 174.641L168.042 174.653L168.3 175.11L168.304 175.118L168.562 175.581L168.564 175.583L168.82 176.046L168.822 176.049L169.076 176.505L169.329 176.952L169.578 177.383L169.823 177.794L170.064 178.18L170.299 178.538L170.528 178.862L170.746 179.149L170.953 179.395L171.144 179.597L171.313 179.752L171.455 179.86L171.563 179.925L171.633 179.957L171.667 179.966L171.677 179.967L171.684 179.967L171.71 179.961L171.769 179.938L171.866 179.883L171.999 179.788L172.161 179.647L172.346 179.459L172.548 179.225L172.764 178.95L172.99 178.636L173.223 178.288L173.462 177.909L173.706 177.505L173.955 177.079L174.206 176.637L174.459 176.184L174.462 176.18L174.718 175.719L174.718 175.718L174.976 175.253L174.979 175.247L175.238 174.788L175.244 174.777L175.502 174.327L175.512 174.31L175.77 173.873L175.783 173.85L176.041 173.43C176.047 173.42 176.053 173.41 176.059 173.401L176.318 173.001C176.325 172.989 176.333 172.977 176.341 172.965L176.6 172.589C176.61 172.574 176.62 172.56 176.631 172.545L176.889 172.197C176.902 172.179 176.916 172.162 176.93 172.144L177.188 171.826C177.205 171.805 177.223 171.784 177.242 171.764L177.5 171.48C177.522 171.455 177.546 171.43 177.57 171.407L177.828 171.159C177.858 171.13 177.889 171.103 177.921 171.076L178.179 170.866C178.218 170.834 178.258 170.805 178.3 170.777L178.559 170.607C178.609 170.573 178.661 170.543 178.715 170.516L178.973 170.387C179.036 170.356 179.101 170.329 179.168 170.307L179.426 170.22C179.501 170.195 179.578 170.176 179.656 170.163L179.914 170.121C179.997 170.107 180.081 170.1 180.165 170.1L180.423 170.101C180.507 170.102 180.591 170.109 180.673 170.123L180.932 170.168C181.009 170.181 181.086 170.201 181.16 170.226L181.418 170.314C181.484 170.337 181.549 170.364 181.611 170.396L181.87 170.526C181.923 170.553 181.974 170.584 182.024 170.617L182.282 170.789C182.324 170.817 182.364 170.846 182.402 170.878L182.66 171.09C182.692 171.116 182.723 171.143 182.752 171.172L183.01 171.422C183.034 171.445 183.057 171.469 183.08 171.494L183.338 171.78L183.351 171.794L183.361 171.806L183.378 171.826L183.391 171.842L183.649 172.161C183.663 172.178 183.676 172.195 183.689 172.213L183.948 172.563L183.961 172.581C183.967 172.589 183.973 172.598 183.978 172.606L184.237 172.983C184.245 172.995 184.252 173.007 184.26 173.019L184.518 173.42C184.524 173.429 184.53 173.439 184.536 173.448L184.794 173.87L184.808 173.892L185.066 174.33L185.075 174.346L185.333 174.797L185.339 174.808L185.598 175.267L185.601 175.273L185.859 175.737L185.859 175.738L186.115 176.199L186.117 176.203L186.371 176.656L186.622 177.098L186.87 177.522L187.114 177.926L187.353 178.303L187.586 178.65L187.811 178.962L188.027 179.236L188.229 179.468L188.413 179.654L188.574 179.793L188.705 179.886L188.8 179.939L188.858 179.961L188.882 179.967L188.889 179.967L188.9 179.966L188.935 179.956L189.007 179.923L189.116 179.856L189.259 179.746L189.43 179.589L189.621 179.386L189.828 179.138L190.048 178.849L190.276 178.523L190.512 178.165L190.753 177.777L190.998 177.365L191.248 176.934L191.498 176.49L191.502 176.483L191.755 176.029L191.756 176.027L192.013 175.564L192.015 175.561L192.273 175.098L192.277 175.09L192.535 174.634L192.542 174.621L192.801 174.174L192.811 174.156L193.07 173.724L193.084 173.699L193.343 173.285C193.349 173.275 193.356 173.264 193.362 173.254L193.621 172.862C193.629 172.849 193.638 172.836 193.647 172.823L193.905 172.456C193.911 172.447 193.918 172.438 193.924 172.429L193.939 172.41L194.197 172.071C194.212 172.052 194.227 172.033 194.242 172.015L194.5 171.708L194.517 171.689C194.53 171.673 194.544 171.658 194.559 171.642L194.817 171.37C194.842 171.343 194.867 171.318 194.894 171.294L195.152 171.058C195.185 171.028 195.219 171 195.254 170.973L195.512 170.776C195.554 170.743 195.598 170.713 195.644 170.685L195.902 170.529C195.957 170.496 196.013 170.466 196.071 170.44L196.329 170.325C196.396 170.295 196.466 170.271 196.536 170.251L196.795 170.179C196.873 170.157 196.953 170.142 197.034 170.133L197.292 170.105ZM209.318 238.373H142.818V240.373H209.318V238.373ZM66.0684 307.035H132.568V309.035H66.0684V307.035ZM155.318 314.535V316.535H88.8184V314.535H155.318ZM132.568 322.035H66.0684V324.035H132.568V322.035ZM102.934 329.037C102.955 329.036 102.977 329.035 102.999 329.035L103.025 329.035C103.037 329.035 103.049 329.035 103.061 329.036L103.319 329.044C103.361 329.045 103.403 329.048 103.445 329.053L103.703 329.082C103.743 329.087 103.784 329.093 103.824 329.101L104.082 329.152C104.12 329.16 104.157 329.169 104.195 329.179L104.453 329.252L104.48 329.26C104.492 329.263 104.504 329.267 104.516 329.271C104.529 329.275 104.543 329.28 104.556 329.284L104.814 329.377C104.845 329.388 104.875 329.401 104.905 329.414L105.164 329.526C105.191 329.538 105.217 329.551 105.244 329.564L105.502 329.695L105.517 329.703L105.531 329.71C105.545 329.718 105.558 329.725 105.571 329.732L105.829 329.881C105.849 329.892 105.869 329.904 105.888 329.917L106.146 330.081C106.163 330.092 106.179 330.103 106.195 330.114L106.453 330.294C106.467 330.303 106.481 330.313 106.494 330.323L106.752 330.516L106.773 330.532L106.785 330.541L107.044 330.745C107.052 330.752 107.061 330.759 107.07 330.766L107.328 330.98L107.348 330.997L107.606 331.218L107.62 331.231L107.879 331.458L107.888 331.466L108.146 331.697L108.15 331.7L108.407 331.932L108.408 331.933L108.659 332.159L108.665 332.164L108.912 332.383L109.156 332.597L109.395 332.799L109.628 332.989L109.854 333.164L110.072 333.323L110.308 333.482C110.995 333.945 111.176 334.877 110.713 335.564C110.249 336.251 109.317 336.432 108.63 335.969L108.372 335.795C108.357 335.785 108.343 335.774 108.328 335.764L108.07 335.576C108.058 335.567 108.046 335.558 108.034 335.549L107.776 335.349C107.767 335.342 107.757 335.334 107.748 335.326L107.489 335.116L107.467 335.097L107.209 334.879L107.193 334.865L106.934 334.64L106.923 334.63L106.665 334.4L106.659 334.395L106.401 334.163L106.4 334.162L106.146 333.933L106.142 333.929L105.897 333.71L105.888 333.702L105.646 333.489L105.405 333.283L105.17 333.088L104.941 332.908L104.72 332.743L104.507 332.594L104.303 332.464L104.108 332.352L103.925 332.259L103.753 332.184L103.592 332.126L103.441 332.084L103.3 332.056L103.166 332.04L103.034 332.036L102.902 332.044L102.766 332.063L102.622 332.094L102.469 332.141L102.305 332.204L102.129 332.284L101.943 332.383L101.745 332.5L101.538 332.636L101.323 332.789L101.099 332.959L100.869 333.144L100.632 333.342L100.389 333.552L100.145 333.768L100.141 333.771L99.8894 333.997L99.8868 333.999L99.6312 334.229L99.6289 334.232L99.3707 334.463L99.3634 334.47L99.1052 334.698L99.0927 334.709L98.8345 334.933L98.8164 334.948L98.5583 335.165L98.5446 335.176L98.5342 335.184L98.2761 335.392L98.257 335.407L98.2453 335.416L97.9872 335.612L97.9746 335.622C97.9662 335.628 97.9577 335.634 97.9491 335.641L97.691 335.825C97.6758 335.835 97.6603 335.846 97.6447 335.856L97.3865 336.026C97.3757 336.033 97.3647 336.04 97.3537 336.047L97.3311 336.061L97.0729 336.215C97.0514 336.228 97.0295 336.24 97.0074 336.252L96.7492 336.389C96.7241 336.402 96.6986 336.415 96.6728 336.427L96.4146 336.546C96.404 336.551 96.3933 336.555 96.3825 336.56C96.3641 336.568 96.3455 336.576 96.3268 336.583L96.0687 336.682C96.036 336.695 96.0029 336.706 95.9695 336.717L95.7114 336.796L95.6897 336.802L95.671 336.808C95.6481 336.814 95.6249 336.82 95.6017 336.825L95.3435 336.883C95.3043 336.892 95.2648 336.899 95.2251 336.905L94.9669 336.942C94.9256 336.948 94.8841 336.952 94.8424 336.954L94.5842 336.969C94.5419 336.972 94.4995 336.973 94.4571 336.972L94.199 336.965C94.1569 336.964 94.1148 336.961 94.073 336.956L93.8149 336.927C93.7984 336.925 93.782 336.923 93.7656 336.921C93.7416 336.918 93.7176 336.913 93.6938 336.909L93.4356 336.859C93.4257 336.857 93.4157 336.855 93.4058 336.852C93.3933 336.85 93.3809 336.847 93.3684 336.844C93.3587 336.841 93.349 336.839 93.3393 336.836L93.3224 336.832L93.0642 336.76L93.0459 336.755L93.0255 336.749L93.005 336.743C92.9902 336.738 92.9756 336.733 92.961 336.728L92.7028 336.636C92.6717 336.625 92.641 336.613 92.6107 336.6L92.3525 336.488C92.3369 336.481 92.3214 336.474 92.3061 336.467L92.2853 336.457L92.2719 336.45L92.0137 336.32C92.0025 336.314 91.9914 336.308 91.9804 336.302C91.9682 336.296 91.9561 336.289 91.9441 336.282L91.686 336.134L91.6735 336.127L91.6574 336.118L91.6376 336.106L91.6268 336.099L91.3687 335.935C91.3519 335.924 91.3354 335.913 91.3191 335.902L91.0609 335.723C91.0471 335.713 91.0334 335.703 91.0199 335.693L90.7617 335.501L90.7498 335.492L90.7284 335.476L90.4702 335.272C90.4613 335.265 90.4525 335.258 90.4437 335.251L90.1856 335.037L90.1653 335.02L89.9072 334.799L89.8926 334.787L89.6344 334.56L89.6251 334.551L89.367 334.321L89.3628 334.317L89.1053 334.085L89.1046 334.084L88.8529 333.858L88.8472 333.853L88.6001 333.633L88.3554 333.419L88.1163 333.217L87.8834 333.026L87.6571 332.851L87.4384 332.691L87.2281 332.549L87.027 332.424L86.8362 332.319L86.6564 332.232L86.4879 332.163L86.3307 332.11L86.1837 332.073L86.0451 332.049L85.9119 332.038L85.7807 332.038L85.6477 332.049L85.5093 332.072L85.3627 332.108L85.2059 332.16L85.038 332.228L84.8586 332.315L84.6683 332.42L84.4677 332.543L84.2577 332.685L84.0393 332.844L83.8134 333.019L83.5807 333.208L83.3419 333.411L83.0974 333.624L82.8477 333.846L82.5934 334.075L82.5925 334.075L82.3353 334.307L82.3312 334.311L82.0731 334.541L82.0641 334.55L81.8059 334.777L81.7915 334.789L81.5334 335.01L81.5134 335.027L81.2552 335.241C81.2466 335.248 81.2378 335.255 81.229 335.262L80.9708 335.466C80.9599 335.475 80.9489 335.483 80.9378 335.492L80.6796 335.684L80.6575 335.7L80.6389 335.714L80.3808 335.893C80.3646 335.904 80.3482 335.915 80.3315 335.926L80.0734 336.091C80.0541 336.103 80.0345 336.115 80.0147 336.126L79.7565 336.275C79.7338 336.288 79.7108 336.3 79.6874 336.312L79.4293 336.443C79.4029 336.457 79.3761 336.469 79.349 336.481L79.0909 336.594C79.0608 336.607 79.0302 336.619 78.9993 336.63L78.7411 336.723C78.7072 336.735 78.673 336.746 78.6383 336.756L78.3802 336.828C78.3429 336.838 78.3053 336.847 78.2673 336.855L78.0092 336.906C77.9876 336.91 77.9659 336.914 77.9442 336.918C77.9256 336.92 77.907 336.923 77.8883 336.925L77.6302 336.955C77.5884 336.959 77.5464 336.962 77.5044 336.964L77.2462 336.972C77.2038 336.973 77.1614 336.972 77.119 336.97L76.8609 336.956C76.8192 336.954 76.7776 336.949 76.7362 336.944L76.478 336.908C76.4382 336.902 76.3986 336.895 76.3593 336.886L76.1011 336.829C76.0641 336.821 76.0273 336.811 75.991 336.8L75.7329 336.722C75.7142 336.716 75.6956 336.71 75.6771 336.704L75.6556 336.696L75.6332 336.688L75.3751 336.589C75.3453 336.578 75.3158 336.565 75.2868 336.552L75.0286 336.434C75.0026 336.422 74.977 336.409 74.9517 336.396L74.6936 336.26C74.6713 336.248 74.6493 336.236 74.6276 336.223L74.3694 336.069C74.3505 336.058 74.3319 336.046 74.3136 336.034L74.0554 335.865L74.0335 335.851L74.0087 335.833L73.7506 335.65C73.7376 335.641 73.7248 335.631 73.7122 335.622L73.4541 335.425C73.4436 335.418 73.4333 335.409 73.4231 335.401L73.1649 335.194L73.1523 335.184L73.1406 335.174L72.8824 334.958L72.8641 334.943L72.6059 334.719L72.5932 334.708L72.335 334.48L72.3274 334.473L72.0693 334.242L72.0667 334.239L71.8109 334.009L71.8086 334.007L71.5565 333.781L71.3083 333.561L71.0654 333.35L70.8283 333.152L70.5975 332.966L70.3737 332.796L70.1576 332.642L69.9503 332.505L69.7526 332.387L69.5653 332.288L69.3893 332.207L69.2246 332.143L69.071 332.096L68.927 332.064L68.7905 332.044L68.6584 332.036L68.5271 332.04L68.3317 332.062C67.5084 332.153 66.7667 331.56 66.6752 330.737C66.5837 329.913 67.177 329.172 68.0003 329.08L68.2585 329.051C68.3003 329.047 68.3423 329.044 68.3844 329.043L68.6426 329.036C68.6849 329.035 68.7274 329.035 68.7697 329.038L69.0279 329.053C69.0695 329.055 69.1111 329.06 69.1524 329.065L69.4105 329.102C69.4503 329.108 69.4898 329.115 69.529 329.124L69.7871 329.182C69.824 329.191 69.8606 329.2 69.8968 329.212L70.155 329.291C70.1884 329.301 70.2215 329.312 70.2541 329.325L70.5123 329.424C70.5419 329.436 70.5712 329.448 70.6001 329.462L70.8582 329.58C70.8841 329.592 70.9096 329.605 70.9347 329.618L71.1928 329.755C71.215 329.767 71.2369 329.779 71.2584 329.792L71.5165 329.946C71.5353 329.958 71.5538 329.969 71.572 329.981L71.8302 330.151C71.8458 330.161 71.8612 330.172 71.8764 330.183L72.1346 330.367C72.1474 330.376 72.1601 330.385 72.1727 330.395L72.4308 330.592C72.4412 330.599 72.4514 330.607 72.4615 330.616L72.7197 330.823C72.7278 330.829 72.7358 330.836 72.7437 330.843L73.0019 331.059L73.02 331.075L73.2781 331.298L73.2907 331.309L73.5488 331.538L73.5562 331.544L73.8143 331.776L73.8167 331.778L74.0723 332.008L74.0748 332.01L74.3266 332.236L74.5746 332.456L74.8172 332.665L75.0541 332.864L75.2846 333.049L75.5081 333.218L75.7238 333.372L75.9308 333.507L76.1281 333.625L76.3148 333.723L76.4904 333.804L76.6546 333.866L76.8078 333.913L76.9514 333.945L77.0876 333.964L77.2196 333.971L77.351 333.967L77.4857 333.952L77.6268 333.924L77.7771 333.881L77.938 333.824L78.1102 333.749L78.2938 333.655L78.4881 333.543L78.6923 333.413L78.9056 333.265L79.1269 333.1L79.3555 332.919L79.5905 332.724L79.8315 332.518L80.078 332.301L80.3276 332.078L80.3316 332.074L80.5858 331.845L80.5867 331.845L80.8448 331.612L80.8507 331.607L81.1089 331.378L81.1199 331.368L81.378 331.143L81.3945 331.129L81.6526 330.91L81.6749 330.891L81.933 330.681L81.9454 330.671L81.9617 330.658L82.2199 330.458L82.2292 330.451C82.2379 330.444 82.2468 330.438 82.2557 330.431L82.5139 330.244C82.5283 330.233 82.5429 330.223 82.5577 330.213L82.8158 330.039C82.8331 330.027 82.8507 330.016 82.8685 330.005L83.1267 329.846C83.1472 329.833 83.1681 329.821 83.1892 329.809L83.4473 329.667C83.4714 329.654 83.4958 329.641 83.5205 329.629L83.7787 329.505C83.8065 329.492 83.8346 329.479 83.8632 329.468L84.1213 329.363C84.1529 329.35 84.1849 329.338 84.2172 329.327L84.4754 329.242C84.5106 329.23 84.5462 329.22 84.5821 329.211L84.8403 329.147C84.8527 329.144 84.8652 329.141 84.8777 329.138L84.9045 329.132C84.9217 329.129 84.9391 329.125 84.9564 329.122L85.2146 329.079C85.2554 329.073 85.2964 329.067 85.3377 329.064L85.5958 329.043C85.638 329.039 85.6803 329.037 85.7226 329.037L85.9807 329.038C86.023 329.038 86.0653 329.04 86.1074 329.043L86.3656 329.066C86.4067 329.069 86.4477 329.075 86.4884 329.082L86.7466 329.126C86.7855 329.132 86.8241 329.14 86.8624 329.15L87.1205 329.215C87.1563 329.225 87.1918 329.235 87.2268 329.247L87.485 329.333C87.5172 329.343 87.549 329.355 87.5804 329.368L87.8386 329.474C87.8669 329.486 87.895 329.498 87.9226 329.512L88.1807 329.637C88.2053 329.649 88.2296 329.661 88.2535 329.674L88.5116 329.817C88.5326 329.829 88.5533 329.841 88.5737 329.854L88.8318 330.013C88.8495 330.024 88.867 330.035 88.8842 330.047L89.1423 330.222C89.157 330.232 89.1714 330.242 89.1857 330.252L89.4439 330.441C89.4559 330.45 89.4677 330.458 89.4794 330.468L89.7376 330.668L89.7507 330.678L89.766 330.691L90.0241 330.901L90.0462 330.92L90.3043 331.139L90.3205 331.153L90.5786 331.378L90.5894 331.387L90.8476 331.617L90.8533 331.622L91.1114 331.854L91.1121 331.855L91.366 332.084L91.3703 332.088L91.6196 332.31L91.8658 332.527L92.1066 332.733L92.3413 332.927L92.5696 333.107L92.7906 333.271L93.0035 333.419L93.2073 333.549L93.4012 333.66L93.5843 333.752L93.7561 333.826L93.9165 333.884L94.0663 333.925L94.2072 333.952L94.3416 333.967L94.473 333.971L94.6051 333.963L94.7415 333.944L94.8855 333.911L95.0392 333.864L95.2038 333.801L95.3799 333.72L95.5671 333.62L95.7648 333.502L95.9722 333.366L96.1882 333.212L96.412 333.041L96.6428 332.856L96.8799 332.657L97.1228 332.447L97.3711 332.227L97.6231 332.001L97.6255 331.999L97.8813 331.768L97.8838 331.766L98.142 331.534L98.1495 331.527L98.4077 331.299L98.4205 331.288L98.6786 331.065L98.6969 331.049L98.9551 330.833L98.9648 330.825L98.9794 330.813L99.2376 330.606C99.2478 330.598 99.2581 330.59 99.2686 330.582L99.5267 330.386L99.5371 330.378C99.5464 330.371 99.5557 330.364 99.5651 330.358L99.8233 330.174C99.8386 330.163 99.8542 330.152 99.8699 330.142L100.128 329.973C100.146 329.961 100.165 329.949 100.184 329.938L100.442 329.785C100.453 329.778 100.464 329.772 100.475 329.766L100.486 329.76L100.508 329.748L100.766 329.611C100.792 329.598 100.817 329.585 100.843 329.573L101.101 329.455C101.111 329.451 101.12 329.447 101.129 329.443C101.149 329.434 101.169 329.426 101.19 329.418L101.448 329.32C101.481 329.307 101.514 329.296 101.547 329.286L101.806 329.207C101.842 329.196 101.879 329.187 101.916 329.178L102.174 329.121C102.213 329.112 102.253 329.105 102.293 329.1L102.551 329.064C102.592 329.058 102.634 329.054 102.675 329.052L102.934 329.037ZM87.9092 381.383H77.7266V348.633L120.909 349.383H203.909V352.383H120.909L87.9092 381.383ZM95.4082 390.1H42.7266V394.1H96.2266H97.0449L97.6285 393.526L114.128 377.309L111.325 374.456L95.4082 390.1ZM81.0684 228.623H104.568H118.068L122.068 233.394H99.4566L89.5684 242.623H66.0684L81.0684 228.623ZM116.75 280.427H140.25L155.25 294.427H131.75L121.862 285.198L116.75 280.427ZM109.75 280.427H86.25L91.3618 285.198L101.25 294.427H124.75L109.75 280.427ZM55.75 280.427H79.25L94.25 294.427H70.75L60.8618 285.198L55.75 280.427ZM131 247.035H75V257.535L88 270.535H131V247.035ZM205.269 197.285H170.565V193.285H207.269C208.374 193.285 209.269 194.181 209.269 195.285V203.285C209.269 204.39 208.374 205.285 207.269 205.285H161.267L156.267 209.285H207.269C208.374 209.285 209.269 210.181 209.269 211.285V219.285C209.269 220.39 208.374 221.285 207.269 221.285H51.9707V217.285H205.269V213.285H150.565C149.716 213.285 148.959 212.749 148.678 211.947C148.397 211.146 148.653 210.254 149.316 209.723L159.316 201.723C159.67 201.44 160.111 201.285 160.565 201.285H205.269V197.285ZM128.092 198.346C130.853 198.346 133.092 196.107 133.092 193.346C133.092 190.584 130.853 188.346 128.092 188.346C125.33 188.346 123.092 190.584 123.092 193.346C123.092 196.107 125.33 198.346 128.092 198.346ZM145.554 271.035H136.434V267.035H146.184C146.594 267.035 146.994 267.161 147.33 267.396L182.564 292.035H210.001V296.035H181.934C181.524 296.035 181.123 295.909 180.787 295.674L145.554 271.035ZM125.955 166.907L147.887 143.657L144.978 140.913L123.045 164.163L125.955 166.907ZM121.564 362.535H214.501V398.035H143.139L121.564 378.397V362.535ZM210 402.035H75V406.535H210V402.035Z" fill="url(#paint4_linear_204_7852)"/>
<path fill-rule="evenodd" clip-rule="evenodd" d="M913 138.264H889.5L872 156.014H895.5L907.888 143.035H1025.5V138.264H913ZM867.697 232.035H913.197V236.035H867.697C866.593 236.035 865.697 236.931 865.697 238.035V246.035C865.697 247.14 866.593 248.035 867.697 248.035H913.197V252.035H870.197C869.27 252.035 868.464 252.673 868.251 253.576C868.038 254.478 868.473 255.409 869.303 255.824L888.303 265.324C888.581 265.463 888.887 265.535 889.197 265.535H952.197C952.557 265.535 952.909 265.438 953.218 265.255L969.218 255.755L967.176 252.315L951.648 261.535H889.669L878.669 256.035H915.197C916.302 256.035 917.197 255.14 917.197 254.035V246.035C917.197 244.931 916.302 244.035 915.197 244.035H869.697V240.035H915.197C916.302 240.035 917.197 239.14 917.197 238.035V230.035C917.197 228.931 916.302 228.035 915.197 228.035H867.697V232.035ZM863.697 409.63H903.197L923.197 384.695H863.697V409.63ZM912.131 283.692H864.914V308.627H936.038L912.131 283.692ZM1029.5 252.535H993.283L969.376 268.535H1029.5V252.535ZM939 186.035H962.5H1025V181.264H957.388L947.5 172.035H924L939 186.035ZM990.203 409.63H966.703L951.703 395.63H975.203L985.091 404.859H1022.7V409.63H990.203ZM957.5 306.535H981H1024.5V311.306H975.888L966 320.535H942.5L957.5 306.535ZM874.5 167.035H864.183V203.318H874.5V167.035ZM878.5 167.035H888.817V203.318H878.5V167.035ZM903.135 167.035H892.817V203.318H903.135V167.035ZM917.948 203.318V179.785L907.631 170.285V203.318H917.948ZM912.12 411.035L930.606 388.834L927.775 386.542L909.289 408.743L912.12 411.035ZM951.182 391.681L940.258 378.562L938.586 379.917L949.509 393.035L951.182 391.681ZM949.977 345.818L964.2 355.259L962.985 357.035L948.763 347.595L949.977 345.818ZM863.433 323.285H965.933V327.535H863.433V323.285ZM936.039 313.535H863.539V316.285H936.039V313.535ZM953.863 294.035H1026.36V296.785H953.863V294.035ZM1010.2 286.16H967.703V288.91H1010.2V286.16ZM952.5 277.41H1025V280.16H952.5V277.41ZM951.183 328.785H863.433V336.535H951.183V328.785ZM864.5 372.035H941.933H956.433L972.933 393.035H956.433L941.933 376.785H864.5V372.035ZM935.572 255.035C942.407 255.035 947.947 253.916 947.947 252.535C947.947 251.154 942.407 250.035 935.572 250.035C928.738 250.035 923.197 251.154 923.197 252.535C923.197 253.916 928.738 255.035 935.572 255.035ZM967.703 335.285C967.703 338.047 965.465 340.285 962.703 340.285C959.942 340.285 957.703 338.047 957.703 335.285C957.703 332.524 959.942 330.285 962.703 330.285C965.465 330.285 967.703 332.524 967.703 335.285ZM920.5 362.035C923.261 362.035 925.5 359.797 925.5 357.035C925.5 354.274 923.261 352.035 920.5 352.035C917.739 352.035 915.5 354.274 915.5 357.035C915.5 359.797 917.739 362.035 920.5 362.035ZM874.5 423.035C874.5 425.797 872.261 428.035 869.5 428.035C866.739 428.035 864.5 425.797 864.5 423.035C864.5 420.274 866.739 418.035 869.5 418.035C872.261 418.035 874.5 420.274 874.5 423.035ZM884.084 275.125L864.915 261.125V275.125H884.084ZM938.184 192.535H1025.5V198.035H938.184V192.535ZM1026.36 350.293H979.045V352.793H1026.36V350.293Z" fill="url(#paint5_linear_204_7852)"/>
<path d="M861 381.035V339.535M861 381.035H932.5L964 413.035H1035M861 381.035V412.535M861 160.535L887 134.035H1035M861 160.535H906L936 189.035H1035M861 160.535V207.785M1035 245.535H994.5M936 245.535H994.5M994.5 245.535L953.5 270.035H887L861 255.035M861 255.035V262.535V321.035M861 255.035V207.785M1035 301.535H953.5L936 321.035H861M861 321.035V334.285V339.535M1035 357.035H976.5L950.5 339.535H861M1526.8 478.035H906V412.535H861M861 412.535V457.035H272.804V490.035H48.8037M861 207.785H887" stroke="#8F8E93" stroke-width="2" stroke-linejoin="round"/>
<path d="M1041.7 128.271C1038.47 128.256 1035.83 130.87 1035.81 134.109C1035.8 137.348 1038.41 139.985 1041.65 140C1044.89 140.015 1047.53 137.401 1047.54 134.162C1047.56 130.923 1044.94 128.286 1041.7 128.271Z" fill="black"/>
<path d="M1029.49 131.84C1029.5 128.871 1031.92 126.475 1034.89 126.489C1037.86 126.502 1040.25 128.92 1040.24 131.889C1040.23 134.858 1037.81 137.254 1034.84 137.24C1031.87 137.227 1029.48 134.809 1029.49 131.84Z" fill="#F0EFED" stroke="black" stroke-width="0.977408"/>
<path d="M1041.7 184.271C1038.47 184.256 1035.83 186.87 1035.81 190.109C1035.8 193.348 1038.41 195.985 1041.65 196C1044.89 196.015 1047.53 193.401 1047.54 190.162C1047.56 186.923 1044.94 184.286 1041.7 184.271Z" fill="black"/>
<path d="M1029.49 187.84C1029.5 184.871 1031.92 182.475 1034.89 182.489C1037.86 182.502 1040.25 184.92 1040.24 187.889C1040.23 190.858 1037.81 193.254 1034.84 193.24C1031.87 193.227 1029.48 190.809 1029.49 187.84Z" fill="#F0EFED" stroke="black" stroke-width="0.977408"/>
<path d="M1041.7 240.271C1038.47 240.256 1035.83 242.87 1035.81 246.109C1035.8 249.348 1038.41 251.985 1041.65 252C1044.89 252.015 1047.53 249.401 1047.54 246.162C1047.56 242.923 1044.94 240.286 1041.7 240.271Z" fill="black"/>
<path d="M1029.49 243.84C1029.5 240.871 1031.92 238.475 1034.89 238.489C1037.86 238.502 1040.25 240.92 1040.24 243.889C1040.23 246.858 1037.81 249.254 1034.84 249.24C1031.87 249.227 1029.48 246.809 1029.49 243.84Z" fill="#F0EFED" stroke="black" stroke-width="0.977408"/>
<path d="M1041.7 296.271C1038.47 296.256 1035.83 298.87 1035.81 302.109C1035.8 305.348 1038.41 307.985 1041.65 308C1044.89 308.015 1047.53 305.401 1047.54 302.162C1047.56 298.923 1044.94 296.286 1041.7 296.271Z" fill="black"/>
<path d="M1029.49 299.84C1029.5 296.871 1031.92 294.475 1034.89 294.489C1037.86 294.502 1040.25 296.92 1040.24 299.889C1040.23 302.858 1037.81 305.254 1034.84 305.24C1031.87 305.227 1029.48 302.809 1029.49 299.84Z" fill="#F0EFED" stroke="black" stroke-width="0.977408"/>
<path d="M1041.7 353.438C1038.47 353.423 1035.83 356.037 1035.81 359.276C1035.8 362.515 1038.41 365.152 1041.65 365.167C1044.89 365.182 1047.53 362.568 1047.54 359.329C1047.56 356.09 1044.94 353.453 1041.7 353.438Z" fill="black"/>
<path d="M1029.49 357.007C1029.5 354.038 1031.92 351.642 1034.89 351.656C1037.86 351.669 1040.25 354.087 1040.24 357.056C1040.23 360.025 1037.81 362.421 1034.84 362.407C1031.87 362.394 1029.48 359.976 1029.49 357.007Z" fill="#F0EFED" stroke="black" stroke-width="0.977408"/>
<path d="M1041.7 408.271C1038.47 408.256 1035.83 410.87 1035.81 414.109C1035.8 417.348 1038.41 419.985 1041.65 420C1044.89 420.015 1047.53 417.401 1047.54 414.162C1047.56 410.923 1044.94 408.286 1041.7 408.271Z" fill="black"/>
<path d="M1029.49 411.84C1029.5 408.871 1031.92 406.475 1034.89 406.489C1037.86 406.502 1040.25 408.92 1040.24 411.889C1040.23 414.858 1037.81 417.254 1034.84 417.24C1031.87 417.227 1029.48 414.809 1029.49 411.84Z" fill="#F0EFED" stroke="black" stroke-width="0.977408"/>
<path d="M46 163.764H45C45 163.212 45.4477 162.764 46 162.764V163.764ZM46 384.264L45.2734 384.951C45.0978 384.766 45 384.52 45 384.264H46ZM121 356.764L120.311 356.039C120.497 355.863 120.744 355.764 121 355.764V356.764ZM91 385.264L91.6888 385.989C91.4973 386.171 91.2418 386.27 90.9778 386.264L91 385.264ZM138.5 275.764V274.764C138.681 274.764 138.858 274.813 139.013 274.906L138.5 275.764ZM72 275.764L71.5259 274.884C71.6716 274.805 71.8345 274.764 72 274.764V275.764ZM138.5 244.264V245.264C138.216 245.264 137.945 245.143 137.756 244.932L138.5 244.264ZM121 224.764L121.013 223.764C121.293 223.768 121.558 223.888 121.744 224.096L121 224.764ZM161.5 187.764L160.942 186.935C161.107 186.823 161.301 186.764 161.5 186.764V187.764ZM135.5 205.264L136.058 206.094C135.893 206.205 135.699 206.264 135.5 206.264V205.264ZM149 131.764L148.287 131.063C148.475 130.872 148.732 130.764 149 130.764V131.764ZM117.5 163.764L118.213 164.466C118.025 164.657 117.768 164.764 117.5 164.764V163.764ZM62 410.764H72V412.764H62V410.764ZM71.2734 412.451L45.2734 384.951L46.7266 383.577L72.7266 411.077L71.2734 412.451ZM220 412.764H72V410.764H220V412.764ZM220 357.764H121V355.764H220V357.764ZM121.689 357.489L91.6888 385.989L90.3112 384.539L120.311 356.039L121.689 357.489ZM90.9778 386.264L45.9778 385.264L46.0222 383.264L91.0222 384.264L90.9778 386.264ZM220 301.264H179.5V299.264H220V301.264ZM179.5 301.264H121V299.264H179.5V301.264ZM178.987 301.123L137.987 276.623L139.013 274.906L180.013 299.406L178.987 301.123ZM138.5 276.764H72V274.764H138.5V276.764ZM45 384.264V289.764H47V384.264H45ZM72.4741 276.645L46.4741 290.645L45.5259 288.884L71.5259 274.884L72.4741 276.645ZM220 245.264H138.5V243.264H220V245.264ZM137.756 244.932L120.256 225.432L121.744 224.096L139.244 243.596L137.756 244.932ZM120.987 225.764L45.9867 224.764L46.0133 222.764L121.013 223.764L120.987 225.764ZM220 188.764H161.5V186.764H220V188.764ZM162.058 188.594L136.058 206.094L134.942 204.435L160.942 186.935L162.058 188.594ZM47 163.764V205.264H45V163.764H47ZM135.5 206.264H46V204.264H135.5V206.264ZM220 132.764H149V130.764H220V132.764ZM149.713 132.466L118.213 164.466L116.787 163.063L148.287 131.063L149.713 132.466ZM117.5 164.764H46V162.764H117.5V164.764ZM47 205.264V210.514H45V205.264H47ZM47 210.514V223.764H45V210.514H47ZM47 223.764V282.264H45V223.764H47ZM47 282.264V289.764H45V282.264H47Z" fill="#8F8E93"/>
<path d="M226.38 128.271C223.141 128.256 220.504 130.87 220.489 134.109C220.474 137.348 223.088 139.985 226.327 140C229.565 140.015 232.203 137.401 232.218 134.162C232.232 130.923 229.619 128.286 226.38 128.271Z" fill="black"/>
<path d="M214.164 131.84C214.178 128.871 216.595 126.475 219.564 126.489C222.533 126.502 224.929 128.92 224.915 131.889C224.902 134.858 222.484 137.254 219.515 137.24C216.546 137.227 214.151 134.809 214.164 131.84Z" fill="#F0EFED" stroke="black" stroke-width="0.977408"/>
<path d="M226.38 184.271C223.141 184.256 220.504 186.87 220.489 190.109C220.474 193.348 223.088 195.985 226.327 196C229.565 196.015 232.203 193.401 232.218 190.162C232.232 186.923 229.619 184.286 226.38 184.271Z" fill="black"/>
<path d="M214.164 187.84C214.178 184.871 216.595 182.475 219.564 182.489C222.533 182.502 224.929 184.92 224.915 187.889C224.902 190.858 222.484 193.254 219.515 193.24C216.546 193.227 214.151 190.809 214.164 187.84Z" fill="#F0EFED" stroke="black" stroke-width="0.977408"/>
<path d="M226.38 240.271C223.141 240.256 220.504 242.87 220.489 246.109C220.474 249.348 223.088 251.985 226.327 252C229.565 252.015 232.203 249.401 232.218 246.162C232.232 242.923 229.619 240.286 226.38 240.271Z" fill="black"/>
<path d="M214.164 243.84C214.178 240.871 216.595 238.475 219.564 238.489C222.533 238.502 224.929 240.92 224.915 243.889C224.902 246.858 222.484 249.254 219.515 249.24C216.546 249.227 214.151 246.809 214.164 243.84Z" fill="#F0EFED" stroke="black" stroke-width="0.977408"/>
<path d="M226.38 296.271C223.141 296.256 220.504 298.87 220.489 302.109C220.474 305.348 223.088 307.985 226.327 308C229.565 308.015 232.203 305.401 232.218 302.162C232.232 298.923 229.619 296.286 226.38 296.271Z" fill="black"/>
<path d="M214.164 299.84C214.178 296.871 216.595 294.475 219.564 294.489C222.533 294.502 224.929 296.92 224.915 299.889C224.902 302.858 222.484 305.254 219.515 305.24C216.546 305.227 214.151 302.809 214.164 299.84Z" fill="#F0EFED" stroke="black" stroke-width="0.977408"/>
<path d="M226.38 353.438C223.141 353.423 220.504 356.037 220.489 359.276C220.474 362.515 223.088 365.152 226.327 365.167C229.565 365.182 232.203 362.568 232.218 359.329C232.232 356.09 229.619 353.453 226.38 353.438Z" fill="black"/>
<path d="M214.164 357.007C214.178 354.038 216.595 351.642 219.564 351.656C222.533 351.669 224.929 354.087 224.915 357.056C224.902 360.025 222.484 362.421 219.515 362.407C216.546 362.394 214.151 359.976 214.164 357.007Z" fill="#F0EFED" stroke="black" stroke-width="0.977408"/>
<path d="M226.38 408.271C223.141 408.256 220.504 410.87 220.489 414.109C220.474 417.348 223.088 419.985 226.327 420C229.565 420.015 232.203 417.401 232.218 414.162C232.232 410.923 229.619 408.286 226.38 408.271Z" fill="black"/>
<path d="M214.164 411.84C214.178 408.871 216.595 406.475 219.564 406.489C222.533 406.502 224.929 408.92 224.915 411.889C224.902 414.858 222.484 417.254 219.515 417.24C216.546 417.227 214.151 414.809 214.164 411.84Z" fill="#F0EFED" stroke="black" stroke-width="0.977408"/>
<defs>
<linearGradient id="paint0_linear_204_7852" x1="1575.19" y1="744.753" x2="1191.21" y2="-102.073" gradientUnits="userSpaceOnUse">
<stop offset="0.121234" stop-color="#F1EFED"/>
<stop offset="0.488143" stop-color="#DDDDDD" stop-opacity="0.22"/>
<stop offset="1" stop-color="#F1EFED"/>
</linearGradient>
<linearGradient id="paint1_linear_204_7852" x1="773" y1="516.035" x2="595.884" y2="68.3717" gradientUnits="userSpaceOnUse">
<stop offset="0.121234" stop-color="#F1EFED"/>
<stop offset="0.488143" stop-color="#DDDDDD" stop-opacity="0.22"/>
<stop offset="1" stop-color="#F1EFED"/>
</linearGradient>
<linearGradient id="paint2_linear_204_7852" x1="78.9162" y1="493.324" x2="76.2014" y2="439.436" gradientUnits="userSpaceOnUse">
<stop stop-color="#F1EFED"/>
<stop offset="0.534758" stop-color="#DDDDDD" stop-opacity="0.22"/>
<stop offset="1" stop-color="#F1EFED"/>
</linearGradient>
<linearGradient id="paint3_linear_204_7852" x1="1036.5" y1="476.108" x2="1036.18" y2="453.152" gradientUnits="userSpaceOnUse">
<stop stop-color="#F1EFED"/>
<stop offset="0.534758" stop-color="#DDDDDD" stop-opacity="0.22"/>
<stop offset="1" stop-color="#F1EFED"/>
</linearGradient>
<linearGradient id="paint4_linear_204_7852" x1="94.8884" y1="503.064" x2="-50.2699" y2="209.999" gradientUnits="userSpaceOnUse">
<stop stop-color="#F1EFED"/>
<stop offset="0.534758" stop-color="#DDDDDD" stop-opacity="0.22"/>
<stop offset="1" stop-color="#F1EFED"/>
</linearGradient>
<linearGradient id="paint5_linear_204_7852" x1="913.861" y1="531.55" x2="748.693" y2="230.919" gradientUnits="userSpaceOnUse">
<stop stop-color="#F1EFED"/>
<stop offset="0.534758" stop-color="#DDDDDD" stop-opacity="0.22"/>
<stop offset="1" stop-color="#F1EFED"/>
</linearGradient>
</defs>
</svg>
