<svg xmlns="http://www.w3.org/2000/svg" width="355" height="241" viewBox="0 0 355 241" fill="none">
    <path d="M22.0463 39.9087L28.8355 38.9752L29.0674 39.3223L22.3245 40.1644L22.0463 39.9087Z" fill="black" />
    <path d="M43.1374 37.7287L58.1398 37.8137L58.5158 38.3449L43.5134 38.2599L43.1374 37.7287Z" fill="black" />
    <path d="M74.1868 39.631C79.5467 40.1395 85.0319 40.8273 90.4703 41.6073L90.7528 42.3299C85.3144 41.5498 79.8759 40.7697 74.516 40.2613L74.1868 39.631Z" fill="black" />
    <path d="M107.351 44.3063C113.117 45.4793 119.006 46.8397 124.796 48.3985L124.918 49.4565C119.129 47.8978 113.289 46.4382 107.524 45.2652L107.351 44.3063Z" fill="black" />
    <path d="M141.451 54.108C147.328 56.0841 153.28 58.3479 159.132 60.81L158.807 61.8908C152.955 59.4287 147.229 57.1551 141.353 55.1789L141.451 54.108Z" fill="black" />
    <path d="M175.903 68.2157C181.496 71.0449 187.158 74.1724 192.539 77.4215L191.78 78.4878C186.399 75.2387 180.912 72.1996 175.319 69.3704L175.903 68.2157Z" fill="black" />
    <path d="M208.336 87.6991C213.663 91.1984 218.721 94.7913 223.51 98.478L222.248 99.2188C217.413 95.6237 212.355 92.0307 207.25 88.5293L208.336 87.6991Z" fill="black" />
    <path d="M236.582 109.088L243.218 115.04C244.25 116.034 245.504 117.022 246.536 118.016L249.632 120.998L247.84 121.507L244.744 118.525C243.712 117.531 242.632 116.631 241.6 115.637L235.139 109.774L236.582 109.088Z" fill="black" />
    <path d="M260.672 132.519C264.194 136.399 267.671 140.368 270.767 144.254L268.598 144.372C265.501 140.486 262.192 136.602 258.671 132.722L260.672 132.519Z" fill="black" />
    <path d="M280.444 157.789C283.108 161.62 285.684 165.624 287.928 169.459L285.494 169.308C283.25 165.473 280.797 161.64 278.133 157.808L280.444 157.789Z" fill="black" />
    <path d="M294.348 182.125L300.002 194.074L296.964 193.534L291.617 181.852L294.348 182.125Z" fill="black" />
    <path d="M304.053 204.362L307.152 216.301L304.108 215.596L301.131 203.837L304.053 204.362Z" fill="black" />
    <path d="M310.442 228.558L313.196 240.214L310.06 239.571L307.182 227.735L310.442 228.558Z" fill="black" />
    <path d="M161.633 76.9453L170.84 96.2473L192.268 98.0004L183.062 78.6983L161.633 76.9453Z" fill="black" />
    <path d="M195.286 61.1237L183.064 78.6727L192.27 97.9748L204.492 80.4258L195.286 61.1237Z" fill="#F1EFED" />
    <path d="M195.286 61.1237L173.857 59.3706L161.635 76.9196L183.064 78.6727L195.286 61.1237Z" fill="#F1EFED" />
    <path
        d="M173.857 59.3706L173.939 58.3739C173.584 58.3449 173.24 58.5069 173.037 58.7991L173.857 59.3706ZM195.286 61.1237L196.188 60.6932C196.035 60.3717 195.722 60.1561 195.367 60.127L195.286 61.1237ZM161.635 76.9196L160.815 76.3481C160.61 76.6417 160.578 77.0222 160.731 77.3459C160.883 77.6696 161.197 77.8871 161.554 77.9163L161.635 76.9196ZM161.633 76.9453L161.715 75.9486C161.358 75.9194 161.013 76.083 160.81 76.3776C160.607 76.6722 160.577 77.0528 160.731 77.3758L161.633 76.9453ZM170.84 96.2473L169.937 96.6778C170.09 96.9993 170.403 97.215 170.758 97.244L170.84 96.2473ZM192.268 98.0004L192.186 98.9971C192.543 99.0263 192.888 98.8627 193.091 98.5681C193.294 98.2735 193.325 97.8929 193.171 97.5699L192.268 98.0004ZM183.062 78.6983L183.964 78.2678C183.811 77.9464 183.498 77.7307 183.143 77.7017L183.062 78.6983ZM192.27 97.9748L191.367 98.4053C191.521 98.7268 191.834 98.9424 192.188 98.9714C192.543 99.0005 192.887 98.8385 193.091 98.5463L192.27 97.9748ZM204.492 80.4258L205.313 80.9973C205.518 80.7023 205.549 80.3197 205.395 79.9953L204.492 80.4258ZM173.776 60.3673L195.204 62.1204L195.367 60.127L173.939 58.3739L173.776 60.3673ZM194.465 60.5522L182.243 78.1012L183.884 79.2442L196.106 61.6952L194.465 60.5522ZM183.145 77.676L161.717 75.9229L161.554 77.9163L182.982 79.6694L183.145 77.676ZM162.456 77.4911L174.678 59.9421L173.037 58.7991L160.815 76.3481L162.456 77.4911ZM160.731 77.3758L169.937 96.6778L171.742 95.8168L162.536 76.5147L160.731 77.3758ZM170.758 97.244L192.186 98.9971L192.35 97.0038L170.921 95.2507L170.758 97.244ZM193.171 97.5699L183.964 78.2678L182.159 79.1289L191.365 98.4309L193.171 97.5699ZM183.143 77.7017L161.715 75.9486L161.552 77.9419L182.98 79.695L183.143 77.7017ZM182.161 79.1032L191.367 98.4053L193.173 97.5443L183.966 78.2422L182.161 79.1032ZM193.091 98.5463L205.313 80.9973L203.672 79.8543L191.449 97.4033L193.091 98.5463ZM205.395 79.9953L196.188 60.6932L194.383 61.5542L203.59 80.8563L205.395 79.9953Z"
        fill="black"
    />
    <path
        d="M250.006 119.483L250.048 119.471L250.089 119.456C252.885 118.42 255.529 118.733 257.256 120.256C257.413 120.394 257.56 120.54 257.697 120.693L257.78 120.785L257.881 120.859C258.107 121.024 258.328 121.201 258.543 121.39L276.524 137.24L262.963 152.674L244.985 136.826C244.77 136.637 244.566 136.44 244.374 136.236L244.289 136.145L244.186 136.074C244.017 135.958 243.855 135.83 243.698 135.692L242.911 136.585L243.698 135.692C241.97 134.169 241.323 131.58 241.994 128.669L242.004 128.627L242.011 128.584C242.268 126.921 242.986 125.309 244.181 123.949L245.694 122.227C246.889 120.867 248.393 119.95 250.006 119.483Z"
        fill="#F1EFED"
        stroke="black"
        stroke-width="2.38"
    />
    <path
        d="M275.019 149.173C273.051 151.43 270.753 152.937 268.677 153.589C266.578 154.248 264.914 153.988 263.898 153.085C262.882 152.182 262.414 150.55 262.796 148.365C263.173 146.205 264.363 143.713 266.331 141.457C268.299 139.201 270.597 137.693 272.672 137.041C274.771 136.382 276.435 136.643 277.452 137.545C278.468 138.448 278.936 140.081 278.554 142.265C278.177 144.425 276.987 146.917 275.019 149.173Z"
        fill="black"
        stroke="black"
        stroke-width="2.38"
    />
</svg>
