<svg xmlns="http://www.w3.org/2000/svg" width="34" height="35" viewBox="0 0 34 35" fill="none">
    <g id="2">
        <g id="Vector">
            <path
                d="M17.8451 6.05389C17.9707 5.66732 18.2419 5.41432 18.558 5.29491C18.9782 5.1362 19.4778 5.21344 19.8207 5.52663C19.9664 5.65975 20.0838 5.83551 20.1548 6.0539L22.544 13.4073C22.7066 13.9076 23.1728 14.2463 23.6989 14.2463L30.36 14.2463H31.4307C31.7793 14.2463 32.0676 14.3785 32.2758 14.5826C32.7704 15.067 32.8141 15.9565 32.1444 16.443L25.8893 20.9876C25.4637 21.2968 25.2856 21.8449 25.4482 22.3452L27.8374 29.6986C28.2009 30.8174 26.9205 31.7477 25.9688 31.0562L19.7137 26.5116C19.2881 26.2024 18.7118 26.2024 18.2862 26.5116L12.031 31.0562C11.4861 31.4522 10.8334 31.3163 10.4432 30.9179C10.152 30.6205 10.0071 30.1768 10.1624 29.6986L10.4763 28.7328L12.5517 22.3452C12.7143 21.8449 12.5362 21.2968 12.1106 20.9876L5.85541 16.443C5.80205 16.4042 5.75322 16.3629 5.70878 16.3194C5.70166 16.3124 5.69465 16.3054 5.68775 16.2983C5.47287 16.0778 5.36712 15.8053 5.35395 15.5317C5.32316 14.8919 5.79878 14.2463 6.56915 14.2463L14.301 14.2463C14.827 14.2463 15.2933 13.9076 15.4558 13.4073L17.8451 6.05389Z"
                fill="black"
            />
            <path
                d="M15.8451 4.05389C16.1416 3.14122 17.2496 2.97311 17.8451 3.54958C17.8542 3.55844 17.8633 3.56748 17.8722 3.5767C17.9941 3.7028 18.0924 3.86187 18.1548 4.0539L18.558 5.29491L20.544 11.4073C20.7066 11.9076 21.1728 12.2463 21.6989 12.2463L29.4307 12.2463C29.7378 12.2463 29.998 12.3489 30.198 12.5128C30.2576 12.5617 30.3119 12.6159 30.3604 12.6746C30.7189 13.1076 30.7664 13.7781 30.36 14.2463C30.2986 14.317 30.2269 14.3831 30.1444 14.443L23.8893 18.9876C23.4637 19.2968 23.2856 19.8449 23.4482 20.3452L25.8374 27.6986C26.2009 28.8174 24.9205 29.7477 23.9688 29.0562L17.7137 24.5116C17.2881 24.2024 16.7118 24.2024 16.2862 24.5116L10.4763 28.7328L10.031 29.0562C9.50594 29.4377 8.88075 29.3255 8.48685 28.9603C8.46339 28.9386 8.44074 28.9159 8.41899 28.8924C8.14409 28.5955 8.01145 28.1633 8.16243 27.6986L10.5517 20.3452C10.7143 19.8449 10.5362 19.2968 10.1106 18.9876L5.35395 15.5317L3.85541 14.443C3.82233 14.419 3.79098 14.3939 3.76135 14.368C3.71708 14.3293 3.67664 14.2887 3.6399 14.2463C2.99373 13.5019 3.49482 12.2463 4.56915 12.2463L12.301 12.2463C12.827 12.2463 13.2933 11.9076 13.4558 11.4073L15.8451 4.05389Z"
                fill="black"
            />
            <path d="M18.1548 4.0539L18.558 5.29491C18.9782 5.1362 19.4778 5.21344 19.8207 5.52663L17.8722 3.5767C17.9941 3.7028 18.0924 3.86187 18.1548 4.0539Z" fill="black" />
            <path d="M30.36 14.2463H31.4307C31.7793 14.2463 32.0676 14.3785 32.2758 14.5826L30.3604 12.6746C30.7189 13.1076 30.7664 13.7781 30.36 14.2463Z" fill="black" />
            <path d="M5.35395 15.5317L3.85541 14.443C3.82233 14.419 3.79098 14.3939 3.76135 14.368L5.68775 16.2983C5.47287 16.0778 5.36712 15.8053 5.35395 15.5317Z" fill="black" />
            <path d="M10.1624 29.6986L10.4763 28.7328L10.031 29.0562C9.50594 29.4377 8.88075 29.3255 8.48685 28.9603L10.4432 30.9179C10.152 30.6205 10.0071 30.1768 10.1624 29.6986Z" fill="black" />
            <path
                d="M6.04401 15.9475C5.92052 15.8198 5.86098 15.6658 5.85337 15.5077L6.04401 15.9475ZM6.04401 15.9475L6.04166 15.9451M18.3206 6.2084C18.322 6.20407 18.3234 6.19977 18.3249 6.19551L20.0685 11.5618C20.298 12.2681 20.9562 12.7463 21.6989 12.7463H21.8036L22.0685 13.5618C22.298 14.2681 22.9562 14.7463 23.6989 14.7463L28.8763 14.7463L23.5954 18.5831C22.9946 19.0197 22.7431 19.7934 22.9726 20.4998L25.3619 27.8531C25.5757 28.5112 24.8225 29.0585 24.2627 28.6517L18.0076 24.1071C17.4067 23.6706 16.5931 23.6706 15.9923 24.1071L11.4273 27.4237L13.0272 22.4998C13.2567 21.7934 13.0053 21.0197 12.4045 20.5831L11.0744 19.6167C10.9887 19.2107 10.7566 18.839 10.4045 18.5831L5.87395 15.2915C5.94784 14.9881 6.20724 14.7463 6.56915 14.7463L14.301 14.7463C15.0436 14.7463 15.7018 14.2681 15.9313 13.5618L18.3206 6.2084ZM23.0196 13.2528L22.855 12.7463L29.4307 12.7463C29.612 12.7463 29.7552 12.8024 29.8647 12.8866L29.9884 13.0097C30.1541 13.2217 30.1936 13.5084 30.0907 13.7463L23.6989 13.7463C23.3894 13.7463 23.1152 13.5471 23.0196 13.2528ZM30.5654 14.7463H31.4307C31.6453 14.7463 31.8088 14.825 31.9259 14.9397C31.9259 14.9397 31.9259 14.9397 31.9259 14.9397C32.2306 15.2382 32.2358 15.7586 31.8505 16.0385L25.5954 20.5831C24.9946 21.0197 24.7431 21.7934 24.9726 22.4998L27.3619 29.8531C27.5757 30.5112 26.8225 31.0585 26.2627 30.6517L25.0318 29.7574C25.946 29.5582 26.6599 28.612 26.313 27.5441L23.9237 20.1907C23.8281 19.8964 23.9328 19.574 24.1832 19.3921L30.4383 14.8475C30.4827 14.8153 30.5251 14.7815 30.5654 14.7463ZM17.4198 24.9161L18.6562 25.8144C18.4216 25.8624 18.1949 25.9599 17.9923 26.1071L11.7371 30.6517C11.4192 30.8827 11.0411 30.8138 10.8005 30.5681L10.8005 30.5681L10.7989 30.5665C10.6278 30.3907 10.5452 30.1386 10.638 29.8531L10.9016 29.0418L16.5801 24.9161C16.8304 24.7342 17.1694 24.7342 17.4198 24.9161ZM8.78025 28.5466C8.62234 28.3722 8.54837 28.1289 8.63796 27.8531L10.9434 20.7577L11.8167 21.3921C12.067 21.574 12.1718 21.8964 12.0762 22.1907L10.0509 28.4237L9.73713 28.6517C9.43243 28.8731 9.07494 28.819 8.83294 28.5993L8.78025 28.5466Z"
                stroke="black"
            />
        </g>
        <path
            id="Star 8"
            d="M17.6793 4.20878L20.0686 11.5622C20.2981 12.2685 20.9563 12.7467 21.699 12.7467L29.4308 12.7467C30.1227 12.7467 30.4104 13.6322 29.8506 14.0389L23.5955 18.5835C22.9946 19.02 22.7432 19.7938 22.9727 20.5001L25.362 27.8535C25.5758 28.5116 24.8226 29.0588 24.2628 28.6521L18.0076 24.1075C17.4068 23.6709 16.5932 23.6709 15.9924 24.1075L9.7372 28.6521C9.17741 29.0588 8.42421 28.5116 8.63803 27.8535L11.0273 20.5001C11.2568 19.7938 11.0054 19.02 10.4045 18.5835L4.14938 14.0389C3.58958 13.6322 3.87728 12.7467 4.56922 12.7467L12.301 12.7467C13.0437 12.7467 13.7019 12.2685 13.9314 11.5622L16.3207 4.20878C16.5345 3.55071 17.4655 3.5507 17.6793 4.20878Z"
            fill="#F2EA86"
            stroke="black"
        />
    </g>
</svg>
