<svg xmlns="http://www.w3.org/2000/svg" width="509" height="544" viewBox="0 0 509 544" fill="none">
    <path d="M78.6465 148.026L81.8023 150.601L81.6362 150.767L78.5635 148.192L78.6465 148.026Z" fill="black" />
    <path d="M87.7823 155.915L93.2635 161.726L93.0143 161.975L87.5332 156.164L87.7823 155.915Z" fill="black" />
    <path d="M98.3293 167.955C99.9072 170.114 101.402 172.355 102.814 174.597L102.399 174.846C100.987 172.605 99.575 170.363 97.9971 168.204L98.3293 167.955Z" fill="black" />
    <path d="M106.717 181.655C107.88 184.063 108.959 186.554 109.873 189.045L109.208 189.294C108.295 186.803 107.298 184.312 106.136 181.904L106.717 181.655Z" fill="black" />
    <path d="M112.282 196.768C112.946 199.342 113.444 201.999 113.776 204.656L112.946 204.739C112.614 202.082 112.199 199.508 111.534 196.934L112.282 196.768Z" fill="black" />
    <path d="M114.274 212.71C114.274 215.367 114.108 218.107 113.776 220.765L112.862 220.682C113.194 218.024 113.361 215.367 113.361 212.71H114.274Z" fill="black" />
    <path d="M112.447 228.736C111.866 231.394 111.118 233.968 110.205 236.459L109.208 236.127C110.038 233.635 110.786 231.061 111.45 228.487L112.447 228.736Z" fill="black" />
    <path d="M107.215 243.932L105.388 247.585C105.056 248.167 104.807 248.831 104.475 249.412L103.478 251.156L102.481 250.575L103.478 248.831C103.81 248.25 104.059 247.668 104.392 247.087L106.219 243.517L107.215 243.932Z" fill="black" />
    <path d="M99.16 257.882C97.5821 260.041 95.9212 262.199 94.1772 264.192L93.2637 263.362C95.0077 261.369 96.6686 259.293 98.2465 257.134L99.16 257.882Z" fill="black" />
    <path d="M88.5297 270.088C86.6196 271.914 84.5434 273.741 82.4672 275.401L81.6367 274.405C83.7129 272.745 85.706 271.001 87.6161 269.175L88.5297 270.088Z" fill="black" />
    <path d="M76.073 280.218L69.2631 284.618L68.5156 283.373L75.2425 279.138L76.073 280.218Z" fill="black" />
    <path d="M62.2039 288.521L54.9788 292.091L54.3975 290.763L61.5395 287.276L62.2039 288.521Z" fill="black" />
    <path d="M47.6698 295.413L40.4447 298.734L39.7803 297.406L47.0885 294.002L47.6698 295.413Z" fill="black" />
    <path
        d="M39.2824 302.139C40.5281 302.471 41.7738 302.554 43.1026 302.72C44.4313 302.804 45.7601 302.887 47.0889 302.887V304.381C45.7601 304.381 44.4313 304.298 43.0195 304.215C41.6908 304.132 40.279 303.966 38.9502 303.634L39.2824 302.139Z"
        fill="black"
    />
    <path d="M55.0615 302.637L63.0341 302.222L63.1171 303.8L55.1446 304.215L55.0615 302.637Z" fill="black" />
    <path d="M71.0068 301.558L78.9794 300.894L79.1455 302.472L71.1729 303.136L71.0068 301.558Z" fill="black" />
    <path d="M86.9512 300.063L94.9237 299.15L95.0898 300.811L87.1173 301.641L86.9512 300.063Z" fill="black" />
    <path d="M102.896 298.237L110.869 297.323L111.035 298.984L103.063 299.897L102.896 298.237Z" fill="black" />
    <path d="M118.759 296.327L126.731 295.33L126.981 297.074L119.008 297.988L118.759 296.327Z" fill="black" />
    <path d="M134.704 294.334L142.677 293.338L142.843 294.999L134.953 295.995L134.704 294.334Z" fill="black" />
    <path d="M150.566 292.258L158.539 291.262L158.788 292.923L150.816 293.919L150.566 292.258Z" fill="black" />
    <path d="M166.512 290.182L174.401 289.186L174.65 290.763L166.678 291.843L166.512 290.182Z" fill="black" />
    <path d="M182.373 288.106L190.346 287.027L190.512 288.605L182.539 289.684L182.373 288.106Z" fill="black" />
    <path d="M198.235 285.948L206.208 284.868L206.374 286.446L198.484 287.525L198.235 285.948Z" fill="black" />
    <path d="M214.181 283.872L222.07 282.792L222.319 284.204L214.347 285.366L214.181 283.872Z" fill="black" />
    <path d="M230.043 281.796L238.016 280.716L238.182 282.045L230.209 283.125L230.043 281.796Z" fill="black" />
    <path d="M245.987 279.72L253.877 278.64L254.043 279.886L246.153 280.966L245.987 279.72Z" fill="black" />
    <path d="M261.85 277.644L269.822 276.647L269.988 277.81L262.016 278.89L261.85 277.644Z" fill="black" />
    <path d="M277.795 275.651L285.767 274.655L285.851 275.734L277.878 276.814L277.795 275.651Z" fill="black" />
    <path d="M293.657 273.741L301.63 272.828L301.796 273.741L293.823 274.738L293.657 273.741Z" fill="black" />
    <path d="M309.602 271.831L317.574 271.001L317.657 271.831L309.768 272.828L309.602 271.831Z" fill="black" />
    <path d="M325.547 270.088L333.519 269.258L333.602 270.088L325.63 270.919L325.547 270.088Z" fill="black" />
    <path d="M341.492 268.51L349.548 267.763V268.427L341.575 269.258L341.492 268.51Z" fill="black" />
    <path d="M357.521 267.015L365.493 266.351L365.576 267.098L357.521 267.763V267.015Z" fill="black" />
    <path d="M373.466 265.853L381.521 265.438V266.102L373.549 266.517L373.466 265.853Z" fill="black" />
    <path d="M389.577 265.106H397.55V265.687L389.577 265.77V265.106Z" fill="black" />
    <path d="M405.604 265.438C408.262 265.687 410.92 266.019 413.577 266.767L413.411 267.348C410.92 266.6 408.179 266.268 405.604 266.102V265.438Z" fill="black" />
    <path
        d="M417.065 272.745C416.65 273.326 416.235 273.824 415.82 274.322C415.404 274.821 414.989 275.319 414.491 275.817C413.577 276.813 412.664 277.726 411.667 278.723L411.252 278.307C412.249 277.394 413.162 276.481 414.076 275.485C414.491 274.987 414.989 274.488 415.404 273.99C415.82 273.492 416.235 272.911 416.65 272.413L417.065 272.745Z"
        fill="black"
    />
    <path d="M405.439 283.871C403.28 285.449 401.037 286.943 398.795 288.355L398.463 287.857C400.705 286.445 402.947 284.951 405.107 283.373L405.439 283.871Z" fill="black" />
    <path d="M391.819 292.424L384.677 296.077L384.428 295.496L391.487 291.843L391.819 292.424Z" fill="black" />
    <path d="M377.369 299.482L370.061 302.637L369.812 302.056L377.12 298.901L377.369 299.482Z" fill="black" />
    <path d="M362.587 305.627L355.112 308.533L354.863 307.868L362.338 305.046L362.587 305.627Z" fill="black" />
    <path d="M347.556 311.273L339.998 313.848L339.749 313.1L347.306 310.526L347.556 311.273Z" fill="black" />
    <path d="M332.357 316.421L324.717 318.83L324.468 317.999L332.108 315.591L332.357 316.421Z" fill="black" />
    <path d="M317.076 321.237L309.436 323.563L309.104 322.649L316.827 320.407L317.076 321.237Z" fill="black" />
    <path d="M301.713 325.804L293.989 328.046L293.74 327.05L301.464 324.891L301.713 325.804Z" fill="black" />
    <path d="M286.267 330.205L278.543 332.364L278.294 331.368L286.017 329.208L286.267 330.205Z" fill="black" />
    <path d="M270.819 334.523L263.096 336.599L262.764 335.436L270.57 333.443L270.819 334.523Z" fill="black" />
    <path d="M255.372 338.675L247.566 340.668L247.316 339.505L255.04 337.512L255.372 338.675Z" fill="black" />
    <path d="M239.843 342.744L232.119 344.737L231.787 343.491L239.511 341.498L239.843 342.744Z" fill="black" />
    <path d="M224.312 346.812L216.589 348.805L216.257 347.477L223.98 345.483L224.312 346.812Z" fill="black" />
    <path d="M208.782 350.798L201.059 352.79L200.644 351.379L208.45 349.386L208.782 350.798Z" fill="black" />
    <path d="M193.253 354.783L185.529 356.776L185.114 355.364L192.921 353.372L193.253 354.783Z" fill="black" />
    <path d="M177.806 358.852L169.999 360.844L169.584 359.35L177.39 357.274L177.806 358.852Z" fill="black" />
    <path d="M162.275 362.921L154.552 364.996L154.054 363.336L161.86 361.343L162.275 362.921Z" fill="black" />
    <path d="M146.746 367.073L139.023 369.148L138.607 367.488L146.331 365.412L146.746 367.073Z" fill="black" />
    <path d="M131.299 371.307L123.575 373.466L123.077 371.722L130.884 369.647L131.299 371.307Z" fill="black" />
    <path d="M115.853 375.625L108.212 377.867L107.714 376.206L115.354 373.965L115.853 375.625Z" fill="black" />
    <path d="M100.488 380.192L92.8479 382.517L92.2666 380.773L99.99 378.448L100.488 380.192Z" fill="black" />
    <path d="M85.208 384.925L77.5677 387.416L76.9863 385.672L84.6267 383.181L85.208 384.925Z" fill="black" />
    <path d="M70.0098 389.99L62.4525 392.564L61.7881 390.82L69.3454 388.164L70.0098 389.99Z" fill="black" />
    <path d="M54.8945 395.305C52.4031 396.301 49.9947 397.297 47.6694 398.542L46.7559 396.799C49.1642 395.554 51.6557 394.474 54.1471 393.561L54.8945 395.305Z" fill="black" />
    <path
        d="M41.441 402.777C41.2749 403.026 41.1919 403.192 41.1088 403.358C41.0258 403.524 41.1088 403.608 41.1088 403.691C41.1919 403.857 41.6071 404.272 42.1884 404.521C43.2681 405.102 44.5138 405.434 45.7595 405.766L45.2612 407.676C43.9324 407.344 42.6037 406.928 41.2749 406.264C40.6105 405.849 39.8631 405.517 39.3648 404.521C39.1157 403.94 39.1157 403.358 39.2818 402.86C39.4479 402.362 39.697 402.03 39.8631 401.698L41.441 402.777Z"
        fill="black"
    />
    <path d="M53.5666 407.262L61.4561 408.258L61.2069 410.251L53.2344 409.255L53.5666 407.262Z" fill="black" />
    <path d="M69.4288 409.088L77.4014 409.67L77.2353 411.746L69.2627 411.082L69.4288 409.088Z" fill="black" />
    <path d="M85.3741 410.251L93.3467 410.749L93.2636 412.742L85.208 412.244L85.3741 410.251Z" fill="black" />
    <path d="M101.318 411.165L109.374 411.497L109.291 413.49L101.235 413.158L101.318 411.165Z" fill="black" />
    <path d="M117.347 411.829L125.485 412.161L125.402 414.154L117.264 413.822L117.347 411.829Z" fill="black" />
    <path d="M133.51 412.428L133.441 414.42L141.492 414.696L141.56 412.704L133.51 412.428Z" fill="black" />
    <path d="M149.569 412.991L157.542 413.24L157.459 415.233L149.486 414.984L149.569 412.991Z" fill="black" />
    <path d="M165.598 413.489L173.57 413.738V415.649L165.515 415.399L165.598 413.489Z" fill="black" />
    <path d="M181.626 413.905L189.599 414.154V416.064L181.543 415.898L181.626 413.905Z" fill="black" />
    <path d="M197.654 414.403L205.627 414.569V416.479L197.571 416.313L197.654 414.403Z" fill="black" />
    <path d="M213.682 414.818L221.654 414.984V416.894L213.599 416.645L213.682 414.818Z" fill="black" />
    <path d="M229.711 415.233L237.684 415.482V417.226L229.628 417.06L229.711 415.233Z" fill="black" />
    <path d="M245.738 415.648L253.711 415.897V417.641L245.655 417.475L245.738 415.648Z" fill="black" />
    <path d="M261.767 416.146L269.739 416.396V418.057L261.684 417.807L261.767 416.146Z" fill="black" />
    <path d="M277.795 416.645L285.768 416.977V418.472L277.712 418.305L277.795 416.645Z" fill="black" />
    <path d="M293.823 417.226L301.796 417.475V418.97L293.74 418.721L293.823 417.226Z" fill="black" />
    <path d="M309.851 417.807L317.823 418.139V419.551L309.768 419.219L309.851 417.807Z" fill="black" />
    <path d="M325.88 418.471L333.852 418.804L333.769 420.132L325.797 419.8L325.88 418.471Z" fill="black" />
    <path d="M341.907 419.219L349.88 419.634L349.797 420.88L341.824 420.548L341.907 419.219Z" fill="black" />
    <path d="M357.936 420.132L365.908 420.548L365.825 421.793L357.853 421.295L357.936 420.132Z" fill="black" />
    <path d="M373.881 421.128L381.937 421.71L381.853 422.789L373.798 422.291L373.881 421.128Z" fill="black" />
    <path d="M389.909 422.374L397.882 423.121L397.799 424.118L389.826 423.454L389.909 422.374Z" fill="black" />
    <path d="M405.855 423.952L413.827 424.948L413.744 425.862L405.771 424.948L405.855 423.952Z" fill="black" />
    <path d="M421.799 426.11L429.688 427.605L429.522 428.436L421.633 427.024L421.799 426.11Z" fill="black" />
    <path
        d="M437.495 429.764C438.741 430.179 439.987 430.76 441.232 431.425C441.814 431.757 442.395 432.172 442.976 432.587C443.558 433.002 444.056 433.417 444.554 433.915L444.056 434.413C443.558 433.998 443.059 433.583 442.561 433.168C442.063 432.753 441.482 432.421 440.9 432.089C439.738 431.425 438.492 431.009 437.246 430.511L437.495 429.764Z"
        fill="black"
    />
    <path d="M448.042 441.057C448.125 442.468 447.876 443.797 447.461 445.126C447.046 446.454 446.464 447.617 445.717 448.779L445.219 448.447C446.548 446.205 447.461 443.631 447.378 441.057H448.042Z" fill="black" />
    <path d="M440.817 455.173C438.99 457.082 436.997 458.909 434.921 460.652L434.672 460.32C436.665 458.577 438.658 456.75 440.485 454.841L440.817 455.173Z" fill="black" />
    <path d="M428.526 465.552L421.882 470.036L421.716 469.786L428.36 465.22L428.526 465.552Z" fill="black" />
    <path d="M415.239 474.271L411.751 476.264L411.668 476.181L415.073 474.105L415.239 474.271Z" fill="black" />
    <path d="M466.481 377.2L483.938 364.422L481.598 342.917L464.141 355.696L466.481 377.2Z" fill="black" />
    <path
        d="M444.318 346.972L446.659 368.477L466.455 377.203L464.115 355.698M444.318 346.972L464.115 355.698M444.318 346.972L461.775 334.194L481.572 342.92L464.115 355.698M466.481 377.2L483.938 364.422L481.598 342.917L464.141 355.696L466.481 377.2Z"
        stroke="black"
        stroke-width="2"
        stroke-miterlimit="10"
        stroke-linecap="round"
        stroke-linejoin="round"
    />
    <path d="M50.4873 147.934L70.3357 143.463L82.4393 104.619L62.5909 109.09L50.4873 147.934Z" fill="black" />
    <path d="M21.1956 64.2219L62.577 109.066L62.5732 109.079L82.4216 104.608L41.0316 59.7539L21.1956 64.2219Z" fill="#F1EFED" />
    <path d="M21.1831 64.2247L15.1351 83.6346L42.7216 113.554L36.6697 132.976L50.4665 147.927L62.5701 109.083L49.0331 94.4055L21.1831 64.2247Z" fill="#F1EFED" />
    <path
        d="M15.1351 83.6346L14.1804 83.3372C14.0741 83.6782 14.1578 84.0499 14.3999 84.3125L15.1351 83.6346ZM21.1869 64.2125L21.9219 63.5344C21.6796 63.2718 21.3156 63.1585 20.9671 63.237C20.6186 63.3155 20.3384 63.574 20.2321 63.9151L21.1869 64.2125ZM62.577 109.066L63.5319 109.363C63.6379 109.022 63.5541 108.651 63.312 108.388L62.577 109.066ZM55.5705 128.191C55.4062 128.718 55.7004 129.279 56.2277 129.443C56.755 129.607 57.3157 129.313 57.48 128.786L55.5705 128.191ZM49.5083 93.4537C49.1338 93.0478 48.5011 93.0224 48.0952 93.397C47.6893 93.7715 47.6639 94.4041 48.0384 94.81L49.5083 93.4537ZM36.6697 132.976L35.715 132.679C35.6087 133.02 35.6925 133.392 35.9348 133.654L36.6697 132.976ZM50.4665 147.927L49.7315 148.606C49.9738 148.868 50.3377 148.982 50.6863 148.903C51.0348 148.824 51.315 148.566 51.4212 148.225L50.4665 147.927ZM62.5701 109.083L63.5248 109.381C63.6311 109.04 63.5474 108.668 63.3052 108.405L62.5701 109.083ZM50.4873 147.934L49.5325 147.637C49.4262 147.978 49.51 148.349 49.7522 148.612C49.9945 148.875 50.3584 148.988 50.707 148.909L50.4873 147.934ZM70.3357 143.463L70.5554 144.439C70.9039 144.36 71.1842 144.102 71.2904 143.761L70.3357 143.463ZM82.4393 104.619L83.3941 104.916C83.5003 104.575 83.4166 104.203 83.1743 103.941C82.9321 103.678 82.5681 103.565 82.2196 103.643L82.4393 104.619ZM62.5909 109.09L62.3712 108.114C62.0226 108.193 61.7424 108.451 61.6361 108.792L62.5909 109.09ZM82.4216 104.608L82.6413 105.583C82.9899 105.505 83.2701 105.246 83.3764 104.905C83.4827 104.564 83.3989 104.192 83.1566 103.93L82.4216 104.608ZM41.0316 59.7539L41.7666 59.0758C41.5244 58.8132 41.1604 58.6999 40.8119 58.7784L41.0316 59.7539ZM21.1831 64.2247L20.9634 63.2492C20.6148 63.3277 20.3346 63.5862 20.2283 63.9273L21.1831 64.2247ZM62.5732 109.079L61.8382 109.757C62.0805 110.019 62.4444 110.133 62.7929 110.054L62.5732 109.079ZM42.7216 113.554L43.6763 113.851C43.7826 113.51 43.6989 113.139 43.4568 112.876L42.7216 113.554ZM16.0899 83.932L22.1416 64.5099L20.2321 63.9151L14.1804 83.3372L16.0899 83.932ZM61.6222 108.769L55.5705 128.191L57.48 128.786L63.5317 109.364L61.6222 108.769ZM35.9348 133.654L49.7315 148.606L51.2015 147.249L37.4047 132.298L35.9348 133.654ZM51.4212 148.225L63.5248 109.381L61.6153 108.786L49.5117 147.63L51.4212 148.225ZM63.3051 108.405L49.5083 93.4537L48.0384 94.81L61.8351 109.761L63.3051 108.405ZM50.707 148.909L70.5554 144.439L70.116 142.488L50.2676 146.958L50.707 148.909ZM71.2904 143.761L83.3941 104.916L81.4846 104.321L69.3809 143.166L71.2904 143.761ZM82.2196 103.643L62.3712 108.114L62.8106 110.065L82.659 105.594L82.2196 103.643ZM61.6361 108.792L49.5325 147.637L51.442 148.231L63.5456 109.387L61.6361 108.792ZM83.1566 103.93L41.7666 59.0758L40.2967 60.4321L81.6867 105.286L83.1566 103.93ZM62.7929 110.054L82.6413 105.583L82.2019 103.632L62.3535 108.103L62.7929 110.054ZM41.7668 113.257L35.715 132.679L37.6245 133.274L43.6763 113.851L41.7668 113.257ZM14.3999 84.3125L41.9863 114.232L43.4568 112.876L15.8704 82.9567L14.3999 84.3125ZM20.4606 64.9001L61.842 109.745L63.312 108.388L21.9305 63.5438L20.4606 64.9001ZM61.6221 108.77L61.6183 108.782L63.5281 109.376L63.5319 109.363L61.6221 108.77ZM40.8119 58.7784L20.9759 63.2464L21.4153 65.1975L41.2513 60.7295L40.8119 58.7784ZM20.9759 63.2464L20.9634 63.2492L21.4028 65.2003L21.4153 65.1975L20.9759 63.2464ZM20.4519 64.8907L20.4606 64.9001L21.9305 63.5438L21.9219 63.5344L20.4519 64.8907ZM20.2283 63.9273L14.1804 83.3372L16.0899 83.932L22.1378 64.5221L20.2283 63.9273ZM63.3052 108.405L49.7683 93.7275L48.298 95.0834L61.8349 109.761L63.3052 108.405ZM49.7681 93.7273L21.9181 63.5466L20.4481 64.9029L48.2982 95.0836L49.7681 93.7273ZM20.4517 64.8905L48.298 95.0834L49.7683 93.7275L21.922 63.5346L20.4517 64.8905ZM48.2982 95.0836L61.8382 109.757L63.3082 108.401L49.7681 93.7273L48.2982 95.0836Z"
        fill="black"
    />
    <path
        d="M483.353 427.799C456.353 403.799 366.996 435.799 392.353 293.299L388.853 262.299L300.353 528.799C300.353 528.799 325.603 527.299 348.478 532.299C371.353 537.299 436.853 551.299 449.853 532.299C459.853 517.684 414.645 494.345 439.249 491.322C463.853 488.299 512.353 498.799 506.853 477.799C501.353 456.799 452.853 458.576 454.853 445.799C456.853 433.023 484.353 438.023 483.353 427.799Z"
        fill="black"
        stroke="black"
        stroke-width="2.38"
    />
    <path
        d="M164.364 430.772C164.198 430.689 163.949 430.523 163.949 430.523C155.565 425.709 151.661 417.659 150.331 414.916L150.329 414.912C148.918 411.84 145.097 403.868 146.841 394.486L147.008 393.821C147.174 393.157 256.879 187.93 208.878 128.56C206.054 125.155 200.656 119.592 190.275 115.357C189.196 115.274 187.452 115.025 185.957 113.863C183.382 111.87 182.967 108.714 182.635 105.808C182.386 103.815 181.888 98.2521 184.877 91.9414C184.877 91.9414 187.12 87.3745 194.428 81.479C195.424 80.7317 196.753 79.7352 198.497 79.8183C199.161 79.8183 199.743 80.0674 200.075 80.1504C211.785 68.1934 226.899 49.2613 234.955 22.6071C236.782 16.7116 238.028 10.9822 238.941 5.66792C240.768 4.92061 242.761 4.25633 244.921 3.67508C254.72 1.101 263.523 2.26349 269.337 3.67508C347.9 37.2213 405.451 63.1282 420.898 71.0996C424.22 72.8433 430.698 76.3308 435.266 83.5548C440.747 92.1905 440.747 101.656 440.248 107.303C434.601 131.466 428.954 155.546 423.307 179.709C424.885 179.876 427.293 180.457 429.286 182.284C433.189 185.854 432.525 191.75 432.11 195.154C431.778 198.392 430.034 207.443 422.144 212.259C419.57 213.837 417.078 214.501 415.417 214.833C409.342 240.661 403.274 266.482 397.209 292.299C371.852 434.799 455.852 403.299 482.852 427.299C483.852 437.523 457.852 430.023 455.852 442.799C453.852 455.576 505.852 460.5 505.852 476.299C505.852 492.098 464.852 483.299 440.248 486.322C415.645 489.345 459.852 516.684 449.852 531.299C436.852 550.299 372.352 534.299 349.477 529.299C326.603 524.299 298.853 530.299 298.853 530.299L164.364 430.772Z"
        fill="#5869DD"
    />
    <path
        d="M146.841 394.486C145.097 403.868 148.918 411.84 150.329 414.912L150.331 414.916C151.661 417.659 155.565 425.709 163.949 430.523C163.949 430.523 164.198 430.689 164.364 430.772L298.853 530.299C298.853 530.299 326.603 524.299 349.477 529.299C372.352 534.299 436.852 550.299 449.852 531.299C459.852 516.684 415.645 489.345 440.248 486.322C464.852 483.299 505.852 492.098 505.852 476.299C505.852 460.5 453.852 455.576 455.852 442.799C457.852 430.023 483.852 437.523 482.852 427.299C455.852 403.299 371.852 434.799 397.209 292.299C403.274 266.482 409.342 240.661 415.417 214.833C417.078 214.501 419.57 213.837 422.144 212.259C430.034 207.443 431.778 198.392 432.11 195.154C432.525 191.75 433.189 185.854 429.286 182.284C427.293 180.457 424.885 179.876 423.307 179.709C428.954 155.546 434.601 131.466 440.248 107.303C440.747 101.656 440.747 92.1905 435.266 83.5548C430.698 76.3308 424.22 72.8433 420.898 71.0996C405.451 63.1282 347.9 37.2213 269.337 3.67508C263.523 2.26349 254.72 1.101 244.921 3.67508C242.761 4.25633 240.768 4.92061 238.941 5.66792C238.028 10.9822 236.782 16.7116 234.955 22.6071C226.899 49.2613 211.785 68.1934 200.075 80.1504C199.743 80.0674 199.161 79.8183 198.497 79.8183C196.753 79.7352 195.424 80.7317 194.428 81.479C187.12 87.3745 184.877 91.9414 184.877 91.9414C181.888 98.2521 182.386 103.815 182.635 105.808C182.967 108.714 183.382 111.87 185.957 113.863C187.452 115.025 189.196 115.274 190.275 115.357C200.656 119.592 206.054 125.155 208.878 128.56C256.879 187.93 147.174 393.157 147.008 393.821M146.841 394.486C146.925 394.153 147.008 393.821 147.008 393.821M146.841 394.486L147.008 393.821"
        stroke="black"
        stroke-width="2.38"
    />
    <path
        d="M96.3525 358.299C98.8538 351.299 124.353 361.799 140.153 344.299L442.852 454.799C451.352 468.799 416.829 466.299 404.854 479.299C392.879 492.299 426.852 511.799 396.399 521.799C375.969 526.799 354.388 518.299 308.352 529.299C262.317 540.299 235.854 489.488 207.854 479.299C179.854 469.11 135.352 477.299 135.352 464.299C136.352 457.299 160.352 460.299 161.852 449.299C163.352 438.299 57.3525 441.799 59.3524 431.799C61.3522 421.799 100.853 422.299 100.853 407.299C100.853 392.299 31.8525 402.834 30.8525 388.799C29.8525 374.765 113.853 384.299 113.853 375.299C111.852 363.799 93.8512 365.299 96.3525 358.299Z"
        fill="black"
        stroke="black"
        stroke-width="2.38"
    />
    <path
        d="M221.826 9.8197C214.684 14.8018 212.442 23.1053 211.529 26.7589L211.013 28.8116C188.547 118.287 176.013 168.21 138.153 341.299C122.354 358.799 97.8549 350.299 95.3536 357.299C92.8523 364.299 109.852 360.799 111.853 372.299C111.853 381.299 27.3526 374.265 28.3526 388.299C29.3526 402.334 98.8536 389.299 98.8536 404.299C98.8536 419.299 58.8537 421.299 56.8538 431.299C54.8539 441.299 161.353 435.299 159.853 446.299C158.353 457.299 134.353 455.799 133.353 462.799C133.353 475.799 177.854 466.11 205.854 476.299C233.854 486.488 260.317 536.799 306.352 525.799C352.388 514.799 373.97 523.299 394.399 518.299C424.852 508.299 390.879 489.299 402.854 476.299C414.829 463.299 449.353 465.799 440.853 451.799C432.353 437.799 357.353 436.299 368.163 307.299L414.829 107.303C415.244 104.895 416.49 96.0101 411.258 86.8763C405.694 77.1612 396.642 73.9228 394.399 73.1755C343.74 51.0051 293.164 28.7517 242.588 6.4983C241.26 6.08312 231.211 3.34297 221.826 9.8197Z"
        fill="url(#paint0_linear_3029_28810)"
        stroke="black"
        stroke-width="2.38"
    />
    <path
        d="M227.647 7.82675C231.799 5.58481 236.699 4.83748 246.499 3.34285C253.641 2.26339 257.378 1.68215 261.779 2.18036C267.427 2.76161 271.911 4.50534 274.901 5.8339C345.574 37.8024 397.479 61.3844 416.746 69.2727C420.234 70.6843 429.536 74.4209 435.432 83.6378C441.079 92.5225 440.996 102.653 440.249 109.213C436.428 125.571 430.698 150.398 423.888 179.543"
        stroke="black"
        stroke-width="2.377"
        stroke-miterlimit="10"
    />
    <path
        d="M346.571 255.105C299.068 233.848 251.565 212.674 204.145 191.417C203.646 191.251 201.819 190.421 200.74 188.345C199.826 186.518 199.992 184.858 200.075 184.276L228.893 60.2219C228.976 59.8067 229.474 57.9799 231.301 56.9005C232.713 55.9871 234.208 56.0701 234.623 56.1532C246 61.1353 374.475 117.516 378.046 120.505C379.79 121.917 380.621 123.661 380.621 123.661C380.621 123.661 381.368 125.321 381.451 127.231C381.617 131.881 354.959 242.65 352.966 251.12C352.384 254.026 349.478 255.77 346.571 255.105Z"
        stroke="black"
        stroke-width="2.377"
        stroke-miterlimit="10"
    />
    <path
        d="M347.65 251.286C301.31 230.61 254.886 209.934 208.546 189.258C208.048 189.092 206.304 188.262 205.224 186.269C204.31 184.525 204.477 182.865 204.56 182.367L232.547 61.8826C232.63 61.4674 233.128 59.7237 234.872 58.6442C236.284 57.8139 237.696 57.8139 238.111 57.8969C249.156 62.713 374.724 117.682 378.212 120.588C379.873 121.917 380.703 123.661 380.703 123.661C380.703 123.661 381.451 125.238 381.534 127.148C381.7 131.632 355.872 239.246 353.879 247.466C353.298 250.206 350.474 251.95 347.65 251.286Z"
        fill="#EDEAE2"
        stroke="black"
        stroke-width="2.377"
        stroke-miterlimit="10"
    />
    <path d="M190.608 221.393C192.435 220.729 194.262 220.065 196.089 219.4" stroke="black" stroke-width="2.377" stroke-miterlimit="10" />
    <path
        d="M224.159 322.208C224.491 322.789 224.325 323.371 224.325 323.537C223.379 327.509 222.481 334.364 221.559 339.724C221.266 341.423 220.971 342.971 220.671 344.23C220.671 344.313 220.505 344.895 219.924 345.227C219.342 345.559 218.595 345.393 218.595 345.393C219.595 348.393 220.638 348.292 223.246 346.299C225.853 344.307 231.853 327.519 228.853 319.143L224.159 322.208Z"
        fill="black"
    />
    <path
        d="M195.516 375.471C196.18 373.976 202.78 345.195 205.853 332.241C204.275 331.244 202.718 330.419 201.238 329.754C201.137 330.18 201.027 330.66 200.91 331.187L200.906 331.207C200.848 331.471 200.791 331.734 200.73 332.002C198.755 341.042 197.353 357.299 194.353 367.299C192.353 368.799 190.436 368.054 189.943 365.799C189.45 363.545 188.853 360.299 186.853 355.799C184.853 351.299 180.642 347.606 180.642 347.606C180.227 347.191 179.645 346.527 179.396 345.613C179.266 345.134 179.272 344.678 179.32 344.305C179.323 344.28 179.326 344.255 179.33 344.23C179.164 344.811 178.809 346.433 179.224 347.18C179.473 347.596 179.971 347.845 180.137 347.928C184.954 349.921 187.543 374.889 192.443 376.882C192.526 376.882 193.44 377.297 194.353 376.799C195.1 376.467 195.433 375.72 195.516 375.471Z"
        fill="black"
    />
    <path
        d="M189.03 303.764C189.056 303.653 189.083 303.541 189.11 303.43M210.954 287.655C210.954 287.738 210.954 287.738 210.954 287.821M210.954 287.655V287.821M210.954 287.655C211.021 286.923 210.82 286.03 210.353 285.491M210.954 287.821C210.871 288.402 209.875 292.637 205.805 309.991M205.805 309.991C206.221 308.497 206.553 307.002 206.885 305.507M205.805 309.991C215.356 314.558 222.249 320.963 223.246 321.378C223.412 321.461 223.91 321.71 224.159 322.208M205.805 309.991L210.805 306.992M201.238 329.754C206.346 330.689 217.924 343.67 218.595 345.393M201.238 329.754C201.115 330.245 201.012 330.716 200.91 331.187M201.238 329.754C201.137 330.18 201.027 330.66 200.91 331.187M201.238 329.754C202.718 330.419 204.275 331.244 205.853 332.241C202.78 345.195 196.18 373.976 195.516 375.471C195.433 375.72 195.1 376.467 194.353 376.799C193.44 377.297 192.526 376.882 192.443 376.882C187.543 374.889 184.954 349.921 180.137 347.928C179.971 347.845 179.473 347.596 179.224 347.18C178.809 346.433 179.164 344.811 179.33 344.23C179.326 344.255 179.323 344.28 179.32 344.305M169.095 297.294C168.514 297.626 168.347 298.207 168.347 298.29C167.102 303.522 165.693 310.799 165.693 316.984C165.693 317.15 165.527 317.731 165.859 318.313C166.109 318.811 166.607 319.06 166.773 319.143C172.353 319.143 174.995 318.129 184.96 322.779C184.96 322.779 181.805 334.653 179.479 343.538C179.44 343.695 179.363 343.966 179.32 344.305M169.095 297.294C169.676 296.962 170.258 297.128 170.424 297.128C170.782 297.436 171.149 297.72 171.524 297.981C176.818 301.669 183.603 300.873 189.11 303.43M169.095 297.294L173.095 293.294M189.943 299.944C189.928 299.997 189.913 300.05 189.898 300.103M224.159 322.208C224.491 322.789 224.325 323.371 224.325 323.537C223.379 327.509 222.481 334.364 221.559 339.724C221.266 341.423 220.971 342.971 220.671 344.23C220.671 344.313 220.505 344.895 219.924 345.227C219.342 345.559 218.595 345.393 218.595 345.393M224.159 322.208L228.853 319.143M218.595 345.393C219.595 348.393 220.638 348.292 223.246 346.299C225.853 344.307 231.853 327.519 228.853 319.143M200.574 332.66C200.629 332.437 200.681 332.218 200.73 332.002M189.898 300.103C189.648 301.165 189.397 302.226 189.144 303.285M189.898 300.103C189.602 301.164 189.372 302.224 189.144 303.285M189.898 300.103C190.032 299.537 190.165 298.971 190.297 298.405M189.144 303.285C189.134 303.334 189.123 303.383 189.113 303.431L189.11 303.43M189.144 303.285C189.133 303.333 189.121 303.382 189.11 303.43M189.144 303.285L189.11 303.43M200.73 332.002C198.755 341.042 197.353 357.299 194.353 367.299C192.353 368.799 190.436 368.054 189.943 365.799C189.45 363.545 188.853 360.299 186.853 355.799C184.853 351.299 180.642 347.606 180.642 347.606C180.227 347.191 179.645 346.527 179.396 345.613C179.266 345.134 179.272 344.678 179.32 344.305M200.73 332.002C200.791 331.734 200.848 331.471 200.906 331.207M200.73 332.002C200.79 331.726 200.849 331.461 200.906 331.207M200.91 331.187L200.906 331.207M200.91 331.187C200.909 331.193 200.907 331.2 200.906 331.207M214.954 283.655C214.954 283.738 214.954 283.738 214.954 283.821M214.954 283.655V283.821M214.954 283.655C215.009 283.049 214.881 282.334 214.571 281.799M214.954 283.821C214.871 284.403 214.874 289.637 210.805 306.992M210.805 306.992C211.22 305.497 211.553 304.002 211.885 302.507M210.805 306.992C220.671 312.799 227.461 317.749 228.853 319.143M172.347 294.291C172.347 294.208 172.513 293.626 173.095 293.294M173.095 293.294C173.676 292.962 174.257 293.128 174.423 293.128C179.017 297.08 184.995 296.896 190.297 298.405M190.297 298.405C191.675 292.525 193.027 286.62 194.428 280.763C194.508 280.468 194.659 280.207 194.853 279.998M194.853 279.998C195.259 279.561 195.859 279.349 196.421 279.518C196.421 279.518 196.848 280.008 197.493 280.706C198.803 282.125 201.012 284.403 202.353 285.164C204.353 286.299 209.792 285.081 209.792 285.081C209.875 285.081 209.875 285.164 209.958 285.164C210.106 285.246 210.238 285.358 210.353 285.491M194.853 279.998L199.621 276.518C199.88 276.443 200.155 276.438 200.421 276.518C200.421 276.518 204.353 280.029 206.353 281.164C208.353 282.299 213.012 280.832 213.791 281.081C214.571 281.331 214.571 281.799 214.571 281.799M210.353 285.491L214.571 281.799"
        stroke="black"
        stroke-width="2.377"
        stroke-miterlimit="10"
    />
    <path
        d="M187.286 181.287C185.376 180.872 184.13 178.879 184.545 176.969L213.197 53.8281C213.612 51.9183 215.605 50.6728 217.515 51.088C219.425 51.5031 220.671 53.496 220.256 55.4058L191.604 178.547C191.189 180.54 189.196 181.785 187.286 181.287Z"
        stroke="black"
        stroke-width="2.377"
        stroke-miterlimit="10"
    />
    <path
        d="M212.947 236.921L212.615 237.751C211.12 241.238 207.051 242.816 203.563 241.321L189.362 235.177C185.874 233.682 184.296 229.614 185.79 226.126L186.123 225.296C187.618 221.808 191.687 220.231 195.175 221.725L209.376 227.87C212.864 229.364 214.442 233.433 212.947 236.921Z"
        stroke="black"
        stroke-width="2.377"
        stroke-miterlimit="10"
    />
    <path
        d="M188.116 222.639C188.448 222.057 189.444 220.314 191.521 219.483C192.683 218.985 193.763 218.985 194.012 218.985C194.843 218.985 195.673 219.151 196.504 219.566C201.652 221.725 206.718 223.884 211.867 226.126C212.698 226.541 214.857 227.704 216.103 230.195C216.85 231.773 216.933 233.101 217.016 233.433C217.016 234.014 217.016 235.011 216.684 236.339C216.269 237.668 214.94 242.484 211.535 243.231C209.874 243.647 207.964 242.899 206.552 242.401C205.805 242.152 205.14 241.82 204.725 241.571"
        stroke="black"
        stroke-width="2.377"
        stroke-miterlimit="10"
    />
    <path d="M276.853 259.299C278.519 258.633 280.186 258.466 281.853 257.799" stroke="black" stroke-width="2.377" stroke-miterlimit="10" />
    <path
        fill-rule="evenodd"
        clip-rule="evenodd"
        d="M301.819 276.799C300.303 277.151 299.857 277.449 298.819 276.03C297.324 279.517 294.854 283.406 290.353 280.948C286.441 278.812 281.398 276.204 278.266 274.763C278.295 274.775 278.324 274.787 278.353 274.799C278.353 274.799 285.077 277.895 290.353 280.948C291.438 281.576 292.462 282.202 293.353 282.799C298.365 286.155 300.174 281.897 301.633 278.467C301.695 278.319 301.757 278.173 301.819 278.03V276.799ZM278.266 274.763C277.795 274.546 277.366 274.355 276.992 274.197C277.269 274.391 277.568 274.501 277.887 274.618C278.01 274.663 278.137 274.71 278.266 274.763Z"
        fill="black"
    />
    <path
        d="M298.819 276.03L299.151 275.199C300.24 272.72 298.699 269.845 296.978 267.888C296.335 267.157 295.528 266.555 294.58 266.149L280.379 260.004C276.891 258.509 273.822 260.087 272.327 263.575L271.995 264.405C270.5 267.892 272.078 271.961 275.566 273.456C275.566 273.456 276.103 273.821 276.992 274.197M298.819 276.03C297.324 279.517 294.854 283.406 290.353 280.948M298.819 276.03C299.857 277.449 300.303 277.151 301.819 276.799V278.03C301.757 278.173 301.695 278.319 301.633 278.467C300.174 281.897 298.365 286.155 293.353 282.799M290.353 280.948C286.441 278.812 281.398 276.204 278.266 274.763M290.353 280.948C285.077 277.895 278.353 274.799 278.353 274.799M290.353 280.948C291.438 281.576 292.462 282.202 293.353 282.799M293.353 282.799C288.126 279.299 278.353 274.799 278.353 274.799M278.353 274.799C278.324 274.787 278.295 274.775 278.266 274.763M276.992 274.197C277.366 274.355 277.795 274.546 278.266 274.763M276.992 274.197C277.269 274.391 277.568 274.501 277.887 274.618C278.01 274.663 278.137 274.71 278.266 274.763"
        stroke="black"
        stroke-width="2.377"
        stroke-miterlimit="10"
    />
    <path
        d="M274.352 260.799C274.684 260.218 275.649 258.675 277.725 257.845C278.887 257.347 279.967 257.347 280.216 257.347C281.047 257.347 281.877 257.513 282.708 257.928C287.857 260.087 292.922 262.246 298.071 264.488C298.902 264.903 301.061 266.066 302.307 268.557C303.054 270.134 303.137 271.463 303.22 271.795C303.22 272.376 303.22 273.373 302.888 274.701C302.473 276.03 301.144 280.846 297.739 281.593"
        stroke="black"
        stroke-width="2.377"
        stroke-miterlimit="10"
    />
    <path d="M321.241 279.103C323.068 278.438 324.895 277.774 326.722 277.11" stroke="black" stroke-width="2.377" stroke-miterlimit="10" />
    <path
        d="M343.498 294.63L343.166 295.46C341.852 299.799 338.853 311.799 333.353 301.299M343.498 294.63C344.993 291.142 343.415 287.074 339.927 285.579L325.726 279.434C322.238 277.94 318.168 279.517 316.673 283.005L316.341 283.835C314.846 287.323 315.865 292.305 319.353 293.799C319.353 293.799 326.353 293.799 333.353 301.299M343.498 294.63H345.853L340.853 306.299H336.853L333.353 301.299"
        stroke="black"
        stroke-width="2.377"
        stroke-miterlimit="10"
    />
    <path
        d="M318.667 280.348C318.999 279.767 319.995 278.023 322.071 277.193C323.234 276.694 324.314 276.694 324.563 276.694C325.393 276.694 326.224 276.86 327.054 277.276C332.203 279.435 337.269 281.593 342.418 283.835C343.249 284.251 345.408 285.413 346.654 287.904C347.401 289.482 347.484 290.81 347.567 291.142C347.567 291.724 347.567 292.72 347.235 294.049C346.82 295.377 343.491 306.193 340.086 306.941C338.425 307.356 336.515 306.608 335.103 306.11C334.356 305.861 333.353 299.799 329.353 297.299C325.353 294.799 325.249 294.805 319.353 293.799"
        stroke="black"
        stroke-width="2.377"
        stroke-miterlimit="10"
    />
    <path
        d="M362.353 263.299C360.854 261.799 360.191 257.763 360.606 255.853L389.257 132.712C389.673 130.802 391.666 129.556 393.576 129.972C395.486 130.387 396.732 132.38 396.317 134.289L368.353 257.299C365.853 266.799 363.853 264.799 362.353 263.299Z"
        stroke="black"
        stroke-width="2.377"
        stroke-miterlimit="10"
    />
    <path
        d="M393.908 129.888C392.911 129.888 392.164 130.221 391.665 130.387C392.911 130.387 394.323 130.553 395.153 131.798C396.067 132.795 395.984 134.206 395.901 134.871C394.406 152.059 369.016 253.063 368.352 256.799C368.269 257.131 367.166 262.174 365.838 263.087C365.09 263.586 362.099 263.299 361.352 263.299C361.352 263.299 362.852 266.799 365.838 265.799C369.852 264.799 370.352 258.299 370.352 258.299C370.852 255.799 376.883 231.44 398.89 135.701C398.974 135.369 399.389 133.708 398.309 132.047C397.562 130.802 396.233 130.138 395.236 129.971C394.655 129.805 394.24 129.888 393.908 129.888Z"
        fill="black"
    />
    <path
        d="M216.269 50.6728C216.767 50.5067 217.598 50.1746 218.511 50.1746C218.843 50.1746 219.259 50.0915 219.84 50.2576C220.836 50.4237 222.165 51.0879 222.913 52.3335C223.992 53.9942 223.577 55.6549 223.494 55.987C201.486 151.726 195.673 176.222 195.175 177.716C195.092 177.883 195.009 178.049 195.009 178.049C194.593 179.045 193.763 179.958 192.766 180.54C192.351 180.789 191.022 181.536 189.361 181.37C188.78 181.287 188.282 181.121 188.033 181.038C188.78 181.038 189.694 180.872 190.441 180.374C191.77 179.46 192.019 177.716 192.102 177.384C192.6 174.644 204.31 124.408 220.504 55.1567C220.587 54.9906 220.836 53.3299 219.757 52.0844C219.009 50.9219 217.681 50.4237 216.269 50.6728Z"
        fill="black"
    />
    <path
        d="M314.099 395.799C312.684 395.467 312.183 393.087 312.016 389.875C310.717 400.297 309.874 409.793 313.352 408.799C320.07 406.88 330.931 387.465 331.797 367.784C328.486 373.894 327.016 374.901 325.267 371.799C323.27 382.79 317.873 396.687 314.099 395.799Z"
        fill="black"
    />
    <path
        d="M312.016 389.875C312.183 393.087 312.684 395.467 314.099 395.799C317.873 396.687 323.27 382.79 325.267 371.799M312.016 389.875C310.717 400.297 309.874 409.793 313.352 408.799C320.07 406.88 330.931 387.465 331.797 367.784M312.016 389.875C311.681 383.434 312.016 377.594 309.874 371.799C308.211 367.299 308.572 363.074 309.875 359.799M312.445 356.05C312.97 355.648 313.528 355.394 314.099 355.329C318.056 354.876 326.854 358.299 325.853 367.784C325.719 369.051 325.521 370.402 325.267 371.799M312.445 356.05C311.419 356.836 310.516 358.187 309.875 359.799M312.445 356.05C313.133 353.691 312.752 352.77 314.852 352.213M309.875 359.799C309.875 359.799 311.352 353.385 312.852 352.799C314.352 352.213 314.852 352.213 314.852 352.213M325.267 371.799C327.016 374.901 328.486 373.894 331.797 367.784M331.797 367.784C331.834 366.956 331.852 366.127 331.852 365.299C331.852 355.762 324.098 351.028 317.352 351.799C316.26 351.924 315.454 352.054 314.852 352.213"
        stroke="black"
        stroke-width="2.377"
        stroke-miterlimit="10"
    />
    <path
        d="M280.385 412.799C279.011 412.324 278.755 411.776 278.917 408.563C278.428 418.299 276.824 425.434 280.385 424.799C287.263 423.575 297.979 408.093 300.846 388.603C296.929 394.344 295.364 395.196 293.94 391.932C290.834 402.662 284.05 414.066 280.385 412.799Z"
        fill="black"
    />
    <path
        d="M284.509 374.409C288.491 374.362 296.894 378.664 294.933 387.997C294.671 389.244 294.335 390.568 293.94 391.932M284.509 374.409C283.934 374.416 283.353 374.612 282.79 374.958M284.509 374.409C284.509 374.409 285.084 373.622 286.352 373.198M300.846 388.603C297.979 408.093 287.263 423.575 280.385 424.799C276.824 425.434 278.428 418.299 278.917 408.563M300.846 388.603C300.966 387.783 300.761 389.426 300.846 388.603ZM300.846 388.603C296.929 394.344 295.364 395.196 293.94 391.932M300.846 388.603C300.846 388.603 302.352 381.299 294.933 375.799C290.759 372.706 287.983 372.652 286.352 373.198M278.917 408.563C278.755 411.776 279.011 412.324 280.385 412.799C284.05 414.066 290.834 402.662 293.94 391.932M278.917 408.563C278.916 403.299 278.917 399.299 278.917 395.299C278.917 390.299 278.221 381.551 279.851 378.426C280.653 376.888 281.689 375.636 282.79 374.958M282.79 374.958L286.352 373.198"
        stroke="black"
        stroke-width="2.377"
        stroke-miterlimit="10"
    />
    <path
        d="M259.318 375.711C257.877 375.197 257.611 374.599 257.795 371.085C257.238 381.733 255.522 389.541 259.265 388.832C266.493 387.462 277.816 370.486 280.914 349.163C276.775 355.458 275.128 356.397 273.647 352.834C270.336 364.58 263.161 377.08 259.318 375.711Z"
        fill="black"
    />
    <path
        d="M263.821 333.717C268.003 333.648 276.809 338.313 274.707 348.527C274.426 349.892 274.068 351.34 273.647 352.834M263.821 333.717C263.217 333.727 262.606 333.944 262.013 334.325M263.821 333.717C263.821 333.717 264.428 332.854 265.762 332.384M280.914 349.163C277.816 370.486 266.493 387.462 259.265 388.832C255.522 389.541 257.238 381.733 257.795 371.085M280.914 349.163C281.044 348.266 280.822 350.064 280.914 349.163ZM280.914 349.163C276.775 355.458 275.128 356.397 273.647 352.834M280.914 349.163C280.914 349.163 282.529 341.171 274.761 335.19C270.392 331.826 267.477 331.78 265.762 332.384M257.795 371.085C257.611 374.599 257.877 375.197 259.318 375.711C263.161 377.08 270.336 364.58 273.647 352.834M257.795 371.085C257.818 365.33 257.836 360.957 257.854 356.583C257.877 351.116 257.185 341.553 258.911 338.13C259.76 336.444 260.854 335.07 262.013 334.325M262.013 334.325L265.762 332.384"
        stroke="black"
        stroke-width="2.377"
        stroke-miterlimit="10"
    />
    <path d="M303.719 315.97C301.393 316.053 299.151 316.219 296.826 316.302" stroke="black" stroke-width="2.377" stroke-miterlimit="10" />
    <path
        d="M305.714 331.876C305.123 336.619 301.997 342.615 297.519 343.242C293.633 343.803 290.157 340.191 288.293 335.799C288.293 335.799 290.813 347.794 292.833 350.046C294.853 352.299 296.57 351.873 298.48 351.707C303.629 351.292 309.615 336.313 310.363 331.082C308.756 332.827 307.726 332.898 305.714 331.876Z"
        fill="black"
    />
    <path
        d="M305.714 331.876C305.123 336.619 301.997 342.615 297.519 343.242C293.633 343.803 290.157 340.191 288.293 335.799M305.714 331.876C306.644 324.896 302.757 317.557 297.857 316.483C296.674 316.215 294.393 316.036 292.112 317.468C290.338 318.631 289.324 320.242 288.732 321.227C288.732 321.495 286.62 325.254 286.874 329.907C286.976 331.833 287.482 333.89 288.293 335.799M305.714 331.876C307.726 332.898 308.756 332.827 310.363 331.082M290.522 318.799C292.522 316.299 296.328 314.392 298.819 314.392C305.629 314.309 311.359 323.36 310.363 331.082M310.363 331.082C309.615 336.313 303.629 351.292 298.48 351.707C296.57 351.873 294.853 352.299 292.833 350.046C290.813 347.794 288.293 335.799 288.293 335.799"
        stroke="black"
        stroke-width="2.377"
        stroke-miterlimit="10"
    />
    <path
        d="M223.577 246.631C223.909 251.154 227.065 256.683 230.719 256.18C233.626 255.778 235.619 251.557 236.034 248.239C236.615 243.314 233.958 238.087 230.719 237.182C229.972 236.981 228.394 236.881 226.982 237.785C225.819 238.589 225.155 239.695 224.823 240.399C224.657 240.7 223.328 243.414 223.577 246.631Z"
        stroke="black"
        stroke-width="2.377"
        stroke-miterlimit="10"
    />
    <path d="M234.456 236.881C232.961 236.982 231.384 236.982 229.889 237.082" stroke="black" stroke-width="2.377" stroke-miterlimit="10" />
    <path d="M234.954 256.281C233.542 256.281 232.131 256.281 230.719 256.281" stroke="black" stroke-width="2.377" stroke-miterlimit="10" />
    <path
        d="M226.649 238.087C227.895 236.68 229.473 235.675 231.134 235.675C235.702 235.675 239.605 242.711 239.023 248.541C238.608 252.562 235.951 256.985 232.463 257.287C231.134 257.387 229.888 256.885 228.726 255.98"
        stroke="black"
        stroke-width="2.377"
        stroke-miterlimit="10"
    />
    <path
        d="M414.254 195.901C412.178 201.547 412.344 209.436 415.5 210.847C417.742 211.844 421.646 209.104 423.473 207.194C424.22 206.364 424.885 205.45 425.217 205.035C425.3 204.869 426.961 202.627 427.874 200.219C429.203 196.897 430.947 189.507 427.376 186.269C427.044 185.937 426.462 185.439 425.549 185.273C421.646 184.193 416.331 190.255 414.254 195.901Z"
        stroke="black"
        stroke-width="2.377"
        stroke-miterlimit="10"
    />
    <path
        d="M411.182 194.821C408.442 202.046 408.774 212.425 413.341 214.501C416.58 215.912 421.646 213.172 423.972 211.179C425.799 209.685 427.46 207.277 427.543 207.194C427.875 206.779 428.622 205.616 429.453 203.955C429.453 203.955 430.449 201.963 431.031 199.887C431.446 198.558 434.934 187.016 429.453 182.283C428.954 181.868 428.124 181.204 426.878 180.872C421.231 179.543 414.006 187.431 411.182 194.821Z"
        stroke="black"
        stroke-width="2.377"
        stroke-miterlimit="10"
    />
    <path
        d="M427.542 181.121C425.05 179.959 422.891 179.045 420.981 178.298C417.908 177.052 416.247 176.471 414.088 176.056C414.005 176.056 414.005 176.056 414.005 176.056C414.005 176.056 413.175 175.89 412.261 176.056C409.105 176.554 406.614 178.879 406.614 178.879C404.704 180.54 400.053 185.605 398.226 194.49C397.479 198.143 396.316 203.956 399.555 207.941C399.97 208.44 400.302 208.772 400.635 209.021C401.465 209.685 402.129 210.017 402.545 210.183C403.79 210.765 407.86 212.425 413.424 214.501"
        stroke="black"
        stroke-width="2.377"
        stroke-miterlimit="10"
    />
    <path
        d="M191.438 115.772C189.445 115.191 187.95 114.693 187.535 114.61C187.452 114.61 187.12 114.527 186.788 114.277C186.788 114.277 186.705 114.194 186.622 114.111C181.805 109.794 182.386 100.66 184.13 95.0133C187.618 83.3884 197.667 79.9009 197.833 79.9009C198.165 79.9009 198.498 79.9009 198.498 79.9009C198.996 79.9839 199.577 80.15 200.075 80.233"
        stroke="black"
        stroke-width="2.377"
        stroke-miterlimit="10"
    />
    <path
        d="M414.587 210.183C415.251 210.515 416.331 210.931 417.576 210.931C421.23 210.931 423.805 207.443 425.383 205.201C425.383 205.201 430.117 198.724 429.12 190.919C428.954 189.425 428.289 188.345 428.289 188.345C427.791 187.515 427.21 186.85 426.878 186.518C426.712 186.518 426.545 186.518 426.296 186.435C426.462 187.349 428.373 197.562 421.48 204.039C418.905 206.447 416.081 207.526 414.171 208.024C414.337 208.689 414.504 209.436 414.587 210.183Z"
        fill="black"
    />
    <path
        d="M208.962 243.563C209.211 243.729 209.626 243.812 209.958 243.895C210.872 244.062 211.868 244.228 212.699 243.895C213.114 243.729 213.446 243.397 213.778 243.065C214.609 242.318 215.356 241.571 215.855 240.657C216.104 240.159 216.27 239.578 216.353 238.996C216.934 236.671 217.349 234.18 216.436 232.021C216.27 231.606 215.938 231.274 215.605 231.274C215.356 231.274 215.19 231.44 215.024 231.523C214.526 231.772 213.944 231.855 213.363 231.772C213.612 232.769 213.778 233.765 213.778 234.762C213.695 237.17 212.2 239.246 210.539 240.989C209.875 241.487 207.716 242.733 208.962 243.563Z"
        fill="black"
    />
    <path
        d="M243.855 131.572C243.16 133.526 242.441 135.507 241.756 137.488C245.272 138.765 248.797 140.06 252.314 141.355C253.684 137.376 255.088 133.414 256.493 129.461C254.722 128.827 252.986 128.175 251.232 127.541C250.529 129.522 249.827 131.494 249.142 133.474C247.371 132.84 245.626 132.206 243.855 131.572ZM233.288 127.749C235.051 128.392 236.796 129.009 238.55 129.669C239.278 127.688 239.981 125.707 240.692 123.717C242.446 124.36 244.2 125.012 245.971 125.655C246.664 123.657 247.384 121.684 248.086 119.703C249.84 120.338 251.602 120.946 253.365 121.597C254.058 119.608 254.769 117.609 255.472 115.637C260.715 117.506 265.958 119.365 271.218 121.207C268.385 129.271 265.577 137.273 262.787 145.284C264.515 145.936 266.251 146.589 267.989 147.276C267.278 149.266 266.576 151.264 265.883 153.28C264.154 152.619 262.426 151.94 260.689 151.279C259.319 155.267 257.95 159.245 256.606 163.232C253.166 161.866 249.674 160.501 246.183 159.153C247.519 155.228 248.863 151.249 250.25 147.297C243.208 144.69 236.114 142.101 229.029 139.53C230.46 135.585 231.857 131.685 233.288 127.749Z"
        fill="#8F8E93"
    />
    <path
        d="M290.229 134.971C287.329 143.167 284.437 151.328 281.527 159.472C283.23 160.169 284.959 160.848 286.653 161.553C285.908 163.578 285.181 165.63 284.436 167.681C287.833 169.066 291.205 170.477 294.576 171.897C297.614 163.636 300.625 155.342 303.628 147.065C301.908 146.395 300.171 145.725 298.452 145.09C299.178 143.004 299.923 140.935 300.667 138.866C297.167 137.571 293.703 136.266 290.229 134.971ZM277.645 137.22C279.373 137.881 281.118 138.507 282.846 139.168C283.565 137.134 284.301 135.083 285.003 133.067C286.748 133.702 288.484 134.319 290.229 134.971C290.939 132.937 291.658 130.903 292.385 128.835C297.621 130.747 302.848 132.694 308.092 134.633C307.357 136.702 306.604 138.771 305.86 140.866C307.605 141.501 309.325 142.144 311.061 142.797C310.318 144.901 309.565 146.996 308.812 149.048C310.532 149.727 312.252 150.388 313.98 151.058C311.688 157.336 309.379 163.624 307.052 169.911C305.349 169.215 303.655 168.492 301.952 167.804C301.191 169.882 300.412 171.943 299.65 174.022C297.947 173.299 296.253 172.593 294.576 171.897C293.805 173.94 293.052 176.009 292.29 178.035C287.259 175.909 282.228 173.766 277.197 171.666C277.925 169.632 278.643 167.59 279.363 165.591C277.66 164.895 275.974 164.189 274.28 163.484C274.99 161.459 275.709 159.443 276.411 157.436C274.691 156.748 272.98 156.069 271.26 155.391C273.392 149.343 275.514 143.277 277.645 137.22Z"
        fill="#8F8E93"
    />
    <path
        d="M327.342 163.546C326.546 165.66 325.769 167.835 324.974 169.957C328.397 171.359 331.811 172.751 335.235 174.153C336.823 169.777 338.437 165.417 340.035 161.059C338.298 160.389 336.579 159.754 334.85 159.102C334.064 161.242 333.278 163.408 332.484 165.574C330.764 164.904 329.061 164.207 327.342 163.546ZM317.031 159.465C318.751 160.153 320.471 160.823 322.191 161.501C322.96 159.37 323.738 157.257 324.525 155.143C326.244 155.77 327.972 156.457 329.692 157.127C330.469 154.978 331.256 152.856 332.026 150.743C333.753 151.369 335.481 152.012 337.209 152.647C337.987 150.516 338.773 148.385 339.542 146.263C344.785 148.105 350.01 149.921 355.26 151.676C352.024 160.482 348.79 169.402 345.504 178.34C347.215 179.027 348.918 179.724 350.638 180.437C349.802 182.692 348.991 184.92 348.146 187.192C346.443 186.452 344.748 185.737 343.019 185.033C341.38 189.436 339.766 193.839 338.143 198.207C334.735 196.683 331.344 195.15 327.962 193.625C329.569 189.327 331.167 185.021 332.791 180.696C325.996 177.814 319.183 174.949 312.371 172.102C313.927 167.901 315.475 163.692 317.031 159.465Z"
        fill="#8F8E93"
    />
    <defs>
        <linearGradient id="paint0_linear_3029_28810" x1="62.6259" y1="347.014" x2="430.932" y2="164.202" gradientUnits="userSpaceOnUse">
            <stop stop-color="#D6FFBB" />
            <stop offset="1" stop-color="#5869DD" />
        </linearGradient>
    </defs>
</svg>
