<svg xmlns="http://www.w3.org/2000/svg" width="269" height="210" viewBox="0 0 269 210" fill="none">
    <path d="M268.86 6.72928L253.874 6.96089L253.503 7.49631L268.489 7.26469L268.86 6.72928Z" fill="black" />
    <path d="M238.81 8.63226C233.46 9.19355 227.986 9.93554 222.56 10.7695L222.284 11.4955C227.71 10.6615 233.137 9.82759 238.487 9.2663L238.81 8.63226Z" fill="black" />
    <path d="M205.643 13.3088C200.174 14.394 194.591 15.6631 189.109 17.1297L189.025 18.1749C194.506 16.7084 200.038 15.3405 205.508 14.2553L205.643 13.3088Z" fill="black" />
    <path d="M172.542 23.1113C166.974 24.998 161.343 27.1685 155.813 29.5365L156.156 30.6103C161.686 28.2423 167.1 26.0594 172.667 24.1727L172.542 23.1113Z" fill="black" />
    <path d="M139.083 38.2226C133.812 40.9571 128.484 43.9862 123.429 47.1389L124.187 48.2036C129.242 45.0508 134.405 42.1072 139.676 39.3727L139.083 38.2226Z" fill="black" />
    <path d="M107.667 56.7042C102.67 60.1052 97.9337 63.6023 93.4578 67.1952L94.6879 67.9436C99.2107 64.4418 103.947 60.9448 108.73 57.539L107.667 56.7042Z" fill="black" />
    <path d="M79.429 78.0932L73.2737 83.8954C72.3186 84.8652 71.1511 85.8266 70.196 86.7964L67.3307 89.7059L69.0579 90.2329L71.9233 87.3233C72.8784 86.3535 73.8818 85.4772 74.837 84.5074L80.8283 78.7903L79.429 78.0932Z" fill="black" />
    <path d="M55.2869 102.559C51.8014 106.478 48.3611 110.484 45.3002 114.404L47.4683 114.501C50.5292 110.581 53.8024 106.661 57.2879 102.743L55.2869 102.559Z" fill="black" />
    <path d="M36.5095 126.836C33.8806 130.697 31.34 134.73 29.1309 138.59L31.5611 138.415C33.7703 134.555 36.1893 130.694 38.8183 126.833L36.5095 126.836Z" fill="black" />
    <path d="M22.6008 150.181L17.0523 162.195L20.0831 161.626L25.3271 149.881L22.6008 150.181Z" fill="black" />
    <path d="M14.3485 174.312L10.9285 185.47L13.9293 184.668L17.2249 173.682L14.3485 174.312Z" fill="black" />
    <path d="M7.50305 196.624L4.84966 208.317L7.97659 207.644L10.753 195.768L7.50305 196.624Z" fill="black" />
    <path d="M89.436 143.584L84.5638 106.66L67.4135 99.4064L67.4148 99.4055L67.4093 99.4031L69.8456 117.866L35.5369 103.356L35.5344 103.337L33.1005 84.8927L15.9466 77.6379L20.8189 114.564L89.436 143.584Z" fill="black" />
    <path d="M99.2824 95.4564L84.5679 106.662L84.5638 106.66L89.436 143.584L104.154 132.376L99.2824 95.4564Z" fill="#F1EFED" />
    <path d="M99.2803 95.4513L82.1315 88.1985L67.4148 99.4055L84.5636 106.658L99.2803 95.4513Z" fill="#F1EFED" />
    <path d="M33.0937 84.8838L47.8094 73.6777L47.809 73.6747L30.6578 66.4212L15.9398 77.6291L33.0937 84.8838Z" fill="#F1EFED" />
    <path d="M35.5369 103.356L69.8456 117.866L67.3993 99.3902L50.245 92.1349L35.5344 103.337L35.5369 103.356Z" fill="#F1EFED" />
    <path
        d="M89.436 143.584L89.0464 144.505C89.3768 144.645 89.7566 144.597 90.0419 144.38L89.436 143.584ZM67.4093 99.4031L67.7988 98.4822C67.4685 98.3425 67.0886 98.3903 66.8033 98.6076C66.518 98.8249 66.3709 99.1783 66.4178 99.5339L67.4093 99.4031ZM69.8456 117.866L69.4561 118.787C69.7864 118.927 70.1663 118.879 70.4516 118.662C70.7369 118.444 70.884 118.091 70.8371 117.735L69.8456 117.866ZM35.5369 103.356L34.5454 103.487C34.5918 103.838 34.8208 104.139 35.1473 104.277L35.5369 103.356ZM33.1005 84.8927L34.092 84.7619C34.0456 84.4105 33.8166 84.1098 33.4901 83.9717L33.1005 84.8927ZM15.9466 77.6379L16.3361 76.717C16.0058 76.5773 15.6259 76.6252 15.3406 76.8425C15.0553 77.0597 14.9082 77.4132 14.9551 77.7687L15.9466 77.6379ZM20.8189 114.564L19.8274 114.695C19.8738 115.046 20.1028 115.347 20.4293 115.485L20.8189 114.564ZM33.0937 84.8838L32.7042 85.8048C33.0345 85.9445 33.4144 85.8966 33.6997 85.6793L33.0937 84.8838ZM47.8117 73.6759L48.4177 74.4714C48.7014 74.2554 48.8485 73.9047 48.804 73.551C48.7594 73.1972 48.5298 72.894 48.2014 72.755L47.8117 73.6759ZM30.6578 66.4212L31.0473 65.5002C30.717 65.3605 30.3371 65.4084 30.0518 65.6257L30.6578 66.4212ZM15.9398 77.6291L15.3338 76.8336C15.0501 77.0497 14.9029 77.4004 14.9475 77.7541C14.9921 78.1079 15.2218 78.4111 15.5502 78.55L15.9398 77.6291ZM48.8001 73.5409C48.7278 72.9934 48.2252 72.6082 47.6777 72.6805C47.1301 72.7528 46.7448 73.2552 46.8172 73.8027L48.8001 73.5409ZM34.921 102.547C34.4816 102.882 34.3967 103.509 34.7314 103.949C35.0661 104.388 35.6936 104.473 36.1329 104.138L34.921 102.547ZM67.3993 99.3902L68.3908 99.259C68.3443 98.9077 68.1153 98.6073 67.7889 98.4692L67.3993 99.3902ZM84.5679 106.662L84.1784 107.583C84.5087 107.722 84.8885 107.674 85.1739 107.457L84.5679 106.662ZM99.2859 95.4537L99.8919 96.2492C100.176 96.0332 100.323 95.6824 100.278 95.3286C100.233 94.9749 100.004 94.6716 99.6754 94.5327L99.2859 95.4537ZM82.1315 88.1985L82.5211 87.2776C82.1908 87.1379 81.8109 87.1857 81.5256 87.403L82.1315 88.1985ZM67.4135 99.4064L66.8076 98.6109C66.5239 98.827 66.3767 99.1777 66.4213 99.5314C66.4659 99.8852 66.6955 100.188 67.024 100.327L67.4135 99.4064ZM99.2816 95.4504L100.273 95.3197C100.227 94.9662 99.9951 94.6643 99.6659 94.5272C99.3367 94.3902 98.9594 94.4388 98.6757 94.6549L99.2816 95.4504ZM104.154 132.376L104.76 133.172C105.045 132.954 105.192 132.601 105.145 132.245L104.154 132.376ZM66.4178 99.5339L68.8542 117.997L70.8371 117.735L68.4007 99.2723L66.4178 99.5339ZM70.2352 116.945L35.9265 102.435L35.1473 104.277L69.4561 118.787L70.2352 116.945ZM33.4901 83.9717L16.3361 76.717L15.557 78.5589L32.711 85.8136L33.4901 83.9717ZM14.9551 77.7687L19.8274 114.695L21.8104 114.433L16.938 77.5072L14.9551 77.7687ZM20.4293 115.485L89.0464 144.505L89.8256 142.663L21.2085 113.643L20.4293 115.485ZM30.0518 65.6257L15.3338 76.8336L16.5457 78.4246L31.2637 67.2167L30.0518 65.6257ZM15.5502 78.55L32.7042 85.8048L33.4833 83.9629L16.3293 76.7082L15.5502 78.55ZM49.8554 93.0559L67.0098 100.311L67.7889 98.4692L50.6345 91.214L49.8554 93.0559ZM103.548 131.581L88.83 142.789L90.0419 144.38L104.76 133.172L103.548 131.581ZM90.4275 143.453L85.5553 106.529L83.5724 106.791L88.4445 143.715L90.4275 143.453ZM84.9534 105.739L67.8031 98.4855L67.024 100.327L84.1743 107.581L84.9534 105.739ZM68.0195 100.202L68.0208 100.201L66.8089 98.61L66.8076 98.6109L68.0195 100.202ZM67.8044 98.4845L67.7988 98.4822L67.0197 100.324L67.0253 100.326L67.8044 98.4845ZM36.5284 103.225L36.5259 103.206L34.543 103.468L34.5454 103.487L36.5284 103.225ZM36.5259 103.206L34.092 84.7619L32.1091 85.0234L34.543 103.468L36.5259 103.206ZM49.639 91.3394L34.9285 102.542L36.1404 104.133L50.8509 92.9304L49.639 91.3394ZM34.9285 102.542L34.921 102.547L36.1329 104.138L36.1404 104.133L34.9285 102.542ZM81.5256 87.403L66.8089 98.61L68.0208 100.201L82.7375 88.994L81.5256 87.403ZM84.9532 105.737L67.8044 98.4845L67.0253 100.326L84.1741 107.579L84.9532 105.737ZM84.1743 107.581L84.1784 107.583L84.9574 105.741L84.9534 105.739L84.1743 107.581ZM85.5553 106.529L85.5551 106.527L83.5722 106.789L83.5724 106.791L85.5553 106.529ZM98.6765 94.6609L83.9619 105.866L85.1739 107.457L99.8884 96.2518L98.6765 94.6609ZM105.145 132.245L100.274 95.3256L98.2909 95.5871L103.163 132.507L105.145 132.245ZM98.2901 95.581L98.2909 95.587L100.274 95.3257L100.273 95.3197L98.2901 95.581ZM99.8884 96.2518L99.8919 96.2492L98.6799 94.6582L98.6765 94.6609L99.8884 96.2518ZM99.6699 94.5304L82.5211 87.2776L81.742 89.1194L98.8908 96.3723L99.6699 94.5304ZM85.1696 107.454L99.8863 96.2468L98.6744 94.6559L83.9577 105.863L85.1696 107.454ZM99.8863 96.2468L99.8876 96.2459L98.6757 94.6549L98.6744 94.6559L99.8863 96.2468ZM99.6754 94.5327L99.6698 94.5304L98.8909 96.3723L98.8964 96.3747L99.6754 94.5327ZM33.6997 85.6793L48.4154 74.4732L47.2034 72.8822L32.4878 84.0883L33.6997 85.6793ZM48.8009 73.5468L48.8005 73.5438L46.8175 73.8056L46.8179 73.8086L48.8009 73.5468ZM48.1986 72.7538L31.0473 65.5002L30.2682 67.3421L47.4194 74.5957L48.1986 72.7538ZM48.2014 72.755L48.1987 72.7539L47.4193 74.5956L47.422 74.5968L48.2014 72.755ZM46.8172 73.8027L46.8175 73.8056L48.8005 73.5438L48.8001 73.5409L46.8172 73.8027ZM46.8179 73.8084L49.2535 92.2657L51.2365 92.0042L48.8009 73.5469L46.8179 73.8084ZM48.4154 74.4732L48.4177 74.4714L47.2058 72.8804L47.2034 72.8822L48.4154 74.4732ZM70.8371 117.735L68.3908 99.259L66.4079 99.5214L68.8542 117.997L70.8371 117.735ZM49.639 91.3394L34.921 102.547L36.1329 104.138L50.8509 92.9304L49.639 91.3394Z"
        fill="black"
    />
    <path d="M149.165 73.7062L176.433 45.5499L154.743 51.7368L154.717 51.711L154.713 51.7289L149.148 73.6445L149.165 73.7062Z" fill="black" />
    <path d="M176.433 45.5499L165.901 7.79782L154.717 51.711L154.743 51.7368L176.433 45.5499Z" fill="#F1EFED" />
    <path d="M165.901 7.79782L138.632 35.9542L154.717 51.711L165.901 7.79782Z" fill="#F1EFED" />
    <path d="M154.713 51.7289L154.717 51.711L138.632 35.9542L149.148 73.6445L154.713 51.7289Z" fill="#F1EFED" />
    <path
        d="M138.632 35.9542L137.914 35.2586C137.667 35.5137 137.574 35.8808 137.669 36.223L138.632 35.9542ZM165.901 7.79782L166.864 7.52904C166.767 7.18394 166.494 6.91673 166.147 6.82858C165.799 6.74042 165.431 6.84479 165.182 7.10218L165.901 7.79782ZM176.433 45.5499L177.152 46.2455C177.399 45.9903 177.492 45.6232 177.397 45.2811L176.433 45.5499ZM149.165 73.7062L148.202 73.975C148.298 74.3201 148.572 74.5873 148.919 74.6755C149.266 74.7636 149.634 74.6593 149.883 74.4019L149.165 73.7062ZM154.743 51.7368L154.044 52.4511C154.3 52.7026 154.672 52.797 155.018 52.6984L154.743 51.7368ZM154.713 51.7289L153.743 51.4822L153.743 51.4829L154.713 51.7289ZM148.165 73.4524C148.029 73.9877 148.353 74.5318 148.888 74.6676C149.423 74.8035 149.967 74.4797 150.103 73.9444L148.165 73.4524ZM139.351 36.6499L166.619 8.49346L165.182 7.10218L137.914 35.2586L139.351 36.6499ZM164.937 8.0666L175.47 45.8186L177.397 45.2811L166.864 7.52904L164.937 8.0666ZM175.715 44.8542L148.447 73.0106L149.883 74.4019L177.152 46.2455L175.715 44.8542ZM176.159 44.5882L154.469 50.7751L155.018 52.6984L176.708 46.5115L176.159 44.5882ZM155.443 51.0224L155.417 50.9966L154.017 52.4253L154.044 52.4511L155.443 51.0224ZM153.748 51.4642L153.743 51.4822L155.682 51.9757L155.686 51.9577L153.748 51.4642ZM153.743 51.4829L148.178 73.3985L150.117 73.8906L155.682 51.975L153.743 51.4829ZM148.184 73.9133L148.202 73.975L150.128 73.4375L150.111 73.3757L148.184 73.9133ZM148.178 73.3985L148.165 73.4524L150.103 73.9444L150.117 73.8906L148.178 73.3985ZM150.111 73.3757L139.595 35.6854L137.669 36.223L148.184 73.9133L150.111 73.3757ZM155.686 51.9577L166.87 8.04454L164.931 7.55109L153.748 51.4643L155.686 51.9577ZM155.417 50.9966L139.332 35.2399L137.932 36.6686L154.017 52.4253L155.417 50.9966Z"
        fill="black"
    />
</svg>
