<svg xmlns="http://www.w3.org/2000/svg" width="21" height="20" viewBox="0 0 21 20" fill="none">
    <path
        d="M11.2056 5.36365C11.2056 4.97955 10.8897 4.66817 10.5 4.66817C10.1103 4.66817 9.79442 4.97955 9.79442 5.36365V10.0002C9.79442 10.24 9.91974 10.4629 10.126 10.59L12.9484 12.3287C13.2788 12.5323 13.7141 12.4333 13.9207 12.1075C14.1272 11.7818 14.0267 11.3527 13.6963 11.1492L11.2056 9.61475V5.36365Z"
        fill="#8F8E93"
    />
    <path
        fill-rule="evenodd"
        clip-rule="evenodd"
        d="M10.5 1.88623C5.9537 1.88623 2.26819 5.51899 2.26819 10.0002C2.26819 14.4815 5.9537 18.1142 10.5 18.1142C15.0463 18.1142 18.7318 14.4815 18.7318 10.0002C18.7318 5.51899 15.0463 1.88623 10.5 1.88623ZM3.67936 10.0002C3.67936 6.2872 6.73306 3.2772 10.5 3.2772C14.2669 3.2772 17.3206 6.2872 17.3206 10.0002C17.3206 13.7132 14.2669 16.7232 10.5 16.7232C6.73306 16.7232 3.67936 13.7132 3.67936 10.0002Z"
        fill="#8F8E93"
    />
</svg>
