<svg xmlns="http://www.w3.org/2000/svg" width="337" height="47" fill="none" viewBox="0 0 337 47">
  <path stroke="#8F8E93" stroke-width="2" d="M34.5 1H1v15h33.5m0-15v15m0-15H68M34.5 16H68m0 0V1m0 15h33.5M68 1h33.5m0 0v15m0-15H135m-33.5 15H135m0 0V1m0 15h33.5M135 1h33.5m0 0H202m-33.5 0v15M202 1h33.5M202 1v15m33.5-15H269m-33.5 0v15M269 1h33.5M269 1v15m33.5-15H336v15h-33.5m0-15v15m0 0H269m0 0h-33.5m0 0H202m0 0h-33.5m-118 15H17V16h33.5m0 15V16m0 15H84M50.5 16H84m0 0v15m0-15h33.5M84 31h33.5m0 0V16m0 15H151m-33.5-15H151m0 0h33.5M151 16v15m33.5-15H218m-33.5 0v15M218 16h33.5M218 16v15m33.5-15H285m-33.5 0v15M285 16h33.5v15H285m0-15v15m0 0h-33.5m0 0H218m0 0h-33.5m0 0H151M34.5 31H1v15h33.5m0-15v15m0-15H68M34.5 46H68m0 0V31m0 15h33.5M68 31h33.5m0 0v15m0-15H135m-33.5 15H135m0 0V31m0 15h33.5M135 31h33.5m0 0H202m-33.5 0v15M202 31h33.5M202 31v15m33.5-15H269m-33.5 0v15M269 31h33.5M269 31v15m33.5-15H336v15h-33.5m0-15v15m0 0H269m0 0h-33.5m0 0H202m0 0h-33.5"/>
  <path fill="url(#a)" stroke="#000" stroke-width="2" d="M62.625 1h45v45h-45z"/>
  <path fill="#000" d="M66.625 5h4v4h-4zm0 33.375h4v4h-4zM99.75 5h4v4h-4zm0 33.375h4v4h-4z"/>
  <path stroke="#000" stroke-width="2" d="M88.64 30.813V27.75h3.376v-1.813h2.875v-1.812h1.875v-8.188H94.89v-2.312h-1.938V10.75h-5.875V9h-3.906v1.75h-5.875v2.875h-1.938v2.313h-1.875v8.187h1.875v1.813h2.875v1.812h3.375v3.063m7.032 0v2.437m0-2.438h-3.5m0 8.75h-1.97v-2.25h-1.53v-6.5h3.5m0 8.75v1.626m0-1.626h1.937v-2.25h1.563V33.25m-3.063 0h3.063m-3.5-2.438v-9m0-5.875v5.876m0 0h3.5v-1.75h2.062m-5.562 1.75h-4.063v-5.875"/>
  <defs>
    <linearGradient id="a" x1="115.33" x2="69.028" y1="37.176" y2="60.48" gradientUnits="userSpaceOnUse">
      <stop stop-color="#D6FFBB"/>
      <stop offset="1" stop-color="#5869DD"/>
    </linearGradient>
  </defs>
</svg>
