<svg xmlns="http://www.w3.org/2000/svg" width="353" height="47" fill="none" viewBox="0 0 353 47">
  <path stroke="#8F8E93" stroke-width="2" d="M336 16V1h-33.5M336 16h-33.5m33.5 0h-17.5m17.5 0h16v15h-16M34.5 1H1v15h33.5m0-15v15m0-15H68M34.5 16H68m0 0V1m0 15h33.5M68 1h33.5m0 0v15m0-15H135m-33.5 15H135m0 0V1m0 15h33.5M135 1h33.5m0 0H202m-33.5 0v15M202 1h33.5M202 1v15m33.5-15H269m-33.5 0v15M269 1h33.5M269 1v15m33.5-15v15m0 0H269m33.5 0h16m-16 0H285m-16 0h-33.5m0 0H202m0 0h-33.5m150 0v15m0-15H285m33.5 15H285m33.5 0h-16m16 0H336M50.5 31H17V16h33.5m0 15V16m0 15H84M50.5 16H84m0 0v15m0-15h33.5M84 31h33.5m0 0V16m0 15H151m-33.5-15H151m0 0h33.5M151 16v15m33.5-15H218m-33.5 0v15M218 16h33.5M218 16v15m33.5-15H285m-33.5 0v15M285 16v15m0 0h-33.5m33.5 0h17.5m-51 0H218m0 0h-33.5m0 0H151m185 0v15h-33.5M336 31h-33.5M68 46H34.5V31H68m0 15V31m0 15h33.5M68 31h33.5m0 0v15m0-15H135m-33.5 15H135m0 0V31m0 15h33.5M135 31h33.5m0 0H202m-33.5 0v15M202 31h33.5M202 31v15m33.5-15H269m-33.5 0v15M269 31h33.5M269 31v15m33.5-15v15m0 0H269m0 0h-33.5m0 0H202m0 0h-33.5"/>
  <path fill="url(#a)" stroke="#000" stroke-width="2" d="M197 1h45v45h-45z"/>
  <path fill="#000" d="M201 5h4v4h-4zm0 33.375h4v4h-4zM234.125 5h4v4h-4zm0 33.375h4v4h-4z"/>
  <path fill="url(#b)" stroke="#000" stroke-width="2" d="M242 1h45v45h-45z"/>
  <path fill="#000" d="M246 5h4v4h-4zm0 33.375h4v4h-4zM279.125 5h4v4h-4zm0 33.375h4v4h-4z"/>
  <path stroke="#000" stroke-width="2" d="M258.973 25.363v-3.726h1.295v-1.134h1.296v-1.457h1.134V17.75h3.604v1.296h1.134v1.457h1.295v1.134h1.296v3.726h-1.296v1.134h-1.295v1.457h-1.134v1.296h-3.604v-1.296h-1.134v-1.457h-1.296v-1.134h-1.295Z"/>
  <path stroke="#000" stroke-width="2" d="M251.906 27.509V19.49h2.953v-2.44h2.952v-3.137h2.583v-2.789h8.212v2.789h2.583v3.137h2.952v2.44h2.953v8.018h-2.953v2.44h-2.952v3.137h-2.583v2.789h-8.212v-2.789h-2.583V29.95h-2.952v-2.44h-2.953Z"/>
  <defs>
    <linearGradient id="a" x1="249.705" x2="203.403" y1="37.176" y2="60.48" gradientUnits="userSpaceOnUse">
      <stop stop-color="#D6FFBB"/>
      <stop offset="1" stop-color="#5869DD"/>
    </linearGradient>
    <linearGradient id="b" x1="294.705" x2="248.403" y1="37.176" y2="60.48" gradientUnits="userSpaceOnUse">
      <stop stop-color="#D6FFBB"/>
      <stop offset="1" stop-color="#5869DD"/>
    </linearGradient>
  </defs>
</svg>
