<svg xmlns="http://www.w3.org/2000/svg" width="21" height="20" viewBox="0 0 21 20" fill="none">
    <path
        fill-rule="evenodd"
        clip-rule="evenodd"
        d="M4.97404 6.76151C3.38072 7.87977 2.16032 9.18465 1.5397 9.91021C1.51293 9.9415 1.50397 9.97289 1.50397 10C1.50397 10.0271 1.51288 10.0584 1.53965 10.0897C2.16027 10.8153 3.38072 12.1202 4.97404 13.2385C6.57414 14.3615 8.48421 15.25 10.5 15.25C12.5158 15.25 14.4259 14.3615 16.026 13.2385C17.6193 12.1202 18.8397 10.8154 19.4603 10.0898C19.487 10.0585 19.4961 10.027 19.4961 10C19.4961 9.97295 19.4872 9.94164 19.4604 9.91035C18.8398 9.1848 17.6193 7.87977 16.026 6.76151C14.4259 5.63849 12.5158 4.75 10.5 4.75C8.48422 4.75 6.57415 5.63849 4.97404 6.76151ZM4.11233 5.53373C5.83995 4.32122 8.05207 3.25 10.5 3.25C12.9479 3.25 15.1601 4.32122 16.8877 5.53373C18.6221 6.751 19.9349 8.15747 20.6002 8.9352C21.128 9.55216 21.128 10.4478 20.6002 11.0648C19.9349 11.8425 18.6221 13.249 16.8877 14.4663C15.1601 15.6788 12.9479 16.75 10.5 16.75C8.05207 16.75 5.83995 15.6788 4.11233 14.4663C2.37797 13.249 1.06513 11.8426 0.399865 11.0649C-0.127948 10.4479 -0.127982 9.5521 0.399865 8.93513C1.06512 8.1574 2.37797 6.75097 4.11233 5.53373ZM10.5 8.75C9.80965 8.75 9.25001 9.30964 9.25001 10C9.25001 10.6904 9.80965 11.25 10.5 11.25C11.1904 11.25 11.75 10.6904 11.75 10C11.75 9.30964 11.1904 8.75 10.5 8.75ZM7.75001 10C7.75001 8.48122 8.98123 7.25 10.5 7.25C12.0188 7.25 13.25 8.48122 13.25 10C13.25 11.5188 12.0188 12.75 10.5 12.75C8.98123 12.75 7.75001 11.5188 7.75001 10Z"
        fill="#8F8E93"
    />
</svg>
