<svg xmlns="http://www.w3.org/2000/svg" width="111" height="322" viewBox="0 0 111 322" fill="none">
    <g clip-path="url(#clip0_3303_11005)">
        <path
            d="M-85.2109 35.2032H-86.0697C-86.0697 34.7289 -85.6852 34.3444 -85.2109 34.3444V35.2032ZM-85.2109 224.567L-85.835 225.157C-85.9857 224.997 -86.0697 224.786 -86.0697 224.567H-85.2109ZM-20.8015 200.95L-21.393 200.327C-21.2334 200.176 -21.0217 200.091 -20.8015 200.091V200.95ZM-46.5653 225.426L-45.9738 226.048C-46.1382 226.204 -46.3577 226.289 -46.5844 226.284L-46.5653 225.426ZM-5.77267 131.388V130.529C-5.61755 130.529 -5.46532 130.571 -5.33215 130.651L-5.77267 131.388ZM-62.8823 131.388L-63.2895 130.632C-63.1644 130.564 -63.0245 130.529 -62.8823 130.529V131.388ZM-5.77267 104.336V105.195C-6.01656 105.195 -6.24894 105.091 -6.41183 104.91L-5.77267 104.336ZM-20.8015 87.5895L-20.7901 86.7308C-20.5502 86.734 -20.3226 86.8374 -20.1624 87.0159L-20.8015 87.5895ZM13.9795 55.8142L13.5 55.1017C13.6417 55.0063 13.8087 54.9554 13.9795 54.9554V55.8142ZM-8.34905 70.843L-7.86952 71.5555C-8.01125 71.6509 -8.17822 71.7018 -8.34905 71.7018V70.843ZM3.24464 7.72183L2.63262 7.11937C2.79404 6.95538 3.01453 6.86304 3.24464 6.86304V7.72183ZM-23.8073 35.2032L-23.1953 35.8056C-23.3567 35.9696 -23.5772 36.062 -23.8073 36.062V35.2032ZM-71.4703 247.325H-62.8823V249.042H-71.4703V247.325ZM-63.5064 248.774L-85.835 225.157L-84.5869 223.977L-62.2583 247.594L-63.5064 248.774ZM64.2189 249.042H-62.8823V247.325H64.2189V249.042ZM64.2189 201.809H-20.8015V200.091H64.2189V201.809ZM-20.21 201.573L-45.9738 226.048L-47.1568 224.803L-21.393 200.327L-20.21 201.573ZM-46.5844 226.284L-85.23 225.425L-85.1919 223.708L-46.5462 224.567L-46.5844 226.284ZM64.2189 153.287H29.4378V151.569H64.2189V153.287ZM29.4378 153.287H-20.8015V151.569H29.4378V153.287ZM28.9973 153.165L-6.2132 132.125L-5.33215 130.651L29.8783 151.691L28.9973 153.165ZM-5.77267 132.247H-62.8823V130.529H-5.77267V132.247ZM-86.0697 224.567V143.411H-84.3521V224.567H-86.0697ZM-62.4752 132.144L-84.8038 144.167L-85.6181 142.655L-63.2895 130.632L-62.4752 132.144ZM64.2189 105.195H-5.77267V103.477H64.2189V105.195ZM-6.41183 104.91L-21.4407 88.1631L-20.1624 87.0159L-5.13353 103.762L-6.41183 104.91ZM-20.813 88.4482L-85.2224 87.5894L-85.1995 85.872L-20.7901 86.7308L-20.813 88.4482ZM64.2189 56.673H13.9795V54.9554H64.2189V56.673ZM14.4591 56.5266L-7.86952 71.5555L-8.82858 70.1306L13.5 55.1017L14.4591 56.5266ZM-84.3521 35.2032V70.843H-86.0697V35.2032H-84.3521ZM-8.34905 71.7018H-85.2109V69.9843H-8.34905V71.7018ZM64.2189 8.58063H3.24464V6.86304H64.2189V8.58063ZM3.85666 8.3243L-23.1953 35.8056L-24.4193 34.6007L2.63262 7.11937L3.85666 8.3243ZM-23.8073 36.062H-85.2109V34.3444H-23.8073V36.062ZM-84.3521 70.843V75.3517H-86.0697V70.843H-84.3521ZM-84.3521 75.3517V86.7307H-86.0697V75.3517H-84.3521ZM-84.3521 86.7307V136.97H-86.0697V86.7307H-84.3521ZM-84.3521 136.97V143.411H-86.0697V136.97H-84.3521Z"
            fill="#8F8E93"
        />
        <path
            d="M69.8893 4.94683C67.1132 4.93422 64.8525 7.1745 64.8399 9.95062C64.8273 12.7267 67.0676 14.9875 69.8437 15.0001C72.6198 15.0127 74.8805 12.7724 74.8931 9.99627C74.9057 7.22015 72.6655 4.95944 69.8893 4.94683Z"
            fill="black"
        />
        <path
            d="M59.4189 8.00575C59.4305 5.46097 61.5028 3.40738 64.0476 3.41894C66.5924 3.43049 68.646 5.50281 68.6344 8.04759C68.6228 10.5924 66.5505 12.646 64.0057 12.6344C61.461 12.6228 59.4074 10.5505 59.4189 8.00575Z"
            fill="#F0EFED"
            stroke="black"
            stroke-width="0.837778"
        />
        <path
            d="M69.8893 52.9468C67.1132 52.9342 64.8525 55.1745 64.8399 57.9506C64.8273 60.7267 67.0676 62.9875 69.8437 63.0001C72.6198 63.0127 74.8805 60.7724 74.8931 57.9963C74.9057 55.2201 72.6655 52.9594 69.8893 52.9468Z"
            fill="black"
        />
        <path
            d="M59.4189 56.0057C59.4305 53.461 61.5028 51.4074 64.0476 51.4189C66.5924 51.4305 68.646 53.5028 68.6344 56.0476C68.6228 58.5924 66.5505 60.646 64.0057 60.6344C61.461 60.6228 59.4074 58.5505 59.4189 56.0057Z"
            fill="#F0EFED"
            stroke="black"
            stroke-width="0.837778"
        />
        <path d="M69.8893 100.947C67.1132 100.934 64.8525 103.174 64.8399 105.951C64.8273 108.727 67.0676 110.987 69.8437 111C72.6198 111.013 74.8805 108.772 74.8931 105.996C74.9057 103.22 72.6655 100.959 69.8893 100.947Z" fill="black" />
        <path
            d="M59.4189 104.006C59.4305 101.461 61.5028 99.4074 64.0476 99.4189C66.5924 99.4305 68.646 101.503 68.6344 104.048C68.6228 106.592 66.5505 108.646 64.0057 108.634C61.461 108.623 59.4074 106.551 59.4189 104.006Z"
            fill="#F0EFED"
            stroke="black"
            stroke-width="0.837778"
        />
        <path d="M69.8893 148.947C67.1132 148.934 64.8525 151.174 64.8399 153.951C64.8273 156.727 67.0676 158.987 69.8437 159C72.6198 159.013 74.8805 156.772 74.8931 153.996C74.9057 151.22 72.6655 148.959 69.8893 148.947Z" fill="black" />
        <path
            d="M59.4189 152.006C59.4305 149.461 61.5028 147.407 64.0476 147.419C66.5924 147.43 68.646 149.503 68.6344 152.048C68.6228 154.592 66.5505 156.646 64.0057 156.634C61.461 156.623 59.4074 154.551 59.4189 152.006Z"
            fill="#F0EFED"
            stroke="black"
            stroke-width="0.837778"
        />
        <path d="M69.8893 197.947C67.1132 197.934 64.8525 200.174 64.8399 202.951C64.8273 205.727 67.0676 207.987 69.8437 208C72.6198 208.013 74.8805 205.772 74.8931 202.996C74.9057 200.22 72.6655 197.959 69.8893 197.947Z" fill="black" />
        <path
            d="M59.4189 201.006C59.4305 198.461 61.5028 196.407 64.0476 196.419C66.5924 196.43 68.646 198.503 68.6344 201.048C68.6228 203.592 66.5505 205.646 64.0057 205.634C61.461 205.623 59.4074 203.551 59.4189 201.006Z"
            fill="#F0EFED"
            stroke="black"
            stroke-width="0.837778"
        />
        <path d="M69.8893 244.947C67.1132 244.934 64.8525 247.174 64.8399 249.951C64.8273 252.727 67.0676 254.987 69.8437 255C72.6198 255.013 74.8805 252.772 74.8931 249.996C74.9057 247.22 72.6655 244.959 69.8893 244.947Z" fill="black" />
        <path
            d="M59.4189 248.006C59.4305 245.461 61.5028 243.407 64.0476 243.419C66.5924 243.43 68.646 245.503 68.6344 248.048C68.6228 250.592 66.5505 252.646 64.0057 252.634C61.461 252.623 59.4074 250.551 59.4189 248.006Z"
            fill="#F0EFED"
            stroke="black"
            stroke-width="0.837778"
        />
    </g>
    <defs>
        <clipPath id="clip0_3303_11005">
            <rect width="111" height="322" fill="white" />
        </clipPath>
    </defs>
</svg>
