<svg xmlns="http://www.w3.org/2000/svg" width="100%" height="100%" viewBox="0 0 22 22" fill="none">
    <path
        d="M11 0C4.9225 0 0 4.9225 0 11C0 13.42 0.77 15.6475 2.09 17.4625L0.5775 21.45L4.95 20.185C6.6825 21.34 8.7725 22 11 22C17.0775 22 22 17.0775 22 11C22 4.9225 17.0775 0 11 0ZM16.8575 15.565L15.675 16.72C14.4375 17.9575 11.165 16.61 8.2775 13.695C5.39 10.8075 4.0975 7.535 5.2525 6.325L6.435 5.1425C6.875 4.7025 7.6175 4.7025 8.085 5.1425L9.8175 6.875C10.4225 7.48 10.175 8.525 9.3775 8.7725C8.8275 8.965 8.4425 9.57 8.635 10.12C8.9375 11.4125 10.615 13.0075 11.8525 13.31C12.4025 13.4475 13.035 13.1175 13.2 12.5675C13.4475 11.77 14.4925 11.5225 15.0975 12.1275L16.83 13.86C17.27 14.3275 17.27 15.07 16.8575 15.565Z"
        fill="url(#paint0_linear_7324_30300)"
    />
    <defs>
        <linearGradient id="paint0_linear_7324_30300" x1="4.88569e-06" y1="-5.50001" x2="19" y2="15.5" gradientUnits="userSpaceOnUse">
            <stop stop-color="#D6FFBB" />
            <stop offset="1" stop-color="#5869DD" />
        </linearGradient>
    </defs>
</svg>
