<svg width="37" height="43" viewBox="0 0 37 43" fill="none" xmlns="http://www.w3.org/2000/svg">
<path d="M18.0472 18.9316H15.9531V21.0811H18.0472V18.9316Z" fill="#5869DD"/>
<path d="M16.055 18.9316H13.9609V21.0811H16.055V18.9316Z" fill="#5869DD"/>
<path d="M14.0628 18.9316H11.9688V21.0811H14.0628V18.9316Z" fill="#5869DD"/>
<path d="M12.0628 18.9316H9.96875V21.0811H12.0628V18.9316Z" fill="#5869DD"/>
<path d="M10.0706 18.9316H7.97656V21.0811H10.0706V18.9316Z" fill="#5869DD"/>
<path d="M10.0706 7.96899H7.97656V10.1185H10.0706V7.96899Z" fill="#5869DD"/>
<path d="M12.0628 7.96899H9.96875V10.1185H12.0628V7.96899Z" fill="#5869DD"/>
<path d="M14.0628 7.96899H11.9688V10.1185H14.0628V7.96899Z" fill="#5869DD"/>
<path d="M16.055 7.96899H13.9609V10.1185H16.055V7.96899Z" fill="#5869DD"/>
<path d="M18.0472 7.96899H15.9531V10.1185H18.0472V7.96899Z" fill="#5869DD"/>
<path d="M22.0394 17.9336H19.9453V20.0831H22.0394V17.9336Z" fill="#5869DD"/>
<path d="M24.0315 17.9336H21.9375V20.0831H24.0315V17.9336Z" fill="#5869DD"/>
<path d="M26.0315 17.9336H23.9375V20.0831H26.0315V17.9336Z" fill="#5869DD"/>
<path d="M26.0315 16.9373H23.9375V19.0868H26.0315V16.9373Z" fill="#5869DD"/>
<path d="M24.0315 16.9373H21.9375V19.0868H24.0315V16.9373Z" fill="#5869DD"/>
<path d="M22.0394 16.9373H19.9453V19.0868H22.0394V16.9373Z" fill="#5869DD"/>
<path d="M28.0237 11.9556H25.9297V14.1051H28.0237V11.9556Z" fill="#5869DD"/>
<path d="M28.0237 17.9336H25.9297V20.0831H28.0237V17.9336Z" fill="#5869DD"/>
<path d="M30.0159 17.9336H27.9219V20.0831H30.0159V17.9336Z" fill="#5869DD"/>
<path d="M22.0394 7.96899H19.9453V10.1185H22.0394V7.96899Z" fill="#5869DD"/>
<path d="M24.0315 7.96899H21.9375V10.1185H24.0315V7.96899Z" fill="#5869DD"/>
<path d="M26.0315 7.96899H23.9375V10.1185H26.0315V7.96899Z" fill="#5869DD"/>
<path d="M28.0237 7.96899H25.9297V10.1185H28.0237V7.96899Z" fill="#5869DD"/>
<path d="M30.0159 7.96899H27.9219V10.1185H30.0159V7.96899Z" fill="#5869DD"/>
<path d="M21.0472 18.9316H18.9531V21.0811H21.0472V18.9316Z" fill="black"/>
<path d="M21.0472 20.9243H18.9531V23.0738H21.0472V20.9243Z" fill="black"/>
<path d="M21.0472 22.9153H18.9531V25.0648H21.0472V22.9153Z" fill="black"/>
<path d="M21.0472 24.908H18.9531V27.0575H21.0472V24.908Z" fill="black"/>
<path d="M21.0472 26.9006H18.9531V29.0501H21.0472V26.9006Z" fill="black"/>
<path d="M21.0472 28.8933H18.9531V31.0428H21.0472V28.8933Z" fill="black"/>
<path d="M21.0472 30.8862H18.9531V33.0357H21.0472V30.8862Z" fill="black"/>
<path d="M21.0472 32.8789H18.9531V35.0284H21.0472V32.8789Z" fill="black"/>
<path d="M11.2648 19.8843H9.17079V22.0354H11.2648V19.8843Z" fill="url(#paint0_linear_17875_62951)"/>
<path d="M19.6393 19.8843H17.5453V22.0354H19.6393V19.8843Z" fill="url(#paint1_linear_17875_62951)"/>
<path d="M17.5453 19.8843H15.4513V22.0354H17.5453V19.8843Z" fill="url(#paint2_linear_17875_62951)"/>
<path d="M15.4513 19.8843H13.3589V22.0354H15.4513V19.8843Z" fill="url(#paint3_linear_17875_62951)"/>
<path d="M13.3589 19.8843H11.2648V22.0354H13.3589V19.8843Z" fill="url(#paint4_linear_17875_62951)"/>
<path d="M9.17079 19.8843H7.07842V22.0354H9.17079V19.8843Z" fill="url(#paint5_linear_17875_62951)"/>
<path d="M7.07842 19.8843H4.98438V22.0354H7.07842V19.8843Z" fill="url(#paint6_linear_17875_62951)"/>
<path d="M21.7334 19.8882H19.6393V22.0393H21.7334V19.8882Z" fill="url(#paint7_linear_17875_62951)"/>
<path d="M23.8304 19.8843H21.7364V22.0354H23.8304V19.8843Z" fill="url(#paint8_linear_17875_62951)"/>
<path d="M25.9245 19.8843H23.8304V22.0354H25.9245V19.8843Z" fill="url(#paint9_linear_17875_62951)"/>
<path d="M28.022 19.8882H25.9279V22.0393H28.022V19.8882Z" fill="url(#paint10_linear_17875_62951)"/>
<path d="M30.1171 19.8843H28.0231V22.0354H30.1171V19.8843Z" fill="url(#paint11_linear_17875_62951)"/>
<path d="M7.08624 21.9216H4.99219V24.0711H7.08624V21.9216Z" fill="black"/>
<path d="M9.07842 21.9216H6.98438V24.0711H9.07842V21.9216Z" fill="black"/>
<path d="M11.0784 21.9216H8.98438V24.0711H11.0784V21.9216Z" fill="black"/>
<path d="M13.0706 21.9216H10.9766V24.0711H13.0706V21.9216Z" fill="black"/>
<path d="M15.0628 21.9216H12.9688V24.0711H15.0628V21.9216Z" fill="black"/>
<path d="M17.0628 21.9216H14.9688V24.0711H17.0628V21.9216Z" fill="black"/>
<path d="M19.055 21.9216H16.9609V24.0711H19.055V21.9216Z" fill="black"/>
<path d="M21.0472 21.9216H18.9531V24.0711H21.0472V21.9216Z" fill="black"/>
<path d="M23.0394 21.9216H20.9453V24.0711H23.0394V21.9216Z" fill="black"/>
<path d="M25.0394 21.9216H22.9453V24.0711H25.0394V21.9216Z" fill="black"/>
<path d="M27.0315 21.9216H24.9375V24.0711H27.0315V21.9216Z" fill="black"/>
<path d="M29.0237 21.9216H26.9297V24.0711H29.0237V21.9216Z" fill="black"/>
<path d="M31.0237 21.9216H28.9297V24.0711H31.0237V21.9216Z" fill="black"/>
<path d="M37.0003 0H34.9062V2.1495H37.0003V0Z" fill="#8F8E93"/>
<path d="M37.0003 1.99268H34.9062V4.14218H37.0003V1.99268Z" fill="#8F8E93"/>
<path d="M37.0003 3.98535H34.9062V6.13486H37.0003V3.98535Z" fill="#8F8E93"/>
<path d="M37.0003 5.97803H34.9062V8.12753H37.0003V5.97803Z" fill="#8F8E93"/>
<path d="M37.0003 7.97095H34.9062V10.1205H37.0003V7.97095Z" fill="#8F8E93"/>
<path d="M37.0003 9.96362H34.9062V12.1131H37.0003V9.96362Z" fill="#8F8E93"/>
<path d="M37.0003 11.9563H34.9062V14.1058H37.0003V11.9563Z" fill="#8F8E93"/>
<path d="M37.0003 13.949H34.9062V16.0985H37.0003V13.949Z" fill="#8F8E93"/>
<path d="M37.0003 15.9417H34.9062V18.0912H37.0003V15.9417Z" fill="#8F8E93"/>
<path d="M37.0003 17.9343H34.9062V20.0838H37.0003V17.9343Z" fill="#8F8E93"/>
<path d="M37.0003 19.927H34.9062V22.0765H37.0003V19.927Z" fill="#8F8E93"/>
<path d="M37.0003 21.9197H34.9062V24.0692H37.0003V21.9197Z" fill="#8F8E93"/>
<path d="M37.0003 23.9126H34.9062V26.0621H37.0003V23.9126Z" fill="#8F8E93"/>
<path d="M37.0003 25.9053H34.9062V28.0548H37.0003V25.9053Z" fill="#8F8E93"/>
<path d="M37.0003 27.8979H34.9062V30.0475H37.0003V27.8979Z" fill="#8F8E93"/>
<path d="M37.0003 29.8906H34.9062V32.0401H37.0003V29.8906Z" fill="#8F8E93"/>
<path d="M37.0003 31.8833H34.9062V34.0328H37.0003V31.8833Z" fill="#8F8E93"/>
<path d="M37.0003 33.876H34.9062V36.0255H37.0003V33.876Z" fill="#8F8E93"/>
<path d="M37.0003 35.8687H34.9062V38.0182H37.0003V35.8687Z" fill="#8F8E93"/>
<path d="M37.0003 37.8613H34.9062V40.0108H37.0003V37.8613Z" fill="#8F8E93"/>
<path d="M37.0003 39.8542H34.9062V42.0038H37.0003V39.8542Z" fill="#8F8E93"/>
<path d="M37.0003 40.8506H34.9062V43.0001H37.0003V40.8506Z" fill="#8F8E93"/>
<path d="M10.0706 8.96558H7.97656V11.1151H10.0706V8.96558Z" fill="#5869DD"/>
<path d="M12.0628 8.96558H9.96875V11.1151H12.0628V8.96558Z" fill="#5869DD"/>
<path d="M14.0628 8.96558H11.9688V11.1151H14.0628V8.96558Z" fill="#5869DD"/>
<path d="M16.055 8.96558H13.9609V11.1151H16.055V8.96558Z" fill="#5869DD"/>
<path d="M18.0472 8.96558H15.9531V11.1151H18.0472V8.96558Z" fill="#5869DD"/>
<path d="M23.0394 8.96729H20.9453V11.1168H23.0394V8.96729Z" fill="#5869DD"/>
<path d="M27.0237 8.96729H24.9297V11.1168H27.0237V8.96729Z" fill="#5869DD"/>
<path d="M10.0706 10.96H7.97656V13.1095H10.0706V10.96Z" fill="#5869DD"/>
<path d="M10.0706 12.9526H7.97656V15.1021H10.0706V12.9526Z" fill="#5869DD"/>
<path d="M10.0706 14.9453H7.97656V17.0948H10.0706V14.9453Z" fill="#5869DD"/>
<path d="M10.0706 16.938H7.97656V19.0875H10.0706V16.938Z" fill="#5869DD"/>
<path d="M12.0706 16.938H9.97656V19.0875H12.0706V16.938Z" fill="#5869DD"/>
<path d="M14.0628 16.938H11.9688V19.0875H14.0628V16.938Z" fill="#5869DD"/>
<path d="M23.0394 23.9126H20.9453V26.0621H23.0394V23.9126Z" fill="#5869DD"/>
<path d="M23.0394 25.9053H20.9453V28.0548H23.0394V25.9053Z" fill="#5869DD"/>
<path d="M23.0394 29.8906H20.9453V32.0401H23.0394V29.8906Z" fill="#5869DD"/>
<path d="M23.0394 31.8833H20.9453V34.0328H23.0394V31.8833Z" fill="#5869DD"/>
<path d="M23.0394 33.876H20.9453V36.0255H23.0394V33.876Z" fill="#5869DD"/>
<path d="M25.0315 23.9126H22.9375V26.0621H25.0315V23.9126Z" fill="#5869DD"/>
<path d="M18.0472 23.9126H15.9531V26.0621H18.0472V23.9126Z" fill="#5869DD"/>
<path d="M18.0472 25.9053H15.9531V28.0548H18.0472V25.9053Z" fill="#5869DD"/>
<path d="M18.0472 26.9016H15.9531V29.0511H18.0472V26.9016Z" fill="#5869DD"/>
<path d="M18.0472 30.887H15.9531V33.0365H18.0472V30.887Z" fill="#5869DD"/>
<path d="M18.0472 32.8796H15.9531V35.0291H18.0472V32.8796Z" fill="#5869DD"/>
<path d="M16.055 32.8796H13.9609V35.0291H16.055V32.8796Z" fill="#5869DD"/>
<path d="M14.0628 32.8796H11.9688V35.0291H14.0628V32.8796Z" fill="#5869DD"/>
<path d="M12.0706 32.8796H9.97656V35.0291H12.0706V32.8796Z" fill="#5869DD"/>
<path d="M10.0706 32.8796H7.97656V35.0291H10.0706V32.8796Z" fill="#5869DD"/>
<path d="M12.0706 31.8833H9.97656V34.0328H12.0706V31.8833Z" fill="#5869DD"/>
<path d="M14.0628 31.8833H11.9688V34.0328H14.0628V31.8833Z" fill="#5869DD"/>
<path d="M16.055 31.8833H13.9609V34.0328H16.055V31.8833Z" fill="#5869DD"/>
<path d="M16.055 25.9053H13.9609V28.0548H16.055V25.9053Z" fill="#5869DD"/>
<path d="M14.0628 27.8979H11.9688V30.0475H14.0628V27.8979Z" fill="#5869DD"/>
<path d="M16.055 23.9126H13.9609V26.0621H16.055V23.9126Z" fill="#5869DD"/>
<path d="M14.0628 23.9126H11.9688V26.0621H14.0628V23.9126Z" fill="#5869DD"/>
<path d="M12.0706 23.9126H9.97656V26.0621H12.0706V23.9126Z" fill="#5869DD"/>
<path d="M25.0315 25.9053H22.9375V28.0548H25.0315V25.9053Z" fill="#5869DD"/>
<path d="M25.0315 27.8979H22.9375V30.0475H25.0315V27.8979Z" fill="#5869DD"/>
<path d="M25.0315 29.8906H22.9375V32.0401H25.0315V29.8906Z" fill="#5869DD"/>
<path d="M25.0315 31.8833H22.9375V34.0328H25.0315V31.8833Z" fill="#5869DD"/>
<path d="M25.0315 33.876H22.9375V36.0255H25.0315V33.876Z" fill="#5869DD"/>
<path d="M27.0237 23.9126H24.9297V26.0621H27.0237V23.9126Z" fill="#5869DD"/>
<path d="M27.0237 25.9053H24.9297V28.0548H27.0237V25.9053Z" fill="#5869DD"/>
<path d="M27.0237 27.8979H24.9297V30.0475H27.0237V27.8979Z" fill="#5869DD"/>
<path d="M27.0237 29.8906H24.9297V32.0401H27.0237V29.8906Z" fill="#5869DD"/>
<path d="M27.0237 31.8833H24.9297V34.0328H27.0237V31.8833Z" fill="#5869DD"/>
<path d="M27.0237 33.876H24.9297V36.0255H27.0237V33.876Z" fill="#5869DD"/>
<path d="M29.0237 23.9126H26.9297V26.0621H29.0237V23.9126Z" fill="#5869DD"/>
<path d="M29.0237 25.9053H26.9297V28.0548H29.0237V25.9053Z" fill="#5869DD"/>
<path d="M29.0237 27.8979H26.9297V30.0475H29.0237V27.8979Z" fill="#5869DD"/>
<path d="M29.0237 29.8906H26.9297V32.0401H29.0237V29.8906Z" fill="#5869DD"/>
<path d="M29.0237 31.8833H26.9297V34.0328H29.0237V31.8833Z" fill="#5869DD"/>
<path d="M29.0237 33.876H26.9297V36.0255H29.0237V33.876Z" fill="#5869DD"/>
<path d="M31.0159 23.9126H28.9219V26.0621H31.0159V23.9126Z" fill="#5869DD"/>
<path d="M31.0159 25.9053H28.9219V28.0548H31.0159V25.9053Z" fill="#5869DD"/>
<path d="M31.0159 27.8979H28.9219V30.0475H31.0159V27.8979Z" fill="#5869DD"/>
<path d="M31.0159 29.8906H28.9219V32.0401H31.0159V29.8906Z" fill="#5869DD"/>
<path d="M31.0159 31.8833H28.9219V34.0328H31.0159V31.8833Z" fill="#5869DD"/>
<path d="M31.0159 33.876H28.9219V36.0255H31.0159V33.876Z" fill="#5869DD"/>
<path d="M12.0706 10.96H9.97656V13.1095H12.0706V10.96Z" fill="#5869DD"/>
<path d="M14.0628 10.96H11.9688V13.1095H14.0628V10.96Z" fill="#5869DD"/>
<path d="M14.0628 12.9526H11.9688V15.1021H14.0628V12.9526Z" fill="#5869DD"/>
<path d="M18.0472 10.96H15.9531V13.1095H18.0472V10.96Z" fill="#5869DD"/>
<path d="M23.0394 10.96H20.9453V13.1095H23.0394V10.96Z" fill="#5869DD"/>
<path d="M24.0315 14.9453H21.9375V17.0948H24.0315V14.9453Z" fill="#5869DD"/>
<path d="M16.055 10.96H13.9609V13.1095H16.055V10.96Z" fill="#5869DD"/>
<path d="M18.055 12.9519H15.9609V15.1014H18.055V12.9519Z" fill="#F1EFED"/>
<path d="M18.055 11.9556H15.9609V14.1051H18.055V11.9556Z" fill="#F1EFED"/>
<path d="M18.055 14.9446H15.9609V17.0941H18.055V14.9446Z" fill="#F1EFED"/>
<path d="M22.0394 12.9519H19.9453V15.1014H22.0394V12.9519Z" fill="#F1EFED"/>
<path d="M22.0394 11.9556H19.9453V14.1051H22.0394V11.9556Z" fill="#F1EFED"/>
<path d="M22.0394 14.9446H19.9453V17.0941H22.0394V14.9446Z" fill="#F1EFED"/>
<path d="M24.0394 11.9551H21.9453V14.1046H24.0394V11.9551Z" fill="#F1EFED"/>
<path d="M24.0394 10.9587H21.9453V13.1082H24.0394V10.9587Z" fill="#F1EFED"/>
<path d="M24.0394 13.9478H21.9453V16.0973H24.0394V13.9478Z" fill="#F1EFED"/>
<path d="M30.0159 10.9585H27.9219V13.108H30.0159V10.9585Z" fill="#F1EFED"/>
<path d="M30.0159 9.96216H27.9219V12.1117H30.0159V9.96216Z" fill="#F1EFED"/>
<path d="M30.0159 12.9512H27.9219V15.1007H30.0159V12.9512Z" fill="#F1EFED"/>
<path d="M30.0159 14.9438H27.9219V17.0934H30.0159V14.9438Z" fill="#F1EFED"/>
<path d="M30.0159 15.9402H27.9219V18.0897H30.0159V15.9402Z" fill="#F1EFED"/>
<path d="M28.0237 13.9475H25.9297V16.097H28.0237V13.9475Z" fill="#F1EFED"/>
<path d="M26.0315 13.9475H23.9375V16.097H26.0315V13.9475Z" fill="#F1EFED"/>
<path d="M26.0315 10.9585H23.9375V13.108H26.0315V10.9585Z" fill="#F1EFED"/>
<path d="M28.0237 10.9585H25.9297V13.108H28.0237V10.9585Z" fill="#F1EFED"/>
<path d="M29.0237 9.96216H26.9297V12.1117H29.0237V9.96216Z" fill="#F1EFED"/>
<path d="M25.0315 9.96216H22.9375V12.1117H25.0315V9.96216Z" fill="#F1EFED"/>
<path d="M12.0706 14.9453H9.97656V17.0948H12.0706V14.9453Z" fill="#5869DD"/>
<path d="M14.0628 14.9453H11.9688V17.0948H14.0628V14.9453Z" fill="#5869DD"/>
<path d="M16.055 14.9453H13.9609V17.0948H16.055V14.9453Z" fill="#5869DD"/>
<path d="M16.055 16.938H13.9609V19.0875H16.055V16.938Z" fill="#5869DD"/>
<path d="M18.0472 16.938H15.9531V19.0875H18.0472V16.938Z" fill="#5869DD"/>
<path d="M32.0159 4.98169H29.9219V7.13119H32.0159V4.98169Z" fill="#8F8E93"/>
<path d="M32.0159 6.97437H29.9219V9.12387H32.0159V6.97437Z" fill="#8F8E93"/>
<path d="M32.0159 8.96729H29.9219V11.1168H32.0159V8.96729Z" fill="#8F8E93"/>
<path d="M32.0159 10.96H29.9219V13.1095H32.0159V10.96Z" fill="#8F8E93"/>
<path d="M32.0159 12.9526H29.9219V15.1021H32.0159V12.9526Z" fill="#8F8E93"/>
<path d="M25.0315 14.9453H22.9375V17.0948H25.0315V14.9453Z" fill="#8F8E93"/>
<path d="M27.0237 14.9453H24.9297V17.0948H27.0237V14.9453Z" fill="#8F8E93"/>
<path d="M28.0237 15.9417H25.9297V18.0912H28.0237V15.9417Z" fill="#8F8E93"/>
<path d="M32.0159 14.9453H29.9219V17.0948H32.0159V14.9453Z" fill="#8F8E93"/>
<path d="M32.0159 16.938H29.9219V19.0875H32.0159V16.938Z" fill="#8F8E93"/>
<path d="M32.0159 18.9307H29.9219V21.0802H32.0159V18.9307Z" fill="#8F8E93"/>
<path d="M32.0159 20.9233H29.9219V23.0728H32.0159V20.9233Z" fill="#8F8E93"/>
<path d="M4.09405 0.996582H2V3.14609H4.09405V0.996582Z" fill="#F1EFED"/>
<path d="M6.08624 0.996582H3.99219V3.14609H6.08624V0.996582Z" fill="#F1EFED"/>
<path d="M8.08624 0.996582H5.99219V3.14609H8.08624V0.996582Z" fill="#F1EFED"/>
<path d="M10.0784 0.996582H7.98438V3.14609H10.0784V0.996582Z" fill="#F1EFED"/>
<path d="M12.0706 0.996582H9.97656V3.14609H12.0706V0.996582Z" fill="#F1EFED"/>
<path d="M14.0706 0.996582H11.9766V3.14609H14.0706V0.996582Z" fill="#F1EFED"/>
<path d="M16.0628 0.996582H13.9688V3.14609H16.0628V0.996582Z" fill="#F1EFED"/>
<path d="M18.055 0.996582H15.9609V3.14609H18.055V0.996582Z" fill="#F1EFED"/>
<path d="M20.0472 0.996582H17.9531V3.14609H20.0472V0.996582Z" fill="#F1EFED"/>
<path d="M22.0472 0.996582H19.9531V3.14609H22.0472V0.996582Z" fill="#F1EFED"/>
<path d="M24.0394 0.996582H21.9453V3.14609H24.0394V0.996582Z" fill="#F1EFED"/>
<path d="M26.0315 0.996582H23.9375V3.14609H26.0315V0.996582Z" fill="#F1EFED"/>
<path d="M28.0315 0.996582H25.9375V3.14609H28.0315V0.996582Z" fill="#F1EFED"/>
<path d="M30.0237 0.996582H27.9297V3.14609H30.0237V0.996582Z" fill="#F1EFED"/>
<path d="M32.1178 0.996582H30.0237V3.14609H32.1178V0.996582Z" fill="#F1EFED"/>
<path d="M34.2118 0.996582H32.1178V3.14609H34.2118V0.996582Z" fill="#F1EFED"/>
<path d="M35.0122 0.997756L34.2118 0.996582V3.14609L35.0122 3.14726V2.07251V0.997756Z" fill="#F1EFED"/>
<path d="M32.0159 22.916H29.9219V25.0655H32.0159V22.916Z" fill="#8F8E93"/>
<path d="M32.0159 24.9089H29.9219V27.0584H32.0159V24.9089Z" fill="#8F8E93"/>
<path d="M32.0159 26.9016H29.9219V29.0511H32.0159V26.9016Z" fill="#8F8E93"/>
<path d="M32.0159 28.8943H29.9219V31.0438H32.0159V28.8943Z" fill="#8F8E93"/>
<path d="M32.0159 30.887H29.9219V33.0365H32.0159V30.887Z" fill="#8F8E93"/>
<path d="M32.0159 32.8796H29.9219V35.0291H32.0159V32.8796Z" fill="#8F8E93"/>
<path d="M32.0159 34.8723H29.9219V37.0218H32.0159V34.8723Z" fill="#8F8E93"/>
<path d="M9.07842 34.8723H6.98438V37.0218H9.07842V34.8723Z" fill="#8F8E93"/>
<path d="M11.0706 34.8723H8.97656V37.0218H11.0706V34.8723Z" fill="#8F8E93"/>
<path d="M13.0628 34.8723H10.9688V37.0218H13.0628V34.8723Z" fill="#8F8E93"/>
<path d="M15.0628 34.8723H12.9688V37.0218H15.0628V34.8723Z" fill="#8F8E93"/>
<path d="M17.055 34.8723H14.9609V37.0218H17.055V34.8723Z" fill="#8F8E93"/>
<path d="M19.0472 34.8723H16.9531V37.0218H19.0472V34.8723Z" fill="#8F8E93"/>
<path d="M21.0394 34.8723H18.9453V37.0218H21.0394V34.8723Z" fill="#8F8E93"/>
<path d="M23.0394 34.8723H20.9453V37.0218H23.0394V34.8723Z" fill="#8F8E93"/>
<path d="M25.0315 34.8723H22.9375V37.0218H25.0315V34.8723Z" fill="#8F8E93"/>
<path d="M18.0472 28.8943H15.9531V31.0438H18.0472V28.8943Z" fill="#F1EFED"/>
<path d="M27.0237 34.8723H24.9297V37.0218H27.0237V34.8723Z" fill="#8F8E93"/>
<path d="M29.0237 34.8723H26.9297V37.0218H29.0237V34.8723Z" fill="#8F8E93"/>
<path d="M31.0159 34.8723H28.9219V37.0218H31.0159V34.8723Z" fill="#8F8E93"/>
<path d="M21.0472 6.97632H18.9531V9.12582H21.0472V6.97632Z" fill="black"/>
<path d="M21.0472 8.96899H18.9531V11.1185H21.0472V8.96899Z" fill="black"/>
<path d="M21.0472 10.9617H18.9531V13.1112H21.0472V10.9617Z" fill="black"/>
<path d="M21.0472 12.9543H18.9531V15.1039H21.0472V12.9543Z" fill="black"/>
<path d="M21.0472 14.9473H18.9531V17.0968H21.0472V14.9473Z" fill="black"/>
<path d="M21.0472 16.9399H18.9531V19.0894H21.0472V16.9399Z" fill="black"/>
<path d="M17.4766 25.3614V27.4534H19.6298V25.3614H17.4766Z" fill="url(#paint12_linear_17875_62951)"/>
<path d="M17.4766 16.9949V19.0869H19.6298V16.9949H17.4766Z" fill="url(#paint13_linear_17875_62951)"/>
<path d="M17.4766 19.0869V21.179H19.6298V19.0869H17.4766Z" fill="url(#paint14_linear_17875_62951)"/>
<path d="M17.4766 21.179V23.2693H19.6298V21.179H17.4766Z" fill="url(#paint15_linear_17875_62951)"/>
<path d="M17.4766 23.2693V25.3614H19.6298V23.2693H17.4766Z" fill="url(#paint16_linear_17875_62951)"/>
<path d="M17.4766 27.4534V29.5437H19.6298V27.4534H17.4766Z" fill="url(#paint17_linear_17875_62951)"/>
<path d="M17.4766 29.5437V31.621H19.6298V29.5437H17.4766Z" fill="url(#paint18_linear_17875_62951)"/>
<path d="M17.4805 14.9029V16.9949H19.6337V14.9029H17.4805Z" fill="url(#paint19_linear_17875_62951)"/>
<path d="M17.4766 12.8078V14.8999H19.6298V12.8078H17.4766Z" fill="url(#paint20_linear_17875_62951)"/>
<path d="M17.4766 10.7158V12.8078H19.6298V10.7158H17.4766Z" fill="url(#paint21_linear_17875_62951)"/>
<path d="M17.4805 8.62032V10.7124H19.6337V8.62032H17.4805Z" fill="url(#paint22_linear_17875_62951)"/>
<path d="M17.4766 6.52719V8.61922H19.6298V6.52719H17.4766Z" fill="url(#paint23_linear_17875_62951)"/>
<path d="M17.4766 31.621V32.9476H19.6298V31.621H17.4766Z" fill="url(#paint24_linear_17875_62951)"/>
<path d="M17.4766 32.9476V34.8723H19.6298V32.9476H17.4766Z" fill="url(#paint25_linear_17875_62951)"/>
<path d="M2.09405 40.8506H0V43.0001H2.09405V40.8506Z" fill="#8F8E93"/>
<path d="M2.09405 36.8633H0V39.0128H2.09405V36.8633Z" fill="#8F8E93"/>
<path d="M2.09405 39H0V41.1495H2.09405V39Z" fill="#8F8E93"/>
<path d="M2.09405 34.8723H0V37.0218H2.09405V34.8723Z" fill="#8F8E93"/>
<path d="M2.09405 32.8796H0V35.0291H2.09405V32.8796Z" fill="#8F8E93"/>
<path d="M2.09405 30.887H0V33.0365H2.09405V30.887Z" fill="#8F8E93"/>
<path d="M2.09405 28.8943H0V31.0438H2.09405V28.8943Z" fill="#8F8E93"/>
<path d="M2.09405 26.9016H0V29.0511H2.09405V26.9016Z" fill="#8F8E93"/>
<path d="M2.09405 24.9089H0V27.0584H2.09405V24.9089Z" fill="#8F8E93"/>
<path d="M2.09405 22.916H0V25.0655H2.09405V22.916Z" fill="#8F8E93"/>
<path d="M2.09405 20.9233H0V23.0728H2.09405V20.9233Z" fill="#8F8E93"/>
<path d="M2.09405 18.9307H0V21.0802H2.09405V18.9307Z" fill="#8F8E93"/>
<path d="M2.09405 16.938H0V19.0875H2.09405V16.938Z" fill="#8F8E93"/>
<path d="M2.09405 14.9453H0V17.0948H2.09405V14.9453Z" fill="#8F8E93"/>
<path d="M2.09405 12.9526H0V15.1021H2.09405V12.9526Z" fill="#8F8E93"/>
<path d="M2.09405 10.96H0V13.1095H2.09405V10.96Z" fill="#8F8E93"/>
<path d="M2.09405 8.96729H0V11.1168H2.09405V8.96729Z" fill="#8F8E93"/>
<path d="M2.09405 6.97437H0V9.12387H2.09405V6.97437Z" fill="#8F8E93"/>
<path d="M2.09405 4.98169H0V7.13119H2.09405V4.98169Z" fill="#8F8E93"/>
<path d="M2.09405 2.98901H0V5.13852H2.09405V2.98901Z" fill="#8F8E93"/>
<path d="M1.99463 0.996338H0V3.14584H1.99463V0.996338Z" fill="#8F8E93"/>
<path d="M2.09405 0H0V2.1495H2.09405V0Z" fill="#C0BFC0"/>
<path d="M4.08624 0H1.99219V2.1495H4.08624V0Z" fill="#C0BFC0"/>
<path d="M6.08624 0H3.99219V2.1495H6.08624V0Z" fill="#C0BFC0"/>
<path d="M8.07842 0H5.98438V2.1495H8.07842V0Z" fill="#C0BFC0"/>
<path d="M10.0706 0H7.97656V2.1495H10.0706V0Z" fill="#C0BFC0"/>
<path d="M12.0706 0H9.97656V2.1495H12.0706V0Z" fill="#C0BFC0"/>
<path d="M14.0628 0H11.9688V2.1495H14.0628V0Z" fill="#C0BFC0"/>
<path d="M16.055 0H13.9609V2.1495H16.055V0Z" fill="#C0BFC0"/>
<path d="M18.0472 0H15.9531V2.1495H18.0472V0Z" fill="#C0BFC0"/>
<path d="M20.0472 0H17.9531V2.1495H20.0472V0Z" fill="#C0BFC0"/>
<path d="M22.0394 0H19.9453V2.1495H22.0394V0Z" fill="#C0BFC0"/>
<path d="M24.0315 0H21.9375V2.1495H24.0315V0Z" fill="#C0BFC0"/>
<path d="M26.0315 0H23.9375V2.1495H26.0315V0Z" fill="#C0BFC0"/>
<path d="M28.0237 0H25.9297V2.1495H28.0237V0Z" fill="#C0BFC0"/>
<path d="M30.0159 0H27.9219V2.1495H30.0159V0Z" fill="#C0BFC0"/>
<path d="M32.0159 0H29.9219V2.1495H32.0159V0Z" fill="#C0BFC0"/>
<path d="M34.0081 0H31.9141V2.1495H34.0081V0Z" fill="#C0BFC0"/>
<path d="M36.0003 0H33.9062V2.1495H36.0003V0Z" fill="#C0BFC0"/>
<path d="M4.08624 40.8506H1.99219V43.0001H4.08624V40.8506Z" fill="#8F8E93"/>
<path d="M6.08624 40.8506H3.99219V43.0001H6.08624V40.8506Z" fill="#8F8E93"/>
<path d="M8.07842 40.8506H5.98438V43.0001H8.07842V40.8506Z" fill="#8F8E93"/>
<path d="M10.0706 40.8506H7.97656V43.0001H10.0706V40.8506Z" fill="#8F8E93"/>
<path d="M12.0706 40.8506H9.97656V43.0001H12.0706V40.8506Z" fill="#8F8E93"/>
<path d="M14.0628 40.8506H11.9688V43.0001H14.0628V40.8506Z" fill="#8F8E93"/>
<path d="M16.055 40.8506H13.9609V43.0001H16.055V40.8506Z" fill="#8F8E93"/>
<path d="M18.0472 40.8506H15.9531V43.0001H18.0472V40.8506Z" fill="#8F8E93"/>
<path d="M20.0472 40.8506H17.9531V43.0001H20.0472V40.8506Z" fill="#8F8E93"/>
<path d="M22.0394 40.8506H19.9453V43.0001H22.0394V40.8506Z" fill="#8F8E93"/>
<path d="M24.0315 40.8506H21.9375V43.0001H24.0315V40.8506Z" fill="#8F8E93"/>
<path d="M26.0315 40.8506H23.9375V43.0001H26.0315V40.8506Z" fill="#8F8E93"/>
<path d="M28.0237 40.8506H25.9297V43.0001H28.0237V40.8506Z" fill="#8F8E93"/>
<path d="M30.0159 40.8506H27.9219V43.0001H30.0159V40.8506Z" fill="#8F8E93"/>
<path d="M32.0159 40.8506H29.9219V43.0001H32.0159V40.8506Z" fill="#8F8E93"/>
<path d="M34.0081 40.8506H31.9141V43.0001H34.0081V40.8506Z" fill="#8F8E93"/>
<path d="M36.0003 40.8506H33.9062V43.0001H36.0003V40.8506Z" fill="#8F8E93"/>
<path d="M7.07842 36.8633H4.98438V39.0128H7.07842V36.8633Z" fill="#F1EFED"/>
<path d="M6.09405 37H4V39.1495H6.09405V37Z" fill="#F1EFED"/>
<path d="M6.09405 35H4V37.1495H6.09405V35Z" fill="#F1EFED"/>
<path d="M6.09405 33H4V35.1495H6.09405V33Z" fill="#F1EFED"/>
<path d="M6.09405 31H4V33.1495H6.09405V31Z" fill="#F1EFED"/>
<path d="M6.09405 29H4V31.1495H6.09405V29Z" fill="#F1EFED"/>
<path d="M6.09405 27H4V29.1495H6.09405V27Z" fill="#F1EFED"/>
<path d="M6.09405 25H4V27.1495H6.09405V25Z" fill="#F1EFED"/>
<path d="M6.09405 23H4V25.1495H6.09405V23Z" fill="#F1EFED"/>
<path d="M6.09405 21H4V23.1495H6.09405V21Z" fill="#F1EFED"/>
<path d="M6.09405 19H4V21.1495H6.09405V19Z" fill="#F1EFED"/>
<path d="M6.09405 17H4V19.1495H6.09405V17Z" fill="#F1EFED"/>
<path d="M6.09405 15H4V17.1495H6.09405V15Z" fill="#F1EFED"/>
<path d="M6.09405 13H4V15.1495H6.09405V13Z" fill="#F1EFED"/>
<path d="M6.09405 11H4V13.1495H6.09405V11Z" fill="#F1EFED"/>
<path d="M6.09405 9H4V11.1495H6.09405V9Z" fill="#F1EFED"/>
<path d="M6.09405 7H4V9.1495H6.09405V7Z" fill="#F1EFED"/>
<path d="M6.09405 5H4V7.1495H6.09405V5Z" fill="#F1EFED"/>
<path d="M9.07842 36.865H6.98438V39.0145H9.07842V36.865Z" fill="#F1EFED"/>
<path d="M11.0706 36.865H8.97656V39.0145H11.0706V36.865Z" fill="#F1EFED"/>
<path d="M13.0628 36.865H10.9688V39.0145H13.0628V36.865Z" fill="#F1EFED"/>
<path d="M15.0628 36.865H12.9688V39.0145H15.0628V36.865Z" fill="#F1EFED"/>
<path d="M17.055 36.865H14.9609V39.0145H17.055V36.865Z" fill="#F1EFED"/>
<path d="M19.0472 36.865H16.9531V39.0145H19.0472V36.865Z" fill="#F1EFED"/>
<path d="M21.0394 36.865H18.9453V39.0145H21.0394V36.865Z" fill="#F1EFED"/>
<path d="M23.0394 36.865H20.9453V39.0145H23.0394V36.865Z" fill="#F1EFED"/>
<path d="M25.0315 36.865H22.9375V39.0145H25.0315V36.865Z" fill="#F1EFED"/>
<path d="M8.07842 28.8926H5.98438V31.0421H8.07842V28.8926Z" fill="#C0BFC0"/>
<path d="M8.07842 27.8962H5.98438V30.0457H8.07842V27.8962Z" fill="#C0BFC0"/>
<path d="M8.07842 25.9036H5.98438V28.0531H8.07842V25.9036Z" fill="#C0BFC0"/>
<path d="M8.07842 23.9109H5.98438V26.0604H8.07842V23.9109Z" fill="#C0BFC0"/>
<path d="M8.07842 30.8853H5.98438V33.0348H8.07842V30.8853Z" fill="#C0BFC0"/>
<path d="M8.07842 32.8782H5.98438V35.0277H8.07842V32.8782Z" fill="#C0BFC0"/>
<path d="M27.0237 36.865H24.9297V39.0145H27.0237V36.865Z" fill="#F1EFED"/>
<path d="M29.0237 36.865H26.9297V39.0145H29.0237V36.865Z" fill="#F1EFED"/>
<path d="M31.0159 36.865H28.9219V39.0145H31.0159V36.865Z" fill="#F1EFED"/>
<path d="M33.0081 36.865H30.9141V39.0145H33.0081V36.865Z" fill="#F1EFED"/>
<path d="M35.0081 36.865H32.9141V39.0145H35.0081V36.865Z" fill="#C0BFC0"/>
<path d="M35.0081 34.8723H32.9141V37.0218H35.0081V34.8723Z" fill="#C0BFC0"/>
<path d="M35.0081 32.8796H32.9141V35.0291H35.0081V32.8796Z" fill="#C0BFC0"/>
<path d="M35.0081 30.887H32.9141V33.0365H35.0081V30.887Z" fill="#C0BFC0"/>
<path d="M35.0081 28.8943H32.9141V31.0438H35.0081V28.8943Z" fill="#C0BFC0"/>
<path d="M35.0081 26.9016H32.9141V29.0511H35.0081V26.9016Z" fill="#C0BFC0"/>
<path d="M35.0081 24.9089H32.9141V27.0584H35.0081V24.9089Z" fill="#C0BFC0"/>
<path d="M35.0081 22.916H32.9141V25.0655H35.0081V22.916Z" fill="#C0BFC0"/>
<path d="M35.0081 20.9233H32.9141V23.0728H35.0081V20.9233Z" fill="#C0BFC0"/>
<path d="M35.0081 18.9307H32.9141V21.0802H35.0081V18.9307Z" fill="#C0BFC0"/>
<path d="M35.0081 16.938H32.9141V19.0875H35.0081V16.938Z" fill="#C0BFC0"/>
<path d="M35.0081 14.9453H32.9141V17.0948H35.0081V14.9453Z" fill="#C0BFC0"/>
<path d="M35.0081 12.9526H32.9141V15.1021H35.0081V12.9526Z" fill="#C0BFC0"/>
<path d="M35.0081 10.96H32.9141V13.1095H35.0081V10.96Z" fill="#C0BFC0"/>
<path d="M35.0081 8.96729H32.9141V11.1168H35.0081V8.96729Z" fill="#C0BFC0"/>
<path d="M35.0081 6.97437H32.9141V9.12387H35.0081V6.97437Z" fill="#C0BFC0"/>
<path d="M35.0081 4.98169H32.9141V7.13119H35.0081V4.98169Z" fill="#C0BFC0"/>
<path d="M35.0081 2.98901H32.9141V5.13852H35.0081V2.98901Z" fill="#C0BFC0"/>
<path d="M33.0081 2.98901H30.9141V5.13852H33.0081V2.98901Z" fill="#C0BFC0"/>
<path d="M31.0159 2.98901H28.9219V5.13852H31.0159V2.98901Z" fill="#C0BFC0"/>
<path d="M29.0237 2.98901H26.9297V5.13852H29.0237V2.98901Z" fill="#C0BFC0"/>
<path d="M27.0237 2.98901H24.9297V5.13852H27.0237V2.98901Z" fill="#C0BFC0"/>
<path d="M25.0315 2.98901H22.9375V5.13852H25.0315V2.98901Z" fill="#C0BFC0"/>
<path d="M23.0394 2.98901H20.9453V5.13852H23.0394V2.98901Z" fill="#C0BFC0"/>
<path d="M21.0394 2.98901H18.9453V5.13852H21.0394V2.98901Z" fill="#C0BFC0"/>
<path d="M19.0472 2.98901H16.9531V5.13852H19.0472V2.98901Z" fill="#C0BFC0"/>
<path d="M17.055 2.98901H14.9609V5.13852H17.055V2.98901Z" fill="#C0BFC0"/>
<path d="M15.0628 2.98901H12.9688V5.13852H15.0628V2.98901Z" fill="#C0BFC0"/>
<path d="M13.0628 2.98901H10.9688V5.13852H13.0628V2.98901Z" fill="#C0BFC0"/>
<path d="M11.0706 2.98901H8.97656V5.13852H11.0706V2.98901Z" fill="#C0BFC0"/>
<path d="M9.07842 2.98901H6.98438V5.13852H9.07842V2.98901Z" fill="#C0BFC0"/>
<path d="M7.07842 2.98901H4.98438V5.13852H7.07842V2.98901Z" fill="#C0BFC0"/>
<path d="M5.08624 2.98901H2.99219V5.13852H5.08624V2.98901Z" fill="#C0BFC0"/>
<path d="M4.08624 2.98901H1.99219V5.13852H4.08624V2.98901Z" fill="#C0BFC0"/>
<path d="M4.08624 4.98169H1.99219V7.13119H4.08624V4.98169Z" fill="#C0BFC0"/>
<path d="M4.08624 6.97437H1.99219V9.12387H4.08624V6.97437Z" fill="#C0BFC0"/>
<path d="M4.08624 8.96729H1.99219V11.1168H4.08624V8.96729Z" fill="#C0BFC0"/>
<path d="M4.08624 10.96H1.99219V13.1095H4.08624V10.96Z" fill="#C0BFC0"/>
<path d="M4.08624 12.9526H1.99219V15.1021H4.08624V12.9526Z" fill="#C0BFC0"/>
<path d="M4.08624 14.9453H1.99219V17.0948H4.08624V14.9453Z" fill="#C0BFC0"/>
<path d="M4.08624 16.938H1.99219V19.0875H4.08624V16.938Z" fill="#C0BFC0"/>
<path d="M4.08624 18.9307H1.99219V21.0802H4.08624V18.9307Z" fill="#C0BFC0"/>
<path d="M4.08624 20.9233H1.99219V23.0728H4.08624V20.9233Z" fill="#C0BFC0"/>
<path d="M4.08624 22.916H1.99219V25.0655H4.08624V22.916Z" fill="#C0BFC0"/>
<path d="M4.08624 24.9089H1.99219V27.0584H4.08624V24.9089Z" fill="#C0BFC0"/>
<path d="M4.08624 26.9016H1.99219V29.0511H4.08624V26.9016Z" fill="#C0BFC0"/>
<path d="M4.08624 28.8943H1.99219V31.0438H4.08624V28.8943Z" fill="#C0BFC0"/>
<path d="M4.08624 30.887H1.99219V33.0365H4.08624V30.887Z" fill="#C0BFC0"/>
<path d="M4.08624 32.8796H1.99219V35.0291H4.08624V32.8796Z" fill="#C0BFC0"/>
<path d="M4.08624 34.8723H1.99219V37.0218H4.08624V34.8723Z" fill="#C0BFC0"/>
<path d="M4.08624 36.865H1.99219V39.0145H4.08624V36.865Z" fill="#C0BFC0"/>
<path d="M24.0315 13.949H21.9375V16.0985H24.0315V13.949Z" fill="#C0BFC0"/>
<path d="M26.0315 11.9563H23.9375V14.1058H26.0315V11.9563Z" fill="#C0BFC0"/>
<path d="M12.0706 12.9526H9.97656V15.1021H12.0706V12.9526Z" fill="#F1EFED"/>
<path d="M23.0394 27.8979H20.9453V30.0475H23.0394V27.8979Z" fill="#F1EFED"/>
<path d="M10.0706 23.9126H7.97656V26.0621H10.0706V23.9126Z" fill="#F1EFED"/>
<path d="M10.0706 25.9053H7.97656V28.0548H10.0706V25.9053Z" fill="#F1EFED"/>
<path d="M12.0706 25.9053H9.97656V28.0548H12.0706V25.9053Z" fill="#F1EFED"/>
<path d="M12.0706 27.8979H9.97656V30.0475H12.0706V27.8979Z" fill="#F1EFED"/>
<path d="M10.0706 27.8979H7.97656V30.0475H10.0706V27.8979Z" fill="#F1EFED"/>
<path d="M10.0706 29.8906H7.97656V32.0401H10.0706V29.8906Z" fill="#F1EFED"/>
<path d="M10.0706 30.887H7.97656V33.0365H10.0706V30.887Z" fill="#F1EFED"/>
<path d="M12.0706 29.8906H9.97656V32.0401H12.0706V29.8906Z" fill="#F1EFED"/>
<path d="M14.0628 29.8906H11.9688V32.0401H14.0628V29.8906Z" fill="#F1EFED"/>
<path d="M14.0628 28.8943H11.9688V31.0438H14.0628V28.8943Z" fill="#F1EFED"/>
<path d="M16.055 28.8943H13.9609V31.0438H16.055V28.8943Z" fill="#F1EFED"/>
<path d="M16.055 27.8979H13.9609V30.0475H16.055V27.8979Z" fill="#F1EFED"/>
<path d="M14.0628 25.9053H11.9688V28.0548H14.0628V25.9053Z" fill="#F1EFED"/>
<path d="M16.055 29.8906H13.9609V32.0401H16.055V29.8906Z" fill="#F1EFED"/>
<path d="M15.0628 12.9526H12.9688V15.1021H15.0628V12.9526Z" fill="#F1EFED"/>
<path d="M16.055 12.9526H13.9609V15.1021H16.055V12.9526Z" fill="#F1EFED"/>
<path d="M7.07842 6.97437H4.98438V9.12387H7.07842V6.97437Z" fill="black"/>
<path d="M7.07842 8.96729H4.98438V11.1168H7.07842V8.96729Z" fill="black"/>
<path d="M7.07842 10.96H4.98438V13.1095H7.07842V10.96Z" fill="black"/>
<path d="M7.07842 12.9526H4.98438V15.1021H7.07842V12.9526Z" fill="black"/>
<path d="M7.07842 14.9453H4.98438V17.0948H7.07842V14.9453Z" fill="black"/>
<path d="M7.07842 16.938H4.98438V19.0875H7.07842V16.938Z" fill="black"/>
<path d="M7.07842 18.9307H4.98438V21.0802H7.07842V18.9307Z" fill="black"/>
<path d="M7.07842 20.9233H4.98438V23.0728H7.07842V20.9233Z" fill="black"/>
<path d="M7.07842 22.916H4.98438V25.0655H7.07842V22.916Z" fill="black"/>
<path d="M7.07842 24.9089H4.98438V27.0584H7.07842V24.9089Z" fill="black"/>
<path d="M7.07842 26.9016H4.98438V29.0511H7.07842V26.9016Z" fill="black"/>
<path d="M7.07842 28.8943H4.98438V31.0438H7.07842V28.8943Z" fill="black"/>
<path d="M7.07842 30.887H4.98438V33.0365H7.07842V30.887Z" fill="black"/>
<path d="M7.07842 32.8796H4.98438V35.0291H7.07842V32.8796Z" fill="black"/>
<path d="M7.07842 34.8723H4.98438V37.0218H7.07842V34.8723Z" fill="black"/>
<path d="M10.0706 28.8943H7.97656V31.0438H10.0706V28.8943Z" fill="#C0BFC0"/>
<path d="M13.0628 30.887H10.9688V33.0365H13.0628V30.887Z" fill="#8F8E93"/>
<path d="M15.0628 29.8906H12.9688V32.0401H15.0628V29.8906Z" fill="#8F8E93"/>
<path d="M7.08624 4.98315H4.99219V7.13266H7.08624V4.98315Z" fill="black"/>
<path d="M9.07842 4.98315H6.98438V7.13266H9.07842V4.98315Z" fill="black"/>
<path d="M11.0784 4.98315H8.98438V7.13266H11.0784V4.98315Z" fill="black"/>
<path d="M13.0706 4.98315H10.9766V7.13266H13.0706V4.98315Z" fill="black"/>
<path d="M15.0628 4.98315H12.9688V7.13266H15.0628V4.98315Z" fill="black"/>
<path d="M17.0628 4.98315H14.9688V7.13266H17.0628V4.98315Z" fill="black"/>
<path d="M19.055 4.98315H16.9609V7.13266H19.055V4.98315Z" fill="black"/>
<path d="M21.0472 4.98315H18.9531V7.13266H21.0472V4.98315Z" fill="black"/>
<path d="M23.0394 4.98315H20.9453V7.13266H23.0394V4.98315Z" fill="black"/>
<path d="M25.0394 4.98315H22.9453V7.13266H25.0394V4.98315Z" fill="black"/>
<path d="M27.0315 4.98315H24.9375V7.13266H27.0315V4.98315Z" fill="black"/>
<path d="M29.0237 4.98315H26.9297V7.13266H29.0237V4.98315Z" fill="black"/>
<path d="M31.0237 4.98315H28.9297V7.13266H31.0237V4.98315Z" fill="black"/>
<defs>
<linearGradient id="paint0_linear_17875_62951" x1="4.98438" y1="20.9618" x2="30.1171" y2="20.9618" gradientUnits="userSpaceOnUse">
<stop stop-color="#D6FFBB"/>
<stop offset="1" stop-color="#5869DD"/>
</linearGradient>
<linearGradient id="paint1_linear_17875_62951" x1="4.98438" y1="20.9618" x2="30.1171" y2="20.9618" gradientUnits="userSpaceOnUse">
<stop stop-color="#D6FFBB"/>
<stop offset="1" stop-color="#5869DD"/>
</linearGradient>
<linearGradient id="paint2_linear_17875_62951" x1="4.98438" y1="20.9618" x2="30.1171" y2="20.9618" gradientUnits="userSpaceOnUse">
<stop stop-color="#D6FFBB"/>
<stop offset="1" stop-color="#5869DD"/>
</linearGradient>
<linearGradient id="paint3_linear_17875_62951" x1="4.98438" y1="20.9618" x2="30.1171" y2="20.9618" gradientUnits="userSpaceOnUse">
<stop stop-color="#D6FFBB"/>
<stop offset="1" stop-color="#5869DD"/>
</linearGradient>
<linearGradient id="paint4_linear_17875_62951" x1="4.98438" y1="20.9618" x2="30.1171" y2="20.9618" gradientUnits="userSpaceOnUse">
<stop stop-color="#D6FFBB"/>
<stop offset="1" stop-color="#5869DD"/>
</linearGradient>
<linearGradient id="paint5_linear_17875_62951" x1="4.98438" y1="20.9618" x2="30.1171" y2="20.9618" gradientUnits="userSpaceOnUse">
<stop stop-color="#D6FFBB"/>
<stop offset="1" stop-color="#5869DD"/>
</linearGradient>
<linearGradient id="paint6_linear_17875_62951" x1="4.98438" y1="20.9618" x2="30.1171" y2="20.9618" gradientUnits="userSpaceOnUse">
<stop stop-color="#D6FFBB"/>
<stop offset="1" stop-color="#5869DD"/>
</linearGradient>
<linearGradient id="paint7_linear_17875_62951" x1="4.98438" y1="20.9618" x2="30.1171" y2="20.9618" gradientUnits="userSpaceOnUse">
<stop stop-color="#D6FFBB"/>
<stop offset="1" stop-color="#5869DD"/>
</linearGradient>
<linearGradient id="paint8_linear_17875_62951" x1="4.98438" y1="20.9618" x2="30.1171" y2="20.9618" gradientUnits="userSpaceOnUse">
<stop stop-color="#D6FFBB"/>
<stop offset="1" stop-color="#5869DD"/>
</linearGradient>
<linearGradient id="paint9_linear_17875_62951" x1="4.98438" y1="20.9618" x2="30.1171" y2="20.9618" gradientUnits="userSpaceOnUse">
<stop stop-color="#D6FFBB"/>
<stop offset="1" stop-color="#5869DD"/>
</linearGradient>
<linearGradient id="paint10_linear_17875_62951" x1="4.98438" y1="20.9618" x2="30.1171" y2="20.9618" gradientUnits="userSpaceOnUse">
<stop stop-color="#D6FFBB"/>
<stop offset="1" stop-color="#5869DD"/>
</linearGradient>
<linearGradient id="paint11_linear_17875_62951" x1="4.98438" y1="20.9618" x2="30.1171" y2="20.9618" gradientUnits="userSpaceOnUse">
<stop stop-color="#D6FFBB"/>
<stop offset="1" stop-color="#5869DD"/>
</linearGradient>
<linearGradient id="paint12_linear_17875_62951" x1="18.5551" y1="34.8723" x2="18.5551" y2="6.52719" gradientUnits="userSpaceOnUse">
<stop stop-color="#D6FFBB"/>
<stop offset="1" stop-color="#5869DD"/>
</linearGradient>
<linearGradient id="paint13_linear_17875_62951" x1="18.5551" y1="34.8723" x2="18.5551" y2="6.52719" gradientUnits="userSpaceOnUse">
<stop stop-color="#D6FFBB"/>
<stop offset="1" stop-color="#5869DD"/>
</linearGradient>
<linearGradient id="paint14_linear_17875_62951" x1="18.5551" y1="34.8723" x2="18.5551" y2="6.52719" gradientUnits="userSpaceOnUse">
<stop stop-color="#D6FFBB"/>
<stop offset="1" stop-color="#5869DD"/>
</linearGradient>
<linearGradient id="paint15_linear_17875_62951" x1="18.5551" y1="34.8723" x2="18.5551" y2="6.52719" gradientUnits="userSpaceOnUse">
<stop stop-color="#D6FFBB"/>
<stop offset="1" stop-color="#5869DD"/>
</linearGradient>
<linearGradient id="paint16_linear_17875_62951" x1="18.5551" y1="34.8723" x2="18.5551" y2="6.52719" gradientUnits="userSpaceOnUse">
<stop stop-color="#D6FFBB"/>
<stop offset="1" stop-color="#5869DD"/>
</linearGradient>
<linearGradient id="paint17_linear_17875_62951" x1="18.5551" y1="34.8723" x2="18.5551" y2="6.52719" gradientUnits="userSpaceOnUse">
<stop stop-color="#D6FFBB"/>
<stop offset="1" stop-color="#5869DD"/>
</linearGradient>
<linearGradient id="paint18_linear_17875_62951" x1="18.5551" y1="34.8723" x2="18.5551" y2="6.52719" gradientUnits="userSpaceOnUse">
<stop stop-color="#D6FFBB"/>
<stop offset="1" stop-color="#5869DD"/>
</linearGradient>
<linearGradient id="paint19_linear_17875_62951" x1="18.5551" y1="34.8723" x2="18.5551" y2="6.52719" gradientUnits="userSpaceOnUse">
<stop stop-color="#D6FFBB"/>
<stop offset="1" stop-color="#5869DD"/>
</linearGradient>
<linearGradient id="paint20_linear_17875_62951" x1="18.5551" y1="34.8723" x2="18.5551" y2="6.52719" gradientUnits="userSpaceOnUse">
<stop stop-color="#D6FFBB"/>
<stop offset="1" stop-color="#5869DD"/>
</linearGradient>
<linearGradient id="paint21_linear_17875_62951" x1="18.5551" y1="34.8723" x2="18.5551" y2="6.52719" gradientUnits="userSpaceOnUse">
<stop stop-color="#D6FFBB"/>
<stop offset="1" stop-color="#5869DD"/>
</linearGradient>
<linearGradient id="paint22_linear_17875_62951" x1="18.5551" y1="34.8723" x2="18.5551" y2="6.52719" gradientUnits="userSpaceOnUse">
<stop stop-color="#D6FFBB"/>
<stop offset="1" stop-color="#5869DD"/>
</linearGradient>
<linearGradient id="paint23_linear_17875_62951" x1="18.5551" y1="34.8723" x2="18.5551" y2="6.52719" gradientUnits="userSpaceOnUse">
<stop stop-color="#D6FFBB"/>
<stop offset="1" stop-color="#5869DD"/>
</linearGradient>
<linearGradient id="paint24_linear_17875_62951" x1="18.5551" y1="34.8723" x2="18.5551" y2="6.52719" gradientUnits="userSpaceOnUse">
<stop stop-color="#D6FFBB"/>
<stop offset="1" stop-color="#5869DD"/>
</linearGradient>
<linearGradient id="paint25_linear_17875_62951" x1="18.5551" y1="34.8723" x2="18.5551" y2="6.52719" gradientUnits="userSpaceOnUse">
<stop stop-color="#D6FFBB"/>
<stop offset="1" stop-color="#5869DD"/>
</linearGradient>
</defs>
</svg>
